<?xml version="1.0" encoding="UTF-8"?>
<svg id="Layer_1" data-name="Layer 1" xmlns="http://www.w3.org/2000/svg" viewBox="0 0 1600 600">
  <defs>
    <style>
      .cls-1, .cls-2, .cls-3 {
        fill: #fff;
      }

      .cls-4 {
        fill: #1c0311;
      }

      .cls-5 {
        fill: #1a1a1a;
      }

      .cls-2 {
        stroke-width: 2px;
      }

      .cls-2, .cls-6, .cls-3 {
        stroke: #1a1a1a;
      }

      .cls-2, .cls-3 {
        stroke-linecap: round;
        stroke-linejoin: round;
      }

      .cls-6 {
        fill: #7579f7;
        stroke-miterlimit: 10;
      }

      .cls-6, .cls-3 {
        stroke-width: 1.5px;
      }
    </style>
  </defs>
  <g>
    <path class="cls-4" d="M1247.16,428.49s14.17-72.5,61.48-72.38l-30.02,72.38h-31.45Z"/>
    <path class="cls-5" d="M1278.61,428.72h-31.45c-.07,0-.13-.03-.18-.08-.04-.05-.06-.12-.05-.19,.04-.18,3.66-18.36,13.02-36.3,5.5-10.54,11.89-18.94,18.97-24.95,8.84-7.51,18.8-11.31,29.6-11.31,.11,0,.24,0,.3,.1,.04,.06,.05,.14,.02,.22l-30.02,72.38c-.04,.09-.12,.14-.21,.14Zm-31.17-.46h31.02l29.83-71.92c-24.12,.12-39.37,19.63-47.93,36.01-8.71,16.67-12.43,33.56-12.92,35.91Z"/>
  </g>
  <g>
    <path class="cls-2" d="M272.53,384.67s-16.3-33.48-5.37-67.15c41.2,27.94,79.89,112.77,79.89,112.77h-55.17l-19.35-45.62Z"/>
    <path class="cls-2" d="M347.05,430.74h-55.17c-.18,0-.35-.11-.42-.28l-19.34-45.61c-.38-.79-16.18-34.25-5.39-67.48,.04-.14,.15-.25,.29-.29s.29-.03,.41,.05c21.35,14.48,41.98,44.43,55.53,67,14.67,24.44,24.42,45.74,24.52,45.95,.06,.14,.05,.31-.03,.44-.08,.13-.23,.21-.39,.21Zm-54.87-.92h54.15c-1.75-3.75-10.97-23.21-24.18-45.22-13.39-22.31-33.72-51.85-54.75-66.36-10.37,32.91,5.38,65.89,5.54,66.22,0,0,0,.01,0,.02l19.23,45.34Z"/>
  </g>
  <g>
    <path class="cls-2" d="M231.33,430.28s-29.14-1.83-32.72-36.7c39.17-14.57,65.68,36.7,65.68,36.7h-32.96Z"/>
    <path class="cls-2" d="M264.29,430.51h-32.96s0,0-.01,0c-.07,0-7.43-.52-15.12-5.31-7.1-4.42-15.95-13.49-17.81-31.6-.01-.1,.05-.2,.15-.24,8.99-3.34,18.05-3.48,26.94-.41,7.1,2.45,14.11,6.94,20.83,13.35,11.42,10.9,18.13,23.75,18.2,23.87,.04,.07,.03,.16,0,.22-.04,.07-.12,.11-.2,.11Zm-32.95-.46h32.57c-1.14-2.09-7.6-13.56-17.94-23.43-10.44-9.96-27.07-20.26-47.12-12.89,1.88,17.79,10.58,26.71,17.56,31.07,7.5,4.68,14.67,5.23,14.92,5.25Z"/>
  </g>
  <g>
    <path class="cls-2" d="M227.03,360.63s8.12,58.83,32.24,69.66h48.01s-30.57-58.67-80.25-69.66Z"/>
    <path class="cls-2" d="M307.28,430.74h-48.01c-.06,0-.13-.01-.19-.04-10.13-4.55-18.68-17.72-25.42-39.17-5-15.91-7.07-30.7-7.09-30.84-.02-.15,.03-.3,.14-.4,.11-.1,.26-.14,.41-.11,25.79,5.7,46.32,24.41,59,39.1,13.73,15.9,21.48,30.65,21.56,30.8,.07,.14,.07,.31-.01,.45-.08,.14-.23,.22-.39,.22Zm-47.91-.92h47.14c-1.67-3.06-9.08-16.07-21.09-29.97-12.48-14.45-32.61-32.82-57.84-38.64,.99,6.48,9.61,58.52,31.79,68.6Z"/>
  </g>
  <path class="cls-1" d="M252.83,430.74s-.07,0-.11-.01c-14.03-3.41-52.76-35.43-54.4-36.79-.2-.16-.22-.45-.06-.65,.16-.2,.45-.22,.65-.06,.4,.33,40.2,33.25,54.03,36.61,.25,.06,.4,.31,.34,.56-.05,.21-.24,.35-.45,.35Z"/>
  <path class="cls-2" d="M283.64,430.74c-.05,0-.1,0-.16-.03-12.18-4.38-55.01-67.16-56.83-69.83-.14-.21-.09-.5,.12-.64,.21-.14,.5-.09,.64,.12,.44,.65,44.48,65.21,56.38,69.48,.24,.09,.36,.35,.28,.59-.07,.19-.24,.3-.43,.3Z"/>
  <path class="cls-2" d="M319.82,430.74c-.11,0-.22-.04-.3-.11-13.9-12.19-51.21-108.84-52.79-112.95-.09-.24,.03-.5,.26-.59,.24-.09,.5,.03,.59,.26,.39,1,38.81,100.54,52.54,112.58,.19,.17,.21,.46,.04,.65-.09,.1-.22,.16-.35,.16Z"/>
  <g>
    <path class="cls-2" d="M1263.77,428.49s1.43-83.03,108.91-90.91c10.75,44.42-37.26,90.91-37.26,90.91h-71.65Z"/>
    <path class="cls-2" d="M1335.42,428.95h-71.65c-.12,0-.24-.05-.33-.14s-.13-.21-.13-.33c0-.21,.52-21.14,14.22-42.74,8.05-12.69,19-23.13,32.56-31.03,16.92-9.87,37.97-15.79,62.56-17.59,.22-.02,.43,.13,.48,.35,5.59,23.1-4.88,46.72-14.66,62.46-10.57,17.03-22.61,28.77-22.73,28.89-.09,.08-.2,.13-.32,.13Zm-71.17-.92h70.99c1.34-1.32,12.56-12.62,22.47-28.6,9.62-15.51,19.93-38.7,14.62-61.37-55.04,4.14-81.49,28.45-93.99,48.13-12.45,19.6-13.92,38.64-14.09,41.83Z"/>
  </g>
  <g>
    <path class="cls-2" d="M1311.06,428.49s20.42-72.66,110.7-76.24c0,31.36-14.15,68.46-30.45,76.24h-80.25Z"/>
    <path class="cls-2" d="M1391.31,428.95h-80.25c-.14,0-.28-.07-.37-.18-.09-.11-.12-.26-.08-.4,.05-.18,5.32-18.48,21.59-36.96,9.56-10.85,20.98-19.65,33.96-26.15,16.22-8.12,34.91-12.65,55.57-13.47,.12-.01,.25,.04,.34,.13,.09,.09,.14,.21,.14,.33,0,32.44-14.64,68.98-30.71,76.65-.06,.03-.13,.04-.2,.04Zm-79.63-.92h79.53c15.69-7.6,29.96-43.34,30.1-75.3-46.17,1.96-73.53,22.41-88.37,39.25-14.52,16.47-20.21,32.79-21.25,36.05Z"/>
  </g>
  <g>
    <path class="cls-2" d="M125.63,428.49H1483.22s43.74,110.19-421.33,111.62c-88.13,24.36-370.73,47.29-442.93-10.03-134.05,31.52-608.17-35.52-493.32-101.59Z"/>
    <path class="cls-2" d="M813.44,566.37c-40.87,0-76.95-2.24-107.48-6.68-40.92-5.95-70.3-15.71-87.36-29.02-24.99,5.75-63.07,8.45-110.22,7.8-44.65-.61-95.5-4.14-147.05-10.19-51.97-6.1-101.01-14.36-141.81-23.87-44.06-10.28-76.98-21.75-95.19-33.19-11.24-7.06-17.1-14.17-17.4-21.14-.33-7.47,5.72-14.83,17.99-21.89,.18-.1,.44-.16,.72-.16H1483.22c.45,0,.84,.16,.93,.37,.03,.07,2.71,7.02-.39,17.26-2.85,9.44-11.32,23.7-35.49,38.04-27.38,16.25-68.85,29.25-123.27,38.66-67.94,11.74-156.39,17.87-262.87,18.2-41.65,11.47-133.11,23.93-227.66,25.61-7.15,.13-14.16,.19-21.04,.19Zm-194.49-36.75c.32,0,.63,.08,.81,.22,42.07,33.39,152.54,36.53,214.65,35.43,94.41-1.68,185.66-14.13,227.01-25.55,.14-.04,.3-.06,.46-.06,106.38-.33,194.69-6.43,262.49-18.15,54.09-9.35,95.28-22.26,122.44-38.37,42.8-25.4,36.65-50.82,35.6-54.17H126.07c-23,13.34-23.08,27.37-.25,41.71,35.07,22.02,125.49,43.75,235.95,56.73,51.42,6.04,102.14,9.56,146.66,10.17,47.33,.65,85.4-2.08,110.11-7.89,.13-.03,.27-.05,.41-.05Z"/>
  </g>
  <g>
    <path class="cls-1" d="M866.39,379.71c58.84-31.31,93.78-27.22,93.78-27.22,0,0,12.9,4.26,13.97,19.84,1.07,15.58-125.21,80.07-125.21,80.07,0,0-64.49-3.76-80.61-11.82-16.12-8.06-66.1-53.2-66.1-53.2,0,0,26.33-2.7,32.24-4.04,5.91-1.34,61.15-18.53,61.15-18.53l70.78,14.9Z"/>
    <path class="cls-2" d="M848.92,452.85s-.02,0-.03,0c-2.64-.15-64.77-3.86-80.79-11.87-15.99-8-65.7-52.82-66.2-53.27-.13-.12-.19-.31-.13-.48,.06-.17,.21-.3,.39-.31,.26-.03,26.37-2.71,32.19-4.03,5.83-1.32,60.56-18.35,61.11-18.52,.24-.07,.5,.06,.58,.3,.08,.24-.06,.5-.3,.58-2.26,.7-55.32,17.22-61.18,18.54-5.28,1.19-26.28,3.42-31.27,3.94,6.38,5.72,50.44,45.04,65.23,52.44,15.52,7.76,77.11,11.57,80.31,11.77,2.09-1.07,32.74-16.8,62.88-34.12,51.76-29.75,62.27-41.13,61.97-45.45-1.01-14.63-12.8-19.13-13.62-19.42-.72-.07-9.45-.87-24.7,1.88-14.64,2.64-38.45,9.17-68.76,25.29-.22,.12-.5,.03-.62-.19-.12-.22-.03-.5,.19-.62,30.45-16.2,54.38-22.75,69.09-25.4,15.97-2.87,24.87-1.88,24.96-1.87,.03,0,.06,.01,.09,.02,.13,.04,13.2,4.54,14.29,20.25,.46,6.65-20.55,22.23-62.43,46.31-31.09,17.87-62.71,34.04-63.03,34.2-.06,.03-.14,.05-.21,.05Z"/>
  </g>
  <g>
    <path class="cls-3" d="M956.13,352.31c27.02-1.6,57.11,30.52,24.15,55.24-32.96,24.72-120.26,59.74-120.26,59.74,0,0-56.61,2.11-64.13-15.44-4.16-9.71,40.16-37.68,85.98-63.41l74.25-36.14Z"/>
    <path class="cls-3" d="M853.93,467.85c-14.96,0-52.3-1.46-58.45-15.81-2.03-4.73,5.96-13.32,24.4-26.25,14.48-10.15,35.26-22.85,61.78-37.74,.22-.12,.5-.05,.63,.18,.12,.22,.05,.5-.18,.63-26.49,14.87-47.25,27.55-61.7,37.69-22.16,15.54-25.33,22.25-24.09,25.14,7.19,16.77,61.19,15.24,63.61,15.17,2.99-1.21,87.96-35.57,120.08-59.66,12.37-9.27,16.91-20.57,12.79-31.8-4.9-13.37-21.34-23.52-36.64-22.61-.25,.01-.47-.18-.49-.43-.02-.25,.18-.47,.43-.49,15.68-.93,32.53,9.49,37.56,23.21,2.47,6.74,4.06,19.98-13.11,32.85-32.63,24.47-119.49,59.45-120.36,59.8-.05,.02-.1,.03-.15,.03-.43,.02-2.69,.09-6.12,.09Z"/>
  </g>
  <g>
    <path class="cls-4" d="M688.42,437.17s-18.71,27.7-3.94,46.03c4.66,7.69,41.56-5.2,53.38-8.42,11.82-3.22,30.45-10.75,30.45-10.75l-79.89-26.86Z"/>
    <path class="cls-5" d="M691.83,485.83c-3.73,0-6.46-.72-7.55-2.51-7.68-9.52-6.19-21.61-3.59-30.08,2.81-9.14,7.49-16.13,7.54-16.2,.07-.1,.21-.13,.32-.06,.11,.07,.13,.21,.06,.32-.19,.28-18.45,27.77-3.95,45.76,3.83,6.31,31.04-1.89,45.66-6.3,2.99-.9,5.56-1.68,7.48-2.2,11.67-3.18,30.24-10.67,30.43-10.75,.12-.05,.25,0,.3,.13s0,.25-.13,.3c-.19,.08-18.78,7.57-30.48,10.76-1.91,.52-4.49,1.3-7.47,2.2-11.49,3.46-28.62,8.63-38.62,8.63Z"/>
  </g>
  <g>
    <path class="cls-2" d="M834.63,478.81c3.21-8.44,2.57-18.15-1.15-26.33-4.47,.86-7.66,1.29-8.91,.93-5.73-1.67-18.63-3.82-18.63-3.82l-7.4,24.6s11.57,6.25,32.15,10.82c1.71-1.75,3.1-3.77,3.95-6.2Z"/>
    <path class="cls-2" d="M830.67,485.47s-.07,0-.1-.01c-20.41-4.53-32.15-10.8-32.27-10.87-.19-.1-.28-.33-.22-.54l7.4-24.6c.07-.22,.29-.36,.52-.32,.13,.02,12.99,2.17,18.68,3.83,1.37,.4,5.62-.34,8.7-.94,.21-.04,.42,.07,.51,.26,3.92,8.61,4.34,18.34,1.17,26.68-.82,2.33-2.15,4.41-4.05,6.36-.09,.09-.21,.14-.33,.14Zm-31.6-11.52c2.02,1.03,13.22,6.47,31.45,10.55,1.72-1.8,2.92-3.71,3.67-5.84,0,0,0,0,0-.01,3.05-8.01,2.69-17.34-.99-25.65-4.95,.94-7.58,1.2-8.77,.85-5.08-1.48-15.96-3.36-18.18-3.74l-7.18,23.85Z"/>
  </g>
  <g>
    <path class="cls-4" d="M899.56,443.38c-17.74-2.61-50.08,6.01-66.08,9.1,3.72,8.18,4.37,17.9,1.15,26.33-.86,2.42-2.24,4.44-3.95,6.2,2.53,.56,5.18,1.1,7.98,1.6,25.56,4.54,70.46,17.43,72.61,5.97,2.15-11.46,10.99-45.85-11.7-49.2Z"/>
    <path class="cls-5" d="M899.92,497.42c-10.77,0-27.39-3.55-42.56-6.79-6.79-1.45-13.21-2.82-18.75-3.8-2.63-.47-5.32-1.01-7.99-1.6-.08-.02-.15-.08-.17-.16-.02-.08,0-.17,.06-.23,1.83-1.88,3.11-3.88,3.9-6.11,3.12-8.18,2.7-17.72-1.14-26.16-.03-.06-.03-.14,0-.2,.03-.06,.09-.11,.16-.12,3.16-.61,7.04-1.45,11.15-2.35,17.19-3.74,40.73-8.86,55.01-6.76,4.87,.72,8.64,2.93,11.2,6.56,7.25,10.31,3.37,29.58,1.29,39.93-.22,1.11-.42,2.11-.59,2.98-.22,1.2-.91,2.19-2.03,2.94-1.99,1.32-5.31,1.87-9.53,1.87Zm-68.8-12.55c2.53,.56,5.07,1.06,7.57,1.51,5.56,.99,11.98,2.36,18.77,3.81,21.02,4.49,44.85,9.57,51.74,4.99,1.03-.69,1.63-1.55,1.84-2.64,.16-.87,.36-1.87,.59-2.98,2.07-10.28,5.92-29.43-1.21-39.57-2.48-3.53-6.15-5.67-10.89-6.37-14.2-2.1-37.69,3.02-54.85,6.75-3.99,.87-7.76,1.69-10.87,2.29,3.78,8.49,4.16,18.04,1.04,26.25-.77,2.18-1.99,4.14-3.72,5.98Z"/>
  </g>
  <g>
    <path class="cls-3" d="M721.74,389.17s89.21,49.08,92.07,60.9-15.76,29.73-15.76,29.73c0,0-167.59-47.38-174.12-87.41-5.37-32.96,16.48-38,35.67-39.07,19.19-1.07,94.74,20.8,94.74,20.8l78.1,5.59,36.61-1.37-147.32,10.82Z"/>
    <path class="cls-3" d="M798.05,480.26s-.08,0-.12-.02c-.42-.12-42.41-12.04-84.65-28.71-24.82-9.79-44.88-19.28-59.62-28.21-18.51-11.21-28.66-21.59-30.18-30.86-1.98-12.17-.37-21.6,4.8-28.03,7.32-9.11,20.58-10.97,31.31-11.56,18.97-1.07,91.14,19.73,94.84,20.8l78.03,5.59,36.59-1.36c.26-.02,.47,.19,.48,.44,0,.25-.19,.47-.44,.48l-36.61,1.37s-.03,0-.05,0l-78.1-5.59s-.06,0-.1-.02c-.75-.22-75.68-21.82-94.58-20.78-10.54,.59-23.55,2.39-30.64,11.22-5,6.22-6.55,15.41-4.6,27.31,2.64,16.2,33.49,36.38,89.22,58.36,40.48,15.97,80.73,27.58,84.32,28.61,1.94-1.92,18.07-18.31,15.45-29.11-2.79-11.49-90.96-60.12-91.85-60.61-.22-.12-.3-.4-.18-.62s.4-.3,.62-.18c3.65,2.01,89.42,49.31,92.3,61.19,2.89,11.94-15.12,29.43-15.89,30.17-.09,.08-.2,.13-.32,.13Z"/>
  </g>
  <g>
    <path class="cls-6" d="M779.91,211.91s-31.79,.37-16.44,57.24c15.33,60.91-9.14,106.82-9.14,106.82,0,0,96.64,12.96,114.72,3.37,18.63-39.43,38.69-161.72,0-167.43-38.69-5.71-89.14,0-89.14,0Z"/>
    <path class="cls-6" d="M840.48,383.36c-33.96,0-83.35-6.55-86.2-6.93-.15-.02-.28-.11-.35-.25-.07-.13-.07-.29,0-.43,.06-.11,6.15-11.66,10.28-30.48,3.82-17.36,6.71-44.64-1.19-76.01-6.21-23-5.59-39.65,1.86-49.48,6.06-8,14.39-8.32,15-8.33,1.31-.15,51.25-5.61,89.24,0,6.27,.93,11.33,4.9,15.03,11.82,10.51,19.64,7.67,57.33,5.05,78.05-3.78,29.81-11.71,61.24-19.73,78.22-.04,.09-.11,.16-.2,.21-4.99,2.65-15.76,3.61-28.79,3.61Zm-85.44-7.76c8.43,1.1,96.36,12.28,113.66,3.4,7.96-16.93,15.83-48.16,19.58-77.8,2.61-20.61,5.44-58.08-4.95-77.5-3.56-6.64-8.39-10.46-14.35-11.34-38.19-5.64-88.52-.05-89.03,0-.02,0-.03,0-.05,0-.08,0-8.43,.2-14.31,7.99-7.15,9.46-7.73,26.3-1.69,48.68,7.95,31.56,5.03,59,1.19,76.47-3.64,16.54-8.78,27.51-10.06,30.1Zm24.87-163.69h0Z"/>
  </g>
  <g>
    <path class="cls-2" d="M707.53,94.93s15.05-37.02,27.94-31.52c12.9,5.49,16.48,20.54,14.33,26.51-2.15,5.97-10.99,8.6-10.99,8.6,0,0-5.02-.96-5.73-4.78-8.12,10.99-14.57,13.37-14.57,13.37l-10.99-12.18Z"/>
    <path class="cls-2" d="M718.51,107.57c-.13,0-.25-.05-.34-.15l-10.99-12.18c-.12-.13-.15-.32-.08-.48,.45-1.1,11.09-27.03,22.33-31.66,2.19-.9,4.28-.94,6.22-.11,13.09,5.57,16.88,20.71,14.58,27.09-2.2,6.12-10.92,8.77-11.29,8.88-.07,.02-.14,.02-.22,.01-.2-.04-4.54-.9-5.83-4.21-7.84,10.34-13.96,12.69-14.22,12.79-.05,.02-.11,.03-.16,.03Zm-10.45-12.73l10.57,11.72c1.32-.61,7.1-3.65,14.08-13.09,.11-.15,.29-.22,.47-.17,.18,.04,.32,.18,.35,.36,.6,3.18,4.55,4.22,5.26,4.39,1.01-.32,8.66-2.95,10.58-8.28,2.14-5.93-1.68-20.65-14.08-25.93-1.7-.73-3.55-.69-5.51,.12-10.3,4.24-20.55,28.1-21.72,30.89Z"/>
  </g>
  <g>
    <path class="cls-6" d="M764.68,274.29s-74.83-14.8-92.92-68.52c-14.05-41.71,30.92-102.04,34.75-119.31,18.71,17.75,17.97,20.96,17.97,20.96,0,0-27.15,53.12-14.68,78.06,12.47,24.94,61.44,27.2,70.11,26.44l-15.23,62.37Z"/>
    <path class="cls-6" d="M764.68,274.75s-.06,0-.09,0c-.19-.04-19.01-3.83-39.79-14.16-12.21-6.07-22.71-13.17-31.2-21.11-10.63-9.94-18.12-21.23-22.27-33.56-10.25-30.42,10.58-70.44,24.36-96.93,5.22-10.02,9.33-17.94,10.38-22.63,.04-.16,.16-.29,.31-.34,.16-.05,.33,0,.45,.11,18.37,17.42,18.18,21.04,18.1,21.39,0,.04-.02,.07-.04,.11-.27,.53-26.9,53.2-14.67,77.65,12.59,25.18,62.55,26.81,69.66,26.19,.25-.02,.48,.17,.5,.42,.02,.25-.16,.48-.42,.5-4.33,.38-18.85,0-33.78-3.59-13.09-3.15-30.1-9.72-36.79-23.1-5.23-10.45-4.34-26.85,2.64-48.73,4.95-15.51,11.37-28.4,11.99-29.65-.06-.52-1.04-4.52-17.25-19.97-1.31,4.87-5.29,12.52-10.27,22.07-13.71,26.35-34.43,66.16-24.31,96.21,9.29,27.59,33.95,44.67,53,54.13,20.68,10.27,39.39,14.05,39.58,14.09,.25,.05,.41,.29,.36,.54-.04,.22-.24,.37-.45,.37Z"/>
  </g>
  <g>
    <polygon class="cls-4" points="711.45 348.56 745.58 399.79 838.18 402.35 814.77 352.26 711.45 348.56"/>
    <path class="cls-5" d="M838.18,402.58h0l-92.59-2.57c-.07,0-.14-.04-.18-.1l-34.13-51.23c-.05-.07-.05-.16,0-.24,.04-.07,.12-.11,.21-.12l103.32,3.7c.09,0,.16,.05,.2,.13l23.4,50.1c.03,.07,.03,.16-.02,.22-.04,.06-.11,.1-.19,.1Zm-92.47-3.02l92.1,2.55-23.19-49.63-102.73-3.68,33.82,50.76Z"/>
  </g>
  <g>
    <polygon class="cls-3" points="706.43 348.56 740.56 399.79 833.16 402.35 809.75 352.26 706.43 348.56"/>
    <path class="cls-3" d="M833.16,402.81h-.01l-92.59-2.57c-.15,0-.29-.08-.37-.2l-34.13-51.23c-.1-.14-.1-.33-.02-.48,.08-.15,.25-.24,.42-.24l103.32,3.7c.17,0,.33,.11,.4,.26l23.4,50.1c.07,.14,.06,.31-.03,.45-.09,.13-.23,.21-.38,.21Zm-92.34-3.48l91.61,2.54-22.97-49.17-102.15-3.65,33.51,50.28Z"/>
  </g>
  <g>
    <path class="cls-2" d="M867.19,380.21s-20.78,3.05-22.93,10.57c-12.18,1.43-12.18,2.74-12.18,2.74,0,0,2.33,20.9,18.81,17.5,16.48-3.4,28.66-21.14,28.66-21.14l-12.36-9.67Z"/>
    <path class="cls-2" d="M847.41,411.85c-2.9,0-5.48-.82-7.72-2.44-6.77-4.92-8.01-15.4-8.06-15.84,0-.02,0-.03,0-.05,0-1.39,6.61-2.48,12.29-3.16,2.63-7.5,22.36-10.48,23.21-10.6,.12-.02,.25,.02,.35,.09l12.36,9.67c.19,.15,.23,.42,.1,.62-.12,.18-12.48,17.92-28.95,21.33-1.24,.26-2.43,.38-3.58,.38Zm-14.84-18.2c.2,1.41,1.69,10.68,7.67,15.02,2.91,2.11,6.46,2.75,10.57,1.9,14.84-3.06,26.31-18.1,28.12-20.6l-11.86-9.28c-2.09,.33-20.42,3.43-22.36,10.21-.05,.18-.2,.31-.39,.33-9.45,1.11-11.4,2.15-11.75,2.41Zm11.7-2.87h0Z"/>
  </g>
  <g>
    <path class="cls-6" d="M867.62,211.44s80.18,21.89,70.7,94.25c-8.51,64.93-58.59,87.82-58.59,87.82-9.76-.42-17.24-.21-16.3-15.28,0,0,38.16-54.9,38.16-65.33s-5.38-29.75-16.48-41.26l-17.48-60.2Z"/>
    <path class="cls-6" d="M879.74,393.98s-.01,0-.02,0l-.95-.04c-5.51-.23-10.26-.42-13.13-3.59-2.18-2.42-3.03-6.28-2.67-12.13,0-.08,.03-.17,.08-.23,.38-.55,38.08-54.9,38.08-65.07s-5.07-29.25-16.35-40.94c-.18-.18-.17-.47,.01-.65,.18-.18,.47-.17,.65,.01,11.46,11.88,16.61,31.47,16.61,41.58s-35.78,62.05-38.17,65.49c-.32,5.45,.48,9.16,2.44,11.33,2.61,2.89,7.18,3.07,12.48,3.29l.84,.03c1.2-.57,13.15-6.46,25.9-19.45,12.33-12.57,27.95-34.57,32.33-67.97,4.87-37.16-14.51-60.67-31.62-73.84-18.57-14.3-38.55-19.86-38.75-19.91-.24-.07-.39-.32-.32-.56,.07-.24,.32-.39,.56-.32,.2,.06,20.35,5.66,39.06,20.07,11,8.47,19.37,18.28,24.88,29.16,6.88,13.61,9.27,28.92,7.09,45.52-4.41,33.66-20.17,55.84-32.61,68.52-13.49,13.74-26.11,19.6-26.24,19.66-.06,.03-.13,.04-.19,.04Z"/>
  </g>
  <g>
    <path class="cls-2" d="M809.51,203.09c2.07,7.98-3.03,8.65-8.23,16.99,0,9.6,27.95,32.76,45.14,3.94-.67-25.28-3.94-18.87-3.94-18.87,10.27-18.75,16.48-62.21-.05-67.71-16.53-5.49-30.29,7.88-30.29,7.88,0,0-21.97,47.65-9.08,54.99,12.9,7.34,28.66,3.76,28.66,3.76l-22.22-.98Z"/>
    <path class="cls-2" d="M825.52,238.43c-2.34,0-4.43-.38-6.11-.84-10.02-2.76-18.6-11.94-18.6-17.51,0-.09,.02-.17,.07-.24,1.73-2.78,3.49-4.75,4.9-6.34,2.83-3.18,4.55-5.11,3.34-10.05-2.12-.68-4.24-1.57-6.29-2.73-13.11-7.47,7.98-53.62,8.89-55.58,.02-.05,.06-.1,.1-.14,.14-.14,14.15-13.5,30.75-7.99,3.55,1.18,6.26,4.09,8.05,8.63,5.61,14.27,.79,42.94-7.02,58.35,1.19,.29,2.82,2.71,3.27,20.01,0,.09-.02,.17-.06,.25-6.8,11.4-14.96,14.18-21.29,14.18Zm-23.79-18.22c.14,4.74,7.62,13.66,17.92,16.5,10.29,2.84,19.63-1.71,26.29-12.81-.48-17.65-2.22-18.93-2.57-19.01-.13-.04-.36,.24-.47,.42-.01,.02-.02,.04-.03,.06-.12,.22-.4,.3-.62,.19-.22-.12-.31-.39-.19-.62,0-.01,.02-.04,.04-.07,8.12-14.87,13.35-44.43,7.66-58.9-1.68-4.28-4.2-7.01-7.48-8.1-15.52-5.16-28.75,6.78-29.76,7.72-1.01,2.21-21.37,47.4-9.23,54.32,12.59,7.17,28.18,3.75,28.33,3.71,.25-.06,.49,.1,.55,.35,.06,.25-.1,.49-.35,.55-.13,.03-10.77,2.37-21.69-.77,1.08,5.02-.84,7.18-3.66,10.35-1.44,1.62-3.07,3.45-4.74,6.1Z"/>
  </g>
  <g>
    <path class="cls-4" d="M806.29,133.5s-12.85,11.11,13.1,23.29c19.5,7.16,14.13,13.97,15.2,21.85l1.79,2.87s.72-7.88,5.37-5.02c4.66,2.87,6.45,13.61,0,18.63,.72,10.03,5.73,7.88,5.73,7.88,0,0,10.39-14.33,11.82-24.36,1.43-10.03,4.27-22.54-2.87-28.66,4.66-12.18-23.18-25.08-47.95-16.48h-2.2Z"/>
    <path class="cls-5" d="M846.39,203.42c-.51,0-1.14-.11-1.78-.5-1.75-1.07-2.79-3.69-3.08-7.79,0-.08,.03-.15,.09-.2,2.82-2.19,4.3-5.78,4.08-9.84-.2-3.66-1.83-7.04-4.06-8.42-1.02-.63-1.9-.76-2.64-.39-1.98,.99-2.38,5.19-2.39,5.23,0,.1-.08,.18-.18,.2-.1,.02-.2-.02-.25-.1l-1.79-2.87s-.03-.06-.03-.09c-.22-1.65-.17-3.25-.12-4.8,.2-6.03,.38-11.24-14.94-16.87-10.11-4.74-15.61-9.88-16.35-15.27-.69-5,3.14-8.37,3.18-8.4,.1-.08,.24-.07,.32,.02s.07,.24-.02,.32c-.04,.03-3.68,3.25-3.02,8,.72,5.22,6.13,10.24,16.07,14.9,15.61,5.73,15.42,11.35,15.22,17.31-.05,1.52-.1,3.08,.11,4.67l1.43,2.28c.2-1.28,.83-4.09,2.55-4.95,.89-.44,1.93-.31,3.09,.41,2.39,1.47,4.07,4.92,4.28,8.78,.23,4.17-1.29,7.86-4.16,10.15,.29,3.81,1.27,6.34,2.84,7.3,1.14,.7,2.24,.38,2.5,.28,.7-.98,10.38-14.65,11.74-24.2,.15-1.03,.31-2.08,.47-3.15,1.43-9.32,3.05-19.89-3.26-25.3-.07-.06-.1-.17-.06-.26,1.2-3.13,.24-6.43-2.76-9.53-7.76-8-27.13-12.82-44.9-6.65-.12,.04-.25-.02-.29-.14-.04-.12,.02-.25,.14-.29,17.95-6.23,37.53-1.34,45.38,6.77,3.09,3.19,4.1,6.59,2.92,9.86,6.36,5.61,4.73,16.23,3.29,25.62-.16,1.07-.32,2.12-.47,3.14-1.42,9.97-11.76,24.32-11.86,24.46-.02,.03-.06,.06-.1,.08-.03,.01-.51,.21-1.19,.21Z"/>
  </g>
  <g>
    <path class="cls-2" d="M1414.78,360.69s-41.74,54.63-67.53,67.81l67.53-67.81Z"/>
    <path class="cls-2" d="M1347.24,428.95c-.17,0-.33-.09-.41-.25-.12-.23-.03-.5,.2-.62,25.41-12.98,66.96-67.13,67.38-67.68,.15-.2,.44-.24,.64-.09,.2,.15,.24,.44,.09,.64-.42,.55-42.1,54.87-67.69,67.94-.07,.03-.14,.05-.21,.05Z"/>
  </g>
  <path class="cls-2" d="M1292.07,428.95c-.05,0-.11,0-.16-.03-.24-.09-.36-.36-.26-.59,7.48-19.48,65.71-74.09,68.19-76.41,.19-.17,.48-.16,.65,.02,.17,.19,.16,.48-.02,.65-.6,.57-60.56,56.78-67.96,76.06-.07,.18-.24,.29-.43,.29Z"/>
  <path class="cls-1" d="M881.48,483.32c-.3,0-.58-.11-.81-.33-1.11-1.05-1.17-4.56-1.17-10.21,0-6.6,0-14.82-3.01-14.91-.38-.02-.67,.1-.91,.36-1.31,1.41-.77,6.41-.25,11.24,.62,5.71,1.2,11.11-.66,13.08-.51,.54-1.18,.8-1.99,.76-.79-.04-1.44-.35-1.95-.93-1.84-2.1-1.39-7.39-.93-12.99,.52-6.24,1.06-12.7-1.82-13.33-.43-.09-.77-.03-1.05,.21-1.52,1.26-1.36,6.71-1.21,11.98,.18,6.05,.36,12.3-1.82,14.34-.58,.54-1.3,.78-2.13,.7-4.39-.42-3.75-7.76-3.13-14.86,.41-4.72,.84-9.6-.49-11.05-.26-.29-.57-.42-.99-.42-2.59,0-3.33,5.52-4.05,10.85-.67,4.97-1.36,10.11-3.65,11.84-.69,.52-1.5,.72-2.4,.59-1.07-.16-1.95-.74-2.61-1.72-3.64-5.46,.61-22.31,.8-23.03,.06-.25,.31-.39,.56-.33,.25,.06,.39,.31,.33,.56-.04,.17-4.34,17.17-.92,22.29,.51,.77,1.16,1.2,1.98,1.32,.66,.1,1.21-.04,1.71-.41,1.99-1.5,2.65-6.44,3.29-11.23,.8-5.99,1.56-11.65,4.96-11.65,.67,0,1.23,.24,1.66,.72,1.61,1.75,1.2,6.39,.73,11.75-.55,6.34-1.18,13.53,2.3,13.86,.57,.05,1.03-.1,1.42-.46,1.88-1.76,1.69-8.07,1.53-13.65-.17-5.99-.32-11.17,1.54-12.72,.51-.42,1.12-.55,1.84-.4,3.67,.79,3.12,7.35,2.55,14.3-.43,5.17-.88,10.51,.7,12.31,.34,.39,.77,.59,1.3,.62,.53,.02,.95-.13,1.28-.47,1.57-1.66,.96-7.34,.42-12.35-.57-5.27-1.11-10.25,.48-11.97,.42-.45,.96-.67,1.61-.66,3.89,.11,3.9,8.1,3.9,15.83,0,4.28,0,8.71,.88,9.54,.08,.08,.14,.08,.19,.08,.25-.03,.47,.18,.48,.43,.01,.25-.18,.47-.43,.48-.02,0-.04,0-.07,0Z"/>
  <path class="cls-1" d="M703.46,476.16c-.8,0-1.56-.26-2.26-.77-3.62-2.63-4.6-11.3-4.64-11.66-.03-.25,.15-.48,.41-.51,.25-.03,.48,.15,.51,.41,0,.09,.98,8.63,4.27,11.02,.73,.53,1.5,.7,2.35,.52,.55-.12,.93-.36,1.16-.75,.77-1.35-.23-4.26-1.2-7.08-1.29-3.76-2.62-7.64-.06-8.85,2.52-1.2,4.59,1.7,6.78,4.77,2.22,3.11,4.73,6.64,7.94,6.33,.02,0,.03,0,.05,0,.01,0,.57-.02,1-.71,.81-1.26,1.43-5.06-3.46-16.3-.1-.23,0-.5,.24-.6,.23-.1,.5,0,.6,.24,3.83,8.81,4.99,14.76,3.35,17.21-.65,.98-1.53,1.07-1.72,1.08-3.73,.35-6.41-3.4-8.77-6.71-2.04-2.87-3.81-5.34-5.64-4.48-1.81,.86-.62,4.35,.54,7.72,1.08,3.15,2.1,6.12,1.12,7.83-.36,.62-.95,1.03-1.77,1.2-.28,.06-.55,.09-.82,.09Z"/>
  <path class="cls-5" d="M734.81,465.39c-.19,0-.37-.12-.43-.31l-2.28-6.58c-.08-.24,.04-.5,.28-.58,.24-.08,.5,.04,.58,.28l2.28,6.58c.08,.24-.04,.5-.28,.58-.05,.02-.1,.03-.15,.03Z"/>
  <g>
    <path class="cls-4" d="M809.51,207.9v-4.81c8.66,1.78,16.85,2.5,23.65,.1-.71,3.59-8.6,5.16-23.65,4.71Z"/>
    <path class="cls-5" d="M814.36,208.21c-1.53,0-3.14-.03-4.86-.08-.12,0-.22-.11-.22-.23v-4.81c0-.07,.03-.13,.08-.18,.05-.04,.12-.06,.19-.05,10.41,2.14,17.67,2.18,23.53,.11,.08-.03,.16-.01,.23,.04,.06,.05,.09,.14,.07,.22-.66,3.33-6.9,4.97-19.03,4.97Zm-4.62-.53c14.12,.41,21.88-.98,23.08-4.12-5.82,1.93-12.97,1.88-23.08-.18v4.3Z"/>
  </g>
  <g>
    <g>
      <path class="cls-2" d="M1007.91,128.55c-1.6,3.87-4.16,7.06-7.29,9.4-.65,.49-18.38,19.06-18.38,19.06l-18.02-7.46s.79-25.29,.68-25.94c-.67-4.01-.26-8.24,1.41-12.28,4.75-11.48,17.92-16.94,29.4-12.19,11.49,4.75,16.94,17.92,12.19,29.4Z"/>
      <path class="cls-2" d="M982.09,157.39l-18.02-7.46c-.15-.06-.25-.22-.25-.38,.31-10.03,.75-25.2,.68-25.88-.7-4.2-.2-8.52,1.44-12.49,4.83-11.67,18.25-17.23,29.93-12.4s17.24,18.25,12.41,29.92c-1.58,3.81-4.14,7.12-7.42,9.57-.54,.43-11.26,11.61-18.33,19.02-.11,.12-.29,.16-.44,.09Zm-17.45-8.09l17.51,7.25c2.53-2.65,17.6-18.43,18.24-18.91,3.16-2.37,5.64-5.56,7.16-9.23,4.66-11.26-.71-24.21-11.97-28.87s-24.22,.71-28.88,11.97c-1.58,3.83-2.06,8-1.39,12.06,.11,.64-.52,20.94-.67,25.74Z"/>
    </g>
    <g>
      <path class="cls-2" d="M985.27,160.44l-.06,.14c-.42,1.02-1.59,1.51-2.62,1.08l-21.77-9.01c-1.03-.42-1.51-1.6-1.09-2.62l.06-.14c.42-1.02,1.6-1.51,2.62-1.09l21.77,9.01c1.02,.42,1.51,1.59,1.08,2.62Z"/>
      <path class="cls-2" d="M982.45,162.03l-21.77-9.01c-1.23-.51-1.81-1.92-1.31-3.14l.06-.14c.51-1.23,1.92-1.81,3.15-1.3l21.77,9.01c1.22,.51,1.81,1.92,1.3,3.14l-.06,.14c-.51,1.22-1.92,1.81-3.14,1.3Zm-20.18-12.85c-.82-.34-1.76,.05-2.1,.87l-.06,.14c-.34,.82,.05,1.75,.87,2.09l21.77,9.01c.82,.34,1.75-.05,2.09-.87l.06-.14c.34-.82-.05-1.76-.86-2.09l-21.77-9.01Z"/>
    </g>
    <g>
      <path class="cls-2" d="M980.59,160.83l-6.68,10.96c-.85,2.06-2.97,3.14-4.74,2.4l-7.69-3.18c-1.76-.73-2.5-2.99-1.65-5.05l3.02-12.48,17.74,7.34Z"/>
      <path class="cls-2" d="M969.01,174.56l-7.69-3.18c-1.96-.81-2.79-3.29-1.88-5.54l3.01-12.45c.03-.11,.1-.21,.21-.26s.23-.06,.34-.01l17.74,7.34c.11,.04,.19,.14,.23,.25s.02,.23-.04,.33l-6.67,10.93c-.94,2.24-3.29,3.4-5.25,2.59Zm-5.89-20.53l-2.91,12.02s-.01,.04-.02,.06c-.77,1.85-.12,3.88,1.43,4.52l7.69,3.18c1.56,.64,3.45-.34,4.21-2.19,0-.02,.02-.04,.03-.06l6.44-10.56-16.88-6.98Z"/>
    </g>
    <g>
      <path class="cls-2" d="M961.89,157.61l16.46,6.81-16.46-6.81Z"/>
      <path class="cls-2" d="M978.2,164.8l-16.47-6.81c-.21-.08-.3-.32-.22-.52s.32-.3,.52-.22l16.47,6.81c.21,.08,.3,.32,.22,.52s-.32,.3-.52,.22Z"/>
    </g>
    <g>
      <path class="cls-2" d="M960.79,162.64l14.79,6.12-14.79-6.12Z"/>
      <path class="cls-2" d="M975.42,169.13l-14.79-6.12c-.21-.08-.3-.32-.22-.52s.32-.3,.52-.22l14.79,6.12c.21,.08,.3,.32,.22,.52s-.32,.3-.52,.22Z"/>
    </g>
    <path class="cls-2" d="M969.34,152.11c-.15-.06-.26-.22-.25-.4,.38-5.87,2.43-35.25,5.09-36.92,.47-.29,.91-.37,1.32-.22,.9,.33,1.34,1.59,1.86,3.07,.55,1.59,1.18,3.39,2.37,3.68,1.17,.29,1.98-.66,2.93-1.76,1.07-1.24,2.28-2.65,4.17-1.91,.02,0,.04,.01,.05,.02,1.82,.75,1.5,2.5,1.22,4.04-.27,1.46-.52,2.84,.69,3.63,1.22,.8,2.39-.06,3.74-1.06,1.44-1.06,3.07-2.26,5.04-1.48,.31,.13,.53,.38,.63,.73,1.17,4.44-20.38,31.41-20.6,31.68-.14,.17-.39,.2-.56,.06-.17-.14-.2-.39-.06-.56,7.03-8.77,21.27-27.87,20.45-30.97-.03-.13-.09-.17-.15-.19-1.55-.62-2.87,.35-4.27,1.38-1.46,1.07-2.97,2.19-4.65,1.08-1.66-1.08-1.33-2.87-1.04-4.45,.3-1.66,.43-2.7-.77-3.17-1.27-.5-2.08,.3-3.27,1.68-.98,1.14-2.09,2.42-3.73,2.02-1.61-.4-2.32-2.41-2.94-4.19-.41-1.17-.84-2.37-1.37-2.57-.06-.02-.25-.09-.63,.15-1.78,1.11-3.84,22.85-4.72,36.29-.01,.22-.21,.39-.43,.37-.05,0-.09-.01-.13-.03Z"/>
    <g>
      <polygon class="cls-2" points="967.68 150.99 969.9 146.16 980.54 150.57 979.07 155.7 967.68 150.99"/>
      <path class="cls-2" d="M978.99,155.89l-11.39-4.71c-.05-.02-.09-.06-.11-.11s-.02-.11,0-.16l2.22-4.83c.05-.1,.16-.14,.26-.1l10.64,4.41c.09,.04,.14,.14,.12,.24l-1.48,5.13c-.02,.05-.05,.1-.11,.13-.05,.02-.11,.03-.16,0Zm-11.04-5l10.99,4.55,1.36-4.75-10.3-4.26-2.05,4.46Z"/>
    </g>
  </g>
  <path class="cls-5" d="M698.09,57.79c-.18,0-.35-.11-.42-.28-.1-.23,.01-.5,.25-.6l6.57-2.75c.23-.1,.5,.01,.6,.25,.1,.23-.01,.5-.25,.6l-6.57,2.75c-.06,.02-.12,.04-.18,.04Z"/>
  <g>
    <polygon class="cls-6" points="769.79 368.87 768.31 384.63 781.33 382.88 769.79 368.87"/>
    <path class="cls-6" d="M768.31,385.09c-.12,0-.23-.05-.32-.13-.1-.1-.15-.23-.14-.37l1.48-15.76c.02-.19,.14-.34,.32-.4,.18-.05,.37,0,.49,.15l11.53,14.01c.11,.13,.13,.3,.07,.46-.06,.16-.2,.27-.37,.29l-13.02,1.75s-.04,0-.06,0Zm1.84-15.07l-1.32,14.08,11.63-1.56-10.3-12.51Z"/>
  </g>
  <g>
    <ellipse class="cls-2" cx="611.94" cy="70.82" rx="42.65" ry="42.66"/>
    <path class="cls-2" d="M611.94,113.93c-23.77,0-43.11-19.34-43.11-43.12s19.34-43.12,43.11-43.12,43.11,19.34,43.11,43.12-19.34,43.12-43.11,43.12Zm0-85.31c-23.26,0-42.19,18.93-42.19,42.2s18.93,42.2,42.19,42.2,42.19-18.93,42.19-42.2-18.93-42.2-42.19-42.2Z"/>
  </g>
  <g>
    <path class="cls-6" d="M615.78,90.81c-1.32,.73-2.6,1.36-3.84,1.86-1.23-.5-2.53-1.13-3.84-1.86-12.36-6.89-26.96-23.32-17.25-34.03,7.92-8.72,16.34-4.76,21.09-1.14,4.75-3.62,13.16-7.58,21.08,1.14,9.72,10.71-4.88,27.14-17.25,34.03Z"/>
    <path class="cls-6" d="M611.94,93.13c-.06,0-.12-.01-.17-.03-1.23-.5-2.54-1.13-3.89-1.88-9.03-5.04-18.96-14.91-20.45-24.04-.67-4.1,.37-7.69,3.09-10.69,8.13-8.95,16.8-4.84,21.43-1.41,4.62-3.43,13.3-7.54,21.42,1.41,2.72,3,3.76,6.6,3.09,10.7-1.5,9.13-11.42,19.01-20.45,24.04h0c-1.35,.75-2.66,1.39-3.89,1.88-.05,.02-.11,.03-.17,.03Zm-10.54-41.17c-3.29,0-6.79,1.38-10.2,5.13-2.53,2.78-3.49,6.12-2.87,9.93,1.45,8.84,11.16,18.46,19.99,23.39,1.25,.7,2.47,1.29,3.62,1.76,1.14-.47,2.36-1.06,3.61-1.76h0c8.84-4.93,18.54-14.54,19.99-23.39,.62-3.81-.34-7.15-2.87-9.93-7.4-8.15-15.21-5.09-20.46-1.08-.16,.13-.39,.13-.56,0-2.83-2.16-6.41-4.05-10.26-4.05Zm14.38,38.85h0Z"/>
  </g>
</svg>