<?xml version="1.0" encoding="UTF-8"?>
<svg id="Layer_1" data-name="Layer 1" xmlns="http://www.w3.org/2000/svg" viewBox="0 0 1600 600">
  <defs>
    <style>
      .cls-1 {
        fill: #fff;
      }

      .cls-2 {
        fill: #eff0f1;
      }

      .cls-3 {
        fill: #c2c6f9;
      }

      .cls-4 {
        fill: #1a1a1a;
      }

      .cls-5 {
        fill: #7579f7;
      }
    </style>
  </defs>
  <g>
    <g>
      <g>
        <path class="cls-1" d="M460.17,456.78c4.66-12.46,8.81-34.79-13.73-48.75-4.84,12.07-8.9,36.26,13.73,48.75Z"/>
        <path class="cls-4" d="M460.17,457.56c-.13,0-.26-.03-.38-.1-5.41-2.99-9.67-6.84-12.65-11.45-2.59-4-4.24-8.6-4.91-13.66-1.43-10.8,1.96-20.81,3.49-24.61,.09-.21,.26-.38,.48-.45,.22-.07,.46-.04,.66,.08,10.13,6.27,15.99,14.85,17.43,25.49,1.24,9.21-1.15,18.24-3.38,24.19-.08,.21-.25,.38-.46,.46-.09,.03-.18,.05-.27,.05Zm-13.34-48.36c-2.65,7.07-10.33,32.94,12.92,46.44,4.29-12,7.77-33.05-12.92-46.44Z"/>
      </g>
      <path class="cls-4" d="M485.25,497.25c-.15,0-.31-.05-.45-.14-16.2-11.3-31.85-50.89-32.11-68.37,0-.43,.34-.79,.77-.79,0,0,0,0,.01,0,.43,0,.78,.34,.78,.77,.12,8.43,4.01,22.5,9.91,35.85,6.59,14.92,14.44,26.32,21.53,31.26,.35,.25,.44,.73,.19,1.09-.15,.22-.4,.34-.64,.34Z"/>
      <path class="cls-2" d="M1094.12,540.98c0,6.39-1.72,12.37-4.74,17.51-28.71,.04-68.2,.09-113.07,.14-5.31-7.1-8.44-15.89-8.44-25.43,0-23.49,19.08-42.53,42.62-42.53,14.55,0,27.38,7.27,35.07,18.37,4.21-1.81,8.85-2.81,13.73-2.81,19.23,0,34.82,15.56,34.82,34.75Z"/>
      <path d="M848.87,544.89c4.58,2.92,6.11,4.22,6.74,8.77,.43,3.14,3.42,5.04,7.61,4.91h29.61l12.33,.06v-10.57s-17.67-20.81-17.67-20.81l-25.67,3.81-12.95,13.84Z"/>
      <path class="cls-2" d="M756.47,550.33c0,2.94-.56,5.77-1.6,8.43-111.94,.09-225.85,.11-282.21-.05-3.49-7.39-5.45-15.65-5.45-24.37,0-31.59,25.67-57.21,57.31-57.21,12.47,0,24.01,3.98,33.42,10.74,9.04-16.32,25.53-27.24,44.36-27.24,27.64,0,50.21,23.49,51.65,53.06,4.32-1.81,9.07-2.81,14.06-2.81,15.18,0,28.18,9.29,33.62,22.48,5.69-5.83,14.25-9.54,23.82-9.54,17.13,0,31.01,11.87,31.01,26.51Z"/>
      <ellipse class="cls-2" cx="435.81" cy="504.91" rx="17.67" ry="16.11"/>
      <g>
        <path class="cls-1" d="M475.77,458.36c-3.43-8.01-6.45-29.28,11.94-38.5,9.91,9.3,5.34,33.44-11.94,38.5Z"/>
        <path class="cls-4" d="M475.77,459.14c-.31,0-.59-.18-.72-.47-1.76-4.1-3.4-11.6-2.27-19.22,.96-6.4,4.26-15.12,14.57-20.29,.29-.15,.65-.1,.89,.13,2.43,2.28,4.13,5.51,4.92,9.34,.75,3.64,.64,7.65-.3,11.6-2.24,9.38-8.55,16.44-16.87,18.88-.07,.02-.15,.03-.22,.03Zm11.8-38.33c-9.32,4.9-12.35,12.94-13.23,18.87-1.03,6.91,.32,13.7,1.89,17.72,7.44-2.45,13.07-8.95,15.12-17.53,1.79-7.47,.3-14.88-3.77-19.06Z"/>
      </g>
      <g>
        <path class="cls-1" d="M421.11,430.87c21.44,5.92,26.69,27.57,28.06,37.72-18.32,1.1-35.69-17.93-28.06-37.72Z"/>
        <path class="cls-4" d="M447.66,469.42c-9.04,0-17.99-4.66-23.66-12.42-5.74-7.85-7.06-17.48-3.62-26.41,.14-.38,.55-.58,.94-.47,9.52,2.63,16.93,8.57,22.03,17.65,4.13,7.37,5.87,15.34,6.6,20.72,.03,.22-.03,.43-.17,.6-.14,.17-.34,.27-.56,.28-.52,.03-1.04,.05-1.56,.05Zm-26.07-37.6c-2.93,8.24-1.61,17.04,3.67,24.25,5.51,7.54,14.27,11.99,23.02,11.77-1.69-11.42-7.42-30.3-26.69-36.02Z"/>
      </g>
      <g>
        <path class="cls-1" d="M463.39,494.73c-4.83-9.82-13.47-21.92-38.98-10.67,6.78,14.72,22.2,19.39,38.98,10.67Z"/>
        <path class="cls-4" d="M447.07,499.91c-2.92,0-5.73-.45-8.4-1.37-6.56-2.25-11.73-7.14-14.97-14.15-.09-.19-.1-.41-.02-.6,.07-.2,.22-.35,.42-.44,6.09-2.68,11.62-4.21,16.43-4.52,4.28-.28,8.14,.38,11.46,1.97,6.27,3,9.76,8.84,12.1,13.6,.19,.38,.04,.84-.34,1.04-5.73,2.98-11.38,4.49-16.68,4.49Zm-21.6-15.45c3.06,6.23,7.79,10.58,13.71,12.61,6.92,2.37,14.92,1.44,23.17-2.68-5.37-10.59-14.1-19.7-36.87-9.93Z"/>
      </g>
      <g>
        <path class="cls-1" d="M1060.86,472.19c-4.86-18.15,11.1-37.22,35.38-40.48,.93,10.83-5.86,39.1-35.38,40.48Z"/>
        <path class="cls-4" d="M1060.86,472.98c-.35,0-.66-.24-.76-.58-2.05-7.65-.54-15.82,4.24-23.01,3.13-4.7,7.6-8.85,12.93-12.02,5.63-3.34,11.98-5.51,18.87-6.43,.21-.03,.43,.03,.59,.16,.17,.13,.27,.33,.29,.54,.33,3.84-.29,8.79-1.69,13.59-1.77,6.04-4.7,11.52-8.48,15.83-6.48,7.4-15.21,11.4-25.95,11.91-.01,0-.02,0-.04,0Zm34.66-40.37c-12.63,1.91-23.75,8.47-29.87,17.64-4.41,6.61-5.88,14.09-4.19,21.12,10.01-.61,18.15-4.42,24.21-11.34,7.82-8.93,10.14-20.94,9.85-27.43Z"/>
      </g>
      <g>
        <path class="cls-1" d="M1070.58,489.66c1.34-7.71,20.49-21.54,49.73-8.08-14.49,24.63-35.82,14.27-49.73,8.08Z"/>
        <path class="cls-4" d="M1096.19,497.98c-.09,0-.18,0-.27,0-8.81-.08-17.54-3.98-24.55-7.11l-1.11-.5c-.33-.15-.51-.5-.45-.85,.62-3.56,4.42-7.65,9.68-10.41,4.91-2.58,10.83-3.95,17.13-3.97,.04,0,.08,0,.13,0,7.61,0,15.64,1.93,23.89,5.72,.2,.09,.35,.27,.42,.48,.07,.21,.04,.44-.07,.63-3.38,5.74-7.37,9.98-11.87,12.61-3.85,2.25-8.2,3.39-12.92,3.39Zm-24.7-8.77l.52,.23c6.88,3.07,15.43,6.89,23.92,6.97,9.63,.08,17.24-4.65,23.25-14.48-20.31-9.07-33.99-4.04-38.97-1.43-5.1,2.68-7.98,6.19-8.73,8.71Z"/>
      </g>
      <g>
        <path class="cls-1" d="M973.29,278.55c21.01,14.88,91.17,41.61,148.78,11.5-17.96,41.61-87.22,87.2-110.83,91.85-34.4,6.77-85.92-2.71-110.83-50.57,36.94-15.93,63.39-31.51,72.87-52.77Z"/>
        <path class="cls-4" d="M990.62,384.63c-2.58,0-5.17-.09-7.75-.26-10.74-.73-21.13-2.93-30.86-6.53-10.83-4-20.62-9.68-29.1-16.86-9.42-7.98-17.22-17.83-23.18-29.28-.1-.19-.12-.42-.04-.62,.07-.2,.23-.37,.43-.46,43.19-18.62,64.18-33.79,72.46-52.37,.1-.21,.28-.37,.51-.44,.23-.06,.47-.02,.66,.12,11.15,7.9,34.13,17.91,60.35,22.49,22.73,3.97,56.39,5.28,87.62-11.04,.29-.15,.65-.11,.89,.12,.24,.23,.32,.58,.19,.88-10.78,24.96-38.17,48.37-53.54,60.1-21.65,16.52-45.44,29.76-57.85,32.21-6.6,1.3-13.67,1.96-20.78,1.96Zm-89.11-52.92c23.56,44.39,71.93,56.83,109.59,49.42,12.21-2.4,35.73-15.53,57.21-31.92,14.83-11.32,40.94-33.58,52.14-57.46-13,6.47-27.41,10.53-42.89,12.07-13.91,1.39-28.63,.75-43.73-1.88-25.87-4.52-48.65-14.31-60.21-22.22-4.65,9.9-13.17,19.02-26.01,27.85-11.15,7.67-25.81,15.35-46.09,24.13Z"/>
      </g>
      <path class="cls-3" d="M992.36,371.47c1.06,.66,1.93,.36,3.27-.22,14.81-6.4,43.02-40.48,49.68-56.3,.48-1.15,.25-2.45-.83-3.07h0c-1.08-.62-2.63-.33-3.08,.82-6.9,17.65-34.64,47.2-49.05,55.22-1.09,.61-1.11,2.85,0,3.55Z"/>
      <path class="cls-4" d="M996.5,384.69c-.38,0-.72-.28-.77-.67-.06-.43,.24-.82,.67-.88,15.53-2.16,32.71-17.76,32.54-36.69,0-.31,.17-.58,.45-.71,.28-.13,.6-.09,.84,.11,.42,.36,.84,.71,1.25,1.05,9.76,8.2,15.65,13.16,30.65,7,.4-.16,.86,.03,1.02,.43,.16,.4-.03,.86-.43,1.02-15.87,6.51-22.39,1.04-32.24-7.25-.37,8.47-4.14,16.89-10.72,23.88-6.52,6.94-14.96,11.57-23.14,12.71-.04,0-.07,0-.11,0Z"/>
      <path class="cls-3" d="M1065.77,314.96h0c-1.21-.67-3.19,.05-3.89,1.82-1.42,3.64-5.09,10.53-7.62,13.64-1.2,1.47-.72,3.58,.49,4.26h0c1.21,.67,2.67-.37,3.89-1.82,2.54-3.04,6.3-9.89,7.62-13.64,.63-1.79,.72-3.58-.49-4.26Z"/>
      <path class="cls-3" d="M971.67,366.56c1.06,.66,1.93,.36,3.27-.22,14.81-6.4,43.02-40.48,49.68-56.3,.48-1.15,.25-2.45-.83-3.07h0c-1.08-.62-2.63-.33-3.08,.82-6.9,17.65-34.64,47.2-49.05,55.22-1.09,.61-1.11,2.85,0,3.55Z"/>
      <g>
        <path class="cls-3" d="M647.32,91.35c.23,9.13,1.75,11.42,2.77,13.32-9.53-5.58-16.65-7.87-19.7-6.85l16.93-6.47Z"/>
        <path d="M650.09,105.45c-.14,0-.27-.04-.4-.11-10.54-6.17-16.75-7.55-19.06-6.78-.41,.14-.85-.09-.99-.5-.14-.41,.09-.85,.5-.99,3.18-1.06,9.71,.99,18.11,5.65-.8-1.98-1.56-5.12-1.72-11.35-.01-.43,.33-.79,.76-.8,.44,0,.79,.33,.8,.76,.21,8.43,1.53,10.86,2.5,12.64,.06,.11,.12,.22,.18,.33,.17,.31,.1,.69-.15,.93-.15,.14-.35,.22-.54,.22Z"/>
      </g>
      <g>
        <path class="cls-1" d="M1070.8,222.6c-23.54,19.59-126.09,105.86-218.16,130.04-71.33,18.73-105.55,25.26-105.55,25.26-211.76-44.88-211-49.48-312.42-152.98,97.61,0,240.65-89.8,297.24-152.98,31.42,14.46,215.2,90.58,438.63,41.1-21.62,29.63-56.75,77.21-99.74,109.56h0Z"/>
        <path class="cls-4" d="M747.09,378.68c-.05,0-.11,0-.16-.02-205.56-43.57-211.11-49.24-303.85-144.04-2.9-2.96-5.89-6.02-8.97-9.16-.22-.22-.28-.56-.16-.85,.12-.29,.41-.48,.72-.48,43.88,0,101.99-18.72,163.62-52.7,52.95-29.2,103.93-67.52,133.03-100.02,.23-.26,.6-.33,.91-.19,14.46,6.66,67.8,29.53,147.13,44.47,46.54,8.76,92.9,13.15,138.75,13.15,51.5,0,102.38-5.52,152.25-16.57,.32-.07,.65,.06,.82,.34,.18,.27,.17,.63-.02,.89-12.32,16.88-25.7,34.94-41.89,53.81-20,23.31-38.98,41.6-58.01,55.91,0,0-.01,.01-.02,.02l-1.17,.98c-13.31,11.08-44.47,37.03-84.2,63.66-49.79,33.37-94.55,55.41-133.04,65.52-70.54,18.52-105.26,25.21-105.6,25.27-.05,0-.1,.01-.15,.01ZM436.52,225.69c2.62,2.68,5.18,5.29,7.67,7.84,92.4,94.45,97.95,100.13,302.9,143.57,2.59-.5,37.26-7.34,105.34-25.22,41.24-10.83,112.29-41.97,216.64-128.87l1.22-1.02s.06-.04,.08-.06c42.87-32.28,78.55-80.62,98.31-107.69-50.83,11.09-103.48,16.49-156.53,16.06-44.18-.36-88.95-4.76-133.08-13.07-33.43-6.3-66.08-14.73-97.04-25.07-25.81-8.62-43.18-16.19-49.93-19.27-14.12,15.69-33.58,33.05-56.32,50.23-23.59,17.83-50.12,35.01-76.74,49.69-29.16,16.08-57.58,28.81-84.47,37.84-28.98,9.73-55.23,14.79-78.06,15.05Z"/>
      </g>
      <path class="cls-4" d="M643.28,328.31c-.05,0-.11,0-.16-.02-2.54-.53-5.12-1.1-7.66-1.69-.42-.1-.68-.52-.58-.94,.1-.42,.52-.68,.94-.58,2.53,.59,5.09,1.16,7.62,1.68,.42,.09,.7,.5,.61,.93-.08,.37-.4,.62-.77,.62Zm-15.24-3.57c-.07,0-.13,0-.2-.03-2.52-.66-5.06-1.36-7.56-2.08-.42-.12-.65-.55-.54-.97,.12-.42,.55-.65,.97-.54,2.49,.72,5.02,1.41,7.53,2.07,.42,.11,.67,.54,.56,.95-.09,.35-.41,.58-.76,.58Zm-15.04-4.33c-.08,0-.16-.01-.24-.04-2.48-.78-4.99-1.61-7.45-2.45-.41-.14-.63-.59-.49-.99,.14-.41,.59-.63,.99-.49,2.45,.84,4.95,1.66,7.41,2.44,.41,.13,.64,.57,.51,.98-.11,.33-.41,.55-.75,.55Zm-14.8-5.07c-.09,0-.18-.02-.27-.05-2.44-.9-4.9-1.85-7.32-2.81-.4-.16-.6-.61-.44-1.02,.16-.4,.61-.6,1.02-.44,2.41,.96,4.86,1.9,7.29,2.8,.41,.15,.61,.6,.46,1.01-.12,.32-.42,.51-.73,.51Zm-14.54-5.79c-.1,0-.21-.02-.31-.06-2.39-1.02-4.81-2.08-7.18-3.16-.39-.18-.57-.64-.39-1.04,.18-.39,.64-.57,1.04-.39,2.36,1.07,4.77,2.13,7.15,3.14,.4,.17,.58,.63,.41,1.03-.13,.3-.42,.48-.72,.48Zm-14.25-6.47c-.11,0-.23-.03-.34-.08-2.34-1.13-4.7-2.3-7.03-3.49-.38-.2-.54-.67-.34-1.05,.2-.38,.67-.54,1.05-.34,2.31,1.18,4.66,2.35,6.99,3.47,.39,.19,.55,.66,.36,1.04-.13,.28-.41,.44-.71,.44Zm-13.94-7.12c-.13,0-.25-.03-.37-.09-2.28-1.23-4.59-2.51-6.86-3.81-.38-.21-.51-.69-.29-1.07,.21-.38,.69-.51,1.07-.29,2.26,1.29,4.55,2.56,6.83,3.79,.38,.21,.52,.68,.32,1.06-.14,.26-.41,.41-.69,.41Zm-13.6-7.75c-.14,0-.28-.04-.4-.11-2.23-1.34-4.48-2.72-6.68-4.11-.37-.23-.48-.71-.25-1.08,.23-.37,.71-.48,1.08-.25,2.2,1.38,4.44,2.76,6.65,4.09,.37,.22,.49,.7,.27,1.07-.15,.24-.41,.38-.67,.38Zm-13.25-8.34c-.15,0-.3-.04-.43-.13-2.17-1.43-4.36-2.91-6.5-4.4-.36-.25-.44-.73-.2-1.09,.25-.36,.73-.44,1.09-.2,2.13,1.48,4.31,2.95,6.47,4.38,.36,.24,.46,.72,.22,1.08-.15,.23-.4,.35-.65,.35Zm-12.87-8.91c-.16,0-.32-.05-.46-.15-2.11-1.53-4.23-3.1-6.3-4.67-.34-.26-.41-.75-.15-1.1,.26-.34,.75-.41,1.1-.15,2.07,1.57,4.18,3.13,6.28,4.65,.35,.25,.43,.74,.17,1.09-.15,.21-.39,.32-.63,.32Zm-12.48-9.46c-.17,0-.34-.06-.49-.17-2.04-1.62-4.1-3.29-6.1-4.94-.33-.28-.38-.77-.1-1.1,.28-.33,.77-.38,1.1-.1,1.99,1.65,4.03,3.31,6.07,4.92,.34,.27,.4,.76,.13,1.1-.15,.19-.38,.3-.61,.3Zm-12.06-10c-.18,0-.36-.06-.51-.19-1.98-1.72-3.95-3.47-5.87-5.21-.32-.29-.34-.79-.05-1.11,.29-.32,.79-.34,1.11-.05,1.91,1.73,3.87,3.48,5.84,5.19,.33,.28,.36,.78,.08,1.1-.15,.18-.37,.27-.59,.27Zm-11.59-10.54c-.19,0-.39-.07-.54-.22-1.92-1.83-3.81-3.68-5.62-5.5-.3-.31-.3-.8,0-1.11,.31-.3,.8-.3,1.11,0,1.8,1.81,3.67,3.64,5.59,5.47,.31,.3,.32,.79,.03,1.11-.15,.16-.36,.24-.57,.24Zm-11.04-11.12c-.21,0-.42-.08-.57-.25-3.44-3.68-5.26-5.87-5.27-5.9-.28-.33-.23-.83,.11-1.1,.33-.28,.83-.23,1.1,.11,.02,.02,1.8,2.18,5.21,5.82,.3,.32,.28,.81-.04,1.11-.15,.14-.34,.21-.53,.21Z"/>
      <path d="M733.49,244.21c3.15,3.93,1.9,18.85-10.38,24.33-12.27,5.48-5.79-4.92-5.79-4.92l16.17-19.41Z"/>
      <g>
        <path class="cls-1" d="M725.03,254.36c5.42,8.63-14.23,35.86-20.17,41.78s-14.23,5.07-23.05,1.35c-8.81-3.72-11.71,2.74-20.67,10.83l-17.96-23.17,8.3-9.47s15.59-26.89,15.93-27.4,40.84-9.47,40.84-9.47l16.78,15.56Z"/>
        <path class="cls-4" d="M661.15,309.1s-.05,0-.07,0c-.22-.02-.42-.13-.55-.3l-17.96-23.17c-.23-.3-.22-.71,.03-1l8.25-9.41c1.77-3.05,15.58-26.87,15.92-27.38,.23-.34,.29-.43,6.99-2.02,3.4-.81,8.12-1.9,14.03-3.23,10.05-2.28,20.2-4.52,20.3-4.55,.25-.06,.51,.02,.7,.19l16.78,15.56c.05,.05,.09,.1,.13,.16,3.14,5-1.42,15.11-5.81,22.71-5.2,9.01-11.7,17.28-14.47,20.04-5.5,5.49-13.32,5.99-23.9,1.52-6.4-2.7-9.34,.27-14.68,5.68-1.49,1.51-3.19,3.23-5.16,5.01-.14,.13-.33,.2-.52,.2Zm-16.95-23.93l17.05,21.99c1.68-1.55,3.16-3.04,4.48-4.38,5.44-5.5,9.03-9.14,16.4-6.02,9.93,4.19,17.19,3.81,22.19-1.19,2.7-2.7,9.09-10.83,14.22-19.71,5.85-10.13,7.94-17.59,5.89-21.01l-16.4-15.21c-15.18,3.36-37.65,8.43-40.07,9.24-1.18,1.98-10.69,18.38-15.79,27.18-.03,.04-.06,.09-.09,.12l-7.88,8.99Zm23.6-36.23s0,0,0,0h0Z"/>
      </g>
      <g>
        <path class="cls-5" d="M658.86,37.18c-12.07,15.22-36.22,45.29-44.36,47.32,6.1,4.69,10.42,13.07,9.4,16.36,5.34-10.28,30.38-51.63,34.95-63.68Z"/>
        <path class="cls-4" d="M623.91,101.65c-.1,0-.2-.02-.3-.06-.37-.15-.57-.57-.45-.95,.84-2.71-2.92-10.74-9.13-15.51-.24-.18-.35-.49-.29-.78,.06-.29,.29-.53,.58-.6,8.25-2.06,35.11-35.92,43.93-47.05,.24-.3,.66-.38,1-.19,.34,.19,.48,.6,.34,.96-3.08,8.1-15.03,28.82-24.63,45.47-4.61,8-8.59,14.9-10.36,18.3-.14,.27-.41,.42-.69,.42Zm-7.86-16.89c4.2,3.65,7.67,9.12,8.57,13.14,2.09-3.78,5.34-9.43,8.99-15.76,7.41-12.84,17.05-29.56,21.99-39.61-6.01,7.51-13.07,16.17-19.8,23.77-9.31,10.51-15.79,16.58-19.74,18.45Z"/>
      </g>
      <g>
        <path class="cls-1" d="M631.54,100.1c1.27-1.65,2.63-3.71,2.63-3.71l24.7-59.22-34.95,63.68c8.26-.51,7.63-.76,7.63-.76h0Z"/>
        <path class="cls-4" d="M623.91,101.65c-.27,0-.52-.14-.66-.36-.15-.24-.16-.55-.03-.8l34.95-63.68c.2-.36,.65-.51,1.03-.33,.37,.18,.54,.62,.38,1.01l-24.7,59.22s-.04,.09-.07,.13c-.05,.08-1.31,1.98-2.55,3.61-.2,.5-.82,.58-1.79,.69-1.29,.16-3.48,.33-6.52,.52-.02,0-.03,0-.05,0Zm7.34-.82h0Zm0,0s0,0,0,0c0,0,0,0,0,0Zm21.26-50.44l-27.22,49.6c4.02-.27,5.34-.45,5.76-.53,1.08-1.42,2.21-3.1,2.43-3.44l19.03-45.64Z"/>
      </g>
      <g>
        <path class="cls-4" d="M619.45,110.15c-.17,0-.34-.06-.49-.17-.34-.27-.4-.76-.13-1.1,.9-1.13,1.66-2.17,2.27-3.1,.24-.36,.72-.46,1.08-.22,.36,.24,.46,.72,.22,1.08-.63,.97-1.43,2.05-2.35,3.21-.15,.19-.38,.3-.61,.3Z"/>
        <path class="cls-4" d="M517.2,176.9c-.35,0-.67-.24-.76-.59-.1-.42,.15-.84,.57-.95,2.41-.6,4.9-1.31,7.39-2.1,.41-.13,.85,.1,.98,.51,.13,.41-.1,.85-.51,.98-2.52,.8-5.04,1.52-7.48,2.13-.06,.02-.13,.02-.19,.02Zm14.73-4.67c-.32,0-.61-.19-.73-.5-.15-.4,.05-.86,.45-1.01,2.34-.89,4.73-1.87,7.12-2.91,.4-.17,.86,0,1.03,.4,.17,.4,0,.86-.4,1.03-2.41,1.05-4.83,2.04-7.19,2.94-.09,.03-.19,.05-.28,.05Zm14.18-6.17c-.29,0-.57-.16-.7-.44-.19-.39-.03-.86,.36-1.05,2.26-1.1,4.56-2.28,6.85-3.51,.38-.2,.86-.06,1.06,.32,.2,.38,.06,.86-.32,1.06-2.31,1.24-4.63,2.43-6.91,3.54-.11,.05-.23,.08-.34,.08Zm13.63-7.31c-.27,0-.53-.14-.68-.39-.22-.37-.09-.85,.28-1.07,2.18-1.27,4.4-2.61,6.59-3.99,.37-.23,.85-.12,1.08,.25,.23,.37,.12,.85-.25,1.08-2.21,1.38-4.44,2.73-6.64,4.02-.12,.07-.26,.11-.39,.11Zm13.1-8.21c-.25,0-.5-.12-.65-.35-.24-.36-.14-.85,.21-1.09,2.11-1.42,4.24-2.89,6.34-4.39,.35-.25,.84-.17,1.09,.18,.25,.35,.17,.84-.18,1.09-2.11,1.5-4.25,2.99-6.38,4.41-.13,.09-.29,.13-.44,.13Zm12.59-8.98c-.24,0-.47-.11-.62-.31-.26-.34-.19-.84,.15-1.1,2.04-1.55,4.09-3.14,6.08-4.74,.34-.27,.83-.22,1.1,.12,.27,.34,.22,.83-.12,1.1-2,1.61-4.06,3.21-6.12,4.77-.14,.11-.31,.16-.47,.16Zm12.07-9.67c-.22,0-.44-.09-.6-.28-.28-.33-.24-.82,.09-1.1,1.98-1.69,3.93-3.4,5.8-5.08,.32-.29,.82-.27,1.11,.05,.29,.32,.27,.82-.05,1.11-1.88,1.7-3.84,3.42-5.83,5.12-.15,.13-.33,.19-.51,.19Zm11.46-10.39c-.2,0-.41-.08-.56-.24-.3-.31-.29-.8,.01-1.11,1.94-1.89,3.76-3.74,5.39-5.49,.3-.32,.79-.33,1.11-.04,.32,.3,.33,.79,.04,1.11-1.66,1.77-3.49,3.64-5.45,5.54-.15,.15-.35,.22-.55,.22Z"/>
        <path class="cls-4" d="M505.84,179.09c-.39,0-.72-.29-.77-.68-.06-.43,.24-.82,.67-.88,1.26-.17,2.55-.37,3.84-.59,.43-.07,.83,.21,.91,.64,.07,.43-.21,.83-.64,.91-1.31,.23-2.62,.43-3.9,.6-.03,0-.07,0-.1,0Z"/>
      </g>
      <g>
        <path class="cls-1" d="M417.73,324.61c9.15,14.38,18.3,29.55,24.74,33.38-13.39,4-26.27,17.87-26.6,27.34-6.95,1.69-37.62-7.44-56.43-39.75,23.05,.34,52.02-15.22,58.29-20.97Z"/>
        <path class="cls-4" d="M413.95,386.31c-4.72,0-13.2-2.35-22.23-7.41-9.35-5.25-22.65-15.21-32.96-32.91-.14-.24-.14-.55,0-.79,.14-.24,.4-.39,.69-.39,12.51,.18,26.01-4.33,35.12-8.14,10.71-4.48,19.49-9.74,22.63-12.63,.17-.16,.4-.23,.63-.2,.23,.03,.43,.16,.56,.36,.92,1.45,1.85,2.91,2.77,4.36,7.91,12.49,16.09,25.41,21.71,28.76,.27,.16,.41,.46,.38,.77-.04,.31-.25,.56-.55,.65-12.56,3.76-25.71,17.19-26.05,26.62-.01,.35-.26,.65-.6,.73-.58,.14-1.28,.21-2.1,.21Zm-53.14-39.94c18.14,30.14,46.76,39.33,54.31,38.31,.41-4.66,3.51-10.3,8.59-15.61,4.94-5.16,11.07-9.22,17.01-11.33-5.77-4.46-13.13-16.09-20.89-28.35-.76-1.2-1.52-2.4-2.28-3.59-3.71,3.06-12.21,8.05-22.38,12.31-8.92,3.73-21.98,8.12-34.37,8.27Z"/>
      </g>
      <g>
        <path class="cls-1" d="M1147.32,343c8.3,8.29,32.03,9.98,42.7,6.43-12.88,17.59-28.47,29.6-32.2,31.63-14.4,1.18-34.91-2.54-44.57-11.5,7.12-4.23,25.93-17.59,34.06-26.56Z"/>
        <path class="cls-4" d="M1152.39,382.05c-13.85,0-30.95-3.84-39.66-11.92-.18-.17-.27-.41-.25-.66s.17-.46,.38-.59c7.3-4.34,25.88-17.59,33.88-26.41,.14-.16,.35-.25,.56-.26,.22,0,.42,.08,.57,.23,3.62,3.61,10.91,6.32,20,7.43,8.26,1.01,16.65,.55,21.9-1.19,.32-.11,.68,0,.88,.28,.2,.28,.2,.65,0,.92-13.02,17.78-28.56,29.74-32.45,31.86-.1,.05-.2,.08-.31,.09-1.75,.14-3.6,.22-5.5,.22Zm-37.82-12.38c5.53,4.7,13.52,7.31,19.37,8.68,7.75,1.81,16.36,2.52,23.65,1.94,3.44-1.96,17.92-13.02,30.43-29.49-5.42,1.28-12.94,1.53-20.34,.63-5.34-.65-14.91-2.47-20.33-7.32-8.03,8.56-25.06,20.81-32.79,25.56Z"/>
      </g>
      <path class="cls-4" d="M1172.67,356.54c-.05,0-.11,0-.17-.02-.42-.09-.69-.51-.6-.93l2.96-13.74c.09-.42,.51-.69,.93-.6s.69,.51,.6,.93l-2.96,13.74c-.08,.37-.4,.62-.76,.62Z"/>
      <path d="M1168.94,342.79l12.55,2.69c.72,.15,1.37-.46,1.26-1.19l-.33-2.11s-.85-3.26-.84-4.37c.03-2.31,1.95-9.05,1.95-9.05,.12-.57,.68-.93,1.25-.81h0c.57,.12,1.13-.24,1.25-.81l.26-1.22c.12-.57-.24-1.13-.81-1.25l-11.67-2.51c-.57-.12-1.13,.24-1.25,.81l-.26,1.22c-.12,.57,.24,1.13,.81,1.25h0c.57,.12,.93,.68,.81,1.25,0,0-1.04,6.92-1.95,9.05-.64,1.5-3.68,5.42-3.68,5.42-.42,.62-.08,1.46,.65,1.62Z"/>
      <g>
        <path class="cls-1" d="M915.98,523.18s0,0,0,0c-6.74-1.01-16.59-10.35-16.59-10.35l-27.25,15.68,3.69,6.23s5.21,2.4,9.27,4.17c0,0,0,0,0,0,10.27-1.38,26.5-9.96,30.89-15.74Z"/>
        <path class="cls-4" d="M885.09,539.7c-.14,0-.28-.04-.41-.11-4.01-1.75-9.14-4.12-9.19-4.14-.14-.07-.26-.18-.35-.31l-3.69-6.23c-.11-.18-.14-.4-.08-.6s.19-.38,.37-.48l27.25-15.68c.3-.17,.68-.13,.93,.11,.1,.09,9.76,9.18,16.17,10.14,0,0,.01,0,.02,0,.27,.04,.5,.22,.6,.48,.11,.26,.07,.55-.1,.77-2.17,2.85-7.22,6.49-13.51,9.74-6.48,3.34-13.01,5.64-17.9,6.3-.03,0-.07,0-.1,0Zm-8.72-5.57c1.02,.47,5.34,2.45,8.85,3.98,9.89-1.42,24.28-9.08,29.32-14.44-5.99-1.65-13.4-8.17-15.27-9.87l-26.07,15,3.16,5.34Z"/>
      </g>
      <g>
        <path class="cls-3" d="M967.32,538.66c-8.51-4.66-44.58-14.58-51.34-15.48-4.39,5.78-20.62,14.35-30.89,15.74,0,2.56,.68,19.64,11.06,19.66,18.05,.04,55.43,.23,73.9,0,11.31-.14,5.85-15.23-2.73-19.92Z"/>
        <path d="M944.3,559.47c-11.94,0-24.87-.04-35.63-.08-4.73-.02-9-.03-12.53-.04-11.69-.03-11.84-19.61-11.84-20.44,0-.39,.29-.72,.68-.78,10.5-1.41,26.27-10.03,30.37-15.44,.17-.22,.45-.34,.73-.3,3.42,.45,14.22,3.18,25.12,6.35,6.18,1.8,21.14,6.29,26.49,9.21,2.87,1.57,5.56,4.34,7.39,7.6,1.85,3.3,2.55,6.63,1.92,9.14-.43,1.71-1.89,4.58-6.94,4.65-6.72,.08-15.9,.11-25.76,.11Zm-58.42-19.88c.05,1.65,.3,5.84,1.59,9.87,1.76,5.52,4.68,8.33,8.67,8.33,3.53,0,7.8,.02,12.53,.04,19.63,.06,46.51,.15,61.36-.04,3.05-.04,4.88-1.2,5.45-3.46,.53-2.13-.12-5.04-1.77-8-1.69-3.01-4.16-5.56-6.77-7h0c-8.01-4.38-42.65-14.07-50.63-15.32-2.31,2.79-7.19,6.27-13.22,9.37-6.18,3.19-12.4,5.43-17.21,6.2Z"/>
      </g>
      <path class="cls-4" d="M940.37,530.11s-.03,0-.05,0c-3.45-.21-6.21-3.58-7.16-6.79-.7-2.39-.32-4.41,1.02-5.4,1-.74,2.13-.82,3.19-.24,2.56,1.41,4.15,6.33,3.78,11.71-.03,.41-.37,.73-.78,.73Zm-4.41-11.25c-.28,0-.56,.1-.84,.32-.78,.58-.95,1.99-.45,3.7,.7,2.36,2.62,4.94,4.97,5.54,.14-4.78-1.37-8.47-3.01-9.38-.23-.12-.44-.19-.66-.19Z"/>
      <path class="cls-4" d="M944.81,530.91c-1.47,0-3.05-.26-4.7-.84-.2-.07-.36-.22-.45-.41-.09-.19-.1-.41-.02-.6,1.35-3.63,7.05-8.03,10.89-8.42,1.93-.19,2.89,.65,3.35,1.38,.94,1.51,.65,3.47-.78,5.25-1.65,2.04-4.62,3.64-8.28,3.64Zm-3.36-2.06c4.66,1.33,8.63-.33,10.42-2.56,1-1.24,1.25-2.52,.67-3.44-.12-.2-.49-.79-1.86-.65-2.99,.3-7.62,3.73-9.23,6.66Z"/>
      <path class="cls-4" d="M942.66,537.34c-.36,0-.68-.24-.76-.61,0-.03-.67-2.86-1.96-6.34-1.78,.88-6.31,3.34-8.31,6.57-.23,.37-.71,.48-1.08,.25-.37-.23-.48-.71-.25-1.08,2.77-4.47,9.48-7.41,9.76-7.54,.2-.08,.42-.09,.61,0,.2,.08,.35,.24,.43,.44,1.53,3.94,2.29,7.2,2.32,7.34,.1,.42-.16,.84-.59,.94-.06,.01-.12,.02-.18,.02Z"/>
      <ellipse class="cls-2" cx="1114.39" cy="518.42" rx="12.65" ry="12.62"/>
      <path class="cls-4" d="M474.57,485.85c-.37,0-.7-.26-.77-.64-2.35-12.48,.57-30.69,7.43-46.4,.17-.4,.63-.58,1.03-.4,.4,.17,.58,.63,.4,1.03-6.74,15.44-9.61,33.29-7.32,45.48,.08,.42-.2,.83-.62,.91-.05,0-.1,.01-.15,.01Z"/>
      <path class="cls-4" d="M470.8,480.01c-.08,0-.16-.01-.24-.04-9.36-3-18.2-7.45-25.58-12.87-8.23-6.04-14.33-12.99-18.13-20.64-.19-.39-.03-.86,.35-1.05,.39-.19,.86-.03,1.05,.35,7.03,14.16,23.03,26.39,42.79,32.72,.41,.13,.64,.57,.51,.98-.11,.33-.41,.54-.74,.54Z"/>
      <path class="cls-4" d="M468.73,495.57c-2.47,0-4.75-.18-6.48-.37-6.68-.74-13.46-2.53-17.28-4.55-.38-.2-.53-.68-.33-1.06,.2-.38,.68-.53,1.06-.33,3.66,1.93,10.22,3.65,16.72,4.37,7.71,.86,14.06,.22,17.89-1.8,.38-.2,.86-.06,1.06,.33,.2,.38,.06,.86-.33,1.06-3.47,1.83-8.15,2.34-12.31,2.34Z"/>
      <path class="cls-4" d="M1046.34,502.8c-.06,0-.11,0-.17-.02-.42-.09-.69-.51-.6-.93,1.27-5.83,6.49-16.86,13.01-27.43,8.13-13.18,17.16-24,25.44-30.46,.34-.27,.83-.21,1.1,.14,.27,.34,.21,.83-.14,1.1-8.14,6.35-17.04,17.02-25.07,30.05-6.33,10.27-11.6,21.35-12.81,26.94-.08,.37-.4,.62-.76,.62Z"/>
      <path class="cls-4" d="M1047.53,507.7c-.18,0-.36-.06-.51-.19-.33-.28-.36-.78-.08-1.1,2.73-3.15,10.06-10.01,20.2-15.73,7.98-4.5,19.95-9.46,31.69-7.5,.43,.07,.71,.47,.64,.9-.07,.43-.48,.71-.9,.64-11.29-1.88-22.91,2.94-30.67,7.32-9.95,5.61-17.12,12.32-19.79,15.39-.15,.18-.37,.27-.59,.27Z"/>
      <path class="cls-3" d="M1162.2,360.75c1.74,.06,1.52,2.53,.78,3.55s-1.72,2.4-4.11,2.12c-2.39-.27-16.86-4.78-17.97-6.95-1.11-2.18,.63-5.42,3.19-4.65s9.3,4.79,18.12,5.93Z"/>
      <path class="cls-3" d="M1134.68,365.19c2.99,1.91,15.46,5.75,17.34,5.77,3.59,.03,1.05,5.21-3.25,4.65s-15.56-3.4-17.98-6.36c-1.56-1.92,.9-5.48,3.88-4.06Z"/>
      <g>
        <path class="cls-1" d="M1007.35,172.83c-1.86,4.06-45.78,76.02-81.2,83.9l10.03,7.27c26.1-4.23,71.22-66.28,79.73-85.93,4.32-9.98-5.41-11.13-8.56-5.24Z"/>
        <path class="cls-4" d="M936.18,264.79c-.16,0-.33-.05-.46-.15l-10.03-7.27c-.25-.18-.37-.49-.31-.79s.3-.54,.6-.6c7.98-1.77,17.07-7.05,27.03-15.69,8.1-7.03,16.76-16.25,25.72-27.42,15.61-19.44,27.06-38.5,27.91-40.35,0-.01,.01-.03,.02-.04,1.94-3.62,5.97-4.73,8.52-3.49,2.21,1.07,3.75,4.1,1.44,9.42-4.04,9.33-17.11,29.65-33.39,48.94-8.59,10.19-16.77,18.54-24.29,24.83-8.81,7.37-16.43,11.61-22.65,12.62-.04,0-.08,.01-.13,.01Zm-8.21-7.7l8.4,6.09c11.08-1.99,27.28-15.06,45.67-36.86,16.18-19.18,29.15-39.33,33.15-48.55,1.58-3.65,1.32-6.41-.69-7.39-1.86-.9-4.96,.03-6.45,2.8-.98,2.09-12.2,20.84-28.1,40.66-9.02,11.24-17.74,20.53-25.91,27.62-9.48,8.22-18.24,13.47-26.06,15.62Z"/>
      </g>
      <g>
        <path class="cls-1" d="M947.36,160.36c2.14-4.58,12.58-3.17,8.9,5.2s-70.16,92.61-89.98,104.28c0,0-14.49-2.28-7.88-7.36,6.61-5.07,79.05-80.94,88.97-102.12Z"/>
        <path class="cls-4" d="M866.28,270.62s-.08,0-.12,0c-.09-.01-2.28-.36-4.6-1.1-3.37-1.06-5.19-2.33-5.59-3.88-.32-1.26,.34-2.53,1.96-3.78,3.18-2.44,22.7-22.38,43.14-44.92,14.63-16.13,40.01-44.98,45.59-56.91h0c1.36-2.9,5.42-3.68,8.15-2.45,2.35,1.07,4.15,3.8,2.17,8.29-2.01,4.57-20.26,28.45-39.05,51.09-14.17,17.07-39.67,46.74-51.25,53.55-.12,.07-.26,.11-.4,.11Zm85.76-112.05c-1.64,0-3.3,.7-3.97,2.12h0c-5.67,12.11-31.16,41.1-45.85,57.3-20.5,22.6-40.12,42.64-43.35,45.11-.74,.57-1.58,1.4-1.39,2.15,.43,1.69,5.21,3.19,8.64,3.77,8.42-5.12,26.82-24.41,50.6-53.06,20.11-24.23,37.08-46.76,38.82-50.72,1.31-2.97,.8-5.24-1.39-6.24-.63-.29-1.37-.43-2.11-.43Zm-4.68,1.78h0Z"/>
      </g>
      <g>
        <path class="cls-1" d="M880.77,144c-8.64,9.9-153.78,150.81-163.7,157.1s-4.83,14.9,4.83,8.31c9.66-6.59,155.56-141.57,167-155.27,11.44-13.7-2.53-15.97-8.13-10.15Z"/>
        <path class="cls-4" d="M715.6,312.57c-.9,0-1.72-.18-2.44-.53-1.34-.67-2.16-1.92-2.24-3.45-.14-2.73,2-5.78,5.73-8.15,4.21-2.67,34.94-31.49,82.2-77.1,39.93-38.54,77.18-75.1,81.33-79.85,0,0,.02-.02,.03-.03,3.34-3.46,9.44-4.32,12.32-1.74,1.34,1.2,3.72,4.86-3.02,12.93-6.11,7.32-49.2,47.87-84.24,80.37-37.4,34.69-77.9,71.61-82.92,75.04-2.42,1.65-4.76,2.51-6.74,2.51Zm165.74-168.04c-4.24,4.84-41.49,41.42-81.4,79.94-17.73,17.11-76.09,73.26-82.45,77.3-3.83,2.43-5.1,5.08-5.01,6.74,.05,.96,.54,1.72,1.37,2.13,1.77,.87,4.61,.18,7.6-1.87,4.96-3.39,45.38-40.24,82.74-74.89,35.01-32.47,78.04-72.97,84.1-80.23,4.13-4.94,5.28-8.87,3.17-10.76-2.22-2-7.43-1.15-10.13,1.64Z"/>
      </g>
      <g>
        <path class="cls-1" d="M711.69,219.86c26.98-16.75,93.07-72.06,98.92-77.13,5.85-5.07-.76-13.19-9.79-5.07s-87.82,69.61-98.75,76.16c-10.93,6.55,9.62,6.04,9.62,6.04Z"/>
        <path class="cls-4" d="M710.69,220.65c-1.15,0-3.12-.03-5.15-.21-4.59-.4-6.93-1.31-7.38-2.84-.52-1.79,1.75-3.4,3.51-4.45,11.08-6.64,89.51-67.87,98.63-76.07,3.4-3.06,6.98-4.28,9.82-3.33,1.77,.59,3.03,1.98,3.38,3.73,.41,2.05-.46,4.18-2.38,5.85-6.2,5.38-71.84,60.34-99.02,77.2-.12,.07-.25,.11-.39,.12-.04,0-.42,0-1.02,0Zm1-.79h0Zm96.42-84.87c-2.03,0-4.41,1.13-6.77,3.25-9.14,8.22-87.76,69.59-98.87,76.25-2.97,1.78-2.84,2.59-2.81,2.68,.04,.12,.51,1.23,6.01,1.72,2.55,.23,5.06,.21,5.79,.2,27.2-16.95,92.46-71.58,98.63-76.94,1.49-1.29,2.17-2.88,1.87-4.36-.24-1.21-1.09-2.14-2.34-2.55-.48-.16-.98-.24-1.52-.24Z"/>
      </g>
      <g>
        <path class="cls-1" d="M548.54,234.57c-4.59,1.79-2.26,12.94,9.4,9.64,3.82-1.08,23.89-13.15,49.24-29.07,3.31-2.08,3.44-6.86,.24-9.11h0c-1.77-1.25-4.11-1.33-5.97-.22-25.08,15.05-45.94,26.72-52.92,28.76Z"/>
        <path class="cls-4" d="M553.9,245.61c-4.54,0-7.11-2.53-7.99-5.16-.96-2.87,.05-5.71,2.35-6.6,.02,0,.04-.02,.06-.02,6.24-1.82,24.97-12.01,52.74-28.68,2.12-1.27,4.8-1.18,6.82,.25,1.71,1.21,2.71,3.18,2.65,5.28-.06,2.1-1.15,4.02-2.93,5.14-20.06,12.6-44.92,27.88-49.45,29.16-1.58,.45-2.99,.64-4.26,.64Zm-5.11-10.3c-1.48,.6-2.09,2.59-1.4,4.63,.91,2.71,4.16,5.26,10.34,3.51,3.39-.96,20.81-11.25,49.04-28.98,1.35-.85,2.15-2.25,2.2-3.85,.04-1.6-.68-3.04-1.99-3.96-1.52-1.07-3.52-1.14-5.12-.19-19.7,11.82-44.88,26.41-53.07,28.83Z"/>
      </g>
      <g>
        <path class="cls-1" d="M634.22,193.84l.42,.29c1.64,1.14,3.79,1.18,5.47,.1,17.99-11.55,36.32-23.49,52.03-33.9,2.98-1.97,2.93-6.36-.09-8.27h0c-1.64-1.03-3.72-1.01-5.34,.05-15.48,10.22-33.92,22.05-52.27,33.5-3,1.87-3.11,6.21-.2,8.22Z"/>
        <path class="cls-4" d="M637.44,195.8c-1.14,0-2.27-.34-3.26-1.02l-.42-.29c-1.58-1.1-2.5-2.9-2.45-4.83,.05-1.93,1.05-3.68,2.69-4.7,18.17-11.34,36.73-23.23,52.26-33.49,1.87-1.23,4.29-1.26,6.19-.06,1.65,1.04,2.64,2.82,2.66,4.76,.02,1.94-.93,3.75-2.55,4.82-15.63,10.35-34.11,22.39-52.04,33.9-.94,.61-2.01,.91-3.08,.91Zm51.96-43.71c-.8,0-1.59,.23-2.28,.68-15.54,10.26-34.11,22.17-52.29,33.51-1.19,.74-1.92,2.02-1.95,3.41-.03,1.4,.63,2.71,1.78,3.5h0l.42,.29c1.38,.96,3.19,.99,4.6,.08,17.92-11.5,36.39-23.54,52.02-33.89,1.18-.78,1.87-2.09,1.85-3.5-.02-1.41-.74-2.7-1.93-3.46-.67-.43-1.44-.64-2.21-.64Z"/>
      </g>
      <g>
        <path class="cls-1" d="M725.29,124.71c-2.47,2.6-11.28,9-23.75,17.47-2.95,2.01-2.87,6.39,.16,8.28h0c1.65,1.03,3.75,.99,5.36-.09,15.4-10.36,26.13-17.9,27.89-19.82,7.22-7.87,1.68-17.76-9.67-5.84Z"/>
        <path class="cls-4" d="M704.31,151.99c-1.05,0-2.1-.29-3.02-.86-1.65-1.03-2.66-2.8-2.69-4.74-.04-1.94,.9-3.76,2.5-4.85,13.14-8.94,21.31-14.94,23.62-17.36h0c6.17-6.48,10.65-6.65,12.78-4.65,2.29,2.14,2.17,7.04-1.97,11.56-2.14,2.33-16.42,12.13-28.03,19.94-.96,.65-2.08,.97-3.19,.97Zm30.13-32.03c-1.94,0-4.86,1.37-8.59,5.29h0c-3.01,3.16-14.64,11.3-23.87,17.58-1.17,.79-1.85,2.11-1.82,3.52,.03,1.41,.76,2.7,1.96,3.44,1.39,.86,3.16,.83,4.51-.08,22-14.8,26.83-18.7,27.75-19.7,3.33-3.63,3.75-7.77,2.05-9.36-.46-.43-1.13-.7-1.99-.7Zm-9.16,4.75h0Z"/>
      </g>
      <ellipse cx="660.33" cy="210.45" rx="13.43" ry="14.08" transform="translate(356.7 833.46) rotate(-81.69)"/>
      <g>
        <path class="cls-1" d="M631.54,100.1l-1.14-2.28,1.14,2.28Z"/>
        <path class="cls-4" d="M631.54,100.88c-.29,0-.56-.16-.7-.43l-1.14-2.28c-.19-.39-.04-.86,.35-1.05,.39-.19,.86-.04,1.05,.35l1.14,2.28c.19,.39,.04,.86-.35,1.05-.11,.06-.23,.08-.35,.08Z"/>
      </g>
      <g>
        <path class="cls-5" d="M658.86,37.18c-8.64,21.31-26.44,57.59-28.47,60.64,12.71-4.82,21.61-7.87,24.4-10.4,.51-8.37,1.78-44.91,4.07-50.24Z"/>
        <path class="cls-4" d="M630.39,98.6c-.23,0-.46-.1-.61-.3-.21-.27-.23-.64-.04-.92,1.96-2.94,19.65-38.97,28.33-60.35,.02-.06,.04-.11,.07-.17,.17-.39,.62-.58,1.02-.41,.4,.17,.58,.62,.42,1.02-.02,.06-.04,.11-.07,.17-1.77,4.62-2.94,29.21-3.57,42.49-.15,3.21-.27,5.75-.37,7.33-.01,.2-.1,.39-.26,.53-2.45,2.22-8.93,4.65-18.75,8.33-1.88,.71-3.83,1.44-5.9,2.22-.09,.03-.18,.05-.28,.05Zm26.35-54.33c-8.19,19.08-20.63,44.6-24.61,52.06,1.34-.5,2.63-.99,3.89-1.46,8.99-3.37,15.57-5.84,18.01-7.82,.09-1.58,.21-3.99,.35-6.98,.63-13.22,1.36-27.24,2.36-35.79Z"/>
      </g>
      <path d="M691.9,260.71c1.27-7.1-11.69-12.69-12.46,5.07,3.3,4.31,4.82,23.14-7.37,20.55,0,0-4.96-2.03-1.02-8.25-13.73,6.09-28.3-3.68-27.24-15.98-11.14,4.44-14.45-6.34-14.45-8.18s-1.14-10.59,7.75-12.37c8.9-1.78,7.24-5.45,6.99-8.75-.25-3.3,1.02-13.07,12.46-9.77,11.44,3.3,15.25-6.6,16.4-11.67,1.14-5.07,6.48-4.95,11.06-3.04,3.18-3.55,14.62-7.1,19.83,2.79,11.18,.13,23.13,9.9,22.75,19.28,10.55,6.47,6.28,17.14,4.63,19.43-1.42,1.96-6.66,9.12-17.72,5.44-11.06-3.68-10.93,3.93-21.61,5.45Z"/>
      <path class="cls-3" d="M379.86,350.15c7.82-1.08,28.62-11.45,31.77-13.95,2.94-2.33,4.62,2.22,2.54,3.81-2.52,1.92-27.44,13.63-30.59,14.05-3.22,1.01-6.49-2.76-3.73-3.9Z"/>
      <path class="cls-3" d="M389.85,361.4c3.56-1.61,14.42-8.18,17.2-10.06,2.91-1.97,5.33,1.66,2.54,3.73-2.7,2.01-11.25,7.88-14.91,9.46-3.73,1.61-7.29-1.95-4.83-3.13Z"/>
      <g>
        <path class="cls-3" d="M747.09,377.9c89.79-18.96,160.62-120.72,163.84-145.69,57.74,42.52,113.4,25.36,159.87-9.61,0,0-119,129.58-323.71,155.3Z"/>
        <path d="M747.08,378.68c-.38,0-.71-.27-.77-.65-.07-.41,.2-.81,.61-.9,38.1-8.04,78.58-33.03,113.98-70.36,17.1-18.03,28.49-34.07,35.03-44.35,8.21-12.91,13.4-23.95,14.22-30.31,.04-.27,.21-.51,.47-.62,.26-.11,.55-.07,.77,.09,49.02,36.1,102.49,32.87,158.93-9.6,.32-.24,.78-.2,1.05,.1,.27,.3,.27,.76,0,1.05-.07,.08-7.63,8.27-21.85,20.71-13.12,11.47-34.76,29-63.39,47.42-32.17,20.7-66.43,38.28-101.82,52.25-44.24,17.46-90.37,29.29-137.13,35.16-.03,0-.07,0-.1,0Zm164.41-145.09c-1.31,6.71-6.42,17.39-14.24,29.67-6.58,10.34-18.03,26.46-35.22,44.59-16.29,17.18-33.61,31.8-51.5,43.46-16.66,10.86-33.46,18.89-50.12,23.96,99.13-14.94,176.56-54.24,224.81-85.29,28.55-18.37,50.13-35.85,63.22-47.28,6.45-5.64,11.53-10.4,15.15-13.92-9.74,6.75-19.44,12.37-28.94,16.77-13.3,6.16-26.58,10.09-39.48,11.7-14.08,1.75-28.1,.77-41.66-2.92-14.26-3.88-28.39-10.85-42.03-20.73Z"/>
      </g>
      <g>
        <path class="cls-1" d="M873.31,244.21c16.61,15.05,86.76,70.53,168.78,62.92-52.17,32.19-125.92,85.64-136.24,95.23-18.64,3.04-128.93-.53-173.94-31.05,45.83-41.01,129.88-111.71,141.4-127.1Z"/>
        <path class="cls-4" d="M887.71,404.04c-14.94,0-36.28-1.06-59.04-3.84-30.89-3.76-72.84-11.72-97.2-28.24-.2-.14-.33-.35-.34-.6-.02-.24,.08-.47,.26-.64,14.38-12.87,32.17-28.35,51-44.74,40.53-35.28,82.44-71.75,90.3-82.25,.13-.18,.33-.29,.55-.31,.22-.02,.44,.05,.6,.2,7.54,6.84,72.44,63.44,152.71,63.44,5.1,0,10.25-.23,15.47-.71,.37-.03,.7,.19,.81,.53,.12,.34-.02,.72-.33,.91-52.66,32.49-126.11,85.84-136.12,95.14-.11,.1-.25,.17-.41,.2-3.44,.56-9.83,.9-18.26,.9Zm-154.53-32.81c24.22,15.97,65.3,23.72,95.67,27.42,35.18,4.29,66.91,4.48,76.63,2.98,10.51-9.6,81.23-60.97,133.42-93.45-18.03,1.31-36.73-.3-55.64-4.79-16.68-3.96-33.65-10.19-50.45-18.52-31.33-15.52-52.71-33.52-59.41-39.52-9.13,11.43-50.23,47.2-90,81.82-18.5,16.1-35.99,31.33-50.23,44.05Z"/>
      </g>
      <g>
        <path class="cls-1" d="M860.91,336.79s20.41,11.42,22.88,9.99,3.66-1.58,.78-4.47c-2.88-2.88-26.72-14.92-26.72-14.92l3.05,9.39Z"/>
        <path class="cls-4" d="M883.19,347.69c-.78,0-2.05-.27-4.3-1.13-2.02-.78-4.65-1.97-7.82-3.53-5.37-2.65-10.5-5.52-10.55-5.55-.17-.1-.3-.25-.36-.44l-3.05-9.39c-.1-.3,0-.63,.23-.84,.24-.21,.58-.25,.86-.1,.98,.49,23.98,12.13,26.92,15.07,1.27,1.27,2.03,2.26,1.9,3.23-.13,.96-1.02,1.45-2.14,2.07-.22,.12-.45,.25-.7,.39-.22,.13-.51,.23-.99,.23Zm-21.63-11.43c1.1,.61,5.47,3.01,10.04,5.28,9.87,4.9,11.57,4.66,11.81,4.56,.24-.14,.49-.28,.71-.4,.53-.29,1.33-.74,1.35-.92,0-.07-.02-.47-1.45-1.91-2.12-2.12-17.33-10.09-24.84-13.92l2.37,7.31Z"/>
      </g>
      <path class="cls-4" d="M790.95,350.77c-.06,0-.12,0-.18-.02l-11.48-2.7c-.24-.06-.44-.23-.54-.45-.1-.23-.08-.49,.04-.7l6.57-11.17c.11-.18,.28-.31,.49-.36,1.68-.41,2.91-.53,4.22-.66,2.07-.2,4.41-.44,9.38-1.84,9.18-2.97,21.3-5.59,23.77-4.67,.35,.13,.6,.42,.67,.79,.12,.6,.32,1.61-6.77,8.85-3.37,3.44-6.84,6.69-6.87,6.72-.08,.08-.19,.14-.3,.17l-18.77,6c-.08,.02-.16,.04-.24,.04Zm-10.27-4l10.24,2.41,18.39-5.88c.64-.6,3.54-3.35,6.44-6.29,4.73-4.81,6.08-6.71,6.46-7.43-2.71-.25-12.94,1.76-22.29,4.79,0,0-.02,0-.03,0-5.11,1.44-7.53,1.68-9.66,1.89-1.22,.12-2.28,.23-3.69,.55l-5.86,9.96Z"/>
      <g>
        <path class="cls-1" d="M963.87,313.49c-28.23-9.93-64.63-28.79-80.67-40.74-1.01-.75-1.47-2.03-.84-3.12h0c.63-1.09,2.09-1.55,3.13-.84,17.6,12.13,55.46,31.22,80.67,40.74,1.18,.45,1.47,2.03,.84,3.12h0c-.63,1.09-1.93,1.25-3.13,.84Z"/>
        <path class="cls-4" d="M965.05,314.49c-.46,0-.94-.08-1.44-.26h0c-29.51-10.37-65.64-29.5-80.88-40.85-1.42-1.05-1.85-2.76-1.05-4.14,.44-.76,1.18-1.31,2.03-1.5,.79-.18,1.57-.03,2.21,.41,17.53,12.08,55.15,31.08,80.51,40.65,.7,.26,1.23,.82,1.49,1.56,.31,.87,.22,1.87-.25,2.69-.54,.94-1.5,1.44-2.62,1.44Zm-80.69-45.25c-.1,0-.2,.01-.3,.03-.42,.1-.81,.38-1.02,.75-.45,.78,0,1.64,.63,2.1,15.15,11.28,51.09,30.3,80.47,40.63,.77,.27,1.74,.28,2.19-.49,.23-.41,.29-.95,.13-1.38-.08-.21-.24-.49-.57-.62-25.45-9.61-63.22-28.69-80.84-40.83-.2-.14-.43-.21-.68-.21Z"/>
      </g>
      <g>
        <path class="cls-1" d="M945.87,324.63c-38.31-11.62-60.49-28.09-76.36-38.87-.89-.6-1.05-1.85-.51-2.78l.03-.05c.69-1.18,2.24-1.5,3.33-.7,19.91,14.72,50.34,31.56,74.83,38.13,1.4,.38,2.04,2,1.31,3.25h0c-.53,.92-1.62,1.31-2.63,1Z"/>
        <path class="cls-4" d="M946.57,325.52c-.3,0-.61-.04-.92-.14h0c-35.4-10.74-56.96-25.53-72.7-36.32-1.33-.91-2.62-1.8-3.87-2.65-1.19-.81-1.52-2.48-.75-3.81l.03-.05c.44-.76,1.18-1.29,2.03-1.47,.85-.18,1.74,.02,2.44,.54,19.02,14.06,49.45,31.27,74.56,38.01,.89,.24,1.61,.87,1.97,1.73,.36,.88,.3,1.85-.18,2.67-.55,.95-1.55,1.5-2.62,1.5Zm-.47-1.63c.68,.21,1.39-.06,1.73-.65,.23-.4,.26-.87,.09-1.29-.17-.41-.51-.7-.93-.82-25.31-6.79-55.95-24.11-75.09-38.26-.35-.26-.77-.35-1.2-.26-.42,.09-.78,.34-.99,.72l-.03,.05c-.36,.61-.23,1.39,.27,1.74,1.25,.85,2.54,1.73,3.88,2.65,15.65,10.74,37.1,25.44,72.27,36.12h0Z"/>
      </g>
      <g>
        <path class="cls-1" d="M922.12,336.64c-31.57-7.05-54.19-20.34-71.42-31.26-1.07-.68-1.47-2.03-.84-3.12h0c.63-1.09,2.06-1.52,3.13-.84,17.65,11.32,40.74,24.49,71.42,31.26,1.23,.27,1.47,2.03,.84,3.12h0c-.63,1.09-1.89,1.11-3.13,.84Z"/>
        <path class="cls-4" d="M923.32,337.57c-.42,0-.87-.06-1.37-.17-14.26-3.19-27.76-7.84-41.25-14.24-11.84-5.61-22.02-11.8-30.41-17.13-1.44-.91-1.92-2.75-1.1-4.17,.42-.73,1.14-1.27,1.96-1.47,.79-.19,1.59-.06,2.26,.37,18.15,11.64,40.8,24.45,71.16,31.16,.69,.15,1.23,.61,1.54,1.3,.39,.9,.32,2.09-.19,2.97-.53,.91-1.4,1.37-2.6,1.37Zm-71.46-35.69c-.11,0-.23,.01-.34,.04-.41,.1-.77,.37-.98,.73-.41,.71-.16,1.6,.58,2.07,19.31,12.24,41.29,24.49,71.17,31.16,1.78,.4,2.14-.23,2.28-.46,.26-.45,.31-1.11,.11-1.56-.15-.34-.37-.39-.44-.41-30.61-6.76-53.4-19.65-71.67-31.37-.21-.14-.45-.21-.71-.21Z"/>
      </g>
      <g>
        <path class="cls-1" d="M731.15,492.61c-10.26-4.57,105.39,57.34,118.86,52.01s16.27-11.67,18.56-18.01c2.29-6.34-52.87-27.15-52.87-27.15,0,0-52.36-29.94-53.63-29.94s-30.91,23.09-30.91,23.09Z"/>
        <path class="cls-4" d="M847.85,545.72c-4.1,0-11.38-2.05-22.08-6.21-10.52-4.09-24.08-10.12-40.31-17.92-16.34-7.86-30.85-15.34-38.05-19.1-4.76-2.49-9.16-4.83-12.4-6.6-4.84-2.65-5-2.86-5.13-3.04-.22-.29-.21-.69,.02-.97,.31-.38,.69-.34,1.13-.17,1.58-1.23,8.08-6.28,14.62-11.27,15.35-11.7,15.96-11.7,16.41-11.7,.4,0,1,0,27.68,15.07,12.67,7.16,25.36,14.41,26.29,14.94,1,.38,14.35,5.45,27.28,11.19,24.53,10.89,26.78,14.77,26,16.93-2.52,6.99-5.69,13.21-19,18.48-.63,.25-1.44,.37-2.45,.37Zm-115.46-53.08c5.84,3.35,29.5,15.91,54.47,27.89,47.94,23,59.97,24.51,62.87,23.36,12.73-5.03,15.63-10.69,18.11-17.55,.06-.16,.35-1.69-6.95-5.98-4.26-2.5-10.39-5.53-18.2-8.99-13.33-5.92-27.12-11.13-27.26-11.18-.04-.01-.08-.03-.11-.05-20.01-11.44-50.19-28.53-53.23-29.79-2.26,1.16-18.55,13.62-29.7,22.29Zm29.85-22.36s0,0,0,0t0,0Z"/>
      </g>
      <g>
        <path class="cls-1" d="M703.72,336.06c3.69,2.37,11.14,5.07,13.18,5.92,5.42-.17,57.79-.34,69.14-5.92,7.96,5.75,7.46,10.49,4.91,13.87-2.54,3.38-59.65,22.67-75.24,23.34-15.59,.68-32.67-8.94-34.91-9.98s11.27-29.94,22.92-27.23Z"/>
        <path class="cls-4" d="M714.12,374.09c-5.71,0-12.16-1.25-19.22-3.73-6.2-2.18-11.26-4.75-13.42-5.85-.45-.23-.81-.41-1.01-.51-.93-.43-.93-1.79,.02-4.52,2.79-8.07,13.48-26.49,23.41-24.18,.09,.02,.17,.06,.25,.1,2.93,1.88,8.43,4.03,11.38,5.19,.63,.25,1.14,.45,1.52,.6,.64-.02,1.74-.03,3.22-.06,36.82-.59,58.83-2.53,65.43-5.78,.26-.13,.57-.1,.8,.07,4.08,2.94,6.37,5.94,6.82,8.89,.32,2.08-.27,4.13-1.74,6.08-1.8,2.4-22.45,9.53-33.11,12.96-7.44,2.4-32.51,10.25-42.72,10.69-.54,.02-1.08,.03-1.63,.03Zm-32.78-11.41c.21,.11,.5,.25,.85,.43,13,6.62,24.27,9.78,33.49,9.38,6.76-.29,22.57-4.26,42.31-10.62,8.19-2.64,16.02-5.37,22.05-7.69,9.23-3.55,10.21-4.61,10.29-4.72,1.21-1.61,1.69-3.26,1.44-4.91-.37-2.44-2.33-4.99-5.82-7.59-10.96,4.86-52.04,5.52-65.66,5.73-1.61,.03-2.77,.04-3.36,.06-.11,0-.22-.02-.32-.06-.37-.16-.93-.37-1.64-.65-2.97-1.16-8.45-3.31-11.54-5.26-3.91-.82-7.95,2.45-10.67,5.35-2.96,3.17-6.05,7.73-8.47,12.52-2.35,4.67-2.98,7.31-2.94,8.01Z"/>
      </g>
      <path d="M874.89,334.79l-3.18,4.77-63.83-42.38c-.97-.65-1.24-1.96-.59-2.93l.83-1.25c.65-.97,1.96-1.24,2.94-.59l63.83,42.38Z"/>
      <g>
        <path class="cls-5" d="M874.89,334.79c2.12,1.4,10.38,7.05,11.78,8.31-3.37-.95-5.08-2.16-7.5-1.78s-4.5-.36-7.46-1.77l3.18-4.77Z"/>
        <path class="cls-4" d="M886.68,343.88c-.07,0-.14,0-.21-.03-1.09-.31-2.02-.64-2.83-.94-1.67-.61-2.88-1.04-4.33-.82-2.56,.4-4.76-.33-7.92-1.83-.39-.19-.56-.65-.37-1.04,.19-.39,.65-.56,1.04-.37,2.94,1.4,4.84,2.04,7.01,1.7,1.17-.19,2.18-.04,3.23,.26-2.82-1.99-6.33-4.38-7.82-5.37-.36-.24-.46-.72-.22-1.08,.24-.36,.72-.46,1.08-.22,1.84,1.22,10.39,7.04,11.88,8.39,.27,.24,.33,.64,.16,.96-.14,.25-.41,.4-.68,.4Z"/>
      </g>
      <g>
        <path class="cls-1" d="M858.4,325.15c3.3-.89,3.42-5.51,1.64-7.67-1.15-1.4-3.25-4.43-6.23-6.8-2.57-2.04-5.89-1.71-9.01-.67-2.69,.9-4.92,2.04-7.76,3.43-4.58,2.24-21.73,17.42-23.26,18.94s-2.92,2.66-10.8,8.25l-2.16,19.28,4.58-3.81s.35,10.53,8.26,4.31c6.2-4.87,17.77-11.28,23.73-16.53l21.01-18.74Z"/>
        <path class="cls-4" d="M809.34,363.17c-.55,0-1.07-.11-1.55-.34-1.98-.92-2.73-3.51-3.01-5.19l-3.46,2.88c-.25,.2-.59,.24-.87,.09-.28-.15-.44-.46-.41-.78l2.16-19.28c.02-.22,.14-.42,.33-.55,7.95-5.63,9.25-6.71,10.7-8.16,1.68-1.68,18.74-16.78,23.47-19.09l.81-.4c2.45-1.2,4.56-2.24,7.04-3.07,4.14-1.38,7.33-1.12,9.74,.8,2.48,1.98,4.36,4.38,5.6,5.97,.29,.37,.54,.69,.75,.94,1.24,1.5,1.66,3.92,1.04,5.89-.5,1.56-1.59,2.64-3.08,3.04-.42,.11-.85-.14-.96-.55-.11-.42,.14-.85,.55-.96,1.23-.33,1.76-1.27,1.99-2,.47-1.46,.15-3.32-.75-4.41-.23-.27-.48-.6-.77-.98-1.2-1.53-3-3.85-5.34-5.71-1.97-1.56-4.67-1.74-8.27-.54-2.38,.79-4.35,1.76-6.85,2.99l-.81,.4c-4.36,2.14-21.48,17.23-23.05,18.8-1.5,1.5-2.82,2.6-10.62,8.13l-1.91,17,3.08-2.56c.23-.19,.55-.23,.82-.11,.27,.12,.45,.39,.46,.69,.04,1.21,.53,4.53,2.27,5.33,1.39,.65,3.34-.52,4.73-1.61,2.76-2.17,6.48-4.58,10.43-7.14,4.9-3.18,9.97-6.46,13.26-9.36,.32-.29,.82-.25,1.1,.07,.29,.32,.25,.82-.07,1.1-3.38,2.98-8.5,6.29-13.45,9.5-3.91,2.54-7.61,4.93-10.31,7.05-1.8,1.42-3.41,2.13-4.81,2.13Z"/>
      </g>
      <g>
        <path class="cls-1" d="M531.26,460.13c-6.35,13.19-12.2,52.77,15,76.37,27.2,23.6,65.24,29.69,96.68,10.66,31.43-19.03,109.98-57.34,113.79-59.88,8.64,7.1,91.51,48.46,116.67,48.46,19.83-7.87,25.67-17.91,26.69-26.46-8.9-9.31-105.74-83.91-122.26-88.73s-27.45-13.95-74.1,2.03c-46.64,15.98-53.51,16.49-53.51,16.49l-82.82,9.13-36.14,11.92Z"/>
        <path class="cls-4" d="M602.81,559.21c-3.28,0-6.59-.2-9.9-.62-8.46-1.05-16.81-3.43-24.82-7.08-8.01-3.65-15.53-8.5-22.35-14.42-15.07-13.07-19.38-30.39-20.35-42.62-1.12-14.23,1.78-27.67,5.16-34.69,.09-.19,.26-.34,.46-.4l36.14-11.92c.05-.02,.11-.03,.16-.03l82.82-9.13s.02,0,.03,0c.29-.03,7.65-.8,53.31-16.45,40.23-13.79,54.22-8.95,67.74-4.27,2.2,.76,4.48,1.55,6.82,2.23,16.78,4.9,113.72,79.63,122.61,88.94,.16,.17,.24,.4,.21,.63-1.35,11.36-10.5,20.48-27.18,27.1-.09,.04-.19,.06-.29,.06-14.61,0-46.9-13.56-64.85-21.64-24.6-11.07-46.58-22.68-51.88-26.66-2.18,1.25-9.7,5.05-20.58,10.55-26.54,13.41-70.96,35.86-92.75,49.05-12.41,7.51-26.26,11.38-40.53,11.38Zm-70.99-98.44c-5.65,12.15-12.35,51.46,14.95,75.14,28.27,24.53,65.86,28.68,95.76,10.58,21.84-13.22,66.3-35.69,92.85-49.11,11.48-5.8,19.78-10,20.91-10.75,.29-.19,.66-.17,.93,.05,4.31,3.54,27.45,15.75,51.96,26.79,17.78,8,49.68,21.41,64.06,21.5,15.83-6.31,24.58-14.86,26.01-25.4-5.27-5.29-31.98-26.36-57.92-45.7-33.56-25.02-56.8-40.53-63.74-42.56-2.38-.69-4.68-1.49-6.9-2.26-13.28-4.59-27-9.34-66.73,4.28-45.53,15.6-53.2,16.49-53.69,16.53l-82.73,9.12-35.75,11.79Z"/>
      </g>
      <g>
        <path class="cls-1" d="M837.38,343.89c3.34,3.58,3,3.33,7.16,3.33s13.98-7.87,15.51-11.29c1.42-3.2-4.47-13.48-8.05-17.51-.44-.49-1.13-.67-1.76-.44-1.16,.42-2.9,1.17-4.18,1.71l-8.68,24.2Z"/>
        <path class="cls-4" d="M843.35,348.01c-3.11,0-3.4-.22-6.3-3.32l-.25-.26c-.29-.32-.28-.81,.04-1.11,.32-.29,.81-.28,1.11,.04l.25,.26c1.37,1.47,2.06,2.21,2.7,2.53,.6,.3,1.31,.3,2.88,.29,.24,0,.49,0,.76,0,1.69,0,4.86-1.61,8.28-4.2,3.16-2.4,5.84-5.12,6.51-6.62,1.16-2.61-4.16-12.45-7.92-16.67-.23-.25-.58-.34-.9-.23-1.14,.41-2.87,1.16-4.14,1.7-.4,.17-.86-.01-1.03-.41-.17-.4,.01-.86,.41-1.03,1.28-.55,3.04-1.3,4.22-1.73,.93-.34,1.95-.08,2.61,.66,3.33,3.75,9.86,14.56,8.18,18.35-1.6,3.59-11.62,11.75-16.22,11.75-.27,0-.52,0-.76,0-.15,0-.3,0-.43,0Z"/>
      </g>
      <g>
        <path class="cls-1" d="M837.38,343.89c1.05-.92,1.92-1.81,2.56-2.65,.37-.48,.64-.87,.84-1.29,.4-.86,1.21-1.45,2.16-1.54,1.58-.15,2.98-.25,3.98-.32,.46-.04,.72,.52,.39,.86-1.54,1.59-3.12,2.93-3.69,3.4-.14,.12-.33,.15-.5,.08l-2.3-.86-3.44,2.32Z"/>
        <path class="cls-4" d="M837.39,344.67c-.22,0-.43-.09-.59-.27-.29-.32-.25-.82,.07-1.1,1.05-.93,1.88-1.78,2.46-2.53,.35-.46,.59-.79,.75-1.15,.52-1.11,1.58-1.88,2.79-1.99,1.28-.12,2.43-.21,3.36-.28l.63-.05c.54-.04,1.03,.25,1.26,.73,.23,.49,.13,1.06-.24,1.45-1.56,1.6-3.14,2.95-3.75,3.46-.35,.29-.84,.38-1.27,.22l-2.3-.86c-.12-.04-.22-.11-.3-.2-.61,.73-1.38,1.51-2.36,2.37-.15,.13-.33,.2-.52,.2Zm3.79-3.81l2.07,.77c.58-.49,1.75-1.5,2.98-2.72-.9,.07-2.01,.15-3.22,.27-.65,.06-1.24,.48-1.52,1.09-.09,.2-.2,.39-.32,.59Zm5.8-2h0Z"/>
      </g>
      <g>
        <path class="cls-5" d="M531.99,432.46c-3.79,6.87-12.81,24.12-4.74,30.46,8.07,6.34,18.75,12.43,46.2,7.36,27.45-5.07,62.02-19.28,76.76-31.21-28.72,.76-112.1-11.42-112.1-11.42l-6.13,4.81Z"/>
        <path class="cls-4" d="M555.22,472.94c-14.9,0-22.47-4.7-28.45-9.4-3.74-2.94-4.53-8.28-2.34-15.87,1.68-5.83,4.73-11.69,6.88-15.59,.05-.09,.12-.17,.2-.24l6.13-4.81c.17-.13,.38-.19,.6-.16,.83,.12,83.63,12.16,111.96,11.41,.33,0,.64,.2,.75,.51,.12,.31,.02,.67-.24,.88-7.23,5.85-19.24,12.34-33.81,18.29-14.67,5.99-30.05,10.63-43.3,13.08-7.16,1.32-13.21,1.89-18.37,1.89Zm-22.62-39.96c-2.11,3.83-5.05,9.51-6.67,15.13-2,6.91-1.39,11.69,1.81,14.2,7.79,6.12,18.38,12.23,45.57,7.2,26.12-4.83,58.8-17.88,74.58-29.62-.13,0-.26,0-.38,0-29.66,0-103.55-10.6-109.16-11.41l-5.74,4.5Z"/>
      </g>
      <g>
        <path class="cls-5" d="M633.38,292.16c-17.82,6.01-95.77,71.81-105.93,128.89,0,0-2.29,9.13,8.9,13.95,11.18,4.82,60.5,36.03,113.88,4.06,0,0-8.64-37.04,.76-60.39,9.4-23.34,30.8-59.67,15.08-69.86-15.72-10.19-24.61-19.33-32.68-16.67Z"/>
        <path class="cls-4" d="M599.85,454.08c-5.31,0-10.68-.43-16.13-1.28-19.37-3.03-34.85-10.75-43.17-14.89-1.9-.95-3.41-1.7-4.53-2.18-6.06-2.61-8.28-6.49-9.08-9.29-.83-2.91-.34-5.24-.27-5.54,2.38-13.33,8.58-28.01,18.44-43.64,8.34-13.22,19.06-26.79,31.86-40.34,22.74-24.07,46.85-42.36,56.15-45.5,0,0,0,0,0,0,6.41-2.12,13.24,2.72,22.68,9.43,3.15,2.23,6.71,4.76,10.67,7.33,5.96,3.86,7.42,11.49,4.47,23.32-2.52,10.1-7.73,21.59-12.78,32.71-2.39,5.27-4.65,10.25-6.47,14.78-4.8,11.92-4.75,27.56-3.85,38.59,.97,11.98,3.11,21.23,3.13,21.32,.08,.33-.07,.67-.36,.85-15.93,9.54-32.95,14.34-50.77,14.34Zm33.78-161.18c-4.46,1.5-12.83,6.93-22.4,14.52-10.89,8.63-22.65,19.49-33.11,30.57-16.15,17.09-44.1,50.63-49.9,83.2,0,.02,0,.04-.01,.05,0,.02-.51,2.17,.27,4.84,1.05,3.56,3.8,6.32,8.18,8.21,1.16,.5,2.68,1.26,4.6,2.22,10.54,5.25,32.13,16.01,58.61,16.01,15.26,0,32.14-3.57,49.47-13.83-.48-2.19-2.2-10.58-3.04-20.99-.91-11.2-.95-27.1,3.96-39.3,1.84-4.56,4.1-9.55,6.5-14.84,5.02-11.05,10.2-22.48,12.69-32.44,2.77-11.1,1.52-18.17-3.81-21.63-3.98-2.58-7.56-5.12-10.72-7.36-9.41-6.68-15.63-11.09-21.29-9.22Zm-106.18,128.15h0Z"/>
      </g>
      <g>
        <path class="cls-5" d="M666.06,308.83c10.08,10.11,33.09,25.84,37.66,27.23-4.45,16.62-18.32,29.94-22.31,34-7.51-3.7-16.96-10.9-24.35-18.08l9-43.15Z"/>
        <path class="cls-4" d="M681.41,370.84c-.12,0-.24-.03-.35-.08-7.24-3.57-16.65-10.55-24.55-18.22-.31-.3-.32-.8-.02-1.11,.3-.31,.8-.32,1.11-.02,7.61,7.39,16.61,14.12,23.64,17.69,.09-.09,.19-.19,.29-.3,4.65-4.69,16.89-17.02,21.23-32.27-6.13-2.57-27.7-17.57-37.27-27.16-.31-.31-.3-.8,0-1.11,.31-.31,.8-.3,1.11,0,10.22,10.24,33.13,25.75,37.34,27.04,.4,.12,.64,.54,.53,.95-4.27,15.97-17.02,28.81-21.82,33.65-.25,.26-.48,.49-.69,.69-.15,.15-.35,.23-.56,.23Z"/>
      </g>
      <g>
        <path class="cls-5" d="M666.06,308.83c-10-8.29-23.22-26.73-27.62-23.85-4.41,2.88-7.63,5.41-4.24,7.95s12.2,7.61,16.61,12.35c4.41,4.74,10.85,4.57,15.25,3.55Z"/>
        <path class="cls-4" d="M661.11,310.2c-3.55,0-7.67-.94-10.87-4.39-3.07-3.3-8.47-6.87-12.41-9.47-1.66-1.1-3.09-2.04-4.09-2.79-1.18-.88-1.76-1.87-1.73-2.94,.07-2.24,2.88-4.25,6-6.29,3.2-2.09,8.59,3.39,17.11,12.52,3.87,4.14,7.87,8.43,11.44,11.39,.23,.19,.33,.49,.26,.78-.07,.29-.3,.52-.59,.58-1.37,.32-3.16,.61-5.13,.61Zm-21.59-24.74c-.28,0-.49,.07-.65,.17-1.83,1.2-5.24,3.42-5.29,5.03,0,.2-.03,.79,1.1,1.64,.96,.72,2.37,1.65,4.01,2.73,4.01,2.65,9.5,6.27,12.7,9.71,3.85,4.13,9.28,4.21,12.94,3.63-3.31-2.93-6.88-6.75-10.35-10.46-3.46-3.71-6.73-7.21-9.51-9.59-2.61-2.23-4.1-2.86-4.94-2.86Z"/>
      </g>
      <g>
        <path class="cls-1" d="M677.75,355.85c3.56,5.41,26.6,24.19,45.58,19.79,18.98-4.4,74.22-29.43,79.65-35.01,8.3,4.4,13.39,14.21,10.68,19.79-6.27,5.75-76.76,57.85-103.88,58.69s-50.87-6.26-64.66-14.38c-13.79-8.12,23.15-51.08,32.64-48.88Z"/>
        <path class="cls-4" d="M705.31,419.96c-11.23,0-22.32-1.31-33.04-3.92-10.56-2.57-20.09-6.24-27.55-10.64-2.73-1.6-5.23-5.38-1.68-14.28,2.86-7.16,9.33-16.51,16.9-24.4,2.91-3.04,12.82-12.85,17.99-11.65,.2,.05,.37,.16,.48,.33,1.65,2.5,8.11,8.47,16.74,13.32,5.86,3.29,14,6.78,22.18,6.78,1.95,0,3.9-.2,5.83-.64,10.06-2.33,29.72-10.32,44.76-17.02,17.87-7.95,32.05-15.27,34.5-17.78,.24-.25,.62-.31,.93-.15,4.06,2.15,7.63,5.71,9.79,9.77,2.19,4.11,2.63,8.14,1.22,11.05-.04,.09-.1,.17-.17,.23-3.26,2.99-22.8,17.65-44.23,31.27-19.45,12.35-45.67,27.18-60.15,27.63-1.5,.05-3,.07-4.5,.07Zm-28.35-63.42c-3.11,0-9.2,4.3-15.89,11.27-7.43,7.75-13.78,16.9-16.57,23.89-1.73,4.34-2.96,10,1.02,12.35,12.69,7.47,36.24,15.14,64.24,14.27,14.13-.44,40.08-15.14,59.36-27.39,21.12-13.42,40.36-27.82,43.9-31,1.11-2.45,.66-5.9-1.26-9.5-1.93-3.63-5.07-6.83-8.66-8.86-3.95,3.37-19.93,11.21-34.54,17.71-15.11,6.73-34.88,14.75-45.05,17.11-10.49,2.43-21.64-2.08-29.13-6.3-8.66-4.86-15.06-10.71-17.08-13.54-.11-.01-.22-.02-.34-.02Z"/>
      </g>
      <g>
        <path class="cls-5" d="M665.21,331.16c4.41,7.27,14.23,18.94,17.28,22.83-2.88,8.63-31.01,55.65-39.31,58.86-19.15-8.29-33.04-27.91-39.82-45.67l61.85-36.03Z"/>
        <path class="cls-4" d="M643.19,413.64c-.11,0-.21-.02-.31-.06-9.07-3.92-17.42-10.49-24.84-19.5-6.4-7.78-11.73-16.98-15.4-26.61-.15-.4,.05-.86,.45-1.01,.4-.15,.86,.05,1.01,.45,6.19,16.23,19.7,36.55,39.09,45.09,3.52-1.73,11.33-11.73,21.03-26.97,7.99-12.54,15.64-26.15,17.4-30.9-.61-.77-1.43-1.78-2.35-2.92-4.18-5.17-11.19-13.82-14.72-19.65-.22-.37-.11-.85,.26-1.07,.37-.22,.85-.11,1.07,.26,3.47,5.74,10.44,14.34,14.6,19.48,1.08,1.33,2,2.48,2.63,3.28,.16,.21,.21,.48,.13,.73-1.48,4.45-9.43,18.64-17.71,31.63-6.05,9.5-16.97,25.74-22.07,27.71-.09,.04-.19,.05-.28,.05Z"/>
      </g>
      <g>
        <path class="cls-1" d="M1040.1,484.85c2.5-16.43-4.11-34.36-44.01-38.76,4.41,13.36,20.24,41.16,44.01,38.76Z"/>
        <path class="cls-4" d="M1037.24,485.78c-4.69,0-9.31-1.14-13.77-3.4-4.61-2.33-9.06-5.86-13.21-10.48-7.54-8.38-12.64-18.7-14.91-25.57-.08-.25-.03-.53,.14-.74s.43-.32,.69-.29c19.49,2.15,32.85,7.76,39.7,16.68,4.71,6.13,6.39,13.86,5,22.97-.05,.35-.34,.62-.7,.66-.98,.1-1.96,.15-2.94,.15Zm2.86-.93h0Zm-42.87-37.84c2.38,6.68,7.22,16.11,14.18,23.85,5.96,6.63,15.62,14.24,28,13.27,1.16-8.41-.45-15.54-4.78-21.18-6.44-8.39-19.02-13.75-37.4-15.94Z"/>
      </g>
      <path class="cls-4" d="M1047.8,509.01c-.36,0-.69-.26-.77-.63-4.48-22.06-15.67-41.01-27.83-47.15-.39-.19-.54-.67-.35-1.05s.67-.54,1.05-.35c6.48,3.28,12.67,9.84,17.9,18.99,4.81,8.42,8.63,18.8,10.75,29.25,.09,.42-.19,.84-.61,.92-.05,.01-.11,.02-.16,.02Z"/>
      <path d="M1465.52,559.49H103.82c-.87,0-1.58-.35-1.58-.78s.71-.78,1.58-.78H1465.52c.87,0,1.58,.35,1.58,.78s-.71,.78-1.58,.78Z"/>
    </g>
    <path class="cls-4" d="M607.08,435.59c-.29,0-.56-.16-.7-.43-.19-.39-.04-.86,.35-1.05h0c.11-.05,10.84-5.56,12.97-17.29,.08-.43,.48-.71,.91-.63,.43,.08,.71,.48,.63,.91-1.19,6.55-4.88,11.2-7.76,13.95-3.12,2.98-5.93,4.4-6.05,4.46-.11,.06-.23,.08-.35,.08Z"/>
  </g>
  <path d="M192.26,197.74l-.47,.06c-.16,.02-.31,.03-.47,.03-1.55,0-2.95-.97-3.5-2.41l-8.27-21.86,7.14-2.7,54.82-43.44,9.14,11.53-48.47,38.42,2.08-.23,.22-.02q1.02-.08,23.86-8.74c7.35-2.79,17.08-6.47,29.98-11.35l5.2,13.76-2.92,1.11,13.87,36.66-68.34,25.85-13.87-36.66Zm1.69-.63l13.23,34.97,64.97-24.58-13.23-34.97-64.97,24.58Zm-12.07-22.49l7.63,20.17c.02,.05,.04,.1,.05,.15,.1,.34,.29,.98,1.23,.98,1.6,0,6.85-2,28.93-10.42l.36-.14c9.85-3.75,23-8.77,40.57-15.42l.56-.21-3.93-10.39-50,18.91c-1.32,.5-2.7,.75-4.1,.75-4.88,0-9.17-3.01-10.94-7.68l-.21-.56-10.15,3.84Zm17.12-11.19l-1.39,12.05,.32,.2c.59,.38,1.22,.69,1.87,.93l.32,.12,10.42-8.25,1.81-15.61-13.33,10.57Zm-6.02,4.77l.52,1.39c.62,1.65,.85,2.27,1.53,3.29l.91,1.35,1.07-9.22-4.03,3.19Zm21.35-16.92l-1.8,15.61,13.35-10.58,1.81-15.61-13.35,10.58Zm15.34-12.16l-1.81,15.61,13.33-10.57,1.31-11.33,1.09,.13-2.37-2.99-11.56,9.16Zm13.52,3.46l4.93-3.91-3.91-4.94-1.02,8.85Zm-11.82,66.28l7.26-2.75,2.75,7.26-7.26,2.75-2.75-7.26Zm2.32,1.05l1.47,3.89,3.89-1.47-1.47-3.89-3.89,1.47Zm-15.52-3.13l28.97-10.96,.64,1.68-28.97,10.96-.64-1.68Zm-9.11-6.43l2.62-.99,.64,1.68-2.62,.99-.64-1.68Zm7.48-2.83l2.62-.99,.64,1.68-2.62,.99-.64-1.68Zm7.48-2.83l2.62-.99,.64,1.68-2.62,.99-.64-1.68Zm7.48-2.83l2.62-.99,.64,1.68-2.62,.99-.64-1.68Zm7.48-2.83l2.62-.99,.64,1.68-2.62,.99-.64-1.68Zm-45.8-.41c-1.54,0-2.93-.96-3.47-2.4-.35-.92-.32-1.93,.09-2.84,.41-.9,1.14-1.59,2.07-1.95,.42-.16,.86-.24,1.31-.24,1.54,0,2.93,.96,3.47,2.4,.72,1.91-.24,4.06-2.16,4.78-.42,.16-.86,.24-1.31,.24Zm.05-5.62c-.66,0-1.29,.33-1.66,.85-.35,.5-.41,1.12-.18,1.73,.29,.77,.94,1.23,1.74,1.23,.66,0,1.29-.33,1.66-.85,.35-.5,.41-1.12,.18-1.73-.29-.77-.94-1.23-1.74-1.23Zm53.24,3.2l2.62-.99,.64,1.68-2.62,.99-.64-1.68Zm16.66-37.64l1.68-.64,1,2.65-1.68,.64-1-2.65Zm-6.33-2l3.01-1.14,.64,1.68-3.01,1.14-.64-1.68Zm8.54-3.23l2.79-1.05,.64,1.68-2.79,1.05-.64-1.68Zm-5.37-3.11l1.68-.64,1.08,2.86-1.68,.64-1.08-2.86Z"/>
  <path d="M1242.91,236.59c-.28,0-.56,0-.84-.01l.04-1.02c.27,0,.53,0,.8,0,.29,0,.57,0,.86-.01l.04,1.02c-.3,0-.6,.01-.9,.01Zm-4.48-.31c-.57-.08-1.14-.18-1.71-.29l.21-1c.54,.11,1.08,.2,1.63,.28l-.13,1.01Zm8.89-1.02c.55-.08,1.09-.17,1.63-.28l.21,1c-.56,.11-1.14,.21-1.71,.29l-.13-1.01Zm-14.14-.18c-.55-.18-1.1-.37-1.64-.58l.38-.95c.51,.2,1.04,.38,1.56,.55l-.3,.98Zm19.22-1c.52-.17,1.04-.35,1.56-.55l.38,.95c-.54,.21-1.09,.4-1.64,.58l-.3-.98Zm-24.19-1.08c-.51-.27-1.02-.55-1.52-.85l.53-.87c.47,.28,.96,.55,1.44,.81l-.46,.91Zm29-.94c.49-.26,.97-.53,1.44-.81l.54,.87c-.5,.3-1.01,.58-1.52,.85l-.46-.91Zm-14.3-.07c-14.98,0-27.17-12.19-27.17-27.17s12.19-27.17,27.17-27.17,27.17,12.19,27.17,27.17-12.19,27.17-27.17,27.17Zm0-53.33c-14.42,0-26.15,11.73-26.15,26.15s11.73,26.15,26.15,26.15,26.15-11.73,26.15-26.15-11.73-26.15-26.15-26.15Zm-19.25,51.45c-.46-.35-.91-.72-1.35-1.09l.67-.77c.42,.36,.85,.7,1.29,1.04l-.61,.82Zm37.94-.86c.44-.33,.86-.68,1.28-1.04l.68,.77c-.44,.38-.9,.74-1.35,1.09l-.61-.82Zm-18.69-1.33c-12.74,0-23.11-10.37-23.11-23.11s10.37-23.11,23.11-23.11,23.11,10.37,23.11,23.11-10.37,23.11-23.11,23.11Zm-7.95-2.5l.31,.12c2.45,.91,5.02,1.36,7.64,1.36,2.25,0,4.48-.34,6.62-1.02l.75-.24-15.33-15.33v15.1Zm16.36-.18l.3-.13c4.7-2.02,8.59-5.65,10.94-10.22l.36-.7h-22.64l11.04,11.04Zm-29.15-12.82l.11,.29c2.02,5.24,5.91,9.49,10.96,11.96l.69,.34v-24.35l-11.76,11.76Zm26.87,.76h14.31l.12-.3c1.75-4.45,2.01-9.24,.75-13.86l-.22-.8-14.96,14.96Zm-14.09-13.54v9.24l4.3,4.3h8.35l5.54-5.54v-5.28l-7.49-7.49v.77h-6.68l-4.01,4.01Zm-12.26-3.73c-2.03,4.59-2.43,9.79-1.12,14.65l.22,.8,15.73-15.73h-14.7l-.13,.29Zm31.47,10.7l9.46-9.46-.11-.29c-1.67-4.3-4.72-8.06-8.61-10.58l-.74-.48v20.81Zm-11.25-23.89c-2.06,0-4.11,.29-6.09,.86l-.78,.22,17.1,17.1v-15.66l-.26-.13c-3.08-1.56-6.52-2.39-9.96-2.39Zm-8.22,1.59c-4.61,1.85-8.5,5.25-10.97,9.57l-.41,.72h22.09l-10.41-10.41-.29,.12Zm-15.03,42.18c-.39-.42-.78-.86-1.15-1.3l.79-.64c.35,.42,.72,.83,1.09,1.24l-.74,.71Zm45.79-.75c.37-.4,.74-.82,1.09-1.24l.79,.64c-.37,.44-.75,.88-1.15,1.31l-.74-.71Zm-49.12-3.49c-.32-.48-.62-.98-.91-1.48l.89-.5c.28,.48,.57,.95,.87,1.4l-.84,.57Zm52.34-.62c.3-.46,.59-.93,.87-1.41l.89,.5c-.29,.5-.6,1-.91,1.48l-.85-.57Zm-54.9-4.11c-.23-.53-.45-1.07-.65-1.61l.96-.34c.19,.51,.4,1.02,.62,1.53l-.93,.42Zm57.38-.48c.22-.51,.43-1.02,.62-1.53l.96,.34c-.2,.54-.42,1.08-.65,1.62l-.93-.42Zm-59.1-4.62c-.14-.56-.26-1.13-.37-1.7l1.01-.17c.1,.54,.22,1.08,.35,1.61l-.99,.26Zm60.76-.32c.13-.53,.25-1.08,.35-1.62l1.01,.17c-.11,.57-.23,1.14-.36,1.7l-.99-.26Zm-61.6-5c-.04-.57-.07-1.16-.08-1.74h1.02c.01,.55,.03,1.1,.07,1.65l-1.02,.09Zm62.39-.15c.04-.59,.06-1.17,.07-1.78h1.02c0,.63-.03,1.24-.07,1.86l-1.02-.08Zm-62.32-5.23c.06-.58,.13-1.15,.21-1.73l1.01,.17c-.08,.54-.15,1.09-.2,1.64l-1.02-.08Zm62.23-.11c-.06-.55-.13-1.1-.21-1.64l1.01-.18c.09,.57,.17,1.15,.23,1.72l-1.02,.09Zm-61.26-5.19c.15-.56,.32-1.12,.51-1.66l.96,.34c-.17,.52-.33,1.05-.48,1.58l-.99-.25Zm60.28,.07c-.15-.53-.31-1.06-.49-1.58l.96-.34c.19,.55,.36,1.1,.52,1.66l-.99,.26Zm-58.42-5.13c.25-.52,.51-1.05,.78-1.55l.89,.5c-.26,.49-.51,.98-.74,1.48l-.93-.42Zm56.59,.25c-.24-.5-.49-.99-.75-1.47l.89-.5c.28,.51,.54,1.03,.79,1.55l-.93,.42Zm-53.9-4.92c.33-.47,.68-.94,1.03-1.4l.8,.64c-.34,.43-.67,.88-.98,1.33l-.85-.57Zm51.26,.42c-.32-.45-.65-.89-.99-1.32l.79-.64c.36,.45,.71,.92,1.04,1.39l-.84,.58Zm-47.82-4.57c.4-.41,.82-.82,1.25-1.21l.68,.76c-.4,.37-.8,.75-1.19,1.15l-.74-.7Zm44.47,.57c-.39-.39-.79-.77-1.2-1.14l.67-.77c.43,.39,.85,.79,1.26,1.2l-.73,.71Zm-40.38-4.08c.47-.34,.95-.67,1.44-.98l.54,.87c-.46,.3-.92,.61-1.37,.93l-.61-.82Zm36.4,.71c-.45-.32-.91-.63-1.37-.92l.53-.87c.49,.31,.97,.63,1.44,.97l-.6,.82Zm-31.78-3.48c.52-.25,1.05-.5,1.58-.72l.38,.95c-.51,.21-1.01,.44-1.5,.68l-.46-.91Zm27.29,.83c-.5-.24-1-.47-1.51-.68l.38-.95c.53,.22,1.06,.46,1.59,.71l-.46,.91Zm-22.27-2.78c.56-.16,1.12-.31,1.68-.44l.22,1c-.53,.12-1.07,.27-1.6,.42l-.3-.98Zm17.39,.92c-.53-.15-1.06-.29-1.6-.41l.21-1c.57,.13,1.13,.27,1.69,.43l-.3,.98Zm-12.11-1.99c.58-.07,1.16-.12,1.73-.15l.05,1.02c-.55,.03-1.1,.08-1.65,.14l-.13-1.01Zm6.99,.99c-.55-.06-1.1-.1-1.65-.13l.04-1.02c.58,.03,1.16,.08,1.73,.14l-.13,1.01Z"/>
</svg>