<?xml version="1.0" encoding="utf-8"?>
<!-- Generator: Adobe Illustrator 26.4.1, SVG Export Plug-In . SVG Version: 6.00 Build 0)  -->
<svg version="1.1" id="Layer_1" xmlns="http://www.w3.org/2000/svg" xmlns:xlink="http://www.w3.org/1999/xlink" x="0px" y="0px"
	 viewBox="0 0 1600 600" style="enable-background:new 0 0 1600 600;" xml:space="preserve">
<style type="text/css">
	.st0{fill:#FFFFFF;stroke:#1A1A1A;stroke-width:2;stroke-linecap:round;stroke-linejoin:round;stroke-miterlimit:10;}
	.st1{fill:#7579F7;stroke:#1A1A1A;stroke-width:2;stroke-miterlimit:10;}
	.st2{fill:#1C0311;stroke:#1A1A1A;stroke-linecap:round;stroke-linejoin:round;stroke-miterlimit:10;}
	.st3{fill:#1A1A1A;}
	.st4{fill:#1C0311;}
	.st5{fill:none;stroke:#1A1A1A;stroke-width:2;stroke-linecap:round;stroke-linejoin:round;stroke-miterlimit:10;}
	.st6{fill:#C2C6F9;}
	.st7{fill:none;stroke:#1A1A1A;stroke-width:2;stroke-miterlimit:10;}
</style>
<g>
	<path class="st0" d="M80.4,519.5h455h934.5c0,0,161.1,37.8-18,51.5c-179,13.7-1062.4,8.8-1291.5-2.8
		C-68.7,556.6,80.4,519.5,80.4,519.5z"/>
	<path class="st0" d="M480.6,534.9c301.5,0,603.1,0,904.6,0c-26.7-56.7-99.8-84.3-150.1-74c-41.5,8.5-59,41.1-62.2,47.3
		c1.3-31.9-28.7-58.4-64.6-63.8c-45.4-6.7-103.2,20.1-106.6,63.2c-76.6-36.6-159.1-45.3-205.3-22.1c-9.2,4.6-20.2,12.1-28.8,24.7
		c-23.8-39.2-79.6-64.9-139.2-64.8C556.6,445.6,491.6,483.3,480.6,534.9z"/>
	<g>
		<path class="st1" d="M736.7,365.5c0,0-22.3,10.6-6.9,23.8c15.4,13.2,119.6,10.7,122.4,0.6c2.7-10.1-1.7-24.1-19.9-24.5
			C814.2,365.1,736.7,365.5,736.7,365.5z"/>
		<path class="st2" d="M740.8,387.7c0,0-62.7,149.1-61.7,148.8c1-0.3,11.3,0,11.3,0l58.6-148.8H740.8z"/>
		<polygon class="st2" points="814.9,393.6 868.9,536.5 882.1,536.5 827,394.1 		"/>
		<path class="st2" d="M800.8,393.6l14.1,140.5c0,0-9.3,3.4-9.6,0c-0.3-3.4-14-140.5-14-140.5H800.8z"/>
	</g>
	<path class="st2" d="M791.3,141l-31.8,1.4c0,0-17.7-73.5,16.3-70.3c3.4-11.1,17.7-18,36.1,1.9c18.4,19.9,19.1,62.2,18.9,65.6
		C797.1,141.2,791.3,141,791.3,141z"/>
	<path class="st0" d="M811.9,104.4c0,0,4.7-4.6,7.5-1.1s2.6,15.1-7.5,13.5C809.4,109,811.9,104.4,811.9,104.4z"/>
	<path class="st3" d="M802.2,134.6c-0.1-1.4-0.2-2.8-0.2-4.2c-12.2-2.5-14.7,0-14.7,0s-0.5,3.7-1.2,8.5
		C791.7,141.4,798.1,138.9,802.2,134.6z"/>
	<path class="st0" d="M811.3,158.1c0,0-7.7-8.4-9.1-23.5c-4.1,4.3-10.5,6.8-16.2,4.3c-1.1,7-2.9,16.3-5,19.6c0,0,5.6,8.5,20,6.7
		C815.4,163.5,811.3,158.1,811.3,158.1z"/>
	<path class="st0" d="M773.2,121.3c0,0,7.4,20.1,26.7,15.3c19.4-4.8,14.9-33.8,8.9-46.3s-18.5,0.3-29-11.8
		c5.8,17.1,1.9,27.6-5.1,29.4C764.3,102.3,756.9,121.6,773.2,121.3z"/>
	<path class="st1" d="M679.5,74.1c0,0-19.6,42.3-7.7,77.1c11.9,34.7,58,74.1,57,98.8s-3.1,52.4-3.1,52.4s112.2,16,125.2,15.1
		c13-0.9,20.3-13,20.3-13v-27.2c0,0,0.5-96.7-20.6-109c-21.1-12.3-41.3-12.7-41.3-12.7s1.5,8.9-11.3,9.8c-12.8,0.9-16-8.9-16-8.9
		s-18.3,6.4-26,7s-70.3-2.9-61.2-85.2C689.3,72.9,684.6,73.6,679.5,74.1z"/>
	<path class="st1" d="M845.7,165.4c0,0,30,9.7,48.3,59.8c9.1,25.4,8,45.2,1.1,49.1s-57.8,3.2-57.8,3.2l1.1-21.7
		c0,0,14.6-8.1,31.4-3.8c-0.8-16.1-4.5-35.6-6.5-42.3"/>
	<path class="st0" d="M902.5,482.7c-1.2-2-3.7-5-6-7.5c-4,5.3-10.6,8.9-17.2,8.7c0.7,2.2,1.5,4.2,1.5,4.2s-12.5,26.8-10.9,30.3
		c1.6,3.4,15.8,3.1,20.9-2.6C896,510.1,904.9,486.8,902.5,482.7z"/>
	<path class="st3" d="M896.5,475.2c-2.4-2.6-4.4-4.6-4.4-4.6s-12.9,5.9-13.9,7c-0.6,0.6,0.3,3.7,1.2,6.4
		C885.9,484.1,892.5,480.5,896.5,475.2z"/>
	<path class="st3" d="M769,540.5c4.3,1.2,9,1.8,13.3,1.1c-0.8-3.9-1.9-9-1.9-9l-12.5,1.4c0,0-1.3,1.8-2.8,4.4
		C766.1,539.5,767.4,540.2,769,540.5z"/>
	<path class="st4" d="M779.9,545.1c0,0,10-0.2,8.1,6.9c-1.9,7.1-24.6,31.6-29.4,22.5C754,565.5,779,545.1,779.9,545.1z"/>
	<path class="st0" d="M782.3,541.5c-4.3,0.7-9,0.1-13.3-1.1c-1.6-0.3-2.9-1-3.9-2.2c-1.7,2.8-3.6,6.4-4.4,9.3
		c-1.5,5.7-13.5,23.8-2.1,26.9c11.5,3.1,16.5-11,20.7-17.8c5.1-1.9,3.9-10.6,3.1-14.6C782.4,541.9,782.4,541.7,782.3,541.5z"/>
	<path class="st0" d="M767.6,544.4c0,0-8.6,16.9-8.9,24.5"/>
	<path class="st0" d="M828.9,397.7l-2.1,1.1c0,0-0.9,1.2-2.4,3.4c-7.2,10.6-28.3,44.1-33.6,79.8c-6.4,43.2-9.2,56.2-9.2,56.2
		s-6.9,3.4-15.4-3.1c0,0-41.2-142.3-2.5-181.1c1.8-1.8,3.8-3.4,6-4.7c28.1-16.1,48,4.8,48,4.8L828.9,397.7z"/>
	<path class="st5" d="M766.3,541.9c0,0-1.1,3.1,5.1,3.1"/>
	<path class="st3" d="M748.4,306.3c18.3,1.9,35.6,1,53.9-2.4c9.2-1.7,18.2-1.6,27.1-0.5c-19.6-4.6-26.7-6.5-26.7-6.5
		s-66.5-1.7-73.3,2.7c0,0-1.5,2.8-3.2,7.5C732.5,303.9,741.3,305.6,748.4,306.3z"/>
	<path class="st0" d="M868,347.6c-1.7-17.5-13.7-38.4-35.6-43.5c-1.1-0.2-2.1-0.5-3.1-0.7c-8.9-1.1-17.8-1.2-27.1,0.5
		c-18.3,3.4-35.6,4.3-53.9,2.4c-7-0.7-15.9-2.4-22.4,0.8c-3.5,9.6-7.9,27-2.6,44.3c7.9,25.7,28.4,25,28.4,25s5.7-17.3,17.9-27.1
		c15.6-2.2,42.8,16.1,52.1,33.6c3.4,18.2,34.6,84,56.9,99.1c10.6-1,15.8-10.3,15.8-10.3S869.7,365.1,868,347.6z"/>
	<rect x="608" y="277.5" class="st0" width="427.8" height="19.1"/>
	<g>
		<g>
			<path class="st3" d="M634.9,214.7l7.5,29.1c0,0,8.6,0.8,8.9,0c0.3-0.8-4.3-30.5-4.3-30.5L634.9,214.7z"/>
			<polygon class="st3" points="655.6,225.7 654.4,241.8 656.6,241.8 658.8,223.8 			"/>
			<path class="st0" d="M668,226.2c-0.2,0.5-9.2,14.2-9.2,14.2l3.4,2.1l9.4-13.7L668,226.2z"/>
		</g>
		<path class="st0" d="M644.9,277.5c0-1.5-9.3-37.6-9.3-37.6h31.5l-7.2,37.6H644.9z"/>
	</g>
	<path class="st0" d="M613.5,78.4c0,0-46.6-10.7-40.4-30.2c3.2-10.7,16.9-8.5,16.9-8.5s6.6-20.4,22.2-8.5
		C624.9,41.2,613.5,78.4,613.5,78.4z"/>
	<path class="st6" d="M470.9,342.4c0,0-8.6-7-19.2-5.9c-9.1,1-25.4-12.1-2.1-20.9c-6.2-5.1-1.5-18.6,14.1-15.3
		c15.6,3.3,7.1,41.7,7.1,41.7"/>
	<path class="st0" d="M1038.6,206.9c0,0-29.1-23.3-10.1-35c3.5-3,10.1,3.7,10.1,3.7s10.6-20,20.8-5.1
		C1068.1,183.1,1038.6,200.9,1038.6,206.9z"/>
	<path class="st6" d="M903.8,99.1c0,0-30.8-24.3-14.4-35.5c10.3-6.7,15.6,5.5,15.6,5.5s11.5-10.5,17.8,1.9
		C929.1,83.4,903.8,99.1,903.8,99.1z"/>
	<g>
		<path class="st0" d="M962.5,243.6h39.1c0,0,6.9,30.1-19.8,30C955.2,273.4,962.5,243.6,962.5,243.6z"/>
		<path class="st0" d="M999.2,247.4h20.5c0,0,4.2,19.8-7.7,20.6c-11.9,0.8-16.7,0-16.7,0l2.6-4.7c0,0,16.3,1.8,17.4-2.9
			c1-4.7,0.7-9.1,0.7-9.1l-15.5-0.2L999.2,247.4z"/>
		<polygon class="st3" points="994.5,277.5 970.5,277.5 960.1,272.6 1006.5,272.6 		"/>
	</g>
	<g>
		<g>
			<path class="st0" d="M1340.2,410.9c0,0-52.9-42.4-23.3-57.7c29.5-15.3,30.8,57.7,30.8,57.7H1340.2z"/>
			<path class="st0" d="M1383.3,415.2c-1-1-31.3-98.8,0-105.4c31.3-6.5,10.8,105.4,10.8,105.4H1383.3z"/>
			<path class="st1" d="M1389.5,410.9c0.3-0.3,18.3-120.6,45-124.5c26.7-4-29,128.8-29,128.8L1389.5,410.9z"/>
			<path class="st7" d="M1432.6,296.6c-17.9,31.6-35.8,118.6-35.8,118.6"/>
			<path class="st0" d="M1411.7,420.1c0,0,18.9-99.8,52.8-105.4c10.1-2-48.9,103.7-48.9,103.7L1411.7,420.1z"/>
			<path class="st1" d="M1422.8,415.2c0-0.7-2.6-46.3,38.5-59c9.8-2.6-5.5,37.5-25.8,57.1C1427.7,412.9,1422.8,415.2,1422.8,415.2z"
				/>
			<line class="st7" x1="1451" y1="372.5" x2="1429" y2="412"/>
			<line class="st7" x1="1440" y1="373.3" x2="1441.8" y2="389"/>
			<path class="st7" d="M1443.5,395.7c-0.3-0.1-7,2.8-7,2.8"/>
			<path class="st0" d="M1358.2,415.2c0,0-35.6-27.7-23.8-37.5c11.7-9.8,30,34.9,30,34.9L1358.2,415.2z"/>
			<path class="st1" d="M1364.4,415.2c0,0-28.4-54.2-14-64.4c14.4-10.3,21.2,58.6,21.2,60.2S1364.4,415.2,1364.4,415.2z"/>
			<line class="st7" x1="1351.9" y1="362.4" x2="1366.7" y2="410.9"/>
			<line class="st7" x1="1358.9" y1="367.4" x2="1356.5" y2="377.5"/>
			<line class="st7" x1="1354.8" y1="387.4" x2="1361.5" y2="393.9"/>
		</g>
		<path class="st0" d="M1325.8,402.8c44.8,8.7,86.8,11.4,122,0l-29.1,99.1h-68.2L1325.8,402.8z"/>
		<path class="st0" d="M1354.6,501.9v28.8c1.6,0.5,3.3,0.9,4.9,1.3v-30.1H1354.6z"/>
		<path class="st0" d="M1359.6,501.9v30.1c2.6,0.6,5.2,1.1,7.8,1.5v-31.6H1359.6z"/>
		<path class="st0" d="M1375.8,501.9v32.6c2.3,0.2,4.6,0.3,6.9,0.3v-33H1375.8z"/>
		<path class="st0" d="M1382.6,501.9v33c4,0.1,8.1-0.1,12.1-0.5v-32.5H1382.6z"/>
		<path class="st0" d="M1394.7,501.9v32.5c1.8-0.2,3.7-0.4,5.5-0.7v-31.8H1394.7z"/>
		<path class="st0" d="M1400.2,501.9v31.8c2.1-0.3,4.3-0.7,6.4-1.1v-30.7H1400.2z"/>
		<path class="st0" d="M1414.2,501.9h-7.6v30.7c2.5-0.5,5.1-1.1,7.6-1.9V501.9z"/>
		<path class="st0" d="M1367.3,501.9v31.6c2.8,0.5,5.6,0.8,8.5,1v-32.6H1367.3z"/>
	</g>
	<path class="st0" d="M691,47.5c0,0-1.6-5.9,0-11.1c1.6-5.1,0.4-15.1,2.6-16.2c2.3-1.3,4.4,1,6.1,7.4s1.8,15.2,1.8,15.2
		S693.3,49.7,691,47.5z"/>
	<path class="st0" d="M680.2,78c-0.3-0.5,2.6-31.6,7.5-36.8c4.9-5.1,22.7-26.4,27.1-23.5S706,33.6,706,33.6s9,10.3,2.3,19.8
		c-6.7,9.5-10.4,10.3-12.6,13.8c-2.2,3.5-3.3,12.8-3.3,12.8S683.6,82.5,680.2,78z"/>
	<rect x="628.1" y="296.6" class="st0" width="15.1" height="236"/>
	<rect x="1000.3" y="296.6" class="st0" width="15.1" height="236"/>
	<path class="st4" d="M845.6,277.5h-85c-2.2,0-4-1.8-4-4v0c0-2.2,1.8-4,4-4h85c2.2,0,4,1.8,4,4v0
		C849.6,275.7,847.8,277.5,845.6,277.5z"/>
	<path class="st0" d="M824.9,269.4h-43.6c-13.6,0-24.7-11.1-24.7-24.7v-13.5c0-13.6,11.1-24.7,24.7-24.7h43.6
		c13.6,0,24.7,11.1,24.7,24.7v13.5C849.6,258.4,838.5,269.4,824.9,269.4z"/>
	<g>
		<path class="st3" d="M439.2,519.5c0,0,3.9,13.8,24.8,14.9c20.9,1,30.3-4.7,40-1.8s19.8,5.5,23.3-0.3c3.5-5.8,7.3,1.4,11.8,1.8
			s11-3.1,11.2-3.8c0.2-0.7-3.8-10.8-3.8-10.8H439.2z"/>
		<g>
			<path class="st0" d="M471.3,526c0,0-34.8-1.2-32.6-34.4s9.2-37.5,16.2-35c7.1,2.6-14.9,35.4-3.5,52.6
				c9.8,14.8,22.3,13.7,22.3,13.7S475.7,525,471.3,526z"/>
			<path class="st0" d="M519.2,492.6c0,0-14.4,24.5-24.8,29.5c-10.5,5-23.5-8.6-23.5-11.1c0-2.6,1.7-18.3,3.3-19.7
				c1.5-1.4,27.9-10.3,28.8-10.3C503.7,480.9,525.1,483.3,519.2,492.6z"/>
			<path class="st0" d="M506.4,493.4c0,9-0.9,38.1,7.2,38c8.1-0.2,3.8-6,4.1-13.2c0.3-7.2,2.6-12-0.9-27.9c3.1,17.1,16.8,43,25,41.1
				s-13.2-29-12.7-42.9c0.5-14-4.5-32.4-4.5-32.4s-9.5-9.4-15.4-8.6c0,0-33.2,23.5-42.8,43.4c-9.6,19.9-5,39.1,18.7,38.7
				c16-0.2,18.1-0.3,18.1-0.3s7.5-7,0.5-8.9c-10.7-2.9-12.6-0.2-12.6-1.8s17.3-15.1,4.5-21.6c-12.9-6.5-15.4,3.4-15.4,3.4"/>
			<path class="st0" d="M529,423c0,0,10.6-4.6,12.7-2.2c2.1,2.4-6.5,11-6.5,11L529,423z"/>
			<path class="st0" d="M509,426c0,0-1.9-13.7-1.1-14c2.7-1.3,11.6,8.2,11.6,8.2S514.6,425.8,509,426z"/>
			<ellipse class="st0" cx="520.2" cy="438.7" rx="17.2" ry="20.5"/>
			<ellipse class="st4" cx="516.4" cy="435.2" rx="2.1" ry="2"/>
			<circle class="st4" cx="527.9" cy="437.6" r="2"/>
			<circle class="st2" cx="520.8" cy="442.8" r="2"/>
			<g>
				<path class="st0" d="M499,438.2c0.5,0.2,14,6.1,14,6.1"/>
				<line class="st0" x1="495.7" y1="447.7" x2="512.4" y2="446.8"/>
				<line class="st0" x1="513.6" y1="449.3" x2="501.2" y2="456.5"/>
				<path class="st0" d="M541.4,438.2c-0.5,0.2-14,6.1-14,6.1"/>
				<line class="st0" x1="544.7" y1="447.7" x2="528" y2="446.8"/>
				<line class="st0" x1="526.8" y1="449.3" x2="539.2" y2="456.5"/>
			</g>
			<path class="st0" d="M516.7,450c0,0,3.5-2.5,3.8-5.6c0.4,3.3,1.7,5.4,2.9,6"/>
		</g>
	</g>
	<g>
		<path class="st0" d="M702.4,266.7c-0.5,0-0.9,0.1-1.4,0.1v10.7h2.7v-10.8C703.4,266.7,702.9,266.7,702.4,266.7z"/>
		<path class="st0" d="M703.8,266.7v10.8h12.7C716.5,277.5,716.8,266.6,703.8,266.7z"/>
		<path class="st0" d="M688.4,277.5h12.7v-10.7C688.1,268.2,688.4,277.5,688.4,277.5z"/>
	</g>
	<path class="st0" d="M883.6,489.1c0,0,3,1,6.4-0.9"/>
	<path class="st0" d="M879.1,505.4c0.9-3.3,2-10.3,6.6-16"/>
	<path class="st7" d="M1430.5,320c-0.3,0.1-10.8,7.9-10.8,7.9"/>
	<line class="st7" x1="1407" y1="346" x2="1410.6" y2="357.9"/>
	<path class="st7" d="M1414.7,378.8c-0.4,0.1-11.4,7.7-11.4,7.7"/>
	<path class="st0" d="M803.1,229.9l-4.5,11.9h13.3C811.9,241.8,815.8,229.2,803.1,229.9z"/>
</g>
</svg>
