<?xml version="1.0" encoding="utf-8"?>
<!-- Generator: Adobe Illustrator 26.4.1, SVG Export Plug-In . SVG Version: 6.00 Build 0)  -->
<svg version="1.1" id="Layer_1" xmlns="http://www.w3.org/2000/svg" xmlns:xlink="http://www.w3.org/1999/xlink" x="0px" y="0px"
	 viewBox="0 0 1600 600" style="enable-background:new 0 0 1600 600;" xml:space="preserve">
<style type="text/css">
	
		.st0{clip-path:url(#SVGID_00000178192245896941143790000004706347838122710420_);fill:url(#SVGID_00000072971022712080186550000002013582599546210205_);}
	.st1{fill:#1A1A1A;}
	.st2{fill:#FFFFFF;}
	.st3{fill:#8EABF4;}
	.st4{fill:#4373EF;}
</style>
<g>
	<defs>
		<rect id="SVGID_1_" x="-38.5" y="7.1" width="1634.2" height="583.5"/>
	</defs>
	<clipPath id="SVGID_00000115487862854176175040000013727937198082515135_">
		<use xlink:href="#SVGID_1_"  style="overflow:visible;"/>
	</clipPath>
	
		<radialGradient id="SVGID_00000000210481619681032530000007915646525040707722_" cx="689.3976" cy="833.5604" r="795.4271" gradientTransform="matrix(1.0038 0 0 0.2295 99.7078 393.2356)" gradientUnits="userSpaceOnUse">
		<stop  offset="0.4079" style="stop-color:#EBEBF2"/>
		<stop  offset="1" style="stop-color:#EBEBF2;stop-opacity:0"/>
	</radialGradient>
	
		<ellipse style="clip-path:url(#SVGID_00000115487862854176175040000013727937198082515135_);fill:url(#SVGID_00000000210481619681032530000007915646525040707722_);" cx="791.7" cy="584.6" rx="804.1" ry="184.5"/>
</g>
<g>
	<g>
		<g>
			<path class="st1" d="M436.7,76.3C436.7,76.3,436.7,76.3,436.7,76.3c-0.9-0.1-1.7-0.2-2.5-0.4c-0.2,0-0.4-0.2-0.4-0.5
				c0-0.2,0.2-0.4,0.5-0.4c0.8,0.1,1.6,0.2,2.5,0.4c0.2,0,0.4,0.2,0.3,0.5C437.1,76.1,436.9,76.3,436.7,76.3z"/>
		</g>
		<g>
			<path class="st1" d="M390.7,401.6C390.7,401.6,390.7,401.6,390.7,401.6c-1.7-0.2-3.4-0.4-5-0.6c-0.2,0-0.4-0.2-0.4-0.5
				c0-0.2,0.2-0.4,0.5-0.4c1.6,0.2,3.3,0.4,5,0.6c0.2,0,0.4,0.2,0.4,0.5C391.1,401.5,390.9,401.6,390.7,401.6z M380.8,400.4
				C380.8,400.4,380.7,400.4,380.8,400.4c-1.7-0.2-3.4-0.5-5-0.7c-0.2,0-0.4-0.2-0.4-0.5c0-0.2,0.2-0.4,0.5-0.4
				c1.6,0.2,3.3,0.5,4.9,0.7c0.2,0,0.4,0.2,0.4,0.5C381.2,400.3,381,400.4,380.8,400.4z M370.9,399C370.9,399,370.9,399,370.9,399
				c-1.7-0.3-3.4-0.5-5-0.8c-0.2,0-0.4-0.3-0.3-0.5c0-0.2,0.3-0.4,0.5-0.3c1.6,0.3,3.3,0.5,4.9,0.8c0.2,0,0.4,0.2,0.3,0.5
				C371.3,398.9,371.1,399,370.9,399z M361.1,397.3C361,397.3,361,397.3,361.1,397.3c-1.7-0.3-3.4-0.6-5-0.9c-0.2,0-0.4-0.3-0.3-0.5
				c0-0.2,0.3-0.4,0.5-0.3c1.6,0.3,3.3,0.6,4.9,0.9c0.2,0,0.4,0.3,0.3,0.5C361.4,397.2,361.3,397.3,361.1,397.3z M351.3,395.4
				C351.2,395.4,351.2,395.4,351.3,395.4c-1.7-0.3-3.4-0.7-5-1.1c-0.2-0.1-0.4-0.3-0.3-0.5c0.1-0.2,0.3-0.4,0.5-0.3
				c1.6,0.4,3.2,0.7,4.9,1.1c0.2,0,0.4,0.3,0.3,0.5C351.6,395.3,351.5,395.4,351.3,395.4z M341.5,393.2
				C341.5,393.2,341.5,393.2,341.5,393.2c-1.7-0.4-3.4-0.8-4.9-1.2c-0.2-0.1-0.4-0.3-0.3-0.5c0.1-0.2,0.3-0.4,0.5-0.3
				c1.6,0.4,3.2,0.8,4.8,1.2c0.2,0.1,0.4,0.3,0.3,0.5C341.9,393.1,341.7,393.2,341.5,393.2z M331.9,390.8c0,0-0.1,0-0.1,0
				c-1.6-0.4-3.2-0.9-4.8-1.4c-0.2-0.1-0.3-0.3-0.3-0.5c0.1-0.2,0.3-0.3,0.5-0.3c1.6,0.5,3.2,0.9,4.8,1.4c0.2,0.1,0.4,0.3,0.3,0.5
				C332.2,390.6,332,390.8,331.9,390.8z M322.3,388c0,0-0.1,0-0.1,0c-1.6-0.5-3.2-1-4.8-1.5c-0.2-0.1-0.3-0.3-0.3-0.5
				c0.1-0.2,0.3-0.3,0.5-0.3c1.6,0.5,3.2,1,4.7,1.5c0.2,0.1,0.3,0.3,0.3,0.5C322.6,387.9,322.5,388,322.3,388z M312.8,384.8
				c0,0-0.1,0-0.1,0c-1.6-0.6-3.2-1.1-4.7-1.7c-0.2-0.1-0.3-0.3-0.2-0.5c0.1-0.2,0.3-0.3,0.5-0.2c1.5,0.6,3.1,1.1,4.7,1.7
				c0.2,0.1,0.3,0.3,0.3,0.5C313.1,384.7,313,384.8,312.8,384.8z M303.4,381.4c-0.1,0-0.1,0-0.2,0c-1.6-0.6-3.1-1.3-4.6-1.9
				c-0.2-0.1-0.3-0.3-0.2-0.5c0.1-0.2,0.3-0.3,0.5-0.2c1.5,0.6,3.1,1.3,4.6,1.9c0.2,0.1,0.3,0.3,0.2,0.5
				C303.8,381.3,303.6,381.4,303.4,381.4z M294.2,377.5c-0.1,0-0.1,0-0.2,0c-1.5-0.7-3.1-1.4-4.5-2.1c-0.2-0.1-0.3-0.3-0.2-0.6
				c0.1-0.2,0.3-0.3,0.6-0.2c1.5,0.7,3,1.4,4.5,2.1c0.2,0.1,0.3,0.3,0.2,0.5C294.6,377.4,294.4,377.5,294.2,377.5z M285.2,373.2
				c-0.1,0-0.1,0-0.2,0c-1.5-0.8-3-1.5-4.4-2.3c-0.2-0.1-0.3-0.4-0.2-0.6c0.1-0.2,0.4-0.3,0.6-0.2c1.4,0.8,2.9,1.6,4.4,2.3
				c0.2,0.1,0.3,0.4,0.2,0.6C285.5,373.1,285.4,373.2,285.2,373.2z M276.4,368.5c-0.1,0-0.1,0-0.2-0.1c-1.4-0.8-2.9-1.7-4.3-2.5
				c-0.2-0.1-0.3-0.4-0.1-0.6c0.1-0.2,0.4-0.3,0.6-0.1c1.4,0.9,2.8,1.7,4.3,2.5c0.2,0.1,0.3,0.4,0.2,0.6
				C276.7,368.4,276.6,368.5,276.4,368.5z M267.9,363.3c-0.1,0-0.2,0-0.2-0.1c-1.4-0.9-2.8-1.8-4.2-2.8c-0.2-0.1-0.2-0.4-0.1-0.6
				c0.1-0.2,0.4-0.2,0.6-0.1c1.3,0.9,2.7,1.9,4.1,2.8c0.2,0.1,0.2,0.4,0.1,0.6C268.2,363.2,268.1,363.3,267.9,363.3z M259.7,357.6
				c-0.1,0-0.2,0-0.2-0.1c-1.3-1-2.7-2-4-3c-0.2-0.1-0.2-0.4-0.1-0.6c0.1-0.2,0.4-0.2,0.6-0.1c1.3,1,2.6,2,4,3
				c0.2,0.1,0.2,0.4,0.1,0.6C260,357.6,259.8,357.6,259.7,357.6z M251.9,351.4c-0.1,0-0.2,0-0.3-0.1c-1.3-1.1-2.5-2.2-3.8-3.3
				c-0.2-0.2-0.2-0.4,0-0.6c0.2-0.2,0.4-0.2,0.6,0c1.2,1.1,2.5,2.2,3.7,3.3c0.2,0.1,0.2,0.4,0,0.6
				C252.1,351.4,252,351.4,251.9,351.4z M244.5,344.7c-0.1,0-0.2,0-0.3-0.1c-1.2-1.2-2.4-2.4-3.5-3.6c-0.2-0.2-0.2-0.4,0-0.6
				c0.2-0.2,0.4-0.2,0.6,0c1.1,1.2,2.3,2.4,3.5,3.5c0.2,0.2,0.2,0.4,0,0.6C244.7,344.7,244.6,344.7,244.5,344.7z M237.7,337.5
				c-0.1,0-0.2,0-0.3-0.1c-1.1-1.3-2.2-2.5-3.2-3.8c-0.1-0.2-0.1-0.4,0.1-0.6c0.2-0.1,0.4-0.1,0.6,0.1c1,1.3,2.1,2.6,3.2,3.8
				c0.2,0.2,0.1,0.4,0,0.6C237.8,337.4,237.8,337.5,237.7,337.5z M231.4,329.7c-0.1,0-0.3-0.1-0.3-0.2c-1-1.3-2-2.7-2.9-4.1
				c-0.1-0.2-0.1-0.4,0.1-0.6c0.2-0.1,0.4-0.1,0.6,0.1c0.9,1.4,1.9,2.7,2.9,4.1c0.1,0.2,0.1,0.4-0.1,0.6
				C231.6,329.7,231.5,329.7,231.4,329.7z M225.8,321.5c-0.1,0-0.3-0.1-0.4-0.2c-0.9-1.4-1.7-2.9-2.5-4.3c-0.1-0.2,0-0.5,0.2-0.6
				c0.2-0.1,0.5,0,0.6,0.2c0.8,1.4,1.7,2.9,2.5,4.3c0.1,0.2,0.1,0.5-0.1,0.6C225.9,321.4,225.9,321.5,225.8,321.5z M220.9,312.8
				c-0.2,0-0.3-0.1-0.4-0.2c-0.8-1.5-1.5-3-2.2-4.5c-0.1-0.2,0-0.5,0.2-0.5c0.2-0.1,0.5,0,0.5,0.2c0.7,1.5,1.4,3,2.1,4.5
				c0.1,0.2,0,0.5-0.2,0.6C221,312.8,221,312.8,220.9,312.8z M216.8,303.7c-0.2,0-0.3-0.1-0.4-0.3c-0.6-1.5-1.2-3.1-1.7-4.7
				c-0.1-0.2,0-0.5,0.3-0.5c0.2-0.1,0.5,0,0.5,0.3c0.5,1.6,1.1,3.1,1.7,4.7c0.1,0.2,0,0.5-0.2,0.5
				C216.9,303.7,216.9,303.7,216.8,303.7z M213.5,294.2c-0.2,0-0.3-0.1-0.4-0.3c-0.5-1.6-0.9-3.2-1.3-4.8c-0.1-0.2,0.1-0.4,0.3-0.5
				c0.2-0.1,0.4,0.1,0.5,0.3c0.4,1.6,0.8,3.2,1.3,4.8c0.1,0.2-0.1,0.5-0.3,0.5C213.6,294.2,213.6,294.2,213.5,294.2z M211.1,284.6
				c-0.2,0-0.4-0.1-0.4-0.3c-0.3-1.6-0.6-3.3-0.9-4.9c0-0.2,0.1-0.4,0.3-0.5c0.2,0,0.4,0.1,0.5,0.3c0.3,1.6,0.6,3.3,0.9,4.9
				C211.6,284.3,211.4,284.5,211.1,284.6C211.2,284.6,211.1,284.6,211.1,284.6z M209.5,274.8c-0.2,0-0.4-0.2-0.4-0.4
				c-0.2-1.6-0.4-3.3-0.5-5c0-0.2,0.2-0.4,0.4-0.4c0.2,0,0.4,0.2,0.4,0.4c0.1,1.7,0.3,3.3,0.5,5C210,274.5,209.8,274.7,209.5,274.8
				C209.6,274.8,209.5,274.8,209.5,274.8z M208.8,264.8c-0.2,0-0.4-0.2-0.4-0.4c-0.1-1.5-0.1-3.1-0.1-4.6l0-0.4
				c0-0.2,0.2-0.4,0.4-0.4c0,0,0,0,0,0c0.2,0,0.4,0.2,0.4,0.4l0,0.4c0,1.5,0,3.1,0.1,4.6C209.2,264.6,209,264.8,208.8,264.8
				C208.8,264.8,208.8,264.8,208.8,264.8z M208.8,254.8C208.8,254.8,208.8,254.8,208.8,254.8c-0.2,0-0.4-0.2-0.4-0.4
				c0.1-1.7,0.2-3.3,0.3-5c0-0.2,0.2-0.4,0.4-0.4c0.2,0,0.4,0.2,0.4,0.4c-0.1,1.7-0.2,3.3-0.3,5C209.2,254.6,209,254.8,208.8,254.8z
				 M209.6,244.8C209.6,244.8,209.5,244.8,209.6,244.8c-0.3,0-0.4-0.2-0.4-0.5c0.2-1.6,0.4-3.3,0.7-5c0-0.2,0.2-0.4,0.5-0.3
				c0.2,0,0.4,0.2,0.3,0.5c-0.2,1.6-0.5,3.3-0.7,4.9C210,244.7,209.8,244.8,209.6,244.8z M211.1,235C211,235,211,235,211.1,235
				c-0.3,0-0.5-0.3-0.4-0.5c0.3-1.6,0.6-3.3,1-4.9c0-0.2,0.3-0.4,0.5-0.3c0.2,0,0.4,0.3,0.3,0.5c-0.4,1.6-0.7,3.3-1,4.9
				C211.4,234.8,211.3,235,211.1,235z M213.2,225.2c0,0-0.1,0-0.1,0c-0.2-0.1-0.4-0.3-0.3-0.5c0.4-1.6,0.9-3.2,1.3-4.8
				c0.1-0.2,0.3-0.3,0.5-0.3c0.2,0.1,0.3,0.3,0.3,0.5c-0.5,1.6-0.9,3.2-1.3,4.8C213.6,225.1,213.4,225.2,213.2,225.2z M216,215.6
				c0,0-0.1,0-0.1,0c-0.2-0.1-0.3-0.3-0.3-0.5c0.5-1.6,1-3.2,1.6-4.7c0.1-0.2,0.3-0.3,0.5-0.3c0.2,0.1,0.3,0.3,0.3,0.5
				c-0.6,1.6-1.1,3.2-1.6,4.7C216.3,215.5,216.2,215.6,216,215.6z M219.3,206.2c-0.1,0-0.1,0-0.2,0c-0.2-0.1-0.3-0.3-0.2-0.5
				c0.6-1.5,1.2-3.1,1.9-4.6c0.1-0.2,0.3-0.3,0.5-0.2c0.2,0.1,0.3,0.3,0.2,0.5c-0.6,1.5-1.3,3.1-1.9,4.6
				C219.7,206.1,219.5,206.2,219.3,206.2z M223.2,197c-0.1,0-0.1,0-0.2,0c-0.2-0.1-0.3-0.3-0.2-0.6c0.7-1.5,1.4-3,2.1-4.5
				c0.1-0.2,0.3-0.3,0.6-0.2c0.2,0.1,0.3,0.3,0.2,0.6c-0.7,1.5-1.4,3-2.1,4.5C223.5,197,223.4,197,223.2,197z M227.6,188.1
				c-0.1,0-0.1,0-0.2,0c-0.2-0.1-0.3-0.4-0.2-0.6c0.8-1.5,1.6-2.9,2.4-4.4c0.1-0.2,0.4-0.3,0.6-0.2c0.2,0.1,0.3,0.4,0.2,0.6
				c-0.8,1.5-1.6,2.9-2.4,4.4C227.9,188,227.8,188.1,227.6,188.1z M232.4,179.3c-0.1,0-0.1,0-0.2-0.1c-0.2-0.1-0.3-0.4-0.1-0.6
				c0.8-1.4,1.7-2.9,2.6-4.3c0.1-0.2,0.4-0.3,0.6-0.1c0.2,0.1,0.3,0.4,0.1,0.6c-0.9,1.4-1.7,2.8-2.6,4.3
				C232.7,179.3,232.6,179.3,232.4,179.3z M237.7,170.9c-0.1,0-0.2,0-0.2-0.1c-0.2-0.1-0.2-0.4-0.1-0.6c0.9-1.4,1.8-2.8,2.8-4.1
				c0.1-0.2,0.4-0.2,0.6-0.1c0.2,0.1,0.2,0.4,0.1,0.6c-0.9,1.4-1.9,2.8-2.8,4.1C238,170.8,237.9,170.9,237.7,170.9z M243.4,162.7
				c-0.1,0-0.2,0-0.2-0.1c-0.2-0.1-0.2-0.4-0.1-0.6c1-1.3,2-2.7,3-4c0.1-0.2,0.4-0.2,0.6-0.1c0.2,0.1,0.2,0.4,0.1,0.6
				c-1,1.3-2,2.7-3,4C243.7,162.6,243.5,162.7,243.4,162.7z M249.5,154.7c-0.1,0-0.2,0-0.3-0.1c-0.2-0.1-0.2-0.4-0.1-0.6
				c1-1.3,2.1-2.6,3.2-3.9c0.1-0.2,0.4-0.2,0.6-0.1c0.2,0.1,0.2,0.4,0.1,0.6c-1.1,1.3-2.1,2.6-3.2,3.9
				C249.7,154.7,249.6,154.7,249.5,154.7z M255.9,147.1c-0.1,0-0.2,0-0.3-0.1c-0.2-0.2-0.2-0.4,0-0.6c1.1-1.2,2.2-2.5,3.3-3.7
				c0.2-0.2,0.4-0.2,0.6,0c0.2,0.2,0.2,0.4,0,0.6c-1.1,1.2-2.2,2.5-3.3,3.7C256.1,147,256,147.1,255.9,147.1z M262.6,139.7
				c-0.1,0-0.2,0-0.3-0.1c-0.2-0.2-0.2-0.4,0-0.6c1.1-1.2,2.3-2.4,3.5-3.6c0.2-0.2,0.4-0.2,0.6,0c0.2,0.2,0.2,0.4,0,0.6
				c-1.2,1.2-2.4,2.4-3.5,3.6C262.9,139.7,262.8,139.7,262.6,139.7z M269.7,132.7c-0.1,0-0.2,0-0.3-0.1c-0.2-0.2-0.2-0.4,0-0.6
				c1.2-1.1,2.4-2.3,3.7-3.4c0.2-0.2,0.4-0.1,0.6,0c0.2,0.2,0.1,0.4,0,0.6c-1.2,1.1-2.5,2.3-3.7,3.4
				C269.9,132.7,269.8,132.7,269.7,132.7z M277.1,126c-0.1,0-0.2,0-0.3-0.1c-0.2-0.2-0.1-0.4,0-0.6c1.3-1.1,2.5-2.2,3.8-3.2
				c0.2-0.1,0.4-0.1,0.6,0.1c0.1,0.2,0.1,0.4-0.1,0.6c-1.3,1.1-2.6,2.1-3.8,3.2C277.3,125.9,277.2,126,277.1,126z M284.8,119.6
				c-0.1,0-0.2-0.1-0.3-0.2c-0.1-0.2-0.1-0.4,0.1-0.6c1.3-1,2.6-2.1,4-3.1c0.2-0.1,0.4-0.1,0.6,0.1c0.1,0.2,0.1,0.4-0.1,0.6
				c-1.3,1-2.7,2-4,3.1C285,119.5,284.9,119.6,284.8,119.6z M292.8,113.5c-0.1,0-0.3-0.1-0.3-0.2c-0.1-0.2-0.1-0.4,0.1-0.6
				c1.4-1,2.7-1.9,4.1-2.9c0.2-0.1,0.4-0.1,0.6,0.1c0.1,0.2,0.1,0.4-0.1,0.6c-1.4,0.9-2.7,1.9-4.1,2.9
				C293,113.5,292.9,113.5,292.8,113.5z M301.1,107.9c-0.1,0-0.3-0.1-0.3-0.2c-0.1-0.2-0.1-0.4,0.1-0.6c1.4-0.9,2.8-1.8,4.2-2.7
				c0.2-0.1,0.5-0.1,0.6,0.1s0.1,0.5-0.1,0.6c-1.4,0.9-2.8,1.8-4.2,2.7C301.2,107.8,301.2,107.9,301.1,107.9z M309.6,102.6
				c-0.1,0-0.3-0.1-0.4-0.2c-0.1-0.2-0.1-0.5,0.1-0.6c1.4-0.9,2.9-1.7,4.3-2.5c0.2-0.1,0.5,0,0.6,0.2c0.1,0.2,0,0.5-0.2,0.6
				c-1.4,0.8-2.9,1.6-4.3,2.5C309.7,102.5,309.6,102.6,309.6,102.6z M318.3,97.7c-0.1,0-0.3-0.1-0.4-0.2c-0.1-0.2,0-0.5,0.2-0.6
				c1.5-0.8,3-1.6,4.5-2.3c0.2-0.1,0.5,0,0.6,0.2c0.1,0.2,0,0.5-0.2,0.6c-1.5,0.7-3,1.5-4.4,2.3C318.4,97.7,318.4,97.7,318.3,97.7z
				 M327.2,93.2c-0.2,0-0.3-0.1-0.4-0.2c-0.1-0.2,0-0.5,0.2-0.6c1.5-0.7,3-1.4,4.6-2.1c0.2-0.1,0.5,0,0.5,0.2c0.1,0.2,0,0.5-0.2,0.5
				c-1.5,0.7-3,1.4-4.5,2.1C327.4,93.2,327.3,93.2,327.2,93.2z M336.4,89.1c-0.2,0-0.3-0.1-0.4-0.3c-0.1-0.2,0-0.5,0.2-0.5
				c1.5-0.6,3.1-1.3,4.7-1.9c0.2-0.1,0.5,0,0.5,0.2c0.1,0.2,0,0.5-0.2,0.5c-1.5,0.6-3.1,1.2-4.6,1.9
				C336.5,89.1,336.4,89.1,336.4,89.1z M345.7,85.5c-0.2,0-0.3-0.1-0.4-0.3c-0.1-0.2,0-0.5,0.3-0.5c1.6-0.6,3.2-1.1,4.7-1.6
				c0.2-0.1,0.5,0,0.5,0.3c0.1,0.2,0,0.5-0.3,0.5c-1.6,0.5-3.2,1.1-4.7,1.6C345.8,85.5,345.8,85.5,345.7,85.5z M355.2,82.4
				c-0.2,0-0.3-0.1-0.4-0.3c-0.1-0.2,0.1-0.5,0.3-0.5c1.6-0.5,3.2-0.9,4.8-1.4c0.2-0.1,0.4,0.1,0.5,0.3c0.1,0.2-0.1,0.5-0.3,0.5
				c-1.6,0.4-3.2,0.9-4.8,1.4C355.3,82.4,355.2,82.4,355.2,82.4z M364.9,79.8c-0.2,0-0.4-0.1-0.4-0.3c-0.1-0.2,0.1-0.4,0.3-0.5
				c1.6-0.4,3.3-0.8,4.9-1.1c0.2-0.1,0.4,0.1,0.5,0.3c0,0.2-0.1,0.4-0.3,0.5c-1.6,0.4-3.2,0.7-4.9,1.1
				C364.9,79.8,364.9,79.8,364.9,79.8z M374.6,77.6c-0.2,0-0.4-0.1-0.4-0.3c0-0.2,0.1-0.4,0.3-0.5c1.6-0.3,3.3-0.6,4.9-0.9
				c0.2,0,0.4,0.1,0.5,0.3c0,0.2-0.1,0.4-0.3,0.5C378,77,376.3,77.3,374.6,77.6C374.7,77.6,374.7,77.6,374.6,77.6z M384.5,76
				c-0.2,0-0.4-0.2-0.4-0.4c0-0.2,0.1-0.4,0.4-0.5c1.6-0.2,3.3-0.4,5-0.6c0.2,0,0.4,0.1,0.5,0.4c0,0.2-0.1,0.4-0.4,0.5
				C387.9,75.6,386.2,75.8,384.5,76C384.5,76,384.5,76,384.5,76z M429.3,75.3C429.3,75.3,429.3,75.3,429.3,75.3
				c-1.7-0.2-3.4-0.3-5-0.5c-0.2,0-0.4-0.2-0.4-0.4c0-0.2,0.2-0.4,0.4-0.4c1.7,0.1,3.3,0.3,5,0.5c0.2,0,0.4,0.2,0.4,0.5
				C429.7,75.2,429.5,75.3,429.3,75.3z M394.4,74.9c-0.2,0-0.4-0.2-0.4-0.4c0-0.2,0.2-0.4,0.4-0.4c1.7-0.1,3.3-0.3,5-0.3
				c0.2,0,0.4,0.2,0.4,0.4c0,0.2-0.2,0.4-0.4,0.4C397.8,74.6,396.1,74.8,394.4,74.9C394.5,74.9,394.4,74.9,394.4,74.9z M419.4,74.5
				C419.4,74.5,419.3,74.5,419.4,74.5c-1.7-0.1-3.3-0.2-5-0.2c-0.2,0-0.4-0.2-0.4-0.4c0-0.2,0.2-0.4,0.4-0.4c1.7,0,3.3,0.1,5,0.2
				c0.2,0,0.4,0.2,0.4,0.4C419.8,74.3,419.6,74.5,419.4,74.5z M404.4,74.3c-0.2,0-0.4-0.2-0.4-0.4c0-0.2,0.2-0.4,0.4-0.4
				c1.7,0,3.3-0.1,5-0.1h0c0.2,0,0.4,0.2,0.4,0.4c0,0.2-0.2,0.4-0.4,0.4C407.7,74.3,406.1,74.3,404.4,74.3
				C404.4,74.3,404.4,74.3,404.4,74.3z"/>
		</g>
		<g>
			<path class="st1" d="M398,402.4C398,402.4,398,402.4,398,402.4c-0.9-0.1-1.7-0.2-2.5-0.2c-0.2,0-0.4-0.2-0.4-0.5
				c0-0.2,0.2-0.4,0.5-0.4c0.8,0.1,1.7,0.2,2.5,0.2c0.2,0,0.4,0.2,0.4,0.5C398.4,402.2,398.2,402.4,398,402.4z"/>
		</g>
	</g>
	<g>
		<g>
			<g>
				<path class="st2" d="M340.8,179.3c-0.3-0.6-78.6,21-79.1,21.3c0.3-0.5,16.9-33,47.4-40.9c6.9-1.8,14.4-2.3,22.7-0.9
					c9.1,1.5,16.8,4.9,23,9.4C348.2,169.4,344.3,173.5,340.8,179.3z"/>
			</g>
			<g>
				<path class="st2" d="M261.7,200.6C261.7,200.6,261.7,200.6,261.7,200.6L261.7,200.6z"/>
			</g>
		</g>
		<g>
			<g>
				<path class="st1" d="M340.8,179.3c-0.3-0.6-78.6,21-79.1,21.3c0.3-0.5,16.9-33,47.4-40.9c6.9-1.8,14.4-2.3,22.7-0.9
					c9.1,1.5,16.8,4.9,23,9.4C348.2,169.4,344.3,173.5,340.8,179.3z"/>
				<path class="st1" d="M261.7,201c-0.1,0-0.2,0-0.3-0.1c-0.1-0.1-0.2-0.3-0.1-0.5c0.2-0.3,4.4-8.5,12.4-17.8
					c7.3-8.4,19.4-19.2,35.2-23.3c7.4-1.9,15.1-2.2,22.9-0.9c8.8,1.5,16.6,4.7,23.2,9.5c0.1,0.1,0.2,0.3,0.2,0.4
					c0,0.2-0.2,0.3-0.3,0.3c-5.7,1-9.7,4.2-13.7,10.9c-0.1,0.1-0.2,0.2-0.4,0.2c0,0-0.1,0-0.1,0c-3.2,0.2-77.9,21-78.8,21.3
					C261.8,201,261.7,201,261.7,201z M322.5,158.5c-4.5,0-8.9,0.6-13.3,1.7c-15.7,4-27.6,14.8-34.8,23.1
					c-6.6,7.5-10.6,14.3-11.9,16.7c4.7-1.4,24.6-6.9,38.4-10.6c32.4-8.8,38.4-10.2,39.6-10.4c3.9-6.5,7.8-9.7,13.2-10.9
					c-6.3-4.4-13.7-7.4-22.1-8.8C328.6,158.7,325.5,158.5,322.5,158.5z M340.4,179.5L340.4,179.5L340.4,179.5z M340.4,179.5
					C340.4,179.5,340.4,179.5,340.4,179.5C340.4,179.5,340.4,179.5,340.4,179.5z M340.4,179.5C340.4,179.5,340.4,179.5,340.4,179.5
					C340.4,179.5,340.4,179.5,340.4,179.5z M340.4,179.5C340.4,179.5,340.4,179.5,340.4,179.5C340.4,179.5,340.4,179.5,340.4,179.5z
					 M340.4,179.5C340.4,179.5,340.4,179.5,340.4,179.5C340.4,179.5,340.4,179.5,340.4,179.5z M340.4,179.5
					C340.4,179.5,340.4,179.5,340.4,179.5C340.4,179.5,340.4,179.5,340.4,179.5z"/>
			</g>
			<g>
				<path class="st1" d="M261.7,201c-0.1,0-0.2,0-0.3-0.1c-0.2-0.2-0.2-0.4,0-0.6c0.2-0.2,0.4-0.2,0.6,0c0.2,0.2,0.2,0.4,0,0.6l0,0
					C261.9,201,261.8,201,261.7,201z"/>
			</g>
		</g>
		<g>
			<g>
				<path class="st1" d="M261.7,201c-0.1,0-0.2,0-0.3-0.1c-0.1-0.1-0.2-0.3-0.1-0.5c0.2-0.3,4.4-8.5,12.4-17.8
					c7.3-8.4,19.4-19.2,35.2-23.3c7.4-1.9,15.1-2.2,22.9-0.9c8.8,1.5,16.6,4.7,23.2,9.5c0.1,0.1,0.2,0.3,0.2,0.4
					c0,0.2-0.2,0.3-0.3,0.3c-5.7,1-9.7,4.2-13.7,10.9c-0.1,0.1-0.2,0.2-0.4,0.2c0,0-0.1,0-0.1,0c-3.2,0.2-77.9,21-78.8,21.3
					C261.8,201,261.7,201,261.7,201z M322.5,158.5c-4.5,0-8.9,0.6-13.3,1.7c-15.7,4-27.6,14.8-34.8,23.1
					c-6.6,7.5-10.6,14.3-11.9,16.7c4.7-1.4,24.6-6.9,38.4-10.6c32.4-8.8,38.4-10.2,39.6-10.4c3.9-6.5,7.8-9.7,13.2-10.9
					c-6.3-4.4-13.7-7.4-22.1-8.8C328.6,158.7,325.5,158.5,322.5,158.5z M340.4,179.5L340.4,179.5L340.4,179.5z M340.4,179.5
					C340.4,179.5,340.4,179.5,340.4,179.5C340.4,179.5,340.4,179.5,340.4,179.5z M340.4,179.5C340.4,179.5,340.4,179.5,340.4,179.5
					C340.4,179.5,340.4,179.5,340.4,179.5z M340.4,179.5C340.4,179.5,340.4,179.5,340.4,179.5C340.4,179.5,340.4,179.5,340.4,179.5z
					 M340.4,179.5C340.4,179.5,340.4,179.5,340.4,179.5C340.4,179.5,340.4,179.5,340.4,179.5z M340.4,179.5
					C340.4,179.5,340.4,179.5,340.4,179.5C340.4,179.5,340.4,179.5,340.4,179.5z"/>
			</g>
			<g>
				<path class="st1" d="M261.7,201c-0.1,0-0.2,0-0.3-0.1c-0.2-0.2-0.2-0.4,0-0.6c0.2-0.2,0.4-0.2,0.6,0c0.2,0.2,0.2,0.4,0,0.6l0,0
					C261.9,201,261.8,201,261.7,201z"/>
			</g>
		</g>
	</g>
	<g>
		<path class="st2" d="M744.2,400.4c-10.9,22.4-23.2,42.2-37.3,49.2c-65.3,25.8-123.4,25.6-153.4-6.5
			c-80.7-84.8-154.2-19.6-172.5-46.9c-23.8-35.6,59.4-67.5,14.8-100.3c-7.3-5.4-13-7.4-17.7-7.1l39.2-22l51.2-26.4l7.5-3.9
			c5.1-1,11.4,0.7,19.7,6.9c44.6,32.9-57.3,82.7-33.5,118.3c11.1,16.6,43.7-3.7,101.5-15.3c81.4-16.3,77.6,25.3,132.4,56.6
			C718.4,418.4,725.2,411.1,744.2,400.4z"/>
		<path class="st1" d="M621.5,468.6c-1.5,0-3,0-4.5-0.1c-13.4-0.4-25.6-2.7-36.1-6.8c-10.9-4.2-20.2-10.4-27.6-18.3
			c-51.7-54.3-101-46.8-133.6-41.9c-18.7,2.8-32.3,4.9-38.9-5.1c-11.1-16.6,0.8-32.4,12.3-47.7c8.9-11.8,17.3-23,15.6-34.3
			c-1-6.5-5.2-12.5-13-18.2c-6.8-5-12.5-7.3-17.4-7c-0.2,0-0.4-0.1-0.4-0.3c-0.1-0.2,0-0.4,0.2-0.5l39.2-22l58.6-30.3
			c0,0,0.1,0,0.1,0c5.6-1.1,12.2,1.1,20.1,6.9c6.9,5.1,10.6,10.7,11.4,17.2c1.8,14.3-11.4,30.6-24.2,46.3
			c-15.5,19-31.5,38.7-20.7,54.9c7.1,10.6,23.2,5.8,49.9-2.2c13.9-4.1,31.2-9.3,51.2-13.3c25.5-5.1,44.3-4.9,59.2,0.7
			c13.7,5.1,23.1,14.2,34,24.7c10.3,9.9,21.9,21.1,39.5,31.2c19.7,13.7,27.2,9.3,42,0.7c1.8-1,3.6-2.1,5.7-3.3
			c0.2-0.1,0.4-0.1,0.5,0.1c0.1,0.1,0.2,0.3,0.1,0.5c-13.4,27.6-25.3,43.3-37.5,49.4C676.2,462.2,646.7,468.6,621.5,468.6z
			 M455.8,397.3c7.6,0,15.6,0.6,23.8,2.2c26.9,5.1,51.2,19.3,74.2,43.4c14.6,15.6,35.8,24,63.1,24.8c26.1,0.8,57.1-5.6,89.8-18.5
			c11.8-5.9,23.4-21.1,36.5-47.8c-1.6,0.9-3,1.8-4.5,2.6c-15.1,8.8-22.7,13.3-42.9-0.7c-17.7-10.1-29.4-21.4-39.7-31.3
			c-21.8-21-37.5-36.2-92.4-25.2c-20,4-37.3,9.2-51.1,13.3c-27.1,8-43.4,12.9-50.8,1.8c-11.2-16.7,5-36.6,20.7-55.9
			c12.7-15.6,25.8-31.7,24-45.7c-0.8-6.3-4.4-11.7-11.1-16.6c-7.6-5.6-14-7.8-19.4-6.8l-58.6,30.2l-37.9,21.3
			c4.8,0.2,10.1,2.6,16.4,7.2c8,5.9,12.4,12,13.3,18.8c1.7,11.6-6.8,22.9-15.8,34.9c-11.3,15.1-23,30.7-12.2,46.8
			c6.4,9.5,19.7,7.5,38.1,4.7C430.1,399.2,442.4,397.3,455.8,397.3z"/>
	</g>
	<g>
		<path class="st3" d="M402.1,287.2l75.3-44.3c0,0,31.9,12.4,22.5,33.2c-34.1,21-81.2,42.1-81.2,42.1S415.2,291.6,402.1,287.2z"/>
		<path class="st1" d="M418.7,318.6c-0.1,0-0.1,0-0.2-0.1c-0.1-0.1-0.2-0.2-0.2-0.3c0-0.3-3.6-26.3-16.3-30.6
			c-0.2-0.1-0.3-0.2-0.3-0.4c0-0.2,0.1-0.3,0.2-0.4l75.3-44.3c0.1-0.1,0.2-0.1,0.4,0c0.7,0.3,18.2,7.2,23.2,19.5
			c1.9,4.6,1.7,9.4-0.5,14.3c0,0.1-0.1,0.1-0.2,0.2c-33.7,20.8-80.8,41.9-81.3,42.1C418.8,318.6,418.7,318.6,418.7,318.6z
			 M403,287.1c11.7,4.9,15.4,26.6,16,30.4c5.2-2.3,48.8-22.2,80.6-41.8c2-4.6,2.2-9.1,0.4-13.5c-4.6-11.3-20.7-18.2-22.6-19
			L403,287.1z"/>
	</g>
	<g>
		<path class="st2" d="M449.2,186.3c-44.7,23.3-56.1,65.4-31.8,80.5l-39.2,22c-15.1,0.8-19.9,24.4-33.9,32.7
			c-4.5,2.7-10,3.7-17.2,1.9c-36-9.3-27.6-58.5,22.2-84.5c31-16.1,30.1-52.7,5.5-70.6c-6.2-4.5-13.9-7.9-23-9.4
			c-8.2-1.4-15.8-0.9-22.7,0.9l86.4-47.1l0.2-0.1c10-5.5,22.1-8.6,36.1-6.3C476.8,113.8,488,166.1,449.2,186.3z"/>
		<path class="st1" d="M333.9,324.7c-2.2,0-4.5-0.3-6.9-0.9c-12.9-3.4-20.8-11.9-22.2-24c-1.1-9.8,2.3-21.1,9.6-31.7
			c8-11.6,20-21.8,34.8-29.5c13.7-7.2,22.2-19.2,23.3-33c1.1-14.2-5.6-27.9-17.8-36.9c-6.5-4.7-14.2-7.9-22.9-9.3
			c-7.7-1.3-15.2-1-22.5,0.9c-0.2,0.1-0.4-0.1-0.5-0.2c-0.1-0.2,0-0.4,0.2-0.5l86.4-47.1l0.2-0.1c11.5-6.3,23.7-8.4,36.3-6.3
			c21.8,3.7,37.9,18.5,41,37.9c1.3,8.3,0,16.5-3.7,23.9c-4,7.9-10.8,14.5-19.6,19.1l-0.2-0.4l0.2,0.4c-26,13.6-43.3,35.3-44.1,55.5
			c-0.4,10.5,4,19.1,12.3,24.3c0.1,0.1,0.2,0.2,0.2,0.4c0,0.1-0.1,0.3-0.2,0.4l-39.2,22c-0.1,0-0.1,0-0.2,0.1
			c-8.3,0.4-13.5,8.1-19,16.2c-4.2,6.3-8.6,12.8-14.7,16.4C341.2,323.8,337.7,324.7,333.9,324.7z M322.5,157.6
			c3.1,0,6.2,0.3,9.4,0.8c8.8,1.5,16.6,4.7,23.2,9.5c12.5,9.1,19.2,23.2,18.1,37.6c-1.1,14.1-9.7,26.4-23.7,33.7
			c-14.7,7.6-26.6,17.8-34.5,29.3c-7.2,10.5-10.5,21.5-9.4,31.1c1.3,11.8,9,20,21.6,23.3c6.4,1.7,11.9,1.1,16.8-1.8
			c6-3.5,10.3-9.9,14.5-16.1c5.6-8.3,10.8-16.1,19.5-16.6l38.6-21.6c-8.2-5.4-12.5-14.1-12.1-24.6c0.8-20.4,18.2-42.5,44.5-56.2l0,0
			c16.9-8.8,25.6-24.9,22.9-42.1c-3-19-18.8-33.6-40.3-37.2c-12.4-2.1-24.4,0-35.8,6.2l-0.2,0.1l-83.7,45.7
			C315.4,158,318.9,157.6,322.5,157.6z"/>
	</g>
	<g>
		<path class="st3" d="M382,213.5c36.2-18.9,85.4-54.3,85.4-54.3s3.2-31.4-22.9-38.3c-31,15-78.9,43.1-78.9,43.1
			S392.3,183.6,382,213.5z"/>
		<path class="st1" d="M382,213.9c-0.1,0-0.2,0-0.3-0.1c-0.1-0.1-0.2-0.3-0.1-0.5c5.3-15.3,0.6-27.8-4.3-35.6
			c-5.3-8.5-11.9-13.4-11.9-13.5c-0.1-0.1-0.2-0.2-0.2-0.4c0-0.1,0.1-0.3,0.2-0.3c0.5-0.3,48.2-28.2,78.9-43.1c0.1,0,0.2-0.1,0.3,0
			c13.7,3.6,19.3,14,21.5,22.1c2.5,8.7,1.7,16.7,1.7,16.7c0,0.1-0.1,0.2-0.2,0.3c-0.5,0.4-49.7,35.6-85.5,54.3
			C382.2,213.9,382.1,213.9,382,213.9z M366.4,164c1.7,1.3,7.1,6,11.6,13.3c4.8,7.8,9.5,20.2,4.7,35.4
			c34.6-18.3,81.3-51.4,84.3-53.6c0.1-1.2,0.5-8.4-1.7-16.3c-3.2-11.4-10.2-18.6-20.8-21.4C415.7,135.4,371.7,160.9,366.4,164z"/>
	</g>
	<g>
		<path class="st1" d="M395.8,295.9l-51.6,25.5c14-8.2,18.8-31.9,33.9-32.7C382.8,288.6,388.5,290.6,395.8,295.9z"/>
		<path class="st1" d="M344.2,321.9c-0.1,0-0.3-0.1-0.4-0.2c-0.1-0.2,0-0.4,0.2-0.6c6-3.5,10.3-9.9,14.5-16.1
			c5.6-8.3,10.9-16.1,19.6-16.6c5.2-0.3,11,2.1,18,7.2c0.1,0.1,0.2,0.2,0.2,0.4c0,0.1-0.1,0.3-0.2,0.3l-51.6,25.5
			C344.3,321.9,344.3,321.9,344.2,321.9z M378.9,289.2c-0.3,0-0.5,0-0.8,0c-8.3,0.4-13.5,8.1-19,16.2c-3.3,4.8-6.6,9.8-10.8,13.5
			l46.7-23.1C388.8,291.4,383.5,289.2,378.9,289.2z"/>
	</g>
	<g>
		<g>
			<path class="st1" d="M558.5,383.3c-0.4,0.4-7.6-2.6-12.8,3.8c-5.2,6.3,7.3,48.2,14.5,47.7c7.2-0.5,7-20.1,7.1-31.5
				S558.5,383.3,558.5,383.3z"/>
			<path class="st1" d="M560.1,435.2c-1.9,0-4-2.3-6.4-6.9c-6-11.6-12.4-36.5-8.3-41.5c4.2-5.2,9.7-4.3,12.1-4
				c0.3,0,0.7,0.1,0.8,0.1c0.1,0,0.1,0,0.2,0c0.1,0,0.2,0,0.3,0.1c0.1,0.1,9,8.8,8.9,20.3l0,1.6c-0.1,11.9-0.2,29.8-7.5,30.3
				C560.2,435.2,560.1,435.2,560.1,435.2z M554.4,383.4c-2.5,0-5.7,0.7-8.4,3.9c-3.6,4.4,2,28.3,8.4,40.6c2.2,4.3,4.3,6.6,5.8,6.4
				c6.5-0.5,6.6-18.7,6.7-29.5l0-1.6c0.1-10.3-7.3-18.3-8.5-19.5c-0.2,0-0.5,0-1-0.1C556.6,383.6,555.6,383.4,554.4,383.4z"/>
		</g>
		<g>
			<path class="st2" d="M569.9,378.8l-5.6,16.5c0,0-9.5-2.9-9.5-11.3c4.7-11.9,5-12.9,5-12.9S569.3,374.1,569.9,378.8z"/>
			<path class="st1" d="M564.3,395.7c0,0-0.1,0-0.1,0c-0.1,0-9.7-3.1-9.8-11.7c0-0.1,0-0.1,0-0.2c4.6-11.6,4.9-12.9,4.9-12.9
				c0-0.1,0.1-0.2,0.2-0.3c0.1-0.1,0.2-0.1,0.3,0c0.4,0.1,9.7,3.3,10.4,8.1c0,0.1,0,0.1,0,0.2l-5.6,16.5
				C564.6,395.6,564.5,395.7,564.3,395.7z M555.2,384c0.1,7,7.1,10.1,8.8,10.7l5.4-16c-0.7-3.7-7.7-6.6-9.4-7.2
				C559.7,372.5,558.7,375.4,555.2,384z"/>
		</g>
		<g>
			<path class="st4" d="M539.8,212.8c0,0,91.2,30,88.2,62.1S571,393,571,393c-6.3-0.5-11.8-6.8-16.5-18.2c0,0,32.1-84.8,26.6-102.6
				c-5.5-17.7-68.8-42.2-68.8-42.2L539.8,212.8z"/>
			<path class="st1" d="M571,393.4C571,393.4,571,393.4,571,393.4c-6.3-0.5-12-6.7-16.9-18.4c0-0.1,0-0.2,0-0.3
				c0.3-0.8,32-84.9,26.6-102.3c-5.4-17.3-67.9-41.7-68.6-41.9c-0.1-0.1-0.2-0.2-0.3-0.3c0-0.2,0.1-0.3,0.2-0.4l27.4-17.3
				c0.1-0.1,0.2-0.1,0.4,0c0.2,0.1,23.1,7.6,45.3,19c13.1,6.7,23.3,13.4,30.6,19.9c9.1,8.2,13.4,16.1,12.7,23.6
				c-2.9,31.8-56.5,117.5-57,118.4C571.3,393.4,571.2,393.4,571,393.4z M555,374.8c4.7,11.1,10,17.1,15.8,17.7
				c3-4.8,53.9-87,56.8-117.8c1.5-16.3-22.4-32.2-42.8-42.6c-21.1-10.8-42.8-18.2-45-18.9L513.3,230c7.6,3,63.1,25.3,68.3,42.2
				C586.9,289.6,557,369.6,555,374.8z"/>
		</g>
		<g>
			<path class="st1" d="M627.1,400.4c-0.1,0.6-7.8,2-8.7,10.1s32.3,36.6,38,32.3s-5-20.7-11.1-30.3
				C639.2,402.8,627.1,400.4,627.1,400.4z"/>
			<path class="st1" d="M654.8,443.6c-1.7,0-4.2-0.9-7.4-2.8c-11.3-6.5-30.1-23.9-29.4-30.4c0.7-6.6,5.8-8.9,8-9.9
				c0.3-0.1,0.6-0.3,0.7-0.4c0-0.1,0.1-0.1,0.1-0.1c0.1-0.1,0.2-0.1,0.3-0.1c0.1,0,12.4,2.5,18.5,12.2l0.8,1.3
				c6.4,10,16,25.2,10.2,29.5C656.2,443.4,655.6,443.6,654.8,443.6z M627.2,400.9c-0.2,0.1-0.5,0.3-0.9,0.5c-2,0.9-6.8,3-7.5,9.2
				c-0.6,5.7,17,22.7,29,29.6c4.2,2.4,7.1,3.2,8.4,2.3c5.2-3.9-4.6-19.3-10.4-28.4l-0.8-1.3C639.5,404,628.9,401.2,627.2,400.9z"/>
		</g>
		<g>
			<path class="st2" d="M634.2,390.4l4.2,16.9c0,0-9.5,2.7-14.1-4.4c-2.5-12.6-2.8-13.6-2.8-13.6S631.2,386.9,634.2,390.4z"/>
			<path class="st1" d="M634.3,408.2c-3.3,0-7.6-0.9-10.3-5.1c0,0,0-0.1-0.1-0.1c-2.4-12.2-2.8-13.5-2.8-13.5c0-0.1,0-0.2,0-0.3
				c0.1-0.1,0.2-0.2,0.3-0.2c0.4-0.1,10-2.5,13.1,1.2c0,0,0.1,0.1,0.1,0.2l4.2,16.9c0.1,0.2-0.1,0.4-0.3,0.5
				C638.5,407.7,636.7,408.2,634.3,408.2z M624.7,402.7c3.9,5.9,11.4,4.6,13.2,4.3l-4.1-16.4c-2.6-2.8-10-1.4-11.8-0.9
				C622.3,390.6,622.9,393.6,624.7,402.7z"/>
		</g>
		<g>
			<path class="st4" d="M468.8,229.5c0,0-1.2,31.3,57.1,41.9s84.4,123.3,84.4,123.3s26.2,6.3,29.1-5.9
				c-10.1-42.6-29.1-145.2-98.8-165.1C490,209.4,468.8,229.5,468.8,229.5z"/>
			<path class="st1" d="M624.1,396.8c-0.1,0-0.2,0-0.4,0c-6.9-0.1-13.5-1.6-13.6-1.6c-0.2,0-0.3-0.2-0.3-0.3
				c-0.1-0.3-6.7-28.5-20.3-57.6c-12.6-26.8-33.8-59.9-63.7-65.3c-30.2-5.5-44.2-16.7-50.6-25.1c-7-9.2-6.8-16.9-6.8-17.3
				c0-0.1,0.1-0.2,0.1-0.3c0.2-0.2,5.5-5.1,17.1-8.4c10.7-3,28.9-5,55.2,2.5c15.2,4.3,29.1,13,41.2,25.7
				c10.3,10.8,19.7,24.9,27.7,41.9c14.7,30.9,22.7,65.6,28,88.6c0.8,3.3,1.5,6.4,2.1,9.2c0,0.1,0,0.1,0,0.2
				C638.6,394,633.1,396.8,624.1,396.8z M610.6,394.4c1.3,0.3,7.1,1.5,13.1,1.6c6.1,0,13.7-1.2,15.2-7.1c-0.7-2.8-1.4-5.8-2.1-9.1
				c-5.3-22.9-13.2-57.6-27.9-88.4c-17.4-36.6-40.5-59.2-68.4-67.2c-26-7.4-44.1-5.4-54.6-2.5c-10.5,2.9-15.8,7.3-16.7,8.1
				c0,1.2,0.4,8.4,6.7,16.6c6.3,8.3,20.2,19.3,50.1,24.7c13.4,2.4,26.2,10.4,38,23.8c9.4,10.7,18.3,24.8,26.4,42
				C603.3,364.6,609.9,391.5,610.6,394.4z"/>
		</g>
		<g>
			<path class="st1" d="M517.7,112.6c0,0,2.2,12.5,0,13.8c-2.2,1.3-10.5-0.9-10.4-1.6c0.1-0.7,1.9-10.8,1.9-10.8L517.7,112.6z"/>
			<path class="st1" d="M515.4,127.2c-3,0-7.3-1.2-8.2-1.9c-0.3-0.2-0.4-0.4-0.4-0.7c0.1-0.7,1.9-10.7,1.9-10.8
				c0-0.2,0.2-0.3,0.3-0.3l8.5-1.3c0.2,0,0.4,0.1,0.5,0.3c0.4,2.1,2.2,12.8-0.2,14.2C517.3,127.1,516.4,127.2,515.4,127.2z
				 M507.7,124.7c0.9,0.7,7.8,2.5,9.7,1.3c1.3-0.8,0.7-7.9-0.1-13l-7.8,1.2C509.3,115.9,508,123.4,507.7,124.7z"/>
		</g>
		<g>
			<path class="st2" d="M566.9,180.1c-3.2,0.6-6.8,1.8-14.2,4.7c-21,5.6,3.5-48.5-32-59.4l-2.1,76.7c23.3,3.2,44.1-10.9,48.8-11.8
				C570.4,189.7,572,180,566.9,180.1z"/>
			<path class="st1" d="M525.7,203c-2.3,0-4.7-0.1-7.1-0.5c-0.2,0-0.4-0.2-0.4-0.4l2.1-76.7c0-0.1,0.1-0.3,0.2-0.3
				c0.1-0.1,0.2-0.1,0.4-0.1c20.2,6.2,21.2,26.6,22,41.4c0.4,8.1,0.8,15.1,4,17.5c1.4,1,3.2,1.2,5.7,0.5c7.3-2.9,10.9-4.1,14.2-4.7
				c0,0,0.1,0,0.1,0c2,0,3.3,1.4,3.6,3.9c0.3,2.9-1,6.7-3,7.1c-1.1,0.2-3.1,1.2-5.6,2.4C554.3,196.7,540.9,203,525.7,203z
				 M519.1,201.7c17.7,2.3,33.8-5.3,42.5-9.4c2.7-1.3,4.7-2.2,5.8-2.4c1.4-0.3,2.6-3.5,2.4-6.2c-0.1-1.2-0.7-3.1-2.8-3.1
				c0,0,0,0,0,0c-3.2,0.6-6.8,1.8-14.1,4.7c0,0,0,0,0,0c-2.7,0.7-4.8,0.5-6.4-0.6c-3.6-2.6-3.9-9.5-4.4-18.1
				c-0.8-15.3-1.8-34.3-20.9-40.5L519.1,201.7z M552.7,184.8L552.7,184.8L552.7,184.8z"/>
		</g>
		<g>
			<path class="st2" d="M567.2,181.1c0,0,10,0.6,12.1,3.9c2.1,3.3,1.7,10.7,1.7,10.7s-3.3,3-7.4,0.5c-4.1-2.5-4.3-7.4-7.2-7.7
				C562.9,185.9,565,181.8,567.2,181.1z"/>
			<path class="st1" d="M577,197.7c-1.1,0-2.3-0.3-3.5-1c-2.2-1.3-3.3-3.2-4.2-4.8c-0.9-1.5-1.6-2.7-2.8-2.8c-0.1,0-0.1,0-0.2-0.1
				c-2.1-1.6-2.2-3.5-2-4.5c0.3-1.7,1.5-3.2,2.9-3.6c0,0,0.1,0,0.1,0c0.4,0,10.2,0.6,12.4,4.1c2.1,3.4,1.8,10.6,1.8,10.9
				c0,0.1-0.1,0.2-0.1,0.3C581.3,196.1,579.5,197.7,577,197.7z M566.6,188.2c1.6,0.2,2.4,1.6,3.3,3.2c0.9,1.6,1.9,3.3,3.9,4.5
				c3.4,2.1,6.2,0.1,6.8-0.4c0-1.1,0.2-7.3-1.6-10.3c-1.8-3-10.8-3.7-11.7-3.7c-1.1,0.4-2.1,1.6-2.3,2.9
				C564.8,185.9,565.3,187.2,566.6,188.2z"/>
		</g>
		<g>
			<path class="st2" d="M526,127.8c-8-5.2-19.1-6.7-35.2-3.2c0,0-18,0.9-21.5,24.1c-4.2,27.7-2.6,83.4-2.6,83.4s78.6,0.6,83.9-19.2
				c-8.2-13-15.2-19-13.8-44.4L526,127.8z"/>
			<path class="st1" d="M467.4,232.4c-0.4,0-0.7,0-0.7,0c-0.2,0-0.4-0.2-0.4-0.4c0-0.6-1.6-56.1,2.6-83.4c1.8-12.1,7.7-18.1,12.3-21
				c4.8-3,9.1-3.4,9.6-3.4c15.4-3.3,27-2.2,35.5,3.3c0.2,0.1,0.2,0.4,0.1,0.6c-0.1,0.2-0.4,0.2-0.6,0.1c-8.3-5.4-19.7-6.4-34.9-3.2
				c0,0,0,0-0.1,0c0,0-4.5,0.3-9.3,3.3c-4.4,2.8-10.1,8.6-11.9,20.4c-4,26.1-2.7,77.8-2.6,82.9c0.1,0,0.1,0,0.2,0
				c7.1,0,77.5-0.5,82.8-18.7c-1.1-1.8-2.2-3.4-3.3-5c-6.6-9.8-11.7-17.5-10.5-39.5c0-0.2,0.2-0.4,0.4-0.4c0.2,0,0.4,0.2,0.4,0.4
				c-1.2,21.7,3.7,29,10.4,39c1.1,1.6,2.2,3.3,3.4,5.2c0.1,0.1,0.1,0.2,0.1,0.3c-2.2,8.4-17.1,14.2-44.3,17.4
				C488.7,232.3,471.1,232.4,467.4,232.4z"/>
		</g>
		<g>
			<polygon class="st1" points="553.5,226.1 585.9,204.9 584.3,204.9 555.8,221.4 			"/>
			<path class="st1" d="M553.5,226.6c-0.1,0-0.2,0-0.3-0.1c-0.1-0.1-0.2-0.3-0.1-0.5l2.3-4.7c0-0.1,0.1-0.1,0.2-0.2l28.4-16.5
				c0.1,0,0.1-0.1,0.2-0.1h1.7c0.2,0,0.3,0.1,0.4,0.3c0.1,0.2,0,0.4-0.2,0.5l-32.4,21.2C553.7,226.5,553.6,226.6,553.5,226.6z
				 M556.2,221.7l-1.6,3.2l30-19.6h-0.2L556.2,221.7z"/>
		</g>
		<g>
			<polygon class="st1" points="515.1,209.4 556,221.7 553.5,226.1 513.2,212.8 			"/>
			<path class="st1" d="M553.5,226.6c0,0-0.1,0-0.1,0l-40.3-13.4c-0.1,0-0.2-0.1-0.3-0.2c0-0.1,0-0.2,0-0.4l1.9-3.4
				c0.1-0.2,0.3-0.2,0.5-0.2l40.9,12.4c0.1,0,0.2,0.1,0.3,0.2c0,0.1,0,0.3,0,0.4l-2.5,4.4C553.8,226.5,553.7,226.6,553.5,226.6z
				 M513.8,212.5l39.5,13.1l2.1-3.6l-40.1-12.1L513.8,212.5z"/>
		</g>
		<g>
			<path class="st2" d="M559.6,190.3c-1.3,0.3-44.5,19.1-44.5,19.1l40.9,12.4l33.2-21L559.6,190.3z"/>
			<path class="st1" d="M556,222.2c0,0-0.1,0-0.1,0L515,209.8c-0.2-0.1-0.3-0.2-0.3-0.4c0-0.2,0.1-0.3,0.2-0.4
				c4.4-1.9,43.2-18.8,44.5-19.1c0.1,0,0.2,0,0.2,0l29.6,10.5c0.1,0.1,0.3,0.2,0.3,0.3c0,0.2-0.1,0.3-0.2,0.4l-33.2,21
				C556.2,222.1,556.1,222.2,556,222.2z M516.3,209.3l39.6,12l32.3-20.4l-28.7-10.2C557.4,191.5,528.7,203.9,516.3,209.3z"/>
		</g>
		<g>
			<polygon class="st1" points="592.1,179 555.8,221.4 558.5,223.1 594.2,181.1 			"/>
			<path class="st1" d="M558.5,223.5c-0.1,0-0.2,0-0.2-0.1l-2.7-1.7c-0.1-0.1-0.2-0.2-0.2-0.3c0-0.1,0-0.2,0.1-0.3l36.2-42.4
				c0.1-0.1,0.2-0.1,0.3-0.1c0.1,0,0.2,0,0.3,0.1l2.1,2.1c0.1,0.2,0.2,0.4,0,0.6l-35.6,41.9C558.8,223.5,558.6,223.5,558.5,223.5z
				 M556.5,221.3l2,1.2l35.2-41.4l-1.5-1.5L556.5,221.3z"/>
		</g>
		<g>
			<polygon class="st1" points="627.7,158.7 592.1,179 594.2,181.1 629.1,160.8 			"/>
			<path class="st1" d="M594.2,181.6c-0.1,0-0.2,0-0.3-0.1l-2.1-2.1c-0.1-0.1-0.1-0.2-0.1-0.3c0-0.1,0.1-0.2,0.2-0.3l35.7-20.3
				c0.2-0.1,0.4,0,0.6,0.1l1.3,2.1c0.1,0.1,0.1,0.2,0.1,0.3c0,0.1-0.1,0.2-0.2,0.3l-34.9,20.4C594.3,181.5,594.2,181.6,594.2,181.6z
				 M592.7,179.1l1.5,1.5l34.2-20l-0.9-1.4L592.7,179.1z"/>
		</g>
		<g>
			<polygon class="st2" points="558.5,223.1 595.6,201 629.1,160.8 594.2,181.1 			"/>
			<path class="st1" d="M558.5,223.5c-0.1,0-0.2-0.1-0.3-0.1c-0.1-0.2-0.1-0.4,0-0.5l35.6-41.9c0,0,0.1-0.1,0.1-0.1l34.9-20.4
				c0.2-0.1,0.4-0.1,0.5,0.1c0.1,0.2,0.1,0.4,0,0.5l-33.4,40.2c0,0-0.1,0.1-0.1,0.1l-37.1,22.1C558.7,223.5,558.6,223.5,558.5,223.5
				z M594.4,181.5l-34,40l34.9-20.8l31.9-38.3L594.4,181.5z"/>
		</g>
		<g>
			<path class="st2" d="M485.6,125.8c0,0-50,14.9-35.4,66.1c11,38.4,57.4,15.3,69,8.9c4.7-2.5,3-9.5-3.1-9.4
				c-1.8,0.7-3.8,1.4-6.2,2.4c-13.2,5.3-47.3,0.4-40.2-29.8L485.6,125.8z"/>
			<path class="st1" d="M478.4,213.9c-4.4,0-8.7-0.7-12.6-2.3c-7.8-3.2-13.1-9.8-16-19.7c-3.4-11.8-3.6-22.6-0.6-32.2
				c2.3-7.7,6.7-14.6,13-20.5c10.6-10.1,23.2-13.9,23.3-14c0.2-0.1,0.5,0.1,0.5,0.3c0.1,0.2-0.1,0.5-0.3,0.5
				c-0.1,0-12.5,3.8-23,13.8c-9.6,9.2-19.6,25.6-12.1,51.8c2.7,9.6,7.9,16,15.5,19.1c3.8,1.6,8,2.2,12.3,2.2
				c16.3,0,34.4-9.3,40.6-12.7c2-1,2.9-3,2.3-5.1c-0.4-1.6-2-3.5-5.1-3.5c0,0,0,0-0.1,0c-1.7,0.6-3.7,1.4-6.1,2.4
				c-7.7,3.1-24.4,2.9-34.2-5.6c-6.7-5.8-8.9-14.3-6.5-24.7c0.1-0.2,0.3-0.4,0.5-0.3c0.2,0.1,0.4,0.3,0.3,0.5
				c-2.4,10.1-0.2,18.4,6.2,23.9c9.6,8.3,25.8,8.5,33.4,5.4c2.4-1,4.4-1.7,6.2-2.4c0,0,0.1,0,0.1,0c3-0.1,5.3,1.6,6,4.1
				c0.6,2.4-0.5,4.8-2.7,6C513.2,204.6,494.9,213.9,478.4,213.9z"/>
		</g>
		<g>
			<path class="st2" d="M509.4,129.6l0.9-13.2c0,0,18.9,6.4,19.4-24.7c0.4-18.9-16.3-23.5-26-13.6c-9.7,9.9-4.1,26.8-6.5,34
				c-1.6,4.8-7,11.6-9,15.8C487.2,130.1,503,139.1,509.4,129.6z"/>
			<path class="st1" d="M500.9,134.3c-3.7,0-7.4-1.4-9.7-2.7c-2-1.1-3.9-2.7-3.4-3.8c0.8-1.8,2.2-4,3.7-6.3c2.1-3.3,4.4-6.8,5.3-9.5
				c0.8-2.3,0.7-5.8,0.6-9.8c-0.2-7.9-0.5-17.7,6-24.4c4.8-4.9,11.5-6.5,17.2-4.1c6.2,2.6,9.7,9.3,9.6,18c-0.2,11.7-3,19.6-8.4,23.3
				c-4.6,3.2-9.5,2.3-11.1,1.9l-0.9,12.7c0,0.1,0,0.1-0.1,0.2C507.5,133.1,504.2,134.3,500.9,134.3z M515.2,73.4c-4,0-8,1.7-11.2,5
				c-6.3,6.5-6,16.1-5.8,23.8c0.1,4.1,0.2,7.6-0.6,10.1c-0.9,2.9-3.2,6.3-5.4,9.7c-1.5,2.3-2.9,4.5-3.7,6.2
				c-0.1,0.2,0.6,1.4,3.1,2.7c4.1,2.3,13,5,17.3-1.4l0.9-13.1c0-0.1,0.1-0.2,0.2-0.3c0.1-0.1,0.2-0.1,0.4,0c0.1,0,5.8,1.9,10.9-1.7
				c5.1-3.6,7.8-11.2,8-22.6c0.2-8.5-3.1-14.7-9.1-17.2C518.6,73.8,516.9,73.4,515.2,73.4z M509.4,129.6L509.4,129.6L509.4,129.6z"
				/>
		</g>
	</g>
	<g>
		<path class="st1" d="M477.8,129.1c0,0,9.4-2.8,14.7-3.8c12.3-2.9,10.6-15.8,9.8-24.9c-0.8-9.1,2.8-11.1,4.3-10.1
			c1.6,1,7-0.8,8.5-4.5c9.8,0.2,9,9.4,17,11c0,0,8.8-12.6,2.5-21.3s-15.4-5.5-15.4-5.5s-11.3-9.9-23.3,0.6S477,122,477.8,129.1z"/>
		<path class="st1" d="M477.8,129.5c-0.1,0-0.2,0-0.2-0.1c-0.1-0.1-0.2-0.2-0.2-0.3c-0.4-3.7,1.2-15.9,4.3-28.1
			c2.2-8.9,7-24.7,14-30.7c11.4-9.9,22.2-2,23.7-0.7c1.5-0.4,9.8-2.3,15.6,5.8c6.4,8.8-2.1,21.2-2.5,21.8c-0.1,0.1-0.3,0.2-0.4,0.2
			c-3.8-0.7-5.6-3.1-7.5-5.5c-2.2-2.7-4.2-5.3-9.2-5.5c-1.1,2.3-3.5,3.8-5.4,4.4c-1.5,0.5-2.9,0.5-3.6,0c-0.4-0.3-1-0.2-1.5,0.1
			c-0.7,0.4-2.9,2.3-2.2,9.6l0.1,1.1c0.8,9,1.9,21.3-10.2,24.2c-5.3,1-14.6,3.8-14.7,3.8C477.8,129.5,477.8,129.5,477.8,129.5z
			 M507.8,66.1c-3.5,0-7.5,1.2-11.6,4.7c-11.5,10-18.5,49.3-18.1,57.7c2-0.6,9.7-2.8,14.3-3.7c11.4-2.7,10.4-14.1,9.5-23.3l-0.1-1.1
			c-0.7-7.5,1.6-9.8,2.6-10.4c0.8-0.5,1.7-0.5,2.4-0.1c0.5,0.3,1.6,0.3,2.9-0.1c1.8-0.6,4.1-2,5-4.2c0.1-0.2,0.2-0.3,0.4-0.3
			c5.6,0.1,7.9,3,10.1,5.8c1.8,2.2,3.4,4.4,6.7,5.1c1.1-1.7,7.9-12.8,2.4-20.6c-6-8.3-14.5-5.5-14.9-5.4c-0.1,0-0.3,0-0.4-0.1
			C518.7,70,514.1,66.1,507.8,66.1z"/>
	</g>
	<g>
		<path class="st2" d="M516.7,192.6c0,0,11.4-4.1,17.3-1.4c5.9,2.7,7.6,17.2,7.6,17.2s-0.4,1-2,0c-1.6-1-4.2-9.5-4.2-9.5
			s-0.9,4.6-4.7,5.6c-3.8,1-7.9-2.1-8.9-3.3c-1-1.2-5.2-1.6-5.2-1.6S514.7,195.7,516.7,192.6z"/>
		<path class="st1" d="M540.9,209.3c-0.4,0-0.9-0.2-1.5-0.5c-1.4-0.8-3.1-5.9-3.9-8.5c-0.6,1.5-1.9,3.8-4.6,4.6
			c-4,1.1-8.3-2.2-9.4-3.4c-0.7-0.8-3.4-1.3-5-1.5c-0.1,0-0.3-0.1-0.3-0.2c-0.1-0.2-2.1-4.1,0-7.4c0-0.1,0.1-0.1,0.2-0.2
			c0.5-0.2,11.6-4.1,17.7-1.4c6.1,2.7,7.8,16.9,7.9,17.5c0,0.1,0,0.1,0,0.2c0,0-0.2,0.4-0.7,0.6
			C541.2,209.2,541.1,209.3,540.9,209.3z M535.5,198.5c0.2,0,0.3,0.1,0.4,0.3c1,3.2,2.9,8.6,4,9.3c0.7,0.4,1.1,0.4,1.2,0.3
			c0.1,0,0.1-0.1,0.1-0.1c-0.2-1.5-2-14.3-7.4-16.7c-5.4-2.4-15.6,0.9-16.9,1.4c-1.5,2.5-0.3,5.4,0,6.2c1,0.1,4.3,0.6,5.3,1.8
			c1,1.1,4.9,4.1,8.5,3.1c3.5-1,4.4-5.2,4.4-5.3C535.2,198.6,535.3,198.5,535.5,198.5C535.5,198.5,535.5,198.5,535.5,198.5z"/>
	</g>
	<g>
		<path class="st1" d="M438.3,331.4c-0.2,0-0.5-0.1-0.6-0.4c-0.1-0.3,0-0.7,0.3-0.8l63-28.9c0.3-0.1,0.7,0,0.8,0.3
			c0.1,0.3,0,0.7-0.3,0.8l-63,28.9C438.5,331.4,438.4,331.4,438.3,331.4z"/>
	</g>
	<g>
		<path class="st1" d="M425.1,354.2c-0.2,0-0.5-0.1-0.6-0.4c-0.1-0.3,0-0.7,0.3-0.8l62.5-29.3c0.3-0.1,0.7,0,0.8,0.3
			c0.1,0.3,0,0.7-0.3,0.8l-62.5,29.3C425.2,354.2,425.2,354.2,425.1,354.2z"/>
	</g>
	<g>
		<path class="st1" d="M413.1,376.3c-0.2,0-0.5-0.1-0.6-0.4c-0.1-0.3,0-0.7,0.3-0.8l65.3-30.6c0.3-0.1,0.7,0,0.8,0.3
			c0.1,0.3,0,0.7-0.3,0.8l-65.3,30.6C413.3,376.3,413.2,376.3,413.1,376.3z"/>
	</g>
	<g>
		<path class="st1" d="M364.3,235.2c-0.2,0-0.4-0.1-0.6-0.3c-0.2-0.3,0-0.7,0.3-0.8l53.8-28.6c0.3-0.2,0.7,0,0.8,0.3
			c0.2,0.3,0,0.7-0.3,0.8l-53.8,28.6C364.5,235.2,364.4,235.2,364.3,235.2z"/>
	</g>
	<g>
		<path class="st1" d="M331.3,263.9c-0.2,0-0.5-0.1-0.6-0.4c-0.1-0.3,0-0.7,0.3-0.8l70.8-34c0.3-0.1,0.7,0,0.8,0.3
			c0.1,0.3,0,0.7-0.3,0.8l-70.8,34C331.5,263.9,331.4,263.9,331.3,263.9z"/>
	</g>
	<g>
		<path class="st1" d="M319.8,304.1c-0.2,0-0.4-0.1-0.6-0.3c-0.2-0.3,0-0.7,0.3-0.8l82.4-42.4c0.3-0.2,0.7,0,0.8,0.3
			c0.2,0.3,0,0.7-0.3,0.8L320.1,304C320,304,319.9,304.1,319.8,304.1z"/>
	</g>
	<g>
		<path class="st1" d="M361,318.8c-0.2,0-0.4-0.1-0.5-0.3c-0.2-0.3-0.1-0.7,0.2-0.9l24.2-16.2c0.3-0.2,0.7-0.1,0.9,0.2
			c0.2,0.3,0.1,0.7-0.2,0.9l-24.2,16.2C361.3,318.8,361.1,318.8,361,318.8z"/>
	</g>
	<g>
		<path class="st1" d="M318.5,287.7c-0.2,0-0.5-0.1-0.6-0.4c-0.2-0.3,0-0.7,0.3-0.8l77.4-37.6c0.3-0.2,0.7,0,0.8,0.3
			c0.2,0.3,0,0.7-0.3,0.8l-77.4,37.6C318.6,287.7,318.5,287.7,318.5,287.7z"/>
	</g>
	<g>
		<path class="st1" d="M352.1,150.8c-0.2,0-0.4-0.1-0.5-0.3c-0.2-0.3-0.1-0.7,0.2-0.8l66-36.8c0.3-0.2,0.7-0.1,0.8,0.2
			c0.2,0.3,0.1,0.7-0.2,0.8l-66,36.8C352.3,150.8,352.2,150.8,352.1,150.8z"/>
	</g>
	<g>
		<g>
			<path class="st1" d="M164.9,227.6c-0.1,0-0.2,0-0.2,0L132.4,213c-0.2-0.1-0.3-0.3-0.3-0.5c0-0.2,0.1-0.4,0.2-0.6l27.8-22.7
				c0.2-0.1,0.4-0.2,0.6-0.1c0.2,0.1,0.3,0.3,0.3,0.5l4.4,37.2c0,0.2-0.1,0.4-0.2,0.6C165.1,227.5,165,227.6,164.9,227.6z
				 M133.8,212.3l30.4,13.7l-4.1-35.1L133.8,212.3z"/>
		</g>
		<g>
			<polygon class="st1" points="119.3,337.7 106.8,335.6 94.2,333.4 102.3,322.8 110.3,312.3 114.8,325 			"/>
			<path class="st1" d="M119.3,338.1C119.3,338.1,119.3,338.1,119.3,338.1l-25.1-4.4c-0.1,0-0.2-0.1-0.3-0.3c0-0.1,0-0.3,0.1-0.4
				L110,312c0.1-0.1,0.2-0.2,0.4-0.1c0.1,0,0.2,0.1,0.3,0.3l9,25.5c0,0.1,0,0.3-0.1,0.4C119.5,338.1,119.4,338.1,119.3,338.1z
				 M95,333.1l23.7,4.1l-8.5-24.1L95,333.1z"/>
		</g>
	</g>
	<g>
		<path class="st2" d="M498.7,137.7c0,0,3.3,0.7,6.2-1.7c3.2,4.5,2.7,21.3,2.4,27.6L498.7,137.7z"/>
		<path class="st1" d="M507.3,164C507.3,164,507.3,164,507.3,164c-0.2,0-0.4-0.2-0.4-0.4c0.2-5.1,0.8-21.9-2.1-26.9
			c-2.8,2.1-6,1.5-6.1,1.5c-0.2,0-0.4-0.3-0.3-0.5c0-0.2,0.3-0.4,0.5-0.3c0,0,3.2,0.6,5.8-1.6c0.1-0.1,0.2-0.1,0.3-0.1
			c0.1,0,0.2,0.1,0.3,0.2c3.2,4.6,2.8,21,2.5,27.8C507.7,163.8,507.5,164,507.3,164z"/>
	</g>
	<g>
		<path class="st2" d="M533.5,144.3c0,0,4.4,9.9,3.4,18.4L533.5,144.3z"/>
		<path class="st1" d="M536.9,163.1C536.9,163.1,536.9,163.1,536.9,163.1c-0.3,0-0.4-0.2-0.4-0.5c1-8.2-3.3-18.1-3.3-18.2
			c-0.1-0.2,0-0.5,0.2-0.5c0.2-0.1,0.5,0,0.5,0.2c0.2,0.4,4.4,10.1,3.4,18.6C537.3,162.9,537.1,163.1,536.9,163.1z"/>
	</g>
	<g>
		<path class="st1" d="M445.8,384.8c-0.2,0-0.5-0.1-0.6-0.4c-0.1-0.3,0-0.7,0.3-0.8l36.3-17c0.3-0.1,0.7,0,0.8,0.3
			c0.1,0.3,0,0.7-0.3,0.8l-36.3,17C445.9,384.7,445.8,384.8,445.8,384.8z"/>
	</g>
	<g>
		<path class="st1" d="M505.7,68c0,0-3-15.3-15.9-8.9c-12.8,6.4-5,36.3-5,36.3L505.7,68z"/>
		<path class="st1" d="M484.8,95.8C484.7,95.8,484.7,95.8,484.8,95.8c-0.2,0-0.4-0.2-0.4-0.3c-0.3-1.2-7.7-30.3,5.3-36.8
			c3.7-1.9,7-2.1,9.8-0.7c5.1,2.5,6.6,9.6,6.6,9.9c0,0.1,0,0.2-0.1,0.3l-20.9,27.4C485,95.7,484.9,95.8,484.8,95.8z M495.6,57.9
			c-1.7,0-3.6,0.5-5.6,1.5c-11.2,5.6-6.2,30.1-5,35l20.3-26.6c-0.3-1.1-1.8-7-6.2-9.2C498,58.2,496.8,57.9,495.6,57.9z"/>
	</g>
	<g>
		<polygon class="st4" points="594.9,277.7 589.2,287.4 599.3,283.6 595.9,290.7 600.9,290.7 		"/>
		<path class="st1" d="M600.9,291.1h-4.9c-0.1,0-0.3-0.1-0.4-0.2c-0.1-0.1-0.1-0.3,0-0.4l2.9-6.2l-9.1,3.4c-0.2,0.1-0.4,0-0.5-0.1
			c-0.1-0.1-0.1-0.3,0-0.5l5.7-9.7c0.1-0.2,0.4-0.3,0.6-0.1c0.2,0.1,0.3,0.4,0.1,0.6l-5.1,8.6l8.9-3.4c0.2-0.1,0.3,0,0.5,0.1
			c0.1,0.1,0.1,0.3,0.1,0.5l-3.1,6.5h4.3c0.2,0,0.4,0.2,0.4,0.4C601.3,290.9,601.1,291.1,600.9,291.1z"/>
	</g>
	<g>
		<polygon class="st4" points="623.5,268.2 619.3,274.7 625.6,274.7 620.2,279.4 623.5,281.2 		"/>
		<path class="st1" d="M623.5,281.6c-0.1,0-0.1,0-0.2-0.1l-3.3-1.8c-0.1-0.1-0.2-0.2-0.2-0.3c0-0.1,0-0.3,0.1-0.4l4.5-4h-5.2
			c-0.2,0-0.3-0.1-0.4-0.2c-0.1-0.1-0.1-0.3,0-0.4l4.3-6.4c0.1-0.2,0.4-0.2,0.6-0.1c0.2,0.1,0.2,0.4,0.1,0.6l-3.8,5.8h5.6
			c0.2,0,0.3,0.1,0.4,0.3s0,0.3-0.1,0.5l-4.9,4.3l2.8,1.5c0.2,0.1,0.3,0.4,0.2,0.6C623.8,281.6,623.7,281.6,623.5,281.6z"/>
	</g>
</g>
<g>
	<g>
		<g>
			<path class="st1" d="M995.6,489.2l191.4-9l-53.2-267.7c-2.5-13-13.9-22.4-27.1-22.4H966c-17.4,0-30.5,15.9-27.1,33L995.6,489.2z"
				/>
			<path class="st1" d="M995.6,489.5c-0.2,0-0.3-0.1-0.3-0.3l-56.8-266.1c-1.6-8.2,0.5-16.7,5.9-23.2c5.3-6.5,13.2-10.2,21.6-10.2
				h140.6c13.4,0,24.9,9.5,27.5,22.6l53.2,267.7c0,0.1,0,0.2-0.1,0.3c-0.1,0.1-0.1,0.1-0.2,0.1L995.6,489.5
				C995.6,489.5,995.6,489.5,995.6,489.5z M966,190.4c-8.2,0-15.9,3.6-21.1,10c-5.2,6.3-7.3,14.6-5.7,22.6l56.7,265.8l190.7-9
				l-53.1-267.4c-2.5-12.8-13.8-22.1-26.8-22.1H966z"/>
		</g>
		<g>
			<path class="st1" d="M1009.1,179.6h12.7l-2.3-11.5c-1.3-6.6,3-11.9,9.6-11.9l0,0c6.6,0,13,5.3,14.3,11.9l2.3,11.5h12.5
				c3.7,0,7,2.3,8.4,5.7l4.2,10.7h-68.7l-1.5-4.5C998.7,185.7,1003,179.6,1009.1,179.6z"/>
			<path class="st1" d="M1070.8,196.3h-68.7c-0.1,0-0.3-0.1-0.3-0.2l-1.5-4.5c-1-2.9-0.5-5.9,1.3-8.4c1.8-2.5,4.5-3.9,7.6-3.9h12.3
				l-2.2-11.1c-0.7-3.3,0-6.5,2-8.8c1.9-2.3,4.7-3.5,7.9-3.5c6.7,0,13.3,5.5,14.6,12.2l2.2,11.2h12.2c3.9,0,7.3,2.3,8.7,5.9
				l4.2,10.7c0,0.1,0,0.2,0,0.3C1071,196.3,1070.9,196.3,1070.8,196.3z M1002.4,195.7h67.9l-4-10.2c-1.3-3.3-4.5-5.5-8.1-5.5h-12.5
				c-0.2,0-0.3-0.1-0.3-0.3l-2.3-11.5c-1.3-6.4-7.6-11.7-14-11.7c-3,0-5.7,1.2-7.4,3.3c-1.8,2.2-2.4,5.1-1.8,8.2l2.3,11.5
				c0,0.1,0,0.2-0.1,0.3s-0.2,0.1-0.3,0.1h-12.7c-2.8,0-5.4,1.3-7,3.6c-1.6,2.3-2.1,5.1-1.2,7.8L1002.4,195.7z"/>
		</g>
		<g>
			<path class="st2" d="M1003.8,487.8l191.4-9l-53.2-267.7c-2.5-13-13.9-22.4-27.1-22.4H974.1c-17.4,0-30.5,15.9-27.1,33
				L1003.8,487.8z"/>
			<path class="st1" d="M1003.8,488.1c-0.2,0-0.3-0.1-0.3-0.3l-56.8-266.1c-1.6-8.2,0.5-16.7,5.9-23.2c5.3-6.5,13.2-10.2,21.6-10.2
				h140.6c13.4,0,24.9,9.5,27.5,22.6l53.2,267.7c0,0.1,0,0.2-0.1,0.3c-0.1,0.1-0.1,0.1-0.2,0.1L1003.8,488.1
				C1003.8,488.1,1003.8,488.1,1003.8,488.1z M974.1,189.1c-8.2,0-15.9,3.6-21.1,10c-5.2,6.3-7.3,14.6-5.7,22.6l56.7,265.8l190.7-9
				l-53.1-267.4c-2.5-12.8-13.8-22.1-26.8-22.1H974.1z"/>
		</g>
		<g>
			<ellipse class="st2" cx="1112.7" cy="243.8" rx="14.6" ry="12.6"/>
			<path class="st1" d="M1112.7,256.7c-8.2,0-14.9-5.8-14.9-12.9s6.7-12.9,14.9-12.9s14.9,5.8,14.9,12.9S1121,256.7,1112.7,256.7z
				 M1112.7,231.5c-7.9,0-14.2,5.5-14.2,12.3s6.4,12.3,14.2,12.3c7.9,0,14.2-5.5,14.2-12.3S1120.6,231.5,1112.7,231.5z"/>
		</g>
		<g>
			<ellipse class="st1" cx="1118.9" cy="274.2" rx="14.6" ry="12.6"/>
			<path class="st1" d="M1118.9,287.1c-8.2,0-14.9-5.8-14.9-12.9s6.7-12.9,14.9-12.9c8.2,0,14.9,5.8,14.9,12.9
				S1127.1,287.1,1118.9,287.1z M1118.9,261.9c-7.9,0-14.2,5.5-14.2,12.3s6.4,12.3,14.2,12.3s14.2-5.5,14.2-12.3
				S1126.8,261.9,1118.9,261.9z"/>
		</g>
		<g>
			<ellipse class="st2" cx="1125.1" cy="303.1" rx="14.6" ry="12.6"/>
			<path class="st1" d="M1125.1,316.1c-8.2,0-14.9-5.8-14.9-12.9s6.7-12.9,14.9-12.9s14.9,5.8,14.9,12.9S1133.3,316.1,1125.1,316.1z
				 M1125.1,290.9c-7.9,0-14.2,5.5-14.2,12.3c0,6.8,6.4,12.3,14.2,12.3c7.9,0,14.2-5.5,14.2-12.3
				C1139.3,296.4,1132.9,290.9,1125.1,290.9z"/>
		</g>
		<g>
			<ellipse class="st2" cx="1130.3" cy="331.4" rx="14.6" ry="12.6"/>
			<path class="st1" d="M1130.3,344.4c-8.2,0-14.9-5.8-14.9-12.9s6.7-12.9,14.9-12.9c8.2,0,14.9,5.8,14.9,12.9
				S1138.5,344.4,1130.3,344.4z M1130.3,319.2c-7.9,0-14.2,5.5-14.2,12.3c0,6.8,6.4,12.3,14.2,12.3s14.2-5.5,14.2-12.3
				C1144.5,324.7,1138.1,319.2,1130.3,319.2z"/>
		</g>
		<g>
			<ellipse class="st2" cx="1137.4" cy="364.4" rx="14.6" ry="12.6"/>
			<path class="st1" d="M1137.4,377.3c-8.2,0-14.9-5.8-14.9-12.9s6.7-12.9,14.9-12.9s14.9,5.8,14.9,12.9S1145.7,377.3,1137.4,377.3z
				 M1137.4,352.1c-7.9,0-14.2,5.5-14.2,12.3s6.4,12.3,14.2,12.3c7.9,0,14.2-5.5,14.2-12.3S1145.3,352.1,1137.4,352.1z"/>
		</g>
		<g>
			<ellipse class="st2" cx="1142.9" cy="395" rx="14.6" ry="12.6"/>
			<path class="st1" d="M1142.9,407.9c-8.2,0-14.9-5.8-14.9-12.9s6.7-12.9,14.9-12.9c8.2,0,14.9,5.8,14.9,12.9
				S1151.1,407.9,1142.9,407.9z M1142.9,382.7c-7.9,0-14.2,5.5-14.2,12.3s6.4,12.3,14.2,12.3c7.9,0,14.2-5.5,14.2-12.3
				S1150.7,382.7,1142.9,382.7z"/>
		</g>
		<g>
			<ellipse class="st2" cx="1150.9" cy="424.6" rx="14.6" ry="12.6"/>
			<path class="st1" d="M1150.9,437.6c-8.2,0-14.9-5.8-14.9-12.9c0-7.1,6.7-12.9,14.9-12.9c8.2,0,14.9,5.8,14.9,12.9
				C1165.8,431.8,1159.2,437.6,1150.9,437.6z M1150.9,412.4c-7.9,0-14.2,5.5-14.2,12.3c0,6.8,6.4,12.3,14.2,12.3
				c7.9,0,14.2-5.5,14.2-12.3C1165.2,417.9,1158.8,412.4,1150.9,412.4z"/>
		</g>
		<g>
			<g>
				<g>
					<polygon class="st2" points="1098.2,309.2 992.6,309.2 990.5,300 1096.1,300 					"/>
				</g>
				<g>
					<polygon class="st2" points="1104.3,339.6 998.8,339.6 996.7,330.5 1102.3,330.5 					"/>
				</g>
				<g>
					<polygon class="st2" points="1110.5,370 1005,370 1002.9,360.9 1107.7,360.9 					"/>
				</g>
				<g>
					<polygon class="st2" points="1116.7,400.4 1011.1,400.4 1009.1,391.3 1114.6,391.3 					"/>
				</g>
				<g>
					<polygon class="st2" points="1124.6,429.6 1019,429.6 1017,420.4 1122.5,420.4 					"/>
				</g>
			</g>
			<g>
				<g>
					<polygon class="st2" points="1098.2,309.2 992.6,309.2 990.5,300 1096.1,300 					"/>
					<path class="st1" d="M1098.2,309.5H992.6c-0.2,0-0.3-0.1-0.3-0.3l-2.1-9.2c0-0.1,0-0.2,0.1-0.3c0.1-0.1,0.2-0.1,0.3-0.1h105.5
						c0.2,0,0.3,0.1,0.3,0.3l2.1,9.2c0,0.1,0,0.2-0.1,0.3C1098.4,309.5,1098.3,309.5,1098.2,309.5z M992.9,308.9h104.9l-1.9-8.5H991
						L992.9,308.9z"/>
				</g>
				<g>
					<polygon class="st3" points="1104.3,339.6 998.8,339.6 996.7,330.5 1102.3,330.5 					"/>
					<path class="st1" d="M1104.3,339.9H998.8c-0.2,0-0.3-0.1-0.3-0.3l-2.1-9.2c0-0.1,0-0.2,0.1-0.3c0.1-0.1,0.2-0.1,0.3-0.1h105.5
						c0.2,0,0.3,0.1,0.3,0.3l2.1,9.2c0,0.1,0,0.2-0.1,0.3C1104.5,339.9,1104.4,339.9,1104.3,339.9z M999.1,339.3h104.9l-1.9-8.5
						H997.1L999.1,339.3z"/>
				</g>
				<g>
					<polygon class="st2" points="1110.5,370 1005,370 1002.9,360.9 1107.7,360.9 					"/>
					<path class="st1" d="M1110.5,370.4H1005c-0.2,0-0.3-0.1-0.3-0.3l-2.1-9.2c0-0.1,0-0.2,0.1-0.3c0.1-0.1,0.2-0.1,0.3-0.1h104.8
						c0.1,0,0.3,0.1,0.3,0.2l2.8,9.2c0,0.1,0,0.2,0,0.3C1110.7,370.3,1110.6,370.4,1110.5,370.4z M1005.2,369.7h104.8l-2.6-8.5
						h-104.1L1005.2,369.7z"/>
				</g>
				<g>
					<polygon class="st3" points="1116.7,400.4 1011.1,400.4 1009.1,391.3 1114.6,391.3 					"/>
					<path class="st1" d="M1116.7,400.8h-105.5c-0.2,0-0.3-0.1-0.3-0.3l-2.1-9.2c0-0.1,0-0.2,0.1-0.3s0.2-0.1,0.3-0.1h105.5
						c0.2,0,0.3,0.1,0.3,0.3l2.1,9.2c0,0.1,0,0.2-0.1,0.3S1116.8,400.8,1116.7,400.8z M1011.4,400.1h104.9l-1.9-8.5h-104.9
						L1011.4,400.1z"/>
				</g>
				<g>
					<polygon class="st2" points="1124.6,429.6 1019,429.6 1017,420.4 1122.5,420.4 					"/>
					<path class="st1" d="M1124.6,429.9H1019c-0.2,0-0.3-0.1-0.3-0.3l-2.1-9.2c0-0.1,0-0.2,0.1-0.3s0.2-0.1,0.3-0.1h105.5
						c0.2,0,0.3,0.1,0.3,0.3l2.1,9.2c0,0.1,0,0.2-0.1,0.3S1124.7,429.9,1124.6,429.9z M1019.3,429.3h104.9l-1.9-8.5h-104.9
						L1019.3,429.3z"/>
				</g>
			</g>
			<g>
				<g>
					<path class="st1" d="M1098.2,309.5H992.6c-0.2,0-0.3-0.1-0.3-0.3l-2.1-9.2c0-0.1,0-0.2,0.1-0.3c0.1-0.1,0.2-0.1,0.3-0.1h105.5
						c0.2,0,0.3,0.1,0.3,0.3l2.1,9.2c0,0.1,0,0.2-0.1,0.3C1098.4,309.5,1098.3,309.5,1098.2,309.5z M992.9,308.9h104.9l-1.9-8.5H991
						L992.9,308.9z"/>
				</g>
				<g>
					<path class="st1" d="M1104.3,339.9H998.8c-0.2,0-0.3-0.1-0.3-0.3l-2.1-9.2c0-0.1,0-0.2,0.1-0.3c0.1-0.1,0.2-0.1,0.3-0.1h105.5
						c0.2,0,0.3,0.1,0.3,0.3l2.1,9.2c0,0.1,0,0.2-0.1,0.3C1104.5,339.9,1104.4,339.9,1104.3,339.9z M999.1,339.3h104.9l-1.9-8.5
						H997.1L999.1,339.3z"/>
				</g>
				<g>
					<path class="st1" d="M1110.5,370.4H1005c-0.2,0-0.3-0.1-0.3-0.3l-2.1-9.2c0-0.1,0-0.2,0.1-0.3c0.1-0.1,0.2-0.1,0.3-0.1h104.8
						c0.1,0,0.3,0.1,0.3,0.2l2.8,9.2c0,0.1,0,0.2,0,0.3C1110.7,370.3,1110.6,370.4,1110.5,370.4z M1005.2,369.7h104.8l-2.6-8.5
						h-104.1L1005.2,369.7z"/>
				</g>
				<g>
					<path class="st1" d="M1116.7,400.8h-105.5c-0.2,0-0.3-0.1-0.3-0.3l-2.1-9.2c0-0.1,0-0.2,0.1-0.3s0.2-0.1,0.3-0.1h105.5
						c0.2,0,0.3,0.1,0.3,0.3l2.1,9.2c0,0.1,0,0.2-0.1,0.3S1116.8,400.8,1116.7,400.8z M1011.4,400.1h104.9l-1.9-8.5h-104.9
						L1011.4,400.1z"/>
				</g>
				<g>
					<path class="st1" d="M1124.6,429.9H1019c-0.2,0-0.3-0.1-0.3-0.3l-2.1-9.2c0-0.1,0-0.2,0.1-0.3s0.2-0.1,0.3-0.1h105.5
						c0.2,0,0.3,0.1,0.3,0.3l2.1,9.2c0,0.1,0,0.2-0.1,0.3S1124.7,429.9,1124.6,429.9z M1019.3,429.3h104.9l-1.9-8.5h-104.9
						L1019.3,429.3z"/>
				</g>
			</g>
		</g>
		<g>
			<path class="st2" d="M1012.8,179.6h12.7l-2.3-11.5c-1.3-6.6,3-11.9,9.6-11.9l0,0c6.6,0,13,5.3,14.3,11.9l2.3,11.5h12.5
				c3.7,0,7,2.3,8.4,5.7l4.2,10.7h-68.7l-1.5-4.5C1002.3,185.7,1006.6,179.6,1012.8,179.6z"/>
			<path class="st1" d="M1074.4,196.3h-68.7c-0.1,0-0.3-0.1-0.3-0.2l-1.5-4.5c-1-2.9-0.5-5.9,1.3-8.4c1.8-2.5,4.5-3.9,7.6-3.9h12.3
				l-2.2-11.1c-0.7-3.3,0-6.5,2-8.8c1.9-2.3,4.7-3.5,7.9-3.5c6.7,0,13.3,5.5,14.6,12.2l2.2,11.2h12.2c3.9,0,7.3,2.3,8.7,5.9
				l4.2,10.7c0,0.1,0,0.2,0,0.3C1074.6,196.3,1074.5,196.3,1074.4,196.3z M1006,195.7h67.9l-4-10.2c-1.3-3.3-4.5-5.5-8.1-5.5h-12.5
				c-0.2,0-0.3-0.1-0.3-0.3l-2.3-11.5c-1.3-6.4-7.6-11.7-14-11.7c-3,0-5.7,1.2-7.4,3.3c-1.8,2.2-2.4,5.1-1.8,8.2l2.3,11.5
				c0,0.1,0,0.2-0.1,0.3c-0.1,0.1-0.2,0.1-0.3,0.1h-12.7c-2.8,0-5.4,1.3-7,3.6c-1.6,2.3-2.1,5.1-1.2,7.8L1006,195.7z"/>
		</g>
		<g>
			<circle class="st1" cx="1034.6" cy="167.2" r="4.5"/>
			<path class="st1" d="M1034.6,172.1c-2.7,0-4.9-2.2-4.9-4.9s2.2-4.9,4.9-4.9c2.7,0,4.9,2.2,4.9,4.9S1037.2,172.1,1034.6,172.1z
				 M1034.6,163c-2.3,0-4.2,1.9-4.2,4.2s1.9,4.2,4.2,4.2c2.3,0,4.2-1.9,4.2-4.2S1036.9,163,1034.6,163z"/>
		</g>
	</g>
	<g>
		<g>
			<path class="st1" d="M1486.6,284c-0.1,0-0.2,0-0.3-0.1c-0.1-0.1-0.2-0.3-0.2-0.4l1.5-26.5c0-0.2,0.1-0.3,0.3-0.4
				c0.2-0.1,0.3-0.1,0.5,0l22.2,14.6c0.1,0.1,0.2,0.3,0.2,0.4c0,0.2-0.1,0.3-0.3,0.4l-23.7,11.9C1486.7,284,1486.7,284,1486.6,284z
				 M1488.6,257.9l-1.4,24.8l22.2-11.2L1488.6,257.9z"/>
		</g>
		<g>
			<polygon class="st4" points="1426.9,249.8 1410.4,252.6 1393.9,255.5 1399.7,239.8 1405.5,224 1416.2,236.9 			"/>
			<path class="st1" d="M1393.9,255.8c-0.1,0-0.2,0-0.3-0.1c-0.1-0.1-0.1-0.2-0.1-0.3l11.6-31.4c0-0.1,0.1-0.2,0.3-0.2
				c0.1,0,0.2,0,0.3,0.1l21.4,25.7c0.1,0.1,0.1,0.2,0.1,0.3c0,0.1-0.1,0.2-0.3,0.2L1393.9,255.8
				C1394,255.8,1393.9,255.8,1393.9,255.8z M1405.6,224.7l-11.2,30.4l31.9-5.5L1405.6,224.7z"/>
		</g>
	</g>
	<g>
		<path class="st2" d="M1486.5,500.7c0-12.3-159.2-22.2-355.7-22.2s-355.7,9.9-355.7,22.2c0,7.1,53.7,13.5,137.2,17.5
			c-2,1.5-3.1,3.1-3.1,4.7c0,16.3,110.1,29.5,246,29.5s246-13.2,246-29.5c0-2.5-2.6-4.9-7.5-7.3
			C1451.3,511.7,1486.5,506.4,1486.5,500.7z"/>
		<path class="st1" d="M1155.3,552.7c-65.7,0-127.5-3.1-174-8.7c-46.7-5.6-72.4-13.1-72.4-21.2c0-1.5,0.9-3,2.6-4.4
			c-41.4-2-75.6-4.6-99-7.6c-25-3.1-37.7-6.6-37.7-10.2c0-7.9,56.9-13,104.6-16c67.2-4.2,156.5-6.5,251.5-6.5
			c95,0,184.3,2.3,251.5,6.5c47.7,3,104.6,8.2,104.6,16c0,7.3-49.7,12.3-91.9,15.2c4.4,2.3,6.6,4.6,6.6,7c0,8.1-25.7,15.6-72.4,21.2
			C1282.8,549.7,1221,552.7,1155.3,552.7z M1130.8,478.8c-95,0-184.3,2.3-251.4,6.5c-32.6,2-58.3,4.4-76.2,7.1
			c-22.8,3.4-27.6,6.4-27.6,8.3c0,2.3,6.4,5.8,36.9,9.6c23.6,2.9,58.1,5.6,99.9,7.6c0.2,0,0.3,0.1,0.4,0.2c0.1,0.1,0,0.3-0.1,0.3
			c-2,1.5-2.9,3-2.9,4.5c0,7.6,26.1,15.1,71.6,20.6c46.4,5.6,108.2,8.6,173.8,8.6s127.4-3.1,173.8-8.6c45.5-5.5,71.6-13,71.6-20.6
			c0-2.3-2.4-4.7-7.3-7c-0.2-0.1-0.2-0.2-0.2-0.4c0-0.1,0.2-0.2,0.4-0.2c58.7-4,92.3-9.3,92.3-14.6c0-1.9-4.8-5-27.6-8.3
			c-17.9-2.6-43.5-5-76.2-7.1C1315.1,481.1,1225.8,478.8,1130.8,478.8z"/>
	</g>
	<g>
		<g>
			<path class="st2" d="M1166.9,487.3c0.1-0.8,0.1-1.5,0.1-2c0.4-3.8,2.6-8.1,2.6-8.1l-11.5-2c0,0-4,4-9.3,7.6
				C1154.1,486.8,1160.7,488.5,1166.9,487.3z"/>
			<path class="st1" d="M1162.9,488c-5,0-10.2-1.7-14.3-4.9c-0.1-0.1-0.1-0.2-0.1-0.3c0-0.1,0.1-0.2,0.1-0.3
				c5.2-3.5,9.2-7.5,9.2-7.6c0.1-0.1,0.2-0.1,0.3-0.1l11.5,2c0.1,0,0.2,0.1,0.2,0.2c0,0.1,0,0.2,0,0.3c0,0-2.2,4.3-2.5,8
				c0,0.4-0.1,1.1-0.1,1.9c0,0.1-0.1,0.3-0.3,0.3C1165.7,487.9,1164.3,488,1162.9,488z M1149.4,482.8c5,3.7,11.4,5.2,17.2,4.2
				c0.1-0.7,0.1-1.3,0.1-1.7c0.3-3.2,1.8-6.7,2.4-7.8l-10.9-1.9C1157.5,476.3,1153.9,479.7,1149.4,482.8z M1166.9,487.3
				L1166.9,487.3L1166.9,487.3z"/>
		</g>
		<g>
			<path class="st1" d="M1148.9,482.8c-3.6,2.5-7.8,4.7-11.7,5.3c-9.7,1.8-14.5,10.3-14.5,10.3s-0.7,3,0,3.7
				c26.9,0.2,43.5-2.1,43.5-2.1s0.5-8.4,0.8-12.8C1160.7,488.5,1154.1,486.8,1148.9,482.8z"/>
			<path class="st1" d="M1126.4,502.5c-1.2,0-2.5,0-3.7,0c-0.1,0-0.2,0-0.2-0.1c-0.8-0.8-0.2-3.5-0.1-4c0,0,0-0.1,0-0.1
				c0-0.1,5-8.7,14.7-10.5c3.3-0.5,7.2-2.2,11.5-5.2c0.1-0.1,0.3-0.1,0.4,0c5.1,3.9,11.8,5.6,17.8,4.4c0.1,0,0.2,0,0.3,0.1
				c0.1,0.1,0.1,0.2,0.1,0.3c-0.3,4.3-0.8,12.7-0.8,12.8c0,0.2-0.1,0.3-0.3,0.3C1166.1,500.4,1150.9,502.5,1126.4,502.5z
				 M1122.9,501.8c24.6,0.2,40.7-1.7,43-2c0.1-1.4,0.5-8.1,0.7-12.1c-6,1.1-12.6-0.6-17.7-4.5c-4.4,3-8.3,4.7-11.6,5.2
				c-9.1,1.7-13.9,9.5-14.2,10.1C1122.8,499.6,1122.6,501.3,1122.9,501.8z"/>
		</g>
		<g>
			<path class="st2" d="M1241.8,417.5c0,0-37.1-38.3-53.2-29.7c-16.1,8.6-33.8,89.1-33.8,89.1s11,5.9,15.5,4.5
				c19.3-23.8,26.9-41.8,31.4-50.4c8.6,15.5,33.2,37.6,61.8,17.3c28.6-20.4,19.7-32.4,19.7-32.4L1241.8,417.5z"/>
			<path class="st1" d="M1168.7,481.9c-5.1,0-13.7-4.5-14.1-4.7c-0.1-0.1-0.2-0.2-0.2-0.4c0-0.2,4.5-20.4,10.9-41.3
				c8.6-28.2,16.3-44.3,23.1-48c6.8-3.6,17.9,0.3,33,11.6c11.2,8.4,20.5,18,20.6,18.1c0.1,0.1,0.1,0.3,0,0.5c-0.1,0.1-0.3,0.1-0.5,0
				c-0.4-0.4-37.2-38-52.9-29.6c-15.3,8.2-32.5,83.6-33.6,88.6c1.6,0.8,10.9,5.5,15,4.4c16.4-20.3,24.4-36.3,29.1-45.9
				c0.8-1.7,1.5-3.1,2.2-4.4c0.1-0.1,0.2-0.2,0.3-0.2c0.1,0,0.2,0.1,0.3,0.2c5.1,9.2,16.2,21.2,30.6,24.4
				c10.3,2.3,20.7-0.1,30.8-7.3c15.6-11.1,19.8-19.6,20.7-24.8c0.7-4.6-1.1-7.1-1.1-7.1c-0.1-0.1-0.1-0.4,0.1-0.5
				c0.1-0.1,0.4-0.1,0.5,0.1c0.1,0.1,2,2.7,1.2,7.6c-0.8,5.4-5.2,14.1-21,25.3c-10.2,7.3-20.8,9.8-31.3,7.4
				c-14.3-3.2-25.4-14.9-30.7-24.2c-0.6,1.1-1.2,2.4-1.9,3.8c-4.8,9.6-12.8,25.8-29.3,46.1c0,0.1-0.1,0.1-0.2,0.1
				C1169.9,481.8,1169.3,481.9,1168.7,481.9z"/>
		</g>
	</g>
	<g>
		<g>
			<path class="st2" d="M1301.3,499.5c-0.2-1.3-1-2.2-2-2.9c-3.1,1-5.9,0.5-5.9,0.5s-6,7.9-0.8,11c2.1-0.4,5.3,0.6,8.9,2.2
				C1302.9,507.3,1301.8,502.9,1301.3,499.5z"/>
			<path class="st1" d="M1301.6,510.6c0,0-0.1,0-0.1,0c-4.2-1.8-6.9-2.5-8.7-2.1c-0.1,0-0.2,0-0.2,0c-1.2-0.7-1.9-1.7-2.2-3
				c-0.7-3.7,2.7-8.3,2.9-8.5c0.1-0.1,0.2-0.1,0.3-0.1c0,0,2.8,0.5,5.7-0.5c0.1,0,0.2,0,0.3,0c1.2,0.9,1.9,1.9,2.1,3.1l0,0
				c0.1,0.6,0.2,1.2,0.3,1.9c0.5,3,1.1,6.5,0,9.1c0,0.1-0.1,0.1-0.2,0.2C1301.7,510.6,1301.7,510.6,1301.6,510.6z M1293.7,507.7
				c1.8,0,4.3,0.7,7.7,2.2c0.9-2.4,0.3-5.6-0.1-8.4c-0.1-0.7-0.2-1.3-0.3-1.9c-0.1-1-0.7-1.8-1.7-2.6c-2.6,0.8-5,0.6-5.7,0.5
				c-0.6,0.8-3.2,4.8-2.6,7.8c0.2,1.1,0.8,1.9,1.8,2.5C1293,507.7,1293.4,507.7,1293.7,507.7z"/>
		</g>
		<g>
			<path class="st1" d="M1344.2,516.4c-0.6-1.1-5.9-2.5-12-6.7c-9.1-6.2-20.6-15.9-27.1-17.9c-1.5,2.7-3.7,4.1-5.7,4.8
				c1,0.7,1.8,1.6,2,2.9c0.5,3.4,1.6,7.7,0.3,10.8c7.2,3.1,16.1,8.6,22.7,10.4C1334.2,523.3,1345.6,519.2,1344.2,516.4z"/>
			<path class="st1" d="M1331,521.9c-2.3,0-4.6-0.3-6.8-0.9c-4.2-1.1-9.4-3.8-14.5-6.4c-2.9-1.5-5.7-2.9-8.3-4
				c-0.2-0.1-0.2-0.3-0.2-0.4c1-2.4,0.5-5.7,0-8.7c-0.1-0.7-0.2-1.3-0.3-1.9c-0.1-1-0.7-1.9-1.8-2.7c-0.1-0.1-0.2-0.2-0.1-0.3
				c0-0.1,0.1-0.2,0.2-0.3c2.4-0.8,4.3-2.4,5.5-4.6c0.1-0.1,0.2-0.2,0.4-0.2c4.6,1.4,11.8,6.7,18.7,11.8c2.9,2.1,5.8,4.3,8.5,6.1
				c3.4,2.3,6.5,3.8,8.8,4.8c1.9,0.9,3,1.4,3.3,2l0,0c0.2,0.4,0.3,1-0.3,1.8C1342.6,520,1337.1,521.9,1331,521.9z M1302,510.1
				c2.5,1.1,5.2,2.5,8,3.9c5,2.6,10.2,5.2,14.3,6.3c8.5,2.3,17.5-0.5,19.3-2.7c0.5-0.6,0.3-1,0.3-1.1c-0.2-0.4-1.5-1-3-1.7
				c-2.3-1.1-5.4-2.5-8.9-4.9c-2.7-1.8-5.6-4-8.5-6.1c-6.8-5-13.7-10.2-18.2-11.7c-1.2,2.1-3,3.6-5.2,4.5c0.9,0.8,1.5,1.7,1.6,2.7
				c0.1,0.6,0.2,1.2,0.3,1.9C1302.4,504.3,1303,507.6,1302,510.1z"/>
		</g>
		<g>
			<path class="st2" d="M1244.6,431.2c0,0-77.3,36.2-75.2,70c2.1,33.8,129,8.4,129,8.4l-4.1-12.8c0,0-45.2-16.4-88.7-5
				c31.4-10.3,70.5-0.5,83.5-16.5c19.5-23.9-6.3-47.3-6.3-47.3L1244.6,431.2z"/>
			<path class="st1" d="M1215.7,519.1c-4,0-7.8-0.1-11.4-0.3c-14.2-0.9-24.2-3.5-29.8-7.8c-3.4-2.6-5.2-5.9-5.5-9.7
				c-0.5-7.8,3.2-16.4,11-25.4c6.2-7.2,14.9-14.8,26-22.5c18.9-13.1,38.2-22.3,38.4-22.4c0,0,0.1,0,0.1,0l38.3-3.1
				c0.1,0,0.2,0,0.2,0.1c0.1,0.1,6.5,6,10.5,14.8c3.7,8.1,6,20.5-4.2,32.9c-7.5,9.2-23.3,10-41.6,10.8c-8.3,0.4-17.3,0.8-26.1,2.1
				c16.9-2,33-0.6,44.6,1.3c16.6,2.6,28,6.7,28.1,6.8c0.1,0,0.2,0.1,0.2,0.2l4.1,12.8c0,0.1,0,0.2,0,0.3c0,0.1-0.1,0.1-0.2,0.2
				c-0.2,0-25.2,5-52.7,7.6C1234.6,518.6,1224.6,519.1,1215.7,519.1z M1244.7,431.5c-1.1,0.5-20,9.5-38.3,22.3
				c-11,7.7-19.8,15.2-25.9,22.4c-7.6,8.9-11.3,17.3-10.8,25c0.2,3.6,2,6.8,5.2,9.2c9.9,7.6,34.4,9.9,70.8,6.5
				c25.7-2.4,49.1-6.9,52.3-7.5l-4-12.3c-1.4-0.5-12.4-4.2-27.8-6.7c-15.2-2.4-38.1-4.1-60.5,1.8c-0.2,0-0.4-0.1-0.4-0.2
				c-0.1-0.2,0-0.4,0.2-0.4c13.6-4.5,28.8-5.2,42.3-5.8c18.1-0.9,33.8-1.6,41.1-10.6c8-9.8,9.4-20.6,4.2-32.2
				c-3.7-8.1-9.4-13.7-10.3-14.5L1244.7,431.5z"/>
		</g>
		<g>
			<path class="st1" d="M1237.6,434.7l-2,1.1c0,0,1.7,13,22.6,11.9c20.9-1.1,34.4-5.7,34.4-5.7l-2-4.4L1237.6,434.7z"/>
			<path class="st1" d="M1255.7,448c-9.3,0-14.4-3-17-5.7c-3.1-3.1-3.5-6.4-3.5-6.5c0-0.1,0.1-0.3,0.2-0.3l2-1.1c0.1,0,0.1,0,0.2,0
				l53,2.9c0.1,0,0.2,0.1,0.3,0.2l2,4.4c0,0.1,0,0.2,0,0.3c0,0.1-0.1,0.2-0.2,0.2c-0.1,0-13.8,4.6-34.5,5.7
				C1257.3,448,1256.5,448,1255.7,448z M1235.9,435.9c0.2,0.8,0.9,3.4,3.4,6c2.7,2.8,8.2,5.9,18.9,5.4c18.8-1,31.7-4.9,34-5.6
				l-1.8-3.9l-52.7-2.9L1235.9,435.9z"/>
		</g>
		<g>
			<path class="st2" d="M1145.4,329.9c0.8,0,1.5-0.1,2.3-0.2c-1.9-6-3.3-11.1-4.2-13.2c-3-6.2-14.3-17.2-14.3-17.2s-1.3,3,0.8,5.1
				c2.1,2.1,5.1,9,5.1,9s-12.7,2.1-10.6,9.9c2.1,7.8,8.5,4.1,9.2,0.5c0,0,1.1,5.4,3.1,12.8C1138.6,333.2,1141.1,330.4,1145.4,329.9z
				"/>
			<path class="st1" d="M1136.7,336.8C1136.7,336.8,1136.7,336.8,1136.7,336.8c-0.2,0-0.3-0.1-0.3-0.2c-1.4-5.3-2.4-9.7-2.8-11.7
				c-0.9,1.8-2.8,3.2-4.6,3.2c-1.3,0-3.7-0.5-4.8-4.9c-0.5-1.8-0.2-3.5,0.7-4.9c2.3-3.6,8.1-4.9,9.7-5.3c-0.7-1.5-3.1-6.8-4.8-8.5
				c-2.2-2.2-0.9-5.3-0.8-5.4c0-0.1,0.1-0.2,0.2-0.2c0.1,0,0.2,0,0.3,0.1c0.5,0.5,11.4,11.2,14.4,17.3c0.7,1.4,1.5,4.2,2.6,7.7
				c0.5,1.7,1.1,3.6,1.7,5.5c0,0.1,0,0.2,0,0.3c-0.1,0.1-0.1,0.1-0.2,0.1c-0.7,0.1-1.5,0.2-2.3,0.2c-3.5,0.4-6.1,2.4-8.5,6.4
				C1136.9,336.8,1136.8,336.8,1136.7,336.8z M1133.6,323.3c0.2,0,0.3,0.1,0.3,0.3c0,0.1,1,5.1,2.9,12.1c1.7-2.7,4.1-5.6,8.6-6.1
				c0,0,0,0,0,0c0.6,0,1.3-0.1,1.9-0.2c-0.6-1.8-1.1-3.6-1.6-5.1c-1-3.5-1.9-6.2-2.5-7.6c-2.6-5.5-11.9-14.8-13.9-16.8
				c-0.3,0.9-0.6,2.8,0.9,4.2c2.1,2.1,5,8.8,5.1,9.1c0,0.1,0,0.2,0,0.3c0,0.1-0.1,0.2-0.2,0.2c-0.1,0-7.2,1.2-9.7,5.1
				c-0.8,1.3-1.1,2.8-0.6,4.4c0.8,2.9,2.2,4.4,4.1,4.4c1.9-0.1,4-1.9,4.4-3.9C1133.3,323.4,1133.5,323.3,1133.6,323.3
				C1133.6,323.3,1133.6,323.3,1133.6,323.3z"/>
		</g>
		<g>
			<path class="st2" d="M1316.9,432.3c1.3,5.1,1,8.4,1,8.4s-0.5,3-2.8,3.7c-2.3,0.7-3.6,5.6-3.2,8.4c0.2,1.7,0.2,5.3,3.3,5.9
				c2.1,0.4,7.2-1.3,8.5-2.6c1.7-1.7,2.4-13.4,2.3-25.5c-1,0.7-2,1.2-3.1,1.7C1320.9,433,1319.1,433.3,1316.9,432.3z"/>
			<path class="st1" d="M1315.9,459.1c-0.3,0-0.5,0-0.8-0.1c-3-0.6-3.3-3.7-3.5-5.6c0-0.2,0-0.4-0.1-0.6c-0.4-3,1-8.1,3.5-8.8
				c2.1-0.6,2.5-3.4,2.5-3.4c0,0,0.3-3.3-1-8.3c0-0.1,0-0.3,0.1-0.3c0.1-0.1,0.2-0.1,0.4,0c2.1,1,3.8,0.7,5.7-0.1c1-0.4,2.1-1,3-1.6
				c0.1-0.1,0.2-0.1,0.3,0c0.1,0.1,0.2,0.2,0.2,0.3c0.1,10.7-0.5,23.8-2.4,25.8C1322.7,457.5,1318.3,459.1,1315.9,459.1z
				 M1317.4,432.8c1.1,4.7,0.8,7.7,0.8,7.9c0,0.2-0.5,3.3-3,4c-2.1,0.6-3.3,5.3-3,8.1c0,0.2,0,0.4,0.1,0.6c0.2,1.8,0.4,4.5,3,5
				c1.9,0.4,7-1.3,8.2-2.5c1.4-1.4,2.3-11.7,2.2-24.7c-0.9,0.5-1.7,1-2.6,1.4C1321.1,433.3,1319.4,433.6,1317.4,432.8z"/>
		</g>
		<g>
			<path class="st4" d="M1319.8,399c-0.2-0.3-0.6-0.9-1.2-1.7c-0.1-0.1-0.1-0.2-0.2-0.3c-5.3-7.4-22.8-30.8-22.8-30.8
				s-20.5-25.5-34.3-23.9l-2.8,16.6c0,0,47.1,49.5,48.9,51.8c3.7,4.5,7,16.1,9.1,24.2c2.2,1.1,5,1.2,7,0.4c1.1-0.4,2.1-1,3.1-1.7
				c-0.1-10.6-0.9-21.5-2.3-26.4C1323.7,405.2,1322.1,402.3,1319.8,399z"/>
			<path class="st1" d="M1320.6,436.1c-1.4,0-2.9-0.3-4.2-0.9c-0.1,0-0.2-0.1-0.2-0.2c-2.1-8.6-5.4-19.7-9-24.1
				c-1.8-2.2-48.4-51.3-48.9-51.8c-0.1-0.1-0.1-0.2-0.1-0.3l2.8-16.6c0-0.1,0.1-0.3,0.3-0.3c13.8-1.6,33.7,23,34.6,24
				c0.2,0.2,17.5,23.5,22.8,30.8l0.2,0.3c0.6,0.9,1,1.4,1.2,1.7c2.5,3.6,4,6.4,4.6,8.2c1.6,5.4,2.2,17.2,2.3,26.5
				c0,0.1-0.1,0.2-0.1,0.3c-1,0.7-2.1,1.3-3.2,1.7C1322.7,435.9,1321.7,436.1,1320.6,436.1z M1316.8,434.6c2,0.9,4.7,1.1,6.6,0.3
				c1-0.4,2-0.9,2.9-1.5c-0.1-11.7-1-21.7-2.3-26.2c-0.5-1.8-2-4.5-4.5-8c0,0,0,0,0,0c-0.2-0.3-0.6-0.8-1.2-1.7l-0.2-0.3
				c-5.3-7.3-22.6-30.6-22.8-30.8c-0.2-0.2-20.3-25.1-33.7-23.8l-2.7,16.1c3.1,3.3,47.1,49.5,48.8,51.7
				C1311.4,414.9,1314.7,426,1316.8,434.6z"/>
		</g>
		<g>
			<path class="st2" d="M1225.7,300.8c0,0-8.8,27.4,5.3,33.6c2.7,0.2,4.6-1,5.7-1.6c5,3.9,3.2,13.6,3.3,13.8
				c1.7,5.5,21.7,1.2,20.2-3.4c0,0-1.2-5.9-3.1-13c-1.1-4.3-0.1-9.5-1.7-13.7c-1-2.8-4.6-4.8-5.7-6.8
				C1244,300,1230.9,294.2,1225.7,300.8z"/>
			<path class="st1" d="M1246.4,349.6c-3.3,0-6.1-0.8-6.7-2.8c0-0.1,0-0.2,0-0.7c0.7-6.3-0.4-10.7-3-12.9c-1.1,0.6-3.1,1.7-5.7,1.5
				c0,0-0.1,0-0.1,0c-5.9-2.6-8.7-9.3-8.2-19.5c0.4-7.6,2.6-14.5,2.7-14.6c0,0,0-0.1,0.1-0.1c1.7-2.1,4.2-3.1,7.4-2.9
				c6.2,0.4,13.4,5.4,17.2,11.9c0.5,0.8,1.3,1.6,2.2,2.4c1.3,1.3,2.9,2.7,3.5,4.4c0.9,2.3,1,5,1,7.5c0.1,2.1,0.1,4.3,0.7,6.2
				c1.8,6.9,3,12.7,3.1,13c0.6,1.8-1.7,3.8-6,5.1C1252.1,349,1249.1,349.6,1246.4,349.6z M1240.3,346.6c1,2.9,8.2,2.9,14.1,1
				c3.8-1.2,6-2.9,5.5-4.3c0,0,0,0,0,0c0-0.1-1.2-6-3.1-13c-0.5-2-0.6-4.2-0.7-6.3c-0.1-2.5-0.2-5.1-1-7.3c-0.6-1.6-2.1-2.9-3.3-4.1
				c-1-0.9-1.8-1.7-2.3-2.6c-3.7-6.3-10.7-11.2-16.7-11.6c-2.9-0.2-5.2,0.7-6.8,2.6c-0.4,1.4-8.3,27.2,5.1,33.2
				c2.4,0.1,4.1-0.8,5.3-1.5l0.2-0.1c0.1-0.1,0.3-0.1,0.4,0c3,2.3,4.1,6.9,3.4,13.6C1240.3,346.3,1240.3,346.5,1240.3,346.6z"/>
		</g>
		<g>
			<path class="st4" d="M1284.2,377.1c4.1,23.7,8.6,57.7,8.4,60.5c-0.5,4.8-17.9,8.9-39.6,7.8s-15.4-18.2-26.9-39.1
				c-4.5-8.2-3.7-22.2-9.5-22.9c-5.9-0.7-17.8-1-17.8-1s-23.2,0.9-39.1-3.4c-10.7-2.9-18.8-27-22.9-42.4c1.9-3.3,4.4-6.1,8.7-6.6
				c0.8,0,1.5-0.1,2.3-0.2c3.8,12.1,9.8,28,19.7,30.7c9.8,2.7,27.1-2,37.8-5.5l9.1-3.3l19.2-6.9c0,0,10.3-6.5,24.4-3.5l8.6,1.4
				L1284.2,377.1z"/>
			<path class="st1" d="M1260.2,445.8c-2.4,0-4.8-0.1-7.2-0.2c-14.5-0.8-16.7-8.8-19.8-19.8c-1.6-5.8-3.5-12.4-7.3-19.4
				c-1.9-3.4-2.8-7.8-3.7-11.7c-1.3-5.7-2.4-10.6-5.6-11c-5.8-0.7-17.7-1-17.8-1c-0.2,0-23.4,0.9-39.2-3.5c-11-3-19.2-28-23.1-42.6
				c0-0.1,0-0.2,0-0.3c1.6-2.9,4.2-6.2,9-6.7c0.8-0.1,1.6-0.1,2.3-0.2c0.2,0,0.3,0.1,0.3,0.2c3.7,11.8,9.8,27.8,19.4,30.5
				c9.8,2.8,27.8-2.3,37.6-5.5l28.2-10.1c0.7-0.4,10.9-6.4,24.6-3.5l8.6,1.4c0.2,0,0.3,0.2,0.3,0.4c0,0.2-0.2,0.3-0.4,0.3l-8.6-1.4
				c-13.8-3-24.1,3.3-24.2,3.4c0,0,0,0-0.1,0l-28.2,10.1c-9.9,3.3-28,8.3-38,5.5c-9.9-2.8-16-18.8-19.8-30.7
				c-0.7,0.1-1.4,0.1-2.1,0.2c-3.5,0.4-6.1,2.3-8.4,6.3c3.9,14.5,12,39.1,22.6,42c15.6,4.3,38.8,3.4,39,3.4c0.1,0,12,0.3,17.9,1
				c3.7,0.5,4.8,5.6,6.1,11.5c0.9,4,1.8,8.2,3.6,11.5c3.9,7.1,5.8,13.8,7.4,19.6c3.1,11.2,5.2,18.6,19.2,19.3
				c10.1,0.5,20,0,27.6-1.6c7-1.5,11.4-3.6,11.6-5.8c0.3-2.8-4.4-37-8.4-60.4c0-0.2,0.1-0.4,0.3-0.4c0.2,0,0.4,0.1,0.4,0.3
				c4,23.4,8.6,57.7,8.4,60.6C1292.4,442.3,1277.9,445.8,1260.2,445.8z"/>
		</g>
		<g>
			<path class="st1" d="M1236,308.9c0,0,2.2,7,3.8,8.2c2.3-3,5.5-5.3,6.9-3.7c1.4,1.6,1.8,9,1.8,9s6.1,5.6,11.7,2.6
				c5.3-10.1,5-29.4-11.5-34.2c-4.8-1.4-11.1-3.9-18.8-2.6c-4.7,0.8-13.2,5.7-14.3,7.9c-3.5,6.6,6.1,13.8,6.1,13.8
				S1227.6,316.4,1236,308.9z"/>
			<path class="st1" d="M1256.7,326.1c-4.3,0-8.1-3.4-8.3-3.5c-0.1-0.1-0.1-0.1-0.1-0.2c-0.1-2-0.7-7.5-1.8-8.8
				c-0.2-0.3-0.6-0.4-1-0.4c-1.4,0-3.5,1.7-5.4,4.1c-0.1,0.1-0.3,0.2-0.5,0.1c-1.5-1-3.3-6.2-3.8-7.9c-2.8,2.4-5.6,3.5-8.4,3.4
				c-3.5-0.2-5.7-2.5-6-2.7c-0.7-0.5-9.6-7.6-6.1-14.2c1.2-2.3,9.7-7.2,14.6-8.1c6.8-1.2,12.4,0.6,16.9,2c0.7,0.2,1.4,0.4,2,0.6
				c6,1.8,10.5,5.6,12.8,11.2c3.4,8.1,1.9,17.6-1.1,23.5c0,0.1-0.1,0.1-0.1,0.1C1259.2,325.9,1258,326.1,1256.7,326.1z M1249,322.2
				c0.8,0.7,6.2,5,11.1,2.5c2.9-5.5,4.4-15,1.1-22.8c-2.3-5.4-6.6-9.1-12.4-10.8c-0.6-0.2-1.3-0.4-2-0.6c-4.5-1.4-10-3.1-16.6-2
				c-4.7,0.8-13,5.6-14.1,7.7c-3.3,6.2,5.9,13.3,6,13.4c0,0,0,0,0,0c0.2,0.3,5.7,6.2,13.8-1c0.1-0.1,0.2-0.1,0.3-0.1
				c0.1,0,0.2,0.1,0.2,0.2c0.6,1.8,2.3,6.5,3.5,7.8c1.5-1.9,3.8-4,5.7-4.1c0.6,0,1.1,0.2,1.5,0.6
				C1248.4,314.7,1248.9,321.1,1249,322.2z"/>
		</g>
	</g>
	<g>
		<path class="st2" d="M1273.5,471c0,0,29.3,28.9,39.5,25.6c1.4-1.1-4.2-3.3-10.6-7.8C1291,480.7,1274.7,469,1273.5,471z"/>
		<path class="st1" d="M1311.2,497.2c-11.4,0-36.8-24.8-37.9-26c-0.1-0.1-0.1-0.3-0.1-0.4c0.1-0.1,0.2-0.3,0.5-0.4
			c2.6-0.6,14.5,7.8,28.7,17.9l0.2,0.1c2.4,1.7,4.7,3.1,6.6,4.2c3,1.8,4.3,2.6,4.3,3.4c0,0.2,0,0.5-0.3,0.7c0,0-0.1,0-0.1,0.1
			C1312.5,497.1,1311.9,497.2,1311.2,497.2z M1274.1,471.1c3.3,3.2,29.4,28.1,38.8,25.2c0.1-0.1,0-0.1,0-0.1c0-0.5-2-1.7-4-2.9
			c-1.9-1.1-4.2-2.5-6.6-4.3l-0.2-0.1C1292.1,481.8,1277.1,471.1,1274.1,471.1C1274.1,471.1,1274.1,471.1,1274.1,471.1z"/>
	</g>
	<g>
		<polygon class="st4" points="1085.8,248.4 980.3,248.4 978.2,239.2 1083.7,239.2 		"/>
		<path class="st1" d="M1085.8,248.7H980.3c-0.2,0-0.3-0.1-0.3-0.3l-2.1-9.2c0-0.1,0-0.2,0.1-0.3c0.1-0.1,0.2-0.1,0.3-0.1h105.5
			c0.2,0,0.3,0.1,0.3,0.3l2.1,9.2c0,0.1,0,0.2-0.1,0.3C1086,248.7,1085.9,248.7,1085.8,248.7z M980.5,248h104.9l-1.9-8.5H978.6
			L980.5,248z"/>
	</g>
	<g>
		<polygon class="st4" points="1092,278.8 986.4,278.8 984.4,269.6 1089.9,269.6 		"/>
		<path class="st1" d="M1092,279.1H986.4c-0.2,0-0.3-0.1-0.3-0.3l-2.1-9.2c0-0.1,0-0.2,0.1-0.3c0.1-0.1,0.2-0.1,0.3-0.1h105.5
			c0.2,0,0.3,0.1,0.3,0.3l2.1,9.2c0,0.1,0,0.2-0.1,0.3C1092.2,279.1,1092.1,279.1,1092,279.1z M986.7,278.5h104.9l-1.9-8.5H984.8
			L986.7,278.5z"/>
	</g>
	<g>
		<polygon class="st4" points="1097.4,235.6 1114.1,247 1127.3,222.8 1121.8,221.2 1112.4,240 1100.4,230.6 		"/>
		<path class="st1" d="M1114.1,247.3c-0.1,0-0.1,0-0.2-0.1l-16.7-11.4c-0.1-0.1-0.2-0.3-0.1-0.4l3-5c0-0.1,0.1-0.1,0.2-0.2
			c0.1,0,0.2,0,0.3,0.1l11.6,9.1l9.2-18.4c0.1-0.1,0.2-0.2,0.4-0.2l5.6,1.6c0.1,0,0.2,0.1,0.2,0.2s0,0.2,0,0.3l-13.2,24.2
			C1114.3,247.3,1114.3,247.3,1114.1,247.3C1114.1,247.3,1114.1,247.3,1114.1,247.3z M1097.9,235.6l16.1,11l12.8-23.5l-4.9-1.4
			l-9.3,18.5c0,0.1-0.1,0.2-0.2,0.2c-0.1,0-0.2,0-0.3-0.1l-11.6-9.1L1097.9,235.6z"/>
	</g>
	<g>
		<polygon class="st2" points="1103.1,269.5 1119.8,280.8 1133,256.6 1127.4,255 1118,273.8 1106.1,264.5 		"/>
		<path class="st1" d="M1119.8,281.2c-0.1,0-0.1,0-0.2-0.1l-16.7-11.4c-0.1-0.1-0.2-0.3-0.1-0.4l3-5c0-0.1,0.1-0.1,0.2-0.2
			c0.1,0,0.2,0,0.3,0.1l11.6,9.1l9.2-18.4c0.1-0.1,0.2-0.2,0.4-0.2l5.6,1.6c0.1,0,0.2,0.1,0.2,0.2s0,0.2,0,0.3l-13.2,24.2
			C1120,281.1,1119.9,281.1,1119.8,281.2C1119.8,281.2,1119.8,281.2,1119.8,281.2z M1103.5,269.4l16.1,11l12.8-23.5l-4.9-1.4
			l-9.3,18.5c0,0.1-0.1,0.2-0.2,0.2c-0.1,0-0.2,0-0.3-0.1l-11.6-9.1L1103.5,269.4z"/>
	</g>
	<g>
		<g>
			<g>
				<path class="st3" d="M1447.7,479.7c0,0-37.9-44.3-7.5-76.1s65.3-27.2,85.5-2.5c20.3,24.6,15.7,64.6-0.3,79.9
					C1509.4,496.2,1453.8,473.8,1447.7,479.7z"/>
				<path class="st1" d="M1506.2,486.7c-10.8,0-23.6-2.5-34.8-4.7c-11.4-2.2-21.2-4.2-23.4-2.1c-0.1,0.1-0.2,0.1-0.2,0.1
					c-0.1,0-0.2,0-0.2-0.1c-0.1-0.1-9.6-11.3-15.2-26.2c-3.3-8.8-4.7-17.1-4-24.8c0.8-9.6,4.8-18.2,11.8-25.5
					c14.7-15.3,31.2-23.1,47.8-22.5c14.5,0.5,28.1,7.6,38.3,20c9.4,11.4,14.2,26.9,13.5,43.7c-0.6,15.3-5.8,29-13.9,36.7
					C1521.4,485.3,1514.4,486.7,1506.2,486.7z M1452,478.3c4.4,0,11.4,1.4,19.5,3c18.5,3.7,43.9,8.7,53.7-0.6
					c8-7.6,13.1-21.1,13.7-36.2c0.7-16.6-4.1-31.9-13.4-43.2c-10-12.2-23.5-19.2-37.8-19.8c-16.4-0.6-32.7,7.1-47.3,22.3
					c-15.6,16.3-12.8,36-7.6,49.7c5.1,13.6,13.5,24.1,14.9,25.8C1448.6,478.6,1450.1,478.3,1452,478.3z"/>
			</g>
			<g>
				<path class="st1" d="M1439.8,499.7c0,0-0.1,0-0.1,0c-0.3-0.1-0.4-0.3-0.4-0.6c7.2-27.6,24.9-50.6,38.5-65
					c14.7-15.6,27.9-24.8,28-24.9c0.2-0.2,0.5-0.1,0.7,0.1c0.2,0.2,0.1,0.5-0.1,0.7c-0.1,0.1-13.2,9.3-27.8,24.8
					c-13.5,14.3-31.1,37.2-38.2,64.6C1440.2,499.5,1440,499.7,1439.8,499.7z"/>
			</g>
			<g>
				<path class="st1" d="M1522.4,426.9c-0.1,0-0.1,0-0.2-0.1c-0.1-0.1-13.2-9.7-24.9-10.2c-0.1,0-0.2-0.1-0.3-0.1
					c-0.1-0.1-0.1-0.2-0.1-0.3c2.8-10.8-6.8-20.7-6.9-20.8c-0.1-0.1-0.1-0.3,0-0.5c0.1-0.1,0.3-0.1,0.5,0c0.1,0.1,9.7,10.1,7.2,21.1
					c11.8,0.7,24.7,10.2,24.8,10.3c0.1,0.1,0.2,0.3,0.1,0.5C1522.6,426.8,1522.5,426.9,1522.4,426.9z"/>
			</g>
			<g>
				<path class="st1" d="M1524.7,445.3c-0.1,0-0.2-0.1-0.3-0.1c-10.2-15.5-29.6-20.5-36.2-21.1c-0.2,0-0.3-0.2-0.3-0.3
					c-0.1-8.4-15.8-23.2-16-23.4c-0.1-0.1-0.1-0.3,0-0.5c0.1-0.1,0.3-0.1,0.5,0c0.7,0.6,15.8,14.8,16.2,23.5
					c7,0.7,26.2,5.8,36.4,21.3c0.1,0.2,0.1,0.4-0.1,0.5C1524.8,445.3,1524.8,445.3,1524.7,445.3z"/>
			</g>
			<g>
				<path class="st1" d="M1521.9,466.4c-0.1,0-0.3-0.1-0.3-0.2c-5.4-12.8-15.2-21-22.5-25.7c-8.6-5.6-16.9-8.1-20.3-7.6
					c-0.1,0-0.2,0-0.3-0.1s-0.1-0.1-0.1-0.2c-1.2-13.5-24.7-35.4-24.9-35.6c-0.1-0.1-0.1-0.3,0-0.5c0.1-0.1,0.3-0.1,0.5,0
					c1,0.9,23.6,21.9,25.1,35.7c3.8-0.3,11.8,2.2,20.4,7.8c7.3,4.8,17.2,13.1,22.7,26c0.1,0.2,0,0.4-0.2,0.4
					C1522,466.4,1522,466.4,1521.9,466.4z"/>
			</g>
			<g>
				<path class="st1" d="M1508.8,469.2c-0.1,0-0.3-0.1-0.3-0.2c-5.8-15-28.6-27.5-36.8-27.1c-0.2,0-0.3-0.1-0.3-0.3
					c-2.1-15.3-18.9-27.1-19-27.2c-0.2-0.1-0.2-0.3-0.1-0.5c0.1-0.1,0.3-0.2,0.5-0.1c0.2,0.1,17,11.9,19.3,27.4
					c4.5-0.1,12.3,3.1,19.6,8c8.6,5.8,15,12.9,17.6,19.5c0.1,0.2,0,0.4-0.2,0.4C1508.9,469.2,1508.8,469.2,1508.8,469.2z"/>
			</g>
			<g>
				<path class="st1" d="M1494.7,471.8c-0.1,0-0.2-0.1-0.3-0.2c-8.2-12.8-21.7-21.6-30.8-20c-0.1,0-0.2,0-0.3-0.1
					c-0.1-0.1-0.1-0.2-0.1-0.3c-0.2-12.8-19.7-25.3-19.9-25.5c-0.2-0.1-0.2-0.3-0.1-0.5c0.1-0.2,0.3-0.2,0.5-0.1
					c0.8,0.5,19.7,12.6,20.2,25.6c9.4-1.4,23,7.5,31.1,20.4c0.1,0.2,0.1,0.4-0.1,0.5C1494.8,471.7,1494.8,471.8,1494.7,471.8z"/>
			</g>
			<g>
				<path class="st1" d="M1483.6,476c-0.1,0-0.3-0.1-0.3-0.2c-1.6-5.1-8-8.7-11.6-10.3c-5.2-2.4-11.2-3.9-14.8-3.6
					c-0.2,0-0.3-0.1-0.3-0.2c-4.7-17.9-19.1-27.6-19.2-27.7c-0.2-0.1-0.2-0.3-0.1-0.5c0.1-0.2,0.3-0.2,0.5-0.1
					c0.1,0.1,14.6,9.8,19.4,27.8c7.6-0.3,24.2,5.9,26.9,14.5c0.1,0.2,0,0.4-0.2,0.4C1483.7,476,1483.6,476,1483.6,476z"/>
			</g>
		</g>
		<g>
			<g>
				<path class="st1" d="M1442.4,478.3c0,0,17.7-29.2,5.3-40.8s-33.8-24.5-50.2-5.7c-16.3,18.8-15.4,42.4,6.7,52.9
					C1426.4,495.3,1429.5,476.3,1442.4,478.3z"/>
				<path class="st1" d="M1416.4,488.3c-3.4,0-7.4-0.9-12.3-3.2c-9.6-4.6-15.7-11.7-17.5-20.7c-2.2-10.5,1.7-22.4,10.7-32.7
					c5.2-6,11.4-9.3,18.3-9.6c13.3-0.7,25.9,9.3,32.3,15.3c5.2,4.8,5.9,13.5,2.1,25.1c-2.9,8.7-7.3,16.1-7.3,16.1
					c-0.1,0.1-0.2,0.2-0.3,0.2c-4.9-0.8-8.4,1.7-12.2,4.2C1426.4,485.5,1422.4,488.3,1416.4,488.3z M1416.9,422.6
					c-0.4,0-0.8,0-1.3,0c-6.7,0.3-12.7,3.5-17.8,9.4c-8.8,10.2-12.7,21.9-10.5,32.2c1.8,8.8,7.8,15.8,17.2,20.2
					c13.2,6.3,19.4,2,25.4-2.1c3.8-2.6,7.4-5.1,12.4-4.4c1.5-2.5,16.8-29.4,5.3-40.2C1441.4,432,1429.4,422.6,1416.9,422.6z"/>
			</g>
			<g>
				<path class="st2" d="M1446,498.9c-0.2,0-0.4-0.2-0.5-0.4c0-0.2,0-0.4,0.2-0.5c0.1-0.4,0.7-3-3.8-19.6
					c-3.5-12.9-14.8-22.3-23.6-27.9c-9.6-6.1-18.4-9.1-18.5-9.1c-0.3-0.1-0.4-0.4-0.3-0.6c0.1-0.3,0.4-0.4,0.6-0.3
					c0.1,0,9,3.1,18.7,9.2c9,5.7,20.4,15.2,24.1,28.4c3.2,11.8,4.5,19,3.7,20.4c-0.1,0.2-0.3,0.3-0.4,0.3
					C1446.1,498.9,1446.1,498.9,1446,498.9z M1445.9,498L1445.9,498L1445.9,498z M1445.9,498L1445.9,498L1445.9,498z M1445.9,498
					C1445.9,498,1445.9,498,1445.9,498C1445.9,498,1445.9,498,1445.9,498z M1445.9,498C1445.9,498,1445.9,498,1445.9,498
					C1445.9,498,1445.9,498,1445.9,498z M1445.9,498C1445.9,498,1445.9,498,1445.9,498C1445.9,498,1445.9,498,1445.9,498z"/>
			</g>
			<g>
				<path class="st2" d="M1422.3,481.2C1422.3,481.2,1422.2,481.2,1422.3,481.2c-0.3-0.1-0.4-0.3-0.3-0.4
					c1.2-3.8,5.9-11.3,11.2-12.6c2.1-0.5,4.1,0,5.9,1.5c-0.2-7.8,7.3-19.1,7.6-19.6c0.1-0.2,0.3-0.2,0.5-0.1
					c0.2,0.1,0.2,0.3,0.1,0.5c-0.1,0.1-8.2,12.4-7.5,20c0,0.1-0.1,0.3-0.2,0.3c-0.1,0.1-0.3,0-0.4-0.1c-1.8-1.8-3.8-2.4-5.9-1.9
					c-4.9,1.2-9.6,8.6-10.7,12.2C1422.6,481.1,1422.4,481.2,1422.3,481.2z"/>
			</g>
			<g>
				<path class="st2" d="M1414.1,483.2C1414,483.2,1414,483.2,1414.1,483.2c-0.2,0-0.3-0.2-0.3-0.4c0.9-8.3,5.1-15.4,11.3-19
					c3.3-1.9,6.6-2.5,9.2-1.5c-1.5-14,6.9-23.9,7-24c0.1-0.1,0.3-0.2,0.5,0c0.1,0.1,0.2,0.3,0,0.5c-0.1,0.1-8.6,10-6.8,24
					c0,0.1,0,0.2-0.1,0.3c-0.1,0.1-0.2,0.1-0.3,0c-2.5-1.1-5.9-0.6-9.2,1.3c-6,3.5-10.1,10.4-10.9,18.5
					C1414.4,483.1,1414.2,483.2,1414.1,483.2z"/>
			</g>
			<g>
				<path class="st2" d="M1406.2,475.5c-0.2,0-0.3-0.1-0.3-0.3c-0.3-4.2,1.4-8.2,4.9-11.8c4.9-5,11.9-7.7,15.3-7.8
					c-4.5-10.8,3.3-22.9,3.3-23c0.1-0.2,0.3-0.2,0.5-0.1c0.2,0.1,0.2,0.3,0.1,0.5c-0.1,0.1-7.8,12.3-3.1,22.9c0,0.1,0,0.2,0,0.3
					c-0.1,0.1-0.2,0.2-0.3,0.1c-3.1-0.1-10.4,2.7-15.3,7.6c-3.4,3.4-5,7.3-4.7,11.3C1406.5,475.3,1406.4,475.4,1406.2,475.5
					C1406.2,475.5,1406.2,475.5,1406.2,475.5z"/>
			</g>
			<g>
				<path class="st2" d="M1395,473.7C1394.9,473.7,1394.9,473.7,1395,473.7c-0.2,0-0.3-0.2-0.3-0.4c1.3-17.1,13.8-21.2,21.2-23.7
					c0.4-0.1,0.9-0.3,1.3-0.4c-2.8-5.9-0.2-19.1-0.1-19.7c0-0.2,0.2-0.3,0.4-0.3c0.2,0,0.3,0.2,0.3,0.4c0,0.1-2.8,14.1,0.2,19.6
					c0,0.1,0.1,0.2,0,0.3c0,0.1-0.1,0.2-0.2,0.2c-0.5,0.2-1.1,0.4-1.6,0.6c-7.3,2.4-19.4,6.5-20.7,23.1
					C1395.3,473.6,1395.1,473.7,1395,473.7z"/>
			</g>
			<g>
				<path class="st2" d="M1393.8,455.1C1393.8,455.1,1393.8,455.1,1393.8,455.1c-0.3,0-0.4-0.2-0.3-0.4c1-4.6,8.4-9.3,15.5-10.1
					c-1.4-3.5,0.1-9.1,0.1-9.3c0-0.2,0.2-0.3,0.4-0.2c0.2,0,0.3,0.2,0.2,0.4c0,0.1-1.5,6.1,0,9.3c0,0.1,0,0.2,0,0.3
					c-0.1,0.1-0.2,0.2-0.3,0.2c-7.1,0.6-14.4,5.1-15.4,9.6C1394.1,455,1394,455.1,1393.8,455.1z"/>
			</g>
		</g>
		<g>
			<g>
				<path class="st2" d="M1482.6,490.3c0,0-10.6-18.3-6.6-27.1s34.6-31.4,53.5-10c18.9,21.4,0.5,52.8-17.1,49.1
					S1488.8,489.9,1482.6,490.3z"/>
				<path class="st1" d="M1515.3,502.9c-1,0-1.9-0.1-2.9-0.3c-9.9-2.1-16.3-5.8-20.9-8.5c-3.6-2.1-6.3-3.7-8.9-3.5
					c-0.1,0-0.2-0.1-0.3-0.2c-0.4-0.8-10.6-18.6-6.6-27.4c2.4-5.2,15.1-16.6,29.8-18.8c9.6-1.4,17.9,1.6,24.2,8.7
					c11.3,12.8,9,28.2,3.5,37.6C1528.8,498.3,1522,502.9,1515.3,502.9z M1483.1,489.9c2.7,0,5.3,1.5,8.8,3.6
					c4.6,2.7,10.9,6.4,20.7,8.4c7.3,1.5,15.2-3.1,20.2-11.8c5.3-9.2,7.6-24.3-3.5-36.8c-6.2-7-14.2-9.9-23.6-8.5
					c-13.9,2.1-26.9,13.1-29.3,18.4c-3.7,8,5.4,24.7,6.5,26.6C1482.9,489.9,1483,489.9,1483.1,489.9z"/>
			</g>
			<g>
				<path class="st1" d="M1476.4,499.4C1476.4,499.4,1476.3,499.4,1476.4,499.4c-0.3,0-0.5-0.3-0.5-0.6c0-0.2,0.8-4.8,14.3-16.8
					c6.7-6,14.7-11.2,22.6-14.8c8.1-3.7,15.3-5.3,20.2-4.4c0.3,0,0.4,0.3,0.4,0.6c0,0.3-0.3,0.4-0.6,0.4c-9.6-1.7-28.1,6.6-42,19
					c-13.1,11.6-14,16.2-14,16.2C1476.8,499.2,1476.6,499.4,1476.4,499.4z"/>
			</g>
			<g>
				<path class="st1" d="M1513.5,492.4c-0.1,0-0.2,0-0.3-0.1c-4.5-5.9-17.1-10.5-21.7-10.5c-0.1,0-0.2-0.1-0.3-0.1
					c-0.1-0.1-0.1-0.2,0-0.3c2.6-7.2-5-17.1-5.1-17.2c-0.1-0.1-0.1-0.4,0.1-0.5c0.1-0.1,0.4-0.1,0.5,0.1c0.3,0.4,7.6,9.9,5.3,17.4
					c5,0.3,17.3,4.9,21.7,10.8c0.1,0.1,0.1,0.4-0.1,0.5C1513.7,492.4,1513.6,492.4,1513.5,492.4z"/>
			</g>
			<g>
				<path class="st1" d="M1526.3,494.7c-0.1,0-0.3-0.1-0.3-0.2c-1.9-5.8-8.2-10.4-13.1-13.2c-5.8-3.4-11.7-5.3-13.6-5.4
					c-0.1,0-0.2,0-0.2-0.1c-0.1-0.1-0.1-0.2-0.1-0.2c1-11.7-6.2-19.7-6.2-19.8c-0.1-0.1-0.1-0.3,0-0.5c0.1-0.1,0.3-0.1,0.5,0
					c0.1,0.1,7.3,8.1,6.4,20c4.9,0.6,23.4,8.3,26.9,19c0.1,0.2,0,0.4-0.2,0.4C1526.4,494.7,1526.3,494.7,1526.3,494.7z"/>
			</g>
			<g>
				<path class="st1" d="M1523.2,481.3c-0.1,0-0.2-0.1-0.3-0.2c-3.7-7.7-11.7-9.6-16.1-10c-0.1,0-0.2-0.1-0.2-0.1
					c-0.1-0.1-0.1-0.2-0.1-0.2c1.1-9.1-6.6-20.3-6.7-20.4c-0.1-0.1-0.1-0.4,0.1-0.5c0.1-0.1,0.4-0.1,0.5,0.1
					c0.3,0.5,7.7,11.2,6.9,20.5c4.6,0.5,12.6,2.6,16.3,10.4c0.1,0.2,0,0.4-0.2,0.4C1523.3,481.3,1523.3,481.3,1523.2,481.3z"/>
			</g>
			<g>
				<path class="st1" d="M1531,480.7c-0.2,0-0.3-0.1-0.3-0.3c-1.2-7-11.2-13.2-16.6-13.3c-0.1,0-0.2-0.1-0.3-0.2
					c-0.1-0.1-0.1-0.2,0-0.3c4.1-6.5-3-17.2-3.1-17.3c-0.1-0.2-0.1-0.4,0.1-0.5c0.2-0.1,0.4-0.1,0.5,0.1c0.3,0.4,7,10.6,3.4,17.5
					c5.8,0.5,15.5,6.7,16.7,13.8C1531.3,480.5,1531.2,480.7,1531,480.7C1531,480.7,1531,480.7,1531,480.7z"/>
			</g>
			<g>
				<path class="st1" d="M1532,469.8c-0.2,0-0.3-0.1-0.3-0.3c-0.7-3.1-5-5-7.8-5.4c-0.1,0-0.2-0.1-0.3-0.2c0-0.1,0-0.2,0-0.3
					c3.2-4.6,0.5-7.7,0.4-7.8c-0.1-0.1-0.1-0.3,0-0.5c0.1-0.1,0.3-0.1,0.5,0c0,0,3,3.4,0,8.2c3,0.5,7.2,2.5,7.9,5.8
					C1532.4,469.6,1532.3,469.7,1532,469.8C1532.1,469.8,1532.1,469.8,1532,469.8z"/>
			</g>
		</g>
	</g>
</g>
<g>
	<g>
		<path class="st2" d="M759.2,489.8l-5.9,35.8c-12.7,2.8-25.7,3.1-39,1.1l-2-39.1L759.2,489.8z"/>
		<path class="st1" d="M731.2,528.3c-5.6,0-11.2-0.4-16.9-1.3c-0.2,0-0.3-0.2-0.3-0.3l-2-39.1c0-0.1,0-0.2,0.1-0.3
			c0.1-0.1,0.2-0.1,0.3-0.1l46.9,2.2c0.1,0,0.2,0.1,0.3,0.1c0.1,0.1,0.1,0.2,0.1,0.3l-5.9,35.8c0,0.1-0.1,0.3-0.3,0.3
			C746.1,527.5,738.7,528.3,731.2,528.3z M714.7,526.3c13,2,25.9,1.6,38.3-1l5.8-35.1l-46.1-2.2L714.7,526.3z"/>
	</g>
	<g>
		<ellipse class="st1" cx="739.7" cy="488.3" rx="21.4" ry="2.3"/>
		<path class="st1" d="M739.7,490.9c-5.7,0-11.1-0.2-15.2-0.7c-6.6-0.7-6.6-1.5-6.6-2s0-1.3,6.6-2c4.1-0.4,9.5-0.7,15.2-0.7
			c5.7,0,11.1,0.2,15.2,0.7c6.6,0.7,6.6,1.5,6.6,2s0,1.3-6.6,2C750.8,490.7,745.4,490.9,739.7,490.9z M718.6,488.3
			c0.6,0.8,8.3,1.9,21.1,1.9s20.4-1.1,21.1-1.9c-0.6-0.8-8.3-1.9-21.1-1.9C727,486.4,719.3,487.5,718.6,488.3z M760.8,488.3
			L760.8,488.3L760.8,488.3z"/>
	</g>
	<g>
		<g>
			<g>
				<g>
					<path class="st3" d="M738,477.5c0,0,51.3,29.4,77.3-6.9c26-36.4,14.7-70.2-13.7-85.7c-28.4-15.5-67.4-3.4-79.6,15.4
						C709.9,419.2,742.7,470.4,738,477.5z"/>
					<path class="st1" d="M778.7,489.1c-3.8,0-7.7-0.4-11.9-1.1c-16-2.8-28.9-10.1-29-10.2c-0.1,0-0.1-0.1-0.2-0.2
						c0-0.1,0-0.2,0-0.3c1.7-2.6-2.1-12-6.5-23c-7.6-18.9-17.1-42.5-9.5-54.3c6.1-9.5,18.8-17.3,33.9-20.8c16.6-3.8,32.9-2,46.1,5.2
						c14.2,7.8,23.9,20,27.2,34.4c3.8,16.4-0.9,34.3-13.4,51.9c-6,8.4-13.8,13.9-23.2,16.6C788.2,488.5,783.6,489.1,778.7,489.1z
						 M738.5,477.4c2,1.1,14,7.4,28.5,10c14.6,2.5,34.7,1.7,48-17c12.4-17.4,17-35.1,13.3-51.3c-3.2-14.2-12.8-26.2-26.8-33.9
						c-13-7.1-29.2-9-45.6-5.2c-14.9,3.5-27.5,11.1-33.5,20.5c-7.4,11.5,2.4,35.9,9.5,53.6C736.4,465.3,740,474.2,738.5,477.4z"/>
				</g>
				<g>
					<path class="st1" d="M720.1,489.7c-0.2,0-0.4-0.1-0.5-0.3c-0.1-0.3,0-0.6,0.3-0.7c26-12.3,45.4-34.2,57.1-50.3
						c12.7-17.5,19.4-32.3,19.5-32.4c0.1-0.3,0.4-0.4,0.7-0.3c0.3,0.1,0.4,0.4,0.3,0.7c-0.1,0.1-6.8,15-19.6,32.6
						c-11.8,16.3-31.4,38.2-57.6,50.7C720.2,489.7,720.1,489.7,720.1,489.7z"/>
				</g>
				<g>
					<path class="st1" d="M814.2,419.4c-0.1,0-0.1,0-0.2-0.1c-0.1-0.1-11.9-7.7-22-2.9c-0.1,0-0.2,0-0.3,0c-0.1,0-0.2-0.1-0.2-0.2
						c-2.7-11.5-14.7-22.7-14.9-22.8c-0.1-0.1-0.2-0.4,0-0.5c0.1-0.1,0.4-0.2,0.5,0c0.1,0.1,12.1,11.2,15,22.8
						c10.5-4.6,22.2,3.1,22.3,3.2c0.2,0.1,0.2,0.3,0.1,0.5C814.4,419.4,814.3,419.4,814.2,419.4z"/>
				</g>
				<g>
					<path class="st1" d="M812.6,438.5c-0.1,0-0.1,0-0.2-0.1c-0.2-0.1-17.9-13.1-26.3-11.5c-0.2,0-0.4-0.1-0.4-0.2
						c-1.8-6.5-10.4-24.9-27.8-32.1c-0.2-0.1-0.3-0.3-0.2-0.5c0.1-0.2,0.3-0.3,0.5-0.2c17.4,7.2,26.1,25.5,28.2,32.3
						c8.8-1.2,25.8,11.2,26.5,11.7c0.2,0.1,0.2,0.3,0.1,0.5C812.9,438.5,812.8,438.5,812.6,438.5z"/>
				</g>
				<g>
					<path class="st1" d="M819.6,456.2c-0.1,0-0.1,0-0.2-0.1c-0.3-0.2-26.5-19.5-40.2-18.1c-0.1,0-0.2,0-0.3-0.1
						c-0.1-0.1-0.1-0.2-0.1-0.2c-0.2-3.5-4.2-11.2-11.4-18.8c-6.1-6.3-16.2-14.5-29.9-17.5c-0.2,0-0.3-0.2-0.3-0.4
						c0-0.2,0.2-0.3,0.4-0.3c13.9,3,24.1,11.3,30.3,17.7c7.2,7.5,11.2,15,11.6,18.9c14.1-1.1,39.2,17.5,40.3,18.3
						c0.2,0.1,0.2,0.3,0.1,0.5C819.8,456.1,819.7,456.2,819.6,456.2z"/>
				</g>
				<g>
					<path class="st1" d="M802.4,460.8c-0.1,0-0.2,0-0.2-0.1c-0.1-0.1-15.1-14.6-30.7-13.8c-0.2,0-0.3-0.1-0.4-0.3
						c-1.1-8.3-17.9-28.6-34-31.6c-0.2,0-0.3-0.2-0.3-0.4c0-0.2,0.2-0.3,0.4-0.3c7.1,1.3,15.4,6.3,22.8,13.8
						c6.3,6.3,10.9,13.5,11.7,18c15.8-0.6,30.8,13.9,31,14c0.1,0.1,0.1,0.4,0,0.5C802.6,460.8,802.5,460.8,802.4,460.8z"/>
				</g>
				<g>
					<path class="st1" d="M792.8,471.9c-0.1,0-0.2,0-0.3-0.1c-0.2-0.2-16.4-17.3-29.1-15c-0.1,0-0.2,0-0.3-0.1
						c-0.1-0.1-0.1-0.2-0.1-0.3c-0.1-9.4-11.4-21.3-25.8-26.9c-0.2-0.1-0.3-0.3-0.2-0.5c0.1-0.2,0.3-0.3,0.5-0.2
						c14.4,5.7,25.8,17.6,26.2,27.2c13.1-1.9,28.7,14.6,29.4,15.3c0.1,0.1,0.1,0.4,0,0.5C793,471.9,792.9,471.9,792.8,471.9z"/>
				</g>
				<g>
					<path class="st1" d="M785.9,479.4c-0.1,0-0.2,0-0.3-0.1c-0.1-0.1-12.5-12.6-31.2-13.9c-0.2,0-0.3-0.1-0.3-0.3
						c-0.9-7.2-10.2-22.7-18.9-23.7c-0.2,0-0.3-0.2-0.3-0.4c0-0.2,0.2-0.3,0.4-0.3c9.1,1.1,18.4,16.4,19.5,24.1
						c18.9,1.4,31.3,14,31.4,14.1c0.1,0.1,0.1,0.4,0,0.5C786.1,479.4,786,479.4,785.9,479.4z"/>
				</g>
			</g>
			<g>
				<g>
					<path class="st1" d="M757.5,487.8c0,0,25.8-23.2,39.7-13c13.9,10.1,30.8,29.1,15.1,48.9c-15.7,19.9-39.3,23.4-54,3.3
						C743.5,507,762,500.2,757.5,487.8z"/>
					<path class="st1" d="M782.4,540.8c-0.2,0-0.3,0-0.5,0c-9.3-0.2-17.6-4.9-24-13.6c-9-12.3-5.7-19.8-2.8-26.4
						c1.9-4.2,3.6-8.2,1.9-12.9c0-0.1,0-0.3,0.1-0.4c0.1-0.1,6.6-5.9,14.7-10.4c10.8-6,19.6-6.9,25.4-2.7c7.2,5.2,19.5,16,21.3,29.3
						c1,7-1.1,13.7-6.1,20.1C804.1,534.7,793.1,540.8,782.4,540.8z M757.9,488c1.7,4.9-0.1,8.9-2,13.2c-3,6.7-6.1,13.7,2.7,25.7
						c6.2,8.5,14.3,13.1,23.4,13.3c10.6,0.2,21.6-5.9,30.1-16.6c4.9-6.2,6.9-12.8,6-19.6c-1.8-13.1-14-23.7-21.1-28.9
						C784,465.7,760.2,486,757.9,488z"/>
				</g>
				<g>
					<path class="st2" d="M802.7,523.6c-0.2,0-0.4-0.1-0.5-0.3c0-0.1-4.7-8.3-12.6-16.7c-7.2-7.7-18.7-17.2-32.2-18.2
						c-17.3-1.4-19.9-0.3-20.2-0.1c-0.1,0.2-0.3,0.3-0.5,0.3c-0.3,0-0.5-0.3-0.5-0.5c0-0.1,0-0.3,0.2-0.5c1.2-1.1,8.7-1.2,21.1-0.2
						c13.9,1.1,25.6,10.7,32.9,18.6c7.9,8.5,12.7,16.9,12.7,16.9c0.1,0.3,0.1,0.6-0.2,0.7C802.8,523.6,802.8,523.6,802.7,523.6z
						 M737.3,488L737.3,488L737.3,488z M737.3,488C737.3,488,737.3,488,737.3,488C737.3,488,737.3,488,737.3,488z M737.3,488
						C737.3,488,737.3,488,737.3,488C737.3,488,737.3,488,737.3,488z M737.3,488C737.3,488,737.3,488,737.3,488
						C737.3,488,737.3,488,737.3,488z M737.3,488C737.3,488,737.3,488,737.3,488C737.3,488,737.3,488,737.3,488z"/>
				</g>
				<g>
					<path class="st2" d="M758.8,508.7c-0.1,0-0.2-0.1-0.3-0.2c-0.1-0.2,0-0.4,0.1-0.5c3.4-1.8,9.8-7.8,10.1-12.9
						c0.1-2.2-0.9-4.1-3-5.5c-0.1-0.1-0.2-0.2-0.1-0.4c0-0.1,0.2-0.2,0.3-0.3c7.7-0.7,18.4-11.1,18.5-11.2c0.1-0.1,0.4-0.1,0.5,0
						c0.1,0.1,0.1,0.4,0,0.5c-0.4,0.4-10.3,10-18.1,11.3c1.9,1.5,2.7,3.4,2.6,5.6c-0.3,5.5-6.9,11.6-10.5,13.5
						C758.9,508.6,758.8,508.7,758.8,508.7z"/>
				</g>
				<g>
					<path class="st2" d="M758.3,517.3c-0.2,0-0.3-0.1-0.3-0.2c-0.1-0.2,0-0.4,0.2-0.4c7.9-2.4,14-7.8,16.3-14.4
						c1.3-3.7,1.1-7.1-0.4-9.4c-0.1-0.1-0.1-0.2,0-0.4c0.1-0.1,0.2-0.2,0.3-0.2c14.2-0.8,22.6-11.2,22.6-11.3
						c0.1-0.2,0.3-0.2,0.5-0.1c0.2,0.1,0.2,0.3,0.1,0.5c-0.1,0.1-8.3,10.4-22.6,11.5c1.4,2.5,1.5,5.9,0.2,9.5
						c-2.4,6.8-8.7,12.4-16.8,14.8C758.4,517.3,758.4,517.3,758.3,517.3z"/>
				</g>
				<g>
					<path class="st2" d="M767.5,523.6c-0.2,0-0.3-0.1-0.3-0.3c0-0.2,0.1-0.4,0.3-0.4c4-0.5,7.6-2.9,10.4-6.9
						c4-5.8,5.4-13.6,4.7-16.7c0-0.1,0-0.2,0.1-0.3c0.1-0.1,0.2-0.1,0.3-0.1c11.4,2.7,22.1-7.3,22.2-7.4c0.1-0.1,0.4-0.1,0.5,0
						c0.1,0.1,0.1,0.4,0,0.5c-0.1,0.1-10.7,10.1-22.3,7.7c0.5,3.4-0.9,10.8-4.9,16.7C775.5,520.7,771.7,523.1,767.5,523.6
						C767.5,523.6,767.5,523.6,767.5,523.6z"/>
				</g>
				<g>
					<path class="st2" d="M771.3,534.5c-0.2,0-0.3-0.1-0.3-0.3c-0.1-0.2,0.1-0.4,0.2-0.4c16.3-4.5,18.1-17.3,19.1-25
						c0.1-0.6,0.2-1.2,0.2-1.7c0-0.1,0.1-0.2,0.2-0.2c0.1-0.1,0.2-0.1,0.3,0c6,1.9,19.4-3.5,19.5-3.5c0.2-0.1,0.4,0,0.5,0.2
						c0.1,0.2,0,0.4-0.2,0.5c-0.5,0.2-13.2,5.3-19.6,3.6c-0.1,0.4-0.1,0.9-0.2,1.3C790,516.8,788.2,529.9,771.3,534.5
						C771.4,534.5,771.4,534.5,771.3,534.5z"/>
				</g>
				<g>
					<path class="st2" d="M790.1,532.1c-0.1,0-0.3-0.1-0.3-0.2c-0.1-0.2,0-0.4,0.2-0.5c4.2-1.8,7.4-10,6.6-17.2c0-0.1,0-0.2,0.1-0.3
						c0.1-0.1,0.2-0.1,0.3-0.1c3.4,1,9.2-1.7,9.3-1.7c0.2-0.1,0.4,0,0.5,0.2c0.1,0.2,0,0.4-0.2,0.5c-0.2,0.1-5.6,2.6-9.3,1.9
						c0.6,7.3-2.7,15.5-7.1,17.4C790.2,532.1,790.1,532.1,790.1,532.1z"/>
				</g>
			</g>
			<g>
				<g>
					<path class="st2" d="M735.4,480.2c0,0-2.5-36.1-20.2-38.6c-17.8-2.5-44.2-0.6-46.9,25.6c-2.7,26.2,12.5,46.1,38.1,41.7
						C731.9,504.6,723,486.2,735.4,480.2z"/>
					<path class="st1" d="M699.4,509.9c-8.2,0-15.3-2.7-20.8-7.9c-8.3-7.7-12.2-20.4-10.7-34.9c0.9-8.4,4.2-15,10-19.5
						c11.1-8.7,28.1-7.8,37.3-6.5c7.4,1,13.3,8.1,17.1,20.5c2.8,9.3,3.5,18.3,3.5,18.4c0,0.1-0.1,0.3-0.2,0.3
						c-4.7,2.3-6.3,6.6-7.9,11.1c-2.6,7.1-5.5,15.1-21.2,17.7C704,509.7,701.7,509.9,699.4,509.9z M703.9,441.1
						c-8.5,0-18.3,1.5-25.5,7.1c-5.6,4.4-8.9,10.8-9.7,19c-1.5,14.2,2.4,26.7,10.5,34.3c6.9,6.5,16.3,8.9,27.2,7.1
						c15.3-2.6,18-10.1,20.7-17.3c1.7-4.6,3.3-8.9,8.1-11.4c-0.3-3.1-3.4-35.7-19.9-38C712.1,441.5,708.1,441.1,703.9,441.1z"/>
				</g>
				<g>
					<path class="st1" d="M738.2,489.8c-0.2,0-0.4-0.1-0.5-0.3c-0.1-0.3,0-0.6,0.2-0.7c0,0,1-0.5,1.2-1.7c0.1-1.2-0.4-3.2-4.1-6.5
						c-10.6-9.4-26.1-10.6-37.2-10c-12.1,0.7-21.7,3.6-21.8,3.7c-0.3,0.1-0.6-0.1-0.7-0.3c-0.1-0.3,0.1-0.6,0.3-0.7
						c0.1,0,9.9-3,22-3.7c11.3-0.6,27,0.6,37.9,10.3c3.2,2.9,4.7,5.4,4.5,7.4c-0.2,1.8-1.7,2.5-1.8,2.5
						C738.4,489.8,738.3,489.8,738.2,489.8z"/>
				</g>
				<g>
					<path class="st1" d="M719.6,494.9c-0.1,0-0.3-0.1-0.3-0.2c-1.3-4-1.8-13.4,2-17.7c1.5-1.8,3.5-2.5,6.1-2.3
						c-4.9-6.6-5.3-21-5.3-21.6c0-0.2,0.1-0.4,0.3-0.4c0,0,0,0,0,0c0.2,0,0.3,0.2,0.4,0.3c0,0.2,0.5,15.8,5.7,21.8
						c0.1,0.1,0.1,0.3,0,0.4c-0.1,0.1-0.2,0.2-0.4,0.2c-2.6-0.4-4.8,0.2-6.3,2c-3.5,4.1-3.1,13.3-1.8,17.1c0.1,0.2,0,0.4-0.2,0.4
						C719.6,494.9,719.6,494.9,719.6,494.9z"/>
				</g>
				<g>
					<path class="st1" d="M713.6,501.7c-0.1,0-0.2-0.1-0.3-0.2c-4.3-7.7-5-16.4-1.8-23.3c1.7-3.6,4.2-6.1,7.1-7
						c-9.9-11.2-8.6-24.9-8.6-25c0-0.2,0.2-0.3,0.4-0.3c0.2,0,0.3,0.2,0.3,0.4c0,0.1-1.3,13.9,8.8,24.9c0.1,0.1,0.1,0.2,0.1,0.3
						c0,0.1-0.1,0.2-0.3,0.2c-2.8,0.6-5.4,3-7.1,6.7c-3.1,6.7-2.4,15.1,1.8,22.6c0.1,0.2,0,0.4-0.1,0.5
						C713.8,501.7,713.7,501.7,713.6,501.7z"/>
				</g>
				<g>
					<path class="st1" d="M702.1,499.8c-0.1,0-0.2,0-0.3-0.1c-2.8-3.4-3.8-8-2.9-13.2c1.2-7.3,5.6-13.9,8.4-16.1
						c-10.5-6.6-11.1-21.8-11.1-22c0-0.2,0.1-0.4,0.3-0.4c0.2,0,0.4,0.1,0.4,0.3c0,0.2,0.7,15.4,11.2,21.7c0.1,0.1,0.2,0.2,0.2,0.3
						c0,0.1-0.1,0.2-0.2,0.3c-2.8,1.8-7.4,8.7-8.6,15.9c-0.8,5,0.1,9.4,2.8,12.7c0.1,0.2,0.1,0.4-0.1,0.5
						C702.3,499.8,702.2,499.8,702.1,499.8z"/>
				</g>
				<g>
					<path class="st1" d="M691.4,505.2c-0.1,0-0.2-0.1-0.3-0.2c-9.2-15.6-1-26.7,3.9-33.4c0.3-0.4,0.6-0.8,0.8-1.2
						c-6-3.4-11.8-16.4-12.1-17c-0.1-0.2,0-0.4,0.2-0.5c0.2-0.1,0.4,0,0.5,0.2c0.1,0.1,6.2,13.9,12.1,16.8c0.1,0,0.2,0.1,0.2,0.2
						c0,0.1,0,0.2-0.1,0.3c-0.3,0.5-0.7,1-1.1,1.5c-4.8,6.5-12.9,17.4-3.9,32.6c0.1,0.2,0,0.4-0.1,0.5
						C691.5,505.1,691.4,505.2,691.4,505.2z"/>
				</g>
				<g>
					<path class="st1" d="M679.1,489.7c-0.1,0-0.3-0.1-0.3-0.2c-1.9-4.6,1.6-13.1,7.3-18.2c-3.3-2.2-5.5-7.9-5.6-8.1
						c-0.1-0.2,0-0.4,0.2-0.5c0.2-0.1,0.4,0,0.5,0.2c0,0.1,2.4,6.2,5.7,8c0.1,0.1,0.2,0.2,0.2,0.3c0,0.1,0,0.2-0.1,0.3
						c-5.8,4.8-9.3,13.2-7.5,17.7c0.1,0.2,0,0.4-0.2,0.5C679.1,489.7,679.1,489.7,679.1,489.7z"/>
				</g>
			</g>
		</g>
	</g>
</g>
</svg>
