<?xml version="1.0" encoding="utf-8"?>
<!-- Generator: Adobe Illustrator 26.4.1, SVG Export Plug-In . SVG Version: 6.00 Build 0)  -->
<svg version="1.1" id="Layer_1" xmlns="http://www.w3.org/2000/svg" xmlns:xlink="http://www.w3.org/1999/xlink" x="0px" y="0px"
	 viewBox="0 0 800 300" style="enable-background:new 0 0 800 300;" xml:space="preserve">
<style type="text/css">
	
		.st0{clip-path:url(#SVGID_00000155117871044537564110000014080845169103859595_);fill:url(#SVGID_00000178887101966038993120000016637087515503099024_);}
	.st1{fill:#1A1A1A;}
	.st2{fill:#FFFFFF;}
	.st3{fill:#8E9DF4;}
	.st4{fill:#5067EF;}
</style>
<g>
	<defs>
		<rect id="SVGID_1_" x="-15" y="-3" width="815" height="291"/>
	</defs>
	<clipPath id="SVGID_00000027590514729029833430000017386107568726062761_">
		<use xlink:href="#SVGID_1_"  style="overflow:visible;"/>
	</clipPath>
	
		<radialGradient id="SVGID_00000120549249240004923020000013375488901549689751_" cx="296.6763" cy="488.459" r="396.68" gradientTransform="matrix(1.0038 0 0 0.2295 101.2097 172.8752)" gradientUnits="userSpaceOnUse">
		<stop  offset="0.4079" style="stop-color:#ECEBF2"/>
		<stop  offset="1" style="stop-color:#ECEBF2;stop-opacity:0"/>
	</radialGradient>
	
		<ellipse style="clip-path:url(#SVGID_00000027590514729029833430000017386107568726062761_);fill:url(#SVGID_00000120549249240004923020000013375488901549689751_);" cx="399" cy="285" rx="401" ry="92"/>
</g>
<g>
</g>
<g>
	<g>
		<g>
			<path class="st1" d="M183.7,103.3C183.7,103.3,183.6,103.3,183.7,103.3c-0.4-0.1-0.7-0.1-1.1-0.2c-0.1,0-0.2-0.1-0.1-0.2
				s0.1-0.2,0.2-0.1c0.3,0,0.7,0.1,1,0.2c0.1,0,0.2,0.1,0.1,0.2C183.8,103.2,183.7,103.3,183.7,103.3z"/>
		</g>
		<g>
			<path class="st1" d="M164.3,240.4C164.2,240.4,164.2,240.4,164.3,240.4c-0.7-0.1-1.4-0.2-2.1-0.2c-0.1,0-0.2-0.1-0.2-0.2
				c0-0.1,0.1-0.2,0.2-0.2c0.7,0.1,1.4,0.2,2.1,0.2c0.1,0,0.2,0.1,0.2,0.2C164.4,240.3,164.3,240.4,164.3,240.4z M160.1,239.9
				C160.1,239.9,160.1,239.9,160.1,239.9c-0.7-0.1-1.4-0.2-2.1-0.3c-0.1,0-0.2-0.1-0.1-0.2c0-0.1,0.1-0.2,0.2-0.1
				c0.7,0.1,1.4,0.2,2.1,0.3c0.1,0,0.2,0.1,0.2,0.2C160.2,239.8,160.2,239.9,160.1,239.9z M155.9,239.3
				C155.9,239.3,155.9,239.3,155.9,239.3c-0.7-0.1-1.4-0.2-2.1-0.3c-0.1,0-0.2-0.1-0.1-0.2c0-0.1,0.1-0.2,0.2-0.1
				c0.7,0.1,1.4,0.2,2.1,0.3c0.1,0,0.2,0.1,0.1,0.2C156.1,239.2,156,239.3,155.9,239.3z M151.8,238.6
				C151.8,238.6,151.7,238.6,151.8,238.6c-0.7-0.1-1.4-0.3-2.1-0.4c-0.1,0-0.2-0.1-0.1-0.2c0-0.1,0.1-0.2,0.2-0.1
				c0.7,0.1,1.4,0.3,2.1,0.4c0.1,0,0.2,0.1,0.1,0.2C151.9,238.5,151.8,238.6,151.8,238.6z M147.6,237.8
				C147.6,237.8,147.6,237.8,147.6,237.8c-0.7-0.1-1.4-0.3-2.1-0.5c-0.1,0-0.2-0.1-0.1-0.2c0-0.1,0.1-0.2,0.2-0.1
				c0.7,0.2,1.4,0.3,2.1,0.4c0.1,0,0.2,0.1,0.1,0.2C147.8,237.7,147.7,237.8,147.6,237.8z M143.5,236.9
				C143.5,236.9,143.5,236.9,143.5,236.9c-0.7-0.2-1.4-0.3-2.1-0.5c-0.1,0-0.2-0.1-0.1-0.2c0-0.1,0.1-0.1,0.2-0.1
				c0.7,0.2,1.4,0.3,2,0.5c0.1,0,0.2,0.1,0.1,0.2C143.7,236.8,143.6,236.9,143.5,236.9z M139.5,235.8
				C139.4,235.8,139.4,235.8,139.5,235.8c-0.7-0.2-1.4-0.4-2.1-0.6c-0.1,0-0.1-0.1-0.1-0.2c0-0.1,0.1-0.1,0.2-0.1
				c0.7,0.2,1.3,0.4,2,0.6c0.1,0,0.1,0.1,0.1,0.2C139.6,235.8,139.5,235.8,139.5,235.8z M135.4,234.6
				C135.4,234.6,135.4,234.6,135.4,234.6c-0.7-0.2-1.4-0.4-2.1-0.6c-0.1,0-0.1-0.1-0.1-0.2c0-0.1,0.1-0.1,0.2-0.1
				c0.7,0.2,1.3,0.4,2,0.6c0.1,0,0.1,0.1,0.1,0.2C135.6,234.6,135.5,234.6,135.4,234.6z M131.4,233.3
				C131.4,233.3,131.4,233.3,131.4,233.3c-0.7-0.2-1.4-0.5-2-0.7c-0.1,0-0.1-0.1-0.1-0.2c0-0.1,0.1-0.1,0.2-0.1
				c0.6,0.2,1.3,0.5,2,0.7c0.1,0,0.1,0.1,0.1,0.2C131.6,233.3,131.5,233.3,131.4,233.3z M127.5,231.8
				C127.5,231.8,127.4,231.8,127.5,231.8c-0.7-0.3-1.4-0.5-2-0.8c-0.1,0-0.1-0.1-0.1-0.2c0-0.1,0.1-0.1,0.2-0.1
				c0.6,0.3,1.3,0.5,1.9,0.8c0.1,0,0.1,0.1,0.1,0.2C127.6,231.8,127.5,231.8,127.5,231.8z M123.6,230.2
				C123.6,230.2,123.5,230.2,123.6,230.2c-0.7-0.3-1.4-0.6-2-0.9c-0.1,0-0.1-0.1-0.1-0.2c0-0.1,0.1-0.1,0.2-0.1
				c0.6,0.3,1.3,0.6,1.9,0.9c0.1,0,0.1,0.1,0.1,0.2C123.7,230.2,123.7,230.2,123.6,230.2z M119.8,228.4
				C119.8,228.4,119.7,228.4,119.8,228.4c-0.7-0.3-1.3-0.7-1.9-1c-0.1,0-0.1-0.2-0.1-0.2c0-0.1,0.2-0.1,0.2-0.1
				c0.6,0.3,1.2,0.7,1.9,1c0.1,0,0.1,0.1,0.1,0.2C119.9,228.4,119.9,228.4,119.8,228.4z M116.1,226.4
				C116.1,226.4,116,226.4,116.1,226.4c-0.7-0.4-1.3-0.7-1.9-1.1c-0.1-0.1-0.1-0.2-0.1-0.2c0.1-0.1,0.2-0.1,0.2-0.1
				c0.6,0.4,1.2,0.7,1.8,1.1c0.1,0,0.1,0.2,0.1,0.2C116.2,226.4,116.2,226.4,116.1,226.4z M112.5,224.2
				C112.5,224.2,112.4,224.2,112.5,224.2c-0.7-0.4-1.3-0.8-1.8-1.2c-0.1-0.1-0.1-0.2,0-0.2c0.1-0.1,0.2-0.1,0.2,0
				c0.6,0.4,1.2,0.8,1.7,1.2c0.1,0.1,0.1,0.2,0.1,0.2C112.6,224.2,112.6,224.2,112.5,224.2z M109,221.8c0,0-0.1,0-0.1,0
				c-0.6-0.4-1.1-0.8-1.7-1.3c-0.1-0.1-0.1-0.2,0-0.2c0.1-0.1,0.2-0.1,0.2,0c0.5,0.4,1.1,0.9,1.7,1.3c0.1,0.1,0.1,0.2,0,0.2
				C109.1,221.8,109.1,221.8,109,221.8z M105.7,219.2c0,0-0.1,0-0.1,0c-0.5-0.5-1.1-0.9-1.6-1.4c-0.1-0.1-0.1-0.2,0-0.2
				c0.1-0.1,0.2-0.1,0.2,0c0.5,0.5,1,0.9,1.6,1.4c0.1,0.1,0.1,0.2,0,0.2C105.8,219.2,105.8,219.2,105.7,219.2z M102.6,216.4
				c0,0-0.1,0-0.1,0c-0.5-0.5-1-1-1.5-1.5c-0.1-0.1-0.1-0.2,0-0.2c0.1-0.1,0.2-0.1,0.2,0c0.5,0.5,1,1,1.5,1.5c0.1,0.1,0.1,0.2,0,0.2
				C102.7,216.4,102.7,216.4,102.6,216.4z M99.7,213.3c0,0-0.1,0-0.1-0.1c-0.5-0.5-0.9-1.1-1.4-1.6c-0.1-0.1,0-0.2,0-0.2
				c0.1-0.1,0.2,0,0.2,0c0.4,0.5,0.9,1.1,1.4,1.6c0.1,0.1,0.1,0.2,0,0.2C99.8,213.3,99.8,213.3,99.7,213.3z M97.1,210.1
				c-0.1,0-0.1,0-0.1-0.1c-0.4-0.6-0.8-1.1-1.2-1.7c-0.1-0.1,0-0.2,0-0.2c0.1-0.1,0.2,0,0.2,0c0.4,0.6,0.8,1.1,1.2,1.7
				c0.1,0.1,0,0.2,0,0.2C97.2,210.1,97.1,210.1,97.1,210.1z M94.7,206.6c-0.1,0-0.1,0-0.1-0.1c-0.4-0.6-0.7-1.2-1.1-1.8
				c0-0.1,0-0.2,0.1-0.2c0.1,0,0.2,0,0.2,0.1c0.3,0.6,0.7,1.2,1.1,1.8C94.9,206.4,94.9,206.5,94.7,206.6
				C94.8,206.6,94.8,206.6,94.7,206.6z M92.7,202.9c-0.1,0-0.1,0-0.2-0.1c-0.3-0.6-0.6-1.3-0.9-1.9c0-0.1,0-0.2,0.1-0.2
				c0.1,0,0.2,0,0.2,0.1c0.3,0.6,0.6,1.3,0.9,1.9C92.9,202.8,92.8,202.9,92.7,202.9C92.7,202.9,92.7,202.9,92.7,202.9z M91,199.1
				c-0.1,0-0.1,0-0.2-0.1c-0.3-0.7-0.5-1.3-0.7-2c0-0.1,0-0.2,0.1-0.2c0.1,0,0.2,0,0.2,0.1c0.2,0.7,0.5,1.3,0.7,2
				C91.2,199,91.1,199.1,91,199.1C91,199.1,91,199.1,91,199.1z M89.6,195.1c-0.1,0-0.1,0-0.2-0.1c-0.2-0.7-0.4-1.4-0.6-2
				c0-0.1,0-0.2,0.1-0.2c0.1,0,0.2,0,0.2,0.1c0.2,0.7,0.4,1.3,0.6,2C89.8,195,89.7,195.1,89.6,195.1
				C89.6,195.1,89.6,195.1,89.6,195.1z M88.6,191.1c-0.1,0-0.2-0.1-0.2-0.1c-0.1-0.7-0.3-1.4-0.4-2.1c0-0.1,0-0.2,0.1-0.2
				c0.1,0,0.2,0,0.2,0.1c0.1,0.7,0.2,1.4,0.4,2.1C88.7,190.9,88.7,191,88.6,191.1C88.6,191.1,88.6,191.1,88.6,191.1z M87.9,186.9
				c-0.1,0-0.2-0.1-0.2-0.2c-0.1-0.7-0.2-1.4-0.2-2.1c0-0.1,0.1-0.2,0.2-0.2c0.1,0,0.2,0.1,0.2,0.2c0.1,0.7,0.1,1.4,0.2,2.1
				C88.1,186.8,88,186.9,87.9,186.9C87.9,186.9,87.9,186.9,87.9,186.9z M87.6,182.7c-0.1,0-0.2-0.1-0.2-0.2c0-0.6,0-1.3,0-1.9l0-0.2
				c0-0.1,0.1-0.2,0.2-0.2c0,0,0,0,0,0c0.1,0,0.2,0.1,0.2,0.2l0,0.2c0,0.6,0,1.3,0,1.9C87.7,182.6,87.7,182.7,87.6,182.7
				C87.6,182.7,87.6,182.7,87.6,182.7z M87.6,178.5C87.6,178.5,87.6,178.5,87.6,178.5c-0.1,0-0.2-0.1-0.2-0.2c0-0.7,0.1-1.4,0.1-2.1
				c0-0.1,0.1-0.2,0.2-0.2c0.1,0,0.2,0.1,0.2,0.2c-0.1,0.7-0.1,1.4-0.1,2.1C87.7,178.4,87.7,178.5,87.6,178.5z M87.9,174.3
				C87.9,174.3,87.9,174.3,87.9,174.3c-0.1,0-0.2-0.1-0.2-0.2c0.1-0.7,0.2-1.4,0.3-2.1c0-0.1,0.1-0.2,0.2-0.1c0.1,0,0.2,0.1,0.1,0.2
				c-0.1,0.7-0.2,1.4-0.3,2.1C88.1,174.2,88,174.3,87.9,174.3z M88.5,170.1C88.5,170.1,88.5,170.1,88.5,170.1
				c-0.1,0-0.2-0.1-0.2-0.2c0.1-0.7,0.3-1.4,0.4-2.1c0-0.1,0.1-0.2,0.2-0.1c0.1,0,0.2,0.1,0.1,0.2c-0.2,0.7-0.3,1.4-0.4,2.1
				C88.7,170.1,88.6,170.1,88.5,170.1z M89.4,166C89.4,166,89.4,166,89.4,166c-0.1,0-0.2-0.1-0.2-0.2c0.2-0.7,0.4-1.4,0.6-2
				c0-0.1,0.1-0.1,0.2-0.1c0.1,0,0.1,0.1,0.1,0.2c-0.2,0.7-0.4,1.4-0.6,2C89.6,166,89.5,166,89.4,166z M90.6,162
				C90.6,162,90.6,162,90.6,162c-0.1,0-0.2-0.1-0.2-0.2c0.2-0.7,0.4-1.3,0.7-2c0-0.1,0.1-0.1,0.2-0.1c0.1,0,0.1,0.1,0.1,0.2
				c-0.2,0.7-0.5,1.3-0.7,2C90.8,161.9,90.7,162,90.6,162z M92,158C92,158,92,158,92,158c-0.2,0-0.2-0.1-0.2-0.2
				c0.3-0.7,0.5-1.3,0.8-2c0-0.1,0.1-0.1,0.2-0.1c0.1,0,0.1,0.1,0.1,0.2c-0.3,0.6-0.5,1.3-0.8,1.9C92.2,158,92.1,158,92,158z
				 M93.7,154.2C93.6,154.2,93.6,154.1,93.7,154.2c-0.2-0.1-0.2-0.2-0.2-0.2c0.3-0.6,0.6-1.3,0.9-1.9c0-0.1,0.1-0.1,0.2-0.1
				c0.1,0,0.1,0.1,0.1,0.2c-0.3,0.6-0.6,1.3-0.9,1.9C93.8,154.1,93.7,154.2,93.7,154.2z M95.5,150.4
				C95.5,150.4,95.4,150.4,95.5,150.4c-0.2-0.1-0.2-0.2-0.2-0.3c0.3-0.6,0.7-1.2,1-1.9c0-0.1,0.2-0.1,0.2-0.1c0.1,0,0.1,0.2,0.1,0.2
				c-0.3,0.6-0.7,1.2-1,1.8C95.6,150.3,95.6,150.4,95.5,150.4z M97.5,146.7C97.5,146.7,97.5,146.7,97.5,146.7
				c-0.2-0.1-0.2-0.2-0.2-0.3c0.4-0.6,0.7-1.2,1.1-1.8c0.1-0.1,0.2-0.1,0.2-0.1c0.1,0.1,0.1,0.2,0.1,0.2c-0.4,0.6-0.7,1.2-1.1,1.8
				C97.7,146.7,97.6,146.7,97.5,146.7z M99.8,143.1C99.7,143.1,99.7,143.1,99.8,143.1c-0.2-0.1-0.2-0.2-0.1-0.3
				c0.4-0.6,0.8-1.2,1.2-1.7c0.1-0.1,0.2-0.1,0.2,0c0.1,0.1,0.1,0.2,0,0.2c-0.4,0.6-0.8,1.2-1.2,1.7
				C99.9,143.1,99.8,143.1,99.8,143.1z M102.2,139.7c0,0-0.1,0-0.1,0c-0.1-0.1-0.1-0.2,0-0.2c0.4-0.6,0.8-1.1,1.3-1.7
				c0.1-0.1,0.2-0.1,0.2,0c0.1,0.1,0.1,0.2,0,0.2c-0.4,0.6-0.8,1.1-1.3,1.7C102.3,139.6,102.2,139.7,102.2,139.7z M104.7,136.3
				c0,0-0.1,0-0.1,0c-0.1-0.1-0.1-0.2,0-0.2c0.4-0.5,0.9-1.1,1.3-1.6c0.1-0.1,0.2-0.1,0.2,0c0.1,0.1,0.1,0.2,0,0.2
				c-0.4,0.5-0.9,1.1-1.3,1.6C104.8,136.3,104.8,136.3,104.7,136.3z M107.4,133.1c0,0-0.1,0-0.1,0c-0.1-0.1-0.1-0.2,0-0.2
				c0.5-0.5,0.9-1.1,1.4-1.6c0.1-0.1,0.2-0.1,0.2,0c0.1,0.1,0.1,0.2,0,0.2c-0.5,0.5-0.9,1-1.4,1.6
				C107.5,133.1,107.5,133.1,107.4,133.1z M110.3,130c0,0-0.1,0-0.1,0c-0.1-0.1-0.1-0.2,0-0.2c0.5-0.5,1-1,1.5-1.5
				c0.1-0.1,0.2-0.1,0.2,0c0.1,0.1,0.1,0.2,0,0.2c-0.5,0.5-1,1-1.5,1.5C110.4,130,110.3,130,110.3,130z M113.3,127
				c0,0-0.1,0-0.1-0.1c-0.1-0.1-0.1-0.2,0-0.2c0.5-0.5,1-1,1.5-1.4c0.1-0.1,0.2-0.1,0.2,0c0.1,0.1,0.1,0.2,0,0.2
				c-0.5,0.5-1,0.9-1.5,1.4C113.3,127,113.3,127,113.3,127z M116.4,124.2c0,0-0.1,0-0.1-0.1c-0.1-0.1-0.1-0.2,0-0.2
				c0.5-0.5,1.1-0.9,1.6-1.4c0.1-0.1,0.2-0.1,0.2,0c0.1,0.1,0.1,0.2,0,0.2c-0.5,0.4-1.1,0.9-1.6,1.4
				C116.5,124.2,116.4,124.2,116.4,124.2z M119.6,121.5c-0.1,0-0.1,0-0.1-0.1c-0.1-0.1,0-0.2,0-0.2c0.5-0.4,1.1-0.9,1.7-1.3
				c0.1-0.1,0.2,0,0.2,0c0.1,0.1,0,0.2,0,0.2c-0.6,0.4-1.1,0.9-1.7,1.3C119.7,121.5,119.7,121.5,119.6,121.5z M123,118.9
				c-0.1,0-0.1,0-0.1-0.1c-0.1-0.1,0-0.2,0-0.2c0.6-0.4,1.2-0.8,1.7-1.2c0.1-0.1,0.2,0,0.2,0c0.1,0.1,0,0.2,0,0.2
				c-0.6,0.4-1.2,0.8-1.7,1.2C123.1,118.9,123,118.9,123,118.9z M126.5,116.6c-0.1,0-0.1,0-0.1-0.1c-0.1-0.1,0-0.2,0.1-0.2
				c0.6-0.4,1.2-0.8,1.8-1.1c0.1-0.1,0.2,0,0.2,0.1c0.1,0.1,0,0.2-0.1,0.2C127.8,115.8,127.2,116.1,126.5,116.6
				C126.5,116.5,126.5,116.6,126.5,116.6z M130.1,114.3c-0.1,0-0.1,0-0.2-0.1c0-0.1,0-0.2,0.1-0.2c0.6-0.4,1.2-0.7,1.8-1.1
				c0.1,0,0.2,0,0.2,0.1c0,0.1,0,0.2-0.1,0.2C131.4,113.6,130.7,113.9,130.1,114.3C130.1,114.3,130.1,114.3,130.1,114.3z
				 M133.7,112.3c-0.1,0-0.1,0-0.2-0.1c0-0.1,0-0.2,0.1-0.2c0.6-0.3,1.3-0.7,1.9-1c0.1,0,0.2,0,0.2,0.1c0,0.1,0,0.2-0.1,0.2
				C135.1,111.6,134.4,111.9,133.7,112.3C133.8,112.3,133.8,112.3,133.7,112.3z M137.5,110.4c-0.1,0-0.1,0-0.2-0.1
				c0-0.1,0-0.2,0.1-0.2c0.6-0.3,1.3-0.6,1.9-0.9c0.1,0,0.2,0,0.2,0.1c0,0.1,0,0.2-0.1,0.2C138.9,109.8,138.2,110.1,137.5,110.4
				C137.6,110.4,137.5,110.4,137.5,110.4z M141.4,108.7c-0.1,0-0.1,0-0.2-0.1c0-0.1,0-0.2,0.1-0.2c0.6-0.3,1.3-0.5,2-0.8
				c0.1,0,0.2,0,0.2,0.1c0,0.1,0,0.2-0.1,0.2C142.7,108.1,142.1,108.4,141.4,108.7C141.4,108.7,141.4,108.7,141.4,108.7z
				 M145.3,107.2c-0.1,0-0.1,0-0.2-0.1c0-0.1,0-0.2,0.1-0.2c0.7-0.2,1.3-0.5,2-0.7c0.1,0,0.2,0,0.2,0.1c0,0.1,0,0.2-0.1,0.2
				C146.7,106.7,146,106.9,145.3,107.2C145.3,107.2,145.3,107.2,145.3,107.2z M149.3,105.8c-0.1,0-0.1,0-0.2-0.1
				c0-0.1,0-0.2,0.1-0.2c0.7-0.2,1.4-0.4,2-0.6c0.1,0,0.2,0,0.2,0.1c0,0.1,0,0.2-0.1,0.2C150.7,105.4,150,105.6,149.3,105.8
				C149.3,105.8,149.3,105.8,149.3,105.8z M153.4,104.7c-0.1,0-0.2-0.1-0.2-0.1c0-0.1,0-0.2,0.1-0.2c0.7-0.2,1.4-0.3,2.1-0.5
				c0.1,0,0.2,0,0.2,0.1c0,0.1,0,0.2-0.1,0.2C154.8,104.4,154.1,104.5,153.4,104.7C153.4,104.7,153.4,104.7,153.4,104.7z
				 M157.5,103.8c-0.1,0-0.2-0.1-0.2-0.1c0-0.1,0-0.2,0.1-0.2c0.7-0.1,1.4-0.3,2.1-0.4c0.1,0,0.2,0,0.2,0.1c0,0.1,0,0.2-0.1,0.2
				C158.9,103.6,158.2,103.7,157.5,103.8C157.5,103.8,157.5,103.8,157.5,103.8z M161.6,103.1c-0.1,0-0.2-0.1-0.2-0.2
				c0-0.1,0.1-0.2,0.1-0.2c0.7-0.1,1.4-0.2,2.1-0.3c0.1,0,0.2,0.1,0.2,0.2c0,0.1-0.1,0.2-0.2,0.2C163.1,102.9,162.4,103,161.6,103.1
				C161.7,103.1,161.7,103.1,161.6,103.1z M180.5,102.8C180.5,102.8,180.5,102.8,180.5,102.8c-0.7-0.1-1.4-0.1-2.1-0.2
				c-0.1,0-0.2-0.1-0.2-0.2c0-0.1,0.1-0.2,0.2-0.2c0.7,0.1,1.4,0.1,2.1,0.2c0.1,0,0.2,0.1,0.2,0.2
				C180.7,102.8,180.6,102.8,180.5,102.8z M165.8,102.7c-0.1,0-0.2-0.1-0.2-0.2c0-0.1,0.1-0.2,0.2-0.2c0.7-0.1,1.4-0.1,2.1-0.1
				c0.1,0,0.2,0.1,0.2,0.2c0,0.1-0.1,0.2-0.2,0.2C167.2,102.6,166.5,102.6,165.8,102.7C165.8,102.7,165.8,102.7,165.8,102.7z
				 M176.3,102.5C176.3,102.5,176.3,102.5,176.3,102.5c-0.7,0-1.4-0.1-2.1-0.1c-0.1,0-0.2-0.1-0.2-0.2c0-0.1,0.1-0.2,0.2-0.2
				c0.7,0,1.4,0,2.1,0.1c0.1,0,0.2,0.1,0.2,0.2C176.5,102.4,176.4,102.5,176.3,102.5z M170,102.4c-0.1,0-0.2-0.1-0.2-0.2
				c0-0.1,0.1-0.2,0.2-0.2c0.7,0,1.4,0,2.1,0h0c0.1,0,0.2,0.1,0.2,0.2c0,0.1-0.1,0.2-0.2,0.2C171.4,102.4,170.7,102.4,170,102.4
				C170,102.4,170,102.4,170,102.4z"/>
		</g>
		<g>
			<path class="st1" d="M167.3,240.7C167.3,240.7,167.3,240.7,167.3,240.7c-0.4,0-0.7-0.1-1.1-0.1c-0.1,0-0.2-0.1-0.2-0.2
				c0-0.1,0.1-0.2,0.2-0.2c0.3,0,0.7,0.1,1,0.1c0.1,0,0.2,0.1,0.2,0.2C167.5,240.6,167.4,240.7,167.3,240.7z"/>
		</g>
	</g>
	<g>
		<path class="st2" d="M435.8,256.5c0-2.7-9.7-5.2-26.4-7.3c-4.6-6.9-43.1-12.2-89.8-12.2c-29.3,0-55.4,2.1-71.9,5.4
			c-100.3,0.1-181.1,6.4-181.1,14.2c0,3.1,12.9,5.9,34.8,8.3c-0.6,0.6-0.9,1.3-0.9,1.9c0,7.5,40.4,13.6,90.3,13.6
			c41,0,75.6-4.1,86.6-9.7C366.9,269.5,435.8,263.6,435.8,256.5z"/>
		<path class="st1" d="M190.8,280.4c-24.1,0-46.8-1.4-63.9-4c-17.2-2.6-26.6-6.1-26.6-9.8c0-0.6,0.2-1.2,0.7-1.8
			c-10.9-1.2-19.5-2.5-25.3-3.8c-6.3-1.5-9.4-3-9.4-4.6c0-2,4.8-3.9,14.4-5.6c9.1-1.7,22.1-3.2,38.8-4.5
			c34.1-2.7,79.6-4.2,128.2-4.2c17.3-3.4,43.5-5.4,71.9-5.4c46.5,0,85.1,5.2,90,12.2c17.6,2.2,26.5,4.8,26.5,7.5
			c0,4.5-24.9,7.7-45.8,9.5c-29.1,2.6-69.1,4.2-112.7,4.7c-5.4,2.8-16.8,5.2-32.1,7C229.6,279.4,210.7,280.4,190.8,280.4z
			 M319.5,237.1c-28.4,0-54.6,1.9-71.8,5.3c0,0,0,0-0.1,0c-48.6,0.1-94.1,1.6-128.1,4.2c-33.5,2.6-52.7,6.2-52.7,9.7
			c0,2.9,12.3,5.7,34.6,8.1c0.1,0,0.2,0,0.2,0.1c0,0.1,0,0.1,0,0.2c-0.6,0.6-0.8,1.2-0.8,1.8c0,3.5,9.6,6.9,26.3,9.4
			c17,2.6,39.7,4,63.8,4c19.9,0,38.7-1,54.5-2.8c15.3-1.7,26.6-4.2,32-6.9c0,0,0.1,0,0.1,0c43.6-0.5,83.6-2.1,112.7-4.7
			c14.4-1.3,25.6-2.7,33.4-4.2c9.9-2,12-3.8,12-4.9c0-1.7-4.6-4.4-26.2-7.1c-0.1,0-0.1,0-0.2-0.1c-2.2-3.3-12.5-6.3-28.9-8.6
			C363.5,238.4,342,237.1,319.5,237.1z"/>
	</g>
	<g>
		<g>
			<g>
				<path class="st2" d="M138.6,142.5c-0.1-0.3-33.1,8.8-33.3,9c0.1-0.2,7.1-13.9,20-17.2c2.9-0.8,6.1-1,9.6-0.4
					c3.8,0.6,7.1,2.1,9.7,4C141.8,138.3,140.1,140,138.6,142.5z"/>
			</g>
			<g>
				<path class="st2" d="M105.3,151.5C105.3,151.5,105.3,151.5,105.3,151.5L105.3,151.5z"/>
			</g>
		</g>
		<g>
			<g>
				<path class="st1" d="M138.6,142.5c-0.1-0.3-33.1,8.8-33.3,9c0.1-0.2,7.1-13.9,20-17.2c2.9-0.8,6.1-1,9.6-0.4
					c3.8,0.6,7.1,2.1,9.7,4C141.8,138.3,140.1,140,138.6,142.5z"/>
				<path class="st1" d="M105.3,151.7c0,0-0.1,0-0.1,0c-0.1-0.1-0.1-0.1,0-0.2c0.1-0.1,1.8-3.6,5.2-7.5c3.1-3.5,8.2-8.1,14.9-9.8
					c3.1-0.8,6.4-0.9,9.6-0.4c3.7,0.6,7,2,9.8,4c0.1,0,0.1,0.1,0.1,0.2c0,0.1-0.1,0.1-0.1,0.1c-2.4,0.4-4.1,1.8-5.8,4.6
					c0,0.1-0.1,0.1-0.2,0.1c0,0,0,0,0,0C137.3,142.8,105.7,151.5,105.3,151.7C105.3,151.7,105.3,151.7,105.3,151.7z M130.9,133.7
					c-1.9,0-3.8,0.2-5.6,0.7c-6.6,1.7-11.6,6.2-14.7,9.7c-2.8,3.2-4.4,6-5,7c2-0.6,10.4-2.9,16.2-4.5c13.7-3.7,16.2-4.3,16.7-4.4
					c1.6-2.7,3.3-4.1,5.6-4.6c-2.7-1.9-5.8-3.1-9.3-3.7C133.5,133.8,132.2,133.7,130.9,133.7z M138.5,142.6L138.5,142.6L138.5,142.6
					z M138.5,142.6C138.5,142.6,138.5,142.6,138.5,142.6C138.5,142.6,138.5,142.6,138.5,142.6z M138.5,142.6
					C138.5,142.6,138.5,142.6,138.5,142.6C138.5,142.6,138.5,142.6,138.5,142.6z M138.5,142.6C138.5,142.6,138.5,142.6,138.5,142.6
					C138.5,142.6,138.5,142.6,138.5,142.6z M138.5,142.6C138.5,142.6,138.5,142.6,138.5,142.6C138.5,142.6,138.5,142.6,138.5,142.6z
					 M138.5,142.6C138.5,142.6,138.5,142.6,138.5,142.6C138.5,142.6,138.5,142.6,138.5,142.6z"/>
			</g>
			<g>
				<path class="st1" d="M105.3,151.7c0,0-0.1,0-0.1-0.1c-0.1-0.1-0.1-0.2,0-0.2c0.1-0.1,0.2-0.1,0.2,0c0.1,0.1,0.1,0.2,0,0.2l0,0
					C105.4,151.7,105.3,151.7,105.3,151.7z"/>
			</g>
		</g>
		<g>
			<g>
				<path class="st1" d="M105.3,151.7c0,0-0.1,0-0.1,0c-0.1-0.1-0.1-0.1,0-0.2c0.1-0.1,1.8-3.6,5.2-7.5c3.1-3.5,8.2-8.1,14.9-9.8
					c3.1-0.8,6.4-0.9,9.6-0.4c3.7,0.6,7,2,9.8,4c0.1,0,0.1,0.1,0.1,0.2c0,0.1-0.1,0.1-0.1,0.1c-2.4,0.4-4.1,1.8-5.8,4.6
					c0,0.1-0.1,0.1-0.2,0.1c0,0,0,0,0,0C137.3,142.8,105.7,151.5,105.3,151.7C105.3,151.7,105.3,151.7,105.3,151.7z M130.9,133.7
					c-1.9,0-3.8,0.2-5.6,0.7c-6.6,1.7-11.6,6.2-14.7,9.7c-2.8,3.2-4.4,6-5,7c2-0.6,10.4-2.9,16.2-4.5c13.7-3.7,16.2-4.3,16.7-4.4
					c1.6-2.7,3.3-4.1,5.6-4.6c-2.7-1.9-5.8-3.1-9.3-3.7C133.5,133.8,132.2,133.7,130.9,133.7z M138.5,142.6L138.5,142.6L138.5,142.6
					z M138.5,142.6C138.5,142.6,138.5,142.6,138.5,142.6C138.5,142.6,138.5,142.6,138.5,142.6z M138.5,142.6
					C138.5,142.6,138.5,142.6,138.5,142.6C138.5,142.6,138.5,142.6,138.5,142.6z M138.5,142.6C138.5,142.6,138.5,142.6,138.5,142.6
					C138.5,142.6,138.5,142.6,138.5,142.6z M138.5,142.6C138.5,142.6,138.5,142.6,138.5,142.6C138.5,142.6,138.5,142.6,138.5,142.6z
					 M138.5,142.6C138.5,142.6,138.5,142.6,138.5,142.6C138.5,142.6,138.5,142.6,138.5,142.6z"/>
			</g>
			<g>
				<path class="st1" d="M105.3,151.7c0,0-0.1,0-0.1-0.1c-0.1-0.1-0.1-0.2,0-0.2c0.1-0.1,0.2-0.1,0.2,0c0.1,0.1,0.1,0.2,0,0.2l0,0
					C105.4,151.7,105.3,151.7,105.3,151.7z"/>
			</g>
		</g>
	</g>
	<g>
		<path class="st2" d="M308.7,235.7c-4.6,9.4-9.8,17.8-15.7,20.8c-27.5,10.9-52,10.8-64.7-2.7c-34-35.7-65-8.3-72.7-19.8
			c-10-15,25-28.4,6.2-42.3c-3.1-2.3-5.5-3.1-7.5-3l16.5-9.3l21.6-11.1l3.1-1.6c2.1-0.4,4.8,0.3,8.3,2.9
			c18.8,13.9-24.2,34.9-14.1,49.9c4.7,7,18.4-1.5,42.8-6.4c34.3-6.9,32.7,10.7,55.8,23.8C297.8,243.3,300.7,240.2,308.7,235.7z"/>
		<path class="st1" d="M257,264.5c-0.6,0-1.3,0-1.9,0c-5.7-0.2-10.8-1.1-15.2-2.9c-4.6-1.8-8.5-4.4-11.6-7.7
			c-21.8-22.9-42.6-19.7-56.3-17.7c-7.9,1.2-13.6,2.1-16.4-2.1c-4.7-7,0.3-13.7,5.2-20.1c3.7-5,7.3-9.7,6.6-14.4
			c-0.4-2.8-2.2-5.3-5.5-7.7c-2.9-2.1-5.3-3.1-7.4-3c-0.1,0-0.2,0-0.2-0.1c0-0.1,0-0.2,0.1-0.2l16.5-9.3l24.7-12.8c0,0,0,0,0,0
			c2.4-0.5,5.1,0.5,8.5,2.9c2.9,2.1,4.5,4.5,4.8,7.3c0.8,6-4.8,12.9-10.2,19.5c-6.5,8-13.3,16.3-8.7,23.1c3,4.5,9.8,2.4,21-0.9
			c5.9-1.7,13.1-3.9,21.6-5.6c10.7-2.2,18.7-2.1,24.9,0.3c5.8,2.2,9.7,6,14.3,10.4c4.3,4.2,9.2,8.9,16.7,13.1
			c8.3,5.8,11.5,3.9,17.7,0.3c0.8-0.4,1.5-0.9,2.4-1.4c0.1,0,0.2,0,0.2,0c0.1,0.1,0.1,0.1,0,0.2c-5.7,11.7-10.7,18.3-15.8,20.8
			C280,261.8,267.6,264.5,257,264.5z M187.1,234.4c3.2,0,6.6,0.2,10.1,0.9c11.4,2.1,21.6,8.1,31.3,18.3c6.1,6.6,15.1,10.1,26.6,10.5
			c11,0.3,24.1-2.3,37.8-7.8c5-2.5,9.9-8.9,15.4-20.2c-0.7,0.4-1.3,0.7-1.9,1.1c-6.4,3.7-9.6,5.6-18.1-0.3
			c-7.5-4.3-12.4-9-16.7-13.2c-9.2-8.9-15.8-15.3-39-10.6c-8.4,1.7-15.7,3.9-21.6,5.6c-11.4,3.4-18.3,5.4-21.4,0.8
			c-4.7-7,2.1-15.4,8.7-23.6c5.3-6.6,10.9-13.3,10.1-19.2c-0.3-2.6-1.9-4.9-4.7-7c-3.2-2.4-5.9-3.3-8.2-2.9L171,179.5l-16,9
			c2,0.1,4.3,1.1,6.9,3c3.4,2.5,5.2,5.1,5.6,7.9c0.7,4.9-2.9,9.7-6.6,14.7c-4.8,6.4-9.7,12.9-5.2,19.7c2.7,4,8.3,3.2,16.1,2
			C176.3,235.2,181.5,234.4,187.1,234.4z"/>
	</g>
	<g>
		<path class="st3" d="M164.5,188l31.7-18.7c0,0,13.5,5.2,9.5,14c-14.4,8.9-34.2,17.7-34.2,17.7S170,189.9,164.5,188z"/>
		<path class="st1" d="M171.5,201.2C171.4,201.2,171.4,201.2,171.5,201.2c-0.1,0-0.2-0.1-0.2-0.2c0-0.1-1.5-11.1-6.9-12.9
			c-0.1,0-0.1-0.1-0.1-0.1c0-0.1,0-0.1,0.1-0.2l31.7-18.7c0,0,0.1,0,0.2,0c0.3,0.1,7.7,3,9.8,8.2c0.8,2,0.7,4-0.2,6
			c0,0,0,0.1-0.1,0.1C191.6,192.2,171.7,201.1,171.5,201.2C171.5,201.2,171.5,201.2,171.5,201.2z M164.9,188
			c4.9,2.1,6.5,11.2,6.7,12.8c2.2-1,20.6-9.3,34-17.6c0.9-1.9,0.9-3.8,0.2-5.7c-1.9-4.8-8.7-7.7-9.5-8L164.9,188z"/>
	</g>
	<g>
		<path class="st2" d="M184.3,145.5c-18.9,9.8-23.7,27.6-13.4,33.9l-16.5,9.3c-6.4,0.3-8.4,10.3-14.3,13.8c-1.9,1.1-4.2,1.6-7.2,0.8
			c-15.2-3.9-11.6-24.7,9.4-35.6c13.1-6.8,12.7-22.2,2.3-29.8c-2.6-1.9-5.9-3.3-9.7-4c-3.5-0.6-6.7-0.4-9.6,0.4l36.4-19.9l0.1,0
			c4.2-2.3,9.3-3.6,15.2-2.6C196,114.9,200.7,136.9,184.3,145.5z"/>
		<path class="st1" d="M135.7,203.8c-0.9,0-1.9-0.1-2.9-0.4c-5.5-1.4-8.8-5-9.4-10.1c-0.5-4.1,1-8.9,4-13.4
			c3.4-4.9,8.4-9.2,14.7-12.5c5.8-3,9.4-8.1,9.8-13.9c0.5-6-2.4-11.8-7.5-15.5c-2.7-2-6-3.3-9.6-3.9c-3.2-0.5-6.4-0.4-9.5,0.4
			c-0.1,0-0.2,0-0.2-0.1c0-0.1,0-0.2,0.1-0.2l36.4-19.9l0.1,0c4.9-2.7,10-3.5,15.3-2.7c9.2,1.5,16,7.8,17.3,16c0.6,3.5,0,7-1.6,10.1
			c-1.7,3.3-4.6,6.1-8.3,8l-0.1-0.2l0.1,0.2c-11,5.7-18.3,14.9-18.6,23.4c-0.2,4.4,1.7,8.1,5.2,10.2c0.1,0,0.1,0.1,0.1,0.2
			c0,0.1,0,0.1-0.1,0.1l-16.5,9.3c0,0,0,0-0.1,0c-3.5,0.2-5.7,3.4-8,6.8c-1.8,2.6-3.6,5.4-6.2,6.9
			C138.8,203.4,137.3,203.8,135.7,203.8z M130.9,133.4c1.3,0,2.6,0.1,3.9,0.3c3.7,0.6,7,2,9.8,4c5.2,3.8,8.1,9.8,7.6,15.9
			c-0.5,6-4.1,11.1-10,14.2c-6.2,3.2-11.2,7.5-14.5,12.3c-3,4.4-4.4,9.1-4,13.1c0.6,5,3.8,8.4,9.1,9.8c2.7,0.7,5,0.4,7.1-0.8
			c2.5-1.5,4.3-4.2,6.1-6.8c2.3-3.5,4.6-6.8,8.2-7l16.3-9.1c-3.5-2.3-5.3-5.9-5.1-10.4c0.3-8.6,7.7-17.9,18.8-23.7l0,0
			c7.1-3.7,10.8-10.5,9.7-17.7c-1.3-8-7.9-14.2-17-15.7c-5.2-0.9-10.3,0-15.1,2.6l-0.1,0l-35.3,19.3
			C127.9,133.5,129.4,133.4,130.9,133.4z"/>
	</g>
	<g>
		<path class="st3" d="M156,156.9c15.2-8,36-22.9,36-22.9s1.3-13.2-9.7-16.2c-13.1,6.3-33.2,18.2-33.2,18.2S160.4,144.3,156,156.9z"
			/>
		<path class="st1" d="M156,157.1c0,0-0.1,0-0.1,0c-0.1,0-0.1-0.1-0.1-0.2c2.2-6.4,0.2-11.7-1.8-15c-2.2-3.6-5-5.7-5-5.7
			c0,0-0.1-0.1-0.1-0.2c0-0.1,0-0.1,0.1-0.1c0.2-0.1,20.3-11.9,33.3-18.2c0,0,0.1,0,0.1,0c5.8,1.5,8.1,5.9,9.1,9.3
			c1,3.7,0.7,7,0.7,7.1c0,0.1,0,0.1-0.1,0.1C191.9,134.4,171.2,149.2,156,157.1C156.1,157.1,156.1,157.1,156,157.1z M149.4,136.1
			c0.7,0.6,3,2.5,4.9,5.6c2,3.3,4,8.5,2,14.9c14.6-7.7,34.3-21.7,35.5-22.6c0-0.5,0.2-3.6-0.7-6.9c-1.4-4.8-4.3-7.8-8.8-9
			C170.2,124,151.7,134.8,149.4,136.1z"/>
	</g>
	<g>
		<path class="st1" d="M161.8,191.7l-21.8,10.8c5.9-3.5,7.9-13.4,14.3-13.8C156.4,188.6,158.8,189.4,161.8,191.7z"/>
		<path class="st1" d="M140.1,202.6c-0.1,0-0.1,0-0.2-0.1c0-0.1,0-0.2,0.1-0.2c2.5-1.5,4.3-4.2,6.1-6.8c2.4-3.5,4.6-6.8,8.3-7
			c2.2-0.1,4.7,0.9,7.6,3c0,0,0.1,0.1,0.1,0.2s0,0.1-0.1,0.1L140.1,202.6C140.1,202.6,140.1,202.6,140.1,202.6z M154.7,188.8
			c-0.1,0-0.2,0-0.3,0c-3.5,0.2-5.7,3.4-8,6.8c-1.4,2-2.8,4.1-4.6,5.7l19.7-9.7C158.9,189.8,156.7,188.8,154.7,188.8z"/>
	</g>
	<g>
		<g>
			<path class="st1" d="M230.4,228.5c-0.2,0.2-3.2-1.1-5.4,1.6s3.1,20.3,6.1,20.1c3-0.2,2.9-8.5,3-13.3
				C234.1,232.1,230.4,228.5,230.4,228.5z"/>
			<path class="st1" d="M231.1,250.4c-0.8,0-1.7-1-2.7-2.9c-2.5-4.9-5.2-15.4-3.5-17.5c1.8-2.2,4.1-1.8,5.1-1.7c0.1,0,0.3,0,0.3,0
				c0,0,0,0,0.1,0c0,0,0.1,0,0.1,0c0,0,3.8,3.7,3.8,8.5l0,0.7C234.2,242.6,234.2,250.2,231.1,250.4
				C231.1,250.4,231.1,250.4,231.1,250.4z M228.7,228.5c-1.1,0-2.4,0.3-3.5,1.7c-1.5,1.9,0.8,11.9,3.5,17.1c0.9,1.8,1.8,2.8,2.4,2.7
				c2.7-0.2,2.8-7.9,2.8-12.4l0-0.7c0-4.3-3.1-7.7-3.6-8.2c-0.1,0-0.2,0-0.4,0C229.6,228.6,229.2,228.5,228.7,228.5z"/>
		</g>
		<g>
			<path class="st2" d="M235.2,226.6l-2.4,7c0,0-4-1.2-4-4.8c2-5,2.1-5.5,2.1-5.5S234.9,224.6,235.2,226.6z"/>
			<path class="st1" d="M232.9,233.7C232.8,233.7,232.8,233.7,232.9,233.7c-0.1,0-4.2-1.3-4.2-5c0,0,0,0,0-0.1
				c1.9-4.9,2.1-5.4,2.1-5.4c0,0,0-0.1,0.1-0.1c0,0,0.1,0,0.1,0c0.2,0.1,4.1,1.4,4.4,3.4c0,0,0,0.1,0,0.1l-2.4,7
				C233,233.7,232.9,233.7,232.9,233.7z M229,228.8c0,3,3,4.3,3.7,4.5l2.3-6.7c-0.3-1.6-3.2-2.8-4-3
				C230.9,223.9,230.5,225.2,229,228.8z"/>
		</g>
		<g>
			<path class="st4" d="M222.5,156.6c0,0,38.4,12.6,37.2,26.2c-1.2,13.5-24,49.8-24,49.8c-2.7-0.2-5-2.9-6.9-7.7
				c0,0,13.5-35.8,11.2-43.2c-2.3-7.5-29-17.8-29-17.8L222.5,156.6z"/>
			<path class="st1" d="M235.7,232.8C235.7,232.8,235.7,232.8,235.7,232.8c-2.7-0.2-5.1-2.8-7.1-7.8c0,0,0-0.1,0-0.1
				c0.1-0.4,13.5-35.8,11.2-43.1c-2.3-7.3-28.6-17.6-28.9-17.7c-0.1,0-0.1-0.1-0.1-0.1c0-0.1,0-0.1,0.1-0.2l11.6-7.3
				c0,0,0.1,0,0.1,0c0.1,0,9.7,3.2,19.1,8c5.5,2.8,9.8,5.6,12.9,8.4c3.8,3.5,5.6,6.8,5.3,9.9c-1.2,13.4-23.8,49.5-24,49.9
				C235.8,232.7,235.7,232.8,235.7,232.8z M228.9,224.9c2,4.7,4.2,7.2,6.7,7.5c1.3-2,22.7-36.7,23.9-49.7c0.6-6.9-9.5-13.6-18-18
				c-8.9-4.6-18-7.7-19-8l-11.2,7.1c3.2,1.3,26.6,10.7,28.8,17.8C242.4,189,229.8,222.7,228.9,224.9z"/>
		</g>
		<g>
			<path class="st1" d="M259.3,235.7c0,0.2-3.3,0.8-3.7,4.3c-0.4,3.4,13.6,15.4,16,13.6c2.4-1.8-2.1-8.7-4.7-12.8
				S259.3,235.7,259.3,235.7z"/>
			<path class="st1" d="M271,253.9c-0.7,0-1.8-0.4-3.1-1.2c-4.8-2.7-12.7-10.1-12.4-12.8c0.3-2.8,2.5-3.8,3.4-4.2
				c0.1-0.1,0.3-0.1,0.3-0.2c0,0,0,0,0.1-0.1c0,0,0.1,0,0.1,0c0.1,0,5.2,1.1,7.8,5.1l0.4,0.6c2.7,4.2,6.7,10.6,4.3,12.5
				C271.6,253.8,271.3,253.9,271,253.9z M259.4,235.9c-0.1,0.1-0.2,0.1-0.4,0.2c-0.9,0.4-2.9,1.3-3.2,3.9
				c-0.3,2.4,7.2,9.6,12.2,12.5c1.8,1,3,1.3,3.5,1c2.2-1.6-1.9-8.1-4.4-12l-0.4-0.6C264.5,237.2,260.1,236.1,259.4,235.9z"/>
		</g>
		<g>
			<path class="st2" d="M262.3,231.5l1.8,7.1c0,0-4,1.1-5.9-1.9c-1.1-5.3-1.2-5.7-1.2-5.7S261,230,262.3,231.5z"/>
			<path class="st1" d="M262.4,239c-1.4,0-3.2-0.4-4.4-2.1c0,0,0,0,0-0.1c-1-5.2-1.2-5.7-1.2-5.7c0,0,0-0.1,0-0.1
				c0,0,0.1-0.1,0.1-0.1c0.2,0,4.2-1,5.5,0.5c0,0,0,0,0,0.1l1.8,7.1c0,0.1,0,0.2-0.1,0.2C264.1,238.8,263.4,239,262.4,239z
				 M258.3,236.7c1.6,2.5,4.8,2,5.6,1.8l-1.7-6.9c-1.1-1.2-4.2-0.6-5-0.4C257.3,231.6,257.6,232.9,258.3,236.7z"/>
		</g>
		<g>
			<path class="st4" d="M192.6,163.7c0,0-0.5,13.2,24.1,17.7c24.6,4.4,35.6,52,35.6,52s11,2.7,12.3-2.5c-4.3-18-12.3-61.2-41.6-69.6
				C201.5,155.2,192.6,163.7,192.6,163.7z"/>
			<path class="st1" d="M258.1,234.2c0,0-0.1,0-0.1,0c-2.9,0-5.7-0.7-5.7-0.7c-0.1,0-0.1-0.1-0.1-0.1c0-0.1-2.8-12-8.6-24.3
				c-5.3-11.3-14.3-25.3-26.9-27.5c-12.7-2.3-18.6-7-21.3-10.6c-3-3.9-2.9-7.1-2.9-7.3c0,0,0-0.1,0.1-0.1c0.1-0.1,2.3-2.2,7.2-3.5
				c4.5-1.3,12.2-2.1,23.2,1c6.4,1.8,12.3,5.5,17.4,10.8c4.4,4.6,8.3,10.5,11.7,17.7c6.2,13,9.6,27.6,11.8,37.3
				c0.3,1.4,0.6,2.7,0.9,3.9c0,0,0,0.1,0,0.1C264.2,233,261.9,234.2,258.1,234.2z M252.4,233.2c0.5,0.1,3,0.6,5.5,0.7
				c2.6,0,5.8-0.5,6.4-3c-0.3-1.2-0.6-2.5-0.9-3.8c-2.2-9.7-5.6-24.3-11.8-37.3c-7.4-15.4-17.1-25-28.8-28.3
				c-11-3.1-18.6-2.3-23-1.1c-4.4,1.2-6.7,3.1-7,3.4c0,0.5,0.2,3.5,2.8,7c2.7,3.5,8.5,8.1,21.1,10.4c5.6,1,11,4.4,16,10.1
				c4,4.5,7.7,10.5,11.1,17.7C249.3,220.6,252.1,231.9,252.4,233.2z"/>
		</g>
		<g>
			<path class="st1" d="M213.2,114.4c0,0,0.9,5.2,0,5.8c-0.9,0.6-4.4-0.4-4.4-0.7c0.1-0.3,0.8-4.6,0.8-4.6L213.2,114.4z"/>
			<path class="st1" d="M212.3,120.5c-1.3,0-3.1-0.5-3.5-0.8c-0.1-0.1-0.2-0.2-0.2-0.3c0.1-0.3,0.8-4.5,0.8-4.6
				c0-0.1,0.1-0.1,0.1-0.1l3.6-0.6c0.1,0,0.2,0,0.2,0.1c0.2,0.9,0.9,5.4-0.1,6C213.1,120.5,212.7,120.5,212.3,120.5z M209,119.5
				c0.4,0.3,3.3,1.1,4.1,0.6c0.6-0.3,0.3-3.3-0.1-5.5l-3.3,0.5C209.7,115.8,209.1,118.9,209,119.5z"/>
		</g>
		<g>
			<path class="st2" d="M234,142.9c-1.4,0.3-2.9,0.7-6,2c-8.8,2.3,1.5-20.5-13.5-25l-0.9,32.3c9.8,1.4,18.6-4.6,20.6-5
				C235.4,146.9,236.1,142.8,234,142.9z"/>
			<path class="st1" d="M216.6,152.5c-1,0-2-0.1-3-0.2c-0.1,0-0.2-0.1-0.2-0.2l0.9-32.3c0-0.1,0-0.1,0.1-0.1c0,0,0.1,0,0.2,0
				c8.5,2.6,9,11.2,9.3,17.5c0.2,3.4,0.3,6.4,1.7,7.4c0.6,0.4,1.4,0.5,2.4,0.2c3.1-1.2,4.6-1.7,6-2c0,0,0,0,0.1,0
				c0.9,0,1.4,0.6,1.5,1.6c0.1,1.2-0.4,2.8-1.3,3c-0.4,0.1-1.3,0.5-2.4,1C228.6,149.8,223,152.5,216.6,152.5z M213.8,152
				c7.4,1,14.2-2.2,17.9-4c1.1-0.5,2-0.9,2.5-1c0.6-0.1,1.1-1.5,1-2.6c-0.1-0.5-0.3-1.3-1.2-1.3c0,0,0,0,0,0c-1.4,0.3-2.9,0.8-5.9,2
				c0,0,0,0,0,0c-1.1,0.3-2,0.2-2.7-0.3c-1.5-1.1-1.7-4-1.8-7.6c-0.3-6.4-0.7-14.4-8.8-17.1L213.8,152z M228,144.8L228,144.8
				L228,144.8z"/>
		</g>
		<g>
			<path class="st2" d="M234.1,143.3c0,0,4.2,0.2,5.1,1.7c0.9,1.4,0.7,4.5,0.7,4.5s-1.4,1.3-3.1,0.2c-1.7-1-1.8-3.1-3-3.2
				C232.3,145.3,233.2,143.6,234.1,143.3z"/>
			<path class="st1" d="M238.2,150.2c-0.4,0-1-0.1-1.5-0.4c-0.9-0.5-1.4-1.4-1.8-2c-0.4-0.6-0.7-1.1-1.2-1.2c0,0-0.1,0-0.1,0
				c-0.9-0.7-0.9-1.5-0.8-1.9c0.1-0.7,0.6-1.3,1.2-1.5c0,0,0,0,0.1,0c0.2,0,4.3,0.3,5.2,1.7c0.9,1.4,0.8,4.5,0.7,4.6
				c0,0,0,0.1-0.1,0.1C240,149.6,239.3,150.2,238.2,150.2z M233.8,146.2c0.7,0.1,1,0.7,1.4,1.4c0.4,0.7,0.8,1.4,1.6,1.9
				c1.4,0.9,2.6,0.1,2.9-0.2c0-0.5,0.1-3.1-0.7-4.3c-0.8-1.3-4.5-1.5-4.9-1.6c-0.5,0.2-0.9,0.7-1,1.2
				C233.1,145.3,233.3,145.8,233.8,146.2z"/>
		</g>
		<g>
			<path class="st2" d="M216.7,120.8c-3.4-2.2-8.1-2.8-14.8-1.4c0,0-7.6,0.4-9.1,10.1c-1.8,11.7-1.1,35.1-1.1,35.1
				s33.1,0.3,35.3-8.1c-3.5-5.5-6.4-8-5.8-18.7L216.7,120.8z"/>
			<path class="st1" d="M192,164.9c-0.2,0-0.3,0-0.3,0c-0.1,0-0.2-0.1-0.2-0.2c0-0.2-0.7-23.6,1.1-35.2c0.8-5.1,3.2-7.6,5.2-8.8
				c2-1.3,3.9-1.4,4-1.4c6.5-1.4,11.4-0.9,15,1.4c0.1,0.1,0.1,0.2,0.1,0.2c-0.1,0.1-0.2,0.1-0.2,0.1c-3.5-2.3-8.3-2.7-14.7-1.3
				c0,0,0,0,0,0c0,0-1.9,0.1-3.9,1.4c-1.9,1.2-4.2,3.6-5,8.6c-1.7,11-1.2,32.8-1.1,34.9c0,0,0,0,0.1,0c3,0,32.7-0.2,34.9-7.9
				c-0.5-0.7-0.9-1.4-1.4-2.1c-2.8-4.1-4.9-7.4-4.4-16.7c0-0.1,0.1-0.2,0.2-0.2c0.1,0,0.2,0.1,0.2,0.2c-0.5,9.2,1.5,12.2,4.4,16.4
				c0.5,0.7,0.9,1.4,1.4,2.2c0,0,0,0.1,0,0.1c-0.9,3.5-7.2,6-18.7,7.3C201,164.8,193.6,164.9,192,164.9z"/>
		</g>
		<g>
			<polygon class="st1" points="228.3,162.3 242,153.3 241.3,153.3 229.3,160.3 			"/>
			<path class="st1" d="M228.3,162.4c0,0-0.1,0-0.1,0c-0.1-0.1-0.1-0.1,0-0.2l1-2c0,0,0-0.1,0.1-0.1l12-7c0,0,0.1,0,0.1,0h0.7
				c0.1,0,0.1,0.1,0.2,0.1c0,0.1,0,0.2-0.1,0.2L228.3,162.4C228.4,162.4,228.3,162.4,228.3,162.4z M229.4,160.4l-0.7,1.4l12.6-8.3
				h-0.1L229.4,160.4z"/>
		</g>
		<g>
			<polygon class="st1" points="212.1,155.2 229.4,160.4 228.3,162.3 211.3,156.6 			"/>
			<path class="st1" d="M228.3,162.4C228.3,162.4,228.3,162.4,228.3,162.4l-17.1-5.6c0,0-0.1-0.1-0.1-0.1c0,0,0-0.1,0-0.1l0.8-1.4
				c0-0.1,0.1-0.1,0.2-0.1l17.2,5.2c0.1,0,0.1,0.1,0.1,0.1c0,0,0,0.1,0,0.2l-1.1,1.9C228.4,162.4,228.4,162.4,228.3,162.4z
				 M211.6,156.5l16.7,5.5l0.9-1.5l-16.9-5.1L211.6,156.5z"/>
		</g>
		<g>
			<path class="st2" d="M230.9,147.1c-0.6,0.1-18.7,8.1-18.7,8.1l17.2,5.2l14-8.8L230.9,147.1z"/>
			<path class="st1" d="M229.4,160.6C229.4,160.6,229.3,160.6,229.4,160.6l-17.3-5.2c-0.1,0-0.1-0.1-0.1-0.2c0-0.1,0-0.1,0.1-0.2
				c1.9-0.8,18.2-7.9,18.8-8.1c0,0,0.1,0,0.1,0l12.5,4.4c0.1,0,0.1,0.1,0.1,0.1c0,0.1,0,0.1-0.1,0.2L229.4,160.6
				C229.4,160.6,229.4,160.6,229.4,160.6z M212.6,155.2l16.7,5l13.6-8.6l-12.1-4.3C229.9,147.6,217.9,152.9,212.6,155.2z"/>
		</g>
		<g>
			<polygon class="st1" points="244.6,142.4 229.3,160.3 230.4,161 245.4,143.3 			"/>
			<path class="st1" d="M230.4,161.1C230.4,161.1,230.4,161.1,230.4,161.1l-1.2-0.7c0,0-0.1-0.1-0.1-0.1c0-0.1,0-0.1,0-0.1
				l15.3-17.9c0,0,0.1-0.1,0.1-0.1c0,0,0.1,0,0.1,0.1l0.9,0.9c0.1,0.1,0.1,0.2,0,0.2l-15,17.7C230.5,161.1,230.5,161.1,230.4,161.1z
				 M229.6,160.2l0.8,0.5l14.8-17.4l-0.6-0.6L229.6,160.2z"/>
		</g>
		<g>
			<polygon class="st1" points="259.6,133.8 244.6,142.4 245.4,143.3 260.2,134.7 			"/>
			<path class="st1" d="M245.4,143.5c0,0-0.1,0-0.1-0.1l-0.9-0.9c0,0-0.1-0.1,0-0.1c0-0.1,0-0.1,0.1-0.1l15-8.6c0.1,0,0.2,0,0.2,0.1
				l0.6,0.9c0,0,0,0.1,0,0.1c0,0,0,0.1-0.1,0.1L245.4,143.5C245.5,143.5,245.5,143.5,245.4,143.5z M244.8,142.4l0.6,0.6l14.4-8.4
				l-0.4-0.6L244.8,142.4z"/>
		</g>
		<g>
			<polygon class="st2" points="230.4,161 246.1,151.6 260.2,134.7 245.4,143.3 			"/>
			<path class="st1" d="M230.4,161.1c-0.1,0-0.1,0-0.1-0.1c-0.1-0.1-0.1-0.2,0-0.2l15-17.7c0,0,0,0,0,0l14.7-8.6c0.1,0,0.2,0,0.2,0
				c0.1,0.1,0.1,0.2,0,0.2l-14.1,17c0,0,0,0,0,0L230.4,161.1C230.5,161.1,230.5,161.1,230.4,161.1z M245.6,143.4l-14.3,16.9
				l14.7-8.8l13.4-16.2L245.6,143.4z"/>
		</g>
		<g>
			<path class="st2" d="M199.7,119.9c0,0-21.1,6.3-14.9,27.9c4.6,16.2,24.2,6.5,29.1,3.7c2-1.1,1.3-4-1.3-4c-0.7,0.3-1.6,0.6-2.6,1
				c-5.6,2.2-19.9,0.2-16.9-12.6L199.7,119.9z"/>
			<path class="st1" d="M196.6,157.1c-1.9,0-3.7-0.3-5.3-1c-3.3-1.4-5.5-4.1-6.7-8.3c-1.4-5-1.5-9.5-0.3-13.6c1-3.2,2.8-6.1,5.5-8.6
				c4.5-4.2,9.8-5.9,9.8-5.9c0.1,0,0.2,0,0.2,0.1c0,0.1,0,0.2-0.1,0.2c-0.1,0-5.3,1.6-9.7,5.8c-4.1,3.9-8.2,10.8-5.1,21.8
				c1.2,4,3.3,6.7,6.5,8.1c1.6,0.7,3.4,0.9,5.2,0.9c6.9,0,14.5-3.9,17.1-5.4c0.8-0.4,1.2-1.3,1-2.1c-0.2-0.7-0.8-1.5-2.1-1.5
				c0,0,0,0,0,0c-0.7,0.3-1.6,0.6-2.6,1c-3.3,1.3-10.3,1.2-14.4-2.4c-2.8-2.4-3.8-6-2.7-10.4c0-0.1,0.1-0.2,0.2-0.1
				c0.1,0,0.2,0.1,0.1,0.2c-1,4.3-0.1,7.7,2.6,10.1c4,3.5,10.9,3.6,14.1,2.3c1-0.4,1.9-0.7,2.6-1c0,0,0,0,0.1,0
				c1.3,0,2.3,0.7,2.5,1.7c0.3,1-0.2,2-1.2,2.5C211.3,153.2,203.6,157.1,196.6,157.1z"/>
		</g>
		<g>
			<path class="st2" d="M209.7,121.6l0.4-5.6c0,0,7.9,2.7,8.2-10.4c0.2-7.9-6.9-9.9-11-5.7c-4.1,4.2-1.7,11.3-2.7,14.3
				c-0.7,2-3,4.9-3.8,6.7C200.3,121.8,207,125.6,209.7,121.6z"/>
			<path class="st1" d="M206.1,123.5c-1.6,0-3.1-0.6-4.1-1.1c-0.8-0.5-1.7-1.1-1.4-1.6c0.4-0.7,0.9-1.7,1.6-2.6
				c0.9-1.4,1.8-2.9,2.2-4c0.3-1,0.3-2.4,0.2-4.1c-0.1-3.3-0.2-7.4,2.5-10.3c2-2.1,4.9-2.7,7.2-1.7c2.6,1.1,4.1,3.9,4,7.6
				c-0.1,4.9-1.3,8.2-3.5,9.8c-1.9,1.4-4,1-4.7,0.8l-0.4,5.4c0,0,0,0.1,0,0.1C208.9,123.1,207.5,123.5,206.1,123.5z M212.1,97.9
				c-1.7,0-3.4,0.7-4.7,2.1c-2.7,2.7-2.5,6.8-2.4,10c0.1,1.7,0.1,3.2-0.3,4.2c-0.4,1.2-1.3,2.7-2.3,4.1c-0.6,1-1.2,1.9-1.5,2.6
				c0,0.1,0.3,0.6,1.3,1.2c1.7,1,5.5,2.1,7.3-0.6l0.4-5.5c0-0.1,0-0.1,0.1-0.1c0,0,0.1,0,0.2,0c0,0,2.5,0.8,4.6-0.7
				c2.1-1.5,3.3-4.7,3.4-9.5c0.1-3.6-1.3-6.2-3.8-7.3C213.6,98,212.9,97.9,212.1,97.9z M209.7,121.6L209.7,121.6L209.7,121.6z"/>
		</g>
	</g>
	<g>
		<path class="st1" d="M196.4,121.3c0,0,4-1.2,6.2-1.6c5.2-1.2,4.5-6.6,4.1-10.5c-0.3-3.8,1.2-4.7,1.8-4.2c0.7,0.4,2.9-0.3,3.6-1.9
			c4.1,0.1,3.8,4,7.2,4.6c0,0,3.7-5.3,1.1-9c-2.7-3.7-6.5-2.3-6.5-2.3s-4.7-4.2-9.8,0.2C199,101.1,196,118.4,196.4,121.3z"/>
		<path class="st1" d="M196.4,121.5C196.3,121.5,196.3,121.5,196.4,121.5c-0.1-0.1-0.2-0.1-0.2-0.2c-0.2-1.6,0.5-6.7,1.8-11.9
			c0.9-3.7,3-10.4,5.9-13c4.8-4.2,9.3-0.8,10-0.3c0.6-0.2,4.1-1,6.6,2.4c2.7,3.7-0.9,9-1.1,9.2c0,0.1-0.1,0.1-0.2,0.1
			c-1.6-0.3-2.4-1.3-3.1-2.3c-0.9-1.2-1.8-2.2-3.9-2.3c-0.5,1-1.5,1.6-2.3,1.9c-0.6,0.2-1.2,0.2-1.5,0c-0.2-0.1-0.4-0.1-0.6,0
			c-0.3,0.2-1.2,1-0.9,4l0,0.5c0.3,3.8,0.8,9-4.3,10.2C200.4,120.3,196.5,121.5,196.4,121.5C196.4,121.5,196.4,121.5,196.4,121.5z
			 M209,94.8c-1.5,0-3.1,0.5-4.9,2c-4.9,4.2-7.8,20.8-7.6,24.3c0.8-0.3,4.1-1.2,6-1.6c4.8-1.1,4.4-5.9,4-9.8l0-0.5
			c-0.3-3.2,0.7-4.1,1.1-4.4c0.3-0.2,0.7-0.2,1,0c0.2,0.1,0.7,0.1,1.2-0.1c0.8-0.2,1.7-0.8,2.1-1.8c0-0.1,0.1-0.1,0.2-0.1
			c2.3,0,3.3,1.3,4.2,2.5c0.7,0.9,1.4,1.8,2.8,2.2c0.5-0.7,3.3-5.4,1-8.7c-2.5-3.5-6.1-2.3-6.3-2.3c-0.1,0-0.1,0-0.2,0
			C213.6,96.4,211.7,94.8,209,94.8z"/>
	</g>
	<g>
		<path class="st2" d="M212.8,148.1c0,0,4.8-1.7,7.3-0.6s3.2,7.2,3.2,7.2s-0.2,0.4-0.8,0c-0.7-0.4-1.7-4-1.7-4s-0.4,1.9-2,2.4
			c-1.6,0.4-3.3-0.9-3.8-1.4c-0.4-0.5-2.2-0.7-2.2-0.7S211.9,149.4,212.8,148.1z"/>
		<path class="st1" d="M223,155.1c-0.2,0-0.4-0.1-0.6-0.2c-0.6-0.3-1.3-2.5-1.7-3.6c-0.2,0.6-0.8,1.6-1.9,1.9
			c-1.7,0.5-3.5-0.9-3.9-1.4c-0.3-0.3-1.4-0.6-2.1-0.6c-0.1,0-0.1,0-0.1-0.1c0-0.1-0.9-1.7,0-3.1c0,0,0.1-0.1,0.1-0.1
			c0.2-0.1,4.9-1.7,7.4-0.6c2.6,1.2,3.3,7.1,3.3,7.4c0,0,0,0.1,0,0.1c0,0-0.1,0.2-0.3,0.3C223.1,155.1,223.1,155.1,223,155.1z
			 M220.7,150.6c0.1,0,0.1,0.1,0.2,0.1c0.4,1.4,1.2,3.6,1.7,3.9c0.3,0.2,0.5,0.2,0.5,0.1c0,0,0,0,0.1,0c-0.1-0.6-0.9-6-3.1-7
			c-2.3-1-6.6,0.4-7.1,0.6c-0.6,1-0.1,2.3,0,2.6c0.4,0.1,1.8,0.3,2.2,0.7c0.4,0.5,2.1,1.7,3.6,1.3c1.5-0.4,1.8-2.2,1.8-2.2
			C220.6,150.7,220.6,150.6,220.7,150.6C220.7,150.6,220.7,150.6,220.7,150.6z"/>
	</g>
	<g>
		<path class="st1" d="M179.7,206.6c-0.1,0-0.2-0.1-0.2-0.2c-0.1-0.1,0-0.3,0.1-0.3l26.6-12.2c0.1-0.1,0.3,0,0.3,0.1
			c0.1,0.1,0,0.3-0.1,0.3l-26.6,12.2C179.8,206.6,179.8,206.6,179.7,206.6z"/>
	</g>
	<g>
		<path class="st1" d="M174.2,216.2c-0.1,0-0.2-0.1-0.2-0.2c-0.1-0.1,0-0.3,0.1-0.3l26.3-12.3c0.1-0.1,0.3,0,0.3,0.1
			c0.1,0.1,0,0.3-0.1,0.3l-26.3,12.3C174.2,216.2,174.2,216.2,174.2,216.2z"/>
	</g>
	<g>
		<path class="st1" d="M169.1,225.5c-0.1,0-0.2-0.1-0.2-0.2c-0.1-0.1,0-0.3,0.1-0.3l27.5-12.9c0.1-0.1,0.3,0,0.3,0.1
			c0.1,0.1,0,0.3-0.1,0.3l-27.5,12.9C169.2,225.5,169.1,225.5,169.1,225.5z"/>
	</g>
	<g>
		<path class="st1" d="M148.5,166.1c-0.1,0-0.2-0.1-0.2-0.1c-0.1-0.1,0-0.3,0.1-0.4l22.7-12c0.1-0.1,0.3,0,0.4,0.1
			c0.1,0.1,0,0.3-0.1,0.4l-22.7,12C148.6,166.1,148.6,166.1,148.5,166.1z"/>
	</g>
	<g>
		<path class="st1" d="M134.6,178.2c-0.1,0-0.2-0.1-0.2-0.1c-0.1-0.1,0-0.3,0.1-0.4l29.8-14.4c0.1-0.1,0.3,0,0.4,0.1
			c0.1,0.1,0,0.3-0.1,0.4l-29.8,14.4C134.7,178.2,134.7,178.2,134.6,178.2z"/>
	</g>
	<g>
		<path class="st1" d="M129.8,195.1c-0.1,0-0.2-0.1-0.2-0.1c-0.1-0.1,0-0.3,0.1-0.4l34.7-17.9c0.1-0.1,0.3,0,0.4,0.1
			c0.1,0.1,0,0.3-0.1,0.4l-34.7,17.9C129.9,195.1,129.8,195.1,129.8,195.1z"/>
	</g>
	<g>
		<path class="st1" d="M147.2,201.3c-0.1,0-0.2,0-0.2-0.1c-0.1-0.1,0-0.3,0.1-0.4l10.2-6.8c0.1-0.1,0.3,0,0.4,0.1
			c0.1,0.1,0,0.3-0.1,0.4l-10.2,6.8C147.3,201.3,147.2,201.3,147.2,201.3z"/>
	</g>
	<g>
		<path class="st1" d="M129.2,188.2c-0.1,0-0.2-0.1-0.2-0.1c-0.1-0.1,0-0.3,0.1-0.4l32.6-15.9c0.1-0.1,0.3,0,0.4,0.1
			c0.1,0.1,0,0.3-0.1,0.4l-32.6,15.9C129.3,188.2,129.3,188.2,129.2,188.2z"/>
	</g>
	<g>
		<path class="st1" d="M143.4,130.5c-0.1,0-0.2,0-0.2-0.1c-0.1-0.1,0-0.3,0.1-0.4l27.8-15.5c0.1-0.1,0.3,0,0.4,0.1
			c0.1,0.1,0,0.3-0.1,0.4l-27.8,15.5C143.5,130.5,143.4,130.5,143.4,130.5z"/>
	</g>
	<g>
		<g>
			<path class="st1" d="M64.5,162.9C64.4,162.9,64.4,162.8,64.5,162.9l-13.7-6.1c-0.1,0-0.1-0.1-0.1-0.2s0-0.2,0.1-0.2l11.7-9.6
				c0.1-0.1,0.2-0.1,0.2,0c0.1,0,0.1,0.1,0.1,0.2l1.8,15.7c0,0.1,0,0.2-0.1,0.2C64.6,162.8,64.5,162.9,64.5,162.9z M51.4,156.4
				l12.8,5.8l-1.7-14.8L51.4,156.4z"/>
		</g>
		<g>
			<polygon class="st1" points="45.3,209.3 40,208.4 34.7,207.5 38.1,203 41.5,198.6 43.4,203.9 			"/>
			<path class="st1" d="M45.3,209.5C45.3,209.5,45.3,209.5,45.3,209.5l-10.6-1.8c-0.1,0-0.1-0.1-0.1-0.1c0-0.1,0-0.1,0-0.2l6.8-8.9
				c0,0,0.1-0.1,0.2-0.1c0.1,0,0.1,0.1,0.1,0.1l3.8,10.7c0,0.1,0,0.1,0,0.2C45.4,209.4,45.3,209.5,45.3,209.5z M35,207.3l10,1.7
				l-3.6-10.2L35,207.3z"/>
		</g>
	</g>
	<g>
		<path class="st2" d="M205.2,125c0,0,1.4,0.3,2.6-0.7c1.3,1.9,1.2,9,1,11.6L205.2,125z"/>
		<path class="st1" d="M208.8,136.1C208.8,136.1,208.8,136.1,208.8,136.1c-0.1,0-0.2-0.1-0.2-0.2c0.1-2.2,0.3-9.2-0.9-11.4
			c-1.2,0.9-2.5,0.6-2.6,0.6c-0.1,0-0.2-0.1-0.1-0.2c0-0.1,0.1-0.2,0.2-0.1c0,0,1.3,0.2,2.4-0.7c0,0,0.1,0,0.1,0c0,0,0.1,0,0.1,0.1
			c1.4,1.9,1.2,8.8,1.1,11.7C209,136,208.9,136.1,208.8,136.1z"/>
	</g>
	<g>
		<path class="st2" d="M219.9,127.8c0,0,1.8,4.2,1.4,7.7L219.9,127.8z"/>
		<path class="st1" d="M221.3,135.7C221.3,135.7,221.3,135.7,221.3,135.7c-0.1,0-0.2-0.1-0.2-0.2c0.4-3.5-1.4-7.6-1.4-7.7
			c0-0.1,0-0.2,0.1-0.2c0.1,0,0.2,0,0.2,0.1c0.1,0.2,1.9,4.3,1.4,7.8C221.5,135.6,221.4,135.7,221.3,135.7z"/>
	</g>
	<g>
		<path class="st1" d="M182.9,229.1c-0.1,0-0.2-0.1-0.2-0.2c-0.1-0.1,0-0.3,0.1-0.3l15.3-7.2c0.1-0.1,0.3,0,0.3,0.1
			c0.1,0.1,0,0.3-0.1,0.3l-15.3,7.2C183,229.1,182.9,229.1,182.9,229.1z"/>
	</g>
	<g>
		<path class="st1" d="M208.1,95.6c0,0-1.3-6.4-6.7-3.7c-5.4,2.7-2.1,15.3-2.1,15.3L208.1,95.6z"/>
		<path class="st1" d="M199.3,107.3C199.3,107.3,199.3,107.3,199.3,107.3c-0.1,0-0.2-0.1-0.2-0.1c-0.1-0.5-3.3-12.8,2.2-15.5
			c1.6-0.8,3-0.9,4.1-0.3c2.2,1.1,2.8,4.1,2.8,4.2c0,0,0,0.1,0,0.1l-8.8,11.6C199.4,107.3,199.4,107.3,199.3,107.3z M203.9,91.4
			c-0.7,0-1.5,0.2-2.4,0.6c-4.7,2.3-2.6,12.7-2.1,14.8l8.5-11.2c-0.1-0.5-0.8-3-2.6-3.9C204.9,91.5,204.4,91.4,203.9,91.4z"/>
	</g>
	<g>
		<polygon class="st4" points="245.8,184 243.4,188.1 247.6,186.5 246.2,189.5 248.3,189.5 		"/>
		<path class="st1" d="M248.3,189.6h-2.1c-0.1,0-0.1,0-0.1-0.1c0-0.1,0-0.1,0-0.2l1.2-2.6l-3.8,1.4c-0.1,0-0.1,0-0.2-0.1
			c0-0.1-0.1-0.1,0-0.2l2.4-4.1c0-0.1,0.2-0.1,0.2-0.1c0.1,0,0.1,0.2,0.1,0.2l-2.1,3.6l3.8-1.4c0.1,0,0.1,0,0.2,0
			c0,0.1,0.1,0.1,0,0.2l-1.3,2.7h1.8c0.1,0,0.2,0.1,0.2,0.2S248.4,189.6,248.3,189.6z"/>
	</g>
	<g>
		<polygon class="st4" points="257.8,180 256,182.7 258.7,182.7 256.4,184.7 257.8,185.5 		"/>
		<path class="st1" d="M257.8,185.6C257.8,185.6,257.8,185.6,257.8,185.6l-1.5-0.8c-0.1,0-0.1-0.1-0.1-0.1c0-0.1,0-0.1,0.1-0.2
			l1.9-1.7H256c-0.1,0-0.1,0-0.2-0.1c0-0.1,0-0.1,0-0.2l1.8-2.7c0.1-0.1,0.2-0.1,0.2,0c0.1,0.1,0.1,0.2,0,0.2l-1.6,2.4h2.3
			c0.1,0,0.1,0,0.2,0.1c0,0.1,0,0.1,0,0.2l-2.1,1.8l1.2,0.6c0.1,0,0.1,0.2,0.1,0.2C257.9,185.6,257.9,185.6,257.8,185.6z"/>
	</g>
</g>
<g>
	<g>
		<g>
			<path class="st1" d="M511,230.9l93.5-4.4l-26-130.9c-1.2-6.3-6.8-10.9-13.3-10.9h-68.7c-8.5,0-14.9,7.8-13.3,16.1L511,230.9z"/>
			<path class="st1" d="M511,231.1c-0.1,0-0.1-0.1-0.2-0.1l-27.8-130.1c-0.8-4,0.3-8.2,2.9-11.3c2.6-3.2,6.5-5,10.6-5h68.7
				c6.5,0,12.2,4.6,13.4,11.1l26,130.9c0,0,0,0.1,0,0.1c0,0-0.1,0.1-0.1,0.1L511,231.1C511,231.1,511,231.1,511,231.1z M496.5,84.9
				c-4,0-7.8,1.8-10.3,4.9c-2.5,3.1-3.6,7.1-2.8,11.1l27.7,129.9l93.2-4.4l-26-130.7c-1.2-6.3-6.7-10.8-13.1-10.8H496.5z"/>
		</g>
		<g>
			<path class="st1" d="M517.6,79.6h6.2l-1.1-5.6c-0.6-3.2,1.5-5.8,4.7-5.8l0,0c3.2,0,6.4,2.6,7,5.8l1.1,5.6h6.1
				c1.8,0,3.4,1.1,4.1,2.8l2,5.2h-33.6l-0.7-2.2C512.5,82.6,514.6,79.6,517.6,79.6z"/>
			<path class="st1" d="M547.7,87.8h-33.6c-0.1,0-0.1,0-0.2-0.1l-0.7-2.2c-0.5-1.4-0.2-2.9,0.6-4.1c0.9-1.2,2.2-1.9,3.7-1.9h6
				l-1.1-5.4c-0.3-1.6,0-3.2,1-4.3c0.9-1.1,2.3-1.7,3.9-1.7c3.3,0,6.5,2.7,7.2,6l1.1,5.5h6c1.9,0,3.6,1.1,4.2,2.9l2,5.2
				c0,0,0,0.1,0,0.2C547.8,87.8,547.8,87.8,547.7,87.8z M514.3,87.5h33.2l-2-5c-0.6-1.6-2.2-2.7-3.9-2.7h-6.1
				c-0.1,0-0.1-0.1-0.2-0.1l-1.1-5.6c-0.6-3.1-3.7-5.7-6.8-5.7c-1.5,0-2.8,0.6-3.6,1.6c-0.9,1.1-1.2,2.5-0.9,4l1.1,5.6
				c0,0,0,0.1,0,0.1s-0.1,0.1-0.1,0.1h-6.2c-1.4,0-2.6,0.6-3.4,1.8c-0.8,1.1-1,2.5-0.6,3.8L514.3,87.5z"/>
		</g>
		<g>
			<path class="st2" d="M515,230.3l93.5-4.4L582.5,95c-1.2-6.3-6.8-10.9-13.3-10.9h-68.7c-8.5,0-14.9,7.8-13.3,16.1L515,230.3z"/>
			<path class="st1" d="M515,230.4c-0.1,0-0.1-0.1-0.2-0.1l-27.8-130.1c-0.8-4,0.3-8.2,2.9-11.3c2.6-3.2,6.5-5,10.6-5h68.7
				c6.5,0,12.2,4.6,13.4,11.1l26,130.9c0,0,0,0.1,0,0.1c0,0-0.1,0.1-0.1,0.1L515,230.4C515,230.4,515,230.4,515,230.4z M500.5,84.2
				c-4,0-7.8,1.8-10.3,4.9c-2.5,3.1-3.6,7.1-2.8,11.1l27.7,129.9l93.2-4.4L582.4,95c-1.2-6.3-6.7-10.8-13.1-10.8H500.5z"/>
		</g>
		<g>
			<ellipse class="st2" cx="568.2" cy="111" rx="7.1" ry="6.2"/>
			<path class="st1" d="M568.2,117.3c-4,0-7.3-2.8-7.3-6.3c0-3.5,3.3-6.3,7.3-6.3s7.3,2.8,7.3,6.3
				C575.5,114.5,572.3,117.3,568.2,117.3z M568.2,105c-3.8,0-7,2.7-7,6c0,3.3,3.1,6,7,6s7-2.7,7-6C575.2,107.7,572.1,105,568.2,105z
				"/>
		</g>
		<g>
			<ellipse class="st1" cx="571.3" cy="125.8" rx="7.1" ry="6.2"/>
			<path class="st1" d="M571.3,132.2c-4,0-7.3-2.8-7.3-6.3c0-3.5,3.3-6.3,7.3-6.3s7.3,2.8,7.3,6.3
				C578.6,129.3,575.3,132.2,571.3,132.2z M571.3,119.8c-3.8,0-7,2.7-7,6s3.1,6,7,6c3.8,0,7-2.7,7-6S575.1,119.8,571.3,119.8z"/>
		</g>
		<g>
			<ellipse class="st2" cx="574.3" cy="140" rx="7.1" ry="6.2"/>
			<path class="st1" d="M574.3,146.3c-4,0-7.3-2.8-7.3-6.3c0-3.5,3.3-6.3,7.3-6.3c4,0,7.3,2.8,7.3,6.3
				C581.6,143.5,578.3,146.3,574.3,146.3z M574.3,134c-3.8,0-7,2.7-7,6c0,3.3,3.1,6,7,6s7-2.7,7-6C581.2,136.7,578.1,134,574.3,134z
				"/>
		</g>
		<g>
			<ellipse class="st2" cx="576.8" cy="153.8" rx="7.1" ry="6.2"/>
			<path class="st1" d="M576.8,160.1c-4,0-7.3-2.8-7.3-6.3s3.3-6.3,7.3-6.3s7.3,2.8,7.3,6.3S580.8,160.1,576.8,160.1z M576.8,147.8
				c-3.8,0-7,2.7-7,6c0,3.3,3.1,6,7,6c3.8,0,7-2.7,7-6C583.8,150.5,580.7,147.8,576.8,147.8z"/>
		</g>
		<g>
			<ellipse class="st2" cx="580.3" cy="169.9" rx="7.1" ry="6.2"/>
			<path class="st1" d="M580.3,176.2c-4,0-7.3-2.8-7.3-6.3c0-3.5,3.3-6.3,7.3-6.3s7.3,2.8,7.3,6.3
				C587.6,173.4,584.3,176.2,580.3,176.2z M580.3,163.9c-3.8,0-7,2.7-7,6c0,3.3,3.1,6,7,6c3.8,0,7-2.7,7-6
				C587.3,166.6,584.2,163.9,580.3,163.9z"/>
		</g>
		<g>
			<ellipse class="st2" cx="583" cy="184.9" rx="7.1" ry="6.2"/>
			<path class="st1" d="M583,191.2c-4,0-7.3-2.8-7.3-6.3s3.3-6.3,7.3-6.3s7.3,2.8,7.3,6.3S587,191.2,583,191.2z M583,178.9
				c-3.8,0-7,2.7-7,6c0,3.3,3.1,6,7,6c3.8,0,7-2.7,7-6C589.9,181.6,586.8,178.9,583,178.9z"/>
		</g>
		<g>
			<ellipse class="st2" cx="586.9" cy="199.4" rx="7.1" ry="6.2"/>
			<path class="st1" d="M586.9,205.7c-4,0-7.3-2.8-7.3-6.3s3.3-6.3,7.3-6.3s7.3,2.8,7.3,6.3S590.9,205.7,586.9,205.7z M586.9,193.4
				c-3.8,0-7,2.7-7,6c0,3.3,3.1,6,7,6s7-2.7,7-6C593.9,196.1,590.8,193.4,586.9,193.4z"/>
		</g>
		<g>
			<g>
				<g>
					<polygon class="st2" points="561.1,142.9 509.5,142.9 508.5,138.5 560.1,138.5 					"/>
				</g>
				<g>
					<polygon class="st2" points="564.1,157.8 512.5,157.8 511.5,153.3 563.1,153.3 					"/>
				</g>
				<g>
					<polygon class="st2" points="567.2,172.7 515.6,172.7 514.6,168.2 565.8,168.2 					"/>
				</g>
				<g>
					<polygon class="st2" points="570.2,187.5 518.6,187.5 517.6,183.1 569.2,183.1 					"/>
				</g>
				<g>
					<polygon class="st2" points="574,201.8 522.5,201.8 521.4,197.3 573,197.3 					"/>
				</g>
			</g>
			<g>
				<g>
					<polygon class="st2" points="561.1,142.9 509.5,142.9 508.5,138.5 560.1,138.5 					"/>
					<path class="st1" d="M561.1,143.1h-51.6c-0.1,0-0.1-0.1-0.2-0.1l-1-4.5c0,0,0-0.1,0-0.1c0,0,0.1-0.1,0.1-0.1h51.6
						c0.1,0,0.1,0.1,0.2,0.1l1,4.5c0,0,0,0.1,0,0.1C561.2,143.1,561.2,143.1,561.1,143.1z M509.7,142.8h51.3l-0.9-4.2h-51.3
						L509.7,142.8z"/>
				</g>
				<g>
					<polygon class="st3" points="564.1,157.8 512.5,157.8 511.5,153.3 563.1,153.3 					"/>
					<path class="st1" d="M564.1,158h-51.6c-0.1,0-0.1-0.1-0.2-0.1l-1-4.5c0,0,0-0.1,0-0.1c0,0,0.1-0.1,0.1-0.1h51.6
						c0.1,0,0.1,0.1,0.2,0.1l1,4.5c0,0,0,0.1,0,0.1C564.2,158,564.2,158,564.1,158z M512.7,157.7h51.3l-0.9-4.2h-51.3L512.7,157.7z"
						/>
				</g>
				<g>
					<polygon class="st2" points="567.2,172.7 515.6,172.7 514.6,168.2 565.8,168.2 					"/>
					<path class="st1" d="M567.2,172.8h-51.6c-0.1,0-0.1-0.1-0.2-0.1l-1-4.5c0,0,0-0.1,0-0.1c0,0,0.1-0.1,0.1-0.1h51.2
						c0.1,0,0.1,0,0.2,0.1l1.4,4.5c0,0,0,0.1,0,0.1C567.3,172.8,567.2,172.8,567.2,172.8z M515.7,172.5h51.2l-1.3-4.2h-50.9
						L515.7,172.5z"/>
				</g>
				<g>
					<polygon class="st3" points="570.2,187.5 518.6,187.5 517.6,183.1 569.2,183.1 					"/>
					<path class="st1" d="M570.2,187.7h-51.6c-0.1,0-0.1-0.1-0.2-0.1l-1-4.5c0,0,0-0.1,0-0.1c0,0,0.1-0.1,0.1-0.1h51.6
						c0.1,0,0.1,0.1,0.2,0.1l1,4.5c0,0,0,0.1,0,0.1C570.3,187.7,570.2,187.7,570.2,187.7z M518.7,187.4H570l-0.9-4.2h-51.3
						L518.7,187.4z"/>
				</g>
				<g>
					<polygon class="st2" points="574,201.8 522.5,201.8 521.4,197.3 573,197.3 					"/>
					<path class="st1" d="M574,202h-51.6c-0.1,0-0.1-0.1-0.2-0.1l-1-4.5c0,0,0-0.1,0-0.1c0,0,0.1-0.1,0.1-0.1H573
						c0.1,0,0.1,0.1,0.2,0.1l1,4.5c0,0,0,0.1,0,0.1C574.1,201.9,574.1,202,574,202z M522.6,201.6h51.3l-0.9-4.2h-51.3L522.6,201.6z"
						/>
				</g>
			</g>
			<g>
				<g>
					<path class="st1" d="M561.1,143.1h-51.6c-0.1,0-0.1-0.1-0.2-0.1l-1-4.5c0,0,0-0.1,0-0.1c0,0,0.1-0.1,0.1-0.1h51.6
						c0.1,0,0.1,0.1,0.2,0.1l1,4.5c0,0,0,0.1,0,0.1C561.2,143.1,561.2,143.1,561.1,143.1z M509.7,142.8h51.3l-0.9-4.2h-51.3
						L509.7,142.8z"/>
				</g>
				<g>
					<path class="st1" d="M564.1,158h-51.6c-0.1,0-0.1-0.1-0.2-0.1l-1-4.5c0,0,0-0.1,0-0.1c0,0,0.1-0.1,0.1-0.1h51.6
						c0.1,0,0.1,0.1,0.2,0.1l1,4.5c0,0,0,0.1,0,0.1C564.2,158,564.2,158,564.1,158z M512.7,157.7h51.3l-0.9-4.2h-51.3L512.7,157.7z"
						/>
				</g>
				<g>
					<path class="st1" d="M567.2,172.8h-51.6c-0.1,0-0.1-0.1-0.2-0.1l-1-4.5c0,0,0-0.1,0-0.1c0,0,0.1-0.1,0.1-0.1h51.2
						c0.1,0,0.1,0,0.2,0.1l1.4,4.5c0,0,0,0.1,0,0.1C567.3,172.8,567.2,172.8,567.2,172.8z M515.7,172.5h51.2l-1.3-4.2h-50.9
						L515.7,172.5z"/>
				</g>
				<g>
					<path class="st1" d="M570.2,187.7h-51.6c-0.1,0-0.1-0.1-0.2-0.1l-1-4.5c0,0,0-0.1,0-0.1c0,0,0.1-0.1,0.1-0.1h51.6
						c0.1,0,0.1,0.1,0.2,0.1l1,4.5c0,0,0,0.1,0,0.1C570.3,187.7,570.2,187.7,570.2,187.7z M518.7,187.4H570l-0.9-4.2h-51.3
						L518.7,187.4z"/>
				</g>
				<g>
					<path class="st1" d="M574,202h-51.6c-0.1,0-0.1-0.1-0.2-0.1l-1-4.5c0,0,0-0.1,0-0.1c0,0,0.1-0.1,0.1-0.1H573
						c0.1,0,0.1,0.1,0.2,0.1l1,4.5c0,0,0,0.1,0,0.1C574.1,201.9,574.1,202,574,202z M522.6,201.6h51.3l-0.9-4.2h-51.3L522.6,201.6z"
						/>
				</g>
			</g>
		</g>
		<g>
			<path class="st2" d="M519.4,79.6h6.2l-1.1-5.6c-0.6-3.2,1.5-5.8,4.7-5.8h0c3.2,0,6.4,2.6,7,5.8l1.1,5.6h6.1
				c1.8,0,3.4,1.1,4.1,2.8l2,5.2h-33.6l-0.7-2.2C514.3,82.6,516.4,79.6,519.4,79.6z"/>
			<path class="st1" d="M549.5,87.8h-33.6c-0.1,0-0.1,0-0.2-0.1l-0.7-2.2c-0.5-1.4-0.2-2.9,0.6-4.1c0.9-1.2,2.2-1.9,3.7-1.9h6
				l-1.1-5.4c-0.3-1.6,0-3.2,1-4.3c0.9-1.1,2.3-1.7,3.9-1.7c3.3,0,6.5,2.7,7.2,6l1.1,5.5h6c1.9,0,3.6,1.1,4.2,2.9l2,5.2
				c0,0,0,0.1,0,0.2C549.6,87.8,549.6,87.8,549.5,87.8z M516.1,87.5h33.2l-2-5c-0.6-1.6-2.2-2.7-3.9-2.7h-6.1
				c-0.1,0-0.1-0.1-0.2-0.1L536,74c-0.6-3.1-3.7-5.7-6.8-5.7c-1.5,0-2.8,0.6-3.6,1.6c-0.9,1.1-1.2,2.5-0.9,4l1.1,5.6
				c0,0,0,0.1,0,0.1s-0.1,0.1-0.1,0.1h-6.2c-1.4,0-2.6,0.6-3.4,1.8c-0.8,1.1-1,2.5-0.6,3.8L516.1,87.5z"/>
		</g>
		<g>
			<circle class="st1" cx="530" cy="73.5" r="2.2"/>
			<path class="st1" d="M530,75.9c-1.3,0-2.4-1.1-2.4-2.4c0-1.3,1.1-2.4,2.4-2.4s2.4,1.1,2.4,2.4C532.4,74.8,531.3,75.9,530,75.9z
				 M530,71.5c-1.1,0-2.1,0.9-2.1,2.1s0.9,2.1,2.1,2.1s2.1-0.9,2.1-2.1S531.2,71.5,530,71.5z"/>
		</g>
	</g>
	<g>
		<g>
			<path class="st1" d="M723.1,140.5c0,0-0.1,0-0.1,0c-0.1,0-0.1-0.1-0.1-0.2l0.8-13c0-0.1,0.1-0.2,0.1-0.2c0.1,0,0.2,0,0.2,0
				l10.8,7.1c0.1,0,0.1,0.1,0.1,0.2c0,0.1-0.1,0.2-0.1,0.2l-11.6,5.8C723.1,140.5,723.1,140.5,723.1,140.5z M724,127.7l-0.7,12.1
				l10.8-5.5L724,127.7z"/>
		</g>
		<g>
			<polygon class="st4" points="693.9,123.8 685.8,125.2 677.8,126.6 680.6,118.9 683.4,111.2 688.6,117.5 			"/>
			<path class="st1" d="M677.8,126.7c0,0-0.1,0-0.1-0.1c0,0,0-0.1,0-0.2l5.7-15.4c0-0.1,0.1-0.1,0.1-0.1c0.1,0,0.1,0,0.2,0.1
				l10.5,12.6c0,0,0,0.1,0,0.2c0,0.1-0.1,0.1-0.1,0.1L677.8,126.7C677.8,126.7,677.8,126.7,677.8,126.7z M683.5,111.5l-5.5,14.8
				l15.6-2.7L683.5,111.5z"/>
		</g>
	</g>
	<g>
		<path class="st2" d="M750.9,236.6c0-6-77.8-10.9-173.9-10.9s-173.9,4.9-173.9,10.9c0,3.5,26.3,6.6,67.1,8.6
			c-1,0.7-1.5,1.5-1.5,2.3c0,8,53.8,14.4,120.2,14.4s120.2-6.5,120.2-14.4c0-1.2-1.3-2.4-3.7-3.5
			C733.8,241.9,750.9,239.4,750.9,236.6z"/>
		<path class="st1" d="M589,262c-32.1,0-62.3-1.5-85.1-4.2c-22.8-2.7-35.4-6.4-35.4-10.4c0-0.7,0.4-1.4,1.3-2.1
			c-20.2-1-37-2.3-48.4-3.7c-12.2-1.5-18.4-3.2-18.4-5c0-3.8,27.8-6.4,51.1-7.8c32.8-2.1,76.5-3.2,123-3.2c46.4,0,90.1,1.1,123,3.2
			c23.3,1.5,51.1,4,51.1,7.8c0,3.6-24.3,6-44.9,7.4c2.2,1.1,3.2,2.3,3.2,3.4c0,3.9-12.6,7.6-35.4,10.4
			C651.4,260.5,621.2,262,589,262z M577.1,225.9c-46.4,0-90.1,1.1-122.9,3.2c-16,1-28.5,2.2-37.2,3.4c-11.1,1.6-13.5,3.1-13.5,4.1
			c0,1.1,3.1,2.8,18,4.7c11.5,1.4,28.4,2.7,48.8,3.7c0.1,0,0.2,0,0.2,0.1s0,0.1,0,0.2c-1,0.7-1.4,1.5-1.4,2.2c0,3.7,12.8,7.4,35,10
			c22.7,2.7,52.9,4.2,85,4.2c32.1,0,62.3-1.5,85-4.2c22.3-2.7,35-6.3,35-10c0-1.1-1.2-2.3-3.6-3.4c-0.1,0-0.1-0.1-0.1-0.2
			c0-0.1,0.1-0.1,0.2-0.1c28.7-2,45.1-4.6,45.1-7.1c0-0.9-2.3-2.4-13.5-4.1c-8.7-1.3-21.3-2.5-37.2-3.4
			C667.2,227,623.5,225.9,577.1,225.9z"/>
	</g>
	<g>
		<g>
			<path class="st2" d="M594.7,230c0-0.4,0.1-0.7,0.1-1c0.2-1.9,1.2-4,1.2-4l-5.6-1c0,0-2,2-4.5,3.7
				C588.5,229.8,591.7,230.6,594.7,230z"/>
			<path class="st1" d="M592.8,230.4c-2.5,0-5-0.8-7-2.4c0,0-0.1-0.1-0.1-0.1c0-0.1,0-0.1,0.1-0.1c2.5-1.7,4.5-3.7,4.5-3.7
				c0,0,0.1-0.1,0.1,0l5.6,1c0.1,0,0.1,0,0.1,0.1c0,0,0,0.1,0,0.1c0,0-1.1,2.1-1.2,3.9c0,0.2,0,0.5-0.1,0.9c0,0.1-0.1,0.1-0.1,0.1
				C594.1,230.3,593.5,230.4,592.8,230.4z M586.2,227.8c2.4,1.8,5.6,2.6,8.4,2c0-0.3,0-0.6,0.1-0.8c0.1-1.6,0.9-3.3,1.2-3.8
				l-5.3-0.9C590.2,224.6,588.4,226.3,586.2,227.8z M594.7,230L594.7,230L594.7,230z"/>
		</g>
		<g>
			<path class="st1" d="M585.9,227.8c-1.8,1.2-3.8,2.3-5.7,2.6c-4.7,0.9-7.1,5.1-7.1,5.1s-0.3,1.5,0,1.8c13.2,0.1,21.2-1,21.2-1
				s0.2-4.1,0.4-6.2C591.7,230.6,588.5,229.8,585.9,227.8z"/>
			<path class="st1" d="M574.9,237.4c-0.6,0-1.2,0-1.8,0c0,0-0.1,0-0.1,0c-0.4-0.4-0.1-1.7,0-1.9c0,0,0,0,0,0c0,0,2.5-4.2,7.2-5.1
				c1.6-0.2,3.5-1.1,5.6-2.6c0.1,0,0.1,0,0.2,0c2.5,1.9,5.8,2.7,8.7,2.2c0,0,0.1,0,0.1,0c0,0,0.1,0.1,0.1,0.1
				c-0.1,2.1-0.4,6.2-0.4,6.2c0,0.1-0.1,0.1-0.1,0.2C594.3,236.4,586.9,237.4,574.9,237.4z M573.2,237.1c12,0.1,19.9-0.9,21-1
				c0-0.7,0.2-4,0.4-5.9c-3,0.5-6.2-0.3-8.7-2.2c-2.1,1.5-4.1,2.3-5.7,2.5c-4.4,0.8-6.8,4.7-7,5C573.2,236,573.1,236.8,573.2,237.1z
				"/>
		</g>
		<g>
			<path class="st2" d="M631.4,195.9c0,0-18.2-18.7-26-14.5s-16.5,43.5-16.5,43.5s5.4,2.9,7.6,2.2c9.4-11.6,13.2-20.4,15.4-24.7
				c4.2,7.6,16.2,18.4,30.2,8.4c14-9.9,9.6-15.9,9.6-15.9L631.4,195.9z"/>
			<path class="st1" d="M595.6,227.4c-2.5,0-6.7-2.2-6.9-2.3c-0.1,0-0.1-0.1-0.1-0.2c0-0.1,2.2-10,5.3-20.2
				c4.2-13.8,8-21.7,11.3-23.4c3.3-1.8,8.8,0.1,16.1,5.7c5.5,4.1,10,8.8,10.1,8.8c0.1,0.1,0.1,0.2,0,0.2c-0.1,0.1-0.2,0.1-0.2,0
				c-0.2-0.2-18.2-18.6-25.8-14.5c-7.5,4-15.9,40.9-16.4,43.3c0.8,0.4,5.3,2.7,7.3,2.1c8-9.9,11.9-17.8,14.2-22.5
				c0.4-0.8,0.7-1.5,1.1-2.1c0-0.1,0.1-0.1,0.1-0.1c0.1,0,0.1,0,0.1,0.1c2.5,4.5,7.9,10.4,15,11.9c5,1.1,10.1-0.1,15-3.6
				c7.6-5.4,9.7-9.6,10.1-12.1c0.4-2.2-0.5-3.5-0.5-3.5c-0.1-0.1,0-0.2,0-0.2c0.1-0.1,0.2,0,0.2,0c0,0.1,1,1.3,0.6,3.7
				c-0.4,2.6-2.5,6.9-10.2,12.4c-5,3.6-10.2,4.8-15.3,3.6c-7-1.6-12.4-7.3-15-11.8c-0.3,0.5-0.6,1.2-0.9,1.9
				c-2.3,4.7-6.2,12.6-14.3,22.6c0,0,0,0-0.1,0.1C596.2,227.3,595.9,227.4,595.6,227.4z"/>
		</g>
	</g>
	<g>
		<g>
			<path class="st2" d="M660.4,225.9c-0.1-0.6-0.5-1.1-1-1.4c-1.5,0.5-2.9,0.2-2.9,0.2s-2.9,3.9-0.4,5.4c1-0.2,2.6,0.3,4.4,1.1
				C661.2,229.7,660.7,227.5,660.4,225.9z"/>
			<path class="st1" d="M660.6,231.3C660.6,231.3,660.5,231.3,660.6,231.3c-2.1-0.9-3.5-1.2-4.3-1.1c0,0-0.1,0-0.1,0
				c-0.6-0.3-0.9-0.8-1.1-1.5c-0.4-1.8,1.3-4.1,1.4-4.2c0,0,0.1-0.1,0.2-0.1c0,0,1.4,0.2,2.8-0.2c0,0,0.1,0,0.1,0
				c0.6,0.4,0.9,0.9,1,1.5l0,0c0,0.3,0.1,0.6,0.2,0.9c0.3,1.5,0.5,3.2,0,4.4C660.7,231.3,660.7,231.3,660.6,231.3
				C660.6,231.3,660.6,231.3,660.6,231.3z M656.7,229.9c0.9,0,2.1,0.3,3.8,1.1c0.4-1.2,0.2-2.7-0.1-4.1c-0.1-0.3-0.1-0.6-0.2-0.9
				c-0.1-0.5-0.3-0.9-0.8-1.3c-1.3,0.4-2.4,0.3-2.8,0.2c-0.3,0.4-1.6,2.3-1.3,3.8c0.1,0.5,0.4,0.9,0.9,1.2
				C656.4,229.9,656.6,229.9,656.7,229.9z"/>
		</g>
		<g>
			<path class="st1" d="M681.4,234.2c-0.3-0.5-2.9-1.2-5.9-3.3c-4.4-3-10.1-7.8-13.2-8.8c-0.7,1.3-1.8,2-2.8,2.3
				c0.5,0.3,0.9,0.8,1,1.4c0.2,1.6,0.8,3.8,0.2,5.3c3.5,1.5,7.9,4.2,11.1,5.1C676.5,237.5,682.1,235.5,681.4,234.2z"/>
			<path class="st1" d="M675,236.8c-1.1,0-2.2-0.1-3.3-0.4c-2.1-0.6-4.6-1.8-7.1-3.1c-1.4-0.7-2.8-1.4-4-2c-0.1,0-0.1-0.1-0.1-0.2
				c0.5-1.2,0.2-2.8,0-4.3c-0.1-0.3-0.1-0.6-0.2-0.9c-0.1-0.5-0.4-0.9-0.9-1.3c0,0-0.1-0.1-0.1-0.2c0-0.1,0.1-0.1,0.1-0.1
				c1.2-0.4,2.1-1.2,2.7-2.3c0-0.1,0.1-0.1,0.2-0.1c2.2,0.7,5.7,3.3,9.1,5.8c1.4,1,2.8,2.1,4.1,3c1.7,1.1,3.2,1.8,4.3,2.4
				c0.9,0.4,1.5,0.7,1.6,1l0,0c0.1,0.2,0.1,0.5-0.2,0.9C680.6,235.9,677.9,236.8,675,236.8z M660.8,231.1c1.2,0.5,2.5,1.2,3.9,1.9
				c2.4,1.2,5,2.5,7,3.1c4.2,1.1,8.5-0.2,9.4-1.3c0.2-0.3,0.2-0.5,0.1-0.5c-0.1-0.2-0.7-0.5-1.5-0.8c-1.1-0.5-2.7-1.2-4.4-2.4
				c-1.3-0.9-2.8-2-4.1-3c-3.3-2.4-6.7-5-8.9-5.7c-0.6,1-1.5,1.8-2.5,2.2c0.5,0.4,0.7,0.8,0.8,1.3c0,0.3,0.1,0.6,0.2,0.9
				C661,228.2,661.3,229.8,660.8,231.1z"/>
		</g>
		<g>
			<path class="st2" d="M632.7,192.5c0,0-37.8,17.7-36.8,34.2c1,16.5,63.1,4.1,63.1,4.1l-2-6.2c0,0-22.1-8-43.3-2.4
				c15.3-5.1,34.5-0.3,40.8-8.1c9.5-11.7-3.1-23.1-3.1-23.1L632.7,192.5z"/>
			<path class="st1" d="M618.6,235.5c-2,0-3.8-0.1-5.5-0.2c-6.9-0.4-11.8-1.7-14.6-3.8c-1.7-1.3-2.6-2.9-2.7-4.8
				c-0.2-3.8,1.6-8,5.4-12.4c3-3.5,7.3-7.2,12.7-11c9.2-6.4,18.7-10.9,18.8-10.9c0,0,0,0,0.1,0l18.7-1.5c0,0,0.1,0,0.1,0
				c0,0,3.2,2.9,5.1,7.2c1.8,4,2.9,10-2.1,16.1c-3.7,4.5-11.4,4.9-20.3,5.3c-4.1,0.2-8.5,0.4-12.8,1c8.3-1,16.1-0.3,21.8,0.6
				c8.1,1.3,13.7,3.3,13.7,3.3c0,0,0.1,0.1,0.1,0.1l2,6.2c0,0,0,0.1,0,0.1c0,0-0.1,0.1-0.1,0.1c-0.1,0-12.3,2.4-25.8,3.7
				C627.8,235.2,622.9,235.5,618.6,235.5z M632.8,192.7c-0.6,0.3-9.8,4.7-18.7,10.9c-5.4,3.8-9.7,7.5-12.7,11
				c-3.7,4.4-5.5,8.5-5.3,12.2c0.1,1.8,1,3.3,2.5,4.5c4.8,3.7,16.8,4.8,34.6,3.2c12.6-1.2,24-3.4,25.6-3.7l-1.9-6
				c-0.7-0.2-6-2.1-13.6-3.3c-7.4-1.2-18.6-2-29.6,0.9c-0.1,0-0.2,0-0.2-0.1c0-0.1,0-0.2,0.1-0.2c6.6-2.2,14.1-2.5,20.7-2.9
				c8.9-0.4,16.5-0.8,20.1-5.2c3.9-4.8,4.6-10.1,2-15.8c-1.8-3.9-4.6-6.7-5-7.1L632.8,192.7z"/>
		</g>
		<g>
			<path class="st1" d="M629.3,194.2l-1,0.5c0,0,0.8,6.3,11,5.8c10.2-0.5,16.8-2.8,16.8-2.8l-1-2.1L629.3,194.2z"/>
			<path class="st1" d="M638.2,200.7c-4.6,0-7-1.5-8.3-2.8c-1.5-1.5-1.7-3.1-1.7-3.2c0-0.1,0-0.1,0.1-0.2l1-0.5c0,0,0.1,0,0.1,0
				l25.9,1.4c0.1,0,0.1,0,0.1,0.1l1,2.1c0,0,0,0.1,0,0.1c0,0-0.1,0.1-0.1,0.1c-0.1,0-6.7,2.3-16.9,2.8
				C638.9,200.7,638.5,200.7,638.2,200.7z M628.5,194.8c0.1,0.4,0.4,1.7,1.6,2.9c1.3,1.4,4,2.9,9.2,2.6c9.2-0.5,15.5-2.4,16.6-2.7
				l-0.9-1.9l-25.8-1.4L628.5,194.8z"/>
		</g>
		<g>
			<path class="st2" d="M584.2,143c0.4,0,0.8-0.1,1.1-0.1c-0.9-2.9-1.6-5.4-2.1-6.4c-1.5-3-7-8.4-7-8.4s-0.6,1.5,0.4,2.5
				c1,1,2.5,4.4,2.5,4.4s-6.2,1-5.2,4.8c1,3.8,4.2,2,4.5,0.2c0,0,0.5,2.6,1.5,6.3C580.9,144.6,582.1,143.2,584.2,143z"/>
			<path class="st1" d="M580,146.4C580,146.4,580,146.4,580,146.4c-0.1,0-0.1-0.1-0.2-0.1c-0.7-2.6-1.2-4.7-1.4-5.7
				c-0.4,0.9-1.4,1.6-2.3,1.6c-0.6,0-1.8-0.3-2.3-2.4c-0.2-0.9-0.1-1.7,0.3-2.4c1.1-1.7,4-2.4,4.7-2.6c-0.3-0.7-1.5-3.3-2.4-4.1
				c-1.1-1.1-0.4-2.6-0.4-2.7c0,0,0.1-0.1,0.1-0.1c0.1,0,0.1,0,0.1,0c0.2,0.2,5.6,5.5,7,8.5c0.3,0.7,0.7,2,1.3,3.8
				c0.2,0.8,0.5,1.7,0.8,2.7c0,0,0,0.1,0,0.1c0,0-0.1,0.1-0.1,0.1c-0.3,0-0.8,0.1-1.1,0.1c-1.7,0.2-3,1.1-4.1,3.1
				C580.1,146.3,580,146.4,580,146.4z M578.5,139.8c0.1,0,0.1,0.1,0.2,0.1c0,0,0.5,2.5,1.4,5.9c0.8-1.3,2-2.7,4.2-3c0,0,0,0,0,0
				c0.3,0,0.6,0,0.9-0.1c-0.3-0.9-0.5-1.8-0.8-2.5c-0.5-1.7-0.9-3.1-1.2-3.7c-1.3-2.7-5.8-7.2-6.8-8.2c-0.1,0.4-0.3,1.4,0.4,2.1
				c1,1,2.4,4.3,2.5,4.4c0,0,0,0.1,0,0.1s-0.1,0.1-0.1,0.1c0,0-3.5,0.6-4.7,2.5c-0.4,0.6-0.5,1.4-0.3,2.2c0.4,1.4,1.1,2.2,2,2.1
				c0.9,0,2-0.9,2.2-1.9C578.3,139.8,578.4,139.8,578.5,139.8C578.5,139.8,578.5,139.8,578.5,139.8z"/>
		</g>
		<g>
			<path class="st2" d="M668.1,193c0.6,2.5,0.5,4.1,0.5,4.1s-0.2,1.5-1.3,1.8c-1.1,0.3-1.7,2.7-1.6,4.1c0.1,0.8,0.1,2.6,1.6,2.9
				c1,0.2,3.5-0.7,4.1-1.3c0.8-0.8,1.2-6.5,1.1-12.5c-0.5,0.3-1,0.6-1.5,0.8C670,193.4,669.1,193.5,668.1,193z"/>
			<path class="st1" d="M667.6,206.1c-0.1,0-0.3,0-0.4,0c-1.5-0.3-1.6-1.8-1.7-2.7c0-0.1,0-0.2,0-0.3c-0.2-1.5,0.5-4,1.7-4.3
				c1-0.3,1.2-1.7,1.2-1.7c0,0,0.1-1.6-0.5-4.1c0-0.1,0-0.1,0.1-0.2c0,0,0.1,0,0.2,0c1,0.5,1.8,0.3,2.8,0c0.5-0.2,1-0.5,1.5-0.8
				c0,0,0.1,0,0.2,0c0.1,0,0.1,0.1,0.1,0.1c0,5.2-0.2,11.7-1.2,12.6C670.9,205.4,668.7,206.1,667.6,206.1z M668.3,193.3
				c0.5,2.3,0.4,3.8,0.4,3.9c0,0.1-0.3,1.6-1.5,1.9c-1,0.3-1.6,2.6-1.5,4c0,0.1,0,0.2,0,0.3c0.1,0.9,0.2,2.2,1.4,2.4
				c0.9,0.2,3.4-0.6,4-1.2c0.7-0.7,1.1-5.7,1.1-12.1c-0.4,0.3-0.9,0.5-1.3,0.7C670.1,193.5,669.3,193.7,668.3,193.3z"/>
		</g>
		<g>
			<path class="st4" d="M669.5,176.8c-0.1-0.1-0.3-0.4-0.6-0.8c0-0.1-0.1-0.1-0.1-0.2c-2.6-3.6-11.1-15.1-11.1-15.1
				s-10-12.5-16.8-11.7l-1.3,8.1c0,0,23,24.2,23.9,25.3c1.8,2.2,3.4,7.9,4.4,11.8c1.1,0.5,2.4,0.6,3.4,0.2c0.5-0.2,1-0.5,1.5-0.8
				c0-5.2-0.4-10.5-1.1-12.9C671.4,179.8,670.6,178.4,669.5,176.8z"/>
			<path class="st1" d="M669.9,194.9c-0.7,0-1.4-0.2-2.1-0.5c0,0-0.1-0.1-0.1-0.1c-1-4.2-2.6-9.6-4.4-11.8
				c-0.9-1.1-23.7-25.1-23.9-25.3c0,0-0.1-0.1,0-0.1l1.3-8.1c0-0.1,0.1-0.1,0.1-0.1c6.8-0.8,16.5,11.2,16.9,11.8
				c0.1,0.1,8.6,11.5,11.2,15.1l0.1,0.2c0.3,0.4,0.5,0.7,0.6,0.8c1.2,1.8,2,3.1,2.2,4c0.8,2.6,1.1,8.4,1.1,13c0,0.1,0,0.1-0.1,0.1
				c-0.5,0.3-1,0.6-1.5,0.8C670.9,194.8,670.4,194.9,669.9,194.9z M668,194.2c1,0.5,2.3,0.5,3.2,0.2c0.5-0.2,1-0.4,1.4-0.8
				c-0.1-5.7-0.5-10.6-1.1-12.8c-0.3-0.9-1-2.2-2.2-3.9c0,0,0,0,0,0c-0.1-0.1-0.3-0.4-0.6-0.8l-0.1-0.2
				c-2.6-3.6-11.1-14.9-11.1-15.1c-0.1-0.1-9.9-12.2-16.5-11.6l-1.3,7.9c1.5,1.6,23,24.2,23.9,25.3C665.3,184.5,667,190,668,194.2z"
				/>
		</g>
		<g>
			<path class="st2" d="M623.5,128.8c0,0-4.3,13.4,2.6,16.4c1.3,0.1,2.2-0.5,2.8-0.8c2.4,1.9,1.6,6.6,1.6,6.8
				c0.9,2.7,10.6,0.6,9.9-1.7c0,0-0.6-2.9-1.5-6.4c-0.6-2.1-0.1-4.7-0.8-6.7c-0.5-1.4-2.2-2.3-2.8-3.3
				C632.4,128.4,626,125.6,623.5,128.8z"/>
			<path class="st1" d="M633.6,152.6c-1.6,0-3-0.4-3.3-1.4c0,0,0-0.1,0-0.3c0.3-3.1-0.2-5.2-1.5-6.3c-0.6,0.3-1.5,0.8-2.8,0.8
				c0,0,0,0-0.1,0c-2.9-1.3-4.3-4.6-4-9.5c0.2-3.7,1.3-7.1,1.3-7.1c0,0,0,0,0-0.1c0.8-1,2.1-1.5,3.6-1.4c3,0.2,6.6,2.7,8.4,5.8
				c0.2,0.4,0.6,0.8,1.1,1.2c0.7,0.6,1.4,1.3,1.7,2.1c0.4,1.1,0.5,2.4,0.5,3.7c0,1,0.1,2.1,0.3,3c0.9,3.4,1.5,6.2,1.5,6.4
				c0.3,0.9-0.8,1.8-2.9,2.5C636.4,152.3,634.9,152.6,633.6,152.6z M630.6,151.2c0.5,1.4,4,1.4,6.9,0.5c1.9-0.6,2.9-1.4,2.7-2.1
				c0,0,0,0,0,0c0,0-0.6-2.9-1.5-6.4c-0.3-1-0.3-2-0.3-3.1c0-1.2-0.1-2.5-0.5-3.6c-0.3-0.8-1-1.4-1.6-2c-0.5-0.4-0.9-0.8-1.1-1.3
				c-1.8-3.1-5.2-5.5-8.2-5.7c-1.4-0.1-2.6,0.3-3.3,1.3c-0.2,0.7-4,13.3,2.5,16.2c1.2,0.1,2-0.4,2.6-0.7l0.1-0.1c0.1,0,0.1,0,0.2,0
				c1.5,1.1,2,3.4,1.7,6.7C630.6,151,630.6,151.1,630.6,151.2z"/>
		</g>
		<g>
			<path class="st4" d="M652.1,166c2,11.6,4.2,28.2,4.1,29.6c-0.2,2.4-8.8,4.4-19.3,3.8c-10.6-0.6-7.5-8.9-13.2-19.1
				c-2.2-4-1.8-10.8-4.7-11.2c-2.9-0.4-8.7-0.5-8.7-0.5s-11.4,0.4-19.1-1.7c-5.2-1.4-9.2-13.2-11.2-20.7c0.9-1.6,2.2-3,4.3-3.2
				c0.4,0,0.8-0.1,1.1-0.1c1.9,5.9,4.8,13.7,9.6,15c4.8,1.3,13.3-1,18.5-2.7l4.4-1.6l9.4-3.4c0,0,5-3.2,11.9-1.7l4.2,0.7L652.1,166z
				"/>
			<path class="st1" d="M640.3,199.7c-1.2,0-2.3,0-3.5-0.1c-7.1-0.4-8.2-4.3-9.7-9.7c-0.8-2.8-1.7-6-3.6-9.5
				c-0.9-1.7-1.4-3.8-1.8-5.7c-0.6-2.8-1.2-5.2-2.7-5.4c-2.9-0.4-8.6-0.5-8.7-0.5c-0.1,0-11.5,0.4-19.2-1.7
				c-5.4-1.5-9.4-13.7-11.3-20.8c0,0,0-0.1,0-0.1c0.8-1.4,2-3,4.4-3.3c0.4,0,0.8-0.1,1.1-0.1c0.1,0,0.1,0,0.2,0.1
				c1.8,5.8,4.8,13.6,9.5,14.9c4.8,1.4,13.6-1.1,18.4-2.7l13.8-4.9c0.3-0.2,5.3-3.1,12-1.7l4.2,0.7c0.1,0,0.1,0.1,0.1,0.2
				c0,0.1-0.1,0.1-0.2,0.1l-4.2-0.7c-6.8-1.5-11.8,1.6-11.8,1.7c0,0,0,0,0,0l-13.8,5c-4.8,1.6-13.7,4.1-18.6,2.7
				c-4.8-1.4-7.8-9.2-9.7-15c-0.3,0-0.7,0.1-1,0.1c-1.7,0.2-3,1.1-4.1,3.1c1.9,7.1,5.9,19.1,11.1,20.5c7.6,2.1,19,1.7,19.1,1.7
				c0.1,0,5.9,0.1,8.7,0.5c1.8,0.2,2.4,2.7,3,5.6c0.4,2,0.9,4,1.8,5.6c1.9,3.5,2.8,6.7,3.6,9.6c1.5,5.5,2.5,9.1,9.4,9.5
				c5,0.3,9.8,0,13.5-0.8c3.4-0.7,5.6-1.8,5.7-2.9c0.1-1.4-2.1-18.1-4.1-29.5c0-0.1,0-0.2,0.1-0.2c0.1,0,0.2,0,0.2,0.1
				c2,11.4,4.2,28.2,4.1,29.6C656.1,198,649,199.7,640.3,199.7z"/>
		</g>
		<g>
			<path class="st1" d="M628.5,132.7c0,0,1.1,3.4,1.9,4c1.1-1.5,2.7-2.6,3.4-1.8c0.7,0.8,0.9,4.4,0.9,4.4s3,2.7,5.7,1.3
				c2.6-4.9,2.5-14.4-5.6-16.7c-2.3-0.7-5.4-1.9-9.2-1.3c-2.3,0.4-6.4,2.8-7,3.9c-1.7,3.2,3,6.8,3,6.8S624.4,136.4,628.5,132.7z"/>
			<path class="st1" d="M638.6,141.2c-2.1,0-4-1.6-4.1-1.7c0,0-0.1-0.1-0.1-0.1c-0.1-1-0.3-3.7-0.9-4.3c-0.1-0.1-0.3-0.2-0.5-0.2
				c-0.7,0-1.7,0.8-2.6,2c-0.1,0.1-0.2,0.1-0.2,0c-0.7-0.5-1.6-3-1.9-3.8c-1.4,1.2-2.8,1.7-4.1,1.6c-1.7-0.1-2.8-1.2-2.9-1.3
				c-0.3-0.2-4.7-3.7-3-7c0.6-1.1,4.7-3.5,7.1-3.9c3.3-0.6,6.1,0.3,8.3,1c0.3,0.1,0.7,0.2,1,0.3c2.9,0.9,5.1,2.8,6.3,5.5
				c1.7,4,0.9,8.6-0.6,11.5c0,0,0,0.1-0.1,0.1C639.9,141,639.2,141.2,638.6,141.2z M634.8,139.2c0.4,0.3,3,2.5,5.4,1.2
				c1.4-2.7,2.2-7.3,0.5-11.1c-1.1-2.6-3.2-4.5-6.1-5.3c-0.3-0.1-0.6-0.2-1-0.3c-2.2-0.7-4.9-1.5-8.1-1c-2.3,0.4-6.3,2.7-6.9,3.8
				c-1.6,3,2.9,6.5,2.9,6.6c0,0,0,0,0,0c0.1,0.1,2.8,3,6.8-0.5c0,0,0.1,0,0.2,0c0.1,0,0.1,0.1,0.1,0.1c0.3,0.9,1.1,3.2,1.7,3.8
				c0.7-0.9,1.9-2,2.8-2c0.3,0,0.6,0.1,0.7,0.3C634.6,135.6,634.8,138.7,634.8,139.2z"/>
		</g>
	</g>
	<g>
		<path class="st2" d="M646.8,222.1c0,0,14.3,14.1,19.3,12.5c0.7-0.5-2.1-1.6-5.2-3.8C655.4,226.8,647.4,221,646.8,222.1z"/>
		<path class="st1" d="M665.3,234.9c-5.6,0-18-12.1-18.6-12.7c-0.1-0.1-0.1-0.1,0-0.2c0-0.1,0.1-0.2,0.3-0.2c1.3-0.3,7.1,3.8,14,8.8
			l0.1,0.1c1.2,0.8,2.3,1.5,3.2,2.1c1.5,0.9,2.1,1.3,2.1,1.7c0,0.1,0,0.2-0.2,0.3c0,0,0,0-0.1,0
			C665.9,234.8,665.6,234.9,665.3,234.9z M647.1,222.1c1.6,1.5,14.4,13.7,18.9,12.3c0,0,0,0,0,0c0-0.3-1-0.8-2-1.4
			c-0.9-0.5-2-1.2-3.2-2.1l-0.1-0.1C655.9,227.3,648.6,222.1,647.1,222.1C647.1,222.1,647.1,222.1,647.1,222.1z"/>
	</g>
	<g>
		<polygon class="st4" points="555.1,113.2 503.5,113.2 502.5,108.7 554.1,108.7 		"/>
		<path class="st1" d="M555.1,113.4h-51.6c-0.1,0-0.1-0.1-0.2-0.1l-1-4.5c0,0,0-0.1,0-0.1c0,0,0.1-0.1,0.1-0.1h51.6
			c0.1,0,0.1,0.1,0.2,0.1l1,4.5c0,0,0,0.1,0,0.1C555.2,113.4,555.1,113.4,555.1,113.4z M503.6,113.1h51.3l-0.9-4.2h-51.3
			L503.6,113.1z"/>
	</g>
	<g>
		<polygon class="st4" points="558.1,128.1 506.5,128.1 505.5,123.6 557.1,123.6 		"/>
		<path class="st1" d="M558.1,128.2h-51.6c-0.1,0-0.1-0.1-0.2-0.1l-1-4.5c0,0,0-0.1,0-0.1c0,0,0.1-0.1,0.1-0.1h51.6
			c0.1,0,0.1,0.1,0.2,0.1l1,4.5c0,0,0,0.1,0,0.1C558.2,128.2,558.2,128.2,558.1,128.2z M506.6,127.9h51.3l-0.9-4.2h-51.3
			L506.6,127.9z"/>
	</g>
	<g>
		<polygon class="st4" points="560.8,107 568.9,112.5 575.4,100.7 572.7,99.9 568.1,109.1 562.2,104.5 		"/>
		<path class="st1" d="M568.9,112.7C568.9,112.7,568.9,112.7,568.9,112.7l-8.2-5.6c-0.1,0-0.1-0.1,0-0.2l1.5-2.5
			c0,0,0.1-0.1,0.1-0.1c0,0,0.1,0,0.1,0l5.7,4.4l4.5-9c0-0.1,0.1-0.1,0.2-0.1l2.7,0.8c0,0,0.1,0,0.1,0.1c0,0,0,0.1,0,0.1l-6.5,11.8
			C569,112.7,569,112.7,568.9,112.7C568.9,112.7,568.9,112.7,568.9,112.7z M561,106.9l7.9,5.4l6.3-11.5l-2.4-0.7l-4.5,9
			c0,0-0.1,0.1-0.1,0.1c0,0-0.1,0-0.1,0l-5.7-4.4L561,106.9z"/>
	</g>
	<g>
		<polygon class="st2" points="563.5,123.5 571.7,129.1 578.1,117.3 575.4,116.5 570.8,125.6 565,121.1 		"/>
		<path class="st1" d="M571.7,129.3C571.7,129.3,571.6,129.2,571.7,129.3l-8.2-5.6c-0.1,0-0.1-0.1,0-0.2l1.5-2.5
			c0,0,0.1-0.1,0.1-0.1c0,0,0.1,0,0.1,0l5.7,4.4l4.5-9c0-0.1,0.1-0.1,0.2-0.1l2.7,0.8c0,0,0.1,0,0.1,0.1s0,0.1,0,0.1l-6.5,11.8
			C571.8,129.2,571.8,129.2,571.7,129.3C571.7,129.2,571.7,129.3,571.7,129.3z M563.8,123.5l7.9,5.4l6.3-11.5l-2.4-0.7l-4.5,9
			c0,0-0.1,0.1-0.1,0.1c0,0-0.1,0-0.1,0l-5.7-4.4L563.8,123.5z"/>
	</g>
	<g>
		<polygon class="st1" points="614.8,142.9 613.6,144.5 614.6,145.3 		"/>
		<path class="st1" d="M614.6,145.5c0,0-0.1,0-0.1,0l-0.9-0.8c-0.1-0.1-0.1-0.2,0-0.2l1.2-1.6c0-0.1,0.1-0.1,0.2-0.1
			c0.1,0,0.1,0.1,0.1,0.2l-0.3,2.4C614.8,145.4,614.7,145.4,614.6,145.5C614.6,145.4,614.6,145.5,614.6,145.5z M613.9,144.5l0.6,0.5
			l0.2-1.5L613.9,144.5z"/>
	</g>
	<g>
		<g>
			<g>
				<path class="st3" d="M732,226.3c0,0-18.5-21.7-3.7-37.2s31.9-13.3,41.8-1.2s7.7,31.6-0.2,39.1C762.2,234.3,735,223.4,732,226.3z
					"/>
				<path class="st1" d="M760.6,229.7c-5.3,0-11.5-1.2-17-2.3c-5.6-1.1-10.4-2-11.5-1c0,0-0.1,0-0.1,0c0,0-0.1,0-0.1-0.1
					c0-0.1-4.7-5.5-7.4-12.8c-1.6-4.3-2.3-8.4-2-12.1c0.4-4.7,2.3-8.9,5.8-12.5c7.2-7.5,15.3-11.3,23.4-11
					c7.1,0.3,13.7,3.7,18.7,9.8c4.6,5.6,6.9,13.2,6.6,21.4c-0.3,7.5-2.8,14.2-6.8,17.9C768,229,764.6,229.7,760.6,229.7z
					 M734.1,225.6c2.2,0,5.6,0.7,9.6,1.5c9.1,1.8,21.5,4.2,26.3-0.3c3.9-3.7,6.4-10.3,6.7-17.7c0.3-8.1-2-15.6-6.5-21.1
					c-4.9-6-11.5-9.4-18.5-9.7c-8-0.3-16,3.5-23.1,10.9c-7.6,8-6.2,17.6-3.7,24.3c2.5,6.7,6.6,11.8,7.3,12.6
					C732.5,225.7,733.2,225.6,734.1,225.6z"/>
			</g>
			<g>
				<path class="st1" d="M728.1,236.1C728.1,236.1,728.1,236.1,728.1,236.1c-0.2,0-0.3-0.2-0.2-0.3c3.5-13.5,12.2-24.7,18.8-31.8
					c7.2-7.6,13.6-12.1,13.7-12.2c0.1-0.1,0.3,0,0.3,0.1c0.1,0.1,0,0.3-0.1,0.3c-0.1,0-6.5,4.5-13.6,12.1
					c-6.6,7-15.2,18.2-18.7,31.6C728.3,236,728.2,236.1,728.1,236.1z"/>
			</g>
			<g>
				<path class="st1" d="M768.5,200.5C768.5,200.5,768.4,200.5,768.5,200.5c-0.2-0.1-6.5-4.8-12.2-5c0,0-0.1,0-0.1-0.1s0-0.1,0-0.1
					c1.3-5.3-3.3-10.1-3.4-10.2c-0.1-0.1-0.1-0.2,0-0.2c0.1-0.1,0.2-0.1,0.2,0c0,0,4.7,4.9,3.5,10.3c5.8,0.3,12.1,5,12.1,5
					c0.1,0.1,0.1,0.2,0,0.2C768.6,200.4,768.5,200.5,768.5,200.5z"/>
			</g>
			<g>
				<path class="st1" d="M769.6,209.5c-0.1,0-0.1,0-0.1-0.1c-5-7.6-14.5-10-17.7-10.3c-0.1,0-0.1-0.1-0.1-0.2
					c0-4.1-7.7-11.3-7.8-11.4c-0.1-0.1-0.1-0.2,0-0.2c0.1-0.1,0.2-0.1,0.2,0c0.3,0.3,7.7,7.2,7.9,11.5c3.4,0.4,12.8,2.8,17.8,10.4
					C769.8,209.3,769.8,209.4,769.6,209.5C769.7,209.5,769.7,209.5,769.6,209.5z"/>
			</g>
			<g>
				<path class="st1" d="M768.3,219.8c-0.1,0-0.1,0-0.1-0.1c-2.6-6.2-7.4-10.3-11-12.6c-4.2-2.7-8.3-4-9.9-3.7c0,0-0.1,0-0.1,0
					c0,0-0.1-0.1-0.1-0.1c-0.6-6.6-12.1-17.3-12.2-17.4c-0.1-0.1-0.1-0.2,0-0.2c0.1-0.1,0.2-0.1,0.2,0c0.5,0.4,11.5,10.7,12.3,17.4
					c1.8-0.2,5.8,1.1,10,3.8c3.6,2.3,8.4,6.4,11.1,12.7C768.5,219.6,768.4,219.7,768.3,219.8C768.3,219.8,768.3,219.8,768.3,219.8z"
					/>
			</g>
			<g>
				<path class="st1" d="M761.8,221.2c-0.1,0-0.1,0-0.2-0.1c-2.8-7.3-14-13.5-18-13.2c-0.1,0-0.2-0.1-0.2-0.1
					c-1-7.5-9.2-13.3-9.3-13.3c-0.1-0.1-0.1-0.2,0-0.2c0.1-0.1,0.2-0.1,0.2,0c0.1,0.1,8.3,5.8,9.4,13.4c2.2,0,6,1.5,9.6,3.9
					c4.2,2.8,7.3,6.3,8.6,9.5C762,221,762,221.1,761.8,221.2C761.9,221.2,761.9,221.2,761.8,221.2z"/>
			</g>
			<g>
				<path class="st1" d="M755,222.4c-0.1,0-0.1,0-0.1-0.1c-4-6.3-10.6-10.6-15.1-9.8c0,0-0.1,0-0.1,0c0,0-0.1-0.1-0.1-0.1
					c-0.1-6.3-9.6-12.4-9.7-12.4c-0.1,0-0.1-0.1,0-0.2c0-0.1,0.1-0.1,0.2-0.1c0.4,0.3,9.6,6.2,9.9,12.5c4.6-0.7,11.2,3.7,15.2,10
					C755.1,222.2,755.1,222.3,755,222.4C755,222.4,755,222.4,755,222.4z"/>
			</g>
			<g>
				<path class="st1" d="M749.5,224.5c-0.1,0-0.1,0-0.2-0.1c-0.8-2.5-3.9-4.2-5.7-5.1c-2.6-1.2-5.5-1.9-7.3-1.8
					c-0.1,0-0.1,0-0.2-0.1c-2.3-8.8-9.3-13.5-9.4-13.5c-0.1,0-0.1-0.1,0-0.2c0-0.1,0.1-0.1,0.2,0c0.1,0,7.1,4.8,9.5,13.6
					c3.7-0.2,11.8,2.9,13.1,7.1C749.7,224.4,749.7,224.5,749.5,224.5C749.6,224.5,749.6,224.5,749.5,224.5z"/>
			</g>
		</g>
		<g>
			<g>
				<path class="st1" d="M729.4,225.6c0,0,8.7-14.3,2.6-20c-6-5.7-16.5-12-24.5-2.8c-8,9.2-7.5,20.7,3.3,25.9
					C721.6,233.9,723.1,224.6,729.4,225.6z"/>
				<path class="st1" d="M716.7,230.5c-1.6,0-3.6-0.4-6-1.6c-4.7-2.2-7.7-5.7-8.6-10.1c-1.1-5.1,0.8-10.9,5.2-16
					c2.6-2.9,5.6-4.5,9-4.7c6.5-0.3,12.7,4.5,15.8,7.5c2.5,2.4,2.9,6.6,1,12.3c-1.4,4.2-3.6,7.8-3.6,7.9c0,0.1-0.1,0.1-0.2,0.1
					c-2.4-0.4-4.1,0.8-5.9,2.1C721.6,229.1,719.6,230.5,716.7,230.5z M716.9,198.4c-0.2,0-0.4,0-0.6,0c-3.3,0.2-6.2,1.7-8.7,4.6
					c-4.3,5-6.2,10.7-5.2,15.7c0.9,4.3,3.8,7.7,8.4,9.9c6.5,3.1,9.5,1,12.4-1c1.8-1.3,3.6-2.5,6.1-2.1c0.7-1.2,8.2-14.4,2.6-19.7
					C728.9,203,723.1,198.4,716.9,198.4z"/>
			</g>
			<g>
				<path class="st2" d="M731.2,235.7c-0.1,0-0.2-0.1-0.2-0.2c0-0.1,0-0.2,0.1-0.2c0.1-0.2,0.4-1.5-1.9-9.6
					c-1.7-6.3-7.2-10.9-11.5-13.6c-4.7-3-9-4.4-9.1-4.4c-0.1,0-0.2-0.2-0.2-0.3s0.2-0.2,0.3-0.2c0,0,4.4,1.5,9.2,4.5
					c4.4,2.8,10,7.4,11.8,13.9c1.6,5.7,2.2,9.3,1.8,10C731.4,235.6,731.3,235.7,731.2,235.7C731.2,235.7,731.2,235.7,731.2,235.7z
					 M731.1,235.2L731.1,235.2L731.1,235.2z M731.1,235.2L731.1,235.2L731.1,235.2z M731.1,235.2
					C731.1,235.2,731.1,235.2,731.1,235.2C731.1,235.2,731.1,235.2,731.1,235.2z M731.1,235.2C731.1,235.2,731.1,235.2,731.1,235.2
					C731.1,235.2,731.1,235.2,731.1,235.2z M731.1,235.2C731.1,235.2,731.1,235.2,731.1,235.2C731.1,235.2,731.1,235.2,731.1,235.2z
					"/>
			</g>
			<g>
				<path class="st2" d="M719.6,227C719.6,227,719.5,227,719.6,227c-0.1,0-0.2-0.1-0.2-0.2c0.6-1.9,2.9-5.5,5.5-6.2
					c1-0.3,2,0,2.9,0.7c-0.1-3.8,3.6-9.3,3.7-9.6c0-0.1,0.1-0.1,0.2,0c0.1,0,0.1,0.1,0,0.2c0,0.1-4,6.1-3.6,9.8c0,0.1,0,0.1-0.1,0.2
					c-0.1,0-0.1,0-0.2,0c-0.9-0.9-1.9-1.2-2.9-0.9c-2.4,0.6-4.7,4.2-5.2,6C719.7,227,719.6,227,719.6,227z"/>
			</g>
			<g>
				<path class="st2" d="M715.5,228C715.5,228,715.5,228,715.5,228c-0.1,0-0.2-0.1-0.2-0.2c0.4-4,2.5-7.5,5.5-9.3
					c1.6-0.9,3.2-1.2,4.5-0.8c-0.8-6.8,3.4-11.7,3.4-11.7c0.1-0.1,0.2-0.1,0.2,0c0.1,0.1,0.1,0.2,0,0.2c0,0-4.2,4.9-3.3,11.7
					c0,0.1,0,0.1-0.1,0.1c0,0-0.1,0-0.2,0c-1.2-0.5-2.9-0.3-4.5,0.6c-2.9,1.7-4.9,5.1-5.3,9C715.7,227.9,715.6,228,715.5,228z"/>
			</g>
			<g>
				<path class="st2" d="M711.7,224.2c-0.1,0-0.2-0.1-0.2-0.2c-0.1-2,0.7-4,2.4-5.8c2.4-2.4,5.8-3.8,7.5-3.8
					c-2.2-5.3,1.6-11.2,1.6-11.3c0-0.1,0.1-0.1,0.2,0c0.1,0,0.1,0.1,0,0.2c0,0.1-3.8,6-1.5,11.2c0,0.1,0,0.1,0,0.2
					c0,0-0.1,0.1-0.1,0.1c-1.5-0.1-5.1,1.3-7.5,3.7c-1.6,1.7-2.4,3.6-2.3,5.5C711.9,224.1,711.8,224.2,711.7,224.2
					C711.7,224.2,711.7,224.2,711.7,224.2z"/>
			</g>
			<g>
				<path class="st2" d="M706.2,223.4C706.2,223.4,706.2,223.4,706.2,223.4c-0.1,0-0.2-0.1-0.2-0.2c0.7-8.3,6.7-10.4,10.3-11.6
					c0.2-0.1,0.4-0.1,0.6-0.2c-1.4-2.9-0.1-9.3,0-9.6c0-0.1,0.1-0.1,0.2-0.1c0.1,0,0.1,0.1,0.1,0.2c0,0.1-1.4,6.9,0.1,9.6
					c0,0,0,0.1,0,0.1c0,0-0.1,0.1-0.1,0.1c-0.2,0.1-0.5,0.2-0.8,0.3c-3.5,1.2-9.5,3.2-10.1,11.3
					C706.4,223.3,706.3,223.4,706.2,223.4z"/>
			</g>
			<g>
				<path class="st2" d="M705.7,214.3C705.6,214.3,705.6,214.3,705.7,214.3c-0.1,0-0.2-0.1-0.2-0.2c0.5-2.2,4.1-4.5,7.6-4.9
					c-0.7-1.7,0-4.4,0.1-4.6c0-0.1,0.1-0.1,0.2-0.1c0.1,0,0.1,0.1,0.1,0.2c0,0-0.8,3,0,4.5c0,0,0,0.1,0,0.2c0,0-0.1,0.1-0.1,0.1
					c-3.5,0.3-7,2.5-7.5,4.7C705.8,214.2,705.7,214.3,705.7,214.3z"/>
			</g>
		</g>
		<g>
			<g>
				<path class="st2" d="M749.1,231.5c0,0-5.2-9-3.2-13.2c2-4.3,16.9-15.3,26.2-4.9c9.2,10.5,0.2,25.8-8.3,24
					C755.1,235.6,752.1,231.3,749.1,231.5z"/>
				<path class="st1" d="M765,237.6c-0.5,0-0.9,0-1.4-0.1c-4.9-1-8-2.8-10.2-4.2c-1.8-1-3.1-1.8-4.3-1.7c-0.1,0-0.1,0-0.2-0.1
					c-0.2-0.4-5.2-9.1-3.2-13.4c1.2-2.6,7.4-8.1,14.6-9.2c4.7-0.7,8.8,0.8,11.8,4.3c5.5,6.2,4.4,13.8,1.7,18.4
					C771.7,235.4,768.3,237.6,765,237.6z M749.3,231.3c1.3,0,2.6,0.7,4.3,1.8c2.2,1.3,5.3,3.1,10.1,4.1c3.5,0.7,7.4-1.5,9.9-5.8
					c2.6-4.5,3.7-11.9-1.7-18c-3-3.4-6.9-4.8-11.6-4.1c-6.8,1-13.2,6.4-14.3,9c-1.8,3.9,2.6,12.1,3.2,13
					C749.2,231.3,749.2,231.3,749.3,231.3z"/>
			</g>
			<g>
				<path class="st1" d="M746,235.9C746,235.9,746,235.9,746,235.9c-0.2,0-0.3-0.1-0.2-0.3c0-0.1,0.4-2.4,7-8.2
					c3.3-2.9,7.2-5.5,11-7.2c4-1.8,7.5-2.6,9.9-2.1c0.1,0,0.2,0.1,0.2,0.3c0,0.1-0.2,0.2-0.3,0.2c-4.7-0.8-13.7,3.2-20.5,9.3
					c-6.4,5.7-6.8,7.9-6.8,7.9C746.2,235.8,746.1,235.9,746,235.9z"/>
			</g>
			<g>
				<path class="st1" d="M764.2,232.5c0,0-0.1,0-0.1-0.1c-2.2-2.9-8.3-5.1-10.6-5.1c-0.1,0-0.1,0-0.1-0.1c0,0,0-0.1,0-0.1
					c1.3-3.5-2.4-8.4-2.5-8.4c-0.1-0.1,0-0.2,0-0.2c0.1-0.1,0.2,0,0.2,0c0.2,0.2,3.7,4.8,2.6,8.5c2.5,0.1,8.5,2.4,10.6,5.3
					C764.3,232.3,764.3,232.4,764.2,232.5C764.2,232.5,764.2,232.5,764.2,232.5z"/>
			</g>
			<g>
				<path class="st1" d="M770.4,233.6c-0.1,0-0.1,0-0.2-0.1c-0.9-2.8-4-5.1-6.4-6.5c-2.9-1.7-5.7-2.6-6.7-2.6c0,0-0.1,0-0.1-0.1
					c0,0,0-0.1,0-0.1c0.5-5.7-3-9.6-3-9.7c-0.1-0.1-0.1-0.2,0-0.2s0.2-0.1,0.2,0c0,0,3.5,4,3.1,9.8c2.4,0.3,11.4,4,13.2,9.3
					C770.6,233.5,770.6,233.6,770.4,233.6C770.5,233.6,770.4,233.6,770.4,233.6z"/>
			</g>
			<g>
				<path class="st1" d="M768.9,227.1c-0.1,0-0.1,0-0.1-0.1c-1.8-3.7-5.7-4.7-7.9-4.9c0,0-0.1,0-0.1-0.1c0,0,0-0.1,0-0.1
					c0.5-4.5-3.2-9.9-3.3-10c-0.1-0.1,0-0.2,0-0.2c0.1-0.1,0.2,0,0.2,0c0.2,0.2,3.8,5.5,3.4,10c2.3,0.3,6.1,1.3,8,5.1
					C769.1,226.9,769.1,227,768.9,227.1C769,227.1,768.9,227.1,768.9,227.1z"/>
			</g>
			<g>
				<path class="st1" d="M772.7,226.8c-0.1,0-0.1-0.1-0.2-0.1c-0.6-3.4-5.5-6.5-8.1-6.5c-0.1,0-0.1,0-0.1-0.1c0-0.1,0-0.1,0-0.2
					c2-3.2-1.5-8.4-1.5-8.4c0-0.1,0-0.2,0-0.2c0.1-0.1,0.2,0,0.2,0c0.1,0.2,3.4,5.2,1.6,8.6c2.9,0.2,7.6,3.3,8.2,6.8
					C772.9,226.7,772.8,226.8,772.7,226.8C772.7,226.8,772.7,226.8,772.7,226.8z"/>
			</g>
			<g>
				<path class="st1" d="M773.2,221.4c-0.1,0-0.1-0.1-0.2-0.1c-0.3-1.5-2.4-2.5-3.8-2.6c-0.1,0-0.1,0-0.1-0.1c0-0.1,0-0.1,0-0.2
					c1.6-2.2,0.2-3.7,0.2-3.8c-0.1-0.1-0.1-0.2,0-0.2c0.1-0.1,0.2-0.1,0.2,0c0,0,1.5,1.6,0,4c1.5,0.3,3.5,1.2,3.9,2.8
					C773.4,221.3,773.3,221.4,773.2,221.4C773.2,221.4,773.2,221.4,773.2,221.4z"/>
			</g>
		</g>
	</g>
</g>
<g>
	<g>
		<path class="st2" d="M407.5,230.1l-2.9,17.8c-6.3,1.4-12.8,1.6-19.4,0.5l-1-19.5L407.5,230.1z"/>
		<path class="st1" d="M393.5,249.3c-2.8,0-5.6-0.2-8.4-0.7c-0.1,0-0.1-0.1-0.1-0.2l-1-19.5c0,0,0-0.1,0.1-0.1c0,0,0.1-0.1,0.1-0.1
			l23.4,1.1c0,0,0.1,0,0.1,0.1s0,0.1,0,0.1l-2.9,17.8c0,0.1-0.1,0.1-0.1,0.1C400.9,248.9,397.2,249.3,393.5,249.3z M385.3,248.3
			c6.5,1,12.9,0.8,19.1-0.5l2.9-17.5l-23-1.1L385.3,248.3z"/>
	</g>
	<g>
		<ellipse class="st1" cx="397.7" cy="229.3" rx="10.7" ry="1.1"/>
		<path class="st1" d="M397.7,230.6c-2.9,0-5.5-0.1-7.6-0.3c-3.3-0.3-3.3-0.8-3.3-1c0-0.2,0-0.6,3.3-1c2-0.2,4.7-0.3,7.6-0.3
			c2.9,0,5.5,0.1,7.6,0.3c3.3,0.3,3.3,0.8,3.3,1c0,0.2,0,0.6-3.3,1C403.3,230.5,400.6,230.6,397.7,230.6z M387.2,229.3
			c0.3,0.4,4.2,1,10.5,1c6.3,0,10.2-0.6,10.5-1c-0.3-0.4-4.2-1-10.5-1C391.4,228.4,387.5,228.9,387.2,229.3z M408.2,229.3
			L408.2,229.3L408.2,229.3z"/>
	</g>
	<g>
		<g>
			<g>
				<g>
					<path class="st3" d="M396.9,223.9c0,0,25.6,14.7,38.6-3.5s7.3-35-6.8-42.8s-33.6-1.7-39.7,7.7S399.2,220.4,396.9,223.9z"/>
					<path class="st1" d="M417.2,229.7c-1.9,0-3.9-0.2-5.9-0.5c-8-1.4-14.4-5.1-14.5-5.1c0,0-0.1-0.1-0.1-0.1c0,0,0-0.1,0-0.1
						c0.8-1.3-1-6-3.2-11.5c-3.8-9.4-8.5-21.2-4.7-27.1c3.1-4.7,9.4-8.6,16.9-10.4c8.3-1.9,16.4-1,23,2.6c7.1,3.9,11.9,10,13.6,17.1
						c1.9,8.2-0.4,17.1-6.7,25.9c-3,4.2-6.9,6.9-11.6,8.3C421.9,229.4,419.6,229.7,417.2,229.7z M397.1,223.9c1,0.6,7,3.7,14.2,5
						c7.3,1.3,17.3,0.8,24-8.5c6.2-8.7,8.5-17.5,6.6-25.6c-1.6-7.1-6.4-13.1-13.4-16.9c-6.5-3.6-14.6-4.5-22.8-2.6
						c-7.5,1.7-13.7,5.5-16.7,10.2c-3.7,5.7,1.2,17.9,4.7,26.7C396.1,217.8,397.9,222.3,397.1,223.9z"/>
				</g>
				<g>
					<path class="st1" d="M387.9,230c-0.1,0-0.2-0.1-0.2-0.2c-0.1-0.1,0-0.3,0.1-0.4c12.9-6.1,22.6-17,28.5-25.1
						c6.4-8.7,9.7-16.1,9.7-16.2c0.1-0.1,0.2-0.2,0.3-0.1c0.1,0.1,0.2,0.2,0.1,0.3c0,0.1-3.4,7.5-9.8,16.3
						c-5.9,8.1-15.7,19.1-28.7,25.3C388,230,388,230,387.9,230z"/>
				</g>
				<g>
					<path class="st1" d="M434.9,195C434.9,195,434.8,195,434.9,195c-0.2-0.1-6-3.9-11.1-1.5c0,0-0.1,0-0.2,0c0,0-0.1-0.1-0.1-0.1
						c-1.3-5.8-7.3-11.3-7.4-11.4c-0.1-0.1-0.1-0.2,0-0.2c0.1-0.1,0.2-0.1,0.2,0c0.1,0.1,6,5.6,7.5,11.4c5.2-2.3,11.1,1.5,11.1,1.6
						c0.1,0.1,0.1,0.2,0,0.2C435,194.9,434.9,195,434.9,195z"/>
				</g>
				<g>
					<path class="st1" d="M434.1,204.5c0,0-0.1,0-0.1,0c-0.1-0.1-8.9-6.5-13.1-5.7c-0.1,0-0.2,0-0.2-0.1c-0.9-3.2-5.2-12.4-13.9-16
						c-0.1,0-0.1-0.1-0.1-0.2c0-0.1,0.1-0.1,0.2-0.1c8.7,3.6,13,12.7,14,16.1c4.4-0.6,12.9,5.6,13.2,5.8c0.1,0.1,0.1,0.2,0,0.2
						C434.2,204.5,434.2,204.5,434.1,204.5z"/>
				</g>
				<g>
					<path class="st1" d="M437.6,213.3c0,0-0.1,0-0.1,0c-0.1-0.1-13.2-9.7-20-9c0,0-0.1,0-0.1,0c0,0-0.1-0.1-0.1-0.1
						c-0.1-1.7-2.1-5.6-5.7-9.4c-3-3.2-8.1-7.2-14.9-8.7c-0.1,0-0.2-0.1-0.1-0.2c0-0.1,0.1-0.2,0.2-0.1c6.9,1.5,12,5.6,15.1,8.8
						c3.6,3.7,5.6,7.5,5.8,9.4c7-0.5,19.6,8.7,20.1,9.1c0.1,0.1,0.1,0.2,0,0.2C437.7,213.3,437.6,213.3,437.6,213.3z"/>
				</g>
				<g>
					<path class="st1" d="M429,215.6c0,0-0.1,0-0.1-0.1c-0.1-0.1-7.5-7.3-15.3-6.9c-0.1,0-0.2-0.1-0.2-0.2
						c-0.6-4.2-8.9-14.3-16.9-15.7c-0.1,0-0.2-0.1-0.1-0.2c0-0.1,0.1-0.2,0.2-0.1c3.5,0.7,7.7,3.2,11.4,6.9c3.1,3.2,5.4,6.7,5.8,9
						c7.9-0.3,15.4,6.9,15.4,7c0.1,0.1,0.1,0.2,0,0.2C429.1,215.6,429.1,215.6,429,215.6z"/>
				</g>
				<g>
					<path class="st1" d="M424.2,221.2c0,0-0.1,0-0.1-0.1c-0.1-0.1-8.2-8.6-14.5-7.5c-0.1,0-0.1,0-0.1,0c0,0-0.1-0.1-0.1-0.1
						c-0.1-4.7-5.7-10.6-12.8-13.4c-0.1,0-0.1-0.1-0.1-0.2c0-0.1,0.1-0.1,0.2-0.1c7.2,2.8,12.9,8.8,13.1,13.6
						c6.5-0.9,14.3,7.3,14.6,7.6c0.1,0.1,0.1,0.2,0,0.2C424.3,221.1,424.2,221.2,424.2,221.2z"/>
				</g>
				<g>
					<path class="st1" d="M420.8,224.9c0,0-0.1,0-0.1-0.1c-0.1-0.1-6.2-6.3-15.6-6.9c-0.1,0-0.2-0.1-0.2-0.2
						c-0.4-3.6-5.1-11.3-9.4-11.8c-0.1,0-0.2-0.1-0.2-0.2c0-0.1,0.1-0.2,0.2-0.2c4.5,0.5,9.2,8.2,9.7,12c9.4,0.7,15.6,7,15.7,7
						c0.1,0.1,0.1,0.2,0,0.2C420.9,224.9,420.8,224.9,420.8,224.9z"/>
				</g>
			</g>
			<g>
				<g>
					<path class="st1" d="M406.6,229.1c0,0,12.8-11.6,19.8-6.5s15.4,14.5,7.5,24.4c-7.8,9.9-19.6,11.7-26.9,1.7
						C399.6,238.6,408.8,235.3,406.6,229.1z"/>
					<path class="st1" d="M419,255.5c-0.1,0-0.2,0-0.2,0c-4.6-0.1-8.8-2.4-12-6.8c-4.5-6.1-2.8-9.9-1.4-13.1c0.9-2.1,1.8-4.1,1-6.4
						c0-0.1,0-0.1,0-0.2c0,0,3.3-2.9,7.3-5.2c5.4-3,9.8-3.5,12.7-1.3c3.6,2.6,9.7,8,10.6,14.6c0.5,3.5-0.6,6.8-3.1,10
						C429.8,252.4,424.4,255.5,419,255.5z M406.8,229.1c0.8,2.5-0.1,4.5-1,6.6c-1.5,3.3-3,6.8,1.3,12.8c3.1,4.2,7.2,6.5,11.7,6.6
						c5.3,0.1,10.8-2.9,15-8.3c2.4-3.1,3.4-6.4,3-9.8c-0.9-6.5-7-11.8-10.5-14.4C419.8,218,407.9,228.1,406.8,229.1z"/>
				</g>
				<g>
					<path class="st2" d="M429.1,246.9c-0.1,0-0.2,0-0.2-0.1c0,0-2.4-4.2-6.3-8.4c-3.6-3.9-9.3-8.6-16.1-9.1
						c-8.6-0.7-9.9-0.2-10.1-0.1c0,0.1-0.1,0.1-0.2,0.1c-0.1,0-0.3-0.1-0.3-0.3c0,0,0-0.1,0.1-0.2c0.6-0.6,4.3-0.6,10.5-0.1
						c6.9,0.6,12.8,5.4,16.4,9.3c4,4.2,6.3,8.4,6.3,8.4c0.1,0.1,0,0.3-0.1,0.4C429.2,246.9,429.2,246.9,429.1,246.9z M396.5,229.2
						L396.5,229.2L396.5,229.2z M396.5,229.2C396.5,229.2,396.5,229.2,396.5,229.2C396.5,229.2,396.5,229.2,396.5,229.2z
						 M396.5,229.2C396.5,229.2,396.5,229.2,396.5,229.2C396.5,229.2,396.5,229.2,396.5,229.2z M396.5,229.2
						C396.5,229.2,396.5,229.2,396.5,229.2C396.5,229.2,396.5,229.2,396.5,229.2z M396.5,229.2C396.5,229.2,396.5,229.2,396.5,229.2
						C396.5,229.2,396.5,229.2,396.5,229.2z"/>
				</g>
				<g>
					<path class="st2" d="M407.2,239.5c-0.1,0-0.1,0-0.2-0.1c0-0.1,0-0.2,0.1-0.2c1.7-0.9,4.9-3.9,5-6.5c0.1-1.1-0.4-2-1.5-2.8
						c-0.1,0-0.1-0.1-0.1-0.2c0-0.1,0.1-0.1,0.2-0.1c3.8-0.3,9.2-5.5,9.2-5.6c0.1-0.1,0.2-0.1,0.2,0c0.1,0.1,0.1,0.2,0,0.2
						c-0.2,0.2-5.1,5-9,5.6c0.9,0.8,1.4,1.7,1.3,2.8C412.4,235.4,409.1,238.5,407.2,239.5C407.3,239.5,407.3,239.5,407.2,239.5z"/>
				</g>
				<g>
					<path class="st2" d="M407,243.8c-0.1,0-0.1,0-0.2-0.1c0-0.1,0-0.2,0.1-0.2c3.9-1.2,7-3.9,8.1-7.2c0.6-1.8,0.6-3.5-0.2-4.7
						c0-0.1,0-0.1,0-0.2c0-0.1,0.1-0.1,0.1-0.1c7.1-0.4,11.2-5.6,11.3-5.6c0.1-0.1,0.2-0.1,0.2,0c0.1,0.1,0.1,0.2,0,0.2
						c0,0.1-4.2,5.2-11.3,5.7c0.7,1.2,0.7,2.9,0.1,4.7C414.2,239.8,411.1,242.5,407,243.8C407.1,243.8,407,243.8,407,243.8z"/>
				</g>
				<g>
					<path class="st2" d="M411.6,246.9c-0.1,0-0.2-0.1-0.2-0.2c0-0.1,0.1-0.2,0.2-0.2c2-0.2,3.8-1.4,5.2-3.4c2-2.9,2.7-6.8,2.3-8.3
						c0-0.1,0-0.1,0-0.2c0,0,0.1-0.1,0.2,0c5.7,1.4,11-3.6,11.1-3.7c0.1-0.1,0.2-0.1,0.2,0c0.1,0.1,0.1,0.2,0,0.2
						c-0.1,0.1-5.3,5-11.1,3.8c0.3,1.7-0.4,5.4-2.5,8.3C415.6,245.5,413.7,246.7,411.6,246.9C411.6,246.9,411.6,246.9,411.6,246.9z"
						/>
				</g>
				<g>
					<path class="st2" d="M413.5,252.4c-0.1,0-0.1-0.1-0.2-0.1c0-0.1,0-0.2,0.1-0.2c8.1-2.2,9-8.6,9.5-12.5c0-0.3,0.1-0.6,0.1-0.9
						c0-0.1,0-0.1,0.1-0.1c0,0,0.1,0,0.1,0c3,1,9.7-1.7,9.7-1.7c0.1,0,0.2,0,0.2,0.1c0,0.1,0,0.2-0.1,0.2c-0.3,0.1-6.6,2.6-9.8,1.8
						c0,0.2-0.1,0.4-0.1,0.7C422.8,243.5,421.9,250.1,413.5,252.4C413.5,252.4,413.5,252.4,413.5,252.4z"/>
				</g>
				<g>
					<path class="st2" d="M422.9,251.2c-0.1,0-0.1,0-0.2-0.1c0-0.1,0-0.2,0.1-0.2c2.1-0.9,3.7-5,3.3-8.6c0-0.1,0-0.1,0.1-0.2
						c0,0,0.1-0.1,0.2,0c1.7,0.5,4.6-0.9,4.6-0.9c0.1,0,0.2,0,0.2,0.1c0,0.1,0,0.2-0.1,0.2c-0.1,0.1-2.8,1.3-4.6,0.9
						C426.8,246.1,425.1,250.2,422.9,251.2C422.9,251.2,422.9,251.2,422.9,251.2z"/>
				</g>
			</g>
			<g>
				<g>
					<path class="st2" d="M395.6,225.3c0,0-1.2-18-10.1-19.2c-8.9-1.3-22-0.3-23.4,12.8c-1.3,13.1,6.2,23,19,20.8
						C393.9,237.5,389.4,228.3,395.6,225.3z"/>
					<path class="st1" d="M377.7,240.1c-4.1,0-7.6-1.3-10.4-3.9c-4.1-3.9-6.1-10.2-5.3-17.4c0.4-4.2,2.1-7.5,5-9.7
						c5.5-4.3,14-3.9,18.6-3.2c3.7,0.5,6.6,4.1,8.5,10.2c1.4,4.6,1.7,9.1,1.7,9.2c0,0.1,0,0.1-0.1,0.2c-2.4,1.2-3.1,3.3-4,5.5
						c-1.3,3.5-2.7,7.5-10.6,8.8C379.9,240,378.8,240.1,377.7,240.1z M379.9,205.8c-4.2,0-9.1,0.8-12.7,3.6
						c-2.8,2.2-4.4,5.4-4.9,9.5c-0.7,7.1,1.2,13.3,5.2,17.1c3.4,3.2,8.1,4.4,13.6,3.5c7.6-1.3,9-5,10.3-8.6c0.8-2.3,1.6-4.4,4-5.7
						c-0.1-1.5-1.7-17.8-9.9-19C384,206,382,205.8,379.9,205.8z"/>
				</g>
				<g>
					<path class="st1" d="M397,230.1c-0.1,0-0.2-0.1-0.2-0.1c-0.1-0.1,0-0.3,0.1-0.4c0,0,0.5-0.3,0.6-0.9c0.1-0.6-0.2-1.6-2.1-3.2
						c-5.3-4.7-13-5.3-18.5-5c-6,0.3-10.8,1.8-10.9,1.8c-0.1,0-0.3,0-0.3-0.2c0-0.1,0-0.3,0.2-0.3c0,0,4.9-1.5,11-1.9
						c5.6-0.3,13.5,0.3,18.9,5.1c1.6,1.4,2.4,2.7,2.2,3.7c-0.1,0.9-0.8,1.2-0.9,1.3C397.1,230.1,397,230.1,397,230.1z"/>
				</g>
				<g>
					<path class="st1" d="M387.7,232.6c-0.1,0-0.1,0-0.2-0.1c-0.7-2-0.9-6.7,1-8.8c0.8-0.9,1.8-1.3,3-1.2
						c-2.4-3.3-2.7-10.5-2.7-10.8c0-0.1,0.1-0.2,0.2-0.2c0,0,0,0,0,0c0.1,0,0.2,0.1,0.2,0.2c0,0.1,0.2,7.9,2.9,10.9
						c0,0.1,0.1,0.1,0,0.2c0,0.1-0.1,0.1-0.2,0.1c-1.3-0.2-2.4,0.1-3.1,1c-1.8,2-1.5,6.6-0.9,8.5
						C387.9,232.5,387.8,232.6,387.7,232.6C387.7,232.6,387.7,232.6,387.7,232.6z"/>
				</g>
				<g>
					<path class="st1" d="M384.7,236c-0.1,0-0.1,0-0.2-0.1c-2.1-3.8-2.5-8.2-0.9-11.6c0.8-1.8,2.1-3.1,3.5-3.5
						c-4.9-5.6-4.3-12.4-4.3-12.5c0-0.1,0.1-0.2,0.2-0.2c0.1,0,0.2,0.1,0.2,0.2c0,0.1-0.6,6.9,4.4,12.4c0,0,0.1,0.1,0,0.2
						c0,0.1-0.1,0.1-0.1,0.1c-1.4,0.3-2.7,1.5-3.6,3.3c-1.5,3.3-1.2,7.5,0.9,11.3C384.9,235.8,384.9,235.9,384.7,236
						C384.8,236,384.8,236,384.7,236z"/>
				</g>
				<g>
					<path class="st1" d="M379,235c-0.1,0-0.1,0-0.1-0.1c-1.4-1.7-1.9-4-1.5-6.6c0.6-3.7,2.8-6.9,4.2-8c-5.2-3.3-5.5-10.9-5.6-11
						c0-0.1,0.1-0.2,0.2-0.2c0.1,0,0.2,0.1,0.2,0.2c0,0.1,0.3,7.7,5.6,10.8c0.1,0,0.1,0.1,0.1,0.1c0,0.1,0,0.1-0.1,0.2
						c-1.4,0.9-3.7,4.3-4.3,7.9c-0.4,2.5,0.1,4.7,1.4,6.3c0.1,0.1,0,0.2,0,0.2C379.1,235,379,235,379,235z"/>
				</g>
				<g>
					<path class="st1" d="M373.6,237.7c-0.1,0-0.1,0-0.2-0.1c-4.6-7.8-0.5-13.3,1.9-16.7c0.1-0.2,0.3-0.4,0.4-0.6
						c-3-1.7-5.9-8.2-6-8.5c0-0.1,0-0.2,0.1-0.2c0.1,0,0.2,0,0.2,0.1c0,0.1,3.1,6.9,6,8.4c0,0,0.1,0.1,0.1,0.1c0,0,0,0.1,0,0.1
						c-0.2,0.2-0.3,0.5-0.5,0.7c-2.4,3.2-6.4,8.7-1.9,16.3C373.8,237.5,373.8,237.6,373.6,237.7
						C373.7,237.7,373.7,237.7,373.6,237.7z"/>
				</g>
				<g>
					<path class="st1" d="M367.5,230c-0.1,0-0.1,0-0.2-0.1c-1-2.3,0.8-6.6,3.7-9.1c-1.6-1.1-2.7-3.9-2.8-4.1c0-0.1,0-0.2,0.1-0.2
						c0.1,0,0.2,0,0.2,0.1c0,0,1.2,3.1,2.8,4c0.1,0,0.1,0.1,0.1,0.1c0,0.1,0,0.1-0.1,0.2c-2.9,2.4-4.7,6.6-3.7,8.8
						C367.7,229.9,367.6,230,367.5,230C367.5,230,367.5,230,367.5,230z"/>
				</g>
			</g>
		</g>
	</g>
</g>
</svg>
