<?xml version="1.0" encoding="utf-8"?>
<!-- Generator: Adobe Illustrator 26.4.1, SVG Export Plug-In . SVG Version: 6.00 Build 0)  -->
<svg version="1.1" id="Layer_1" xmlns="http://www.w3.org/2000/svg" xmlns:xlink="http://www.w3.org/1999/xlink" x="0px" y="0px"
	 viewBox="0 0 1600 600" style="enable-background:new 0 0 1600 600;" xml:space="preserve">
<style type="text/css">
	
		.st0{clip-path:url(#SVGID_00000045603791207327760410000006081431838493981586_);fill:url(#SVGID_00000085959829144226555640000001138735735426804114_);}
	.st1{fill:#FFFFFF;}
	.st2{fill:#1A1A1A;}
	.st3{fill:#91B5FC;}
	.st4{fill:#4558EF;}
	.st5{fill:#808080;}
	.st6{fill:#3282F7;}
	.st7{fill:url(#SVGID_00000036248883969964135940000009005104059607266739_);}
</style>
<g>
	<defs>
		<rect id="SVGID_1_" x="2" y="-7" width="1634.2" height="583.5"/>
	</defs>
	<clipPath id="SVGID_00000056404034533512530500000017916399409868046978_">
		<use xlink:href="#SVGID_1_"  style="overflow:visible;"/>
	</clipPath>
	
		<radialGradient id="SVGID_00000114760812763717422820000012658096046505352885_" cx="729.6602" cy="815.2488" r="795.4271" gradientTransform="matrix(1.0038 0 0 0.2295 99.7078 383.4001)" gradientUnits="userSpaceOnUse">
		<stop  offset="0.4079" style="stop-color:#EBEBF2"/>
		<stop  offset="1" style="stop-color:#EBEBF2;stop-opacity:0"/>
	</radialGradient>
	
		<ellipse style="clip-path:url(#SVGID_00000056404034533512530500000017916399409868046978_);fill:url(#SVGID_00000114760812763717422820000012658096046505352885_);" cx="832.1" cy="570.5" rx="804.1" ry="184.5"/>
</g>
<g>
	<path class="st1" d="M1137.1,358.1l-0.1-0.3c-3.2-8.3-1.4-17.3,4.6-22.6c3.7-3.3,9-5.1,14.8-5.1c6.9,0,13.7,2.6,18.7,7.3
		c2-4.3,7.4-13.4,19.1-18.4c4.9-2.1,10.2-3.2,15.8-3.2c9.1,0,16.2,2.9,18.7,4c4.4-4.6,10.7-7.3,17.2-7.3c1.4,0,2.7,0.1,4.1,0.4
		c9.1,1.6,16.2,8.4,17.9,17c3.8,1.6,6.9,3.9,9,6.9c4.6,6.4,4.3,15.3-0.8,23.1l-0.1,0.2L1137.1,358.1z"/>
	<path class="st2" d="M1137.5,358.3c-0.3,0-0.5-0.1-0.6-0.4c-1.6-4.1-2-8.4-1.2-12.4c0.8-4.1,2.9-7.6,5.8-10.3
		c3.7-3.3,9.2-5.1,14.9-5.1c0.2,0,0.3,0,0.5,0c3.4,0.1,6.9,0.8,9.9,2c3,1.2,5.8,3,8.2,5.1c2-4.3,7.5-13.3,19.1-18.3
		c5-2.1,10.3-3.2,15.8-3.2c2.4,0,4.9,0.2,7.4,0.6c5.4,0.9,9.5,2.5,11.3,3.3c4.4-4.6,10.7-7.3,17.3-7.3c1.4,0,2.8,0.1,4.1,0.4
		c9.1,1.6,16.3,8.4,18,17c3.8,1.6,6.9,4,9,6.9c2.3,3.2,3.4,7,3.2,11.2c-0.2,4.1-1.5,8.2-4,12c-0.1,0.2-0.3,0.3-0.6,0.3L1137.5,358.3
		z M1275.4,359.2c4.7-7.5,5-15.9,0.6-22c-2-2.9-5.1-5.2-8.8-6.6c-0.2-0.1-0.3-0.2-0.3-0.4c-1.5-8.3-8.4-14.9-17.1-16.4
		c-1.3-0.2-2.5-0.3-3.8-0.3c-6.3,0-12.4,2.6-16.6,7.2c-0.1,0.1-0.3,0.2-0.5,0.2h-0.1l-0.2-0.1c-2-1-9.2-4.1-18.5-4.1
		c-5.4,0-10.5,1-15.3,3.1c-12,5.1-17.2,14.7-18.9,18.5c-0.1,0.2-0.3,0.3-0.6,0.3h-0.1l-0.1,0c-0.1,0-0.2-0.1-0.3-0.2
		c-4.7-4.6-11.3-7.3-17.9-7.5c-0.2,0-0.4,0-0.5,0c-5.4,0-10.4,1.7-13.9,4.8c-5.7,5-7.5,13.5-4.5,21.4L1275.4,359.2z"/>
</g>
<g>
	<path class="st1" d="M632.8,516.7l-0.1-0.3c-5.2-12.8-2.2-26.8,7.4-34.9c6-5.1,14.4-7.9,23.6-7.9c11.2,0,22.2,4.2,30.4,11.5
		c3.1-6.5,11.8-20.9,30.9-28.8c7.9-3.3,16.4-4.9,25.3-4.9c14.9,0,26.5,4.6,30.3,6.3c7.1-7.3,17.2-11.4,27.7-11.4
		c2.2,0,4.4,0.2,6.5,0.5c14.6,2.5,26.1,13,28.7,26.3c6.2,2.4,11.2,6.1,14.6,10.7c7.3,10,6.8,23.6-1.3,35.7l-0.1,0.2L632.8,516.7z"/>
	<path class="st2" d="M633.2,516.9c-0.3,0-0.6-0.2-0.7-0.4c-2.6-6.3-3.2-13-1.9-19.3c1.3-6.3,4.6-11.8,9.4-15.9
		c6-5,14.7-7.9,23.8-7.9c0.3,0,0.6,0,0.8,0c5.5,0.1,11,1.2,15.9,3.1c5,1.9,9.6,4.7,13.5,8.2c3.1-6.4,11.9-20.8,30.9-28.6
		c8-3.3,16.5-5,25.4-5c3.9,0,7.9,0.3,11.9,1c9.1,1.4,16,4.2,18.4,5.3c7.1-7.2,17.2-11.4,27.8-11.4c2.2,0,4.4,0.2,6.6,0.5
		c14.6,2.5,26.2,13.1,28.9,26.4c6.2,2.4,11.2,6.1,14.6,10.7c3.6,4.9,5.4,10.9,5.2,17.3c-0.2,6.3-2.5,12.7-6.4,18.6
		c-0.1,0.2-0.4,0.3-0.6,0.3h0L633.2,516.9z M856.1,518.8c7.7-11.7,8.2-24.9,1.1-34.5c-3.3-4.5-8.3-8.1-14.3-10.4
		c-0.2-0.1-0.4-0.2-0.4-0.4c-2.5-13-13.7-23.4-27.8-25.8c-2-0.3-4.1-0.5-6.2-0.5c-10.3,0-20.2,4.1-27,11.3c-0.1,0.1-0.4,0.2-0.6,0.2
		c-0.1,0-0.3,0-0.4-0.1c-3.2-1.5-14.9-6.4-30-6.4c-8.7,0-17,1.6-24.8,4.8c-19.4,8-27.9,22.9-30.6,29c-0.1,0.2-0.4,0.4-0.7,0.4h-0.1
		l-0.2,0c-0.1,0-0.2-0.1-0.3-0.2c-7.7-7.2-18.3-11.5-29.1-11.7c-0.3,0-0.6,0-0.9,0c-8.9,0-16.9,2.7-22.7,7.5
		c-9.3,7.8-12.2,21.3-7.3,33.7L856.1,518.8z"/>
</g>
<g>
	<g>
		<g>
			<path class="st2" d="M628.3,399.1c-1.8-0.2-3.5-0.4-5.2-0.6c-0.3,0-0.5-0.2-0.7-0.4c-0.2-0.2-0.2-0.5-0.2-0.8
				c0.1-0.5,0.5-0.9,1-0.9l0.1,0c1.7,0.2,3.4,0.4,5.1,0.6c0.3,0,0.5,0.2,0.7,0.4c0.2,0.2,0.3,0.5,0.2,0.8
				C629.4,398.7,628.9,399.1,628.3,399.1L628.3,399.1z M618,397.9c-1.7-0.2-3.5-0.5-5.1-0.7c-0.3,0-0.5-0.2-0.7-0.4
				c-0.2-0.2-0.2-0.5-0.2-0.8c0.1-0.5,0.5-0.9,1-0.9l0.1,0c1.7,0.2,3.4,0.5,5.1,0.7c0.3,0,0.5,0.2,0.7,0.4c0.2,0.2,0.2,0.5,0.2,0.8
				c-0.1,0.5-0.5,0.9-1,0.9L618,397.9z M607.7,396.4c-1.7-0.3-3.4-0.5-5.1-0.8c-0.3,0-0.5-0.2-0.7-0.4c-0.2-0.2-0.2-0.5-0.2-0.8
				c0.1-0.5,0.5-0.9,1-0.9h0.1l0.1,0c1.7,0.3,3.4,0.6,5.1,0.8c0.6,0.1,0.9,0.6,0.9,1.2c-0.1,0.5-0.5,0.9-1,0.9L607.7,396.4z
				 M597.6,394.7l-0.1,0c-1.7-0.3-3.4-0.6-5.1-1c-0.3-0.1-0.5-0.2-0.7-0.4c-0.2-0.2-0.2-0.5-0.2-0.8c0.1-0.5,0.5-0.8,1-0.8h0.1
				l0.1,0c1.7,0.3,3.4,0.6,5.1,1c0.3,0,0.5,0.2,0.7,0.4c0.2,0.2,0.2,0.5,0.2,0.8C598.6,394.3,598.2,394.7,597.6,394.7L597.6,394.7z
				 M587.4,392.7l-0.1,0c-1.7-0.4-3.4-0.7-5.1-1.1c-0.6-0.1-0.9-0.7-0.8-1.2c0.1-0.5,0.5-0.8,1-0.8h0.1l0.2,0c1.7,0.4,3.4,0.7,5,1.1
				c0.3,0.1,0.5,0.2,0.7,0.4c0.2,0.2,0.2,0.5,0.1,0.8C588.4,392.3,588,392.7,587.4,392.7L587.4,392.7z M577.3,390.4l-0.2,0
				c-1.7-0.4-3.4-0.8-5-1.3c-0.3-0.1-0.5-0.2-0.6-0.5c-0.1-0.2-0.2-0.5-0.1-0.8c0.1-0.5,0.5-0.8,1-0.8h0.1l0.2,0
				c1.6,0.4,3.3,0.8,5,1.2c0.6,0.1,0.9,0.7,0.8,1.2C578.3,390.1,577.9,390.4,577.3,390.4L577.3,390.4z M567.3,387.8l-0.2,0
				c-1.7-0.5-3.4-0.9-5-1.4c-0.5-0.2-0.9-0.7-0.7-1.3c0.1-0.4,0.5-0.7,1-0.7c0.1,0,0.2,0,0.3,0c1.6,0.5,3.3,0.9,5,1.4
				c0.5,0.2,0.9,0.7,0.7,1.3C568.2,387.5,567.8,387.8,567.3,387.8L567.3,387.8z M557.4,384.9c-0.1,0-0.2,0-0.3,0
				c-1.7-0.5-3.3-1-5-1.6c-0.3-0.1-0.5-0.3-0.6-0.5c-0.1-0.2-0.1-0.5-0.1-0.8c0.1-0.4,0.5-0.7,1-0.7c0.1,0,0.2,0,0.3,0.1
				c1.6,0.5,3.3,1.1,4.9,1.6c0.3,0.1,0.5,0.3,0.6,0.5c0.1,0.2,0.2,0.5,0.1,0.8C558.3,384.7,557.9,384.9,557.4,384.9z M547.6,381.7
				c-0.1,0-0.2,0-0.3-0.1c-1.6-0.6-3.3-1.2-4.9-1.8c-0.5-0.2-0.8-0.8-0.6-1.3c0.2-0.4,0.5-0.7,1-0.7c0.1,0,0.2,0,0.4,0.1
				c1.6,0.6,3.2,1.2,4.8,1.8c0.5,0.2,0.8,0.8,0.6,1.3C548.4,381.4,548,381.7,547.6,381.7z M537.9,378.1c-0.1,0-0.3,0-0.4-0.1
				c-1.6-0.6-3.2-1.3-4.8-2c-0.5-0.2-0.8-0.8-0.6-1.3c0.2-0.4,0.5-0.6,1-0.6c0.1,0,0.3,0,0.4,0.1c1.6,0.7,3.2,1.3,4.8,1.9
				c0.3,0.1,0.5,0.3,0.6,0.5c0.1,0.3,0.1,0.5,0,0.8C538.7,377.8,538.3,378.1,537.9,378.1z M528.4,374.1c-0.1,0-0.3,0-0.4-0.1
				c-1.6-0.7-3.2-1.4-4.7-2.2c-0.5-0.2-0.7-0.9-0.5-1.4c0.2-0.4,0.5-0.6,0.9-0.6c0.2,0,0.3,0,0.4,0.1c1.5,0.7,3.1,1.5,4.7,2.2
				c0.3,0.1,0.4,0.3,0.5,0.6c0.1,0.3,0.1,0.5,0,0.8C529.1,373.8,528.8,374.1,528.4,374.1z M519,369.6c-0.2,0-0.3,0-0.5-0.1
				c-1.6-0.8-3.1-1.6-4.6-2.4c-0.2-0.1-0.4-0.3-0.5-0.6c-0.1-0.3-0.1-0.5,0.1-0.8c0.2-0.3,0.5-0.5,0.9-0.5c0.2,0,0.3,0,0.5,0.1
				c1.5,0.8,3,1.6,4.6,2.4c0.2,0.1,0.4,0.3,0.5,0.6c0.1,0.3,0.1,0.5-0.1,0.8C519.8,369.4,519.4,369.6,519,369.6z M509.9,364.7
				c-0.2,0-0.4,0-0.5-0.1c-1.5-0.9-3-1.8-4.5-2.6c-0.2-0.1-0.4-0.4-0.5-0.6c-0.1-0.3,0-0.5,0.1-0.8c0.2-0.3,0.5-0.5,0.9-0.5
				c0.2,0,0.4,0.1,0.5,0.1c1.5,0.9,2.9,1.8,4.4,2.6c0.2,0.1,0.4,0.4,0.5,0.6c0.1,0.3,0,0.5-0.1,0.8
				C510.6,364.5,510.3,364.7,509.9,364.7z M501.1,359.3c-0.2,0-0.4-0.1-0.6-0.2c-1.5-0.9-2.9-1.9-4.3-2.9c-0.2-0.2-0.4-0.4-0.4-0.7
				c0-0.3,0-0.5,0.2-0.8c0.2-0.3,0.5-0.4,0.8-0.4c0.2,0,0.4,0.1,0.6,0.2c1.4,1,2.8,1.9,4.3,2.9c0.5,0.3,0.6,0.9,0.3,1.4
				C501.7,359.2,501.4,359.3,501.1,359.3z M492.5,353.5c-0.2,0-0.4-0.1-0.6-0.2c-1.4-1-2.8-2.1-4.1-3.2c-0.4-0.4-0.5-1-0.2-1.4
				c0.2-0.2,0.5-0.4,0.8-0.4c0.2,0,0.5,0.1,0.6,0.2c1.3,1.1,2.7,2.1,4.1,3.1c0.2,0.2,0.4,0.4,0.4,0.7c0,0.3,0,0.5-0.2,0.8
				C493.2,353.3,492.9,353.5,492.5,353.5z M484.4,347c-0.2,0-0.5-0.1-0.7-0.2c-1.3-1.1-2.6-2.3-3.9-3.4c-0.4-0.4-0.5-1-0.1-1.5
				c0.2-0.2,0.5-0.3,0.8-0.3c0.3,0,0.5,0.1,0.7,0.3c1.3,1.1,2.6,2.3,3.9,3.4c0.2,0.2,0.3,0.4,0.4,0.7c0,0.3-0.1,0.5-0.2,0.8
				C485,346.9,484.7,347,484.4,347z M476.8,340.1c-0.3,0-0.5-0.1-0.7-0.3c-1.2-1.2-2.5-2.5-3.7-3.7c-0.2-0.2-0.3-0.5-0.3-0.7
				c0-0.3,0.1-0.5,0.3-0.7c0.2-0.2,0.4-0.3,0.7-0.3c0.3,0,0.6,0.1,0.7,0.3c1.2,1.2,2.4,2.5,3.6,3.7c0.4,0.4,0.4,1.1,0,1.5
				C477.3,340,477.1,340.1,476.8,340.1z M469.7,332.6c-0.3,0-0.6-0.1-0.8-0.4c-1.1-1.3-2.3-2.6-3.4-4c-0.4-0.4-0.3-1.1,0.2-1.5
				c0.2-0.1,0.4-0.2,0.6-0.2c0.3,0,0.6,0.1,0.8,0.4c1.1,1.3,2.2,2.6,3.3,3.9c0.4,0.4,0.3,1.1-0.1,1.5
				C470.1,332.5,469.9,332.6,469.7,332.6z M463.2,324.5c-0.3,0-0.6-0.2-0.8-0.4c-1-1.4-2.1-2.8-3-4.2c-0.3-0.5-0.2-1.1,0.3-1.4
				c0.2-0.1,0.4-0.2,0.6-0.2c0.3,0,0.7,0.2,0.9,0.5c1,1.4,2,2.8,3,4.2c0.3,0.5,0.2,1.1-0.2,1.4C463.6,324.5,463.4,324.5,463.2,324.5
				z M457.3,316c-0.4,0-0.7-0.2-0.9-0.5c-0.9-1.5-1.8-3-2.6-4.5c-0.1-0.2-0.2-0.5-0.1-0.8c0.1-0.3,0.2-0.5,0.5-0.6
				c0.2-0.1,0.3-0.1,0.5-0.1c0.4,0,0.7,0.2,0.9,0.5c0.8,1.5,1.7,3,2.6,4.4c0.3,0.5,0.1,1.1-0.3,1.4C457.7,315.9,457.5,316,457.3,316
				z M452.3,306.9c-0.4,0-0.7-0.2-0.9-0.6c-0.8-1.5-1.5-3.1-2.2-4.7c-0.2-0.5,0-1.1,0.5-1.4c0.1-0.1,0.3-0.1,0.4-0.1
				c0.4,0,0.8,0.2,0.9,0.6c0.7,1.5,1.4,3.1,2.2,4.6c0.1,0.2,0.1,0.5,0.1,0.8c-0.1,0.3-0.3,0.5-0.5,0.6
				C452.6,306.9,452.4,306.9,452.3,306.9z M448,297.5c-0.4,0-0.8-0.3-1-0.6c-0.6-1.6-1.3-3.3-1.8-4.9c-0.1-0.3-0.1-0.5,0-0.8
				c0.1-0.2,0.3-0.4,0.6-0.5c0.1,0,0.2-0.1,0.3-0.1c0.4,0,0.8,0.3,1,0.7c0.6,1.6,1.2,3.2,1.8,4.8c0.2,0.5,0,1.1-0.6,1.3
				C448.3,297.5,448.2,297.5,448,297.5z M444.6,287.7c-0.5,0-0.9-0.3-1-0.7c-0.5-1.7-1-3.3-1.4-5c-0.1-0.3,0-0.5,0.1-0.8
				c0.1-0.2,0.4-0.4,0.6-0.5l0.1,0l0.2,0c0.5,0,0.9,0.3,1,0.8c0.4,1.6,0.9,3.3,1.4,4.9c0.1,0.3,0,0.5-0.1,0.8
				c-0.1,0.2-0.3,0.4-0.6,0.5C444.8,287.7,444.7,287.7,444.6,287.7z M442.1,277.7c-0.5,0-0.9-0.3-1-0.8c-0.3-1.7-0.7-3.4-0.9-5.1
				c0-0.3,0-0.5,0.2-0.8c0.2-0.2,0.4-0.4,0.7-0.4l0.2,0c0.5,0,0.9,0.4,1,0.9c0.3,1.7,0.6,3.4,0.9,5c0.1,0.6-0.2,1.1-0.8,1.2l-0.1,0
				L442.1,277.7z M440.5,267.5c-0.5,0-1-0.4-1-0.9c-0.2-1.7-0.4-3.5-0.5-5.2c0-0.6,0.4-1.1,0.9-1.1c0,0,0,0,0,0
				c0.6,0,1.1,0.4,1.1,0.9c0.1,1.7,0.3,3.4,0.5,5.1c0.1,0.6-0.3,1.1-0.9,1.1L440.5,267.5z M439.7,257.2c-0.6,0-1-0.4-1-1
				c-0.1-1.6-0.1-3.2-0.1-4.8l0-0.4c0-0.6,0.5-1,1-1c0.3,0,0.5,0.1,0.7,0.3c0.2,0.2,0.3,0.5,0.3,0.7l0,0.4c0,1.6,0,3.2,0.1,4.7
				C440.7,256.7,440.3,257.2,439.7,257.2L439.7,257.2z M439.6,246.8c-0.2,0-0.5-0.1-0.7-0.3c-0.2-0.2-0.3-0.5-0.3-0.7
				c0.1-1.7,0.2-3.5,0.3-5.2c0-0.5,0.5-0.9,1-0.9c0.6,0,1.1,0.5,1,1.1c-0.1,1.7-0.2,3.5-0.3,5.1
				C440.7,246.4,440.3,246.8,439.6,246.8L439.6,246.8z M440.4,236.5c-0.3,0-0.5-0.2-0.7-0.4c-0.2-0.2-0.2-0.5-0.2-0.8
				c0.2-1.7,0.4-3.4,0.7-5.2c0.1-0.5,0.5-0.9,1-0.9l0.2,0c0.3,0,0.5,0.2,0.7,0.4c0.2,0.2,0.2,0.5,0.2,0.8c-0.3,1.7-0.5,3.4-0.7,5.1
				c-0.1,0.5-0.5,0.9-1,0.9L440.4,236.5z M442,226.3l-0.1,0c-0.6-0.1-0.9-0.6-0.8-1.2c0.3-1.7,0.7-3.4,1-5.1c0.1-0.5,0.5-0.8,1-0.8
				h0.1l0.2,0c0.6,0.1,0.9,0.7,0.8,1.2c-0.4,1.7-0.7,3.4-1,5C443,225.9,442.6,226.3,442,226.3L442,226.3z M444.2,216.2l-0.2,0
				c-0.5-0.1-0.9-0.7-0.7-1.3c0.4-1.7,0.9-3.4,1.4-5c0.1-0.4,0.5-0.7,1-0.7c0.1,0,0.2,0,0.3,0c0.3,0.1,0.5,0.3,0.6,0.5
				c0.1,0.2,0.2,0.5,0.1,0.8c-0.5,1.6-0.9,3.3-1.4,5C445.2,215.8,444.8,216.2,444.2,216.2L444.2,216.2z M447.2,206.2
				c-0.1,0-0.2,0-0.3,0c-0.3-0.1-0.5-0.3-0.6-0.5s-0.1-0.5-0.1-0.8c0.5-1.6,1.1-3.3,1.7-4.9c0.1-0.4,0.5-0.7,1-0.7
				c0.1,0,0.2,0,0.3,0.1c0.3,0.1,0.5,0.3,0.6,0.5c0.1,0.2,0.1,0.5,0,0.8c-0.6,1.6-1.1,3.3-1.7,4.9
				C448,205.9,447.7,206.2,447.2,206.2z M450.7,196.5c-0.1,0-0.3,0-0.4-0.1c-0.5-0.2-0.8-0.8-0.6-1.3c0.6-1.6,1.3-3.2,2-4.8
				c0.2-0.4,0.5-0.6,0.9-0.6c0.1,0,0.3,0,0.4,0.1c0.3,0.1,0.4,0.3,0.6,0.6c0.1,0.3,0.1,0.5,0,0.8c-0.7,1.6-1.3,3.2-1.9,4.8
				C451.5,196.2,451.1,196.5,450.7,196.5z M454.7,186.9c-0.1,0-0.3,0-0.4-0.1c-0.3-0.1-0.4-0.3-0.5-0.6c-0.1-0.3-0.1-0.5,0-0.8
				c0.7-1.6,1.5-3.2,2.2-4.7c0.2-0.4,0.5-0.6,0.9-0.6c0.2,0,0.3,0,0.5,0.1c0.5,0.2,0.7,0.9,0.5,1.4c-0.8,1.5-1.5,3.1-2.2,4.7
				C455.5,186.7,455.1,186.9,454.7,186.9z M459.2,177.6c-0.2,0-0.3,0-0.5-0.1c-0.2-0.1-0.4-0.3-0.5-0.6c-0.1-0.3-0.1-0.5,0.1-0.8
				c0.8-1.5,1.6-3.1,2.5-4.6c0.2-0.3,0.5-0.5,0.9-0.5c0.2,0,0.3,0,0.5,0.1c0.2,0.1,0.4,0.4,0.5,0.6c0.1,0.3,0,0.5-0.1,0.8
				c-0.8,1.5-1.7,3-2.4,4.5C460,177.4,459.6,177.6,459.2,177.6z M464.3,168.6c-0.2,0-0.4,0-0.5-0.1c-0.5-0.3-0.7-0.9-0.4-1.4
				c0.9-1.5,1.8-3,2.7-4.5c0.2-0.3,0.5-0.5,0.9-0.5c0.2,0,0.4,0.1,0.5,0.2c0.5,0.3,0.6,0.9,0.3,1.4c-0.9,1.5-1.8,2.9-2.7,4.4
				C465,168.4,464.6,168.6,464.3,168.6z M469.7,159.8c-0.2,0-0.4-0.1-0.6-0.2c-0.5-0.3-0.6-1-0.3-1.4c0.9-1.4,1.9-2.9,2.9-4.3
				c0.2-0.3,0.5-0.4,0.8-0.4c0.2,0,0.4,0.1,0.6,0.2c0.5,0.3,0.6,1,0.3,1.4c-1,1.4-1.9,2.9-2.9,4.3
				C470.4,159.6,470.1,159.8,469.7,159.8z M475.6,151.2c-0.2,0-0.4-0.1-0.6-0.2c-0.5-0.3-0.6-1-0.2-1.4c1-1.4,2.1-2.8,3.1-4.2
				c0.2-0.3,0.5-0.4,0.8-0.4c0.2,0,0.4,0.1,0.6,0.2c0.5,0.3,0.5,1,0.2,1.4c-1,1.4-2.1,2.8-3.1,4.1
				C476.3,151.1,475.9,151.2,475.6,151.2z M481.9,143c-0.2,0-0.5-0.1-0.6-0.2c-0.2-0.2-0.3-0.4-0.4-0.7c0-0.3,0-0.5,0.2-0.8
				c1.1-1.3,2.2-2.7,3.3-4c0.2-0.2,0.5-0.4,0.8-0.4c0.2,0,0.5,0.1,0.7,0.2c0.2,0.2,0.3,0.4,0.4,0.7c0,0.3-0.1,0.5-0.2,0.8
				c-1.1,1.3-2.2,2.7-3.3,4C482.5,142.9,482.2,143,481.9,143z M488.6,135.1c-0.3,0-0.5-0.1-0.7-0.3c-0.2-0.2-0.3-0.4-0.3-0.7
				c0-0.3,0.1-0.5,0.3-0.7c1.1-1.3,2.3-2.6,3.5-3.9c0.2-0.2,0.5-0.3,0.8-0.3c0.3,0,0.5,0.1,0.7,0.3c0.2,0.2,0.3,0.4,0.3,0.7
				c0,0.3-0.1,0.5-0.3,0.7c-1.2,1.3-2.3,2.6-3.4,3.8C489.1,135,488.9,135.1,488.6,135.1z M495.6,127.5c-0.3,0-0.5-0.1-0.7-0.3
				c-0.2-0.2-0.3-0.4-0.3-0.7c0-0.3,0.1-0.5,0.3-0.7c1.2-1.2,2.4-2.5,3.7-3.7c0.2-0.2,0.5-0.3,0.7-0.3c0.3,0,0.5,0.1,0.7,0.3
				c0.4,0.4,0.4,1.1,0,1.5c-1.2,1.2-2.4,2.4-3.6,3.7C496.1,127.4,495.9,127.5,495.6,127.5z M502.9,120.2c-0.3,0-0.6-0.1-0.7-0.3
				c-0.4-0.4-0.4-1.1,0-1.5c1.3-1.2,2.5-2.4,3.8-3.5c0.2-0.2,0.4-0.3,0.7-0.3c0.3,0,0.6,0.1,0.8,0.3c0.4,0.4,0.4,1.1-0.1,1.5
				c-1.3,1.1-2.5,2.3-3.8,3.5C503.4,120.1,503.2,120.2,502.9,120.2z M510.6,113.2c-0.3,0-0.6-0.1-0.8-0.4c-0.4-0.4-0.3-1.1,0.1-1.5
				c1.3-1.1,2.7-2.3,4-3.4c0.2-0.2,0.4-0.2,0.7-0.2c0.3,0,0.6,0.1,0.8,0.4c0.4,0.4,0.3,1.1-0.1,1.5c-1.3,1.1-2.6,2.2-3.9,3.3
				C511.1,113.1,510.9,113.2,510.6,113.2z M518.6,106.6c-0.3,0-0.6-0.1-0.8-0.4c-0.4-0.4-0.3-1.1,0.2-1.4c1.4-1.1,2.7-2.1,4.1-3.2
				c0.2-0.1,0.4-0.2,0.6-0.2c0.3,0,0.6,0.2,0.8,0.4c0.3,0.5,0.3,1.1-0.2,1.4c-1.4,1-2.7,2.1-4.1,3.2
				C519.1,106.5,518.8,106.6,518.6,106.6z M526.9,100.3c-0.3,0-0.6-0.2-0.8-0.4c-0.3-0.5-0.2-1.1,0.2-1.4c1.4-1,2.8-2,4.3-3
				c0.2-0.1,0.4-0.2,0.6-0.2c0.3,0,0.7,0.2,0.8,0.4c0.3,0.5,0.2,1.1-0.3,1.4c-1.4,1-2.8,2-4.2,3
				C527.3,100.2,527.1,100.3,526.9,100.3z M535.4,94.4c-0.3,0-0.7-0.2-0.9-0.5c-0.3-0.5-0.2-1.1,0.3-1.4c1.4-0.9,2.9-1.9,4.4-2.8
				c0.2-0.1,0.4-0.2,0.5-0.2c0.4,0,0.7,0.2,0.9,0.5c0.3,0.5,0.2,1.1-0.3,1.4c-1.5,0.9-2.9,1.8-4.4,2.8
				C535.8,94.4,535.6,94.4,535.4,94.4z M544.2,88.9c-0.4,0-0.7-0.2-0.9-0.5c-0.1-0.2-0.2-0.5-0.1-0.8c0.1-0.3,0.2-0.5,0.5-0.6
				c1.5-0.9,3-1.8,4.5-2.6c0.2-0.1,0.3-0.1,0.5-0.1c0.4,0,0.7,0.2,0.9,0.5c0.1,0.2,0.2,0.5,0.1,0.8s-0.2,0.5-0.5,0.6
				c-1.5,0.8-3,1.7-4.5,2.6C544.6,88.9,544.4,88.9,544.2,88.9z M553.3,83.9c-0.4,0-0.7-0.2-0.9-0.5c-0.3-0.5-0.1-1.1,0.4-1.4
				c1.5-0.8,3.1-1.6,4.6-2.4c0.1-0.1,0.3-0.1,0.5-0.1c0.4,0,0.7,0.2,0.9,0.6c0.3,0.5,0,1.1-0.5,1.4c-1.5,0.8-3.1,1.6-4.6,2.4
				C553.6,83.8,553.5,83.9,553.3,83.9z M562.6,79.2c-0.4,0-0.8-0.2-0.9-0.6c-0.2-0.5,0-1.1,0.5-1.4c1.6-0.7,3.2-1.5,4.7-2.2
				c0.1-0.1,0.3-0.1,0.4-0.1c0.4,0,0.8,0.2,0.9,0.6c0.1,0.3,0.1,0.5,0,0.8c-0.1,0.3-0.3,0.5-0.5,0.6c-1.6,0.7-3.1,1.4-4.7,2.1
				C562.9,79.2,562.7,79.2,562.6,79.2z M572.1,75c-0.4,0-0.8-0.2-1-0.6c-0.2-0.5,0-1.1,0.6-1.3c1.6-0.7,3.2-1.3,4.8-1.9
				c0.1,0,0.2-0.1,0.4-0.1c0.4,0,0.8,0.3,1,0.7c0.2,0.5-0.1,1.1-0.6,1.3c-1.6,0.6-3.2,1.3-4.8,1.9C572.3,75,572.2,75,572.1,75z
				 M581.7,71.3c-0.4,0-0.8-0.3-1-0.7c-0.1-0.3-0.1-0.5,0-0.8c0.1-0.2,0.3-0.4,0.6-0.5c1.6-0.6,3.3-1.2,4.9-1.7
				c0.1,0,0.2-0.1,0.3-0.1c0.4,0,0.8,0.3,1,0.7c0.1,0.3,0.1,0.5-0.1,0.8c-0.1,0.2-0.3,0.4-0.6,0.5c-1.6,0.5-3.3,1.1-4.9,1.7
				C582,71.3,581.9,71.3,581.7,71.3z M591.6,68c-0.5,0-0.9-0.3-1-0.7c-0.1-0.3-0.1-0.5,0.1-0.8c0.1-0.2,0.3-0.4,0.6-0.5
				c1.7-0.5,3.3-1,5-1.4l0.1,0l0.2,0c0.5,0,0.9,0.3,1,0.8c0.1,0.6-0.2,1.1-0.7,1.3c-1.7,0.5-3.3,0.9-5,1.4
				C591.8,68,591.7,68,591.6,68z M601.6,65.3c-0.5,0-0.9-0.3-1-0.8c-0.1-0.3,0-0.5,0.1-0.8c0.1-0.2,0.4-0.4,0.6-0.5
				c1.7-0.4,3.4-0.8,5.1-1.2l0.1,0l0.2,0c0.5,0,0.9,0.3,1,0.8c0.1,0.6-0.2,1.1-0.8,1.2c-1.7,0.4-3.4,0.8-5,1.2l-0.1,0L601.6,65.3z
				 M611.7,63.1c-0.5,0-0.9-0.4-1-0.8c-0.1-0.6,0.3-1.1,0.8-1.2c1.7-0.3,3.4-0.6,5.1-0.9l0,0l0.1,0c0.5,0,0.9,0.4,1,0.9
				c0,0.3,0,0.5-0.2,0.8c-0.2,0.2-0.4,0.4-0.7,0.4c-1.7,0.3-3.4,0.6-5.1,0.9l-0.1,0L611.7,63.1z M622,61.4c-0.5,0-1-0.4-1-0.9
				c0-0.3,0-0.5,0.2-0.8c0.2-0.2,0.4-0.4,0.7-0.4c1.7-0.2,3.4-0.5,5.2-0.6c0,0,0,0,0,0c0.6,0,1.1,0.4,1.1,0.9
				c0.1,0.6-0.3,1.1-0.9,1.1c-1.7,0.2-3.4,0.4-5.1,0.6L622,61.4z M668.3,60.7c-1.7-0.2-3.4-0.4-5.1-0.5c-0.6,0-1-0.5-0.9-1.1
				c0-0.5,0.5-0.9,1-0.9c1.8,0.1,3.5,0.3,5.3,0.5c0.6,0.1,1,0.6,0.9,1.1c-0.1,0.5-0.5,0.9-1,0.9L668.3,60.7z M632.3,60.2
				c-0.5,0-1-0.4-1-0.9c0-0.3,0.1-0.5,0.2-0.8c0.2-0.2,0.4-0.3,0.7-0.4c1.7-0.1,3.5-0.3,5.2-0.4c0,0,0,0,0,0c0.6,0,1.1,0.4,1.1,1
				c0,0.6-0.4,1.1-1,1.1C635.8,60,634.1,60.1,632.3,60.2L632.3,60.2z M658.1,59.8c-1.7-0.1-3.4-0.2-5.1-0.2c-0.3,0-0.5-0.1-0.7-0.3
				c-0.2-0.2-0.3-0.5-0.3-0.7c0-0.6,0.5-1,1-1c1.8,0,3.5,0.1,5.2,0.2c0.6,0,1,0.5,1,1.1C659.1,59.4,658.7,59.8,658.1,59.8
				L658.1,59.8z M642.6,59.6c-0.6,0-1-0.4-1-1c0-0.3,0.1-0.5,0.3-0.7c0.2-0.2,0.4-0.3,0.7-0.3c1.7,0,3.5-0.1,5.2-0.1
				c0.6,0,1,0.5,1,1c0,0.3-0.1,0.5-0.3,0.7c-0.2,0.2-0.5,0.3-0.7,0.3C646.1,59.6,644.3,59.6,642.6,59.6L642.6,59.6z"/>
		</g>
		<g>
			<path class="st2" d="M635.9,399.9c-0.9-0.1-1.7-0.2-2.6-0.3c-0.6-0.1-1-0.6-0.9-1.1c0.1-0.5,0.5-0.9,1-0.9c1,0.1,1.8,0.2,2.7,0.3
				c0.3,0,0.5,0.2,0.7,0.4c0.2,0.2,0.3,0.5,0.2,0.8C637,399.5,636.5,399.9,635.9,399.9L635.9,399.9z"/>
		</g>
	</g>
	<g>
		<g>
			<g>
				<path class="st1" d="M576.6,168c-0.3-0.6-81.5,21.8-82,22.1c0.3-0.5,17.6-34.2,49.2-42.4c7.1-1.8,15-2.4,23.5-1
					c9.4,1.6,17.4,5.1,23.9,9.8C584.3,157.7,580.3,161.9,576.6,168z"/>
			</g>
			<g>
				<path class="st1" d="M494.6,190C494.6,190,494.6,190,494.6,190L494.6,190z"/>
			</g>
		</g>
		<g>
			<g>
				<path class="st2" d="M576.6,168c-0.3-0.6-81.5,21.8-82,22.1c0.3-0.5,17.6-34.2,49.2-42.4c7.1-1.8,15-2.4,23.5-1
					c9.4,1.6,17.4,5.1,23.9,9.8C584.3,157.7,580.3,161.9,576.6,168z"/>
				<path class="st2" d="M494.6,190.5c-0.1,0-0.2,0-0.3-0.1c-0.1-0.1-0.2-0.3-0.1-0.5c0.2-0.4,4.5-8.9,12.9-18.4
					c7.6-8.7,20.1-19.9,36.5-24.2c7.7-2,15.6-2.3,23.7-1c9.1,1.5,17.2,4.8,24.1,9.8c0.1,0.1,0.2,0.3,0.2,0.4c0,0.2-0.2,0.3-0.3,0.3
					c-6,1-10.1,4.3-14.3,11.3c-0.1,0.1-0.2,0.2-0.4,0.2c0,0-0.1,0-0.1,0c-3.3,0.2-80.8,21.7-81.8,22.1
					C494.7,190.5,494.6,190.5,494.6,190.5z M557.6,146.3c-4.7,0-9.3,0.6-13.8,1.8c-16.2,4.2-28.6,15.3-36.1,23.9
					c-6.8,7.8-10.9,14.9-12.3,17.3c4.9-1.4,25.5-7.1,39.8-11c33.6-9.2,39.8-10.6,41.1-10.8c4-6.7,8.1-10.1,13.7-11.3
					c-6.6-4.6-14.3-7.7-22.9-9.1C564,146.6,560.8,146.3,557.6,146.3z M576.2,168.2L576.2,168.2L576.2,168.2z M576.2,168.2
					C576.2,168.2,576.2,168.2,576.2,168.2C576.2,168.2,576.2,168.2,576.2,168.2z M576.2,168.2C576.2,168.2,576.2,168.2,576.2,168.2
					C576.2,168.2,576.2,168.2,576.2,168.2z M576.2,168.2C576.2,168.2,576.2,168.2,576.2,168.2C576.2,168.2,576.2,168.2,576.2,168.2z
					 M576.2,168.2C576.2,168.2,576.2,168.2,576.2,168.2C576.2,168.2,576.2,168.2,576.2,168.2z M576.2,168.2
					C576.2,168.2,576.2,168.2,576.2,168.2C576.2,168.2,576.2,168.2,576.2,168.2z"/>
			</g>
			<g>
				<path class="st2" d="M494.6,190.5c-0.1,0-0.2,0-0.3-0.1c-0.2-0.2-0.2-0.4,0-0.6c0.2-0.2,0.4-0.2,0.6,0c0.2,0.2,0.2,0.4,0,0.6
					l0,0C494.8,190.4,494.7,190.5,494.6,190.5z"/>
			</g>
		</g>
		<g>
			<g>
				<path class="st2" d="M494.6,190.5c-0.1,0-0.2,0-0.3-0.1c-0.1-0.1-0.2-0.3-0.1-0.5c0.2-0.4,4.5-8.9,12.9-18.4
					c7.6-8.7,20.1-19.9,36.5-24.2c7.7-2,15.6-2.3,23.7-1c9.1,1.5,17.2,4.8,24.1,9.8c0.1,0.1,0.2,0.3,0.2,0.4c0,0.2-0.2,0.3-0.3,0.3
					c-6,1-10.1,4.3-14.3,11.3c-0.1,0.1-0.2,0.2-0.4,0.2c0,0-0.1,0-0.1,0c-3.3,0.2-80.8,21.7-81.8,22.1
					C494.7,190.5,494.6,190.5,494.6,190.5z M557.6,146.3c-4.7,0-9.3,0.6-13.8,1.8c-16.2,4.2-28.6,15.3-36.1,23.9
					c-6.8,7.8-10.9,14.9-12.3,17.3c4.9-1.4,25.5-7.1,39.8-11c33.6-9.2,39.8-10.6,41.1-10.8c4-6.7,8.1-10.1,13.7-11.3
					c-6.6-4.6-14.3-7.7-22.9-9.1C564,146.6,560.8,146.3,557.6,146.3z M576.2,168.2L576.2,168.2L576.2,168.2z M576.2,168.2
					C576.2,168.2,576.2,168.2,576.2,168.2C576.2,168.2,576.2,168.2,576.2,168.2z M576.2,168.2C576.2,168.2,576.2,168.2,576.2,168.2
					C576.2,168.2,576.2,168.2,576.2,168.2z M576.2,168.2C576.2,168.2,576.2,168.2,576.2,168.2C576.2,168.2,576.2,168.2,576.2,168.2z
					 M576.2,168.2C576.2,168.2,576.2,168.2,576.2,168.2C576.2,168.2,576.2,168.2,576.2,168.2z M576.2,168.2
					C576.2,168.2,576.2,168.2,576.2,168.2C576.2,168.2,576.2,168.2,576.2,168.2z"/>
			</g>
			<g>
				<path class="st2" d="M494.6,190.5c-0.1,0-0.2,0-0.3-0.1c-0.2-0.2-0.2-0.4,0-0.6c0.2-0.2,0.4-0.2,0.6,0c0.2,0.2,0.2,0.4,0,0.6
					l0,0C494.8,190.4,494.7,190.5,494.6,190.5z"/>
			</g>
		</g>
	</g>
	<g>
		<path class="st1" d="M867.8,468.2c-30.5,0-55-9-71-26.1c-30.1-31.6-63.1-47-100.9-47c-13.8,0-26.4,1.9-37.4,3.6
			c-8.5,1.3-15.9,2.4-22.2,2.4c0,0,0,0,0,0c-9.1,0-14.7-2.4-18.3-7.7c-11.6-17.3,0.8-33.8,12.7-49.7c9.2-12.2,17.9-23.8,16.2-35.4
			c-1-6.7-5.4-12.9-13.4-18.8c-6.7-4.9-12.3-7.3-17.2-7.3c-0.3,0-0.5,0-0.8,0L615,281l40.7-22.9l60.9-31.4l0.1,0c1-0.2,2-0.3,3-0.3
			c5.2,0,11.1,2.5,17.9,7.5c7.2,5.3,11.1,11.2,11.9,18c1.9,15-11.8,31.8-25.1,48.1c-16,19.7-32.6,40-21.4,56.7
			c2.8,4.3,7.2,6.2,13.8,6.2c9.1,0,21.7-3.8,37.8-8.5c14.4-4.3,32.3-9.6,53.1-13.8c12.8-2.6,23.8-3.8,33.6-3.8
			c31.9,0,45.7,13.3,63.2,30.2c10.6,10.3,22.7,21.9,41,32.3c9.1,6.3,15.9,9.1,22.1,9.1c0,0,0,0,0,0c7,0,13-3.5,21.3-8.4
			c1.8-1.1,3.8-2.2,5.9-3.4l1.7-0.9l-0.8,1.7c-14,28.7-26.3,45-39,51.4C924.6,461.5,893.9,468.2,867.8,468.2z"/>
		<path class="st2" d="M867.7,468.6c-1.6,0-3.2,0-4.7-0.1c-14-0.4-26.7-2.8-37.7-7.1c-11.4-4.4-21.1-10.8-28.8-19.1
			c-30-31.5-63-46.8-100.9-46.8c-13.8,0-26.2,1.9-37.1,3.5c-8.6,1.3-16,2.4-22.4,2.4c-9.2,0-14.9-2.4-18.6-7.9
			c-11.8-17.6,0.7-34.2,12.7-50.2c9.1-12.1,17.8-23.6,16.1-35.1c-1-6.6-5.3-12.7-13.3-18.5c-6.6-4.8-12.1-7.2-17-7.2
			c-0.3,0-0.5,0-0.7,0c0,0,0,0,0,0c-0.5,0-0.9-0.3-1-0.7c-0.1-0.5,0.1-1,0.5-1.2l40.7-22.9l60.8-31.4c0.1,0,0.2-0.1,0.3-0.1
			c1-0.2,2-0.3,3.1-0.3c5.3,0,11.3,2.5,18.2,7.6c7.3,5.4,11.2,11.3,12.1,18.2c1.9,15.1-11.9,32.1-25.2,48.5
			c-15.9,19.6-32.4,39.8-21.4,56.2c2.8,4.1,7,6.1,13.4,6.1c8.9,0,21.6-3.8,37.6-8.5c14.4-4.3,32.3-9.6,53.2-13.8
			c12.8-2.6,23.8-3.8,33.6-3.8c10.7,0,19.9,1.5,28.1,4.6c14.3,5.4,24.1,14.8,35.4,25.8c10.6,10.2,22.6,21.9,40.9,32.3
			c9,6.3,15.8,9,21.9,9c6.9,0,12.9-3.5,21.1-8.3c1.9-1.1,3.8-2.2,5.9-3.4c0.2-0.1,0.3-0.1,0.5-0.1c0.3,0,0.5,0.1,0.7,0.3
			c0.3,0.3,0.4,0.8,0.2,1.2c-14,28.8-26.4,45.2-39.2,51.6C924.7,461.9,894,468.6,867.7,468.6z M695.9,393.4c8.7,0,16.8,0.7,24.8,2.3
			c28.1,5.3,53.4,20.1,77.3,45.2c15,16.1,36.9,24.7,65.1,25.6c1.5,0,3.1,0.1,4.7,0.1c26,0,56.5-6.6,88.2-19.2
			c11.8-5.9,23.5-21.1,36.7-47.6c-1,0.6-2,1.1-2.9,1.7c-8.6,5-14.8,8.6-22.1,8.6c-6.5,0-13.6-2.9-23-9.4
			c-18.4-10.5-30.5-22.2-41.2-32.5c-17.3-16.7-30.9-29.8-61.9-29.8c-9.7,0-20.6,1.2-33.4,3.8c-20.7,4.2-38.6,9.5-53,13.7
			c-16.2,4.8-29,8.6-38.3,8.6c-7.1,0-11.9-2.2-15.1-7c-11.8-17.7,5.1-38.5,21.5-58.7c13.1-16,26.6-32.6,24.8-46.9
			c-0.8-6.3-4.5-11.8-11.3-16.8c-6.6-4.8-12.1-7.2-17-7.2c-0.9,0-1.7,0.1-2.6,0.2l-60.7,31.3l-37.6,21.1c4.6,0.7,9.6,3.1,15.4,7.4
			c8.4,6.2,13,12.7,14.1,19.9c1.8,12.3-7.1,24.1-16.5,36.6c-11.6,15.5-23.6,31.4-12.7,47.8c3.2,4.9,8.5,7,16.9,7
			c6.2,0,13.5-1.1,22-2.4C669.3,395.3,681.9,393.4,695.9,393.4z"/>
	</g>
	<g>
		<path class="st3" d="M640.2,279.8l78.1-46c0,0,33.1,12.9,23.4,34.4c-35.4,21.8-84.2,43.7-84.2,43.7S653.8,284.4,640.2,279.8z"/>
		<path class="st2" d="M657.4,312.4c-0.1,0-0.1,0-0.2-0.1c-0.1-0.1-0.2-0.2-0.2-0.3c0-0.3-3.7-27.3-16.9-31.8
			c-0.2-0.1-0.3-0.2-0.3-0.4c0-0.2,0.1-0.3,0.2-0.4l78.1-46c0.1-0.1,0.3-0.1,0.4,0c0.8,0.3,18.9,7.5,24.1,20.2
			c2,4.8,1.8,9.8-0.5,14.8c0,0.1-0.1,0.1-0.2,0.2c-35,21.6-83.8,43.5-84.3,43.7C657.5,312.4,657.4,312.4,657.4,312.4z M641.2,279.7
			c12.1,5.1,16,27.6,16.6,31.6c5.4-2.4,50.6-23,83.6-43.3c2.1-4.8,2.3-9.5,0.4-14c-4.8-11.7-21.4-18.8-23.4-19.7L641.2,279.7z"/>
	</g>
	<g>
		<path class="st1" d="M689.1,175.2c-46.4,24.2-58.2,67.8-33,83.5l-40.7,22.9c-15.6,0.8-20.6,25.3-35.2,33.9
			c-4.7,2.8-10.4,3.9-17.8,1.9c-37.4-9.7-28.6-60.7,23.1-87.6c32.1-16.7,31.2-54.6,5.7-73.2c-6.4-4.7-14.4-8.2-23.9-9.8
			c-8.6-1.4-16.4-0.9-23.5,1l89.6-48.9l0.2-0.1c10.4-5.7,22.9-8.9,37.4-6.5C717.7,100,729.3,154.2,689.1,175.2z"/>
		<path class="st2" d="M569.4,319.3c-2.3,0-4.8-0.3-7.3-1c-13.7-3.5-22-12.6-23.5-25.4c-1.2-10.3,2.4-22.1,10-33.3
			c8.3-12.1,20.8-22.8,36.3-30.8c14.1-7.3,22.8-19.6,23.8-33.8c1.1-14.5-5.7-28.6-18.2-37.7c-6.7-4.9-14.5-8.1-23.4-9.6
			c-3.2-0.5-6.3-0.8-9.5-0.8c-4.6,0-9.2,0.6-13.6,1.7l-0.1,0l-0.2,0c-0.4,0-0.8-0.3-1-0.7c-0.2-0.5,0-1,0.5-1.3l89.7-49
			c9-4.9,18.5-7.4,28.3-7.4c3.2,0,6.5,0.3,9.8,0.8c22.9,3.8,39.8,19.4,43,39.8c1.4,8.7,0,17.4-3.9,25.1c-4.1,8.1-11.1,15-20.1,19.8
			l-0.5,0.3c-26.8,14-44.6,36.3-45.4,57c-0.4,10.7,4,19.4,12.4,24.6c0.3,0.2,0.5,0.5,0.5,0.9c0,0.4-0.2,0.7-0.5,0.9l-40.7,22.9
			c-0.1,0.1-0.3,0.1-0.5,0.1c-8.4,0.4-13.6,8.3-19.2,16.6c-4.4,6.6-9,13.3-15.5,17.2C577.2,318.3,573.5,319.3,569.4,319.3z
			 M557.6,144.9c3.2,0,6.5,0.3,9.8,0.8c9.2,1.5,17.4,4.9,24.3,9.9c13.1,9.6,20.2,24.3,19.1,39.5c-1.1,14.9-10.2,27.8-24.9,35.5
			c-15.1,7.9-27.4,18.3-35.5,30.2c-7.4,10.8-10.8,22.1-9.7,31.9c1.4,11.9,9.1,20.3,21.9,23.6c2.4,0.6,4.7,0.9,6.8,0.9
			c3.7,0,7.1-0.9,10.2-2.8c6.1-3.6,10.5-10.2,14.8-16.5c5.8-8.7,11.3-16.8,20.6-17.5l39-21.9c-8.1-5.7-12.4-14.7-12-25.5
			c0.8-21.4,19.1-44.5,46.5-58.8c17.2-9,26.2-25.5,23.4-43c-3.1-19.4-19.3-34.4-41.3-38.1c-3.2-0.5-6.4-0.8-9.5-0.8
			c-9.4,0-18.6,2.4-27.3,7.2l-83.9,45.8C552.6,145,555.1,144.9,557.6,144.9z"/>
	</g>
	<g>
		<path class="st3" d="M619.4,203.4c37.5-19.6,88.6-56.3,88.6-56.3s3.3-32.6-23.8-39.8C652.1,123,602.5,152,602.5,152
			S630.1,172.4,619.4,203.4z"/>
		<path class="st2" d="M619.4,203.9c-0.1,0-0.2,0-0.3-0.1c-0.1-0.1-0.2-0.3-0.1-0.5c5.4-15.9,0.6-28.8-4.4-36.9
			c-5.5-8.8-12.3-13.9-12.4-14c-0.1-0.1-0.2-0.2-0.2-0.4c0-0.1,0.1-0.3,0.2-0.3c0.5-0.3,50-29.3,81.8-44.7c0.1,0,0.2-0.1,0.3,0
			c14.2,3.8,20,14.5,22.3,22.9c2.6,9,1.8,17.3,1.8,17.4c0,0.1-0.1,0.2-0.2,0.3c-0.5,0.4-51.6,36.9-88.7,56.3
			C619.5,203.8,619.5,203.9,619.4,203.9z M603.2,152.1c1.7,1.4,7.4,6.2,12.1,13.8c5,8.1,9.9,20.9,4.9,36.7
			c35.9-18.9,84.3-53.4,87.5-55.6c0.1-1.3,0.6-8.8-1.8-16.9c-3.3-11.8-10.6-19.2-21.6-22.2C654.3,122.4,608.7,148.9,603.2,152.1z"/>
	</g>
	<g>
		<path class="st2" d="M633.7,288.9l-53.5,26.5c14.5-8.6,19.5-33.1,35.2-33.9C620.2,281.3,626.1,283.3,633.7,288.9z"/>
		<path class="st2" d="M580.2,315.8c-0.2,0-0.3-0.1-0.4-0.2c-0.1-0.2,0-0.5,0.2-0.6c6.2-3.7,10.7-10.3,15-16.7
			c5.8-8.6,11.3-16.7,20.3-17.2c5.4-0.3,11.5,2.2,18.7,7.5c0.1,0.1,0.2,0.2,0.2,0.4c0,0.1-0.1,0.3-0.2,0.3l-53.5,26.5
			C580.3,315.8,580.2,315.8,580.2,315.8z M616.1,281.9c-0.3,0-0.5,0-0.8,0c-8.7,0.4-14,8.4-19.7,16.8c-3.4,5-6.9,10.2-11.2,14
			l48.4-24C626.5,284.2,621,281.9,616.1,281.9z"/>
	</g>
	<g>
		<g>
			<path class="st2" d="M802.4,379.5c-0.4,0.5-7.9-2.7-13.2,3.9c-5.4,6.6,7.6,50,15,49.5c7.4-0.5,7.2-20.8,7.3-32.7
				C811.6,388.4,802.4,379.5,802.4,379.5z"/>
			<path class="st2" d="M804,433.9c-2.2,0-4.6-2.4-7.2-7.5c-5.8-11.2-13.3-37.9-8.5-43.7c2.5-3.1,5.8-4.6,9.8-4.6
				c1.4,0,2.5,0.2,3.3,0.3c0.2,0,0.5,0.1,0.7,0.1c0.1,0,0.2,0,0.3,0c0,0,0,0,0,0c0.3,0,0.6,0.1,0.8,0.3c0.1,0.1,9.6,9.3,9.4,21.5
				l0,1.6c-0.1,13.3-0.2,31.5-8.3,32.1C804.2,433.9,804.1,433.9,804,433.9z M798.2,380.2c-3.4,0-6.1,1.3-8.2,3.9
				c-3.3,4,1.8,28,8.7,41.4c3.1,5.9,4.9,6.4,5.3,6.4c6.2-0.4,6.4-19.7,6.4-30l0-1.6c0.1-10.1-7.1-18.1-8.5-19.6
				c-0.3,0-0.5-0.1-0.9-0.1C800.4,380.4,799.4,380.2,798.2,380.2z"/>
		</g>
		<g>
			<path class="st1" d="M814.3,374.8l-5.8,17.1c0,0-9.8-3-9.8-11.8c4.9-12.4,5.1-13.4,5.1-13.4S813.6,370,814.3,374.8z"/>
			<path class="st2" d="M808.5,392.9c-0.1,0-0.2,0-0.3,0c-0.1,0-10.5-3.3-10.6-12.7c0-0.1,0-0.3,0.1-0.4c4.6-11.7,5.1-13.2,5.1-13.3
				c0.1-0.3,0.2-0.5,0.5-0.6c0.2-0.1,0.3-0.1,0.5-0.1c0.1,0,0.2,0,0.3,0.1c1.1,0.4,10.4,3.6,11.2,8.9c0,0.2,0,0.3,0,0.5l-5.8,17.1
				C809.3,392.7,808.9,392.9,808.5,392.9z M799.7,380.3c0.1,6.2,6,9.3,8.2,10.2l5.4-15.8c-0.7-3.2-6.6-5.8-8.8-6.7
				C803.9,369.5,802.6,372.8,799.7,380.3z"/>
		</g>
		<g>
			<path class="st4" d="M783,202.6c0,0,94.6,31.1,91.5,64.4c-3.1,33.3-59.1,122.6-59.1,122.6c-6.5-0.6-12.2-7.1-17.1-18.8
				c0,0,33.3-88,27.6-106.4c-5.7-18.4-71.4-43.8-71.4-43.8L783,202.6z"/>
			<path class="st2" d="M815.3,390.6c-6.8-0.6-12.8-7.1-17.9-19.5c-0.1-0.2-0.1-0.5,0-0.8c0.1-0.2,8.5-22.5,16-46.6
				c9.8-31.4,13.8-51.9,11.6-59.1c-5.5-17.7-70.1-42.9-70.8-43.1c-0.4-0.1-0.6-0.5-0.7-0.9c0-0.4,0.1-0.8,0.5-1l28.5-18
				c0.2-0.1,0.4-0.2,0.5-0.2c0.1,0,0.2,0,0.3,0.1c0.2,0.1,24,7.9,47.1,19.8c13.6,7,24.3,13.9,31.8,20.7c9.6,8.6,14.1,17,13.3,25
				c-3,33.1-58.7,122.1-59.3,123C816.1,390.4,815.8,390.6,815.3,390.6L815.3,390.6z M799.4,370.7c4.6,10.9,9.8,16.9,15.4,17.7
				c4.3-6.8,55.7-90.2,58.6-121.6c1.5-16.6-23.1-32.9-44-43.6c-21.1-10.8-42.8-18.3-46.3-19.5l-26.3,16.6
				c13.1,5.2,64.8,26.7,70.1,43.7c2.4,7.7-1.3,27.3-10.9,58.4C808.8,345.6,800.7,367.4,799.4,370.7z"/>
		</g>
		<g>
			<path class="st2" d="M873.6,397.2c-0.1,0.6-8.1,2-9,10.5c-0.9,8.4,33.5,37.9,39.4,33.5c6-4.5-5.2-21.4-11.5-31.4
				C886.1,399.7,873.6,397.2,873.6,397.2z"/>
			<path class="st2" d="M902.3,442.6c-1.9,0-4.5-1-8-2.9c-10.9-6.2-31.7-24.6-30.8-32.1c0.8-7.2,6.3-9.7,8.6-10.7
				c0.2-0.1,0.5-0.2,0.6-0.3c0.1-0.1,0.1-0.1,0.2-0.2c0.2-0.1,0.4-0.2,0.6-0.2h0.1l0.1,0c0.1,0,13.1,2.6,19.6,12.9l0.9,1.4
				c7.1,11.2,16.9,26.6,10.4,31.4C904,442.4,903.3,442.6,902.3,442.6z M873.8,398.4c-0.2,0.1-0.5,0.2-0.8,0.4c-2,0.9-6.8,3-7.5,9.1
				c-0.6,5.2,16.7,22.6,29.8,30.1c3.9,2.2,5.9,2.7,7,2.7l0,0c0.5,0,0.8-0.1,1-0.3c4.9-3.7-5.4-20-10.9-28.7l-0.9-1.4
				C886.2,401.8,875.8,398.9,873.8,398.4z"/>
		</g>
		<g>
			<path class="st1" d="M881,386.8l4.4,17.5c0,0-9.9,2.8-14.6-4.6c-2.6-13.1-3-14.1-3-14.1S877.8,383.2,881,386.8z"/>
			<path class="st2" d="M881.1,405.3c-3.4,0-7.9-0.9-10.7-5.3c0,0-0.1-0.1-0.1-0.2c-2.5-12.7-2.9-14-2.9-14c0-0.1,0-0.2,0-0.3
				c0.1-0.1,0.2-0.2,0.3-0.2c0.4-0.1,10.3-2.6,13.6,1.2c0,0.1,0.1,0.1,0.1,0.2l4.4,17.5c0.1,0.2-0.1,0.5-0.3,0.5
				C885.4,404.8,883.6,405.3,881.1,405.3z M871.1,399.7c4,6.1,11.8,4.8,13.7,4.4l-4.2-17c-2.7-2.9-10.4-1.4-12.3-1
				C868.6,387.1,869.3,390.2,871.1,399.7z"/>
		</g>
		<g>
			<path class="st4" d="M709.4,220c0,0-1.2,32.5,59.2,43.5c60.4,10.9,87.6,127.8,87.6,127.8s27.1,6.6,30.2-6.1
				C875.8,341,856.1,234.6,783.9,214C731.3,199.1,709.4,220,709.4,220z"/>
			<path class="st2" d="M870.1,394.1c-7.2-0.1-14.1-1.7-14.2-1.7c-0.4-0.1-0.7-0.4-0.8-0.8c-0.1-0.3-7-29.6-21.1-59.6
				c-13-27.7-34.9-61.9-65.7-67.4c-31.5-5.7-46.2-17.4-52.9-26.2c-7.4-9.7-7.2-17.9-7.2-18.3c0-0.3,0.1-0.5,0.3-0.7
				c0.2-0.2,5.8-5.4,18-8.8c6.6-1.9,14-2.8,22-2.8c11,0,23,1.8,35.5,5.4c15.9,4.5,30.4,13.6,43,26.8c10.7,11.3,20.5,26,28.9,43.6
				c15.3,32.1,23.6,68.1,29.1,92l0,0.1c0.8,3.3,1.5,6.5,2.2,9.4c0,0.2,0,0.3,0,0.5c-1.4,5.6-7.2,8.6-16.9,8.6L870.1,394.1z
				 M857,390.5c1.8,0.4,7.4,1.5,13.1,1.5l0.4,0c5.9,0,13.3-1.2,14.8-6.8c-0.7-2.8-1.4-5.9-2.1-9.2c-5.5-23.9-13.7-59.8-28.9-91.6
				c-18-37.8-41.8-61.1-70.6-69.4c-12.4-3.5-24.1-5.3-35-5.3c-7.8,0-15,0.9-21.4,2.7c-10.1,2.8-15.5,6.9-16.9,8.1
				c0.1,1.9,0.8,8.7,6.8,16.6c6.5,8.5,20.7,19.8,51.6,25.4c14,2.5,27.4,10.9,39.8,24.9c9.8,11.1,19.1,25.8,27.4,43.7
				C849,358.9,855.9,386,857,390.5z"/>
		</g>
		<g>
			<path class="st2" d="M760.1,98.7c0,0,2.3,12.9,0,14.3c-2.3,1.4-10.9-0.9-10.8-1.7s2-11.2,2-11.2L760.1,98.7z"/>
			<path class="st2" d="M757.8,113.9c-3.1,0-7.5-1.3-8.5-1.9c-0.3-0.2-0.4-0.5-0.4-0.7c0.1-0.8,2-11.1,2-11.2c0-0.2,0.2-0.3,0.4-0.4
				l8.8-1.4c0.2,0,0.5,0.1,0.5,0.4c0.4,2.2,2.2,13.3-0.2,14.7C759.7,113.7,758.8,113.9,757.8,113.9z M749.8,111.3
				c0.9,0.7,8.1,2.6,10.1,1.4c1.4-0.8,0.8-8.2-0.1-13.4l-8,1.3C751.4,102.2,750,109.9,749.8,111.3z"/>
		</g>
		<g>
			<path class="st1" d="M811.2,168.8c-3.3,0.6-7,1.8-14.7,4.9c-21.7,5.8,3.6-50.3-33.2-61.6l-2.2,79.5c24.2,3.3,45.7-11.3,50.6-12.3
				C814.8,178.7,816.4,168.7,811.2,168.8z"/>
			<path class="st2" d="M768.4,193.1c-2.5,0-5-0.2-7.5-0.5c-0.5-0.1-0.9-0.5-0.9-1l2.2-79.5c0-0.3,0.2-0.6,0.4-0.8
				c0.2-0.1,0.4-0.2,0.6-0.2c0.1,0,0.2,0,0.3,0c21.4,6.6,22.5,27.9,23.3,43.5c0.4,8.3,0.8,15.4,3.9,17.7c0.8,0.6,1.7,0.8,2.8,0.8
				c0.8,0,1.6-0.1,2.6-0.4c7.6-3,11.4-4.3,14.8-4.9l0.1,0l0.2,0c2.4,0,4,1.7,4.3,4.6c0.4,3.3-1.1,7.5-3.6,8c-1,0.2-3.2,1.2-5.7,2.4
				C798,186.6,784.3,193.1,768.4,193.1L768.4,193.1z M762.2,190.6c2,0.2,4.2,0.4,6.3,0.4c15.4,0,28.9-6.4,36.9-10.2
				c2.9-1.4,4.9-2.3,6.2-2.6c1-0.2,2.3-3.1,2-5.8c-0.1-1.2-0.6-2.7-2.3-2.7c-3.2,0.6-6.9,1.8-14.4,4.8l-0.1,0
				c-1.1,0.3-2.2,0.5-3.1,0.5c-1.6,0-2.9-0.4-4-1.2c-3.9-2.9-4.3-10.1-4.8-19.2c-0.8-15.4-1.8-34.6-20.5-41.2L762.2,190.6z"/>
		</g>
		<g>
			<path class="st1" d="M811.5,169.8c0,0,10.4,0.6,12.5,4.1c2.2,3.5,1.8,11.1,1.8,11.1s-3.4,3.1-7.7,0.5c-4.3-2.6-4.5-7.7-7.5-8
				C807,174.7,809.2,170.5,811.5,169.8z"/>
			<path class="st2" d="M821.6,187.6c-1.4,0-2.7-0.4-4-1.2c-2.4-1.4-3.6-3.5-4.6-5.2c-0.9-1.6-1.5-2.6-2.5-2.7
				c-0.2,0-0.4-0.1-0.5-0.2c-2.5-1.9-2.5-4.1-2.3-5.3c0.3-1.9,1.8-3.7,3.5-4.2c0.1,0,0.2,0,0.3,0c1.2,0.1,11,0.7,13.4,4.6
				c2.3,3.6,2,10.9,1.9,11.7c0,0.3-0.1,0.5-0.3,0.7C826.4,185.8,824.5,187.6,821.6,187.6z M811.1,176.5c1.8,0.3,2.7,1.9,3.7,3.6
				c0.9,1.6,1.9,3.3,3.8,4.5c1,0.6,2,0.9,3,0.9l0,0c1.5,0,2.7-0.7,3.2-1c0-1.5,0-7.3-1.6-10c-1.4-2.3-7.8-3.3-11.5-3.6
				c-0.9,0.4-1.7,1.4-1.9,2.5C809.6,174.6,810,175.7,811.1,176.5z"/>
		</g>
		<g>
			<path class="st1" d="M768.7,114.5c-8.3-5.4-19.8-6.9-36.5-3.4c0,0-18.7,1-22.3,25c-4.4,28.7-2.7,86.5-2.7,86.5s81.5,0.7,87-19.9
				c-8.5-13.5-15.8-19.7-14.3-46.1L768.7,114.5z"/>
			<path class="st2" d="M707.2,223.6c-0.5,0-1-0.4-1-1c-0.1-2.4-1.6-58.4,2.7-86.7c1.9-12.8,8.1-19.1,13-22.2
				c5.1-3.2,9.7-3.6,10.2-3.6c5.9-1.3,11.5-1.9,16.4-1.9c8.4,0,15.1,1.8,20.8,5.4c0.5,0.3,0.6,1,0.3,1.4c-0.2,0.3-0.5,0.5-0.9,0.5
				c-0.2,0-0.4-0.1-0.6-0.2c-5.3-3.4-11.7-5.1-19.6-5.1c-4.8,0-10.2,0.6-16.1,1.9l-0.2,0c-0.2,0-4.6,0.3-9.3,3.4
				c-4.5,2.8-10.2,8.8-12,20.7c-4,26.2-2.9,77.1-2.7,85.3c29.5,0,80-4,84.9-18.7c-1.1-1.7-2.2-3.4-3.3-4.9
				c-6.9-10.2-12.3-18.3-11-41.4c0-0.6,0.5-1,1-1c0.6,0,1.1,0.5,1,1.1c-1.2,22.3,3.8,29.8,10.7,40.1c1.1,1.7,2.3,3.5,3.5,5.4
				c0.2,0.2,0.2,0.5,0.1,0.8c-2.4,9-18,15.2-46.4,18.4c-18.8,2.1-37.3,2.3-40.8,2.3C707.5,223.6,707.2,223.6,707.2,223.6z"/>
		</g>
		<g>
			<polygon class="st2" points="797.3,216.5 830.9,194.5 829.2,194.5 799.7,211.6 			"/>
			<path class="st2" d="M797.3,216.9c-0.1,0-0.2,0-0.3-0.1c-0.1-0.1-0.2-0.3-0.1-0.5l2.4-4.9c0-0.1,0.1-0.1,0.2-0.2l29.5-17.1
				c0.1,0,0.1-0.1,0.2-0.1h1.7c0.2,0,0.4,0.1,0.4,0.3c0.1,0.2,0,0.4-0.2,0.5l-33.6,22C797.4,216.9,797.4,216.9,797.3,216.9z
				 M800,211.9l-1.6,3.4l31.1-20.3h-0.2L800,211.9z"/>
		</g>
		<g>
			<polygon class="st2" points="757.5,199.1 799.9,211.9 797.3,216.5 755.5,202.6 			"/>
			<path class="st2" d="M797.3,216.9c0,0-0.1,0-0.1,0L755.3,203c-0.1,0-0.2-0.1-0.3-0.3c0-0.1,0-0.3,0-0.4l2-3.5
				c0.1-0.2,0.3-0.3,0.5-0.2l42.4,12.8c0.1,0,0.2,0.1,0.3,0.3c0,0.1,0,0.3,0,0.4l-2.6,4.6C797.6,216.8,797.4,216.9,797.3,216.9z
				 M756.1,202.4l41,13.6l2.2-3.8l-41.6-12.6L756.1,202.4z"/>
		</g>
		<g>
			<path class="st1" d="M803.6,179.3c-1.4,0.3-46.1,19.8-46.1,19.8l42.4,12.8l34.4-21.7L803.6,179.3z"/>
			<path class="st2" d="M799.9,213c-0.1,0-0.2,0-0.3,0l-42.4-12.8c-0.4-0.1-0.7-0.5-0.7-0.9c0-0.4,0.2-0.8,0.6-1
				c13.5-5.9,45-19.6,46.3-19.9l0.1,0l0.2,0c0.1,0,0.2,0,0.3,0.1l30.7,10.9c0.4,0.1,0.6,0.5,0.7,0.9c0,0.4-0.1,0.8-0.5,1l-34.4,21.7
				C800.3,212.9,800.1,213,799.9,213z M799.7,210.8l32.2-20.4l-28.4-10.1c-3.2,1.2-28.6,12.2-43.1,18.6L799.7,210.8z"/>
		</g>
		<g>
			<polygon class="st2" points="837.2,167.6 799.7,211.6 802.5,213.3 839.4,169.8 			"/>
			<path class="st2" d="M802.5,213.8c-0.1,0-0.2,0-0.2-0.1l-2.8-1.7c-0.1-0.1-0.2-0.2-0.2-0.3c0-0.1,0-0.3,0.1-0.3l37.6-44
				c0.1-0.1,0.2-0.1,0.3-0.2c0.1,0,0.2,0,0.3,0.1l2.2,2.2c0.2,0.2,0.2,0.4,0,0.6l-37,43.5C802.7,213.7,802.6,213.8,802.5,213.8z
				 M800.3,211.5l2,1.3l36.5-42.9l-1.6-1.6L800.3,211.5z"/>
		</g>
		<g>
			<polygon class="st2" points="874.2,146.5 837.2,167.6 839.4,169.8 875.6,148.7 			"/>
			<path class="st2" d="M839.4,170.3c-0.1,0-0.2,0-0.3-0.1l-2.2-2.2c-0.1-0.1-0.1-0.2-0.1-0.4c0-0.1,0.1-0.2,0.2-0.3l37-21.1
				c0.2-0.1,0.5-0.1,0.6,0.1l1.4,2.2c0.1,0.1,0.1,0.2,0.1,0.3c0,0.1-0.1,0.2-0.2,0.3l-36.2,21.1
				C839.6,170.2,839.5,170.3,839.4,170.3z M837.9,167.7l1.5,1.6l35.5-20.7l-0.9-1.4L837.9,167.7z"/>
		</g>
		<g>
			<polygon class="st1" points="802.5,213.3 840.9,190.4 875.6,148.7 839.4,169.8 			"/>
			<path class="st2" d="M802.5,214.4c-0.3,0-0.6-0.1-0.8-0.4c-0.3-0.4-0.3-1,0-1.3l37-43.5c0.1-0.1,0.2-0.2,0.3-0.2l36.2-21.1
				c0.2-0.1,0.3-0.1,0.5-0.1c0.3,0,0.6,0.1,0.8,0.4c0.3,0.4,0.3,0.9,0,1.3l-34.7,41.7c-0.1,0.1-0.2,0.2-0.3,0.2L803,214.2
				C802.8,214.3,802.6,214.4,802.5,214.4z M807.3,209.3l33-19.7l30.8-37.1l-31,18.1L807.3,209.3z"/>
		</g>
		<g>
			<path class="st1" d="M726.9,112.4c0,0-51.8,15.5-36.7,68.6c11.4,39.8,59.6,15.9,71.5,9.2c4.8-2.6,3.1-9.8-3.2-9.7
				c-1.8,0.7-3.9,1.5-6.4,2.5c-13.7,5.5-49,0.4-41.7-31L726.9,112.4z"/>
			<path class="st2" d="M719.3,204.4c-4.9,0-9.4-0.8-13.3-2.4c-8.2-3.4-13.9-10.4-16.9-20.8c-3.5-12.3-3.7-23.6-0.7-33.7
				c2.5-8.1,7-15.3,13.6-21.5c11.1-10.5,24.3-14.6,24.4-14.6c0.1,0,0.2,0,0.3,0c0.5,0,0.9,0.3,1,0.7c0.2,0.5-0.1,1.1-0.7,1.3
				c-0.1,0-12.9,3.9-23.6,14.2c-9.9,9.4-20,26.2-12.3,53.1c2.8,9.7,8.1,16.3,15.7,19.4c3.6,1.5,7.8,2.2,12.5,2.2
				c16.6,0,34.8-9.2,41.8-13.1c1.8-1,2.6-2.8,2.1-4.6c-0.4-1.5-1.8-3.2-4.6-3.2c-1.8,0.7-3.8,1.4-6.2,2.4c-3.1,1.3-7.4,1.9-12,1.9
				c-9.5,0-18.3-2.9-24.1-7.8c-7.1-6.1-9.5-15.2-6.9-26.3c0.1-0.5,0.5-0.8,1-0.8h0.1l0.2,0c0.5,0.1,0.9,0.7,0.8,1.2
				c-2.4,10.2-0.3,18.6,6.3,24.2c5.4,4.7,13.7,7.4,22.7,7.4c4.3,0,8.4-0.7,11.3-1.8c2.5-1,4.6-1.8,6.4-2.5c0.1,0,0.2-0.1,0.3-0.1
				l0.2,0c3.3,0,5.9,1.9,6.7,4.7c0.7,2.8-0.5,5.5-3.1,6.9C755,195.1,736.4,204.4,719.3,204.4L719.3,204.4z"/>
		</g>
		<g>
			<path class="st1" d="M751.5,116.4l0.9-13.7c0,0,19.6,6.6,20.2-25.6c0.4-19.6-16.9-24.4-27-14.1s-4.3,27.8-6.7,35.2
				c-1.6,4.9-7.3,12-9.3,16.4C728.4,116.9,744.9,126.2,751.5,116.4z"/>
			<path class="st2" d="M742.7,121.8c-4.9,0-9.2-2.2-10.4-2.9c-1.4-0.8-4.7-2.9-3.8-4.7c0.9-1.9,2.3-4.2,3.9-6.6
				c2.2-3.4,4.5-7,5.4-9.7c0.8-2.3,0.7-5.9,0.5-9.9c-0.2-8.3-0.5-18.6,6.4-25.7c3.5-3.5,8.1-5.6,12.6-5.6c2,0,4,0.4,5.8,1.2
				c6.6,2.8,10.5,10,10.3,19.2c-0.2,12.4-3.2,20.6-8.9,24.6c-2.4,1.7-5.2,2.5-8.2,2.5c-1.3,0-2.3-0.2-3.1-0.3l-0.8,12.5
				c0,0.2-0.1,0.4-0.2,0.5C750.2,120.1,746.9,121.8,742.7,121.8z M730.5,114.9c0.2,0.3,0.9,1.2,2.9,2.2c2.2,1.3,5.9,2.6,9.3,2.6
				c3.4,0,6-1.3,7.8-3.7l0.9-13.4c0-0.3,0.2-0.6,0.5-0.8c0.2-0.1,0.4-0.2,0.6-0.2c0.1,0,0.2,0,0.3,0.1c0,0,1.5,0.5,3.7,0.5
				c2.7,0,5-0.7,7.1-2.2c5.1-3.6,7.8-11.3,8-23c0.2-8.5-3.1-14.8-9-17.3c-1.6-0.7-3.3-1-5-1c-4,0-8.1,1.8-11.2,5
				c-6.4,6.5-6.1,16.3-5.9,24.2c0.1,4.3,0.2,8-0.6,10.6c-1,3-3.3,6.7-5.6,10.2C732.7,111,731.3,113.2,730.5,114.9z"/>
		</g>
	</g>
	<g>
		<path class="st2" d="M718.7,115.8c0,0,9.7-2.9,15.3-4c12.7-3,11-16.3,10.1-25.8c-0.8-9.4,2.9-11.5,4.5-10.5c1.6,1,7.3-0.8,8.9-4.7
			c10.2,0.2,9.4,9.8,17.6,11.4c0,0,9.1-13.1,2.6-22.1s-16-5.7-16-5.7s-11.7-10.2-24.2,0.6S717.9,108.5,718.7,115.8z"/>
		<path class="st2" d="M718.7,116.2c-0.1,0-0.2,0-0.2-0.1c-0.1-0.1-0.2-0.2-0.2-0.3c-0.4-3.9,1.2-16.5,4.4-29.2
			c2.3-9.2,7.3-25.6,14.6-31.9c11.8-10.2,23-2,24.6-0.8c1.5-0.4,10.1-2.4,16.2,6c6.6,9.2-2.2,22-2.6,22.6c-0.1,0.1-0.3,0.2-0.4,0.2
			c-3.9-0.8-5.9-3.3-7.7-5.7c-2.2-2.8-4.3-5.5-9.5-5.7c-1.1,2.4-3.6,3.9-5.6,4.6c-1.6,0.5-3,0.5-3.7,0c-0.4-0.3-1-0.2-1.5,0.1
			c-0.7,0.4-3,2.4-2.3,9.9l0.1,1.2c0.8,9.3,2,22.1-10.6,25.1c-5.5,1-15.1,3.9-15.2,4C718.8,116.2,718.7,116.2,718.7,116.2z
			 M749.8,50.5c-3.6,0-7.7,1.2-12,4.9c-11.9,10.4-19.2,51.1-18.7,59.8c2.1-0.6,10-2.9,14.8-3.8c11.8-2.8,10.7-14.6,9.9-24.1
			l-0.1-1.2c-0.7-7.8,1.7-10.1,2.7-10.8c0.8-0.5,1.7-0.5,2.5-0.1c0.5,0.3,1.7,0.3,3-0.1c1.9-0.6,4.3-2.1,5.2-4.4
			c0.1-0.2,0.2-0.3,0.4-0.3c5.8,0.1,8.2,3.1,10.5,6.1c1.8,2.3,3.6,4.5,7,5.3c1.2-1.8,8.2-13.3,2.4-21.3c-6.2-8.6-15.1-5.7-15.5-5.6
			c-0.1,0.1-0.3,0-0.4-0.1C761.1,54.6,756.4,50.5,749.8,50.5z"/>
	</g>
	<g>
		<path class="st1" d="M759.1,181.7c0,0,11.8-4.2,18-1.5s7.9,17.8,7.9,17.8s-0.4,1-2.1,0s-4.3-9.9-4.3-9.9s-0.9,4.7-4.8,5.8
			c-3.9,1.1-8.2-2.2-9.3-3.4s-5.4-1.7-5.4-1.7S757,185,759.1,181.7z"/>
		<path class="st2" d="M784.2,199.6c-0.5,0-1.2-0.2-1.8-0.6c-1.1-0.6-2.4-3.2-3.9-7.7c-0.8,1.4-2.2,3.1-4.5,3.7
			c-0.6,0.2-1.2,0.2-1.9,0.2c-3.8,0-7.4-2.7-8.4-4c-0.4-0.5-2.6-1.1-4.7-1.3c-0.3,0-0.6-0.2-0.8-0.5c-0.1-0.2-2.3-4.5,0-8.2
			c0.1-0.2,0.3-0.3,0.5-0.4c0.3-0.1,7-2.5,13-2.5c2.3,0,4.2,0.3,5.8,1c6.6,3,8.4,18,8.5,18.7c0,0.2,0,0.3-0.1,0.5
			c0,0.1-0.3,0.7-1.1,1C784.7,199.6,784.4,199.6,784.2,199.6z M778.6,187.2c0.5,0,0.9,0.3,1,0.7c1.3,4.5,3.1,8.9,3.8,9.3
			c0.2,0.1,0.3,0.2,0.4,0.2c-0.8-5.5-3.1-14.4-7.2-16.2c-1.2-0.6-2.9-0.8-4.9-0.8c-4.9,0-10.5,1.7-12,2.2c-1.1,2-0.4,4.4,0,5.4
			c1.5,0.2,4.5,0.8,5.5,2c0.7,0.8,3.7,3.2,6.8,3.2l0,0c0.5,0,1-0.1,1.4-0.2c3.2-0.9,4.1-5,4.1-5
			C777.7,187.6,778.1,187.2,778.6,187.2L778.6,187.2z"/>
	</g>
	<g>
		<path class="st2" d="M652.2,335.8c-0.2,0-0.5-0.1-0.6-0.4c-0.1-0.3,0-0.7,0.3-0.9l65.4-29.9c0.3-0.1,0.7,0,0.9,0.3
			c0.1,0.3,0,0.7-0.3,0.9l-65.4,29.9C652.3,335.8,652.2,335.8,652.2,335.8z"/>
	</g>
	<g>
		<path class="st2" d="M638.4,359.4c-0.2,0-0.5-0.1-0.6-0.4c-0.2-0.3,0-0.7,0.3-0.9l64.8-30.4c0.3-0.2,0.7,0,0.9,0.3
			c0.2,0.3,0,0.7-0.3,0.9l-64.8,30.4C638.6,359.4,638.5,359.4,638.4,359.4z"/>
	</g>
	<g>
		<path class="st2" d="M626,382.3c-0.2,0-0.5-0.1-0.6-0.4c-0.2-0.3,0-0.7,0.3-0.9l67.8-31.7c0.3-0.2,0.7,0,0.9,0.3
			c0.2,0.3,0,0.7-0.3,0.9l-67.8,31.7C626.2,382.3,626.1,382.3,626,382.3z"/>
	</g>
	<g>
		<path class="st2" d="M601,225.9c-0.2,0-0.5-0.1-0.6-0.3c-0.2-0.3,0-0.7,0.3-0.9l55.8-29.6c0.3-0.2,0.7,0,0.9,0.3
			c0.2,0.3,0,0.7-0.3,0.9l-55.8,29.6C601.2,225.9,601.1,225.9,601,225.9z"/>
	</g>
	<g>
		<path class="st2" d="M566.8,255.7c-0.2,0-0.5-0.1-0.6-0.4c-0.2-0.3,0-0.7,0.3-0.9l73.4-35.3c0.3-0.2,0.7,0,0.9,0.3
			c0.2,0.3,0,0.7-0.3,0.9L567,255.6C567,255.7,566.9,255.7,566.8,255.7z"/>
	</g>
	<g>
		<path class="st2" d="M554.9,297.3c-0.2,0-0.5-0.1-0.6-0.4c-0.2-0.3,0-0.7,0.3-0.9l85.5-44c0.3-0.2,0.7,0,0.9,0.3
			c0.2,0.3,0,0.7-0.3,0.9l-85.5,44C555.1,297.3,555,297.3,554.9,297.3z"/>
	</g>
	<g>
		<path class="st2" d="M597.6,312.6c-0.2,0-0.4-0.1-0.5-0.3c-0.2-0.3-0.1-0.7,0.2-0.9l25.1-16.8c0.3-0.2,0.7-0.1,0.9,0.2
			c0.2,0.3,0.1,0.7-0.2,0.9L598,312.5C597.9,312.6,597.7,312.6,597.6,312.6z"/>
	</g>
	<g>
		<path class="st2" d="M553.5,280.3c-0.2,0-0.5-0.1-0.6-0.4c-0.2-0.3,0-0.7,0.3-0.9l80.3-39c0.3-0.2,0.7,0,0.9,0.3
			c0.2,0.3,0,0.7-0.3,0.9l-80.3,39C553.7,280.3,553.6,280.3,553.5,280.3z"/>
	</g>
	<g>
		<path class="st2" d="M588.3,138.4c-0.2,0-0.4-0.1-0.6-0.3c-0.2-0.3-0.1-0.7,0.3-0.9L656.5,99c0.3-0.2,0.7-0.1,0.9,0.3
			c0.2,0.3,0.1,0.7-0.3,0.9l-68.5,38.1C588.5,138.3,588.4,138.4,588.3,138.4z"/>
	</g>
	<g>
		<g>
			<path class="st2" d="M394.1,218.6c-0.2,0-0.3,0-0.5-0.1l-33.4-15.1c-0.4-0.2-0.7-0.6-0.7-1c0-0.4,0.1-0.9,0.4-1.1l28.9-23.5
				c0.2-0.2,0.5-0.3,0.7-0.3c0.2,0,0.3,0,0.5,0.1c0.4,0.2,0.7,0.6,0.7,1l4.5,38.6c0.1,0.4-0.1,0.9-0.4,1.1
				C394.7,218.5,394.4,218.6,394.1,218.6z M392.7,215.3l-4-34.2L363.1,202L392.7,215.3z"/>
		</g>
		<g>
			<polygon class="st2" points="346.9,332.2 333.9,330 320.9,327.7 329.2,316.8 337.6,305.8 342.2,319 			"/>
			<path class="st2" d="M346.9,332.7C346.9,332.7,346.9,332.7,346.9,332.7l-26-4.5c-0.1,0-0.3-0.1-0.3-0.3c-0.1-0.1,0-0.3,0.1-0.4
				l16.6-21.9c0.1-0.1,0.2-0.2,0.4-0.2c0.1,0,0.3,0.1,0.3,0.3l9.3,26.4c0.1,0.1,0,0.3-0.1,0.4C347.1,332.6,347,332.7,346.9,332.7z
				 M321.7,327.4l24.6,4.3l-8.8-25L321.7,327.4z"/>
		</g>
	</g>
	<g>
		<path class="st1" d="M739.5,124l1,0.2c0,0,0.4,0.1,1,0.1c1.3,0,3.2-0.3,4.8-1.7l0.5-0.4l0.4,0.5c3.4,4.8,3,21.9,2.6,29l-1.2,0.2
			L739.5,124z"/>
		<path class="st2" d="M749.3,152.6c-0.6,0-1-0.5-1-1.1c0.2-5,0.8-21.3-1.8-27c-1.8,1.1-3.6,1.4-4.9,1.4c-0.8,0-1.3-0.1-1.4-0.1
			c-0.6-0.1-0.9-0.7-0.8-1.2c0.1-0.5,0.5-0.8,1-0.8h0.1l0.1,0c0,0,0.4,0.1,0.9,0.1c1.2,0,3-0.3,4.6-1.6c0.2-0.2,0.4-0.2,0.7-0.2
			l0.1,0c0.3,0,0.5,0.2,0.7,0.4c3.3,4.7,3.1,20.4,2.7,29.2C750.3,152.2,749.9,152.6,749.3,152.6L749.3,152.6z"/>
	</g>
	<g>
		<path class="st1" d="M775.9,131.7l1.1-0.3c0.2,0.4,4.6,10.6,3.5,19.4l-1.2,0L775.9,131.7z"/>
		<path class="st2" d="M779.9,151.7c-0.6-0.1-1-0.6-0.9-1.1c1-8.4-3.4-18.4-3.4-18.5c-0.2-0.5,0-1.1,0.5-1.4
			c0.1-0.1,0.3-0.1,0.4-0.1c0.4,0,0.8,0.2,0.9,0.6c0.2,0.4,4.6,10.7,3.6,19.6c-0.1,0.5-0.5,0.9-1,0.9L779.9,151.7z"/>
	</g>
	<g>
		<path class="st2" d="M659.9,391.2c-0.2,0-0.5-0.1-0.6-0.4c-0.2-0.3,0-0.7,0.3-0.9l37.7-17.6c0.3-0.2,0.7,0,0.9,0.3
			c0.2,0.3,0,0.7-0.3,0.9l-37.7,17.6C660.1,391.1,660,391.2,659.9,391.2z"/>
	</g>
	<g>
		<path class="st2" d="M747.6,52.4c0,0-3.1-15.8-16.4-9.2c-13.3,6.6-5.2,37.7-5.2,37.7L747.6,52.4z"/>
		<path class="st2" d="M726,81.3C725.9,81.3,725.9,81.3,726,81.3c-0.2,0-0.4-0.2-0.4-0.3c-0.3-1.3-8-31.5,5.5-38.2
			c3.9-1.9,7.3-2.2,10.2-0.8c5.3,2.6,6.8,10,6.9,10.3c0,0.1,0,0.2-0.1,0.3l-21.7,28.4C726.2,81.3,726.1,81.3,726,81.3z M737.2,42
			c-1.8,0-3.7,0.5-5.8,1.6c-11.6,5.8-6.4,31.2-5.2,36.3l21-27.6c-0.3-1.1-1.9-7.3-6.4-9.5C739.7,42.3,738.5,42,737.2,42z"/>
	</g>
	<g>
		<polygon class="st4" points="840.2,270 834.3,280 844.7,276.1 841.3,283.5 846.4,283.5 		"/>
		<path class="st2" d="M846.4,283.9h-5.1c-0.1,0-0.3-0.1-0.4-0.2c-0.1-0.1-0.1-0.3,0-0.4l3-6.4l-9.4,3.6c-0.2,0.1-0.4,0-0.5-0.1
			c-0.1-0.1-0.1-0.3,0-0.5l5.9-10c0.1-0.2,0.4-0.3,0.6-0.2c0.2,0.1,0.3,0.4,0.2,0.6l-5.3,9l9.3-3.5c0.2-0.1,0.3,0,0.5,0.1
			c0.1,0.1,0.1,0.3,0.1,0.5l-3.2,6.8h4.4c0.2,0,0.4,0.2,0.4,0.4S846.6,283.9,846.4,283.9z"/>
	</g>
	<g>
		<polygon class="st4" points="869.9,260.2 865.4,266.9 872,266.9 866.5,271.8 869.9,273.6 		"/>
		<path class="st2" d="M869.9,274.1c-0.1,0-0.1,0-0.2-0.1l-3.4-1.8c-0.1-0.1-0.2-0.2-0.2-0.3c0-0.1,0-0.3,0.1-0.4l4.7-4.2h-5.4
			c-0.2,0-0.3-0.1-0.4-0.2c-0.1-0.1-0.1-0.3,0-0.4l4.4-6.7c0.1-0.2,0.4-0.3,0.6-0.1c0.2,0.1,0.3,0.4,0.1,0.6l-4,6h5.8
			c0.2,0,0.3,0.1,0.4,0.3s0,0.4-0.1,0.5l-5.1,4.5l2.9,1.6c0.2,0.1,0.3,0.4,0.2,0.6C870.2,274,870,274.1,869.9,274.1z"/>
	</g>
</g>
<g>
	<path class="st5" d="M1046.3,179.5c0.2,0.1,0.2,0.3,0.1,0.5c-0.1,0.1-0.3,0.1-0.5,0.2c-0.8,0.1-1.6,0.2-2.3,0.3
		c-0.2,0-0.5,0-0.6-0.2c-0.1-0.2,0-0.4,0.3-0.5c0.8-0.1,1.6-0.2,2.5-0.3C1045.9,179.4,1046.1,179.4,1046.3,179.5L1046.3,179.5z"/>
	<path class="st5" d="M1032.5,159.7c0.1,0.1,0.1,0.3,0,0.4c-0.1,0.1-0.3,0.1-0.5,0.1c-0.7,0-1.5,0.1-2.1,0.3c-0.1,0-0.2,0.1-0.3,0.1
		c-0.3,0-0.5-0.3-0.3-0.5C1029.5,159.7,1032.2,159.3,1032.5,159.7L1032.5,159.7z"/>
	<path class="st5" d="M1041.3,170.7c0.3,0.3-0.3,2.5-0.4,2.9c-0.1,0.4-0.7,0.3-0.7-0.1c0-0.1,0-0.2,0.1-0.3c0.2-0.7,0.3-1.4,0.4-2
		c0-0.2,0-0.4,0.2-0.5C1041,170.6,1041.2,170.6,1041.3,170.7L1041.3,170.7z"/>
	<path class="st5" d="M1036.8,178.4c0-0.2,0.1-0.3,0.3-0.4c0.5-0.5,0.9-1,1.3-1.5c0.1-0.1,0.2-0.2,0.3-0.3c0.2-0.1,0.5,0.1,0.4,0.4
		c0,0.1-0.1,0.2-0.1,0.3c-0.4,0.6-0.9,1.2-1.5,1.7C1037.3,178.8,1036.9,178.8,1036.8,178.4L1036.8,178.4z"/>
	<path class="st5" d="M1035.4,160.9c-0.1-0.3,0.2-0.5,0.5-0.4c0.8,0.4,1.5,0.9,2.1,1.5c0.3,0.2,0.2,0.6-0.2,0.6
		c-0.2,0-0.3-0.1-0.4-0.2c-0.5-0.4-1-0.8-1.6-1.1C1035.6,161.1,1035.4,161.1,1035.4,160.9L1035.4,160.9z"/>
	<path class="st5" d="M1041,167.6c0,0.2-0.4,0.4-0.6,0.2c-0.1-0.1-0.2-0.3-0.2-0.4c-0.2-0.7-0.4-1.3-0.6-1.9c-0.1-0.2-0.2-0.4,0-0.6
		c0.1-0.1,0.3-0.1,0.4-0.1c0.1,0.1,0.2,0.2,0.3,0.4c0.3,0.6,0.5,1.3,0.7,1.9C1041,167.3,1041.1,167.5,1041,167.6L1041,167.6z"/>
	<path class="st5" d="M1065.8,169.9c-0.2,0-0.4-0.2-0.4-0.4c0-0.2,0.2-0.3,0.3-0.5c0.2-0.2,0.3-0.5,0.5-0.6c0.2-0.1,0.5,0.1,0.5,0.4
		c0,0.1-0.1,0.2-0.2,0.4c-0.1,0.1-0.2,0.3-0.3,0.4C1066.1,169.8,1066,169.9,1065.8,169.9L1065.8,169.9z"/>
	<path class="st5" d="M1061,173.9c-0.1,0-0.3-0.1-0.2-0.3c0-0.2,0.2-0.3,0.3-0.4c0.6-0.4,1.2-0.8,1.7-1.3c0.3-0.3,0.8,0.1,0.5,0.4
		c-0.6,0.5-1.2,0.9-1.8,1.4C1061.4,173.8,1061.2,173.9,1061,173.9L1061,173.9z"/>
	<path class="st5" d="M1025.1,164.6c-0.3-0.4,0.9-2.6,1.3-2.7c0.3-0.1,0.5,0.2,0.4,0.4c0,0.1-0.1,0.2-0.2,0.3
		c-0.4,0.5-0.7,1.1-0.9,1.8c-0.1,0.2-0.1,0.4-0.3,0.4C1025.4,164.9,1025.2,164.8,1025.1,164.6L1025.1,164.6z"/>
	<path class="st5" d="M1028.3,175.9c-0.4,0-1.4-1.7-1.6-2.1c-0.3-0.6,0.4-0.9,0.6-0.3c0.3,0.6,0.7,1.1,1.1,1.6
		c0.1,0.1,0.2,0.3,0.2,0.4C1028.7,175.8,1028.5,175.9,1028.3,175.9L1028.3,175.9z"/>
	<path class="st5" d="M1025.3,167.6c0.1,0.1,0.1,0.3,0.2,0.4c0.1,0.6,0.2,1.3,0.4,2c0,0.2,0.1,0.3,0,0.5c-0.2,0.4-0.6,0.2-0.7-0.1
		c-0.2-0.8-0.4-1.6-0.4-2.4C1024.7,167.7,1025,167.4,1025.3,167.6L1025.3,167.6z"/>
	<path class="st5" d="M1033.6,179.4c-0.3,0.2-2.4-0.9-2.8-1.2c-0.3-0.2-0.1-0.7,0.3-0.6c0.1,0,0.2,0.1,0.3,0.1c0.6,0.4,1.3,0.7,2,1
		C1033.8,178.9,1034,179.2,1033.6,179.4L1033.6,179.4z"/>
	<path class="st5" d="M1032,182.3c-0.2-0.1-0.3-0.2-0.2-0.4c0-0.2,0.2-0.2,0.4-0.3c0.6-0.3,1.2-0.7,1.8-1.1c0.2-0.1,0.4-0.2,0.6-0.1
		c0.2,0.1,0.1,0.4,0,0.5c-0.6,0.4-1.3,0.8-2,1.2C1032.4,182.3,1032.2,182.4,1032,182.3L1032,182.3z"/>
	<path class="st5" d="M1029.1,183.7c-0.1,0.2-0.3,0.2-0.4,0.3c-0.8,0.3-1.6,0.6-2.4,0.8c-0.5,0.1-0.7-0.5-0.1-0.7
		c0.7-0.2,1.5-0.5,2.2-0.7c0.2-0.1,0.4-0.1,0.5-0.1C1029.1,183.4,1029.2,183.5,1029.1,183.7L1029.1,183.7z"/>
	<path class="st5" d="M1010.4,186.9c-0.1,0.1-0.3,0.1-0.5,0.1c-0.8,0-1.5,0-2.3-0.1c-0.2,0-0.4,0-0.5-0.1c-0.2-0.2-0.1-0.5,0.1-0.6
		c0.1,0,0.2,0,0.3,0c0.8,0,1.5,0.1,2.3,0.1c0.2,0,0.4,0,0.5,0.1C1010.5,186.6,1010.5,186.8,1010.4,186.9L1010.4,186.9z"/>
	<path class="st5" d="M1003.9,186.6c-0.1,0.1-0.4,0.1-0.5,0.1c-0.8-0.1-1.5-0.2-2.3-0.3c-0.2,0-0.4,0-0.5-0.1
		c-0.3-0.3,0-0.6,0.4-0.5c0.8,0.1,1.6,0.2,2.4,0.3c0.2,0,0.4,0,0.5,0.2C1004.1,186.3,1004.1,186.4,1003.9,186.6L1003.9,186.6z"/>
	<path class="st5" d="M997.9,185.5c-0.1,0.1-0.4,0.1-0.5,0c-0.8-0.1-1.5-0.3-2.3-0.4c-0.2,0-0.3-0.1-0.5-0.2
		c-0.3-0.3,0.1-0.6,0.4-0.5c0.8,0.2,1.6,0.3,2.4,0.5c0.2,0,0.4,0.1,0.5,0.2C998.1,185.2,998,185.4,997.9,185.5L997.9,185.5z"/>
	<path class="st5" d="M1023.1,185.6c-0.1,0.1-0.3,0.2-0.5,0.2c-0.8,0.2-1.7,0.3-2.5,0.4c-0.6,0-0.6-0.6,0-0.7
		c0.8-0.1,1.6-0.3,2.4-0.4c0.2,0,0.4-0.1,0.6,0C1023.1,185.3,1023.1,185.4,1023.1,185.6L1023.1,185.6z"/>
	<path class="st5" d="M1016.8,186.6c-0.1,0.1-0.3,0.1-0.5,0.2c-0.8,0.1-1.7,0.1-2.6,0.1c-0.5-0.1-0.5-0.7,0.1-0.7
		c0.8,0,1.6-0.1,2.4-0.2c0.2,0,0.4,0,0.5,0.1C1016.8,186.3,1016.9,186.5,1016.8,186.6L1016.8,186.6z"/>
	<path class="st5" d="M1055.2,176.5c0.1-0.2,0.2-0.2,0.4-0.3c0.6-0.3,1.3-0.6,1.9-0.9c0.1-0.1,0.3-0.2,0.4-0.1
		c0.3,0,0.4,0.4,0.2,0.5c-0.7,0.4-1.5,0.7-2.2,1.1c-0.2,0.1-0.4,0.2-0.5,0.1C1055.2,176.8,1055.2,176.7,1055.2,176.5L1055.2,176.5z"
		/>
	<path class="st5" d="M1049.3,178.7c0.1-0.1,0.3-0.2,0.4-0.2c0.7-0.2,1.4-0.4,2.1-0.6c0.2,0,0.3-0.1,0.5-0.1
		c0.3,0.1,0.4,0.4,0.1,0.6c-0.8,0.3-1.7,0.5-2.5,0.8c-0.2,0-0.4,0.1-0.5,0C1049.2,179,1049.2,178.8,1049.3,178.7L1049.3,178.7z"/>
	<path class="st5" d="M1036.7,179.8c0.1-0.1,0.4-0.1,0.5,0c0.7,0.1,1.5,0.2,2.2,0.2c0.2,0,0.4,0,0.5,0.1c0.3,0.3,0,0.6-0.4,0.6
		c-0.9,0-1.7-0.1-2.5-0.2c-0.2,0-0.4-0.1-0.5-0.2C1036.5,180.1,1036.6,179.9,1036.7,179.8L1036.7,179.8z"/>
</g>
<g>
	<path class="st6" d="M1091.7,149.8c-3-4.8,0.1-8.3,2.1-9.5l35.6-9.6l-20.1,33.7c-0.1,0.2-0.2,0.3-0.3,0.4c-2.1,3-8.8,2.8-11.7-2.4
		l7-6.9C1099.8,153.2,1094.5,154.3,1091.7,149.8z"/>
	
		<linearGradient id="SVGID_00000139282313236952581880000009093276509946844594_" gradientUnits="userSpaceOnUse" x1="1104.4148" y1="486.8427" x2="1113.5972" y2="458.3539" gradientTransform="matrix(0.8503 -0.5262 -0.5262 -0.8503 416.8595 1130.58)">
		<stop  offset="0.5255" style="stop-color:#1255F5;stop-opacity:0"/>
		<stop  offset="0.8366" style="stop-color:#C9D8FD"/>
	</linearGradient>
	<path style="fill:url(#SVGID_00000139282313236952581880000009093276509946844594_);" d="M1091.7,149.8c-3-4.8,0.1-8.3,2.1-9.5
		l35.6-9.6l-20.1,33.7c-0.1,0.2-0.2,0.3-0.3,0.4c-2.1,3-8.8,2.8-11.7-2.4l7-6.9C1099.8,153.2,1094.5,154.3,1091.7,149.8z"/>
</g>
</svg>
