<?xml version="1.0" encoding="utf-8"?>
<!-- Generator: Adobe Illustrator 26.4.1, SVG Export Plug-In . SVG Version: 6.00 Build 0)  -->
<svg version="1.1" id="Layer_1" xmlns="http://www.w3.org/2000/svg" xmlns:xlink="http://www.w3.org/1999/xlink" x="0px" y="0px"
	 viewBox="0 0 1600 600" style="enable-background:new 0 0 1600 600;" xml:space="preserve">
<style type="text/css">
	
		.st0{clip-path:url(#SVGID_00000063621696309746594420000017750388582391322541_);fill:url(#SVGID_00000110432240903914985110000001767787746007542412_);}
	.st1{fill:#FFFFFF;}
	.st2{fill:#1A1A1A;}
	.st3{fill:#8EABF4;}
	.st4{fill:#4373EF;}
</style>
<g>
	<defs>
		<rect id="SVGID_1_" x="-38.5" y="7.1" width="1634.2" height="583.5"/>
	</defs>
	<clipPath id="SVGID_00000130636011599795837100000002857742227317072280_">
		<use xlink:href="#SVGID_1_"  style="overflow:visible;"/>
	</clipPath>
	
		<radialGradient id="SVGID_00000121278100897867566260000008662062813036741542_" cx="689.3976" cy="833.5604" r="795.4271" gradientTransform="matrix(1.0038 0 0 0.2295 99.7078 393.2356)" gradientUnits="userSpaceOnUse">
		<stop  offset="0.4079" style="stop-color:#EBEBF2"/>
		<stop  offset="1" style="stop-color:#EBEBF2;stop-opacity:0"/>
	</radialGradient>
	
		<ellipse style="clip-path:url(#SVGID_00000130636011599795837100000002857742227317072280_);fill:url(#SVGID_00000121278100897867566260000008662062813036741542_);" cx="791.7" cy="584.6" rx="804.1" ry="184.5"/>
</g>
<g>
	<path class="st1" d="M688.7,293.1c-3.3-10.8-1.5-22.6,4.7-29.5c8.5-9.5,24.4-9.1,34.6,3.6c1.2-3.4,6.4-17.5,19.9-25
		c17.4-9.5,33.8,0.1,35.7,1.3c5.4-7.6,13.8-11.2,21.9-9.4c9.3,2.1,16.6,11,18.3,22.4c4,2,7.3,5.2,9.4,9.1c4.7,8.4,4.3,20.1-0.8,30.1
		C784.5,294.9,736.6,294,688.7,293.1z"/>
	<path class="st2" d="M832.4,295.9L832.4,295.9l-143.6-2.6c-0.1,0-0.1,0-0.1-0.1c-1.6-5.3-2.1-11-1.2-16.3c0.8-5.3,2.9-9.9,6-13.4
		c3.9-4.4,9.6-6.8,15.6-6.6c3.5,0.1,7,1,10.1,2.6c3.3,1.7,6.4,4.2,8.9,7.4c1.9-5.4,7.4-17.9,19.9-24.8c7.3-4,15.3-5.2,23.8-3.4
		c6.1,1.3,10.6,3.8,12,4.6c5.5-7.6,13.9-11.1,21.9-9.3c9.3,2.1,16.7,11.1,18.4,22.4c4,2,7.2,5.2,9.4,9.1c2.3,4.1,3.4,9.2,3.3,14.6
		c-0.2,5.3-1.6,10.8-4.1,15.7C832.5,295.9,832.4,295.9,832.4,295.9z M688.8,293l143.4,2.6c5.1-10.1,5.4-21.6,0.8-29.9
		c-2.1-3.9-5.4-7-9.3-9c0,0-0.1-0.1-0.1-0.1c-1.6-11.2-8.9-20.2-18.1-22.2c-8-1.8-16.3,1.8-21.7,9.3c0,0.1-0.1,0.1-0.2,0
		c-3-1.8-18.7-10.5-35.5-1.3c-12.6,6.9-18.1,19.7-19.9,24.9c0,0.1-0.1,0.1-0.2,0.1c0,0-0.1,0-0.1,0c-5-6.2-11.9-9.9-19-10.1
		c-6-0.2-11.5,2.2-15.4,6.5C687.5,270.5,685.6,282.3,688.8,293z"/>
</g>
<g>
	<path class="st1" d="M518,369.1c-5.3-17.2-2.4-35.9,7.5-47c13.5-15.1,38.8-14.5,55.1,5.7c1.9-5.4,10.2-27.9,31.7-39.7
		c27.7-15.2,53.8,0.2,56.8,2.1c8.6-12,22-17.8,34.8-15c14.8,3.3,26.5,17.5,29.1,35.6c6.3,3.2,11.5,8.2,15,14.4
		c7.5,13.4,6.8,32-1.3,48C670.4,371.9,594.2,370.5,518,369.1z"/>
	<path class="st2" d="M746.6,373.5L746.6,373.5L518,369.4c-0.1,0-0.2-0.1-0.2-0.2c-2.6-8.5-3.3-17.5-1.9-25.9
		c1.3-8.5,4.6-15.8,9.5-21.3c6.2-7,15.3-10.8,24.9-10.6c5.6,0.2,11.1,1.6,16,4.2c5.3,2.7,10.1,6.7,14.2,11.7
		c3-8.6,11.8-28.6,31.7-39.4c11.7-6.4,24.4-8.2,37.8-5.4c9.7,2,16.8,6,19.1,7.3c8.7-12,22.1-17.7,34.9-14.9
		c14.9,3.3,26.6,17.6,29.2,35.7c6.3,3.2,11.5,8.3,15,14.5c3.7,6.6,5.5,14.6,5.2,23.2c-0.3,8.5-2.5,17.1-6.5,25
		C746.8,373.5,746.7,373.5,746.6,373.5z M518.2,368.9l228.3,4.1c8.1-16.1,8.6-34.3,1.3-47.6c-3.4-6.2-8.6-11.2-14.9-14.3
		c-0.1,0-0.1-0.1-0.1-0.2c-2.6-17.9-14.2-32.1-28.9-35.4c-12.7-2.8-25.9,2.9-34.5,14.9c-0.1,0.1-0.2,0.1-0.3,0.1
		c-4.7-2.9-29.8-16.7-56.6-2.1c-20,11-28.8,31.3-31.6,39.6c0,0.1-0.2,0.2-0.3,0.2c0,0-0.1,0-0.1-0.1c-8-9.9-19-15.8-30.2-16.1
		c-9.6-0.2-18.3,3.4-24.5,10.4C516,333.2,513,351.8,518.2,368.9z"/>
</g>
<g>
	<g>
		<g>
			<path class="st2" d="M337.1,64.6C337.1,64.6,337.1,64.6,337.1,64.6c-0.8-0.1-1.5-0.2-2.2-0.3c-0.2,0-0.3-0.2-0.3-0.4
				c0-0.2,0.2-0.3,0.4-0.3c0.7,0.1,1.4,0.2,2.1,0.3c0.2,0,0.3,0.2,0.3,0.4C337.4,64.5,337.3,64.6,337.1,64.6z"/>
		</g>
		<g>
			<path class="st2" d="M297.3,346.1C297.2,346.1,297.2,346.1,297.3,346.1c-1.5-0.2-2.9-0.3-4.3-0.5c-0.2,0-0.3-0.2-0.3-0.4
				c0-0.2,0.2-0.3,0.4-0.3c1.4,0.2,2.8,0.3,4.3,0.5c0.2,0,0.3,0.2,0.3,0.4C297.6,346,297.4,346.1,297.3,346.1z M288.7,345.1
				C288.7,345.1,288.6,345.1,288.7,345.1c-1.5-0.2-2.9-0.4-4.3-0.6c-0.2,0-0.3-0.2-0.3-0.4c0-0.2,0.2-0.3,0.4-0.3
				c1.4,0.2,2.8,0.4,4.3,0.6c0.2,0,0.3,0.2,0.3,0.4C289,344.9,288.9,345.1,288.7,345.1z M280.1,343.8
				C280.1,343.8,280.1,343.8,280.1,343.8c-1.5-0.2-2.9-0.5-4.3-0.7c-0.2,0-0.3-0.2-0.3-0.4c0-0.2,0.2-0.3,0.4-0.3
				c1.4,0.2,2.8,0.5,4.3,0.7c0.2,0,0.3,0.2,0.3,0.4C280.5,343.7,280.3,343.8,280.1,343.8z M271.6,342.4
				C271.6,342.4,271.6,342.4,271.6,342.4c-1.5-0.3-2.9-0.5-4.3-0.8c-0.2,0-0.3-0.2-0.3-0.4c0-0.2,0.2-0.3,0.4-0.3
				c1.4,0.3,2.8,0.5,4.2,0.8c0.2,0,0.3,0.2,0.3,0.4C271.9,342.3,271.8,342.4,271.6,342.4z M263.1,340.7
				C263.1,340.7,263.1,340.7,263.1,340.7c-1.5-0.3-2.9-0.6-4.3-0.9c-0.2,0-0.3-0.2-0.3-0.4c0-0.2,0.2-0.3,0.4-0.3
				c1.4,0.3,2.8,0.6,4.2,0.9c0.2,0,0.3,0.2,0.3,0.4C263.5,340.6,263.3,340.7,263.1,340.7z M254.7,338.8
				C254.7,338.8,254.7,338.8,254.7,338.8c-1.5-0.3-2.9-0.7-4.3-1.1c-0.2,0-0.3-0.2-0.3-0.4c0-0.2,0.2-0.3,0.4-0.3
				c1.4,0.4,2.8,0.7,4.2,1c0.2,0,0.3,0.2,0.3,0.4C255,338.7,254.9,338.8,254.7,338.8z M246.4,336.7
				C246.3,336.7,246.3,336.7,246.4,336.7c-1.5-0.4-2.9-0.8-4.3-1.2c-0.2-0.1-0.3-0.3-0.2-0.4c0.1-0.2,0.3-0.3,0.4-0.2
				c1.4,0.4,2.8,0.8,4.1,1.2c0.2,0.1,0.3,0.3,0.3,0.4C246.7,336.6,246.5,336.7,246.4,336.7z M238.1,334.3c0,0-0.1,0-0.1,0
				c-1.4-0.4-2.8-0.9-4.1-1.3c-0.2-0.1-0.3-0.3-0.2-0.5c0.1-0.2,0.3-0.3,0.5-0.2c1.4,0.4,2.7,0.9,4.1,1.3c0.2,0.1,0.3,0.3,0.2,0.5
				C238.4,334.2,238.2,334.3,238.1,334.3z M229.9,331.6c0,0-0.1,0-0.1,0c-1.4-0.5-2.7-1-4.1-1.5c-0.2-0.1-0.3-0.3-0.2-0.5
				c0.1-0.2,0.3-0.3,0.5-0.2c1.3,0.5,2.7,1,4.1,1.5c0.2,0.1,0.3,0.3,0.2,0.5C230.2,331.5,230,331.6,229.9,331.6z M221.8,328.6
				c0,0-0.1,0-0.1,0c-1.3-0.5-2.7-1.1-4-1.6c-0.2-0.1-0.3-0.3-0.2-0.5c0.1-0.2,0.3-0.3,0.5-0.2c1.3,0.6,2.7,1.1,4,1.6
				c0.2,0.1,0.3,0.3,0.2,0.5C222.1,328.5,221.9,328.6,221.8,328.6z M213.8,325.2c0,0-0.1,0-0.1,0c-1.3-0.6-2.6-1.2-3.9-1.8
				c-0.2-0.1-0.3-0.3-0.2-0.5c0.1-0.2,0.3-0.3,0.5-0.2c1.3,0.6,2.6,1.2,3.9,1.8c0.2,0.1,0.3,0.3,0.2,0.5
				C214.1,325.1,214,325.2,213.8,325.2z M206,321.5c-0.1,0-0.1,0-0.2,0c-1.3-0.7-2.6-1.3-3.8-2c-0.2-0.1-0.2-0.3-0.1-0.5
				c0.1-0.2,0.3-0.2,0.5-0.1c1.3,0.7,2.5,1.3,3.8,2c0.2,0.1,0.2,0.3,0.2,0.5C206.3,321.4,206.2,321.5,206,321.5z M198.4,317.4
				c-0.1,0-0.1,0-0.2,0c-1.3-0.7-2.5-1.5-3.7-2.2c-0.2-0.1-0.2-0.3-0.1-0.5c0.1-0.2,0.3-0.2,0.5-0.1c1.2,0.7,2.5,1.5,3.7,2.2
				c0.2,0.1,0.2,0.3,0.1,0.5C198.7,317.4,198.5,317.4,198.4,317.4z M191,312.9c-0.1,0-0.1,0-0.2-0.1c-1.2-0.8-2.4-1.6-3.6-2.4
				c-0.2-0.1-0.2-0.3-0.1-0.5c0.1-0.2,0.3-0.2,0.5-0.1c1.2,0.8,2.4,1.6,3.6,2.4c0.2,0.1,0.2,0.3,0.1,0.5
				C191.3,312.9,191.2,312.9,191,312.9z M183.9,308c-0.1,0-0.1,0-0.2-0.1c-1.2-0.9-2.3-1.7-3.4-2.6c-0.2-0.1-0.2-0.3-0.1-0.5
				c0.1-0.2,0.3-0.2,0.5-0.1c1.1,0.9,2.3,1.8,3.4,2.6c0.2,0.1,0.2,0.3,0.1,0.5C184.2,308,184.1,308,183.9,308z M177.2,302.7
				c-0.1,0-0.2,0-0.2-0.1c-1.1-0.9-2.2-1.9-3.3-2.9c-0.1-0.1-0.2-0.4,0-0.5c0.1-0.1,0.4-0.2,0.5,0c1,1,2.1,1.9,3.2,2.8
				c0.2,0.1,0.2,0.4,0,0.5C177.4,302.6,177.3,302.7,177.2,302.7z M170.8,296.9c-0.1,0-0.2,0-0.3-0.1c-1-1-2.1-2-3-3.1
				c-0.1-0.1-0.1-0.4,0-0.5c0.1-0.1,0.4-0.1,0.5,0c1,1,2,2.1,3,3.1c0.1,0.1,0.1,0.4,0,0.5C171,296.8,170.9,296.9,170.8,296.9z
				 M164.9,290.6c-0.1,0-0.2,0-0.3-0.1c-1-1.1-1.9-2.2-2.8-3.3c-0.1-0.2-0.1-0.4,0.1-0.5c0.2-0.1,0.4-0.1,0.5,0.1
				c0.9,1.1,1.8,2.2,2.8,3.3c0.1,0.1,0.1,0.4,0,0.5C165,290.6,164.9,290.6,164.9,290.6z M159.4,283.9c-0.1,0-0.2-0.1-0.3-0.1
				c-0.9-1.2-1.7-2.3-2.5-3.5c-0.1-0.2-0.1-0.4,0.1-0.5c0.2-0.1,0.4-0.1,0.5,0.1c0.8,1.2,1.6,2.4,2.5,3.5c0.1,0.2,0.1,0.4-0.1,0.5
				C159.6,283.9,159.5,283.9,159.4,283.9z M154.6,276.8c-0.1,0-0.2-0.1-0.3-0.2c-0.8-1.2-1.5-2.5-2.2-3.7c-0.1-0.2,0-0.4,0.1-0.5
				c0.2-0.1,0.4,0,0.5,0.1c0.7,1.2,1.4,2.5,2.2,3.7c0.1,0.2,0.1,0.4-0.1,0.5C154.7,276.7,154.6,276.8,154.6,276.8z M150.4,269.2
				c-0.1,0-0.3-0.1-0.3-0.2c-0.6-1.3-1.3-2.6-1.9-3.9c-0.1-0.2,0-0.4,0.2-0.5c0.2-0.1,0.4,0,0.5,0.2c0.6,1.3,1.2,2.6,1.9,3.9
				c0.1,0.2,0,0.4-0.2,0.5C150.5,269.2,150.4,269.2,150.4,269.2z M146.8,261.4c-0.1,0-0.3-0.1-0.3-0.2c-0.5-1.3-1-2.7-1.5-4.1
				c-0.1-0.2,0-0.4,0.2-0.5c0.2-0.1,0.4,0,0.5,0.2c0.5,1.3,1,2.7,1.5,4c0.1,0.2,0,0.4-0.2,0.5C146.9,261.3,146.9,261.4,146.8,261.4z
				 M144,253.2c-0.2,0-0.3-0.1-0.3-0.3c-0.4-1.4-0.8-2.8-1.1-4.2c0-0.2,0.1-0.4,0.3-0.4c0.2,0,0.4,0.1,0.4,0.3
				c0.3,1.4,0.7,2.8,1.1,4.1c0.1,0.2-0.1,0.4-0.2,0.4C144.1,253.2,144,253.2,144,253.2z M141.9,244.9c-0.2,0-0.3-0.1-0.4-0.3
				c-0.3-1.4-0.6-2.8-0.8-4.3c0-0.2,0.1-0.4,0.3-0.4c0.2,0,0.4,0.1,0.4,0.3c0.2,1.4,0.5,2.8,0.8,4.2
				C142.3,244.6,142.2,244.8,141.9,244.9C141.9,244.9,141.9,244.9,141.9,244.9z M140.5,236.3c-0.2,0-0.3-0.1-0.4-0.3
				c-0.2-1.4-0.3-2.9-0.4-4.3c0-0.2,0.1-0.4,0.3-0.4c0.2,0,0.4,0.1,0.4,0.3c0.1,1.4,0.3,2.9,0.4,4.3
				C140.9,236.1,140.8,236.3,140.5,236.3C140.6,236.3,140.5,236.3,140.5,236.3z M139.9,227.7c-0.2,0-0.4-0.2-0.4-0.3
				c0-1.3-0.1-2.7-0.1-4l0-0.3c0-0.2,0.2-0.4,0.4-0.4c0,0,0,0,0,0c0.2,0,0.4,0.2,0.4,0.4l0,0.3c0,1.3,0,2.7,0.1,4
				C140.2,227.5,140.1,227.7,139.9,227.7C139.9,227.7,139.9,227.7,139.9,227.7z M139.9,219.1C139.9,219.1,139.9,219.1,139.9,219.1
				c-0.2,0-0.4-0.2-0.4-0.4c0.1-1.4,0.1-2.9,0.3-4.3c0-0.2,0.2-0.3,0.4-0.3c0.2,0,0.3,0.2,0.3,0.4c-0.1,1.4-0.2,2.9-0.3,4.3
				C140.2,218.9,140.1,219.1,139.9,219.1z M140.6,210.5C140.6,210.5,140.5,210.5,140.6,210.5c-0.2,0-0.4-0.2-0.4-0.4
				c0.2-1.4,0.4-2.9,0.6-4.3c0-0.2,0.2-0.3,0.4-0.3c0.2,0,0.3,0.2,0.3,0.4c-0.2,1.4-0.4,2.9-0.6,4.3
				C140.9,210.3,140.7,210.5,140.6,210.5z M141.9,201.9C141.8,201.9,141.8,201.9,141.9,201.9c-0.3,0-0.4-0.2-0.4-0.4
				c0.3-1.4,0.6-2.8,0.9-4.2c0-0.2,0.2-0.3,0.4-0.3c0.2,0,0.3,0.2,0.3,0.4c-0.3,1.4-0.6,2.8-0.9,4.2
				C142.2,201.8,142,201.9,141.9,201.9z M143.7,193.5C143.7,193.5,143.7,193.5,143.7,193.5c-0.3-0.1-0.4-0.3-0.3-0.4
				c0.4-1.4,0.7-2.8,1.1-4.2c0.1-0.2,0.3-0.3,0.4-0.2c0.2,0.1,0.3,0.3,0.2,0.4c-0.4,1.4-0.8,2.8-1.1,4.2
				C144,193.4,143.9,193.5,143.7,193.5z M146.1,185.2c0,0-0.1,0-0.1,0c-0.2-0.1-0.3-0.3-0.2-0.5c0.4-1.4,0.9-2.7,1.4-4.1
				c0.1-0.2,0.3-0.3,0.5-0.2c0.2,0.1,0.3,0.3,0.2,0.5c-0.5,1.4-0.9,2.7-1.4,4.1C146.4,185.1,146.3,185.2,146.1,185.2z M149,177.1
				c0,0-0.1,0-0.1,0c-0.2-0.1-0.3-0.3-0.2-0.5c0.5-1.3,1.1-2.7,1.6-4c0.1-0.2,0.3-0.3,0.5-0.2c0.2,0.1,0.3,0.3,0.2,0.5
				c-0.6,1.3-1.1,2.7-1.6,4C149.3,177,149.2,177.1,149,177.1z M152.4,169.1c0,0-0.1,0-0.1,0c-0.2-0.1-0.3-0.3-0.2-0.5
				c0.6-1.3,1.2-2.6,1.8-3.9c0.1-0.2,0.3-0.3,0.5-0.2c0.2,0.1,0.3,0.3,0.2,0.5c-0.6,1.3-1.2,2.6-1.8,3.9
				C152.6,169,152.5,169.1,152.4,169.1z M156.2,161.3c-0.1,0-0.1,0-0.2,0c-0.2-0.1-0.2-0.3-0.2-0.5c0.7-1.3,1.4-2.6,2-3.8
				c0.1-0.2,0.3-0.2,0.5-0.1c0.2,0.1,0.2,0.3,0.1,0.5c-0.7,1.3-1.4,2.5-2,3.8C156.4,161.3,156.3,161.3,156.2,161.3z M160.4,153.8
				c-0.1,0-0.1,0-0.2,0c-0.2-0.1-0.2-0.3-0.1-0.5c0.7-1.2,1.5-2.5,2.2-3.7c0.1-0.2,0.3-0.2,0.5-0.1c0.2,0.1,0.2,0.3,0.1,0.5
				c-0.8,1.2-1.5,2.5-2.2,3.7C160.6,153.7,160.5,153.8,160.4,153.8z M164.9,146.5c-0.1,0-0.1,0-0.2-0.1c-0.2-0.1-0.2-0.3-0.1-0.5
				c0.8-1.2,1.6-2.4,2.4-3.6c0.1-0.2,0.3-0.2,0.5-0.1c0.2,0.1,0.2,0.3,0.1,0.5c-0.8,1.2-1.6,2.4-2.4,3.6
				C165.1,146.4,165,146.5,164.9,146.5z M169.8,139.4c-0.1,0-0.1,0-0.2-0.1c-0.2-0.1-0.2-0.3-0.1-0.5c0.8-1.2,1.7-2.3,2.6-3.5
				c0.1-0.2,0.3-0.2,0.5-0.1c0.2,0.1,0.2,0.3,0.1,0.5c-0.9,1.1-1.7,2.3-2.6,3.5C170,139.3,169.9,139.4,169.8,139.4z M175.1,132.5
				c-0.1,0-0.2,0-0.2-0.1c-0.2-0.1-0.2-0.4-0.1-0.5c0.9-1.1,1.8-2.2,2.7-3.3c0.1-0.2,0.4-0.2,0.5,0c0.2,0.1,0.2,0.4,0,0.5
				c-0.9,1.1-1.8,2.2-2.7,3.3C175.3,132.4,175.2,132.5,175.1,132.5z M180.6,125.9c-0.1,0-0.2,0-0.2-0.1c-0.1-0.1-0.2-0.4,0-0.5
				c0.9-1.1,1.9-2.2,2.9-3.2c0.1-0.1,0.4-0.2,0.5,0c0.1,0.1,0.2,0.4,0,0.5c-1,1.1-1.9,2.1-2.9,3.2
				C180.8,125.8,180.7,125.9,180.6,125.9z M186.5,119.5c-0.1,0-0.2,0-0.2-0.1c-0.1-0.1-0.1-0.4,0-0.5c1-1,2-2.1,3-3.1
				c0.1-0.1,0.4-0.1,0.5,0c0.1,0.1,0.1,0.4,0,0.5c-1,1-2,2-3,3.1C186.7,119.5,186.6,119.5,186.5,119.5z M192.6,113.4
				c-0.1,0-0.2,0-0.3-0.1c-0.1-0.1-0.1-0.4,0-0.5c1-1,2.1-2,3.2-2.9c0.1-0.1,0.4-0.1,0.5,0c0.1,0.1,0.1,0.4,0,0.5
				c-1.1,1-2.1,1.9-3.2,2.9C192.8,113.4,192.7,113.4,192.6,113.4z M199,107.6c-0.1,0-0.2,0-0.3-0.1c-0.1-0.2-0.1-0.4,0-0.5
				c1.1-0.9,2.2-1.9,3.3-2.8c0.2-0.1,0.4-0.1,0.5,0c0.1,0.2,0.1,0.4,0,0.5c-1.1,0.9-2.2,1.9-3.3,2.8
				C199.2,107.6,199.1,107.6,199,107.6z M205.7,102.1c-0.1,0-0.2,0-0.3-0.1c-0.1-0.2-0.1-0.4,0.1-0.5c1.1-0.9,2.3-1.8,3.4-2.7
				c0.2-0.1,0.4-0.1,0.5,0.1c0.1,0.2,0.1,0.4-0.1,0.5c-1.1,0.9-2.3,1.8-3.4,2.6C205.8,102.1,205.8,102.1,205.7,102.1z M212.6,96.9
				c-0.1,0-0.2-0.1-0.3-0.1c-0.1-0.2-0.1-0.4,0.1-0.5c1.2-0.8,2.4-1.7,3.5-2.5c0.2-0.1,0.4-0.1,0.5,0.1c0.1,0.2,0.1,0.4-0.1,0.5
				c-1.2,0.8-2.4,1.6-3.5,2.5C212.7,96.8,212.7,96.9,212.6,96.9z M219.7,92c-0.1,0-0.2-0.1-0.3-0.2c-0.1-0.2-0.1-0.4,0.1-0.5
				c1.2-0.8,2.4-1.6,3.7-2.3c0.2-0.1,0.4-0.1,0.5,0.1c0.1,0.2,0.1,0.4-0.1,0.5c-1.2,0.8-2.4,1.5-3.6,2.3
				C219.9,91.9,219.8,92,219.7,92z M227.1,87.4c-0.1,0-0.2-0.1-0.3-0.2c-0.1-0.2,0-0.4,0.1-0.5c1.2-0.7,2.5-1.5,3.8-2.2
				c0.2-0.1,0.4,0,0.5,0.1c0.1,0.2,0,0.4-0.1,0.5c-1.2,0.7-2.5,1.4-3.7,2.2C227.2,87.4,227.1,87.4,227.1,87.4z M234.6,83.1
				c-0.1,0-0.3-0.1-0.3-0.2c-0.1-0.2,0-0.4,0.1-0.5c1.3-0.7,2.6-1.3,3.9-2c0.2-0.1,0.4,0,0.5,0.2c0.1,0.2,0,0.4-0.2,0.5
				c-1.3,0.6-2.6,1.3-3.8,2C234.7,83.1,234.7,83.1,234.6,83.1z M242.4,79.3c-0.1,0-0.3-0.1-0.3-0.2c-0.1-0.2,0-0.4,0.2-0.5
				c1.3-0.6,2.6-1.2,3.9-1.8c0.2-0.1,0.4,0,0.5,0.2c0.1,0.2,0,0.4-0.2,0.5c-1.3,0.6-2.6,1.2-3.9,1.8
				C242.5,79.3,242.4,79.3,242.4,79.3z M250.3,75.8c-0.1,0-0.3-0.1-0.3-0.2c-0.1-0.2,0-0.4,0.2-0.5c1.3-0.6,2.7-1.1,4-1.6
				c0.2-0.1,0.4,0,0.5,0.2c0.1,0.2,0,0.4-0.2,0.5c-1.3,0.5-2.7,1.1-4,1.6C250.4,75.8,250.3,75.8,250.3,75.8z M258.3,72.7
				c-0.1,0-0.3-0.1-0.3-0.2c-0.1-0.2,0-0.4,0.2-0.5c1.4-0.5,2.7-1,4.1-1.4c0.2-0.1,0.4,0,0.5,0.2c0.1,0.2,0,0.4-0.2,0.5
				c-1.4,0.4-2.7,0.9-4.1,1.4C258.4,72.6,258.4,72.7,258.3,72.7z M266.6,69.9c-0.2,0-0.3-0.1-0.3-0.3c-0.1-0.2,0-0.4,0.2-0.4
				c1.4-0.4,2.8-0.8,4.2-1.2c0.2-0.1,0.4,0.1,0.4,0.3c0.1,0.2-0.1,0.4-0.3,0.4c-1.4,0.4-2.8,0.8-4.1,1.2
				C266.6,69.9,266.6,69.9,266.6,69.9z M274.9,67.7c-0.2,0-0.3-0.1-0.3-0.3c0-0.2,0.1-0.4,0.3-0.4c1.4-0.3,2.8-0.7,4.2-1
				c0.2,0,0.4,0.1,0.4,0.3c0,0.2-0.1,0.4-0.3,0.4C277.8,67,276.4,67.3,274.9,67.7C275,67.6,274.9,67.7,274.9,67.7z M283.4,65.8
				c-0.2,0-0.3-0.1-0.4-0.3c0-0.2,0.1-0.4,0.3-0.4c1.4-0.3,2.9-0.5,4.3-0.8c0.2,0,0.4,0.1,0.4,0.3c0,0.2-0.1,0.4-0.3,0.4
				C286.3,65.3,284.8,65.5,283.4,65.8C283.4,65.8,283.4,65.8,283.4,65.8z M291.9,64.4c-0.2,0-0.3-0.1-0.4-0.3c0-0.2,0.1-0.4,0.3-0.4
				c1.4-0.2,2.9-0.4,4.3-0.5c0.2,0,0.4,0.1,0.4,0.3c0,0.2-0.1,0.4-0.3,0.4C294.8,64,293.4,64.2,291.9,64.4
				C291.9,64.4,291.9,64.4,291.9,64.4z M330.7,63.8C330.7,63.8,330.6,63.8,330.7,63.8c-1.5-0.2-2.9-0.3-4.3-0.4
				c-0.2,0-0.3-0.2-0.3-0.4c0-0.2,0.2-0.3,0.4-0.3c1.4,0.1,2.9,0.3,4.3,0.4c0.2,0,0.3,0.2,0.3,0.4C331,63.7,330.8,63.8,330.7,63.8z
				 M300.5,63.4c-0.2,0-0.3-0.1-0.4-0.3c0-0.2,0.1-0.4,0.3-0.4c1.4-0.1,2.9-0.2,4.3-0.3c0.2,0,0.4,0.1,0.4,0.3
				c0,0.2-0.1,0.4-0.3,0.4C303.4,63.2,301.9,63.3,300.5,63.4C300.5,63.4,300.5,63.4,300.5,63.4z M322.1,63.1
				C322,63.1,322,63.1,322.1,63.1c-1.4-0.1-2.9-0.1-4.3-0.2c-0.2,0-0.4-0.2-0.4-0.4c0-0.2,0.2-0.4,0.4-0.4c1.4,0,2.9,0.1,4.3,0.2
				c0.2,0,0.4,0.2,0.3,0.4C322.4,63,322.2,63.1,322.1,63.1z M309.1,63c-0.2,0-0.4-0.2-0.4-0.3c0-0.2,0.2-0.4,0.3-0.4
				c1.4,0,2.9-0.1,4.3-0.1h0c0.2,0,0.4,0.2,0.4,0.4c0,0.2-0.2,0.4-0.4,0.4C312,62.9,310.5,62.9,309.1,63C309.1,63,309.1,63,309.1,63
				z"/>
		</g>
		<g>
			<path class="st2" d="M303.6,346.8C303.6,346.8,303.6,346.8,303.6,346.8c-0.8-0.1-1.5-0.1-2.2-0.2c-0.2,0-0.3-0.2-0.3-0.4
				c0-0.2,0.2-0.3,0.4-0.3c0.7,0.1,1.4,0.1,2.1,0.2c0.2,0,0.3,0.2,0.3,0.4C303.9,346.6,303.8,346.8,303.6,346.8z"/>
		</g>
	</g>
	<g>
		<g>
			<g>
				<path class="st1" d="M254.1,153.8c-0.3-0.5-68,18.2-68.4,18.4c0.2-0.4,14.7-28.5,41-35.4c5.9-1.5,12.5-2,19.6-0.8
					c7.9,1.3,14.6,4.2,19.9,8.1C260.5,145.2,257.1,148.7,254.1,153.8z"/>
			</g>
			<g>
				<path class="st1" d="M185.6,172.2C185.6,172.2,185.6,172.2,185.6,172.2L185.6,172.2z"/>
			</g>
		</g>
		<g>
			<g>
				<path class="st2" d="M254.1,153.8c-0.3-0.5-68,18.2-68.4,18.4c0.2-0.4,14.7-28.5,41-35.4c5.9-1.5,12.5-2,19.6-0.8
					c7.9,1.3,14.6,4.2,19.9,8.1C260.5,145.2,257.1,148.7,254.1,153.8z"/>
				<path class="st2" d="M185.6,172.6c-0.1,0-0.2,0-0.2-0.1c-0.1-0.1-0.1-0.3-0.1-0.4c0.2-0.3,3.8-7.4,10.8-15.4
					c6.3-7.2,16.8-16.6,30.5-20.2c6.4-1.7,13.1-1.9,19.8-0.8c7.6,1.3,14.4,4,20.1,8.2c0.1,0.1,0.2,0.2,0.1,0.4
					c0,0.1-0.1,0.2-0.3,0.3c-5,0.9-8.4,3.6-11.9,9.4c-0.1,0.1-0.2,0.2-0.3,0.2c0,0,0,0-0.1,0c-2.7,0.2-67.4,18.1-68.2,18.4
					C185.7,172.6,185.7,172.6,185.6,172.6z M238.2,135.7c-3.9,0-7.7,0.5-11.5,1.5c-13.5,3.5-23.9,12.8-30.1,20
					c-5.7,6.5-9.1,12.4-10.3,14.5c4.1-1.2,21.3-5.9,33.2-9.2c28-7.6,33.2-8.8,34.3-9c3.4-5.6,6.7-8.4,11.5-9.4
					c-5.5-3.8-11.9-6.4-19.1-7.6C243.6,136,240.9,135.7,238.2,135.7z M253.8,154L253.8,154L253.8,154z M253.8,154
					C253.8,154,253.8,154,253.8,154C253.8,154,253.8,154,253.8,154z M253.8,154C253.8,154,253.8,154,253.8,154
					C253.8,154,253.8,154,253.8,154z M253.8,154C253.8,154,253.8,154,253.8,154C253.8,154,253.8,154,253.8,154z M253.8,154
					C253.8,154,253.8,154,253.8,154C253.8,154,253.8,154,253.8,154z M253.8,154C253.8,154,253.8,154,253.8,154
					C253.8,154,253.8,154,253.8,154z"/>
			</g>
			<g>
				<path class="st2" d="M185.6,172.6c-0.1,0-0.2,0-0.3-0.1c-0.1-0.1-0.1-0.4,0-0.5c0.1-0.1,0.4-0.1,0.5,0c0.1,0.1,0.1,0.4,0,0.5
					l0,0C185.8,172.5,185.7,172.6,185.6,172.6z"/>
			</g>
		</g>
		<g>
			<g>
				<path class="st2" d="M185.6,172.6c-0.1,0-0.2,0-0.2-0.1c-0.1-0.1-0.1-0.3-0.1-0.4c0.2-0.3,3.8-7.4,10.8-15.4
					c6.3-7.2,16.8-16.6,30.5-20.2c6.4-1.7,13.1-1.9,19.8-0.8c7.6,1.3,14.4,4,20.1,8.2c0.1,0.1,0.2,0.2,0.1,0.4
					c0,0.1-0.1,0.2-0.3,0.3c-5,0.9-8.4,3.6-11.9,9.4c-0.1,0.1-0.2,0.2-0.3,0.2c0,0,0,0-0.1,0c-2.7,0.2-67.4,18.1-68.2,18.4
					C185.7,172.6,185.7,172.6,185.6,172.6z M238.2,135.7c-3.9,0-7.7,0.5-11.5,1.5c-13.5,3.5-23.9,12.8-30.1,20
					c-5.7,6.5-9.1,12.4-10.3,14.5c4.1-1.2,21.3-5.9,33.2-9.2c28-7.6,33.2-8.8,34.3-9c3.4-5.6,6.7-8.4,11.5-9.4
					c-5.5-3.8-11.9-6.4-19.1-7.6C243.6,136,240.9,135.7,238.2,135.7z M253.8,154L253.8,154L253.8,154z M253.8,154
					C253.8,154,253.8,154,253.8,154C253.8,154,253.8,154,253.8,154z M253.8,154C253.8,154,253.8,154,253.8,154
					C253.8,154,253.8,154,253.8,154z M253.8,154C253.8,154,253.8,154,253.8,154C253.8,154,253.8,154,253.8,154z M253.8,154
					C253.8,154,253.8,154,253.8,154C253.8,154,253.8,154,253.8,154z M253.8,154C253.8,154,253.8,154,253.8,154
					C253.8,154,253.8,154,253.8,154z"/>
			</g>
			<g>
				<path class="st2" d="M185.6,172.6c-0.1,0-0.2,0-0.3-0.1c-0.1-0.1-0.1-0.4,0-0.5c0.1-0.1,0.4-0.1,0.5,0c0.1,0.1,0.1,0.4,0,0.5
					l0,0C185.8,172.5,185.7,172.6,185.6,172.6z"/>
			</g>
		</g>
	</g>
	<g>
		<path class="st1" d="M603.1,345c-9.4,19.4-20.1,36.5-32.3,42.6c-56.5,22.3-106.8,22.2-132.7-5.6c-69.8-73.3-133.4-17-149.2-40.6
			c-20.6-30.8,51.4-58.4,12.8-86.8c-6.3-4.7-11.3-6.4-15.3-6.2l34-19.1l44.3-22.9l6.5-3.3c4.4-0.9,9.8,0.6,17.1,5.9
			c38.6,28.4-49.6,71.5-29,102.3c9.6,14.3,37.8-3.2,87.8-13.2c70.4-14.1,67.1,21.9,114.5,48.9C580.8,360.6,586.7,354.3,603.1,345z"
			/>
		<path class="st2" d="M496.9,404.1c-1.3,0-2.6,0-3.9-0.1c-11.6-0.4-22.1-2.3-31.3-5.9c-9.4-3.6-17.5-9-23.9-15.8
			c-44.7-47-87.3-40.5-115.5-36.2c-16.2,2.5-27.9,4.2-33.7-4.4c-9.6-14.4,0.7-28.1,10.6-41.3c7.7-10.2,14.9-19.9,13.5-29.6
			c-0.8-5.6-4.5-10.8-11.3-15.8c-5.9-4.3-10.8-6.3-15.1-6.1c-0.2,0-0.3-0.1-0.4-0.3c0-0.2,0-0.3,0.2-0.4l34-19.1l50.7-26.2
			c0,0,0.1,0,0.1,0c4.9-1,10.6,1,17.4,6c5.9,4.4,9.2,9.2,9.9,14.9c1.6,12.4-9.9,26.5-20.9,40c-13.4,16.5-27.3,33.5-17.9,47.5
			c6.1,9.1,20.1,5,43.1-1.9c12-3.6,27-8,44.3-11.5c22-4.4,38.3-4.2,51.2,0.6c11.8,4.4,20,12.3,29.4,21.4c8.9,8.6,18.9,18.3,34.2,27
			c17.1,11.8,23.5,8.1,36.3,0.6c1.6-0.9,3.2-1.8,4.9-2.8c0.1-0.1,0.3-0.1,0.4,0.1c0.1,0.1,0.1,0.3,0.1,0.4
			c-11.6,23.9-21.9,37.5-32.4,42.8C544.2,398.5,518.7,404.1,496.9,404.1z M353.6,342.4c6.6,0,13.5,0.5,20.6,1.9
			c23.3,4.4,44.3,16.7,64.2,37.6c12.6,13.5,31,20.7,54.6,21.5c22.6,0.7,49.4-4.8,77.7-16c10.2-5.1,20.2-18.3,31.6-41.4
			c-1.4,0.8-2.6,1.5-3.9,2.2c-13.1,7.6-19.6,11.5-37.1-0.6c-15.3-8.7-25.4-18.5-34.3-27.1c-18.8-18.2-32.5-31.3-79.9-21.8
			c-17.3,3.5-32.2,7.9-44.2,11.5c-23.4,7-37.5,11.2-44,1.6c-9.7-14.4,4.4-31.7,17.9-48.3c11-13.5,22.3-27.4,20.8-39.5
			c-0.7-5.4-3.8-10.1-9.6-14.4c-6.6-4.9-12.1-6.8-16.7-5.9l-50.7,26.2l-32.7,18.4c4.1,0.2,8.8,2.3,14.2,6.2
			c6.9,5.1,10.7,10.4,11.5,16.3c1.5,10.1-5.9,19.8-13.6,30.2c-9.8,13-19.9,26.5-10.6,40.5c5.5,8.2,17,6.5,33,4.1
			C331.4,344,341.9,342.4,353.6,342.4z"/>
	</g>
	<g>
		<path class="st3" d="M307.1,247.1l65.1-38.3c0,0,27.6,10.7,19.5,28.7c-29.5,18.2-70.3,36.4-70.3,36.4S318.5,251,307.1,247.1z"/>
		<path class="st2" d="M321.4,274.3c-0.1,0-0.1,0-0.2,0c-0.1-0.1-0.2-0.2-0.2-0.3c0-0.2-3.1-22.8-14.1-26.5c-0.1,0-0.2-0.2-0.2-0.3
			c0-0.1,0.1-0.3,0.2-0.3l65.1-38.3c0.1-0.1,0.2-0.1,0.3,0c0.6,0.2,15.7,6.2,20.1,16.9c1.6,4,1.5,8.2-0.4,12.3
			c0,0.1-0.1,0.1-0.1,0.2c-29.2,18-69.9,36.3-70.3,36.4C321.5,274.3,321.5,274.3,321.4,274.3z M307.9,247
			c10.1,4.2,13.3,23,13.8,26.3c4.5-2,42.2-19.2,69.7-36.1c1.8-4,1.9-7.9,0.3-11.7c-4-9.8-17.9-15.7-19.5-16.4L307.9,247z"/>
	</g>
	<g>
		<path class="st1" d="M347.9,159.8c-38.7,20.2-48.5,56.6-27.5,69.6l-34,19.1c-13,0.7-17.2,21.1-29.3,28.2
			c-3.9,2.3-8.7,3.2-14.8,1.6c-31.2-8.1-23.9-50.6,19.2-73.1c26.8-14,26-45.6,4.8-61.1c-5.4-3.9-12.1-6.8-19.9-8.1
			c-7.1-1.2-13.7-0.7-19.6,0.8l74.7-40.8l0.2-0.1c8.6-4.7,19.1-7.4,31.2-5.4C371.7,97.1,381.4,142.3,347.9,159.8z"/>
		<path class="st2" d="M248.1,279.6c-1.9,0-3.9-0.3-6-0.8c-11.2-2.9-18-10.3-19.2-20.8c-1-8.5,2-18.2,8.3-27.4
			c6.9-10.1,17.3-18.9,30.1-25.6c11.9-6.2,19.2-16.6,20.1-28.6c0.9-12.2-4.8-24.2-15.4-31.9c-5.6-4.1-12.3-6.8-19.8-8.1
			c-6.6-1.1-13.2-0.8-19.5,0.8c-0.2,0-0.4,0-0.4-0.2c-0.1-0.2,0-0.4,0.2-0.4l74.7-40.8l0.2-0.1c10-5.4,20.5-7.3,31.4-5.4
			c18.9,3.2,32.8,16,35.4,32.8c1.1,7.1,0,14.3-3.2,20.6c-3.5,6.8-9.3,12.5-17,16.5l-0.2-0.3l0.2,0.3c-22.5,11.7-37.5,30.6-38.1,48
			c-0.3,9.1,3.4,16.5,10.6,21c0.1,0.1,0.2,0.2,0.2,0.3s-0.1,0.2-0.2,0.3l-34,19.1c0,0-0.1,0-0.2,0c-7.2,0.4-11.7,7-16.4,14
			c-3.7,5.4-7.4,11-12.8,14.2C254.4,278.7,251.4,279.6,248.1,279.6z M238.2,135c2.7,0,5.4,0.2,8.1,0.7c7.6,1.3,14.4,4,20.1,8.2
			c10.8,7.9,16.6,20,15.7,32.5c-0.9,12.2-8.4,22.9-20.5,29.2c-12.7,6.6-23,15.4-29.8,25.3c-6.2,9.1-9.1,18.6-8.2,26.9
			c1.2,10.2,7.8,17.3,18.7,20.2c5.6,1.4,10.3,0.9,14.6-1.6c5.2-3,8.9-8.6,12.5-13.9c4.8-7.2,9.4-13.9,16.9-14.3l33.4-18.7
			c-7.1-4.6-10.8-12.2-10.4-21.3c0.7-17.7,15.8-36.8,38.5-48.6l0,0c14.6-7.6,22.2-21.5,19.8-36.4c-2.6-16.4-16.3-29.1-34.9-32.2
			c-10.7-1.8-21.1,0-31,5.4l-0.2,0.1l-72.4,39.5C232.1,135.3,235.2,135,238.2,135z"/>
	</g>
	<g>
		<path class="st3" d="M289.8,183.4c31.3-16.3,73.9-46.9,73.9-46.9s2.7-27.2-19.8-33.2c-26.8,13-68.2,37.3-68.2,37.3
			S298.7,157.5,289.8,183.4z"/>
		<path class="st2" d="M289.8,183.7c-0.1,0-0.2,0-0.2-0.1c-0.1-0.1-0.2-0.3-0.1-0.4c4.5-13.2,0.5-24.1-3.7-30.8
			c-4.6-7.3-10.3-11.6-10.3-11.6c-0.1-0.1-0.2-0.2-0.1-0.3c0-0.1,0.1-0.2,0.2-0.3c0.4-0.2,41.7-24.4,68.2-37.3c0.1,0,0.2,0,0.2,0
			c11.8,3.1,16.7,12.1,18.6,19.1c2.1,7.5,1.5,14.4,1.5,14.5c0,0.1-0.1,0.2-0.1,0.3c-0.4,0.3-43,30.8-74,47
			C289.9,183.7,289.8,183.7,289.8,183.7z M276.3,140.6c1.4,1.1,6.2,5.2,10.1,11.5c4.2,6.7,8.2,17.5,4.1,30.6
			c30-15.8,70.3-44.5,72.9-46.4c0.1-1.1,0.5-7.3-1.5-14.1c-2.8-9.8-8.8-16.1-18-18.5C318.9,115.8,280.9,137.9,276.3,140.6z"/>
	</g>
	<g>
		<path class="st2" d="M301.7,254.7L257,276.8c12.1-7.1,16.3-27.6,29.3-28.2C290.4,248.3,295.4,250,301.7,254.7z"/>
		<path class="st2" d="M257,277.1c-0.1,0-0.3-0.1-0.3-0.2c-0.1-0.2,0-0.4,0.1-0.5c5.2-3,8.9-8.6,12.5-13.9c4.8-7.2,9.4-14,17-14.3
			c4.5-0.2,9.6,1.8,15.6,6.2c0.1,0.1,0.2,0.2,0.1,0.3c0,0.1-0.1,0.2-0.2,0.3l-44.7,22.1C257.1,277.1,257.1,277.1,257,277.1z
			 M287,248.9c-0.2,0-0.4,0-0.7,0c-7.2,0.4-11.7,7-16.4,14c-2.8,4.2-5.7,8.5-9.3,11.7l40.4-20C295.6,250.7,291.1,248.9,287,248.9z"
			/>
	</g>
	<g>
		<g>
			<path class="st2" d="M442.4,330.3c-0.3,0.4-6.6-2.2-11,3.3c-4.5,5.5,6.3,41.7,12.5,41.3s6-17.4,6.1-27.3
				C450.1,337.6,442.4,330.3,442.4,330.3z"/>
			<path class="st2" d="M443.8,375.2c-1.6,0-3.5-2-5.5-6c-5.2-10-10.7-31.5-7.1-35.9c3.7-4.5,8.4-3.8,10.4-3.4
				c0.3,0,0.6,0.1,0.7,0.1c0,0,0.1,0,0.2,0c0.1,0,0.2,0,0.3,0.1c0.1,0.1,7.8,7.6,7.7,17.5l0,1.4c-0.1,10.3-0.2,25.8-6.4,26.3
				C443.9,375.1,443.8,375.2,443.8,375.2z M438.9,330.3c-2.2,0-4.9,0.6-7.2,3.4c-3.1,3.8,1.7,24.5,7.2,35.1c1.9,3.7,3.7,5.7,5,5.6
				c5.6-0.4,5.7-16.1,5.8-25.5l0-1.4c0.1-8.9-6.3-15.8-7.4-16.9c-0.2,0-0.5,0-0.9-0.1C440.8,330.5,439.9,330.3,438.9,330.3z"/>
		</g>
		<g>
			<path class="st1" d="M452.3,326.3l-4.9,14.3c0,0-8.2-2.5-8.2-9.8c4.1-10.3,4.3-11.2,4.3-11.2S451.7,322.3,452.3,326.3z"/>
			<path class="st2" d="M447.4,341c0,0-0.1,0-0.1,0c-0.1,0-8.4-2.7-8.5-10.2c0,0,0-0.1,0-0.1c4-10,4.3-11.1,4.3-11.1
				c0-0.1,0.1-0.2,0.2-0.2c0.1,0,0.2-0.1,0.3,0c0.3,0.1,8.4,2.9,9,7c0,0.1,0,0.1,0,0.2l-4.9,14.3C447.7,340.9,447.6,341,447.4,341z
				 M439.6,330.8c0.1,6.1,6.1,8.7,7.6,9.3l4.7-13.8c-0.6-3.2-6.6-5.7-8.2-6.2C443.5,320.9,442.6,323.4,439.6,330.8z"/>
		</g>
		<g>
			<path class="st4" d="M426.2,182.7c0,0,78.9,25.9,76.3,53.7c-2.6,27.8-49.3,102.3-49.3,102.3c-5.5-0.5-10.2-5.9-14.2-15.7
				c0,0,27.8-73.4,23-88.7s-59.5-36.5-59.5-36.5L426.2,182.7z"/>
			<path class="st2" d="M453.2,339C453.2,339,453.2,339,453.2,339c-5.5-0.5-10.4-5.8-14.6-15.9c0-0.1,0-0.2,0-0.3
				c0.3-0.7,27.7-73.5,23-88.5c-4.6-15-58.8-36.1-59.3-36.3c-0.1,0-0.2-0.2-0.2-0.3c0-0.1,0.1-0.3,0.2-0.3l23.7-15
				c0.1-0.1,0.2-0.1,0.3,0c0.2,0.1,20,6.6,39.2,16.5c11.3,5.8,20.2,11.6,26.4,17.2c7.9,7.1,11.6,13.9,11,20.4
				c-2.5,27.5-48.9,101.7-49.4,102.4C453.5,338.9,453.4,339,453.2,339z M439.4,322.9c4,9.6,8.6,14.8,13.7,15.3
				c2.6-4.2,46.7-75.2,49.1-101.9c1.3-14.1-19.4-27.9-37-36.9c-18.2-9.4-37-15.7-38.9-16.4l-23,14.5c6.5,2.6,54.6,21.9,59.1,36.5
				C467,249.2,441.1,318.4,439.4,322.9z"/>
		</g>
		<g>
			<path class="st2" d="M501.7,345c-0.1,0.5-6.7,1.7-7.5,8.7c-0.8,7,27.9,31.6,32.9,27.9c5-3.7-4.3-17.9-9.6-26.2
				C512.2,347.1,501.7,345,501.7,345z"/>
			<path class="st2" d="M525.8,382.4c-1.5,0-3.6-0.8-6.4-2.4c-9.8-5.6-26.1-20.7-25.5-26.3c0.6-5.8,5-7.7,6.9-8.6
				c0.3-0.1,0.5-0.2,0.6-0.3c0,0,0.1-0.1,0.1-0.1c0.1-0.1,0.2-0.1,0.3-0.1c0.1,0,10.7,2.2,16,10.6l0.7,1.2
				c5.5,8.7,13.8,21.8,8.8,25.6C526.9,382.3,526.4,382.4,525.8,382.4z M501.9,345.4c-0.2,0.1-0.4,0.2-0.8,0.4
				c-1.8,0.8-5.9,2.6-6.5,8c-0.6,4.9,14.7,19.7,25.1,25.6c3.6,2.1,6.2,2.8,7.2,2c4.5-3.4-3.9-16.7-9-24.6l-0.7-1.2
				C512.5,348.1,503.3,345.8,501.9,345.4z"/>
		</g>
		<g>
			<path class="st1" d="M507.9,336.4l3.7,14.6c0,0-8.2,2.3-12.2-3.8c-2.2-10.9-2.5-11.7-2.5-11.7S505.3,333.3,507.9,336.4z"/>
			<path class="st2" d="M508,351.8c-2.8,0-6.6-0.8-8.9-4.4c0,0,0-0.1-0.1-0.1c-2.1-10.6-2.4-11.7-2.4-11.7c0-0.1,0-0.2,0-0.3
				c0-0.1,0.1-0.2,0.2-0.2c0.4-0.1,8.6-2.2,11.4,1c0,0,0.1,0.1,0.1,0.1l3.6,14.6c0,0.2-0.1,0.4-0.3,0.4
				C511.7,351.3,510.1,351.8,508,351.8z M499.7,347c3.4,5.1,9.9,4,11.4,3.7l-3.5-14.2c-2.2-2.4-8.7-1.2-10.2-0.8
				C497.6,336.6,498.2,339.2,499.7,347z"/>
		</g>
		<g>
			<path class="st4" d="M364.8,197.2c0,0-1,27.1,49.4,36.2s73,106.6,73,106.6s22.6,5.5,25.2-5.1c-8.8-36.9-25.2-125.6-85.5-142.8
				C383.1,179.8,364.8,197.2,364.8,197.2z"/>
			<path class="st2" d="M499.2,341.9c-0.1,0-0.2,0-0.3,0c-6,0-11.7-1.4-11.7-1.4c-0.1,0-0.2-0.1-0.3-0.3
				c-0.1-0.2-5.8-24.6-17.6-49.8c-10.9-23.2-29.3-51.8-55.2-56.5c-26.1-4.7-38.3-14.4-43.8-21.7c-6.1-7.9-5.9-14.7-5.9-14.9
				c0-0.1,0-0.2,0.1-0.2c0.2-0.2,4.8-4.5,14.8-7.3c9.2-2.6,25-4.3,47.7,2.1c13.2,3.8,25.2,11.2,35.7,22.3c8.9,9.4,17,21.6,24,36.2
				c12.7,26.7,19.6,56.7,24.2,76.6c0.7,2.8,1.3,5.5,1.8,7.9c0,0.1,0,0.1,0,0.2C511.7,339.5,507,341.9,499.2,341.9z M487.5,339.8
				c1.1,0.2,6.1,1.3,11.4,1.4c5.3,0,11.9-1,13.2-6.2c-0.6-2.4-1.2-5.1-1.8-7.9c-4.6-19.8-11.5-49.8-24.2-76.5
				c-15.1-31.7-35-51.2-59.2-58.1c-22.5-6.4-38.1-4.7-47.3-2.2c-9,2.5-13.7,6.3-14.4,7c0,1,0.3,7.3,5.8,14.4
				c5.5,7.2,17.5,16.7,43.3,21.4c11.6,2.1,22.6,9,32.9,20.6c8.2,9.2,15.8,21.5,22.8,36.3C481.2,314,486.9,337.3,487.5,339.8z"/>
		</g>
		<g>
			<path class="st2" d="M407.1,96c0,0,1.9,10.8,0,11.9c-1.9,1.2-9.1-0.8-9-1.4c0.1-0.6,1.7-9.4,1.7-9.4L407.1,96z"/>
			<path class="st2" d="M405.2,108.7c-2.6,0-6.3-1-7.1-1.6c-0.3-0.2-0.4-0.4-0.3-0.6c0.1-0.6,1.6-9.3,1.7-9.4c0-0.2,0.1-0.3,0.3-0.3
				l7.3-1.2c0.2,0,0.4,0.1,0.4,0.3c0.3,1.8,1.9,11.1-0.2,12.3C406.8,108.6,406,108.7,405.2,108.7z M398.5,106.5
				c0.8,0.6,6.8,2.2,8.4,1.2c1.1-0.7,0.6-6.8-0.1-11.2l-6.7,1.1C399.9,98.9,398.7,105.4,398.5,106.5z"/>
		</g>
		<g>
			<path class="st1" d="M449.7,154.5c-2.8,0.5-5.9,1.5-12.3,4.1c-18.1,4.8,3-42-27.7-51.4l-1.8,66.3c20.2,2.8,38.1-9.4,42.2-10.2
				C452.7,162.7,454.1,154.4,449.7,154.5z"/>
			<path class="st2" d="M414.1,174.2c-2,0-4.1-0.1-6.2-0.4c-0.2,0-0.3-0.2-0.3-0.4l1.8-66.3c0-0.1,0.1-0.2,0.2-0.3
				c0.1-0.1,0.2-0.1,0.3-0.1c17.5,5.4,18.4,23,19,35.8c0.4,7,0.7,13.1,3.5,15.1c1.2,0.9,2.8,1,4.9,0.5c6.4-2.5,9.5-3.6,12.3-4.1
				c0,0,0.1,0,0.1,0c1.7,0,2.9,1.2,3.1,3.4c0.3,2.5-0.8,5.8-2.6,6.1c-0.9,0.2-2.7,1-4.9,2.1C438.8,168.8,427.2,174.2,414.1,174.2z
				 M408.3,173.2c15.3,2,29.2-4.6,36.7-8.2c2.3-1.1,4-1.9,5-2.1c1.2-0.2,2.3-3,2-5.4c-0.1-1-0.6-2.7-2.4-2.7c0,0,0,0,0,0
				c-2.8,0.5-5.9,1.5-12.2,4.1c0,0,0,0,0,0c-2.3,0.6-4.2,0.4-5.5-0.6c-3.1-2.3-3.4-8.2-3.8-15.7c-0.7-13.2-1.5-29.6-18.1-35
				L408.3,173.2z M437.4,158.6L437.4,158.6L437.4,158.6z"/>
		</g>
		<g>
			<path class="st1" d="M450,155.4c0,0,8.7,0.5,10.5,3.4c1.8,2.9,1.5,9.2,1.5,9.2s-2.8,2.6-6.4,0.4c-3.6-2.1-3.7-6.4-6.2-6.7
				C446.2,159.5,448.1,155.9,450,155.4z"/>
			<path class="st2" d="M458.4,169.6c-0.9,0-2-0.2-3.1-0.9c-1.9-1.1-2.8-2.8-3.6-4.2c-0.8-1.3-1.4-2.3-2.4-2.5c-0.1,0-0.1,0-0.2-0.1
				c-1.9-1.4-1.9-3.1-1.7-3.9c0.3-1.4,1.3-2.7,2.5-3.1c0,0,0.1,0,0.1,0c0.4,0,8.9,0.6,10.7,3.6c1.8,2.9,1.5,9.2,1.5,9.4
				c0,0.1,0,0.2-0.1,0.2C462.1,168.3,460.6,169.6,458.4,169.6z M449.4,161.4c1.4,0.2,2.1,1.4,2.9,2.8c0.8,1.4,1.7,2.9,3.4,3.9
				c3,1.8,5.3,0.1,5.9-0.3c0-1,0.1-6.4-1.4-8.9c-1.6-2.6-9.3-3.2-10.1-3.2c-0.9,0.3-1.8,1.4-2,2.5
				C447.8,159.4,448.3,160.6,449.4,161.4z"/>
		</g>
		<g>
			<path class="st1" d="M414.3,109.2c-6.9-4.5-16.5-5.8-30.4-2.8c0,0-15.6,0.8-18.6,20.8c-3.7,23.9-2.2,72.1-2.2,72.1
				s68,0.5,72.5-16.6c-7.1-11.2-13.2-16.4-12-38.4L414.3,109.2z"/>
			<path class="st2" d="M363.6,199.7c-0.4,0-0.6,0-0.6,0c-0.2,0-0.4-0.2-0.4-0.3c0-0.5-1.4-48.5,2.3-72.2
				c1.6-10.5,6.7-15.6,10.6-18.2c4.2-2.6,7.9-2.9,8.3-3c13.3-2.8,23.4-1.9,30.7,2.9c0.2,0.1,0.2,0.3,0.1,0.5
				c-0.1,0.2-0.3,0.2-0.5,0.1c-7.1-4.7-17-5.6-30.2-2.8c0,0,0,0-0.1,0c0,0-3.9,0.2-8,2.9c-3.8,2.4-8.7,7.5-10.3,17.6
				c-3.4,22.6-2.4,67.3-2.3,71.7c0,0,0.1,0,0.2,0c6.2,0,67.1-0.4,71.7-16.2c-1-1.5-1.9-3-2.8-4.3c-5.7-8.5-10.1-15.2-9.1-34.2
				c0-0.2,0.2-0.4,0.4-0.3c0.2,0,0.4,0.2,0.3,0.4c-1,18.8,3.2,25.1,9,33.8c0.9,1.4,1.9,2.9,2.9,4.5c0.1,0.1,0.1,0.2,0,0.3
				c-1.9,7.3-14.8,12.3-38.3,15C382,199.6,366.8,199.7,363.6,199.7z"/>
		</g>
		<g>
			<polygon class="st2" points="438.1,194.3 466.2,175.9 464.7,175.9 440.1,190.2 			"/>
			<path class="st2" d="M438.1,194.6c-0.1,0-0.2,0-0.2-0.1c-0.1-0.1-0.2-0.3-0.1-0.4l2-4.1c0-0.1,0.1-0.1,0.1-0.2l24.6-14.3
				c0.1,0,0.1,0,0.2,0h1.5c0.2,0,0.3,0.1,0.3,0.3c0,0.2,0,0.3-0.1,0.4l-28.1,18.3C438.3,194.6,438.2,194.6,438.1,194.6z
				 M440.4,190.5l-1.4,2.8l25.9-17h-0.1L440.4,190.5z"/>
		</g>
		<g>
			<polygon class="st2" points="404.9,179.8 440.3,190.5 438.1,194.3 403.2,182.7 			"/>
			<path class="st2" d="M438.1,194.6c0,0-0.1,0-0.1,0L403.1,183c-0.1,0-0.2-0.1-0.2-0.2c0-0.1,0-0.2,0-0.3l1.7-2.9
				c0.1-0.1,0.3-0.2,0.4-0.2l35.4,10.7c0.1,0,0.2,0.1,0.2,0.2c0,0.1,0,0.2,0,0.3l-2.2,3.8C438.4,194.6,438.2,194.6,438.1,194.6z
				 M403.8,182.5l34.2,11.3l1.8-3.1l-34.7-10.5L403.8,182.5z"/>
		</g>
		<g>
			<path class="st1" d="M443.4,163.2c-1.2,0.3-38.5,16.5-38.5,16.5l35.4,10.7l28.7-18.1L443.4,163.2z"/>
			<path class="st2" d="M440.3,190.8c0,0-0.1,0-0.1,0l-35.4-10.7c-0.1,0-0.2-0.2-0.3-0.3c0-0.2,0.1-0.3,0.2-0.4
				c3.8-1.7,37.4-16.3,38.5-16.6c0.1,0,0.1,0,0.2,0l25.6,9.1c0.1,0,0.2,0.2,0.2,0.3c0,0.1,0,0.3-0.2,0.3l-28.7,18.1
				C440.4,190.8,440.4,190.8,440.3,190.8z M406,179.7l34.3,10.4l28-17.6l-24.8-8.8C441.5,164.3,416.7,175.1,406,179.7z"/>
		</g>
		<g>
			<polygon class="st2" points="471.5,153.5 440.1,190.2 442.4,191.6 473.3,155.4 			"/>
			<path class="st2" d="M442.4,192c-0.1,0-0.1,0-0.2-0.1l-2.3-1.4c-0.1-0.1-0.1-0.1-0.2-0.3c0-0.1,0-0.2,0.1-0.3l31.3-36.7
				c0.1-0.1,0.2-0.1,0.3-0.1c0.1,0,0.2,0,0.3,0.1l1.8,1.9c0.1,0.1,0.1,0.3,0,0.5l-30.8,36.3C442.6,192,442.5,192,442.4,192z
				 M440.7,190.1l1.7,1.1l30.4-35.8l-1.3-1.3L440.7,190.1z"/>
		</g>
		<g>
			<polygon class="st2" points="502.3,135.9 471.5,153.5 473.3,155.4 503.5,137.7 			"/>
			<path class="st2" d="M473.3,155.7c-0.1,0-0.2,0-0.3-0.1l-1.8-1.9c-0.1-0.1-0.1-0.2-0.1-0.3c0-0.1,0.1-0.2,0.2-0.3l30.9-17.6
				c0.2-0.1,0.4,0,0.5,0.1l1.1,1.8c0.1,0.1,0.1,0.2,0,0.3s-0.1,0.2-0.2,0.2l-30.2,17.6C473.4,155.7,473.3,155.7,473.3,155.7z
				 M472,153.6l1.3,1.3l29.6-17.3l-0.8-1.2L472,153.6z"/>
		</g>
		<g>
			<polygon class="st1" points="442.4,191.6 474.5,172.5 503.5,137.7 473.3,155.4 			"/>
			<path class="st2" d="M442.4,192c-0.1,0-0.2,0-0.3-0.1c-0.1-0.1-0.1-0.3,0-0.5l30.8-36.3c0,0,0.1-0.1,0.1-0.1l30.2-17.6
				c0.2-0.1,0.3-0.1,0.5,0.1c0.1,0.1,0.1,0.3,0,0.5l-28.9,34.8c0,0-0.1,0.1-0.1,0.1L442.6,192C442.6,192,442.5,192,442.4,192z
				 M473.5,155.6l-29.4,34.6l30.2-18l27.6-33.2L473.5,155.6z"/>
		</g>
		<g>
			<path class="st1" d="M379.4,107.5c0,0-43.2,12.9-30.6,57.2c9.5,33.2,49.7,13.2,59.7,7.7c4-2.2,2.6-8.2-2.7-8.1
				c-1.5,0.6-3.3,1.2-5.3,2.1c-11.4,4.6-40.9,0.3-34.7-25.8L379.4,107.5z"/>
			<path class="st2" d="M373.1,183.7c-3.8,0-7.5-0.6-10.9-2c-6.7-2.8-11.4-8.5-13.8-17c-2.9-10.2-3.1-19.5-0.6-27.8
				c2-6.6,5.8-12.6,11.2-17.7c9.2-8.7,20.1-12,20.2-12.1c0.2-0.1,0.4,0.1,0.4,0.2c0.1,0.2-0.1,0.4-0.2,0.4
				c-0.1,0-10.9,3.3-19.9,11.9c-8.3,7.9-16.9,22.1-10.4,44.8c2.4,8.3,6.9,13.8,13.4,16.5c3.3,1.4,6.9,1.9,10.6,1.9
				c14.1,0,29.8-8,35.1-11c1.7-0.9,2.5-2.6,2-4.4c-0.4-1.4-1.7-3-4.4-3c0,0,0,0-0.1,0c-1.5,0.6-3.2,1.2-5.3,2
				c-6.7,2.7-21.1,2.5-29.6-4.8c-5.8-5-7.7-12.4-5.6-21.4c0-0.2,0.2-0.3,0.4-0.3c0.2,0,0.3,0.2,0.3,0.4c-2.1,8.7-0.2,15.9,5.4,20.7
				c8.3,7.1,22.3,7.3,28.9,4.7c2.1-0.8,3.8-1.5,5.3-2.1c0,0,0.1,0,0.1,0c2.6,0,4.6,1.4,5.2,3.6c0.5,2.1-0.4,4.2-2.4,5.2
				C403.2,175.7,387.4,183.7,373.1,183.7z"/>
		</g>
		<g>
			<path class="st1" d="M399.9,110.8l0.8-11.4c0,0,16.3,5.5,16.8-21.4c0.3-16.3-14.1-20.3-22.5-11.8c-8.4,8.6-3.6,23.2-5.6,29.4
				c-1.4,4.1-6.1,10-7.8,13.7C380.7,111.2,394.5,119,399.9,110.8z"/>
			<path class="st2" d="M392.6,114.8c-3.2,0-6.4-1.2-8.4-2.3c-1.7-1-3.4-2.4-3-3.3c0.7-1.5,1.9-3.4,3.2-5.4c1.9-2.9,3.8-5.9,4.6-8.2
				c0.7-2,0.6-5,0.5-8.4c-0.2-6.8-0.4-15.3,5.2-21.1c4.1-4.2,10-5.6,14.9-3.6c5.3,2.2,8.4,8.1,8.3,15.6c-0.2,10.1-2.6,16.9-7.2,20.2
				c-4,2.8-8.2,2-9.6,1.7l-0.7,11c0,0.1,0,0.1-0.1,0.2C398.3,113.8,395.5,114.8,392.6,114.8z M404.9,62.2c-3.4,0-6.9,1.5-9.7,4.3
				c-5.5,5.6-5.2,13.9-5,20.6c0.1,3.5,0.2,6.5-0.5,8.7c-0.8,2.5-2.8,5.5-4.6,8.4c-1.3,2-2.5,3.9-3.2,5.3c-0.1,0.2,0.5,1.2,2.7,2.4
				c3.6,2,11.2,4.3,15-1.2l0.8-11.3c0-0.1,0.1-0.2,0.2-0.3c0.1-0.1,0.2-0.1,0.3,0c0,0,5,1.6,9.4-1.4c4.4-3.1,6.7-9.7,6.9-19.6
				c0.1-7.3-2.7-12.8-7.8-14.9C407.9,62.5,406.4,62.2,404.9,62.2z M399.9,110.8L399.9,110.8L399.9,110.8z"/>
		</g>
	</g>
	<g>
		<path class="st2" d="M372.6,110.3c0,0,8.1-2.5,12.7-3.3c10.6-2.5,9.1-13.6,8.5-21.5s2.4-9.6,3.8-8.7c1.4,0.9,6-0.7,7.4-3.9
			c8.5,0.2,7.8,8.2,14.7,9.5c0,0,7.6-10.9,2.2-18.4c-5.4-7.5-13.3-4.8-13.3-4.8s-9.7-8.5-20.2,0.5
			C377.9,68.7,371.9,104.2,372.6,110.3z"/>
		<path class="st2" d="M372.6,110.7c-0.1,0-0.1,0-0.2-0.1c-0.1-0.1-0.1-0.2-0.2-0.3c-0.4-3.2,1-13.8,3.7-24.3
			c1.9-7.7,6.1-21.3,12.1-26.6c9.8-8.5,19.2-1.7,20.5-0.6c1.3-0.4,8.5-2,13.5,5c5.5,7.6-1.8,18.4-2.2,18.8c-0.1,0.1-0.2,0.2-0.4,0.1
			c-3.2-0.6-4.9-2.7-6.5-4.7c-1.9-2.4-3.6-4.6-7.9-4.8c-0.9,2-3,3.3-4.7,3.8c-1.3,0.4-2.5,0.4-3.1,0c-0.4-0.2-0.8-0.2-1.3,0.1
			c-0.6,0.4-2.5,2-1.9,8.3l0.1,1c0.7,7.8,1.6,18.4-8.8,20.9c-4.6,0.8-12.6,3.3-12.7,3.3C372.6,110.6,372.6,110.7,372.6,110.7z
			 M398.6,55.8c-3,0-6.5,1-10,4.1c-10,8.7-16,42.7-15.6,49.9c1.7-0.5,8.4-2.5,12.3-3.2c9.8-2.3,9-12.2,8.3-20.1l-0.1-1
			c-0.6-6.5,1.4-8.4,2.3-9c0.7-0.4,1.5-0.5,2-0.1c0.4,0.3,1.4,0.2,2.5-0.1c1.6-0.5,3.6-1.7,4.4-3.6c0.1-0.1,0.2-0.2,0.3-0.2
			c4.8,0.1,6.8,2.6,8.7,5.1c1.5,1.9,3,3.8,5.8,4.4c1-1.5,6.9-11.1,2-17.8c-5.2-7.2-12.6-4.8-12.9-4.7c-0.1,0-0.3,0-0.4-0.1
			C408,59.2,404,55.8,398.6,55.8z"/>
	</g>
	<g>
		<path class="st1" d="M406.3,165.3c0,0,9.9-3.5,15-1.2c5.1,2.3,6.6,14.9,6.6,14.9s-0.3,0.8-1.7,0s-3.6-8.2-3.6-8.2s-0.8,3.9-4,4.8
			c-3.3,0.9-6.9-1.8-7.7-2.8c-0.9-1-4.5-1.4-4.5-1.4S404.5,168,406.3,165.3z"/>
		<path class="st2" d="M427.2,179.7c-0.4,0-0.8-0.1-1.3-0.4c-1.2-0.7-2.7-5.1-3.4-7.3c-0.5,1.3-1.6,3.3-3.9,4
			c-3.4,0.9-7.2-1.9-8.1-2.9c-0.6-0.7-2.9-1.2-4.3-1.3c-0.1,0-0.2-0.1-0.3-0.2c-0.1-0.1-1.8-3.5,0-6.4c0-0.1,0.1-0.1,0.2-0.1
			c0.4-0.1,10.1-3.5,15.3-1.2c5.3,2.4,6.8,14.6,6.8,15.2c0,0.1,0,0.1,0,0.2c0,0-0.2,0.4-0.6,0.5
			C427.5,179.7,427.4,179.7,427.2,179.7z M422.6,170.4c0.2,0,0.3,0.1,0.3,0.3c0.8,2.8,2.5,7.5,3.4,8c0.6,0.4,0.9,0.3,1.1,0.3
			c0.1,0,0.1,0,0.1-0.1c-0.2-1.3-1.8-12.4-6.4-14.5c-4.6-2.1-13.5,0.8-14.6,1.2c-1.3,2.1-0.3,4.7,0,5.4c0.8,0.1,3.7,0.5,4.6,1.5
			c0.8,1,4.3,3.6,7.4,2.7c3-0.8,3.8-4.5,3.8-4.6C422.2,170.5,422.4,170.4,422.6,170.4C422.5,170.4,422.5,170.4,422.6,170.4z"/>
	</g>
	<g>
		<path class="st2" d="M338.4,285.4c-0.2,0-0.4-0.1-0.5-0.3c-0.1-0.3,0-0.6,0.3-0.7l54.5-25c0.3-0.1,0.6,0,0.7,0.3
			c0.1,0.3,0,0.6-0.3,0.7l-54.5,25C338.6,285.4,338.5,285.4,338.4,285.4z"/>
	</g>
	<g>
		<path class="st2" d="M327,305c-0.2,0-0.4-0.1-0.5-0.3c-0.1-0.3,0-0.6,0.3-0.7l54-25.3c0.3-0.1,0.6,0,0.7,0.3
			c0.1,0.3,0,0.6-0.3,0.7l-54,25.3C327.1,305,327.1,305,327,305z"/>
	</g>
	<g>
		<path class="st2" d="M316.6,324.2c-0.2,0-0.4-0.1-0.5-0.3c-0.1-0.3,0-0.6,0.3-0.7l56.5-26.5c0.3-0.1,0.6,0,0.7,0.3
			c0.1,0.3,0,0.6-0.3,0.7l-56.5,26.5C316.8,324.1,316.7,324.2,316.6,324.2z"/>
	</g>
	<g>
		<path class="st2" d="M274.4,202.1c-0.2,0-0.4-0.1-0.5-0.3c-0.1-0.3,0-0.6,0.2-0.7l46.5-24.7c0.3-0.1,0.6,0,0.7,0.2
			c0.1,0.3,0,0.6-0.2,0.7l-46.5,24.7C274.6,202.1,274.5,202.1,274.4,202.1z"/>
	</g>
	<g>
		<path class="st2" d="M245.9,227c-0.2,0-0.4-0.1-0.5-0.3c-0.1-0.3,0-0.6,0.3-0.7l61.2-29.5c0.3-0.1,0.6,0,0.7,0.3
			c0.1,0.3,0,0.6-0.3,0.7l-61.2,29.5C246,226.9,245.9,227,245.9,227z"/>
	</g>
	<g>
		<path class="st2" d="M235.9,261.7c-0.2,0-0.4-0.1-0.5-0.3c-0.1-0.3,0-0.6,0.2-0.7L307,224c0.3-0.1,0.6,0,0.7,0.2
			c0.1,0.3,0,0.6-0.2,0.7l-71.3,36.7C236.1,261.7,236,261.7,235.9,261.7z"/>
	</g>
	<g>
		<path class="st2" d="M271.6,274.4c-0.2,0-0.3-0.1-0.4-0.2c-0.2-0.2-0.1-0.6,0.1-0.7l20.9-14c0.2-0.2,0.6-0.1,0.7,0.1
			c0.2,0.2,0.1,0.6-0.1,0.7l-20.9,14C271.8,274.4,271.7,274.4,271.6,274.4z"/>
	</g>
	<g>
		<path class="st2" d="M234.8,247.5c-0.2,0-0.4-0.1-0.5-0.3c-0.1-0.3,0-0.6,0.2-0.7l66.9-32.6c0.3-0.1,0.6,0,0.7,0.2
			c0.1,0.3,0,0.6-0.2,0.7L235,247.5C234.9,247.5,234.8,247.5,234.8,247.5z"/>
	</g>
	<g>
		<path class="st2" d="M263.8,129.1c-0.2,0-0.4-0.1-0.5-0.3c-0.1-0.3-0.1-0.6,0.2-0.7l57.1-31.8c0.3-0.1,0.6-0.1,0.7,0.2
			c0.1,0.3,0.1,0.6-0.2,0.7L264.1,129C264,129.1,263.9,129.1,263.8,129.1z"/>
	</g>
	<g>
		<g>
			<path class="st2" d="M101.9,195.5c-0.1,0-0.1,0-0.2,0l-27.9-12.6c-0.2-0.1-0.3-0.2-0.3-0.4c0-0.2,0.1-0.4,0.2-0.5l24.1-19.6
				c0.1-0.1,0.3-0.1,0.5-0.1c0.2,0.1,0.3,0.2,0.3,0.4l3.8,32.2c0,0.2-0.1,0.4-0.2,0.5C102.1,195.5,102,195.5,101.9,195.5z M75,182.3
				l26.3,11.9l-3.6-30.3L75,182.3z"/>
		</g>
		<g>
			<polygon class="st2" points="62.5,290.8 51.6,288.9 40.8,287 47.7,277.9 54.7,268.8 58.6,279.8 			"/>
			<path class="st2" d="M62.5,291.2C62.4,291.2,62.4,291.2,62.5,291.2l-21.7-3.8c-0.1,0-0.2-0.1-0.3-0.2c0-0.1,0-0.3,0.1-0.4
				l13.9-18.3c0.1-0.1,0.2-0.1,0.3-0.1c0.1,0,0.2,0.1,0.3,0.2l7.8,22c0,0.1,0,0.3-0.1,0.4C62.7,291.1,62.6,291.2,62.5,291.2z
				 M41.4,286.8l20.5,3.6l-7.4-20.9L41.4,286.8z"/>
		</g>
	</g>
	<g>
		<path class="st1" d="M390.7,117.8c0,0,2.9,0.6,5.3-1.5c2.8,3.9,2.4,18.4,2.1,23.9L390.7,117.8z"/>
		<path class="st2" d="M398.1,140.5C398.1,140.5,398.1,140.5,398.1,140.5c-0.2,0-0.4-0.2-0.4-0.4c0.2-4.4,0.7-19-1.8-23.3
			c-2.5,1.8-5.2,1.3-5.3,1.3c-0.2,0-0.3-0.2-0.3-0.4c0-0.2,0.2-0.3,0.4-0.3c0,0,2.8,0.5,5-1.4c0.1-0.1,0.2-0.1,0.3-0.1
			c0.1,0,0.2,0.1,0.2,0.1c2.8,4,2.5,18.2,2.2,24.1C398.5,140.4,398.3,140.5,398.1,140.5z"/>
	</g>
	<g>
		<path class="st1" d="M420.8,123.5c0,0,3.8,8.6,2.9,15.9L420.8,123.5z"/>
		<path class="st2" d="M423.7,139.7C423.7,139.7,423.7,139.7,423.7,139.7c-0.2,0-0.4-0.2-0.4-0.4c0.8-7.1-2.8-15.6-2.9-15.7
			c-0.1-0.2,0-0.4,0.2-0.5c0.2-0.1,0.4,0,0.5,0.2c0.2,0.4,3.8,8.8,2.9,16.1C424.1,139.6,423.9,139.7,423.7,139.7z"/>
	</g>
	<g>
		<path class="st2" d="M344.9,331.5c-0.2,0-0.4-0.1-0.5-0.3c-0.1-0.3,0-0.6,0.3-0.7l31.4-14.7c0.3-0.1,0.6,0,0.7,0.3
			c0.1,0.3,0,0.6-0.3,0.7l-31.4,14.7C345,331.5,345,331.5,344.9,331.5z"/>
	</g>
	<g>
		<path class="st2" d="M396.7,57.4c0,0-2.6-13.2-13.7-7.7s-4.4,31.4-4.4,31.4L396.7,57.4z"/>
		<path class="st2" d="M378.6,81.5C378.6,81.5,378.6,81.5,378.6,81.5c-0.2,0-0.3-0.1-0.3-0.3c-0.3-1.1-6.7-26.3,4.5-31.8
			c3.2-1.6,6.1-1.8,8.5-0.6c4.4,2.2,5.7,8.3,5.8,8.6c0,0.1,0,0.2-0.1,0.3l-18.1,23.7C378.9,81.5,378.7,81.5,378.6,81.5z M388,48.8
			c-1.5,0-3.1,0.4-4.9,1.3c-9.7,4.8-5.3,26.1-4.3,30.3l17.5-23c-0.2-1-1.6-6.1-5.3-7.9C390.1,49,389.1,48.8,388,48.8z"/>
	</g>
	<g>
		<polygon class="st4" points="474,238.9 469,247.3 477.7,244 474.8,250.1 479.1,250.1 		"/>
		<path class="st2" d="M479.1,250.5h-4.3c-0.1,0-0.2-0.1-0.3-0.2c-0.1-0.1-0.1-0.2,0-0.3l2.5-5.4l-7.9,3c-0.1,0.1-0.3,0-0.4-0.1
			c-0.1-0.1-0.1-0.3,0-0.4l4.9-8.4c0.1-0.2,0.3-0.2,0.5-0.1c0.2,0.1,0.2,0.3,0.1,0.5l-4.4,7.5l7.7-2.9c0.1-0.1,0.3,0,0.4,0.1
			c0.1,0.1,0.1,0.3,0.1,0.4l-2.7,5.6h3.7c0.2,0,0.4,0.2,0.4,0.4C479.4,250.3,479.3,250.5,479.1,250.5z"/>
	</g>
	<g>
		<polygon class="st4" points="498.7,230.7 495,236.3 500.5,236.3 495.8,240.4 498.7,241.9 		"/>
		<path class="st2" d="M498.7,242.3c-0.1,0-0.1,0-0.2,0l-2.8-1.5c-0.1-0.1-0.2-0.2-0.2-0.3c0-0.1,0-0.2,0.1-0.3l3.9-3.5H495
			c-0.1,0-0.3-0.1-0.3-0.2c-0.1-0.1-0.1-0.3,0-0.4l3.7-5.6c0.1-0.2,0.3-0.2,0.5-0.1c0.2,0.1,0.2,0.3,0.1,0.5l-3.3,5h4.8
			c0.1,0,0.3,0.1,0.3,0.2c0.1,0.1,0,0.3-0.1,0.4l-4.2,3.8l2.4,1.3c0.2,0.1,0.2,0.3,0.1,0.5C498.9,242.2,498.8,242.3,498.7,242.3z"/>
	</g>
</g>
<g>
	<g>
		<g>
			<path class="st2" d="M1023.4,503.2l160.1-7.8l-44.5-230.9c-2.1-11.2-11.6-19.3-22.7-19.3H998.6c-14.6,0-25.5,13.7-22.7,28.4
				L1023.4,503.2z"/>
			<path class="st2" d="M1023.4,503.5c-0.1,0-0.2-0.1-0.3-0.2l-47.5-229.6c-1.3-7.1,0.4-14.4,4.9-20c4.5-5.6,11.1-8.8,18.1-8.8
				h117.7c11.2,0,20.8,8.2,23,19.5l44.5,230.9c0,0.1,0,0.2-0.1,0.2c0,0.1-0.1,0.1-0.2,0.1L1023.4,503.5
				C1023.5,503.5,1023.4,503.5,1023.4,503.5z M998.6,245.5c-6.9,0-13.3,3.1-17.7,8.6c-4.4,5.5-6.1,12.6-4.8,19.5l47.5,229.3
				l159.6-7.7l-44.5-230.6c-2.1-11-11.5-19.1-22.4-19.1H998.6z"/>
		</g>
		<g>
			<path class="st2" d="M1034.8,236.2h10.6l-1.9-9.9c-1.1-5.7,2.5-10.3,8-10.3h0c5.5,0,10.9,4.6,12,10.3l1.9,9.9h10.5
				c3.1,0,5.9,2,7,4.9l3.5,9.2h-57.5l-1.3-3.9C1026,241.4,1029.6,236.2,1034.8,236.2z"/>
			<path class="st2" d="M1086.4,250.6h-57.5c-0.1,0-0.2-0.1-0.3-0.2l-1.3-3.9c-0.8-2.5-0.4-5.1,1.1-7.3c1.5-2.1,3.8-3.3,6.3-3.3
				h10.3l-1.8-9.6c-0.6-2.9,0-5.6,1.6-7.6c1.6-2,3.9-3,6.6-3c5.6,0,11.1,4.7,12.2,10.5l1.9,9.7h10.2c3.2,0,6.1,2,7.3,5.1l3.5,9.2
				c0,0.1,0,0.2,0,0.3C1086.5,250.6,1086.4,250.6,1086.4,250.6z M1029.1,250.1h56.9l-3.4-8.8c-1.1-2.9-3.7-4.7-6.8-4.7h-10.5
				c-0.1,0-0.2-0.1-0.3-0.2l-1.9-9.9c-1.1-5.6-6.3-10.1-11.7-10.1c-2.5,0-4.8,1-6.2,2.8c-1.5,1.9-2,4.4-1.5,7.1l1.9,9.9
				c0,0.1,0,0.2-0.1,0.2c-0.1,0.1-0.1,0.1-0.2,0.1h-10.6c-2.4,0-4.5,1.1-5.9,3.1c-1.4,2-1.7,4.4-1,6.7L1029.1,250.1z"/>
		</g>
		<g>
			<path class="st1" d="M1030.3,502.1l160.1-7.8l-44.5-230.9c-2.1-11.2-11.6-19.3-22.7-19.3h-117.7c-14.6,0-25.5,13.7-22.7,28.4
				L1030.3,502.1z"/>
			<path class="st2" d="M1030.3,502.3c-0.1,0-0.2-0.1-0.3-0.2l-47.5-229.6c-1.3-7.1,0.4-14.4,4.9-20c4.5-5.6,11.1-8.8,18.1-8.8
				h117.7c11.2,0,20.8,8.2,23,19.5l44.5,230.9c0,0.1,0,0.2-0.1,0.2c0,0.1-0.1,0.1-0.2,0.1L1030.3,502.3
				C1030.3,502.3,1030.3,502.3,1030.3,502.3z M1005.5,244.3c-6.9,0-13.3,3.1-17.7,8.6c-4.4,5.5-6.1,12.6-4.8,19.5l47.5,229.3
				l159.6-7.7l-44.5-230.6c-2.1-11-11.5-19.1-22.4-19.1H1005.5z"/>
		</g>
		<g>
			<ellipse class="st1" cx="1121.5" cy="291.6" rx="12.2" ry="10.9"/>
			<path class="st2" d="M1121.5,302.7c-6.9,0-12.5-5-12.5-11.2s5.6-11.2,12.5-11.2s12.5,5,12.5,11.2S1128.3,302.7,1121.5,302.7z
				 M1121.5,281c-6.6,0-11.9,4.7-11.9,10.6s5.3,10.6,11.9,10.6c6.6,0,11.9-4.7,11.9-10.6S1128,281,1121.5,281z"/>
		</g>
		<g>
			<ellipse class="st2" cx="1126.6" cy="317.8" rx="12.2" ry="10.9"/>
			<path class="st2" d="M1126.6,328.9c-6.9,0-12.5-5-12.5-11.2s5.6-11.2,12.5-11.2c6.9,0,12.5,5,12.5,11.2
				S1133.5,328.9,1126.6,328.9z M1126.6,307.2c-6.6,0-11.9,4.7-11.9,10.6s5.3,10.6,11.9,10.6c6.6,0,11.9-4.7,11.9-10.6
				S1133.2,307.2,1126.6,307.2z"/>
		</g>
		<g>
			<ellipse class="st1" cx="1131.8" cy="342.7" rx="12.2" ry="10.9"/>
			<path class="st2" d="M1131.8,353.9c-6.9,0-12.5-5-12.5-11.2c0-6.1,5.6-11.2,12.5-11.2s12.5,5,12.5,11.2
				C1144.3,348.9,1138.7,353.9,1131.8,353.9z M1131.8,332.2c-6.6,0-11.9,4.7-11.9,10.6c0,5.8,5.3,10.6,11.9,10.6s11.9-4.7,11.9-10.6
				C1143.7,336.9,1138.4,332.2,1131.8,332.2z"/>
		</g>
		<g>
			<ellipse class="st1" cx="1136.1" cy="367.2" rx="12.2" ry="10.9"/>
			<path class="st2" d="M1136.1,378.3c-6.9,0-12.5-5-12.5-11.2c0-6.1,5.6-11.2,12.5-11.2s12.5,5,12.5,11.2
				C1148.6,373.3,1143,378.3,1136.1,378.3z M1136.1,356.6c-6.6,0-11.9,4.7-11.9,10.6s5.3,10.6,11.9,10.6c6.6,0,11.9-4.7,11.9-10.6
				S1142.7,356.6,1136.1,356.6z"/>
		</g>
		<g>
			<ellipse class="st1" cx="1142.1" cy="395.6" rx="12.2" ry="10.9"/>
			<path class="st2" d="M1142.1,406.7c-6.9,0-12.5-5-12.5-11.2c0-6.1,5.6-11.2,12.5-11.2c6.9,0,12.5,5,12.5,11.2
				C1154.6,401.7,1149,406.7,1142.1,406.7z M1142.1,385c-6.6,0-11.9,4.7-11.9,10.6c0,5.8,5.3,10.6,11.9,10.6
				c6.6,0,11.9-4.7,11.9-10.6C1154.1,389.7,1148.7,385,1142.1,385z"/>
		</g>
		<g>
			<ellipse class="st1" cx="1146.7" cy="422" rx="12.2" ry="10.9"/>
			<path class="st2" d="M1146.7,433.1c-6.9,0-12.5-5-12.5-11.2s5.6-11.2,12.5-11.2c6.9,0,12.5,5,12.5,11.2
				S1153.6,433.1,1146.7,433.1z M1146.7,411.4c-6.6,0-11.9,4.7-11.9,10.6s5.3,10.6,11.9,10.6s11.9-4.7,11.9-10.6
				S1153.3,411.4,1146.7,411.4z"/>
		</g>
		<g>
			<ellipse class="st1" cx="1153.4" cy="447.5" rx="12.2" ry="10.9"/>
			<path class="st2" d="M1153.4,458.7c-6.9,0-12.5-5-12.5-11.2s5.6-11.2,12.5-11.2s12.5,5,12.5,11.2S1160.3,458.7,1153.4,458.7z
				 M1153.4,437c-6.6,0-11.9,4.7-11.9,10.6c0,5.8,5.3,10.6,11.9,10.6c6.6,0,11.9-4.7,11.9-10.6C1165.4,441.7,1160,437,1153.4,437z"
				/>
		</g>
		<g>
			<g>
				<g>
					<polygon class="st1" points="1109.3,348 1020.9,348 1019.2,340.1 1107.5,340.1 					"/>
				</g>
				<g>
					<polygon class="st1" points="1114.4,374.2 1026.1,374.2 1024.4,366.3 1112.7,366.3 					"/>
				</g>
				<g>
					<polygon class="st1" points="1119.6,400.4 1031.3,400.4 1029.5,392.5 1117.2,392.5 					"/>
				</g>
				<g>
					<polygon class="st1" points="1124.8,426.7 1036.4,426.7 1034.7,418.8 1123,418.8 					"/>
				</g>
				<g>
					<polygon class="st1" points="1131.4,451.8 1043.1,451.8 1041.3,443.9 1129.7,443.9 					"/>
				</g>
			</g>
			<g>
				<g>
					<polygon class="st1" points="1109.3,348 1020.9,348 1019.2,340.1 1107.5,340.1 					"/>
					<path class="st2" d="M1109.3,348.3h-88.3c-0.1,0-0.2-0.1-0.3-0.2l-1.7-7.9c0-0.1,0-0.2,0.1-0.2c0.1-0.1,0.1-0.1,0.2-0.1h88.3
						c0.1,0,0.2,0.1,0.3,0.2l1.7,7.9c0,0.1,0,0.2-0.1,0.2C1109.4,348.2,1109.3,348.3,1109.3,348.3z M1021.2,347.7h87.8l-1.6-7.3
						h-87.8L1021.2,347.7z"/>
				</g>
				<g>
					<polygon class="st3" points="1114.4,374.2 1026.1,374.2 1024.4,366.3 1112.7,366.3 					"/>
					<path class="st2" d="M1114.4,374.5h-88.3c-0.1,0-0.2-0.1-0.3-0.2l-1.7-7.9c0-0.1,0-0.2,0.1-0.2c0.1-0.1,0.1-0.1,0.2-0.1h88.3
						c0.1,0,0.2,0.1,0.3,0.2l1.7,7.9c0,0.1,0,0.2-0.1,0.2C1114.6,374.5,1114.5,374.5,1114.4,374.5z M1026.3,373.9h87.8l-1.6-7.3
						h-87.8L1026.3,373.9z"/>
				</g>
				<g>
					<polygon class="st1" points="1119.6,400.4 1031.3,400.4 1029.5,392.5 1117.2,392.5 					"/>
					<path class="st2" d="M1119.6,400.7h-88.3c-0.1,0-0.2-0.1-0.3-0.2l-1.7-7.9c0-0.1,0-0.2,0.1-0.2c0.1-0.1,0.1-0.1,0.2-0.1h87.7
						c0.1,0,0.2,0.1,0.3,0.2l2.4,7.9c0,0.1,0,0.2,0,0.3C1119.8,400.7,1119.7,400.7,1119.6,400.7z M1031.5,400.2h87.7l-2.2-7.3h-87.1
						L1031.5,400.2z"/>
				</g>
				<g>
					<polygon class="st3" points="1124.8,426.7 1036.4,426.7 1034.7,418.8 1123,418.8 					"/>
					<path class="st2" d="M1124.8,427h-88.3c-0.1,0-0.2-0.1-0.3-0.2l-1.7-7.9c0-0.1,0-0.2,0.1-0.2c0.1-0.1,0.1-0.1,0.2-0.1h88.3
						c0.1,0,0.2,0.1,0.3,0.2l1.7,7.9c0,0.1,0,0.2-0.1,0.2C1124.9,426.9,1124.9,427,1124.8,427z M1036.7,426.4h87.8l-1.6-7.3h-87.8
						L1036.7,426.4z"/>
				</g>
				<g>
					<polygon class="st1" points="1131.4,451.8 1043.1,451.8 1041.3,443.9 1129.7,443.9 					"/>
					<path class="st2" d="M1131.4,452.1h-88.3c-0.1,0-0.2-0.1-0.3-0.2l-1.7-7.9c0-0.1,0-0.2,0.1-0.2s0.1-0.1,0.2-0.1h88.3
						c0.1,0,0.2,0.1,0.3,0.2l1.7,7.9c0,0.1,0,0.2-0.1,0.2C1131.6,452.1,1131.5,452.1,1131.4,452.1z M1043.3,451.6h87.8l-1.6-7.3
						h-87.8L1043.3,451.6z"/>
				</g>
			</g>
			<g>
				<g>
					<path class="st2" d="M1109.3,348.3h-88.3c-0.1,0-0.2-0.1-0.3-0.2l-1.7-7.9c0-0.1,0-0.2,0.1-0.2c0.1-0.1,0.1-0.1,0.2-0.1h88.3
						c0.1,0,0.2,0.1,0.3,0.2l1.7,7.9c0,0.1,0,0.2-0.1,0.2C1109.4,348.2,1109.3,348.3,1109.3,348.3z M1021.2,347.7h87.8l-1.6-7.3
						h-87.8L1021.2,347.7z"/>
				</g>
				<g>
					<path class="st2" d="M1114.4,374.5h-88.3c-0.1,0-0.2-0.1-0.3-0.2l-1.7-7.9c0-0.1,0-0.2,0.1-0.2c0.1-0.1,0.1-0.1,0.2-0.1h88.3
						c0.1,0,0.2,0.1,0.3,0.2l1.7,7.9c0,0.1,0,0.2-0.1,0.2C1114.6,374.5,1114.5,374.5,1114.4,374.5z M1026.3,373.9h87.8l-1.6-7.3
						h-87.8L1026.3,373.9z"/>
				</g>
				<g>
					<path class="st2" d="M1119.6,400.7h-88.3c-0.1,0-0.2-0.1-0.3-0.2l-1.7-7.9c0-0.1,0-0.2,0.1-0.2c0.1-0.1,0.1-0.1,0.2-0.1h87.7
						c0.1,0,0.2,0.1,0.3,0.2l2.4,7.9c0,0.1,0,0.2,0,0.3C1119.8,400.7,1119.7,400.7,1119.6,400.7z M1031.5,400.2h87.7l-2.2-7.3h-87.1
						L1031.5,400.2z"/>
				</g>
				<g>
					<path class="st2" d="M1124.8,427h-88.3c-0.1,0-0.2-0.1-0.3-0.2l-1.7-7.9c0-0.1,0-0.2,0.1-0.2c0.1-0.1,0.1-0.1,0.2-0.1h88.3
						c0.1,0,0.2,0.1,0.3,0.2l1.7,7.9c0,0.1,0,0.2-0.1,0.2C1124.9,426.9,1124.9,427,1124.8,427z M1036.7,426.4h87.8l-1.6-7.3h-87.8
						L1036.7,426.4z"/>
				</g>
				<g>
					<path class="st2" d="M1131.4,452.1h-88.3c-0.1,0-0.2-0.1-0.3-0.2l-1.7-7.9c0-0.1,0-0.2,0.1-0.2s0.1-0.1,0.2-0.1h88.3
						c0.1,0,0.2,0.1,0.3,0.2l1.7,7.9c0,0.1,0,0.2-0.1,0.2C1131.6,452.1,1131.5,452.1,1131.4,452.1z M1043.3,451.6h87.8l-1.6-7.3
						h-87.8L1043.3,451.6z"/>
				</g>
			</g>
		</g>
		<g>
			<path class="st1" d="M1037.8,236.2h10.6l-1.9-9.9c-1.1-5.7,2.5-10.3,8-10.3l0,0c5.5,0,10.9,4.6,12,10.3l1.9,9.9h10.5
				c3.1,0,5.9,2,7,4.9l3.5,9.2h-57.5l-1.3-3.9C1029,241.4,1032.7,236.2,1037.8,236.2z"/>
			<path class="st2" d="M1089.4,250.6h-57.5c-0.1,0-0.2-0.1-0.3-0.2l-1.3-3.9c-0.8-2.5-0.4-5.1,1.1-7.3c1.5-2.1,3.8-3.3,6.3-3.3
				h10.3l-1.8-9.6c-0.6-2.9,0-5.6,1.6-7.6c1.6-2,3.9-3,6.6-3c5.6,0,11.1,4.7,12.2,10.5l1.9,9.7h10.2c3.2,0,6.1,2,7.3,5.1l3.5,9.2
				c0,0.1,0,0.2,0,0.3C1089.6,250.6,1089.5,250.6,1089.4,250.6z M1032.1,250.1h56.9l-3.4-8.8c-1.1-2.9-3.7-4.7-6.8-4.7h-10.5
				c-0.1,0-0.2-0.1-0.3-0.2l-1.9-9.9c-1.1-5.6-6.3-10.1-11.7-10.1c-2.5,0-4.8,1-6.2,2.8c-1.5,1.9-2,4.4-1.5,7.1l1.9,9.9
				c0,0.1,0,0.2-0.1,0.2c-0.1,0.1-0.1,0.1-0.2,0.1h-10.6c-2.4,0-4.5,1.1-5.9,3.1c-1.4,2-1.7,4.4-1,6.7L1032.1,250.1z"/>
		</g>
		<g>
			<ellipse class="st2" cx="1056" cy="225.5" rx="3.8" ry="3.9"/>
			<path class="st2" d="M1056,229.7c-2.2,0-4.1-1.9-4.1-4.2c0-2.3,1.8-4.2,4.1-4.2s4.1,1.9,4.1,4.2
				C1060.1,227.8,1058.3,229.7,1056,229.7z M1056,221.9c-1.9,0-3.5,1.6-3.5,3.6s1.6,3.6,3.5,3.6s3.5-1.6,3.5-3.6
				S1058,221.9,1056,221.9z"/>
		</g>
	</g>
	<g>
		<g>
			<path class="st2" d="M1518,322.5c-0.1,0-0.2,0-0.2-0.1c-0.1-0.1-0.2-0.2-0.2-0.4l1.3-22.9c0-0.2,0.1-0.3,0.2-0.4
				c0.1-0.1,0.3-0.1,0.4,0l18.6,12.6c0.1,0.1,0.2,0.2,0.2,0.4c0,0.2-0.1,0.3-0.2,0.4l-19.9,10.3
				C1518.1,322.5,1518.1,322.5,1518,322.5z M1519.7,299.9l-1.2,21.4l18.6-9.6L1519.7,299.9z"/>
		</g>
		<g>
			<polygon class="st4" points="1468.1,292.9 1454.3,295.4 1440.5,297.8 1445.3,284.3 1450.1,270.7 1459.1,281.8 			"/>
			<path class="st2" d="M1440.5,298.1c-0.1,0-0.2,0-0.2-0.1c-0.1-0.1-0.1-0.2,0-0.3l9.7-27.1c0-0.1,0.1-0.2,0.2-0.2
				c0.1,0,0.2,0,0.3,0.1l17.9,22.2c0.1,0.1,0.1,0.2,0,0.3c0,0.1-0.1,0.2-0.2,0.2L1440.5,298.1
				C1440.5,298.1,1440.5,298.1,1440.5,298.1z M1450.2,271.3l-9.4,26.2l26.7-4.7L1450.2,271.3z"/>
		</g>
	</g>
	<g>
		<path class="st1" d="M1450.2,512.1c0-10.6-133.3-19.1-297.6-19.1s-297.6,8.6-297.6,19.1c0,6.1,45,11.6,114.8,15.1
			c-1.7,1.3-2.6,2.7-2.6,4c0,14.1,92.2,25.5,205.8,25.5c113.7,0,205.8-11.4,205.8-25.5c0-2.2-2.2-4.3-6.3-6.3
			C1420.8,521.5,1450.2,517,1450.2,512.1z"/>
		<path class="st2" d="M1173,557c-55,0-106.7-2.7-145.6-7.5c-39.1-4.8-60.6-11.3-60.6-18.3c0-1.3,0.7-2.5,2.1-3.8
			c-34.6-1.7-63.3-4-82.9-6.5c-20.9-2.7-31.5-5.7-31.5-8.8c0-6.8,47.6-11.3,87.5-13.8c56.2-3.6,131-5.6,210.5-5.6s154.3,2,210.5,5.6
			c39.9,2.6,87.5,7.1,87.5,13.8c0,6.3-41.6,10.6-76.9,13.1c3.7,2,5.6,4,5.6,6c0,7-21.5,13.5-60.6,18.3
			C1279.7,554.3,1228,557,1173,557z M1152.6,493.2c-79.5,0-154.2,2-210.4,5.6c-27.3,1.8-48.8,3.8-63.7,6.1
			c-19.1,2.9-23.1,5.5-23.1,7.2c0,2,5.4,5,30.9,8.3c19.7,2.5,48.6,4.8,83.6,6.6c0.2,0,0.3,0.1,0.3,0.2c0.1,0.1,0,0.2-0.1,0.3
			c-1.6,1.3-2.5,2.6-2.5,3.8c0,6.6,21.9,13,60,17.7c38.9,4.8,90.5,7.5,145.5,7.5s106.6-2.6,145.5-7.5c38.1-4.7,60-11.2,60-17.7
			c0-2-2-4-6.1-6c-0.1-0.1-0.2-0.2-0.2-0.3c0-0.1,0.2-0.2,0.3-0.2c49.1-3.5,77.2-8.1,77.2-12.6c0-1.7-4-4.3-23.1-7.2
			c-15-2.3-36.4-4.3-63.7-6.1C1306.8,495.2,1232,493.2,1152.6,493.2z"/>
	</g>
	<g>
		<g>
			<path class="st1" d="M1166.8,501.6c0-0.7,0.1-1.3,0.1-1.7c0.3-3.3,2.1-7,2.1-7l-9.6-1.7c0,0-3.4,3.5-7.8,6.6
				C1156.1,501.2,1161.6,502.7,1166.8,501.6z"/>
			<path class="st2" d="M1163.5,502.2c-4.2,0-8.5-1.5-12-4.2c-0.1-0.1-0.1-0.1-0.1-0.2c0-0.1,0-0.2,0.1-0.2c4.3-3,7.7-6.5,7.7-6.5
				c0.1-0.1,0.2-0.1,0.2-0.1l9.6,1.7c0.1,0,0.2,0.1,0.2,0.2c0,0.1,0,0.2,0,0.3c0,0-1.8,3.7-2.1,6.9c0,0.4-0.1,1-0.1,1.7
				c0,0.1-0.1,0.2-0.2,0.3C1165.8,502.1,1164.6,502.2,1163.5,502.2z M1152.2,497.8c4.2,3.2,9.5,4.5,14.4,3.6c0-0.6,0.1-1.1,0.1-1.5
				c0.2-2.8,1.5-5.8,2-6.8l-9.1-1.6C1159,492.1,1156,495.1,1152.2,497.8z M1166.8,501.6L1166.8,501.6L1166.8,501.6z"/>
		</g>
		<g>
			<path class="st2" d="M1151.7,497.8c-3,2.1-6.5,4.1-9.8,4.6c-8.1,1.6-12.1,8.9-12.1,8.9s-0.6,2.6,0,3.2
				c22.5,0.2,36.4-1.8,36.4-1.8s0.4-7.3,0.6-11C1161.6,502.7,1156.1,501.2,1151.7,497.8z"/>
			<path class="st2" d="M1132.9,514.7c-1,0-2.1,0-3.1,0c-0.1,0-0.1,0-0.2-0.1c-0.7-0.7-0.2-3-0.1-3.4c0,0,0-0.1,0-0.1
				c0-0.1,4.2-7.5,12.3-9.1c2.7-0.4,6-1.9,9.7-4.5c0.1-0.1,0.2-0.1,0.3,0c4.3,3.4,9.9,4.8,14.9,3.8c0.1,0,0.2,0,0.2,0.1
				c0.1,0.1,0.1,0.1,0.1,0.2c-0.2,3.7-0.6,10.9-0.6,11c0,0.1-0.1,0.2-0.2,0.3C1166.1,512.9,1153.4,514.7,1132.9,514.7z
				 M1129.9,514.1c20.6,0.2,34.1-1.5,36-1.8c0.1-1.2,0.4-7,0.6-10.4c-5.1,0.9-10.6-0.5-14.8-3.9c-3.7,2.6-6.9,4.1-9.7,4.5
				c-7.6,1.5-11.6,8.2-11.9,8.8C1129.9,512.3,1129.7,513.7,1129.9,514.1z"/>
		</g>
		<g>
			<path class="st1" d="M1229.5,441.4c0,0-31.1-33-44.6-25.6s-28.3,76.8-28.3,76.8s9.2,5.1,13,3.9c16.2-20.5,22.5-36.1,26.3-43.5
				c7.2,13.4,27.8,32.5,51.8,14.9c24-17.6,16.5-28,16.5-28L1229.5,441.4z"/>
			<path class="st2" d="M1168.3,496.9c-4.3,0-11.4-3.9-11.8-4.1c-0.1-0.1-0.2-0.2-0.1-0.3c0-0.2,3.8-17.6,9.1-35.6
				c7.2-24.3,13.7-38.2,19.3-41.4c5.7-3.1,15,0.2,27.6,10c9.4,7.3,17.2,15.5,17.3,15.6c0.1,0.1,0.1,0.3,0,0.4
				c-0.1,0.1-0.3,0.1-0.4,0c-0.3-0.3-31.1-32.8-44.2-25.5c-12.8,7.1-27.2,72.2-28.1,76.4c1.3,0.7,9.2,4.7,12.5,3.8
				c13.8-17.5,20.4-31.3,24.4-39.6c0.7-1.4,1.3-2.7,1.8-3.8c0-0.1,0.1-0.2,0.2-0.2c0.1,0,0.2,0.1,0.2,0.1c4.3,8,13.6,18.3,25.6,21.1
				c8.6,2,17.3-0.1,25.7-6.3c13-9.5,16.6-16.9,17.3-21.4c0.6-3.9-0.9-6.1-0.9-6.1c-0.1-0.1-0.1-0.3,0.1-0.4c0.1-0.1,0.3-0.1,0.4,0.1
				c0.1,0.1,1.7,2.4,1,6.5c-0.7,4.6-4.3,12.2-17.5,21.8c-8.6,6.3-17.4,8.4-26.2,6.4c-12-2.8-21.3-12.9-25.7-20.9c-0.5,1-1,2-1.6,3.3
				c-4,8.3-10.7,22.2-24.5,39.8c0,0-0.1,0.1-0.1,0.1C1169.3,496.9,1168.8,496.9,1168.3,496.9z"/>
		</g>
	</g>
	<g>
		<g>
			<path class="st1" d="M1279.3,512.1c-0.2-1.1-0.8-1.9-1.6-2.5c-2.6,0.9-4.9,0.4-4.9,0.4s-5,6.8-0.7,9.5c1.8-0.4,4.4,0.5,7.5,1.9
				C1280.6,518.8,1279.7,515.1,1279.3,512.1z"/>
			<path class="st2" d="M1279.5,521.7c0,0-0.1,0-0.1,0c-3.5-1.6-5.8-2.2-7.3-1.8c-0.1,0-0.1,0-0.2,0c-1-0.6-1.6-1.5-1.8-2.6
				c-0.6-3.2,2.3-7.2,2.4-7.3c0.1-0.1,0.2-0.1,0.3-0.1c0,0,2.3,0.4,4.8-0.4c0.1,0,0.2,0,0.2,0c1,0.8,1.6,1.6,1.7,2.7l0,0
				c0.1,0.5,0.2,1.1,0.3,1.6c0.4,2.6,0.9,5.6,0,7.8c0,0.1-0.1,0.1-0.2,0.2C1279.6,521.7,1279.6,521.7,1279.5,521.7z M1272.9,519.2
				c1.5,0,3.6,0.6,6.4,1.9c0.7-2.1,0.3-4.8-0.1-7.2c-0.1-0.6-0.2-1.1-0.3-1.7c-0.1-0.9-0.6-1.6-1.4-2.2c-2.2,0.7-4.2,0.5-4.7,0.4
				c-0.5,0.7-2.7,4.1-2.2,6.7c0.2,0.9,0.7,1.6,1.5,2.2C1272.4,519.2,1272.6,519.2,1272.9,519.2z"/>
		</g>
		<g>
			<path class="st2" d="M1315.2,526.7c-0.5-1-4.9-2.1-10.1-5.8c-7.6-5.4-17.3-13.7-22.6-15.5c-1.3,2.3-3.1,3.5-4.8,4.1
				c0.8,0.6,1.5,1.4,1.6,2.5c0.4,2.9,1.4,6.7,0.3,9.3c6,2.7,13.5,7.4,19,8.9C1306.8,532.7,1316.3,529.1,1315.2,526.7z"/>
			<path class="st2" d="M1304.1,531.4c-1.9,0-3.8-0.2-5.7-0.7c-3.5-1-7.9-3.3-12.1-5.5c-2.4-1.3-4.8-2.5-6.9-3.5
				c-0.1-0.1-0.2-0.2-0.1-0.4c0.9-2.1,0.4-5,0-7.5c-0.1-0.6-0.2-1.1-0.3-1.7c-0.1-0.9-0.6-1.6-1.5-2.3c-0.1-0.1-0.1-0.2-0.1-0.3
				s0.1-0.2,0.2-0.2c2-0.7,3.6-2,4.6-4c0.1-0.1,0.2-0.2,0.3-0.1c3.8,1.2,9.8,5.8,15.6,10.2c2.4,1.8,4.9,3.7,7.1,5.3
				c2.9,2,5.5,3.3,7.4,4.2c1.6,0.7,2.5,1.2,2.8,1.7l0,0c0.2,0.3,0.2,0.9-0.3,1.6C1313.8,529.8,1309.2,531.4,1304.1,531.4z
				 M1279.9,521.3c2.1,1,4.3,2.1,6.7,3.4c4.2,2.2,8.5,4.5,12,5.4c7.2,2,14.6-0.4,16.1-2.3c0.4-0.5,0.3-0.8,0.2-0.9
				c-0.2-0.3-1.3-0.9-2.5-1.4c-1.9-0.9-4.6-2.2-7.5-4.2c-2.2-1.6-4.7-3.5-7.1-5.3c-5.7-4.3-11.5-8.8-15.3-10.1
				c-1,1.8-2.5,3.1-4.4,3.9c0.8,0.7,1.2,1.5,1.3,2.4c0.1,0.5,0.2,1.1,0.3,1.6C1280.2,516.3,1280.7,519.1,1279.9,521.3z"/>
		</g>
		<g>
			<path class="st1" d="M1231.8,453.2c0,0-64.7,31.2-62.9,60.4c1.7,29.2,108,7.3,108,7.3l-3.5-11c0,0-37.8-14.1-74.2-4.3
				c26.3-8.9,59-0.5,69.9-14.3c16.3-20.6-5.2-40.8-5.2-40.8L1231.8,453.2z"/>
			<path class="st2" d="M1207.6,529c-3.4,0-6.5-0.1-9.5-0.3c-11.8-0.8-20.2-3-24.9-6.8c-2.8-2.3-4.4-5.1-4.6-8.4
				c-0.4-6.7,2.7-14.1,9.2-21.9c5.2-6.2,12.5-12.8,21.8-19.4c15.8-11.3,32-19.2,32.2-19.3c0,0,0.1,0,0.1,0l32-2.7
				c0.1,0,0.2,0,0.2,0.1c0.1,0.1,5.5,5.2,8.8,12.8c3.1,7,5,17.7-3.6,28.4c-6.3,8-19.5,8.6-34.8,9.4c-7,0.3-14.5,0.7-21.9,1.9
				c14.2-1.7,27.6-0.5,37.3,1.1c13.9,2.3,23.4,5.8,23.5,5.9c0.1,0,0.1,0.1,0.2,0.2l3.5,11c0,0.1,0,0.2,0,0.2c0,0.1-0.1,0.1-0.2,0.1
				c-0.2,0-21.1,4.3-44.1,6.5C1223.5,528.6,1215,529,1207.6,529z M1231.9,453.5c-1,0.5-16.7,8.2-32,19.2
				c-9.2,6.6-16.5,13.1-21.7,19.3c-6.4,7.7-9.4,15-9,21.5c0.2,3.1,1.7,5.8,4.4,8c8.3,6.6,28.8,8.5,59.2,5.6
				c21.5-2.1,41.1-5.9,43.8-6.5l-3.3-10.6c-1.2-0.4-10.3-3.6-23.3-5.8c-12.7-2.1-31.9-3.5-50.6,1.5c-0.1,0-0.3,0-0.3-0.2
				c0-0.1,0-0.3,0.2-0.4c11.4-3.9,24.1-4.5,35.4-5c15.2-0.7,28.2-1.4,34.4-9.1c6.7-8.4,7.9-17.8,3.5-27.8c-3.1-7-7.9-11.8-8.6-12.5
				L1231.9,453.5z"/>
		</g>
		<g>
			<path class="st2" d="M1225.9,456.2l-1.7,0.9c0,0,1.4,11.2,18.9,10.2s28.8-4.9,28.8-4.9l-1.7-3.8L1225.9,456.2z"/>
			<path class="st2" d="M1241.1,467.7c-7.8,0-12-2.6-14.2-4.9c-2.6-2.7-3-5.5-3-5.6c0-0.1,0-0.2,0.1-0.3l1.7-0.9c0,0,0.1,0,0.1,0
				l44.4,2.5c0.1,0,0.2,0.1,0.2,0.2l1.7,3.8c0,0.1,0,0.2,0,0.2c0,0.1-0.1,0.1-0.2,0.2c-0.1,0-11.5,4-28.9,4.9
				C1242.5,467.7,1241.8,467.7,1241.1,467.7z M1224.5,457.3c0.1,0.7,0.7,3,2.8,5.1c2.3,2.4,6.9,5.1,15.8,4.6
				c15.7-0.8,26.6-4.2,28.4-4.8l-1.5-3.3l-44.1-2.5L1224.5,457.3z"/>
		</g>
		<g>
			<path class="st1" d="M1148.8,365.8c0.6,0,1.3-0.1,2-0.2c-1.6-5.2-2.7-9.6-3.6-11.4c-2.5-5.4-12-14.9-12-14.9s-1.1,2.6,0.7,4.4
				c1.7,1.8,4.2,7.7,4.2,7.7s-10.6,1.8-8.9,8.5c1.7,6.7,7.1,3.6,7.7,0.4c0,0,0.9,4.7,2.6,11.1
				C1143.1,368.6,1145.2,366.2,1148.8,365.8z"/>
			<path class="st2" d="M1141.5,371.8C1141.5,371.8,1141.5,371.8,1141.5,371.8c-0.1,0-0.2-0.1-0.3-0.2c-1.2-4.6-2-8.4-2.4-10.1
				c-0.7,1.5-2.3,2.7-3.9,2.8c-1.1,0-3.1-0.4-4-4.2c-0.4-1.6-0.2-3,0.6-4.3c1.9-3.1,6.8-4.3,8.1-4.5c-0.6-1.3-2.6-5.8-4-7.3
				c-1.8-1.9-0.8-4.6-0.7-4.7c0-0.1,0.1-0.1,0.2-0.2c0.1,0,0.2,0,0.2,0.1c0.4,0.4,9.6,9.6,12.1,15c0.6,1.2,1.3,3.6,2.2,6.6
				c0.4,1.4,0.9,3.1,1.4,4.8c0,0.1,0,0.2,0,0.2c0,0.1-0.1,0.1-0.2,0.1c-0.6,0.1-1.3,0.1-2,0.2c-2.9,0.3-5.1,2-7.1,5.5
				C1141.7,371.8,1141.6,371.8,1141.5,371.8z M1139,360.2c0.1,0,0.2,0.1,0.3,0.2c0,0,0.9,4.4,2.4,10.4c1.4-2.3,3.5-4.8,7.2-5.2
				c0,0,0,0,0,0c0.5,0,1.1-0.1,1.6-0.1c-0.5-1.6-0.9-3.1-1.3-4.4c-0.9-3-1.6-5.4-2.1-6.6c-2.2-4.7-10-12.8-11.6-14.5
				c-0.2,0.8-0.5,2.4,0.7,3.6c1.7,1.8,4.2,7.6,4.3,7.8c0,0.1,0,0.2,0,0.3c0,0.1-0.1,0.1-0.2,0.1c-0.1,0-6,1.1-8.1,4.4
				c-0.7,1.1-0.9,2.4-0.5,3.8c0.6,2.5,1.9,3.8,3.5,3.8c1.6-0.1,3.4-1.7,3.7-3.4C1138.7,360.3,1138.8,360.2,1139,360.2
				C1139,360.2,1139,360.2,1139,360.2z"/>
		</g>
		<g>
			<path class="st1" d="M1292.4,454.1c1.1,4.4,0.8,7.3,0.8,7.3s-0.4,2.6-2.3,3.2c-1.9,0.6-3,4.8-2.7,7.3c0.2,1.5,0.2,4.5,2.7,5.1
				c1.7,0.4,6-1.2,7.1-2.2c1.4-1.4,2-11.5,1.9-22c-0.8,0.6-1.7,1.1-2.6,1.4C1295.6,454.8,1294.2,455,1292.4,454.1z"/>
			<path class="st2" d="M1291.5,477.3c-0.2,0-0.4,0-0.6-0.1c-2.5-0.5-2.8-3.2-2.9-4.8c0-0.2,0-0.4-0.1-0.5c-0.3-2.6,0.8-7,2.9-7.6
				c1.7-0.5,2.1-2.9,2.1-2.9c0,0,0.2-2.9-0.8-7.2c0-0.1,0-0.2,0.1-0.3c0.1-0.1,0.2-0.1,0.3,0c1.7,0.9,3.1,0.6,4.7,0
				c0.9-0.4,1.7-0.8,2.5-1.4c0.1-0.1,0.2-0.1,0.3,0c0.1,0,0.1,0.1,0.1,0.3c0.1,9.2-0.4,20.6-2,22.2
				C1297.2,475.9,1293.5,477.3,1291.5,477.3z M1292.8,454.6c0.9,4.1,0.7,6.7,0.7,6.8c0,0.1-0.4,2.8-2.5,3.4c-1.8,0.5-2.8,4.6-2.5,7
				c0,0.2,0,0.3,0.1,0.5c0.1,1.5,0.4,3.9,2.5,4.3c1.6,0.3,5.8-1.1,6.8-2.2c1.2-1.2,1.9-10.1,1.9-21.3c-0.7,0.5-1.5,0.9-2.2,1.2
				C1295.8,455,1294.4,455.3,1292.8,454.6z"/>
		</g>
		<g>
			<path class="st4" d="M1294.7,425.4c-0.2-0.2-0.5-0.7-1-1.5c-0.1-0.1-0.1-0.2-0.2-0.3c-4.5-6.4-19.1-26.6-19.1-26.6
				s-17.1-22-28.7-20.6l-2.3,14.3c0,0,39.4,42.7,41,44.7c3.1,3.9,5.9,13.9,7.6,20.9c1.8,0.9,4.2,1,5.8,0.3c0.9-0.4,1.8-0.9,2.6-1.4
				c-0.1-9.1-0.7-18.6-1.9-22.8C1298,430.8,1296.7,428.3,1294.7,425.4z"/>
			<path class="st2" d="M1295.4,457.4c-1.2,0-2.5-0.3-3.5-0.8c-0.1,0-0.1-0.1-0.1-0.2c-1.8-7.4-4.5-17-7.5-20.8
				c-1.5-1.9-40.5-44.2-40.9-44.7c-0.1-0.1-0.1-0.2-0.1-0.2l2.3-14.3c0-0.1,0.1-0.2,0.2-0.2c11.6-1.4,28.2,19.8,28.9,20.7
				c0.2,0.2,14.7,20.3,19.1,26.6l0.2,0.3c0.5,0.7,0.9,1.2,1,1.5c2.1,3.1,3.4,5.5,3.8,7.1c1.3,4.7,1.9,14.9,2,22.9
				c0,0.1,0,0.2-0.1,0.2c-0.8,0.6-1.7,1.1-2.6,1.5C1297.2,457.3,1296.3,457.4,1295.4,457.4z M1292.3,456.2c1.7,0.8,3.9,0.9,5.5,0.3
				c0.8-0.3,1.6-0.8,2.4-1.3c-0.1-10.1-0.8-18.7-1.9-22.6c-0.4-1.6-1.7-3.9-3.7-6.9c0,0,0,0,0,0c-0.1-0.2-0.5-0.7-1-1.4l-0.2-0.3
				c-4.4-6.3-18.9-26.4-19.1-26.6c-0.2-0.2-17-21.6-28.2-20.5l-2.3,13.9c2.6,2.8,39.4,42.7,40.9,44.6
				C1287.7,439.2,1290.5,448.8,1292.3,456.2z"/>
		</g>
		<g>
			<path class="st1" d="M1216,340.7c0,0-7.4,23.7,4.4,29c2.2,0.2,3.8-0.9,4.8-1.4c4.2,3.3,2.7,11.7,2.7,11.9c1.5,4.7,18.2,1,16.9-3
				c0,0-1-5.1-2.6-11.2c-0.9-3.7-0.1-8.2-1.4-11.8c-0.9-2.4-3.8-4.1-4.8-5.8C1231.3,340,1220.3,335.1,1216,340.7z"/>
			<path class="st2" d="M1233.3,382.8c-2.7,0-5.1-0.7-5.6-2.4c0-0.1,0-0.2,0-0.6c0.6-5.5-0.3-9.2-2.5-11.1c-1,0.6-2.6,1.5-4.7,1.3
				c0,0-0.1,0-0.1,0c-5-2.2-7.3-8.1-6.8-16.8c0.4-6.5,2.2-12.5,2.2-12.6c0,0,0-0.1,0-0.1c1.4-1.8,3.5-2.7,6.2-2.5
				c5.2,0.4,11.2,4.7,14.4,10.3c0.4,0.7,1.1,1.4,1.9,2.1c1.1,1.1,2.4,2.3,2.9,3.8c0.7,2,0.8,4.3,0.9,6.5c0.1,1.8,0.1,3.7,0.5,5.3
				c1.5,5.9,2.5,10.9,2.6,11.2c0.5,1.6-1.4,3.2-5,4.4C1238.1,382.3,1235.5,382.8,1233.3,382.8z M1228.2,380.2
				c0.8,2.5,6.9,2.5,11.8,0.9c3.2-1,5-2.5,4.6-3.7c0,0,0,0,0,0c0-0.1-1-5.2-2.6-11.2c-0.4-1.7-0.5-3.6-0.6-5.5
				c-0.1-2.2-0.1-4.4-0.8-6.3c-0.5-1.4-1.7-2.5-2.8-3.6c-0.8-0.8-1.5-1.5-2-2.2c-3.1-5.4-9-9.6-14-10c-2.4-0.2-4.4,0.6-5.7,2.2
				c-0.4,1.2-6.9,23.5,4.3,28.6c2,0.1,3.4-0.7,4.4-1.3l0.2-0.1c0.1-0.1,0.2,0,0.3,0c2.5,2,3.5,6,2.9,11.7
				C1228.2,380,1228.2,380.2,1228.2,380.2z"/>
		</g>
		<g>
			<path class="st4" d="M1265,406.5c3.4,20.5,7.2,49.8,7,52.2c-0.4,4.2-15,7.7-33.1,6.7s-12.9-15.7-22.5-33.7
				c-3.8-7.1-3.1-19.1-8-19.7c-5-0.6-14.9-0.9-14.9-0.9s-19.4,0.8-32.7-3c-9-2.5-15.7-23.3-19.2-36.5c1.6-2.9,3.7-5.3,7.3-5.7
				c0.6,0,1.3-0.1,2-0.2c3.2,10.4,8.2,24.1,16.5,26.5c8.2,2.4,22.7-1.7,31.6-4.7l7.6-2.8l16.1-5.9c0,0,8.6-5.6,20.4-3l7.2,1.2
				L1265,406.5z"/>
			<path class="st2" d="M1244.9,465.8c-2,0-4-0.1-6-0.2c-12.1-0.7-14-7.6-16.6-17.1c-1.4-5-2.9-10.7-6.1-16.8
				c-1.6-2.9-2.4-6.7-3.1-10.1c-1.1-4.9-2-9.2-4.7-9.5c-4.9-0.6-14.8-0.9-14.9-0.9c-0.2,0-19.6,0.8-32.8-3
				c-9.2-2.6-16.1-24.1-19.4-36.7c0-0.1,0-0.2,0-0.2c1.4-2.5,3.5-5.4,7.5-5.8c0.7,0,1.4-0.1,2-0.2c0.1,0,0.3,0.1,0.3,0.2
				c3.1,10.2,8.2,24,16.3,26.3c8.2,2.4,23.2-1.9,31.4-4.7l23.6-8.7c0.6-0.3,9.1-5.6,20.6-3l7.2,1.2c0.2,0,0.3,0.2,0.2,0.3
				c0,0.2-0.2,0.3-0.3,0.2l-7.2-1.2c-11.6-2.6-20.1,2.9-20.2,2.9c0,0,0,0-0.1,0l-23.6,8.7c-8.3,2.8-23.4,7.2-31.8,4.8
				c-8.3-2.4-13.4-16.2-16.6-26.5c-0.5,0.1-1.2,0.1-1.7,0.2c-2.9,0.3-5.1,2-7,5.4c3.3,12.5,10.1,33.7,19,36.2
				c13.1,3.7,32.4,3,32.6,3c0.1,0,10.1,0.3,15,0.9c3.1,0.4,4,4.8,5.1,9.9c0.8,3.5,1.5,7.1,3,9.9c3.3,6.2,4.8,11.9,6.2,16.9
				c2.6,9.7,4.4,16,16.1,16.7c8.5,0.5,16.7,0,23.1-1.4c5.9-1.3,9.5-3.1,9.7-5c0.2-2.4-3.7-31.9-7-52.1c0-0.2,0.1-0.3,0.2-0.3
				c0.2,0,0.3,0.1,0.3,0.2c3.4,20.2,7.2,49.8,7,52.3C1271.9,462.8,1259.7,465.8,1244.9,465.8z"/>
		</g>
		<g>
			<path class="st2" d="M1224.7,347.7c0,0,1.9,6,3.2,7c1.9-2.6,4.6-4.6,5.8-3.2c1.2,1.4,1.5,7.7,1.5,7.7s5.1,4.8,9.8,2.2
				c4.4-8.7,4.2-25.3-9.6-29.5c-4-1.2-9.3-3.4-15.7-2.2c-3.9,0.7-11,4.9-12,6.8c-2.9,5.7,5.1,11.9,5.1,11.9
				S1217.6,354.2,1224.7,347.7z"/>
			<path class="st2" d="M1242,362.6c-3.6,0-6.8-2.9-7-3.1c-0.1-0.1-0.1-0.1-0.1-0.2c-0.1-1.7-0.6-6.5-1.5-7.6
				c-0.2-0.2-0.5-0.4-0.8-0.4c-1.2,0-3,1.4-4.5,3.5c-0.1,0.1-0.3,0.1-0.4,0.1c-1.2-0.9-2.7-5.3-3.2-6.8c-2.3,2.1-4.7,3-7,2.9
				c-3-0.2-4.8-2.1-5-2.4c-0.5-0.4-8-6.6-5.1-12.3c1-2,8.1-6.2,12.2-7c5.6-1,10.4,0.5,14.2,1.7c0.6,0.2,1.1,0.4,1.7,0.5
				c5,1.5,8.8,4.9,10.7,9.7c2.9,7,1.6,15.2-1,20.2c0,0.1-0.1,0.1-0.1,0.1C1244,362.4,1243,362.6,1242,362.6z M1235.5,359.2
				c0.7,0.6,5.2,4.3,9.3,2.1c2.4-4.8,3.7-12.9,0.9-19.7c-1.9-4.6-5.5-7.9-10.4-9.4c-0.5-0.2-1.1-0.3-1.7-0.5
				c-3.7-1.2-8.4-2.7-13.9-1.7c-3.9,0.7-10.9,4.9-11.8,6.7c-2.8,5.4,4.9,11.5,5,11.6c0,0,0,0,0,0c0.2,0.2,4.8,5.4,11.6-0.8
				c0.1-0.1,0.2-0.1,0.3-0.1c0.1,0,0.2,0.1,0.2,0.2c0.5,1.6,1.9,5.6,2.9,6.7c1.3-1.6,3.2-3.5,4.8-3.5c0.5,0,0.9,0.2,1.3,0.6
				C1235,352.8,1235.4,358.3,1235.5,359.2z"/>
		</g>
	</g>
	<g>
		<path class="st1" d="M1256,487.6c0,0,24.5,24.9,33,22.1c1.2-1-3.5-2.8-8.9-6.8C1270.7,495.9,1257,485.8,1256,487.6z"/>
		<path class="st2" d="M1287.6,510.2c-9.6,0-30.8-21.4-31.8-22.4c-0.1-0.1-0.1-0.2,0-0.3c0.1-0.1,0.2-0.3,0.5-0.3
			c2.1-0.5,12.1,6.7,24,15.5l0.1,0.1c2,1.5,4,2.7,5.5,3.6c2.5,1.5,3.6,2.2,3.6,3c0,0.2,0,0.4-0.3,0.6c0,0-0.1,0-0.1,0.1
			C1288.7,510.1,1288.1,510.2,1287.6,510.2z M1256.5,487.7c2.7,2.7,24.6,24.2,32.4,21.8c0,0,0-0.1,0-0.1c0-0.5-1.7-1.5-3.4-2.5
			c-1.6-1-3.5-2.2-5.6-3.7l-0.1-0.1C1271.6,496.9,1259,487.7,1256.5,487.7C1256.5,487.7,1256.5,487.7,1256.5,487.7z"/>
	</g>
	<g>
		<polygon class="st4" points="1098.9,295.5 1010.6,295.5 1008.9,287.6 1097.2,287.6 		"/>
		<path class="st2" d="M1098.9,295.8h-88.3c-0.1,0-0.2-0.1-0.3-0.2l-1.7-7.9c0-0.1,0-0.2,0.1-0.2c0.1-0.1,0.1-0.1,0.2-0.1h88.3
			c0.1,0,0.2,0.1,0.3,0.2l1.7,7.9c0,0.1,0,0.2-0.1,0.2C1099.1,295.8,1099,295.8,1098.9,295.8z M1010.8,295.2h87.8l-1.6-7.3h-87.8
			L1010.8,295.2z"/>
	</g>
	<g>
		<polygon class="st4" points="1104.1,321.7 1015.8,321.7 1014,313.8 1102.4,313.8 		"/>
		<path class="st2" d="M1104.1,322h-88.3c-0.1,0-0.2-0.1-0.3-0.2l-1.7-7.9c0-0.1,0-0.2,0.1-0.2c0.1-0.1,0.1-0.1,0.2-0.1h88.3
			c0.1,0,0.2,0.1,0.3,0.2l1.7,7.9c0,0.1,0,0.2-0.1,0.2C1104.3,322,1104.2,322,1104.1,322z M1016,321.5h87.8l-1.6-7.3h-87.8
			L1016,321.5z"/>
	</g>
	<g>
		<polygon class="st4" points="1108.6,284.5 1122.6,294.3 1133.7,273.5 1129,272.1 1121.2,288.3 1111.2,280.2 		"/>
		<path class="st2" d="M1122.6,294.6c-0.1,0-0.1,0-0.2,0l-14-9.8c-0.1-0.1-0.2-0.3-0.1-0.4l2.5-4.3c0-0.1,0.1-0.1,0.2-0.1
			c0.1,0,0.2,0,0.2,0.1l9.7,7.8l7.7-15.9c0.1-0.1,0.2-0.2,0.3-0.1l4.6,1.4c0.1,0,0.1,0.1,0.2,0.2c0,0.1,0,0.2,0,0.2l-11.1,20.9
			C1122.8,294.5,1122.7,294.6,1122.6,294.6C1122.6,294.6,1122.6,294.6,1122.6,294.6z M1109,284.5l13.5,9.5l10.7-20.3l-4.1-1.2
			l-7.8,16c0,0.1-0.1,0.1-0.2,0.2c-0.1,0-0.2,0-0.2-0.1l-9.7-7.8L1109,284.5z"/>
	</g>
	<g>
		<polygon class="st1" points="1113.4,313.7 1127.4,323.5 1138.4,302.6 1133.8,301.3 1125.9,317.4 1115.9,309.4 		"/>
		<path class="st2" d="M1127.4,323.8c-0.1,0-0.1,0-0.2,0l-14-9.8c-0.1-0.1-0.2-0.3-0.1-0.4l2.5-4.3c0-0.1,0.1-0.1,0.2-0.1
			c0.1,0,0.2,0,0.2,0.1l9.7,7.8l7.7-15.9c0.1-0.1,0.2-0.2,0.3-0.1l4.6,1.4c0.1,0,0.1,0.1,0.2,0.2c0,0.1,0,0.2,0,0.2l-11.1,20.9
			C1127.6,323.7,1127.5,323.8,1127.4,323.8C1127.4,323.8,1127.4,323.8,1127.4,323.8z M1113.8,313.6l13.5,9.5l10.7-20.3l-4.1-1.2
			l-7.8,16c0,0.1-0.1,0.1-0.2,0.2c-0.1,0-0.2,0-0.2-0.1l-9.7-7.8L1113.8,313.6z"/>
	</g>
	<g>
		<g>
			<g>
				<path class="st3" d="M1401.8,495c0,0-31.7-38.2-6.3-65.7c25.5-27.5,54.6-23.4,71.6-2.2c17,21.2,13.2,55.8-0.3,68.9
					C1453.4,509.3,1406.9,489.9,1401.8,495z"/>
				<path class="st2" d="M1450.8,501.1c-9,0-19.7-2.2-29.1-4.1c-9.5-1.9-17.8-3.6-19.6-1.8c-0.1,0.1-0.1,0.1-0.2,0.1
					c-0.1,0-0.1,0-0.2-0.1c-0.1-0.1-8-9.7-12.7-22.6c-2.8-7.6-3.9-14.8-3.4-21.4c0.7-8.3,4-15.7,9.8-22c12.3-13.2,26.1-20,40-19.4
					c12.1,0.5,23.5,6.6,32,17.3c7.9,9.9,11.9,23.2,11.3,37.7c-0.5,13.2-4.9,25-11.6,31.6C1463.4,499.8,1457.6,501.1,1450.8,501.1z
					 M1405.4,493.9c3.7,0,9.6,1.2,16.4,2.6c15.5,3.2,36.8,7.5,44.9-0.6c6.7-6.5,10.9-18.2,11.4-31.2c0.6-14.3-3.4-27.6-11.2-37.3
					c-8.4-10.5-19.6-16.6-31.6-17c-13.7-0.5-27.4,6.1-39.6,19.2c-13.1,14.1-10.7,31.1-6.4,42.8c4.3,11.7,11.3,20.8,12.5,22.3
					C1402.6,494.1,1403.8,493.9,1405.4,493.9z"/>
			</g>
			<g>
				<path class="st2" d="M1395.2,512.3c0,0-0.1,0-0.1,0c-0.2-0.1-0.4-0.3-0.3-0.5c6-23.8,20.8-43.7,32.2-56.1
					c12.3-13.5,23.3-21.4,23.4-21.5c0.2-0.1,0.4-0.1,0.6,0.1c0.1,0.2,0.1,0.5-0.1,0.6c-0.1,0.1-11.1,8-23.3,21.4
					c-11.3,12.4-26,32.1-32,55.7C1395.5,512.2,1395.3,512.3,1395.2,512.3z"/>
			</g>
			<g>
				<path class="st2" d="M1464.3,449.5c-0.1,0-0.1,0-0.2-0.1c-0.1-0.1-11-8.4-20.8-8.8c-0.1,0-0.2,0-0.2-0.1c0-0.1-0.1-0.2,0-0.2
					c2.3-9.3-5.7-17.9-5.8-18c-0.1-0.1-0.1-0.3,0-0.4c0.1-0.1,0.3-0.1,0.4,0c0.1,0.1,8.1,8.7,6,18.2c9.8,0.6,20.7,8.8,20.8,8.9
					c0.1,0.1,0.1,0.3,0.1,0.4C1464.4,449.4,1464.4,449.5,1464.3,449.5z"/>
			</g>
			<g>
				<path class="st2" d="M1466.2,465.4c-0.1,0-0.2,0-0.2-0.1c-8.6-13.4-24.8-17.7-30.3-18.2c-0.1,0-0.3-0.1-0.3-0.3
					c-0.1-7.3-13.3-20-13.4-20.1c-0.1-0.1-0.1-0.3,0-0.4c0.1-0.1,0.3-0.1,0.4,0c0.5,0.5,13.2,12.8,13.6,20.3
					c5.8,0.6,21.9,5,30.5,18.4c0.1,0.1,0,0.3-0.1,0.4C1466.3,465.4,1466.3,465.4,1466.2,465.4z"/>
			</g>
			<g>
				<path class="st2" d="M1463.9,483.6c-0.1,0-0.2-0.1-0.3-0.2c-4.5-11-12.7-18.2-18.8-22.2c-7.2-4.8-14.1-7-17-6.6
					c-0.1,0-0.2,0-0.2-0.1c-0.1,0-0.1-0.1-0.1-0.2c-1-11.7-20.7-30.5-20.9-30.7c-0.1-0.1-0.1-0.3,0-0.4c0.1-0.1,0.3-0.1,0.4,0
					c0.8,0.8,19.7,18.9,21,30.8c3.2-0.3,9.9,1.9,17.1,6.7c6.1,4.1,14.4,11.3,19,22.5c0.1,0.1,0,0.3-0.1,0.4
					C1464,483.6,1463.9,483.6,1463.9,483.6z"/>
			</g>
			<g>
				<path class="st2" d="M1452.9,486c-0.1,0-0.2-0.1-0.3-0.2c-4.9-12.9-23.9-23.8-30.8-23.4c-0.1,0-0.3-0.1-0.3-0.2
					c-1.7-13.2-15.8-23.4-15.9-23.5c-0.1-0.1-0.2-0.3-0.1-0.4c0.1-0.1,0.3-0.2,0.4-0.1c0.1,0.1,14.2,10.3,16.1,23.6
					c3.8-0.1,10.3,2.7,16.4,6.9c7.2,5,12.5,11.1,14.7,16.8c0.1,0.1,0,0.3-0.2,0.4C1453,486,1452.9,486,1452.9,486z"/>
			</g>
			<g>
				<path class="st2" d="M1441.1,488.2c-0.1,0-0.2,0-0.2-0.1c-6.8-11.1-18.2-18.7-25.8-17.2c-0.1,0-0.2,0-0.2-0.1
					c-0.1-0.1-0.1-0.1-0.1-0.2c-0.1-11-16.5-21.9-16.7-22c-0.1-0.1-0.2-0.3-0.1-0.4c0.1-0.1,0.3-0.2,0.4-0.1
					c0.7,0.4,16.5,10.9,16.9,22.1c7.8-1.2,19.2,6.5,26.1,17.6c0.1,0.1,0,0.3-0.1,0.4C1441.2,488.2,1441.2,488.2,1441.1,488.2z"/>
			</g>
			<g>
				<path class="st2" d="M1431.8,491.9c-0.1,0-0.2-0.1-0.3-0.2c-1.4-4.4-6.7-7.5-9.7-8.9c-4.4-2.1-9.4-3.3-12.4-3.1
					c-0.1,0-0.3-0.1-0.3-0.2c-3.9-15.5-16-23.8-16.1-23.9c-0.1-0.1-0.2-0.3-0.1-0.4c0.1-0.1,0.3-0.2,0.4-0.1
					c0.1,0.1,12.2,8.5,16.2,24c6.4-0.3,20.2,5.1,22.5,12.5C1432.1,491.7,1432.1,491.8,1431.8,491.9
					C1431.9,491.9,1431.9,491.9,1431.8,491.9z"/>
			</g>
		</g>
		<g>
			<g>
				<path class="st2" d="M1397.3,493.9c0,0,14.8-25.2,4.5-35.2s-28.3-21.1-42-4.9c-13.7,16.2-12.9,36.6,5.6,45.7
					C1384,508.5,1386.6,492.1,1397.3,493.9z"/>
				<path class="st2" d="M1375.6,502.5c-2.8,0-6.2-0.8-10.3-2.8c-8-3.9-13.1-10.1-14.7-17.9c-1.8-9,1.4-19.3,9-28.2
					c4.4-5.2,9.5-8,15.3-8.3c11.1-0.6,21.7,8,27,13.2c4.3,4.2,4.9,11.7,1.7,21.7c-2.4,7.5-6.1,13.8-6.1,13.9
					c-0.1,0.1-0.2,0.2-0.3,0.1c-4.1-0.7-7.1,1.4-10.2,3.7C1384,500.1,1380.6,502.5,1375.6,502.5z M1376,445.8c-0.4,0-0.7,0-1.1,0
					c-5.6,0.3-10.7,3-14.9,8.1c-7.4,8.8-10.6,18.9-8.8,27.7c1.5,7.6,6.5,13.6,14.4,17.5c11.1,5.4,16.2,1.7,21.2-1.8
					c3.2-2.3,6.2-4.4,10.4-3.8c1.2-2.2,14.1-25.4,4.4-34.7C1396.5,453.9,1386.5,445.8,1376,445.8z"/>
			</g>
			<g>
				<path class="st1" d="M1400.4,511.6c-0.2,0-0.4-0.1-0.4-0.3c0-0.2,0-0.3,0.1-0.4c0.1-0.3,0.6-2.6-3.2-16.9
					c-3-11.2-12.4-19.2-19.8-24c-8-5.2-15.4-7.8-15.5-7.8c-0.2-0.1-0.3-0.3-0.3-0.5c0.1-0.2,0.3-0.3,0.5-0.3c0.1,0,7.6,2.7,15.7,7.9
					c7.5,4.9,17.1,13.1,20.1,24.5c2.7,10.1,3.8,16.4,3.1,17.6C1400.7,511.6,1400.5,511.6,1400.4,511.6
					C1400.4,511.6,1400.4,511.6,1400.4,511.6z M1400.3,510.8L1400.3,510.8L1400.3,510.8z M1400.3,510.8L1400.3,510.8L1400.3,510.8z
					 M1400.3,510.8C1400.3,510.8,1400.3,510.8,1400.3,510.8C1400.3,510.8,1400.3,510.8,1400.3,510.8z M1400.3,510.8
					C1400.3,510.8,1400.3,510.8,1400.3,510.8C1400.3,510.8,1400.3,510.8,1400.3,510.8z M1400.3,510.8
					C1400.3,510.8,1400.3,510.8,1400.3,510.8C1400.3,510.8,1400.3,510.8,1400.3,510.8z"/>
			</g>
			<g>
				<path class="st1" d="M1380.5,496.3C1380.5,496.3,1380.5,496.3,1380.5,496.3c-0.2-0.1-0.3-0.2-0.3-0.4c1-3.3,4.9-9.8,9.3-10.9
					c1.8-0.5,3.5,0,5,1.3c-0.1-6.7,6.1-16.5,6.4-16.9c0.1-0.1,0.3-0.2,0.4-0.1c0.1,0.1,0.2,0.3,0.1,0.4c-0.1,0.1-6.9,10.7-6.2,17.2
					c0,0.1-0.1,0.2-0.2,0.3c-0.1,0.1-0.2,0-0.3-0.1c-1.5-1.5-3.2-2.1-5-1.6c-4.1,1.1-8,7.4-8.9,10.5
					C1380.8,496.2,1380.6,496.3,1380.5,496.3z"/>
			</g>
			<g>
				<path class="st1" d="M1373.6,498.1C1373.6,498.1,1373.6,498.1,1373.6,498.1c-0.2,0-0.3-0.2-0.3-0.3c0.7-7.1,4.3-13.3,9.4-16.4
					c2.7-1.6,5.5-2.1,7.7-1.3c-1.3-12.1,5.8-20.6,5.8-20.7c0.1-0.1,0.3-0.1,0.4,0c0.1,0.1,0.1,0.3,0,0.4c-0.1,0.1-7.2,8.7-5.7,20.7
					c0,0.1,0,0.2-0.1,0.3c-0.1,0.1-0.2,0.1-0.3,0c-2.1-0.9-4.9-0.5-7.7,1.1c-5,3-8.4,9-9.2,15.9
					C1373.9,497.9,1373.8,498.1,1373.6,498.1z"/>
			</g>
			<g>
				<path class="st1" d="M1367,491.4c-0.1,0-0.3-0.1-0.3-0.3c-0.2-3.6,1.2-7.1,4.1-10.2c4.1-4.3,9.9-6.6,12.8-6.7
					c-3.7-9.3,2.7-19.8,2.8-19.9c0.1-0.1,0.3-0.2,0.4-0.1c0.1,0.1,0.2,0.3,0.1,0.4c-0.1,0.1-6.6,10.6-2.6,19.7c0,0.1,0,0.2,0,0.3
					c-0.1,0.1-0.1,0.1-0.2,0.1c-2.6-0.1-8.7,2.3-12.8,6.6c-2.8,3-4.2,6.3-4,9.8C1367.3,491.3,1367.2,491.4,1367,491.4
					C1367,491.4,1367,491.4,1367,491.4z"/>
			</g>
			<g>
				<path class="st1" d="M1357.6,489.9C1357.6,489.9,1357.6,489.9,1357.6,489.9c-0.2,0-0.3-0.2-0.3-0.3
					c1.1-14.7,11.5-18.3,17.7-20.4c0.4-0.1,0.7-0.3,1.1-0.4c-2.3-5.1-0.2-16.5-0.1-17c0-0.2,0.2-0.3,0.3-0.2c0.1,0,0.2,0.2,0.2,0.3
					c0,0.1-2.3,12.2,0.2,16.9c0,0.1,0,0.2,0,0.2c0,0.1-0.1,0.1-0.2,0.2c-0.4,0.2-0.9,0.3-1.4,0.5c-6.1,2.1-16.2,5.6-17.3,19.9
					C1357.9,489.8,1357.8,489.9,1357.6,489.9z"/>
			</g>
			<g>
				<path class="st1" d="M1356.7,473.9C1356.7,473.9,1356.7,473.9,1356.7,473.9c-0.2,0-0.3-0.2-0.3-0.3c0.9-4,7-8,13-8.7
					c-1.1-3,0-7.8,0.1-8c0-0.2,0.2-0.2,0.3-0.2c0.1,0,0.2,0.2,0.2,0.3c0,0.1-1.3,5.3,0,8c0,0.1,0,0.2,0,0.3c0,0.1-0.1,0.1-0.2,0.1
					c-5.9,0.5-12.1,4.4-12.9,8.3C1356.9,473.8,1356.8,473.9,1356.7,473.9z"/>
			</g>
		</g>
		<g>
			<g>
				<path class="st1" d="M1431,504.2c0,0-8.8-15.8-5.5-23.4c3.4-7.5,29-27.1,44.8-8.6c15.8,18.5,0.4,45.5-14.3,42.4
					C1441.3,511.4,1436.2,503.8,1431,504.2z"/>
				<path class="st2" d="M1458.4,515.1c-0.8,0-1.6-0.1-2.4-0.3c-8.3-1.8-13.6-5-17.5-7.3c-3-1.8-5.2-3.2-7.4-3c-0.1,0-0.2,0-0.3-0.1
					c-0.4-0.7-8.9-16-5.5-23.6c2-4.5,12.6-14.3,25-16.2c8-1.2,15,1.4,20.3,7.5c9.5,11,7.5,24.4,3,32.4
					C1469.7,511.1,1464,515.1,1458.4,515.1z M1431.4,503.9c2.2,0,4.4,1.3,7.4,3.1c3.8,2.3,9.1,5.5,17.3,7.3
					c6.1,1.3,12.7-2.7,16.9-10.1c4.4-7.9,6.4-21-2.9-31.8c-5.2-6.1-11.9-8.5-19.8-7.3c-11.6,1.8-22.5,11.3-24.5,15.9
					c-3.1,6.9,4.5,21.3,5.4,23C1431.2,503.9,1431.3,503.9,1431.4,503.9z"/>
			</g>
			<g>
				<path class="st2" d="M1425.8,512.1C1425.8,512.1,1425.7,512.1,1425.8,512.1c-0.3,0-0.4-0.3-0.4-0.5c0-0.2,0.7-4.2,12-14.5
					c5.6-5.1,12.3-9.7,18.9-12.8c6.8-3.2,12.8-4.5,16.9-3.8c0.2,0,0.4,0.3,0.3,0.5c0,0.2-0.3,0.4-0.5,0.3
					c-8.1-1.5-23.5,5.7-35.1,16.3c-11,10-11.7,14-11.7,14C1426.2,511.9,1426,512.1,1425.8,512.1z"/>
			</g>
			<g>
				<path class="st2" d="M1456.9,506c-0.1,0-0.2,0-0.2-0.1c-3.7-5.1-14.3-9.1-18.1-9.1c-0.1,0-0.2,0-0.2-0.1c-0.1-0.1-0.1-0.2,0-0.3
					c2.2-6.2-4.2-14.8-4.2-14.8c-0.1-0.1-0.1-0.3,0-0.4c0.1-0.1,0.3-0.1,0.4,0c0.3,0.4,6.4,8.6,4.4,15c4.2,0.3,14.5,4.2,18.2,9.3
					c0.1,0.1,0.1,0.3-0.1,0.4C1457,506,1456.9,506,1456.9,506z"/>
			</g>
			<g>
				<path class="st2" d="M1467.6,508c-0.1,0-0.2-0.1-0.3-0.2c-1.6-5-6.8-8.9-10.9-11.4c-4.9-2.9-9.8-4.6-11.4-4.7
					c-0.1,0-0.1,0-0.2-0.1c0-0.1-0.1-0.1-0.1-0.2c0.8-10.1-5.2-17-5.2-17.1c-0.1-0.1-0.1-0.3,0-0.4c0.1-0.1,0.3-0.1,0.4,0
					c0.1,0.1,6.1,7,5.4,17.2c4.1,0.5,19.6,7.1,22.6,16.4C1467.9,507.7,1467.8,507.9,1467.6,508C1467.6,508,1467.6,508,1467.6,508z"
					/>
			</g>
			<g>
				<path class="st2" d="M1465,496.5c-0.1,0-0.2-0.1-0.2-0.2c-3.1-6.6-9.8-8.3-13.5-8.7c-0.1,0-0.1,0-0.2-0.1c0-0.1-0.1-0.1-0.1-0.2
					c0.9-7.9-5.6-17.5-5.6-17.6c-0.1-0.1-0.1-0.3,0.1-0.4c0.1-0.1,0.3-0.1,0.4,0.1c0.3,0.4,6.5,9.6,5.7,17.7
					c3.9,0.5,10.5,2.3,13.7,9c0.1,0.1,0,0.3-0.1,0.4C1465.1,496.5,1465,496.5,1465,496.5z"/>
			</g>
			<g>
				<path class="st2" d="M1471.5,495.9c-0.1,0-0.2-0.1-0.3-0.2c-1-6-9.4-11.4-13.9-11.5c-0.1,0-0.2-0.1-0.2-0.1c0-0.1,0-0.2,0-0.3
					c3.4-5.6-2.5-14.8-2.6-14.9c-0.1-0.1-0.1-0.3,0.1-0.4c0.1-0.1,0.3-0.1,0.4,0.1c0.2,0.4,5.9,9.2,2.8,15.1c4.9,0.4,13,5.8,14,11.9
					C1471.8,495.8,1471.7,495.9,1471.5,495.9C1471.5,495.9,1471.5,495.9,1471.5,495.9z"/>
			</g>
			<g>
				<path class="st2" d="M1472.4,486.5c-0.1,0-0.2-0.1-0.3-0.2c-0.6-2.7-4.2-4.3-6.6-4.6c-0.1,0-0.2-0.1-0.2-0.2c0-0.1,0-0.2,0-0.3
					c2.7-4,0.4-6.6,0.3-6.7c-0.1-0.1-0.1-0.3,0-0.4c0.1-0.1,0.3-0.1,0.4,0c0,0,2.5,2.9,0,7c2.5,0.4,6,2.2,6.6,5
					C1472.7,486.3,1472.6,486.5,1472.4,486.5C1472.4,486.5,1472.4,486.5,1472.4,486.5z"/>
			</g>
		</g>
	</g>
</g>
</svg>
