<?xml version="1.0" encoding="UTF-8"?>
<svg id="Layer_1" data-name="Layer 1" xmlns="http://www.w3.org/2000/svg" xmlns:xlink="http://www.w3.org/1999/xlink" viewBox="0 0 1600 600">
  <defs>
    <style>
      .cls-1 {
        fill: none;
      }

      .cls-2 {
        clip-path: url(#clippath);
      }

      .cls-3 {
        fill: #fff;
      }

      .cls-4 {
        fill: #8eabf4;
      }

      .cls-5 {
        fill: #4373ef;
      }

      .cls-6 {
        fill: #1a1a1a;
      }

      .cls-7 {
        fill: url(#radial-gradient);
      }
    </style>
    <clipPath id="clippath">
      <rect class="cls-1" x="1.95" y="-28.13" width="1634.25" height="583.52"/>
    </clipPath>
    <radialGradient id="radial-gradient" cx="729.66" cy="787.64" fx="729.66" fy="787.64" r="795.43" gradientTransform="translate(99.71 368.57) scale(1 .23)" gradientUnits="userSpaceOnUse">
      <stop offset=".41" stop-color="#ebebf2"/>
      <stop offset="1" stop-color="#ebebf2" stop-opacity="0"/>
    </radialGradient>
  </defs>
  <g class="cls-2">
    <ellipse class="cls-7" cx="832.11" cy="549.37" rx="804.09" ry="184.48"/>
  </g>
  <g>
    <path class="cls-3" d="M673.09,268.18l-.11-.35c-3.36-10.95-1.43-23,4.81-29.98,3.9-4.36,9.34-6.76,15.33-6.76,7.17,0,14.21,3.51,19.46,9.66,2.08-5.69,7.71-17.73,19.86-24.4,5.12-2.81,10.63-4.23,16.39-4.23,9.47,0,16.85,3.79,19.42,5.3,4.57-6.16,11.07-9.69,17.89-9.69,1.42,0,2.83,.16,4.22,.47,9.43,2.1,16.88,11.14,18.61,22.52,3.98,2.07,7.22,5.23,9.39,9.16,4.75,8.56,4.43,20.29-.82,30.61l-.14,.28-144.31-2.61Z"/>
    <path class="cls-6" d="M673.45,268.35c-.29,0-.53-.19-.62-.47-1.66-5.42-2.09-11.13-1.23-16.51,.86-5.42,2.96-10.13,6.08-13.61,3.87-4.33,9.51-6.81,15.47-6.81,.18,0,.36,0,.54,0,3.57,.11,7.13,1.04,10.3,2.69,3.17,1.63,6.04,3.92,8.54,6.81,2.1-5.64,7.77-17.61,19.84-24.23,5.16-2.83,10.68-4.26,16.42-4.26,2.51,0,5.09,.28,7.68,.82,5.65,1.19,9.86,3.35,11.74,4.44,4.6-6.13,11.11-9.64,17.92-9.64,1.43,0,2.86,.16,4.26,.47,9.46,2.11,16.96,11.17,18.72,22.58,3.97,2.09,7.21,5.26,9.38,9.19,2.34,4.23,3.5,9.35,3.33,14.82-.16,5.41-1.6,10.92-4.16,15.94-.11,.22-.33,.36-.58,.36l-143.64-2.59Zm143.24,1.27c4.91-9.89,5.16-21.04,.66-29.16-2.1-3.8-5.26-6.84-9.13-8.81-.19-.1-.32-.28-.35-.49-1.59-11.04-8.73-19.81-17.76-21.82-1.3-.29-2.64-.44-3.97-.44-6.57,0-12.85,3.49-17.21,9.58-.12,.17-.32,.27-.53,.27h-.14l-.2-.1c-2.06-1.27-9.52-5.39-19.17-5.39-5.56,0-10.9,1.38-15.87,4.11-12.43,6.82-17.86,19.47-19.62,24.6-.09,.26-.34,.44-.62,.44h-.08l-.13-.04c-.11-.04-.22-.11-.3-.21-4.93-6.12-11.71-9.73-18.59-9.91-.18,0-.37,0-.55,0-5.65,0-10.78,2.26-14.45,6.37-5.89,6.58-7.76,17.96-4.7,28.41l142.74,2.58Z"/>
  </g>
  <g>
    <path class="cls-3" d="M502.36,344.18l-.11-.35c-5.32-17.33-2.27-36.4,7.59-47.43,6.14-6.87,14.73-10.66,24.19-10.66,11.47,0,22.75,5.7,31.08,15.66,3.14-8.8,12.05-28.41,31.66-39.16,8.11-4.45,16.83-6.7,25.95-6.7,15.3,0,27.15,6.24,30.99,8.54,7.23-9.87,17.56-15.52,28.4-15.52,2.23,0,4.47,.25,6.65,.73,14.93,3.33,26.73,17.69,29.42,35.76,6.34,3.27,11.51,8.29,14.96,14.53,7.51,13.54,7.01,32.1-1.31,48.45l-.14,.28-229.31-4.14Z"/>
    <path class="cls-6" d="M502.72,344.43c-.32,0-.61-.22-.7-.53-2.63-8.58-3.31-17.63-1.96-26.15,1.36-8.57,4.68-16.01,9.6-21.52,6.1-6.83,15-10.74,24.41-10.74,.29,0,.57,0,.86,.01,5.64,.17,11.26,1.64,16.26,4.25,5.15,2.65,9.8,6.4,13.84,11.16,3.18-8.73,12.15-28.21,31.62-38.89,8.16-4.48,16.91-6.75,25.99-6.75,3.97,0,8.07,.44,12.17,1.3,9.35,1.97,16.37,5.73,18.82,7.17,7.27-9.82,17.62-15.44,28.45-15.44,2.25,0,4.51,.25,6.71,.74,14.98,3.34,26.85,17.73,29.6,35.84,6.32,3.3,11.49,8.33,14.95,14.57,3.71,6.68,5.53,14.78,5.27,23.43-.25,8.56-2.53,17.29-6.58,25.25-.13,.25-.38,.41-.66,.41h0l-228.65-4.13Zm228.19,2.62c7.93-15.88,8.37-33.81,1.12-46.86-3.38-6.1-8.45-10.99-14.66-14.14-.22-.11-.37-.32-.4-.56-2.55-17.68-14-31.74-28.5-34.98-2.1-.47-4.25-.71-6.39-.71-10.56,0-20.64,5.6-27.64,15.37-.14,.2-.37,.31-.61,.31-.14,0-.27-.04-.39-.11-3.29-2.02-15.23-8.63-30.67-8.63-8.9,0-17.45,2.21-25.41,6.58-19.88,10.9-28.56,31.13-31.37,39.31-.1,.3-.39,.51-.71,.51h-.08l-.16-.04c-.13-.04-.25-.13-.34-.24-7.9-9.8-18.77-15.59-29.81-15.87-.29,0-.59-.01-.88-.01-9.08,0-17.32,3.64-23.23,10.24-9.47,10.6-12.46,28.93-7.49,45.71l227.62,4.11Z"/>
  </g>
  <g>
    <g>
      <path class="cls-6" d="M294.63,321.15c-1.46-.16-2.9-.33-4.32-.5-.23-.03-.43-.14-.57-.32s-.21-.41-.18-.63c.05-.43,.42-.76,.85-.76h.11c1.41,.18,2.84,.34,4.28,.5,.23,.02,.43,.14,.58,.32,.14,.18,.21,.4,.18,.63-.05,.44-.42,.76-.85,.76h-.08Zm-8.6-1.05c-1.45-.19-2.89-.39-4.29-.59-.23-.03-.43-.15-.57-.34-.14-.18-.2-.41-.16-.64,.06-.42,.43-.74,.85-.74h.12c1.4,.21,2.84,.41,4.27,.6,.23,.03,.43,.15,.57,.33,.14,.18,.2,.41,.17,.64-.06,.42-.42,.75-.85,.75h-.11Zm-8.57-1.24c-1.42-.22-2.86-.46-4.27-.69-.23-.04-.42-.16-.56-.35-.13-.19-.19-.42-.15-.64,.07-.41,.42-.72,.84-.72h.15c1.4,.25,2.83,.48,4.25,.7,.47,.08,.79,.52,.72,.98-.07,.42-.42,.73-.85,.73h-.13Zm-8.43-1.44h-.11c-1.43-.27-2.86-.54-4.26-.82-.23-.04-.42-.17-.55-.36-.13-.19-.17-.42-.13-.65,.08-.4,.43-.69,.84-.69h.05l.12,.02c1.39,.27,2.81,.54,4.23,.8,.23,.04,.42,.17,.55,.36,.13,.19,.18,.42,.14,.64-.07,.41-.43,.71-.85,.71h-.04Zm-8.48-1.66l-.12-.02c-1.42-.3-2.84-.61-4.24-.92-.46-.11-.75-.57-.65-1.03,.09-.39,.44-.67,.84-.67h.06l.13,.02c1.39,.31,2.81,.62,4.21,.91,.23,.05,.42,.18,.54,.37,.13,.19,.17,.42,.12,.65-.08,.39-.44,.68-.84,.68h-.05Zm-8.44-1.89l-.14-.02c-1.41-.34-2.82-.69-4.2-1.04-.22-.06-.41-.2-.53-.39-.12-.2-.15-.43-.09-.65,.1-.38,.44-.65,.83-.65h.06l.15,.03c1.37,.35,2.77,.7,4.18,1.04,.46,.11,.75,.58,.64,1.04-.09,.39-.44,.66-.84,.66h-.06Zm-8.37-2.15l-.16-.03c-1.39-.38-2.79-.78-4.17-1.17-.45-.13-.72-.61-.59-1.07,.11-.37,.45-.62,.82-.62,.08,0,.16,.01,.24,.04,1.36,.4,2.75,.79,4.14,1.17,.46,.13,.73,.6,.6,1.06-.1,.37-.44,.63-.83,.63h-.07Zm-8.22-2.41c-.08,0-.17-.01-.25-.04-1.38-.43-2.77-.87-4.13-1.32-.22-.07-.4-.22-.5-.43s-.12-.44-.05-.66c.12-.35,.44-.59,.82-.59,.09,0,.18,.01,.27,.04,1.35,.44,2.73,.88,4.1,1.31,.22,.07,.4,.22,.51,.42,.11,.2,.13,.44,.06,.65-.11,.36-.44,.61-.82,.61Zm-8.2-2.71c-.1,0-.19-.02-.28-.05-1.37-.48-2.74-.97-4.08-1.47-.44-.17-.67-.66-.51-1.11,.13-.34,.45-.56,.81-.56,.1,0,.2,.02,.3,.05,1.33,.49,2.69,.99,4.04,1.46,.45,.16,.68,.65,.53,1.09-.12,.34-.45,.58-.81,.58Zm-8.09-3.02c-.11,0-.22-.02-.32-.06-1.34-.53-2.69-1.08-4.01-1.64-.44-.18-.64-.69-.46-1.13,.13-.32,.45-.53,.79-.53,.11,0,.23,.02,.33,.07,1.31,.55,2.64,1.1,3.98,1.62,.21,.08,.38,.25,.47,.46s.09,.44,.01,.66c-.13,.33-.44,.54-.8,.54Zm-7.96-3.35c-.12,0-.24-.03-.35-.08-1.33-.59-2.65-1.2-3.94-1.81-.43-.2-.61-.72-.41-1.15,.14-.3,.45-.49,.78-.49,.13,0,.25,.03,.37,.08,1.27,.6,2.59,1.21,3.9,1.8,.21,.09,.37,.26,.45,.48s.08,.45-.02,.66c-.14,.31-.45,.51-.79,.51Zm-7.8-3.71c-.14,0-.27-.03-.39-.09-1.29-.65-2.59-1.33-3.85-2-.2-.11-.35-.29-.42-.51s-.04-.45,.07-.66c.15-.28,.44-.45,.76-.45,.14,0,.28,.04,.41,.1,1.25,.67,2.53,1.34,3.81,1.98,.21,.1,.36,.28,.43,.5,.07,.22,.05,.45-.05,.66-.15,.29-.44,.47-.77,.47Zm-7.6-4.09c-.15,0-.3-.04-.43-.11-1.26-.72-2.52-1.46-3.74-2.21-.2-.12-.33-.31-.39-.53-.05-.22-.02-.45,.1-.65,.15-.25,.44-.41,.73-.41,.16,0,.31,.04,.45,.12,1.21,.74,2.45,1.47,3.7,2.18,.2,.11,.34,.3,.4,.52s.03,.45-.08,.65c-.15,.27-.44,.43-.75,.43Zm-7.37-4.49c-.17,0-.33-.05-.47-.14-1.21-.79-2.43-1.6-3.61-2.42-.19-.13-.31-.33-.36-.55-.04-.23,0-.45,.14-.64,.16-.23,.42-.37,.71-.37,.18,0,.34,.05,.49,.15,1.16,.81,2.36,1.61,3.56,2.39,.4,.26,.51,.79,.25,1.19-.16,.25-.43,.39-.72,.39Zm-7.1-4.91c-.18,0-.36-.06-.51-.17-1.17-.87-2.33-1.75-3.45-2.64-.37-.29-.43-.84-.14-1.21,.17-.21,.41-.33,.68-.33,.19,0,.38,.07,.53,.18,1.11,.88,2.26,1.75,3.41,2.6,.18,.14,.3,.34,.34,.56,.03,.23-.02,.45-.16,.64-.16,.22-.42,.35-.69,.35Zm-6.77-5.35c-.2,0-.4-.07-.55-.2-1.11-.94-2.21-1.9-3.27-2.87-.35-.32-.38-.87-.06-1.21,.16-.18,.39-.28,.64-.28,.21,0,.42,.08,.58,.22,1.05,.95,2.13,1.9,3.22,2.83,.18,.15,.28,.36,.3,.59,.02,.23-.05,.45-.2,.63-.16,.19-.4,.3-.66,.3Zm-6.38-5.81c-.23,0-.44-.09-.6-.25-1.04-1.01-2.06-2.06-3.05-3.1-.16-.17-.24-.38-.24-.61s.1-.44,.27-.6c.16-.15,.37-.24,.59-.24,.24,0,.46,.1,.62,.27,.97,1.03,1.99,2.05,3,3.05,.34,.33,.35,.88,.01,1.22-.16,.16-.39,.26-.62,.26Zm-5.94-6.26c-.25,0-.48-.11-.65-.29-.95-1.09-1.9-2.21-2.8-3.33-.3-.37-.24-.91,.13-1.21,.15-.12,.35-.19,.54-.19,.26,0,.5,.12,.67,.32,.89,1.1,1.82,2.2,2.76,3.27,.31,.36,.28,.9-.08,1.21-.16,.14-.36,.21-.57,.21Zm-5.42-6.71c-.27,0-.53-.13-.69-.35-.86-1.16-1.71-2.35-2.52-3.54-.27-.39-.16-.93,.23-1.19,.14-.1,.31-.15,.48-.15,.29,0,.55,.14,.71,.38,.8,1.17,1.63,2.35,2.48,3.49,.28,.38,.2,.92-.18,1.2-.15,.11-.33,.17-.51,.17Zm-4.85-7.14c-.3,0-.57-.15-.73-.41-.76-1.22-1.5-2.49-2.21-3.75-.11-.2-.14-.43-.08-.65s.21-.41,.41-.52c.13-.07,.27-.11,.42-.11,.31,0,.6,.17,.75,.44,.7,1.24,1.43,2.48,2.17,3.69,.25,.4,.12,.93-.28,1.18-.14,.08-.29,.13-.45,.13Zm-4.22-7.53c-.33,0-.62-.18-.77-.47-.65-1.29-1.28-2.61-1.87-3.93-.19-.43,0-.94,.43-1.14,.11-.05,.23-.08,.35-.08,.34,0,.65,.2,.78,.51,.58,1.29,1.2,2.59,1.84,3.86,.1,.2,.12,.44,.05,.66s-.22,.4-.43,.5c-.12,.06-.25,.09-.39,.09Zm-3.54-7.87c-.35,0-.67-.21-.8-.54-.53-1.34-1.04-2.72-1.52-4.08-.08-.22-.06-.45,.04-.66,.1-.21,.28-.36,.49-.44,.09-.03,.18-.05,.28-.05,.37,0,.69,.23,.81,.58,.46,1.34,.97,2.69,1.49,4.01,.17,.44-.04,.94-.48,1.12-.1,.04-.21,.06-.32,.06Zm-2.83-8.15c-.38,0-.72-.25-.82-.62-.41-1.38-.8-2.79-1.15-4.19-.06-.22-.02-.45,.1-.65,.12-.2,.31-.34,.53-.39h.06s.15-.03,.15-.03c.4,0,.74,.27,.83,.65,.34,1.37,.72,2.75,1.13,4.11,.07,.22,.04,.45-.07,.65-.11,.2-.29,.35-.51,.41-.08,.02-.16,.04-.25,.04Zm-2.1-8.35c-.41,0-.76-.29-.84-.69-.29-1.41-.55-2.85-.78-4.28-.04-.23,.02-.45,.15-.64,.13-.19,.33-.31,.56-.35h.14c.42-.01,.78,.29,.85,.71,.23,1.41,.49,2.82,.77,4.21,.1,.46-.2,.92-.67,1.02h-.05s-.12,.02-.12,.02Zm-1.37-8.52c-.43,0-.8-.33-.85-.76-.17-1.44-.31-2.9-.42-4.33-.04-.47,.32-.89,.79-.92h0c.51,0,.88,.35,.92,.79,.11,1.42,.25,2.85,.42,4.26,.05,.47-.28,.9-.75,.95h-.1Zm-.66-8.61c-.47,0-.84-.36-.86-.83-.05-1.33-.07-2.68-.07-4.01v-.35c0-.47,.39-.86,.86-.86,.23,0,.45,.09,.61,.25,.16,.16,.25,.38,.25,.61v.35c0,1.31,.02,2.64,.07,3.94,.02,.47-.35,.87-.83,.89h-.03Zm-.04-8.64c-.2,0-.41-.11-.57-.27-.16-.17-.24-.39-.23-.62,.06-1.44,.15-2.9,.26-4.35,.04-.45,.4-.79,.86-.79,.54,.04,.89,.45,.86,.93-.11,1.44-.2,2.89-.26,4.29-.02,.46-.4,.82-.86,.82h-.07Zm.63-8.62c-.22-.02-.42-.14-.56-.32-.14-.18-.21-.41-.18-.63,.16-1.42,.36-2.87,.58-4.31,.06-.42,.43-.73,.85-.73h.13c.23,.04,.43,.17,.56,.35,.14,.18,.19,.41,.16,.64-.21,1.41-.4,2.84-.57,4.25-.05,.43-.42,.76-.85,.76h-.11Zm1.35-8.54l-.11-.02c-.46-.09-.77-.54-.68-1,.26-1.41,.56-2.84,.87-4.26,.09-.4,.43-.67,.84-.67h.06l.13,.02c.46,.1,.75,.56,.65,1.02-.31,1.41-.6,2.82-.86,4.2-.08,.41-.43,.7-.85,.7h-.05Zm1.85-8.43l-.15-.03c-.46-.12-.74-.59-.62-1.04,.35-1.38,.74-2.79,1.14-4.19,.11-.37,.45-.62,.83-.62,.08,0,.16,.01,.24,.03,.22,.06,.4,.21,.51,.41s.14,.43,.07,.65c-.4,1.37-.78,2.76-1.13,4.14-.1,.38-.44,.65-.83,.65h-.06Zm2.46-8.29c-.09,0-.18-.01-.26-.04-.22-.07-.4-.22-.5-.43s-.12-.44-.05-.66c.44-1.36,.91-2.75,1.4-4.11,.12-.34,.45-.57,.81-.57,.1,0,.2,.02,.29,.05,.22,.08,.39,.23,.49,.44,.1,.21,.11,.44,.03,.66-.48,1.35-.95,2.72-1.38,4.06-.11,.36-.44,.6-.82,.6Zm2.9-8.14c-.11,0-.21-.02-.31-.06-.44-.17-.66-.67-.49-1.11,.52-1.34,1.07-2.7,1.63-4.02,.14-.32,.45-.53,.79-.53,.12,0,.23,.02,.33,.07,.21,.09,.38,.26,.46,.47,.09,.21,.08,.45,0,.66-.55,1.31-1.1,2.65-1.61,3.98-.13,.33-.44,.55-.8,.55Zm3.36-7.96c-.12,0-.24-.03-.36-.08-.21-.1-.37-.27-.45-.48-.08-.22-.07-.45,.02-.66,.59-1.31,1.22-2.63,1.85-3.93,.14-.29,.45-.48,.77-.48,.13,0,.26,.03,.38,.09,.43,.21,.6,.72,.4,1.15-.63,1.29-1.24,2.59-1.83,3.89-.14,.31-.45,.5-.78,.5Zm3.79-7.76c-.14,0-.28-.03-.4-.1-.2-.11-.35-.28-.42-.5-.07-.22-.05-.45,.06-.66,.66-1.27,1.36-2.56,2.06-3.82,.15-.27,.44-.44,.75-.44,.15,0,.29,.04,.42,.11,.2,.11,.35,.29,.41,.52,.06,.22,.04,.45-.08,.65-.69,1.25-1.38,2.52-2.03,3.78-.15,.29-.44,.46-.76,.46Zm4.19-7.55c-.15,0-.3-.04-.44-.12-.41-.24-.54-.77-.31-1.18,.73-1.23,1.48-2.48,2.25-3.71,.16-.25,.43-.41,.73-.41,.16,0,.32,.04,.45,.13,.4,.25,.53,.78,.28,1.18-.76,1.22-1.51,2.46-2.22,3.68-.15,.26-.44,.42-.74,.42Zm4.56-7.33c-.17,0-.33-.05-.47-.14-.4-.26-.51-.8-.25-1.19,.79-1.2,1.6-2.41,2.43-3.6,.16-.23,.42-.37,.71-.37,.18,0,.34,.05,.49,.15,.39,.27,.49,.81,.22,1.2-.82,1.18-1.62,2.38-2.4,3.56-.16,.24-.43,.39-.72,.39Zm4.91-7.1c-.18,0-.36-.06-.51-.17-.38-.28-.47-.82-.19-1.2,.84-1.16,1.72-2.33,2.59-3.48,.17-.21,.41-.34,.68-.34,.19,0,.37,.06,.52,.18,.38,.29,.45,.83,.16,1.2-.87,1.14-1.74,2.3-2.57,3.45-.16,.22-.42,.35-.7,.35Zm5.24-6.86c-.19,0-.39-.07-.54-.19-.18-.14-.29-.35-.32-.58-.02-.23,.04-.45,.18-.63,.9-1.12,1.82-2.25,2.75-3.35,.16-.19,.4-.31,.66-.31,.2,0,.4,.07,.55,.2,.17,.15,.28,.35,.3,.58s-.05,.45-.2,.63c-.92,1.1-1.84,2.21-2.73,3.32-.16,.21-.41,.32-.67,.32Zm5.56-6.61c-.21,0-.41-.08-.57-.21-.17-.15-.27-.36-.29-.59-.01-.23,.06-.45,.21-.62,.95-1.08,1.92-2.16,2.9-3.23,.16-.18,.39-.28,.63-.28,.22,0,.42,.08,.58,.23,.17,.16,.27,.37,.28,.6s-.07,.45-.23,.62c-.97,1.05-1.94,2.13-2.88,3.2-.16,.19-.4,.29-.65,.29Zm5.85-6.35c-.22,0-.44-.09-.6-.24-.16-.16-.26-.37-.26-.6,0-.23,.08-.45,.24-.61,1-1.03,2.02-2.07,3.04-3.09,.16-.16,.38-.25,.61-.25s.45,.09,.61,.25c.33,.34,.33,.88,0,1.22-1.02,1.01-2.03,2.04-3.02,3.06-.16,.17-.39,.26-.62,.26Zm6.13-6.09c-.23,0-.46-.1-.62-.27-.33-.35-.31-.89,.03-1.22,1.04-.99,2.11-1.98,3.18-2.95,.16-.14,.36-.22,.58-.22,.24,0,.47,.1,.64,.28,.32,.35,.29,.9-.06,1.22-1.06,.96-2.12,1.94-3.15,2.93-.16,.15-.37,.24-.59,.24Zm6.41-5.82c-.25,0-.49-.11-.65-.3-.31-.36-.27-.9,.09-1.21,1.09-.95,2.21-1.9,3.32-2.82,.15-.13,.35-.2,.55-.2,.26,0,.5,.11,.66,.31,.3,.37,.25,.91-.11,1.21-1.1,.91-2.21,1.85-3.29,2.79-.16,.14-.36,.21-.56,.21Zm6.67-5.53c-.26,0-.51-.12-.67-.32-.3-.37-.23-.91,.14-1.21,1.13-.9,2.29-1.79,3.44-2.66,.15-.11,.33-.17,.52-.17,.27,0,.52,.13,.69,.34,.29,.38,.21,.92-.17,1.21-1.14,.86-2.29,1.75-3.41,2.64-.15,.12-.34,.19-.53,.19Zm6.91-5.23c-.27,0-.54-.13-.7-.36-.28-.38-.19-.92,.19-1.2,1.17-.85,2.37-1.69,3.56-2.51,.14-.1,.31-.15,.49-.15,.28,0,.55,.14,.71,.37,.27,.39,.17,.93-.22,1.2-1.17,.81-2.36,1.64-3.52,2.48-.15,.11-.32,.16-.5,.16Zm7.13-4.91c-.29,0-.56-.15-.72-.39-.26-.4-.15-.93,.25-1.19,1.2-.79,2.44-1.58,3.66-2.34,.14-.09,.29-.13,.45-.13,.3,0,.57,.15,.73,.4,.25,.4,.13,.94-.28,1.19-1.21,.76-2.44,1.54-3.63,2.32-.14,.09-.3,.14-.47,.14Zm7.35-4.58c-.3,0-.59-.16-.74-.42-.12-.2-.15-.43-.09-.65,.06-.22,.2-.41,.4-.53,1.25-.74,2.51-1.47,3.77-2.17,.13-.07,.27-.11,.42-.11,.31,0,.6,.17,.75,.44,.11,.2,.14,.43,.08,.65s-.21,.41-.41,.52c-1.24,.7-2.5,1.42-3.73,2.15-.13,.08-.28,.12-.44,.12Zm7.55-4.23c-.32,0-.61-.17-.76-.46-.22-.42-.06-.94,.36-1.16,1.28-.68,2.58-1.35,3.86-1.99,.12-.06,.25-.09,.39-.09,.33,0,.62,.18,.77,.47,.21,.42,.04,.94-.38,1.15-1.27,.64-2.56,1.3-3.83,1.97-.12,.07-.26,.1-.4,.1Zm7.73-3.87c-.33,0-.64-.19-.78-.49-.2-.43-.02-.94,.41-1.14,1.31-.62,2.64-1.22,3.95-1.81,.11-.05,.23-.07,.35-.07,.34,0,.65,.2,.79,.51,.09,.21,.1,.44,.02,.66-.08,.21-.24,.38-.45,.48-1.3,.58-2.62,1.18-3.92,1.79-.11,.05-.24,.08-.37,.08Zm7.91-3.5c-.35,0-.66-.21-.79-.53-.18-.44,.03-.94,.46-1.12,1.33-.55,2.69-1.09,4.04-1.61,.1-.04,.2-.06,.31-.06,.35,0,.68,.22,.8,.55,.17,.44-.05,.94-.49,1.11-1.33,.51-2.68,1.05-4,1.6-.11,.04-.22,.07-.33,.07Zm8.07-3.11c-.36,0-.69-.23-.81-.57-.08-.22-.07-.45,.03-.66,.1-.21,.27-.37,.49-.44,1.36-.49,2.74-.96,4.11-1.41,.09-.03,.18-.04,.27-.04,.37,0,.7,.24,.81,.59,.07,.22,.06,.45-.05,.66s-.28,.36-.5,.43c-1.35,.45-2.72,.92-4.07,1.4-.09,.03-.19,.05-.29,.05Zm8.22-2.71c-.38,0-.71-.25-.82-.61-.07-.22-.04-.45,.07-.66,.11-.2,.29-.35,.51-.42,1.38-.42,2.79-.82,4.18-1.2l.06-.02h.16c.38-.01,.73,.25,.83,.62,.12,.46-.15,.93-.6,1.06-1.38,.38-2.77,.78-4.14,1.19-.09,.02-.17,.04-.25,.04Zm8.35-2.29c-.4,0-.74-.27-.83-.65-.06-.22-.02-.45,.1-.65,.12-.2,.31-.34,.53-.39,1.4-.35,2.83-.68,4.24-.99h.05s.13-.02,.13-.02c.4,0,.75,.28,.84,.67,.1,.46-.19,.92-.66,1.03-1.39,.31-2.8,.64-4.19,.98h-.06s-.15,.03-.15,.03Zm8.46-1.86c-.41,0-.77-.29-.84-.7-.09-.47,.22-.92,.68-1.01,1.42-.27,2.86-.53,4.29-.77h.04s.1-.01,.1-.01c.42,0,.78,.3,.85,.72,.04,.22-.02,.45-.15,.64-.13,.19-.33,.31-.56,.35-1.41,.23-2.84,.49-4.24,.76h-.05s-.12,.02-.12,.02Zm8.55-1.41c-.43,0-.79-.32-.85-.74-.03-.23,.03-.45,.17-.64,.14-.18,.34-.3,.57-.33,1.43-.2,2.88-.38,4.31-.54h.01c.53,0,.89,.33,.94,.76,.05,.47-.29,.9-.76,.95-1.42,.16-2.85,.33-4.26,.53h-.12Zm38.67-.57c-1.42-.15-2.86-.29-4.27-.41-.47-.04-.82-.45-.79-.93,.04-.44,.41-.79,.86-.79,1.5,.12,2.96,.26,4.39,.41,.47,.05,.81,.48,.76,.95-.05,.44-.41,.77-.85,.77h-.09Zm-30.08-.38c-.44,0-.82-.35-.86-.79-.02-.23,.05-.45,.2-.63,.15-.18,.36-.28,.58-.3,1.44-.12,2.9-.22,4.33-.3h0c.5,0,.88,.36,.9,.81,.03,.47-.34,.88-.81,.91-1.42,.08-2.86,.18-4.29,.3h-.07Zm21.52-.32c-1.41-.08-2.86-.13-4.28-.17-.23,0-.44-.1-.6-.27-.16-.17-.24-.38-.24-.61,.01-.46,.39-.84,.85-.84,1.47,.04,2.93,.1,4.37,.17,.47,.03,.84,.43,.81,.9-.03,.46-.4,.81-.86,.81h-.06Zm-12.9-.16c-.47,0-.85-.37-.86-.83,0-.23,.08-.45,.23-.62,.16-.17,.37-.26,.6-.27,1.44-.04,2.9-.06,4.34-.07,.47,0,.86,.38,.86,.86,0,.23-.09,.45-.25,.61-.16,.16-.38,.25-.61,.25-1.42,0-2.87,.02-4.29,.06h-.02Z"/>
      <path class="cls-6" d="M300.96,321.8c-.73-.07-1.44-.14-2.16-.21-.47-.05-.82-.47-.77-.94,.04-.44,.41-.77,.86-.77,.8,.08,1.51,.15,2.23,.21,.23,.02,.43,.13,.58,.31,.15,.18,.21,.4,.19,.63-.04,.44-.41,.78-.85,.78h-.08Z"/>
    </g>
    <g>
      <g>
        <path class="cls-3" d="M251.53,128.35c-.25-.51-67.97,18.16-68.43,18.41,.22-.44,14.66-28.55,41.01-35.35,5.94-1.54,12.49-1.99,19.63-.8,7.87,1.32,14.55,4.21,19.92,8.14-5.72,1-9.1,4.5-12.13,9.59Z"/>
        <path class="cls-3" d="M183.1,146.76h0s0,0,0,0Z"/>
      </g>
      <g>
        <g>
          <path class="cls-6" d="M251.53,128.35c-.25-.51-67.97,18.16-68.43,18.41,.22-.44,14.66-28.55,41.01-35.35,5.94-1.54,12.49-1.99,19.63-.8,7.87,1.32,14.55,4.21,19.92,8.14-5.72,1-9.1,4.5-12.13,9.59Z"/>
          <path class="cls-6" d="M183.1,147.12c-.09,0-.18-.03-.25-.1-.11-.11-.14-.28-.07-.42,.15-.3,3.79-7.39,10.76-15.36,6.33-7.25,16.76-16.63,30.49-20.18,6.4-1.66,13.05-1.93,19.78-.8,7.62,1.27,14.38,4.04,20.08,8.21,.12,.09,.17,.23,.14,.37-.03,.14-.15,.25-.29,.27-4.97,.87-8.41,3.6-11.89,9.42-.07,.11-.19,.18-.32,.18-.02,0-.04,0-.07,0-2.73,.18-67.43,18.13-68.2,18.39-.05,.02-.1,.03-.15,.03Zm52.6-36.83c-3.9,0-7.74,.49-11.5,1.46-13.55,3.5-23.86,12.78-30.12,19.95-5.69,6.51-9.13,12.41-10.26,14.46,4.1-1.2,21.29-5.93,33.2-9.18,28.03-7.64,33.22-8.84,34.3-8.99,3.37-5.6,6.74-8.39,11.46-9.44-5.47-3.83-11.89-6.39-19.1-7.59-2.68-.45-5.34-.67-7.98-.67Zm15.51,18.22h0Zm0,0h0s0,0,0,0Zm0,0s0,0,0,0c0,0,0,0,0,0Zm0,0s0,0,0,0c0,0,0,0,0,0Zm0,0h0s0,0,0,0Zm0,0s0,0,0,0c0,0,0,0,0,0Z"/>
        </g>
        <path class="cls-6" d="M183.1,147.13c-.09,0-.18-.04-.25-.11-.14-.14-.14-.37,0-.51,.14-.14,.37-.14,.51,0,.14,.14,.14,.37,0,.51h0c-.07,.07-.16,.11-.25,.11Z"/>
      </g>
      <g>
        <path class="cls-6" d="M183.1,147.12c-.09,0-.18-.03-.25-.1-.11-.11-.14-.28-.07-.42,.15-.3,3.79-7.39,10.76-15.36,6.33-7.25,16.76-16.63,30.49-20.18,6.4-1.66,13.05-1.93,19.78-.8,7.62,1.27,14.38,4.04,20.08,8.21,.12,.09,.17,.23,.14,.37-.03,.14-.15,.25-.29,.27-4.97,.87-8.41,3.6-11.89,9.42-.07,.11-.19,.18-.32,.18-.02,0-.04,0-.07,0-2.73,.18-67.43,18.13-68.2,18.39-.05,.02-.1,.03-.15,.03Zm52.6-36.83c-3.9,0-7.74,.49-11.5,1.46-13.55,3.5-23.86,12.78-30.12,19.95-5.69,6.51-9.13,12.41-10.26,14.46,4.1-1.2,21.29-5.93,33.2-9.18,28.03-7.64,33.22-8.84,34.3-8.99,3.37-5.6,6.74-8.39,11.46-9.44-5.47-3.83-11.89-6.39-19.1-7.59-2.68-.45-5.34-.67-7.98-.67Zm15.51,18.22h0Zm0,0h0s0,0,0,0Zm0,0s0,0,0,0c0,0,0,0,0,0Zm0,0s0,0,0,0c0,0,0,0,0,0Zm0,0h0s0,0,0,0Zm0,0s0,0,0,0c0,0,0,0,0,0Z"/>
        <path class="cls-6" d="M183.1,147.13c-.09,0-.18-.04-.25-.11-.14-.14-.14-.37,0-.51,.14-.14,.37-.14,.51,0,.14,.14,.14,.37,0,.51h0c-.07,.07-.16,.11-.25,.11Z"/>
      </g>
    </g>
    <g>
      <path class="cls-3" d="M494.41,378.74c-25.42,0-45.9-7.54-59.2-21.8-25.11-26.36-52.65-39.18-84.2-39.18-11.54,0-22,1.59-31.22,2.99-7.13,1.08-13.28,2.01-18.55,2.02h0c-7.58,0-12.29-1.99-15.27-6.45-9.68-14.47,.64-28.19,10.62-41.47,7.66-10.19,14.9-19.82,13.48-29.54-.82-5.6-4.49-10.74-11.21-15.68-5.55-4.09-10.25-6.08-14.36-6.08-.22,0-.43,0-.64,.02l-.27-.94,33.95-19.06,50.8-26.23h.07c.82-.18,1.67-.26,2.53-.26,4.33,0,9.22,2.05,14.95,6.27,5.98,4.4,9.24,9.3,9.96,14.98,1.58,12.47-9.87,26.54-20.94,40.14-13.37,16.42-27.19,33.41-17.88,47.33,2.37,3.55,6.02,5.2,11.49,5.2,7.55,0,18.12-3.14,31.5-7.12,12.01-3.57,26.96-8.02,44.31-11.5,10.69-2.15,19.85-3.19,28.01-3.19,26.58,0,38.11,11.13,52.71,25.23,8.86,8.56,18.91,18.26,34.17,26.96,7.59,5.26,13.26,7.59,18.41,7.6h0c5.81,0,10.83-2.93,17.78-6.99,1.53-.89,3.16-1.84,4.9-2.82l1.39-.78-.7,1.44c-11.64,23.94-21.96,37.55-32.49,42.83-26.69,10.54-52.29,16.1-74.08,16.1Z"/>
      <path class="cls-6" d="M494.35,379.1c-1.32,0-2.63-.02-3.93-.06-11.65-.36-22.23-2.35-31.43-5.91-9.5-3.67-17.59-9.04-24.04-15.95-25.01-26.26-52.54-39.03-84.15-39.03-11.51,0-21.83,1.57-30.95,2.95-7.18,1.09-13.38,2.03-18.67,2.03-7.67,0-12.45-2.04-15.52-6.62-9.82-14.68,.58-28.51,10.63-41.89,7.62-10.13,14.81-19.7,13.41-29.27-.81-5.5-4.43-10.56-11.06-15.45-5.49-4.04-10.12-6.01-14.15-6.01-.21,0-.42,0-.62,.02h0c-.43,0-.76-.25-.87-.62-.11-.39,.05-.79,.41-.99l33.95-19.06,50.75-26.2c.07-.04,.15-.06,.23-.08,.83-.17,1.7-.25,2.58-.25,4.42,0,9.39,2.07,15.18,6.34,6.06,4.46,9.37,9.44,10.1,15.22,1.6,12.63-9.9,26.75-21.02,40.42-13.29,16.32-27.03,33.2-17.86,46.9,2.31,3.45,5.86,5.05,11.2,5.05,7.45,0,18.02-3.14,31.4-7.12,12.02-3.57,26.97-8.02,44.34-11.51,10.67-2.14,19.84-3.19,28.02-3.19,8.93,0,16.6,1.25,23.45,3.81,11.94,4.48,20.11,12.37,29.57,21.5,8.85,8.55,18.88,18.23,34.1,26.91,7.53,5.21,13.14,7.53,18.23,7.53,5.74,0,10.72-2.9,17.61-6.92,1.55-.91,3.16-1.84,4.9-2.82,.13-.07,.27-.11,.42-.11,.22,0,.43,.08,.59,.23,.28,.26,.35,.67,.18,1-11.67,24.01-22.05,37.68-32.66,43-26.75,10.56-52.43,16.14-74.3,16.14Zm-143.33-62.7c7.27,0,14.05,.61,20.72,1.88,23.42,4.43,44.5,16.77,64.46,37.73,12.51,13.41,30.77,20.58,54.27,21.31,1.28,.04,2.57,.06,3.88,.06,21.66,0,47.11-5.53,73.6-15.99,9.83-4.94,19.58-17.56,30.58-39.67-.84,.48-1.65,.96-2.45,1.42-7.16,4.18-12.34,7.2-18.48,7.2-5.42,0-11.32-2.42-19.15-7.84-15.35-8.75-25.46-18.51-34.37-27.13-14.39-13.89-25.75-24.87-51.65-24.87-8.07,0-17.19,1.04-27.85,3.18-17.28,3.47-32.19,7.9-44.18,11.47-13.54,4.02-24.22,7.2-31.94,7.2-5.93,0-9.93-1.85-12.59-5.82-9.87-14.75,4.27-32.13,17.96-48.94,10.89-13.38,22.16-27.22,20.65-39.11-.67-5.29-3.75-9.88-9.41-14.05-5.48-4.04-10.11-6-14.16-6-.73,0-1.44,.07-2.13,.19l-50.61,26.13-31.36,17.61c3.82,.59,8.04,2.62,12.84,6.16,7.03,5.18,10.87,10.6,11.75,16.58,1.51,10.28-5.9,20.12-13.73,30.55-9.7,12.9-19.72,26.23-10.58,39.9,2.71,4.05,7.07,5.86,14.12,5.86,5.15,0,11.28-.93,18.37-2.01,9.27-1.41,19.77-3,31.43-3Z"/>
    </g>
    <g>
      <path class="cls-4" d="M304.55,221.66l65.13-38.35s27.62,10.74,19.49,28.72c-29.49,18.21-70.27,36.42-70.27,36.42,0,0-2.98-22.95-14.35-26.8Z"/>
      <path class="cls-6" d="M318.9,248.81c-.06,0-.12-.02-.18-.05-.1-.06-.17-.15-.18-.27-.03-.23-3.09-22.77-14.11-26.5-.13-.05-.23-.16-.24-.3-.01-.14,.05-.28,.18-.35l65.13-38.35c.1-.06,.21-.07,.31-.03,.64,.25,15.74,6.23,20.08,16.86,1.63,4,1.5,8.16-.39,12.35-.03,.07-.08,.12-.14,.16-29.18,18.01-69.91,36.26-70.31,36.44-.05,.02-.1,.03-.15,.03Zm-13.52-27.23c10.1,4.22,13.31,23,13.81,26.34,4.47-2.02,42.2-19.18,69.7-36.14,1.77-3.97,1.88-7.9,.34-11.68-3.99-9.77-17.87-15.72-19.52-16.4l-64.33,37.87Z"/>
    </g>
    <g>
      <path class="cls-3" d="M345.31,134.38c-38.71,20.16-48.54,56.58-27.54,69.62l-33.95,19.06c-13.04,.68-17.2,21.11-29.33,28.25-3.92,2.31-8.68,3.22-14.85,1.63-31.16-8.08-23.85-50.65,19.24-73.09,26.79-13.96,26.01-45.57,4.78-61.09-5.37-3.93-12.05-6.82-19.92-8.14-7.13-1.19-13.69-.74-19.63,.8l74.71-40.77,.15-.09c8.63-4.72,19.08-7.44,31.19-5.41,38.99,6.53,48.71,51.75,15.14,69.24Z"/>
      <path class="cls-6" d="M245.54,254.6c-1.93,0-3.98-.28-6.11-.83-11.4-2.96-18.36-10.48-19.57-21.19-.98-8.6,1.99-18.46,8.37-27.77,6.92-10.12,17.39-19.01,30.26-25.72,11.74-6.11,18.98-16.38,19.87-28.18,.91-12.07-4.77-23.83-15.2-31.46-5.55-4.06-12.13-6.74-19.56-7.99-2.64-.44-5.29-.67-7.9-.67-3.85,0-7.67,.49-11.37,1.44l-.06,.02h-.15c-.36,.01-.67-.2-.8-.53-.16-.4,0-.86,.39-1.07l74.86-40.85c7.53-4.11,15.45-6.2,23.57-6.2,2.7,0,5.45,.23,8.19,.69,19.1,3.2,33.17,16.22,35.86,33.17,1.15,7.25,.02,14.49-3.26,20.94-3.45,6.79-9.24,12.48-16.76,16.5l-.44,.23c-22.35,11.64-37.21,30.32-37.86,47.58-.34,8.89,3.35,16.19,10.38,20.55,.26,.16,.41,.45,.41,.75,0,.3-.17,.58-.44,.73l-33.96,19.06c-.12,.06-.25,.1-.38,.11-6.97,.36-11.37,6.9-16.02,13.81-3.68,5.47-7.5,11.13-12.91,14.32-2.91,1.72-5.98,2.55-9.39,2.55Zm-9.84-145.53c2.7,0,5.45,.23,8.18,.69,7.7,1.29,14.52,4.08,20.29,8.3,10.92,7.98,16.86,20.31,15.9,32.98-.94,12.4-8.52,23.18-20.79,29.57-12.62,6.57-22.87,15.28-29.64,25.16-6.14,8.97-9.01,18.42-8.08,26.61,1.13,9.95,7.63,16.96,18.3,19.72,1.98,.51,3.89,.77,5.67,.77,3.1,0,5.88-.76,8.52-2.31,5.08-2.99,8.78-8.48,12.36-13.79,4.86-7.22,9.46-14.04,17.16-14.56l32.55-18.28c-6.79-4.77-10.34-12.29-10-21.29,.67-17.87,15.9-37.11,38.79-49.04,14.38-7.49,21.87-21.24,19.55-35.88-2.57-16.21-16.09-28.67-34.44-31.75-2.64-.44-5.3-.67-7.9-.67-7.82,0-15.47,2.01-22.74,5.98l-69.98,38.19c2.08-.28,4.18-.42,6.29-.42Z"/>
    </g>
    <g>
      <path class="cls-4" d="M287.22,157.92c31.29-16.35,73.91-46.93,73.91-46.93,0,0,2.74-27.19-19.83-33.17-26.84,12.99-68.22,37.25-68.22,37.25,0,0,23.03,16.97,14.14,42.85Z"/>
      <path class="cls-6" d="M287.22,158.28c-.08,0-.17-.03-.23-.09-.11-.1-.15-.25-.11-.39,4.54-13.23,.5-24.05-3.69-30.8-4.56-7.34-10.27-11.6-10.33-11.64-.1-.07-.15-.19-.15-.31,0-.12,.07-.23,.18-.29,.41-.24,41.7-24.41,68.24-37.26,.08-.04,.17-.05,.25-.02,11.82,3.13,16.66,12.11,18.63,19.08,2.13,7.52,1.47,14.41,1.47,14.47-.01,.1-.06,.2-.15,.26-.43,.31-43,30.79-73.95,46.96-.05,.03-.11,.04-.17,.04Zm-13.5-43.17c1.43,1.15,6.17,5.21,10.07,11.49,4.19,6.74,8.24,17.47,4.05,30.59,29.96-15.79,70.29-44.5,72.94-46.4,.08-1.07,.46-7.3-1.46-14.07-2.79-9.82-8.84-16.06-17.99-18.52-25.01,12.12-63.02,34.23-67.62,36.91Z"/>
    </g>
    <g>
      <path class="cls-6" d="M299.15,229.22l-44.65,22.09c12.13-7.13,16.29-27.57,29.33-28.25,4.07-.21,9.01,1.5,15.33,6.16Z"/>
      <path class="cls-6" d="M254.5,251.67c-.13,0-.25-.07-.32-.19-.09-.17-.03-.38,.13-.48,5.18-3.05,8.91-8.59,12.52-13.95,4.83-7.18,9.4-13.96,16.97-14.35,4.46-.24,9.55,1.8,15.56,6.23,.1,.07,.16,.2,.15,.32s-.09,.24-.2,.29l-44.65,22.09c-.05,.03-.11,.04-.16,.04Zm30-28.27c-.22,0-.44,0-.65,.02-7.22,.37-11.68,7.01-16.41,14.03-2.82,4.19-5.72,8.5-9.35,11.68l40.38-19.98c-5.36-3.87-9.94-5.75-13.96-5.75Z"/>
    </g>
    <g>
      <g>
        <path class="cls-6" d="M439.85,304.8c-.35,.38-6.58-2.21-11.04,3.26-4.47,5.48,6.34,41.72,12.53,41.27,6.19-.45,6.03-17.38,6.12-27.26,.09-9.88-7.61-17.27-7.61-17.27Z"/>
        <path class="cls-6" d="M441.22,350.2c-1.85,0-3.81-2.04-5.99-6.24-4.84-9.31-11.05-31.58-7.09-36.44,2.09-2.57,4.84-3.87,8.16-3.87,1.13,0,2.1,.15,2.75,.25,.2,.03,.41,.06,.55,.08,.07-.02,.14-.03,.21-.04h0c.26,0,.47,.08,.63,.24,.08,.08,7.97,7.79,7.88,17.9v1.37c-.1,11.08-.21,26.26-6.92,26.75-.05,0-.12,0-.18,0Zm-4.89-44.83c-2.8,0-5.11,1.09-6.86,3.23-2.75,3.37,1.47,23.39,7.28,34.56,2.56,4.93,4.06,5.31,4.46,5.31,5.19-.37,5.31-16.42,5.38-25.04v-1.37c.09-8.39-5.88-15.12-7.07-16.38-.23-.01-.46-.05-.73-.09-.62-.09-1.46-.22-2.46-.22Z"/>
      </g>
      <g>
        <path class="cls-3" d="M449.76,300.87l-4.86,14.27s-8.18-2.5-8.2-9.81c4.09-10.33,4.29-11.2,4.29-11.2,0,0,8.19,2.74,8.76,6.73Z"/>
        <path class="cls-6" d="M444.9,316c-.09,0-.17-.01-.25-.04-.09-.03-8.78-2.73-8.8-10.63,0-.11,.02-.22,.06-.32,3.87-9.77,4.24-11.04,4.25-11.09,.05-.22,.2-.42,.41-.54,.13-.07,.27-.11,.42-.11,.09,0,.18,.01,.27,.04,.89,.3,8.71,3.04,9.34,7.42,.02,.13,0,.27-.04,.4l-4.86,14.28c-.12,.35-.45,.58-.81,.58Zm-7.33-10.51c.11,5.2,4.98,7.75,6.81,8.53l4.5-13.22c-.6-2.67-5.52-4.83-7.35-5.55-.43,1.2-1.47,3.96-3.95,10.24Z"/>
      </g>
      <g>
        <path class="cls-5" d="M423.68,157.26s78.88,25.93,76.32,53.68c-2.56,27.75-49.3,102.25-49.3,102.25-5.46-.46-10.17-5.92-14.25-15.7,0,0,27.76-73.4,23.01-88.74s-59.53-36.52-59.53-36.52l23.74-14.97Z"/>
        <path class="cls-6" d="M450.62,314.05c-5.64-.48-10.67-5.94-14.96-16.23-.08-.2-.09-.43-.01-.63,.07-.18,7.06-18.76,13.34-38.86,8.19-26.21,11.53-43.26,9.65-49.32-4.58-14.79-58.47-35.76-59.01-35.97-.3-.12-.51-.39-.55-.72s.12-.64,.4-.81l23.74-14.97c.14-.09,.29-.13,.46-.13,.09,0,.18,.01,.27,.04,.2,.07,19.98,6.6,39.25,16.49,11.33,5.81,20.26,11.63,26.54,17.28,7.99,7.2,11.74,14.2,11.13,20.81-2.54,27.57-48.96,101.88-49.43,102.63-.16,.25-.43,.4-.73,.4h-.08Zm-13.24-16.58c3.85,9.11,8.18,14.09,12.88,14.8,3.55-5.71,46.48-75.27,48.89-101.41,1.28-13.86-19.27-27.44-36.73-36.4-17.63-9.05-35.69-15.27-38.62-16.26l-21.96,13.85c10.91,4.34,54.07,22.3,58.45,36.44,1.98,6.4-1.08,22.78-9.09,48.68-5.99,19.37-12.76,37.49-13.82,40.3Z"/>
      </g>
      <g>
        <path class="cls-6" d="M499.2,319.59c-.08,.51-6.73,1.7-7.51,8.72s27.93,31.64,32.89,27.9c4.96-3.73-4.34-17.88-9.62-26.23-5.28-8.35-15.76-10.4-15.76-10.4Z"/>
        <path class="cls-6" d="M523.21,357.46c-1.61,0-3.79-.8-6.68-2.45-9.12-5.21-26.4-20.56-25.7-26.79,.68-6.03,5.25-8.08,7.21-8.95,.18-.08,.39-.17,.5-.23,.05-.06,.1-.11,.16-.15,.15-.1,.32-.16,.49-.16h.05l.12,.02c.11,.02,10.89,2.19,16.32,10.78l.73,1.15c5.93,9.36,14.06,22.18,8.68,26.23-.49,.37-1.12,.55-1.89,.55Zm-23.8-36.94c-.17,.09-.38,.19-.65,.31-1.7,.76-5.65,2.52-6.22,7.58-.48,4.32,13.91,18.86,24.85,25.11,3.22,1.84,4.94,2.23,5.82,2.23h0c.38,0,.67-.07,.86-.21,4.11-3.09-4.48-16.65-9.1-23.93l-.73-1.16c-4.47-7.08-13.12-9.51-14.82-9.93Z"/>
      </g>
      <g>
        <path class="cls-3" d="M505.4,310.91l3.65,14.63s-8.22,2.33-12.2-3.8c-2.16-10.9-2.46-11.73-2.46-11.73,0,0,8.37-2.13,11.01,.91Z"/>
        <path class="cls-6" d="M505.49,326.32c-2.81,0-6.6-.77-8.94-4.39-.02-.04-.04-.08-.05-.13-2.1-10.58-2.44-11.67-2.45-11.68-.03-.1-.03-.2,.02-.29,.05-.09,.13-.16,.23-.18,.35-.09,8.61-2.15,11.37,1.02,.04,.04,.06,.09,.08,.15l3.65,14.63c.05,.19-.06,.38-.25,.43-.04,.01-1.58,.43-3.66,.43Zm-8.3-4.72c3.35,5.09,9.87,4.02,11.43,3.68l-3.54-14.19c-2.23-2.42-8.66-1.17-10.24-.82,.21,.84,.8,3.45,2.36,11.33Z"/>
      </g>
      <g>
        <path class="cls-5" d="M362.24,171.77s-1.01,27.12,49.39,36.25c50.4,9.13,73.04,106.63,73.04,106.63,0,0,22.64,5.48,25.2-5.11-8.76-36.88-25.2-125.62-85.45-142.79-43.82-12.42-62.17,5.02-62.17,5.02Z"/>
        <path class="cls-6" d="M496.3,316.93c-5.99-.04-11.78-1.42-11.83-1.44-.32-.08-.56-.32-.64-.64-.06-.24-5.81-24.66-17.57-49.73-10.83-23.09-29.12-51.6-54.79-56.25-26.3-4.77-38.51-14.52-44.12-21.87-6.17-8.08-5.98-14.97-5.97-15.25,0-.23,.1-.44,.27-.59,.19-.18,4.83-4.53,15.01-7.37,5.53-1.54,11.71-2.33,18.36-2.33,9.18,0,19.15,1.51,29.62,4.47,13.26,3.78,25.34,11.31,35.89,22.39,8.96,9.42,17.07,21.65,24.08,36.37,12.75,26.75,19.66,56.82,24.24,76.72l.02,.11c.64,2.79,1.25,5.43,1.82,7.83,.03,.13,.03,.26,0,.4-1.14,4.7-6.01,7.19-14.09,7.19h-.31Zm-10.92-3c1.46,.32,6.14,1.24,10.95,1.28h.3c4.94,0,11.07-.99,12.36-5.68-.56-2.36-1.15-4.94-1.78-7.67-4.58-19.9-11.47-49.85-24.13-76.44-15.03-31.54-34.84-51-58.89-57.85-10.32-2.93-20.13-4.41-29.15-4.41-6.47,0-12.47,.76-17.84,2.25-8.38,2.33-12.9,5.75-14.07,6.74,.06,1.57,.64,7.3,5.65,13.84,5.43,7.09,17.31,16.52,43.03,21.18,11.69,2.12,22.85,9.11,33.16,20.79,8.2,9.28,15.9,21.54,22.88,36.43,10.9,23.25,16.64,45.8,17.55,49.54Z"/>
      </g>
      <g>
        <path class="cls-6" d="M404.55,70.6s1.92,10.77,0,11.93c-1.92,1.15-9.1-.77-8.97-1.41s1.66-9.36,1.66-9.36l7.31-1.15Z"/>
        <path class="cls-6" d="M402.63,83.24c-2.61,0-6.29-1.05-7.09-1.6-.25-.18-.36-.38-.32-.59,.13-.63,1.64-9.27,1.66-9.35,.03-.15,.15-.27,.3-.29l7.31-1.15c.19-.03,.38,.1,.41,.29,.33,1.84,1.86,11.08-.17,12.3-.49,.29-1.24,.41-2.11,.41Zm-6.67-2.19c.79,.6,6.75,2.16,8.41,1.16,1.15-.69,.64-6.85-.11-11.21l-6.71,1.06c-.25,1.39-1.38,7.85-1.59,8.98Z"/>
      </g>
      <g>
        <path class="cls-3" d="M447.16,129.02c-2.79,.51-5.88,1.53-12.27,4.09-18.13,4.82,3.02-41.97-27.66-51.4l-1.83,66.31c20.19,2.79,38.11-9.4,42.23-10.22,2.53-.5,3.9-8.85-.48-8.78Z"/>
        <path class="cls-6" d="M411.51,149.29c-2.1,0-4.19-.14-6.22-.42-.44-.06-.75-.44-.74-.87l1.83-66.31c0-.27,.14-.52,.36-.67,.15-.1,.32-.16,.5-.16,.08,0,.17,.01,.25,.04,17.81,5.48,18.73,23.27,19.39,36.27,.35,6.89,.66,12.84,3.29,14.76,.64,.46,1.4,.69,2.34,.69,.63,0,1.35-.11,2.14-.31,6.34-2.54,9.47-3.58,12.35-4.11h.04s.14-.02,.14-.02c2.03,0,3.37,1.42,3.63,3.8,.29,2.75-.96,6.27-3.01,6.68-.85,.17-2.66,1.02-4.75,2.01-6.85,3.24-18.3,8.64-31.54,8.64h-.01Zm-5.22-2.03c1.71,.2,3.46,.31,5.23,.31,12.85,0,24.08-5.3,30.79-8.47,2.39-1.13,4.1-1.94,5.17-2.15,.79-.16,1.88-2.55,1.64-4.81-.11-1.03-.53-2.27-1.89-2.27-2.69,.5-5.73,1.52-12.01,4.03l-.11,.04c-.93,.25-1.81,.38-2.6,.38-1.29,0-2.42-.34-3.35-1.02-3.29-2.4-3.6-8.42-3.99-16.05-.66-12.89-1.49-28.88-17.1-34.36l-1.78,64.38Z"/>
      </g>
      <g>
        <path class="cls-3" d="M447.45,129.9s8.66,.51,10.45,3.4,1.47,9.23,1.47,9.23c0,0-2.83,2.6-6.41,.45-3.58-2.15-3.72-6.41-6.22-6.67-3.08-2.31-1.22-5.83,.71-6.41Z"/>
        <path class="cls-6" d="M455.84,144.69c-1.13,0-2.25-.33-3.32-.97-1.98-1.19-2.99-2.93-3.81-4.34-.79-1.36-1.28-2.13-2.06-2.21-.16-.02-.31-.08-.43-.17-2.07-1.55-2.08-3.43-1.91-4.42,.29-1.61,1.5-3.09,2.89-3.5,.08-.02,.16-.04,.24-.04,.98,.06,9.21,.62,11.18,3.8,1.88,3.02,1.64,9.05,1.6,9.73-.01,.23-.11,.44-.28,.59-.07,.06-1.7,1.52-4.11,1.52Zm-8.75-9.19c1.51,.29,2.29,1.62,3.1,3.02,.76,1.3,1.61,2.77,3.21,3.73,.81,.49,1.64,.73,2.47,.73h0c1.25,0,2.21-.56,2.65-.87,.03-1.24,.04-6.11-1.36-8.35-1.18-1.89-6.54-2.76-9.61-2.98-.72,.29-1.4,1.2-1.56,2.11-.17,.98,.2,1.88,1.09,2.61Z"/>
      </g>
      <g>
        <path class="cls-3" d="M411.76,83.74c-6.89-4.49-16.55-5.77-30.44-2.81,0,0-15.57,.82-18.62,20.82-3.65,23.93-2.25,72.13-2.25,72.13,0,0,67.98,.55,72.55-16.62-7.08-11.23-13.19-16.41-11.97-38.44l-9.26-35.07Z"/>
        <path class="cls-6" d="M360.43,174.74c-.46,0-.83-.37-.84-.84-.06-1.98-1.33-48.74,2.26-72.28,1.62-10.65,6.8-15.94,10.85-18.5,4.26-2.7,8.12-3.01,8.55-3.04,4.94-1.06,9.57-1.6,13.67-1.6,6.97,0,12.63,1.49,17.32,4.54,.4,.26,.51,.79,.25,1.19-.16,.24-.43,.39-.72,.39-.17,0-.33-.05-.47-.14-4.4-2.87-9.76-4.26-16.38-4.26-3.99,0-8.5,.53-13.41,1.58l-.13,.02c-.15,0-3.8,.27-7.78,2.8-3.74,2.37-8.51,7.3-10.04,17.29-3.34,21.86-2.43,64.29-2.26,71.14,24.64-.03,66.75-3.35,70.78-15.63-.93-1.46-1.83-2.81-2.71-4.12-5.72-8.55-10.24-15.3-9.18-34.5,.02-.46,.39-.81,.85-.81,.53,.03,.89,.44,.86,.91-1.03,18.62,3.13,24.84,8.89,33.45,.96,1.43,1.94,2.9,2.95,4.49,.13,.2,.17,.45,.1,.68-1.99,7.49-15.02,12.67-38.72,15.38-15.64,1.79-31.11,1.88-34.06,1.88-.39,0-.6,0-.62,0Z"/>
      </g>
      <g>
        <polygon class="cls-6" points="435.58 168.83 463.63 150.48 462.17 150.48 437.57 164.75 435.58 168.83"/>
        <path class="cls-6" d="M435.58,169.19c-.09,0-.17-.03-.24-.09-.12-.11-.16-.28-.09-.43l2-4.08c.03-.06,.08-.12,.14-.15l24.6-14.27c.05-.03,.12-.05,.18-.05h1.45c.16,0,.3,.1,.34,.26,.05,.15-.01,.32-.15,.4l-28.05,18.35c-.06,.04-.13,.06-.2,.06Zm2.27-4.18l-1.37,2.81,25.94-16.97h-.15l-24.42,14.16Z"/>
      </g>
      <g>
        <polygon class="cls-6" points="402.36 154.34 437.76 165.03 435.58 168.83 400.7 157.26 402.36 154.34"/>
        <path class="cls-6" d="M435.58,169.19s-.08,0-.11-.02l-34.88-11.57c-.1-.03-.18-.11-.22-.21-.04-.1-.03-.21,.02-.31l1.67-2.92c.08-.15,.26-.21,.42-.17l35.39,10.69c.11,.03,.19,.11,.23,.21,.04,.1,.03,.22-.02,.31l-2.18,3.8c-.07,.11-.19,.18-.31,.18Zm-34.35-12.14l34.18,11.34,1.81-3.15-34.68-10.48-1.31,2.29Z"/>
      </g>
      <g>
        <path class="cls-3" d="M440.83,137.8c-1.15,.26-38.47,16.54-38.47,16.54l35.39,10.69,28.72-18.13-25.65-9.1Z"/>
        <path class="cls-6" d="M437.76,165.89c-.08,0-.17-.01-.25-.04l-35.39-10.69c-.34-.1-.59-.41-.61-.77-.02-.36,.18-.69,.51-.84,11.25-4.91,37.54-16.35,38.63-16.59h.05s.13-.02,.13-.02c.1,0,.19,.02,.29,.05l25.65,9.1c.31,.11,.53,.39,.57,.72,.04,.33-.12,.65-.4,.82l-28.72,18.13c-.14,.09-.3,.13-.46,.13Zm-.13-1.8l26.89-16.98-23.7-8.41c-2.65,1-23.85,10.2-35.97,15.49l32.78,9.9Z"/>
      </g>
      <g>
        <polygon class="cls-6" points="468.92 128.05 437.57 164.75 439.9 166.19 470.72 129.9 468.92 128.05"/>
        <path class="cls-6" d="M439.9,166.55c-.06,0-.13-.02-.19-.05l-2.32-1.44c-.09-.06-.15-.15-.17-.25s.01-.21,.08-.29l31.34-36.7c.07-.08,.16-.12,.26-.13,.1,0,.2,.04,.27,.11l1.81,1.85c.13,.13,.14,.34,.02,.48l-30.82,36.29c-.07,.08-.17,.13-.27,.13Zm-1.78-1.89l1.71,1.06,30.41-35.8-1.3-1.33-30.81,36.08Z"/>
      </g>
      <g>
        <polygon class="cls-6" points="499.77 110.47 468.92 128.05 470.72 129.9 500.92 112.27 499.77 110.47"/>
        <path class="cls-6" d="M470.72,130.26c-.09,0-.19-.04-.26-.11l-1.81-1.85c-.08-.08-.11-.19-.1-.3,.02-.11,.08-.21,.18-.26l30.86-17.58c.17-.1,.38-.04,.48,.12l1.14,1.8c.05,.08,.07,.18,.05,.28s-.08,.18-.17,.23l-30.19,17.63c-.06,.03-.12,.05-.18,.05Zm-1.22-2.13l1.28,1.32,29.63-17.3-.76-1.2-30.15,17.18Z"/>
      </g>
      <g>
        <polygon class="cls-3" points="439.9 166.19 471.99 147.06 500.92 112.27 470.72 129.9 439.9 166.19"/>
        <path class="cls-6" d="M439.9,167.05c-.25,0-.49-.11-.66-.3-.27-.33-.27-.79,0-1.11l30.82-36.29c.06-.07,.14-.14,.22-.19l30.19-17.63c.13-.08,.28-.12,.43-.12,.25,0,.49,.11,.66,.3,.27,.32,.27,.79,0,1.11l-28.92,34.79c-.06,.07-.14,.14-.22,.19l-32.1,19.13c-.13,.08-.28,.12-.44,.12Zm4.01-4.25l27.52-16.4,25.71-30.93-25.85,15.1-27.38,32.23Z"/>
      </g>
      <g>
        <path class="cls-3" d="M376.85,82s-43.25,12.91-30.59,57.2c9.49,33.23,49.68,13.24,59.66,7.68,4.04-2.16,2.62-8.22-2.65-8.12-1.52,.56-3.27,1.24-5.32,2.06-11.39,4.56-40.91,.32-34.74-25.82l13.66-33Z"/>
        <path class="cls-6" d="M370.58,158.77c-4.13,0-7.85-.67-11.06-2-6.88-2.84-11.62-8.67-14.09-17.33-2.93-10.26-3.12-19.72-.55-28.11,2.06-6.72,5.87-12.77,11.34-17.96,9.24-8.77,20.28-12.16,20.39-12.19,.08-.02,.16-.04,.25-.04,.38,0,.71,.25,.82,.61,.14,.46-.12,.94-.58,1.07-.11,.03-10.74,3.28-19.71,11.81-8.24,7.83-16.71,21.88-10.3,44.33,2.32,8.13,6.73,13.58,13.09,16.21,3.01,1.24,6.52,1.88,10.42,1.88,13.81,0,29-7.64,34.89-10.93,1.49-.8,2.18-2.3,1.78-3.84-.32-1.23-1.52-2.66-3.86-2.67-1.46,.54-3.15,1.2-5.16,2-2.61,1.04-6.17,1.62-10.01,1.62-7.96,0-15.29-2.38-20.11-6.54-5.95-5.12-7.94-12.69-5.77-21.9,.09-.39,.44-.66,.84-.66h.06l.14,.02c.46,.11,.74,.57,.64,1.03-2.02,8.54-.21,15.53,5.22,20.2,4.52,3.9,11.44,6.13,18.96,6.13,3.58,0,7.01-.55,9.4-1.51,2.1-.84,3.84-1.52,5.34-2.07,.09-.03,.19-.05,.29-.05h.13c2.76,0,4.94,1.55,5.57,3.95,.6,2.3-.46,4.62-2.62,5.78-6,3.34-21.5,11.13-35.74,11.13h0Z"/>
      </g>
      <g>
        <path class="cls-3" d="M397.39,85.32l.78-11.45s16.31,5.53,16.82-21.36c.31-16.31-14.13-20.33-22.53-11.75-8.4,8.58-3.58,23.19-5.62,29.4-1.36,4.12-6.07,10.05-7.79,13.71-.88,1.86,12.87,9.67,18.35,1.45Z"/>
        <path class="cls-6" d="M390.07,89.85c-4.09,0-7.65-1.83-8.65-2.39-1.19-.67-3.89-2.41-3.17-3.96,.73-1.56,1.96-3.46,3.26-5.48,1.84-2.86,3.74-5.81,4.5-8.13,.64-1.95,.56-4.88,.45-8.28-.2-6.9-.46-15.5,5.37-21.45,2.89-2.96,6.73-4.65,10.54-4.65,1.7,0,3.33,.33,4.87,.97,5.53,2.32,8.74,8.32,8.59,16.05-.2,10.31-2.7,17.22-7.44,20.55-2.01,1.41-4.32,2.12-6.87,2.12-1.05,0-1.95-.13-2.58-.25l-.71,10.42c0,.15-.06,.29-.14,.42-1.77,2.66-4.55,4.06-8.03,4.06Zm-10.19-5.77c.16,.26,.78,.97,2.38,1.88,1.86,1.05,4.88,2.17,7.78,2.17s5.03-1.05,6.49-3.11l.76-11.21c.02-.26,.16-.51,.38-.66,.14-.1,.31-.15,.48-.15,.09,0,.19,.02,.28,.05,.01,0,1.28,.42,3.08,.42,2.22,0,4.21-.61,5.9-1.8,4.26-3,6.52-9.45,6.7-19.18,.14-7.11-2.61-12.37-7.54-14.43-1.33-.56-2.74-.84-4.21-.84-3.34,0-6.74,1.51-9.31,4.13-5.32,5.43-5.08,13.62-4.88,20.2,.1,3.56,.2,6.64-.54,8.87-.83,2.53-2.79,5.57-4.68,8.52-1.22,1.9-2.38,3.7-3.08,5.14Z"/>
      </g>
    </g>
    <g>
      <path class="cls-6" d="M370.03,84.85s8.11-2.45,12.73-3.31c10.6-2.52,9.15-13.63,8.46-21.5-.68-7.86,2.39-9.57,3.76-8.72s6.05-.68,7.38-3.93c8.52,.17,7.83,8.15,14.7,9.52,0,0,7.61-10.89,2.17-18.41s-13.3-4.79-13.3-4.79c0,0-9.75-8.55-20.18,.51-10.43,9.06-16.41,44.51-15.72,50.62Z"/>
      <path class="cls-6" d="M370.03,85.2c-.07,0-.14-.02-.2-.06-.09-.06-.15-.15-.16-.26-.36-3.23,1.04-13.78,3.7-24.33,1.94-7.68,6.09-21.34,12.14-26.6,9.82-8.53,19.17-1.69,20.49-.64,1.28-.36,8.47-2.01,13.52,4.98,5.53,7.64-1.85,18.38-2.16,18.83-.08,.12-.22,.17-.37,.15-3.25-.65-4.88-2.72-6.46-4.73-1.86-2.37-3.63-4.61-7.93-4.77-.94,2.01-3.02,3.29-4.7,3.83-1.31,.42-2.47,.44-3.1,.04-.35-.22-.83-.19-1.29,.09-.59,.36-2.47,2.03-1.92,8.29l.09,.97c.7,7.77,1.65,18.42-8.82,20.91-4.57,.84-12.63,3.28-12.71,3.3-.03,.01-.07,.02-.1,.02Zm25.98-54.82c-3,0-6.46,1.01-10.02,4.11-9.97,8.66-16.03,42.66-15.63,49.88,1.74-.52,8.36-2.45,12.34-3.19,9.85-2.34,8.97-12.21,8.26-20.14l-.09-.98c-.56-6.5,1.4-8.44,2.26-8.97,.69-.42,1.46-.46,2.05-.09,.44,.28,1.42,.23,2.5-.12,1.59-.51,3.57-1.74,4.36-3.65,.06-.14,.18-.22,.34-.22,4.82,.1,6.8,2.62,8.72,5.06,1.53,1.94,2.97,3.78,5.8,4.42,.97-1.49,6.87-11.12,2.04-17.8-5.21-7.21-12.58-4.77-12.89-4.66-.12,.04-.26,.02-.35-.07-.25-.22-4.2-3.59-9.68-3.59Z"/>
    </g>
    <g>
      <path class="cls-3" d="M403.72,139.84s9.87-3.53,15-1.22c5.13,2.31,6.6,14.87,6.6,14.87,0,0-.32,.83-1.73,0s-3.59-8.23-3.59-8.23c0,0-.77,3.94-4.04,4.84s-6.86-1.8-7.72-2.82-4.52-1.42-4.52-1.42c0,0-1.73-3.32,0-6.01Z"/>
      <path class="cls-6" d="M424.67,154.73c-.45,0-.96-.17-1.51-.49-.9-.53-1.99-2.68-3.24-6.39-.68,1.2-1.83,2.56-3.73,3.08-.5,.14-1.04,.21-1.59,.21-3.17,0-6.15-2.27-7.02-3.3-.34-.41-2.19-.93-3.96-1.12-.28-.03-.54-.2-.67-.46-.08-.15-1.94-3.79,.04-6.87,.1-.16,.25-.28,.43-.34,.23-.08,5.81-2.06,10.83-2.06,1.92,0,3.54,.29,4.82,.86,5.51,2.48,7.04,15.03,7.1,15.56,.02,.14,0,.28-.05,.41-.04,.1-.26,.61-.89,.83-.18,.06-.37,.09-.57,.09Zm-4.67-10.32c.38,0,.72,.25,.82,.62,1.11,3.77,2.61,7.39,3.2,7.74,.14,.08,.26,.14,.35,.18-.67-4.55-2.6-11.99-6.01-13.53-1.04-.47-2.41-.71-4.07-.71-4.12,0-8.73,1.43-10,1.85-.91,1.68-.33,3.65,.01,4.51,1.28,.18,3.73,.64,4.59,1.66,.58,.69,3.12,2.7,5.68,2.7h0c.4,0,.8-.05,1.16-.15,2.69-.74,3.42-4.14,3.42-4.17,.08-.39,.41-.67,.8-.69h.04Z"/>
    </g>
    <path class="cls-6" d="M314.53,268.38c-.2,0-.4-.12-.49-.32-.12-.27,0-.59,.27-.72l54.54-24.96c.27-.12,.59,0,.72,.27,.12,.27,0,.59-.27,.72l-54.54,24.96c-.07,.03-.15,.05-.22,.05Z"/>
    <path class="cls-6" d="M303.08,288.04c-.2,0-.4-.12-.49-.31-.13-.27-.01-.59,.26-.72l54.03-25.32c.27-.13,.59-.01,.72,.26,.13,.27,.01,.59-.26,.72l-54.03,25.32c-.07,.03-.15,.05-.23,.05Z"/>
    <path class="cls-6" d="M292.71,307.16c-.2,0-.4-.12-.49-.31-.13-.27-.01-.59,.26-.72l56.53-26.47c.27-.13,.59-.01,.72,.26,.13,.27,.01,.59-.26,.72l-56.53,26.47c-.07,.03-.15,.05-.23,.05Z"/>
    <path class="cls-6" d="M271.86,176.67c-.19,0-.38-.1-.48-.29-.14-.26-.04-.59,.22-.73l46.52-24.71c.26-.14,.59-.04,.73,.22,.14,.26,.04,.59-.22,.73l-46.52,24.71c-.08,.04-.17,.06-.25,.06Z"/>
    <path class="cls-6" d="M243.31,201.51c-.2,0-.39-.11-.49-.31-.13-.27-.02-.59,.25-.72l61.24-29.45c.27-.13,.59-.02,.72,.25,.13,.27,.02,.59-.25,.72l-61.24,29.45c-.08,.04-.16,.05-.23,.05Z"/>
    <path class="cls-6" d="M233.4,236.25c-.2,0-.38-.11-.48-.29-.14-.27-.03-.59,.23-.73l71.3-36.67c.26-.14,.59-.03,.73,.23,.14,.27,.03,.59-.23,.73l-71.3,36.67c-.08,.04-.16,.06-.25,.06Z"/>
    <path class="cls-6" d="M269.04,248.99c-.17,0-.34-.08-.45-.24-.17-.25-.1-.58,.15-.75l20.94-14.02c.25-.17,.58-.1,.75,.15,.17,.25,.1,.58-.15,.75l-20.94,14.02c-.09,.06-.2,.09-.3,.09Z"/>
    <path class="cls-6" d="M232.21,222.06c-.2,0-.39-.11-.49-.3-.13-.27-.02-.59,.25-.72l66.94-32.57c.27-.13,.59-.02,.72,.25,.13,.27,.02,.59-.25,.72l-66.94,32.57c-.08,.04-.16,.05-.24,.05Z"/>
    <path class="cls-6" d="M261.28,103.66c-.19,0-.37-.1-.47-.28-.15-.26-.05-.59,.21-.73l57.11-31.8c.26-.14,.59-.05,.73,.21,.15,.26,.05,.59-.21,.73l-57.11,31.8c-.08,.05-.17,.07-.26,.07Z"/>
    <g>
      <path class="cls-6" d="M99.33,170.57c-.14,0-.27-.03-.4-.09l-27.86-12.58c-.32-.14-.55-.46-.59-.82-.04-.36,.1-.72,.37-.94l24.08-19.6c.17-.14,.39-.22,.62-.22,.14,0,.27,.03,.4,.09,.32,.15,.55,.46,.59,.82l3.78,32.18c.04,.36-.1,.72-.37,.94-.17,.14-.39,.22-.62,.22Zm-1.2-2.71l-3.35-28.56-21.37,17.4,24.73,11.16Z"/>
      <g>
        <polygon class="cls-6" points="59.92 265.38 49.08 263.49 38.25 261.6 45.19 252.47 52.13 243.35 56.02 254.36 59.92 265.38"/>
        <path class="cls-6" d="M59.92,265.73s-.04,0-.05,0l-21.67-3.78c-.12-.02-.22-.11-.26-.23-.04-.12-.02-.25,.05-.35l13.89-18.25c.07-.1,.19-.15,.31-.13,.12,.02,.22,.11,.26,.23l7.78,22.03c.04,.12,.02,.25-.05,.35-.06,.08-.16,.13-.26,.13Zm-21.05-4.39l20.54,3.58-7.38-20.88-13.16,17.29Z"/>
      </g>
    </g>
    <g>
      <path class="cls-3" d="M387.4,91.68l.84,.16s.34,.07,.87,.07c1.06,0,2.63-.25,4.03-1.43l.42-.35,.31,.45c2.83,4.01,2.48,18.23,2.21,24.16l-.97,.13-7.71-23.19Z"/>
      <path class="cls-6" d="M395.56,115.57c-.5-.02-.86-.43-.84-.9,.2-4.18,.64-17.79-1.53-22.55-1.49,.94-3.01,1.15-4.07,1.15-.64,0-1.07-.08-1.15-.09-.46-.09-.77-.55-.68-1.01,.08-.4,.43-.69,.84-.69h.05l.12,.02s.31,.06,.78,.06c1.01,0,2.5-.23,3.82-1.34,.15-.13,.35-.2,.56-.2h.11c.24,.04,.46,.17,.6,.36,2.79,3.95,2.62,16.98,2.27,24.39-.02,.46-.4,.82-.86,.82h-.02Z"/>
    </g>
    <g>
      <path class="cls-3" d="M417.78,98.13l.95-.29c.16,.36,3.82,8.8,2.95,16.16l-.99,.03-2.91-15.9Z"/>
      <path class="cls-6" d="M421.1,114.79c-.48-.06-.82-.49-.76-.96,.82-7-2.81-15.37-2.84-15.45-.19-.44,0-.94,.44-1.13,.11-.05,.23-.07,.35-.07,.34,0,.65,.2,.79,.51,.16,.36,3.86,8.89,2.98,16.35-.05,.43-.42,.76-.85,.76h-.09Z"/>
    </g>
    <path class="cls-6" d="M320.98,314.51c-.2,0-.4-.12-.49-.31-.13-.27-.01-.59,.26-.72l31.41-14.7c.27-.13,.59-.01,.72,.26,.13,.27,.01,.59-.26,.72l-31.41,14.7c-.07,.03-.15,.05-.23,.05Z"/>
    <g>
      <path class="cls-6" d="M394.17,32s-2.6-13.21-13.72-7.69c-11.12,5.51-4.36,31.42-4.36,31.42l18.08-23.72Z"/>
      <path class="cls-6" d="M376.09,56.08s-.05,0-.07,0c-.14-.03-.24-.13-.28-.26-.28-1.07-6.7-26.25,4.55-31.83,3.23-1.6,6.08-1.81,8.48-.63,4.44,2.19,5.7,8.32,5.75,8.58,.02,.1,0,.21-.07,.29l-18.08,23.72c-.07,.09-.17,.14-.29,.14Zm9.39-32.76c-1.49,0-3.11,.44-4.87,1.31-9.7,4.81-5.33,26.05-4.35,30.27l17.52-22.99c-.22-.96-1.58-6.07-5.33-7.92-.91-.45-1.91-.67-2.97-.67Z"/>
    </g>
    <g>
      <polygon class="cls-5" points="471.41 213.45 466.48 221.81 475.17 218.53 472.26 224.69 476.54 224.69 471.41 213.45"/>
      <path class="cls-6" d="M476.54,225.05h-4.27c-.12,0-.24-.06-.3-.17-.07-.1-.07-.23-.02-.35l2.53-5.35-7.86,2.96c-.14,.05-.3,.01-.4-.11-.1-.12-.11-.28-.03-.41l4.93-8.35c.1-.17,.32-.23,.49-.13,.17,.1,.23,.32,.13,.49l-4.41,7.48,7.73-2.92c.14-.05,.29-.02,.39,.09,.1,.11,.12,.27,.06,.4l-2.66,5.64h3.71c.2,0,.36,.16,.36,.36s-.16,.36-.36,.36Z"/>
    </g>
    <g>
      <polygon class="cls-5" points="496.13 205.26 492.44 210.84 497.91 210.84 493.29 214.94 496.13 216.48 496.13 205.26"/>
      <path class="cls-6" d="M496.13,216.84c-.06,0-.12-.01-.17-.04l-2.84-1.54c-.1-.06-.17-.16-.19-.27s.03-.23,.12-.31l3.91-3.47h-4.53c-.13,0-.25-.07-.32-.19-.06-.12-.06-.26,.02-.37l3.69-5.58c.11-.17,.33-.21,.5-.1,.17,.11,.21,.33,.1,.5l-3.32,5.02h4.8c.15,0,.28,.09,.34,.23s.01,.3-.1,.4l-4.23,3.76,2.39,1.29c.17,.09,.24,.31,.14,.49-.06,.12-.19,.19-.32,.19Z"/>
    </g>
  </g>
  <g>
    <g>
      <g>
        <path class="cls-6" d="M1023.5,525.15l163.91-8.18-45.57-243c-2.18-11.78-11.92-20.29-23.25-20.29h-120.47c-14.91,0-26.12,14.42-23.25,29.93l48.64,241.54Z"/>
        <path class="cls-6" d="M1023.5,525.45c-.13,0-.25-.1-.28-.24l-48.64-241.54c-1.38-7.48,.45-15.15,5.02-21.03,4.57-5.88,11.32-9.26,18.51-9.26h120.47c11.44,0,21.34,8.63,23.53,20.53l45.57,243c.02,.09,0,.17-.05,.24-.05,.07-.13,.11-.21,.11l-163.91,8.18s0,0-.01,0Zm-25.38-271.46c-7.02,0-13.61,3.29-18.07,9.04-4.46,5.74-6.25,13.23-4.9,20.53l48.59,241.28,163.34-8.15-45.51-242.66c-2.14-11.62-11.81-20.04-22.98-20.04h-120.47Z"/>
      </g>
      <g>
        <path class="cls-6" d="M1035.1,244.22h10.86s-1.96-10.43-1.96-10.43c-1.12-5.98,2.55-10.84,8.19-10.84h0c5.65,0,11.14,4.85,12.26,10.84l1.96,10.43h10.72c3.17,0,6.02,2.06,7.18,5.19l3.58,9.68h-58.82s-1.29-4.11-1.29-4.11c-1.66-5.29,2.05-10.75,7.32-10.75Z"/>
        <path class="cls-6" d="M1087.9,259.38h-58.82c-.12,0-.23-.08-.27-.21l-1.29-4.11c-.82-2.61-.42-5.4,1.1-7.63,1.52-2.24,3.88-3.52,6.49-3.52h10.52l-1.89-10.07c-.57-3.02,.03-5.86,1.67-7.98,1.6-2.07,4.02-3.21,6.8-3.21,5.77,0,11.39,4.97,12.54,11.08l1.91,10.19h10.49c3.31,0,6.23,2.11,7.44,5.38l3.58,9.68c.03,.09,.02,.2-.03,.28-.05,.08-.14,.13-.23,.13Zm-58.62-.6h58.2l-3.43-9.27c-1.12-3.04-3.84-5-6.92-5h-10.72c-.14,0-.25-.1-.28-.24l-1.96-10.43c-1.1-5.84-6.47-10.59-11.98-10.59-2.61,0-4.87,1.06-6.36,2.99-1.54,1.98-2.09,4.64-1.56,7.49l1.96,10.43c.02,.09,0,.18-.06,.25s-.13,.11-.22,.11h-10.86c-2.42,0-4.61,1.19-6.03,3.27-1.41,2.08-1.78,4.66-1.02,7.09l1.23,3.9Z"/>
      </g>
      <g>
        <path class="cls-3" d="M981.36,282.5c-1.45-7.87,.59-15.83,5.59-21.85,4.59-5.51,11.2-8.67,18.15-8.67h120.47c11.55,0,21.53,8.7,23.75,20.7l45.67,243.56-164.91,8.23-48.72-241.96Z"/>
        <path class="cls-6" d="M1030.49,524.74c-.37,0-.69-.27-.77-.64l-48.64-241.54c-1.41-7.63,.46-15.44,5.12-21.44,4.67-6.01,11.56-9.45,18.91-9.45h120.47c11.68,0,21.79,8.81,24.03,20.94l45.57,243c.04,.22-.01,.45-.14,.63-.14,.19-.36,.31-.59,.32l-163.92,8.18h-.03Zm-25.38-271.46c-6.87,0-13.31,3.22-17.68,8.85-4.38,5.63-6.13,12.97-4.8,20.13l48.5,240.85,162.34-8.1-45.4-242.1c-2.1-11.38-11.56-19.64-22.49-19.64h-120.47Z"/>
      </g>
      <g>
        <ellipse class="cls-3" cx="1123.83" cy="302.46" rx="12.48" ry="11.43"/>
        <path class="cls-6" d="M1123.83,314.19c-7.04,0-12.77-5.26-12.77-11.73s5.73-11.73,12.77-11.73,12.77,5.26,12.77,11.73-5.73,11.73-12.77,11.73Zm0-22.87c-6.73,0-12.2,4.99-12.2,11.13s5.47,11.13,12.2,11.13,12.2-4.99,12.2-11.13-5.47-11.13-12.2-11.13Z"/>
      </g>
      <g>
        <ellipse class="cls-6" cx="1129.12" cy="330.06" rx="12.48" ry="11.43"/>
        <path class="cls-6" d="M1129.12,341.79c-7.04,0-12.77-5.26-12.77-11.73s5.73-11.73,12.77-11.73,12.77,5.26,12.77,11.73-5.73,11.73-12.77,11.73Zm0-22.87c-6.73,0-12.2,4.99-12.2,11.13s5.47,11.13,12.2,11.13,12.2-4.99,12.2-11.13-5.47-11.13-12.2-11.13Z"/>
      </g>
      <g>
        <ellipse class="cls-3" cx="1134.41" cy="356.31" rx="12.48" ry="11.43"/>
        <path class="cls-6" d="M1134.41,368.04c-7.04,0-12.77-5.26-12.77-11.73s5.73-11.73,12.77-11.73,12.77,5.26,12.77,11.73-5.73,11.73-12.77,11.73Zm0-22.87c-6.73,0-12.2,4.99-12.2,11.13s5.47,11.13,12.2,11.13,12.2-4.99,12.2-11.13-5.47-11.13-12.2-11.13Z"/>
      </g>
      <g>
        <ellipse class="cls-3" cx="1138.85" cy="382" rx="12.48" ry="11.43"/>
        <path class="cls-6" d="M1138.85,393.73c-7.04,0-12.77-5.26-12.77-11.73s5.73-11.73,12.77-11.73,12.77,5.26,12.77,11.73-5.73,11.73-12.77,11.73Zm0-22.87c-6.73,0-12.2,4.99-12.2,11.13s5.47,11.13,12.2,11.13,12.2-4.99,12.2-11.13-5.47-11.13-12.2-11.13Z"/>
      </g>
      <g>
        <ellipse class="cls-3" cx="1144.99" cy="411.88" rx="12.48" ry="11.43"/>
        <path class="cls-6" d="M1144.99,423.62c-7.04,0-12.77-5.26-12.77-11.73s5.73-11.73,12.77-11.73,12.77,5.26,12.77,11.73-5.73,11.73-12.77,11.73Zm0-22.87c-6.73,0-12.2,4.99-12.2,11.13s5.47,11.13,12.2,11.13,12.2-4.99,12.2-11.13-5.47-11.13-12.2-11.13Z"/>
      </g>
      <g>
        <ellipse class="cls-3" cx="1149.64" cy="439.68" rx="12.48" ry="11.43"/>
        <path class="cls-6" d="M1149.64,451.41c-7.04,0-12.77-5.26-12.77-11.73s5.73-11.73,12.77-11.73,12.77,5.26,12.77,11.73-5.73,11.73-12.77,11.73Zm0-22.87c-6.73,0-12.2,4.99-12.2,11.13s5.47,11.13,12.2,11.13,12.2-4.99,12.2-11.13-5.47-11.13-12.2-11.13Z"/>
      </g>
      <g>
        <ellipse class="cls-3" cx="1156.56" cy="466.58" rx="12.48" ry="11.43"/>
        <path class="cls-6" d="M1156.56,478.32c-7.04,0-12.77-5.26-12.77-11.73s5.73-11.73,12.77-11.73,12.77,5.26,12.77,11.73-5.73,11.73-12.77,11.73Zm0-22.87c-6.73,0-12.2,4.99-12.2,11.13s5.47,11.13,12.2,11.13,12.2-4.99,12.2-11.13-5.47-11.13-12.2-11.13Z"/>
      </g>
      <g>
        <g>
          <polygon class="cls-3" points="1111.35 361.82 1020.94 361.82 1019.16 353.51 1109.57 353.51 1111.35 361.82"/>
          <polygon class="cls-3" points="1116.64 389.42 1026.23 389.42 1024.45 381.11 1114.86 381.11 1116.64 389.42"/>
          <polygon class="cls-3" points="1121.93 417.02 1031.52 417.02 1029.74 408.71 1119.5 408.71 1121.93 417.02"/>
          <polygon class="cls-3" points="1127.22 444.62 1036.81 444.62 1035.03 436.31 1125.44 436.31 1127.22 444.62"/>
          <polygon class="cls-3" points="1133.99 471.1 1043.58 471.1 1041.81 462.79 1132.22 462.79 1133.99 471.1"/>
        </g>
        <g>
          <g>
            <polygon class="cls-3" points="1111.35 361.82 1020.94 361.82 1019.16 353.51 1109.57 353.51 1111.35 361.82"/>
            <path class="cls-6" d="M1111.35,362.12h-90.41c-.13,0-.25-.1-.28-.23l-1.77-8.31c-.02-.09,0-.18,.05-.25,.05-.07,.14-.11,.22-.11h90.41c.13,0,.25,.1,.28,.23l1.77,8.31c.02,.09,0,.18-.05,.25-.05,.07-.14,.11-.22,.11Zm-90.18-.6h89.83l-1.65-7.71h-89.83l1.65,7.71Z"/>
          </g>
          <g>
            <polygon class="cls-4" points="1116.64 389.42 1026.23 389.42 1024.45 381.11 1114.86 381.11 1116.64 389.42"/>
            <path class="cls-6" d="M1116.64,389.72h-90.41c-.13,0-.25-.1-.28-.23l-1.77-8.31c-.02-.09,0-.18,.05-.25,.05-.07,.14-.11,.22-.11h90.41c.13,0,.25,.1,.28,.23l1.77,8.31c.02,.09,0,.18-.05,.25-.05,.07-.14,.11-.22,.11Zm-90.18-.6h89.83l-1.65-7.71h-89.83l1.65,7.71Z"/>
          </g>
          <g>
            <polygon class="cls-3" points="1121.93 417.02 1031.52 417.02 1029.74 408.71 1119.5 408.71 1121.93 417.02"/>
            <path class="cls-6" d="M1121.93,417.32h-90.41c-.13,0-.25-.1-.28-.23l-1.77-8.31c-.02-.09,0-.18,.05-.25,.05-.07,.14-.11,.22-.11h89.75c.12,0,.23,.09,.27,.21l2.43,8.31c.03,.09,.01,.19-.04,.27-.05,.08-.14,.12-.23,.12Zm-90.18-.6h89.8l-2.26-7.71h-89.19l1.65,7.71Z"/>
          </g>
          <g>
            <polygon class="cls-4" points="1127.22 444.62 1036.81 444.62 1035.03 436.31 1125.44 436.31 1127.22 444.62"/>
            <path class="cls-6" d="M1127.22,444.92h-90.41c-.13,0-.25-.1-.28-.23l-1.77-8.31c-.02-.09,0-.18,.05-.25s.14-.11,.22-.11h90.41c.13,0,.25,.1,.28,.23l1.77,8.31c.02,.09,0,.18-.05,.25s-.14,.11-.22,.11Zm-90.18-.6h89.83l-1.65-7.71h-89.83l1.65,7.71Z"/>
          </g>
          <g>
            <polygon class="cls-3" points="1133.99 471.1 1043.58 471.1 1041.81 462.79 1132.22 462.79 1133.99 471.1"/>
            <path class="cls-6" d="M1133.99,471.4h-90.41c-.13,0-.25-.1-.28-.23l-1.77-8.31c-.02-.09,0-.18,.05-.25s.14-.11,.22-.11h90.41c.13,0,.25,.1,.28,.23l1.77,8.31c.02,.09,0,.18-.05,.25-.05,.07-.14,.11-.22,.11Zm-90.18-.6h89.83l-1.65-7.71h-89.83l1.65,7.71Z"/>
          </g>
        </g>
        <g>
          <path class="cls-6" d="M1111.35,362.12h-90.41c-.13,0-.25-.1-.28-.23l-1.77-8.31c-.02-.09,0-.18,.05-.25,.05-.07,.14-.11,.22-.11h90.41c.13,0,.25,.1,.28,.23l1.77,8.31c.02,.09,0,.18-.05,.25-.05,.07-.14,.11-.22,.11Zm-90.18-.6h89.83l-1.65-7.71h-89.83l1.65,7.71Z"/>
          <path class="cls-6" d="M1116.64,389.72h-90.41c-.13,0-.25-.1-.28-.23l-1.77-8.31c-.02-.09,0-.18,.05-.25,.05-.07,.14-.11,.22-.11h90.41c.13,0,.25,.1,.28,.23l1.77,8.31c.02,.09,0,.18-.05,.25-.05,.07-.14,.11-.22,.11Zm-90.18-.6h89.83l-1.65-7.71h-89.83l1.65,7.71Z"/>
          <path class="cls-6" d="M1121.93,417.32h-90.41c-.13,0-.25-.1-.28-.23l-1.77-8.31c-.02-.09,0-.18,.05-.25,.05-.07,.14-.11,.22-.11h89.75c.12,0,.23,.09,.27,.21l2.43,8.31c.03,.09,.01,.19-.04,.27-.05,.08-.14,.12-.23,.12Zm-90.18-.6h89.8l-2.26-7.71h-89.19l1.65,7.71Z"/>
          <path class="cls-6" d="M1127.22,444.92h-90.41c-.13,0-.25-.1-.28-.23l-1.77-8.31c-.02-.09,0-.18,.05-.25s.14-.11,.22-.11h90.41c.13,0,.25,.1,.28,.23l1.77,8.31c.02,.09,0,.18-.05,.25s-.14,.11-.22,.11Zm-90.18-.6h89.83l-1.65-7.71h-89.83l1.65,7.71Z"/>
          <path class="cls-6" d="M1133.99,471.4h-90.41c-.13,0-.25-.1-.28-.23l-1.77-8.31c-.02-.09,0-.18,.05-.25s.14-.11,.22-.11h90.41c.13,0,.25,.1,.28,.23l1.77,8.31c.02,.09,0,.18-.05,.25-.05,.07-.14,.11-.22,.11Zm-90.18-.6h89.83l-1.65-7.71h-89.83l1.65,7.71Z"/>
        </g>
      </g>
      <g>
        <path class="cls-3" d="M1038.2,244.22h10.86s-1.96-10.43-1.96-10.43c-1.12-5.98,2.55-10.84,8.19-10.84h0c5.65,0,11.14,4.85,12.26,10.84l1.96,10.43h10.72c3.17,0,6.02,2.06,7.18,5.19l3.58,9.68h-58.82s-1.29-4.11-1.29-4.11c-1.66-5.29,2.05-10.75,7.32-10.75Z"/>
        <path class="cls-6" d="M1032.18,259.88c-.34,0-.64-.22-.75-.55l-1.29-4.11c-.87-2.76-.45-5.7,1.16-8.06,1.61-2.38,4.13-3.74,6.9-3.74h9.91l-1.78-9.48c-.59-3.17,.03-6.14,1.77-8.38,1.7-2.19,4.25-3.4,7.19-3.4,6,0,11.84,5.15,13.03,11.48l1.83,9.78h10.08c3.52,0,6.63,2.24,7.91,5.7l3.58,9.68c.09,.24,.06,.51-.08,.72-.15,.23-.39,.36-.66,.36h-58.82Zm57.69-1.6l-3.18-8.59c-1.05-2.84-3.58-4.67-6.45-4.67h-10.72c-.38,0-.7-.27-.77-.65l-1.96-10.43c-1.05-5.62-6.21-10.19-11.49-10.19-2.45,0-4.57,.99-5.96,2.8-1.45,1.87-1.97,4.39-1.46,7.09l1.96,10.43c.04,.23-.02,.47-.16,.65-.15,.19-.37,.3-.61,.3h-10.86c-2.25,0-4.29,1.11-5.61,3.05-1.33,1.95-1.67,4.38-.96,6.66l1.12,3.55h57.12Z"/>
      </g>
      <g>
        <ellipse class="cls-6" cx="1056.86" cy="232.93" rx="3.88" ry="4.11"/>
        <path class="cls-6" d="M1056.86,237.34c-2.3,0-4.16-1.98-4.16-4.41s1.87-4.41,4.16-4.41,4.16,1.98,4.16,4.41-1.87,4.41-4.16,4.41Zm0-8.22c-1.98,0-3.6,1.71-3.6,3.81s1.61,3.81,3.6,3.81,3.6-1.71,3.6-3.81-1.61-3.81-3.6-3.81Z"/>
      </g>
    </g>
    <g>
      <path class="cls-6" d="M1529.73,335.48c-.19,0-.37-.06-.52-.16-.27-.19-.42-.51-.41-.84l1.32-24.06c.02-.33,.21-.64,.5-.79,.13-.07,.28-.11,.43-.11,.19,0,.37,.06,.52,.17l19.01,13.24c.27,.18,.42,.51,.4,.84-.02,.33-.21,.64-.5,.79l-20.33,10.82c-.13,.07-.28,.11-.43,.11Zm1.01-2.56l17.51-9.32-16.37-11.4-1.13,20.72Z"/>
      <g>
        <polygon class="cls-5" points="1478.62 303.9 1464.49 306.48 1450.35 309.06 1455.31 294.8 1460.26 280.54 1469.44 292.22 1478.62 303.9"/>
        <path class="cls-6" d="M1450.35,309.37c-.08,0-.16-.04-.22-.11-.06-.08-.08-.2-.05-.3l9.91-28.53c.03-.1,.12-.17,.22-.19,.1-.02,.2,.02,.27,.1l18.36,23.36c.06,.08,.08,.2,.05,.3-.03,.1-.12,.17-.22,.19l-28.27,5.17s-.03,0-.05,0Zm10.01-28.23l-9.57,27.55,27.3-4.99-17.73-22.56Z"/>
      </g>
    </g>
    <g>
      <path class="cls-3" d="M1460.31,534.46c0-11.13-136.4-20.15-304.65-20.15s-304.65,9.02-304.65,20.15c0,6.46,46.01,12.22,117.55,15.9-1.73,1.38-2.63,2.8-2.63,4.25,0,14.8,94.32,26.8,210.68,26.8s210.68-12,210.68-26.8c0-2.27-2.22-4.48-6.4-6.58,49.34-3.58,79.42-8.34,79.42-13.57Z"/>
      <path class="cls-6" d="M1176.61,582.21c-56.32,0-109.27-2.79-149.1-7.86-28.5-3.63-62.48-10-62.48-19.75,0-1.2,.52-2.39,1.55-3.55-34.94-1.83-63.88-4.19-83.75-6.82-29.32-3.88-32.71-7.44-32.71-9.78,0-6.03,30.3-11.09,90.06-15.05,57.57-3.81,134.1-5.9,215.49-5.9s157.92,2.1,215.49,5.9c59.76,3.95,90.06,9.02,90.06,15.05,0,5.57-26.09,10.34-77.57,14.17,3.02,1.91,4.55,3.92,4.55,5.98,0,9.75-33.98,16.12-62.48,19.75-39.83,5.07-92.79,7.86-149.1,7.86Zm-20.95-67.1c-81.36,0-157.84,2.09-215.35,5.9-27.96,1.85-49.89,4-65.2,6.39-21.53,3.37-23.2,6.25-23.2,7.05,0,1.22,3.04,4.48,31.18,8.2,20.18,2.67,49.75,5.06,85.52,6.9,.33,.02,.62,.19,.76,.46,.17,.32,.08,.7-.21,.94-1.55,1.24-2.34,2.47-2.34,3.65,0,6.52,22.78,13.31,60.94,18.16,39.75,5.06,92.61,7.84,148.84,7.84s109.09-2.79,148.84-7.84c38.16-4.85,60.94-11.64,60.94-18.16,0-1.89-2.06-3.92-5.95-5.89-.36-.18-.54-.57-.41-.93,.1-.31,.41-.54,.79-.56,57.95-4.2,78.59-9.35,78.59-12.77,0-.8-1.67-3.69-23.2-7.05-15.31-2.39-37.24-4.55-65.2-6.39-57.51-3.8-133.99-5.9-215.35-5.9Z"/>
    </g>
    <g>
      <g>
        <path class="cls-3" d="M1170.27,523.47c.05-.75,.09-1.37,.13-1.77,.3-3.46,2.19-7.38,2.19-7.38l-9.87-1.81s-3.45,3.65-7.94,6.9c4.46,3.65,10.19,5.16,15.49,4.06Z"/>
        <path class="cls-6" d="M1166.85,524.12c-4.31,0-8.7-1.57-12.24-4.47-.07-.06-.11-.15-.11-.25,0-.1,.05-.18,.12-.24,4.42-3.19,7.86-6.82,7.9-6.86,.07-.07,.16-.1,.25-.08l9.87,1.81c.09,.02,.16,.08,.21,.16,.04,.09,.04,.19,0,.27-.02,.04-1.87,3.91-2.16,7.27-.03,.4-.08,1.02-.13,1.76,0,.14-.1,.25-.23,.27-1.14,.24-2.31,.35-3.48,.35Zm-11.58-4.7c4.28,3.36,9.74,4.76,14.74,3.8,.04-.65,.08-1.18,.11-1.55,.25-2.9,1.57-6.06,2.05-7.12l-9.36-1.71c-.6,.62-3.67,3.74-7.55,6.59Zm15.01,4.05h0Z"/>
      </g>
      <g>
        <path class="cls-6" d="M1154.78,519.41c-3.1,2.24-6.69,4.28-9.99,4.79-8.27,1.67-12.41,9.39-12.41,9.39,0,0-.59,2.71,0,3.34,23.05,.21,37.24-1.88,37.24-1.88,0,0,.4-7.65,.66-11.59-5.31,1.1-11.03-.41-15.49-4.06Z"/>
        <path class="cls-6" d="M1135.57,537.25c-1.05,0-2.11,0-3.2-.01-.07,0-.15-.03-.2-.09-.67-.71-.18-3.14-.08-3.62,0-.03,.02-.06,.03-.08,.04-.08,4.3-7.86,12.61-9.54,2.81-.44,6.13-2.03,9.88-4.75,.1-.07,.24-.07,.33,.01,4.38,3.58,10.09,5.08,15.26,4,.09-.02,.18,0,.24,.07,.07,.06,.1,.15,.1,.25-.25,3.89-.66,11.51-.66,11.59,0,.14-.11,.26-.24,.28-.14,.02-13.14,1.9-34.08,1.9Zm-3.05-.61c21.11,.19,34.9-1.58,36.82-1.84,.07-1.3,.39-7.39,.62-10.96-5.17,.96-10.81-.55-15.19-4.05-3.76,2.69-7.1,4.28-9.94,4.72-7.75,1.56-11.86,8.63-12.19,9.21-.2,.96-.37,2.46-.13,2.93Z"/>
      </g>
      <g>
        <path class="cls-3" d="M1171.77,518.74c-4.43,0-11.85-4.15-12.16-4.33l-.32-.18,.08-.36c.04-.18,3.86-18.49,9.32-37.51,7.36-25.65,14.05-40.33,19.89-43.65,1.42-.81,3.08-1.21,4.94-1.21,6.43,0,15.34,4.76,26.49,14.16,7.54,6.35,13.6,12.79,14.64,13.91l35.5-1.57,.16,.22c.33,.46,7.68,11.57-16.95,30.12-6.64,5-13.49,7.54-20.35,7.54-16.12,0-28.02-13.76-32.9-22.51-.44,.92-.92,1.94-1.44,3.06-4.09,8.76-10.93,23.42-25.11,41.92l-.09,.12-.15,.05c-.44,.14-.96,.21-1.54,.21Z"/>
        <path class="cls-6" d="M1171.77,519.04c-4.52,0-11.98-4.18-12.3-4.36-.3-.17-.46-.52-.39-.87,.16-.75,3.91-18.67,9.33-37.54,7.38-25.73,14.12-40.47,20.02-43.82,1.48-.84,3.2-1.26,5.11-1.26,5.87,0,13.85,3.99,23.73,11.86,9.62,7.67,17.65,16.4,17.72,16.48,.29,.32,.28,.8-.02,1.11-.15,.15-.35,.24-.55,.24s-.42-.09-.57-.25c-.25-.28-25.63-27.82-40.36-27.82-1.63,0-3.08,.35-4.3,1.05-12.69,7.2-27.13,73.52-28.45,79.71,1.79,.95,7.57,3.89,11.01,3.89,.35,0,.66-.03,.94-.09,13.98-18.29,20.75-32.8,24.8-41.47l.1-.2c.67-1.43,1.25-2.67,1.78-3.76,.13-.27,.4-.44,.69-.44,.34,.03,.58,.18,.7,.42,4.35,8.29,13.74,19.01,25.88,21.93,2.12,.51,4.26,.77,6.38,.77,6.56,0,13.14-2.45,19.56-7.29,13.2-9.94,16.81-17.57,17.52-22.22,.59-3.91-.84-6.09-.85-6.11-.24-.35-.17-.83,.16-1.09,.14-.11,.31-.17,.48-.17,.25,0,.49,.12,.64,.33,.07,.1,1.81,2.64,1.12,7.24-.74,4.95-4.49,13.01-18.14,23.3-6.7,5.04-13.59,7.6-20.48,7.6-2.24,0-4.51-.27-6.74-.81-11.97-2.88-21.44-13.12-26.17-21.39-.37,.79-.77,1.64-1.21,2.57-4.09,8.77-10.94,23.44-25.14,41.98-.09,.13-.23,.22-.38,.27-.46,.15-1.01,.23-1.62,.23h0Z"/>
      </g>
    </g>
    <g>
      <g>
        <path class="cls-3" d="M1285.36,534.55c-.16-1.17-.82-1.98-1.67-2.63-2.63,.94-5.04,.45-5.04,.45,0,0-5.12,7.2-.69,10.02,1.83-.39,4.54,.51,7.66,1.96,1.13-2.77,.15-6.74-.26-9.8Z"/>
        <path class="cls-6" d="M1285.63,544.65s-.08,0-.11-.03c-3.56-1.65-5.94-2.27-7.49-1.94-.07,.01-.14,0-.2-.04-1.02-.65-1.65-1.57-1.86-2.74-.61-3.34,2.34-7.54,2.47-7.72,.06-.09,.17-.14,.28-.11,.02,0,2.37,.46,4.9-.44,.09-.03,.18-.02,.26,.04,1.05,.8,1.64,1.73,1.79,2.83h0c.07,.55,.17,1.13,.26,1.73,.44,2.76,.94,5.88-.02,8.23-.03,.07-.09,.13-.16,.16-.03,.01-.07,.02-.1,.02Zm-6.74-2.65c1.57,0,3.71,.63,6.59,1.95,.75-2.16,.29-5.05-.12-7.61-.1-.61-.19-1.19-.27-1.75-.12-.91-.58-1.65-1.44-2.34-2.23,.76-4.26,.54-4.86,.44-.51,.76-2.77,4.35-2.27,7.1,.18,.96,.68,1.72,1.51,2.28,.27-.05,.56-.07,.87-.07Z"/>
      </g>
      <g>
        <path class="cls-6" d="M1322.09,549.91c-.48-1.01-5.04-2.24-10.31-6.07-7.77-5.65-17.67-14.46-23.18-16.26-1.3,2.46-3.15,3.72-4.91,4.35,.85,.65,1.51,1.46,1.67,2.63,.41,3.06,1.4,7.03,.26,9.8,6.13,2.85,13.81,7.83,19.43,9.42,8.47,2.4,18.22-1.36,17.04-3.86Z"/>
        <path class="cls-6" d="M1310.81,554.83c-1.93,0-3.92-.23-5.83-.77-3.61-1.02-8.07-3.43-12.38-5.77-2.51-1.36-4.87-2.64-7.08-3.66-.14-.07-.21-.24-.15-.39,.89-2.19,.41-5.22-.02-7.89-.1-.61-.19-1.19-.27-1.75-.13-.95-.62-1.72-1.56-2.43-.09-.07-.13-.18-.11-.29s.09-.2,.19-.24c2.07-.74,3.67-2.15,4.75-4.21,.07-.12,.2-.18,.33-.14,3.93,1.29,10.07,6.1,16,10.75,2.44,1.91,4.97,3.89,7.25,5.56,2.93,2.13,5.61,3.43,7.56,4.38,1.62,.79,2.59,1.26,2.85,1.8h0c.17,.36,.26,.93-.29,1.63-1.36,1.76-6.07,3.43-11.25,3.43Zm-24.82-10.64c2.15,1.01,4.44,2.25,6.86,3.56,4.29,2.32,8.72,4.72,12.27,5.72,7.32,2.07,14.95-.44,16.5-2.45,.42-.55,.27-.88,.22-.98-.17-.35-1.28-.89-2.58-1.52-1.97-.96-4.67-2.27-7.64-4.43-2.29-1.67-4.82-3.65-7.27-5.57-5.79-4.54-11.77-9.22-15.62-10.58-1.06,1.92-2.56,3.29-4.47,4.09,.8,.72,1.25,1.54,1.38,2.49,.07,.55,.17,1.13,.26,1.73,.42,2.65,.9,5.64,.09,7.95Z"/>
      </g>
      <g>
        <path class="cls-3" d="M1236.8,472.52s-66.2,32.88-64.42,63.56c1.77,30.69,110.52,7.66,110.52,7.66l-3.53-11.59s-38.72-14.87-75.95-4.53c26.89-9.39,60.37-.48,71.56-15.02,16.73-21.67-5.36-42.91-5.36-42.91l-32.8,2.82Z"/>
        <path class="cls-6" d="M1212.03,552.84c-3.46,0-6.75-.1-9.76-.3-12.23-.8-20.91-3.23-25.81-7.22-3.02-2.47-4.66-5.56-4.87-9.19-.42-7.21,2.78-15.09,9.5-23.43,5.31-6.6,12.84-13.51,22.38-20.55,16.1-11.89,32.83-20.26,32.99-20.35,.08-.04,.18-.07,.28-.08,0,0,32.81-2.82,32.82-2.82,.26,0,.45,.08,.59,.22,.05,.05,5.68,5.51,9.13,13.58,3.22,7.52,5.19,18.89-3.7,30.4-6.58,8.56-20.21,9.24-35.98,10.04-.94,.05-1.89,.1-2.84,.14,6.14,.23,12.41,.88,18.71,1.95,14.23,2.41,24.06,6.14,24.16,6.18,.23,.09,.4,.28,.47,.51l3.53,11.58c.06,.21,.04,.44-.07,.63-.11,.2-.3,.34-.52,.39-.21,.04-21.52,4.53-45.21,6.88-9.52,.94-18.2,1.42-25.8,1.42Zm24.98-79.53c-1.45,.73-17.29,8.81-32.64,20.14-9.42,6.96-16.85,13.78-22.08,20.27-6.46,8.02-9.53,15.53-9.14,22.32,.18,3.16,1.62,5.87,4.28,8.03,5.82,4.75,17.51,7.16,34.76,7.16,7.51,0,16.09-.47,25.48-1.4,20.9-2.07,40.23-5.88,44.2-6.68l-3.16-10.36c-1.8-.66-10.92-3.84-23.52-5.97-7.9-1.34-15.76-2.01-23.36-2.01-10.11,0-19.61,1.21-28.24,3.61l-.07,.02h-.14c-.35,0-.66-.23-.76-.57-.11-.41,.11-.84,.5-.97,11.71-4.09,24.81-4.75,36.37-5.33,15.39-.78,28.69-1.44,34.83-9.43,6.74-8.73,7.92-18.41,3.5-28.75-2.92-6.83-7.5-11.77-8.54-12.84l-32.3,2.78Z"/>
      </g>
      <g>
        <path class="cls-6" d="M1230.76,475.7l-1.73,.99s1.44,11.76,19.36,10.76c17.91-.99,29.49-5.17,29.49-5.17l-1.72-3.97-45.4-2.62Z"/>
        <path class="cls-6" d="M1246.32,487.81c-8.01,0-12.3-2.75-14.53-5.16-2.64-2.85-3.02-5.8-3.04-5.93-.02-.12,.04-.24,.15-.3l1.73-.99s.1-.04,.15-.04l45.4,2.62c.1,0,.2,.07,.24,.17l1.72,3.97c.03,.08,.03,.17,0,.24-.03,.08-.09,.14-.17,.17-.12,.04-11.82,4.2-29.57,5.18-.72,.04-1.41,.06-2.08,.06Zm-16.98-10.96c.14,.7,.74,3.11,2.87,5.41,2.33,2.51,7.03,5.4,16.15,4.89,16.09-.89,27.19-4.4,29.12-5.05l-1.52-3.5-45.15-2.6-1.47,.85Z"/>
      </g>
      <g>
        <path class="cls-3" d="M1151.84,380.62c.65-.04,1.33-.11,2.01-.18-1.63-5.47-2.79-10.09-3.64-11.97-2.56-5.64-12.29-15.66-12.29-15.66,0,0-1.11,2.71,.67,4.59,1.77,1.88,4.33,8.14,4.33,8.14,0,0-10.84,1.88-9.06,8.98,1.77,7.1,7.29,3.76,7.88,.42,0,0,.92,4.91,2.64,11.66,1.63-3.02,3.8-5.56,7.47-5.97Z"/>
        <path class="cls-6" d="M1144.3,387.39c-.35-.05-.61-.28-.69-.6-1-3.92-1.73-7.25-2.18-9.38-.95,1.23-2.36,2.05-3.72,2.1h-.13c-1.23,0-3.45-.62-4.49-4.8-.44-1.78-.22-3.42,.67-4.88,1.86-3.03,6.1-4.4,8.05-4.88-1.19-2.76-2.75-5.89-3.8-7.01-2.06-2.18-.96-5.12-.83-5.45,.1-.25,.31-.43,.57-.48h.05s.11-.02,.11-.02c.21,0,.41,.09,.56,.24,.4,.41,9.85,10.17,12.44,15.88,.6,1.32,1.32,3.86,2.23,7.06,.43,1.51,.92,3.23,1.45,5.01,.07,.22,.03,.46-.09,.66-.13,.21-.34,.34-.58,.37-.61,.07-1.34,.14-2.03,.19-2.81,.32-4.93,2.03-6.84,5.56-.14,.25-.4,.41-.68,.41h-.07Zm-2.56-13.26c.38,0,.7,.27,.77,.65,0,.04,.78,4.1,2.16,9.76,1.35-2.05,3.49-4.32,7.08-4.72,.36-.02,.72-.06,1.07-.09-.42-1.44-.82-2.83-1.17-4.07-.9-3.18-1.61-5.65-2.15-6.86-1.99-4.39-8.64-11.71-11.14-14.38-.05,.76,.08,1.67,.79,2.42,1.82,1.93,4.22,7.73,4.49,8.39,.09,.22,.08,.47-.03,.68-.11,.21-.32,.37-.56,.41-.06,.01-5.96,1.08-7.96,4.36-.65,1.07-.82,2.29-.48,3.63,.33,1.34,1.17,3.59,2.96,3.59,1.51-.06,3.11-1.57,3.39-3.12,.07-.38,.39-.66,.77-.66h0Z"/>
      </g>
      <g>
        <path class="cls-3" d="M1298.75,473.51c1.08,4.6,.82,7.65,.82,7.65,0,0-.39,2.74-2.36,3.34-1.97,.6-3.05,5.05-2.76,7.66,.18,1.56,.16,4.77,2.81,5.33,1.76,.38,6.18-1.22,7.24-2.35,1.42-1.51,2.08-12.15,1.98-23.19-.84,.62-1.73,1.13-2.65,1.52-1.72,.73-3.23,1-5.08,.04Z"/>
        <path class="cls-6" d="M1297.85,498.34c-.28,0-.53-.02-.75-.07-2.94-.62-3.22-3.8-3.38-5.5l-.05-.53c-.33-2.92,.91-7.79,3.31-8.52,1.45-.44,1.81-2.67,1.81-2.69h0s.21-2.98-.81-7.34c-.07-.3,.03-.61,.26-.8,.14-.12,.32-.19,.5-.19,.12,0,.25,.03,.36,.09,.68,.36,1.34,.53,2.01,.53s1.44-.18,2.41-.59c.86-.37,1.7-.85,2.5-1.43,.13-.1,.29-.15,.46-.15,.13,0,.25,.03,.37,.09,.26,.14,.41,.41,.42,.7,.04,4.98,.02,21.4-2.2,23.75-1.14,1.21-5.05,2.65-7.21,2.65Zm1.97-23.57c.72,3.74,.55,6.17,.53,6.45-.02,.16-.49,3.3-2.92,4.04-1.43,.43-2.48,4.33-2.2,6.8l.05,.47c.19,2.04,.48,3.82,2.14,4.17,.12,.03,.27,.04,.44,.04,1.83,0,5.29-1.33,6.07-2.16,.91-.97,1.81-9.11,1.77-21.17-.51,.3-1.04,.57-1.58,.8-1.18,.5-2.11,.72-3.01,.72-.44,0-.87-.05-1.3-.16Z"/>
      </g>
      <g>
        <path class="cls-5" d="M1301.19,443.32c-.16-.26-.51-.79-1.02-1.53-.06-.09-.13-.19-.19-.28-4.56-6.68-19.54-27.95-19.54-27.95,0,0-17.53-23.17-29.36-21.71l-2.36,15.03s40.35,44.96,41.92,47c3.16,4.12,6.04,14.58,7.78,21.99,1.84,.96,4.26,1.08,5.98,.35,.92-.39,1.81-.9,2.65-1.52-.09-9.61-.75-19.52-1.98-23.99-.49-1.78-1.91-4.37-3.88-7.39Z"/>
        <path class="cls-6" d="M1301.89,477.49c-1.34,0-2.7-.32-3.83-.91-.21-.11-.35-.3-.41-.53-1.81-7.71-4.61-17.74-7.63-21.68-1.53-1.99-41.48-46.51-41.88-46.96-.16-.18-.23-.43-.2-.67l2.36-15.03c.06-.36,.33-.62,.68-.67,.39-.05,.79-.07,1.2-.07,12.03,0,28.18,21.19,28.87,22.09,1.59,2.25,15.27,21.69,19.56,27.98l.19,.28c.53,.78,.88,1.31,1.04,1.56,2.15,3.3,3.49,5.86,3.97,7.6,1.37,4.95,1.94,15.74,2.01,24.2,0,.26-.12,.5-.33,.66-.89,.65-1.83,1.2-2.81,1.61-.82,.35-1.79,.53-2.81,.53Zm-2.8-2.18c.85,.38,1.83,.58,2.8,.58,.81,0,1.57-.14,2.21-.41,.74-.31,1.47-.72,2.17-1.2-.11-10.47-.86-19.4-1.95-23.35-.44-1.58-1.71-4-3.78-7.16-.16-.26-.5-.76-1.01-1.52l-.19-.28c-4.49-6.58-19.39-27.74-19.53-27.94-.15-.2-16.45-21.44-27.62-21.44-.14,0-.28,0-.42,.01l-2.21,14.03c4.81,5.36,40.2,44.81,41.7,46.77,3.15,4.11,5.99,14.14,7.83,21.92Z"/>
      </g>
      <g>
        <path class="cls-3" d="M1220.61,354.18s-7.58,24.9,4.54,30.54c2.28,.16,3.91-.9,4.87-1.46,4.27,3.52,2.74,12.32,2.81,12.56,1.49,4.99,18.6,1.08,17.34-3.13,0,0-1.01-5.36-2.63-11.83-.97-3.87-.11-8.64-1.44-12.4-.9-2.54-3.9-4.36-4.9-6.15-4.93-8.87-16.16-14.09-20.59-8.14Z"/>
        <path class="cls-6" d="M1238.29,398.95c-3.45,0-5.65-1.03-6.21-2.9-.06-.19-.04-.31,0-.79,.53-5.35-.2-9.05-2.16-11.03-.95,.55-2.4,1.29-4.31,1.29-.17,0-.34,0-.51-.02h-.1s-.18-.07-.18-.07c-5.27-2.45-7.78-8.73-7.26-18.15,.38-6.92,2.29-13.29,2.31-13.35,.02-.08,.06-.16,.12-.24,1.4-1.88,3.47-2.86,6-2.86,.24,0,.49,0,.74,.03,5.44,.4,11.82,5.05,15.16,11.06,.35,.64,1.07,1.34,1.82,2.09,1.19,1.18,2.54,2.51,3.13,4.18,.76,2.16,.84,4.6,.92,6.96,.06,1.89,.12,3.83,.54,5.51,1.52,6.08,2.52,11.28,2.63,11.86,.57,1.95-1.41,3.87-5.44,5.22-2.3,.77-4.92,1.21-7.19,1.21h0Zm-4.68-3.26c.42,1.05,2.15,1.68,4.68,1.68,2.07,0,4.52-.42,6.7-1.16,3.22-1.08,4.66-2.48,4.42-3.3-.03-.13-1.03-5.44-2.64-11.86-.46-1.85-.53-3.88-.59-5.84-.07-2.24-.15-4.56-.83-6.49-.47-1.32-1.67-2.51-2.74-3.57-.85-.84-1.64-1.62-2.1-2.46-3.1-5.58-8.95-9.9-13.9-10.25-.21-.02-.42-.02-.62-.02-1.97,0-3.58,.73-4.67,2.12-.53,1.85-6.7,24.19,4.02,29.38,.09,0,.19,0,.28,0,1.71,0,2.94-.73,3.84-1.27l.16-.1c.12-.07,.25-.11,.39-.11,.18,0,.35,.06,.49,.18,2.69,2.22,3.75,6.52,3.13,12.79,0,0-.02,.22-.03,.27Z"/>
      </g>
      <g>
        <path class="cls-5" d="M1270.71,423.41c3.49,21.55,7.4,52.39,7.17,54.9-.39,4.38-15.37,8.09-33.89,7.05-18.52-1.04-13.2-16.49-23.05-35.49-3.86-7.44-3.18-20.11-8.16-20.77-5.08-.67-15.28-.94-15.28-.94,0,0-19.9,.83-33.49-3.13-9.16-2.67-16.09-24.5-19.63-38.44,1.63-3.02,3.8-5.56,7.47-5.97,.65-.04,1.33-.11,2.01-.18,3.27,10.98,8.44,25.39,16.85,27.9,8.36,2.49,23.26-1.81,32.35-4.99l7.76-2.95,16.43-6.25s8.79-5.91,20.89-3.13l7.36,1.28,15.23,31.12Z"/>
        <path class="cls-6" d="M1250.11,486.33c-2.04,0-4.11-.06-6.16-.17-12.79-.72-14.74-8.12-17.44-18.36-1.38-5.24-2.95-11.17-6.26-17.55-1.62-3.13-2.47-7.17-3.22-10.74-1.05-4.99-1.95-9.29-4.35-9.61-4.76-.63-14.14-.91-15.19-.93,.01,0-1.68,.07-4.43,.07-6.8,0-19.64-.42-29.27-3.23-9.65-2.81-16.78-25.65-20.17-39.01-.05-.2-.03-.41,.07-.59,1.47-2.72,3.71-5.9,8.07-6.38,.71-.05,1.41-.12,2.01-.18h.01c.42,0,.72,.23,.82,.56,3.16,10.6,8.28,24.97,16.32,27.37,1.57,.47,3.5,.71,5.72,.71,8.61,0,20.08-3.56,26.16-5.69l24.09-9.17c.82-.52,6.53-3.95,14.78-3.95,2.22,0,4.45,.25,6.63,.75l7.32,1.27c.42,.07,.71,.48,.64,.91-.06,.39-.39,.67-.77,.67h-.13s-7.36-1.29-7.36-1.29c-2.1-.48-4.22-.72-6.33-.72-8.26,0-13.94,3.7-13.99,3.74l-.06,.04-.12,.05-24.17,9.19c-7.54,2.64-18.28,5.78-26.7,5.78-2.37,0-4.44-.26-6.15-.77-8.64-2.57-13.94-16.99-17.19-27.81-.45,.04-.93,.09-1.4,.12-2.74,.31-4.81,1.94-6.68,5.29,3.32,13.01,10.17,34.99,19,37.56,9.45,2.76,22.13,3.17,28.85,3.17,2.59,0,4.22-.06,4.4-.07,.12,0,10.34,.27,15.41,.95,3.5,.46,4.51,5.28,5.68,10.85,.77,3.65,1.56,7.41,3.08,10.34,3.39,6.54,4.98,12.56,6.38,17.88,2.72,10.3,4.36,16.52,16.02,17.18,2.09,.12,4.2,.18,6.26,.18,6.4,0,12.37-.57,17.28-1.65,6.85-1.51,9.42-3.56,9.53-4.85,.23-2.54-3.74-33.51-7.16-54.7-.07-.43,.22-.84,.64-.92h.04s.09-.01,.09-.01c.38,0,.71,.28,.77,.67,3.44,21.27,7.41,52.48,7.18,55.11-.36,3.95-10.26,7.95-28.5,7.95h-.05Z"/>
      </g>
      <g>
        <path class="cls-6" d="M1229.46,361.55s1.92,6.36,3.3,7.41c1.97-2.71,4.73-4.8,5.91-3.34s1.58,8.14,1.58,8.14c0,0,5.26,5.04,9.99,2.33,4.53-9.18,4.31-26.67-9.85-31.05-4.11-1.27-9.48-3.57-16.08-2.35-4.03,.74-11.28,5.19-12.27,7.17-2.96,5.96,5.18,12.55,5.18,12.55,0,0,5.01,5.98,12.25-.86Z"/>
        <path class="cls-6" d="M1247.18,377.2c-3.72,0-6.96-3.05-7.13-3.22-.05-.05-.09-.13-.09-.2-.11-1.83-.59-6.83-1.51-7.96-.21-.26-.49-.39-.85-.38-1.18,.03-3.04,1.52-4.62,3.7-.09,.13-.27,.16-.39,.06-1.25-.94-2.79-5.59-3.27-7.13-2.4,2.17-4.82,3.19-7.19,3.04-3.03-.19-4.9-2.23-5.11-2.48-.56-.46-8.23-6.9-5.24-12.92,1.02-2.06,8.28-6.56,12.47-7.33,5.78-1.06,10.61,.53,14.49,1.81,.6,.2,1.17,.38,1.72,.56,5.16,1.6,8.97,5.12,11,10.18,2.95,7.35,1.63,15.99-.98,21.29-.03,.05-.07,.1-.12,.12-1.06,.61-2.14,.85-3.18,.85Zm-6.66-3.58c.68,.61,5.34,4.56,9.5,2.25,2.45-5.02,3.77-13.61,.93-20.7-1.96-4.89-5.64-8.29-10.64-9.84-.55-.17-1.13-.36-1.73-.56-3.82-1.26-8.58-2.82-14.22-1.79-3.98,.73-11.12,5.1-12.07,7.02-2.82,5.66,5.03,12.11,5.11,12.18,.01,.01,.03,.02,.04,.04,.2,.23,4.91,5.66,11.85-.88,.07-.07,.17-.09,.26-.07,.09,.03,.17,.1,.2,.2,.49,1.64,1.93,5.88,2.99,7.06,1.31-1.73,3.29-3.64,4.87-3.68,.52-.02,.97,.19,1.29,.58,1.15,1.42,1.57,7.23,1.64,8.19Z"/>
      </g>
    </g>
    <g>
      <polygon class="cls-5" points="1100.77 306.61 1010.36 306.61 1008.58 298.3 1099 298.3 1100.77 306.61"/>
      <path class="cls-6" d="M1100.77,306.91h-90.41c-.13,0-.25-.1-.28-.23l-1.77-8.31c-.02-.09,0-.18,.05-.25,.05-.07,.14-.11,.22-.11h90.41c.13,0,.25,.1,.28,.23l1.77,8.31c.02,.09,0,.18-.05,.25-.05,.07-.14,.11-.22,.11Zm-90.18-.6h89.83l-1.65-7.71h-89.83l1.65,7.71Z"/>
    </g>
    <g>
      <polygon class="cls-5" points="1106.06 334.22 1015.65 334.22 1013.87 325.91 1104.28 325.91 1106.06 334.22"/>
      <path class="cls-6" d="M1106.06,334.52h-90.41c-.13,0-.25-.1-.28-.23l-1.77-8.31c-.02-.09,0-.18,.05-.25,.05-.07,.14-.11,.22-.11h90.41c.13,0,.25,.1,.28,.23l1.77,8.31c.02,.09,0,.18-.05,.25-.05,.07-.14,.11-.22,.11Zm-90.18-.6h89.83l-1.65-7.71h-89.83l1.65,7.71Z"/>
    </g>
    <g>
      <polygon class="cls-5" points="1110.72 295.06 1125 305.37 1136.31 283.4 1131.56 281.95 1123.51 298.97 1113.3 290.51 1110.72 295.06"/>
      <path class="cls-6" d="M1125,305.67c-.06,0-.11-.02-.16-.05l-14.28-10.31c-.12-.09-.16-.27-.08-.4l2.58-4.55c.04-.07,.11-.12,.19-.14,.08-.02,.16,0,.23,.06l9.94,8.24,7.89-16.7c.06-.13,.2-.19,.33-.15l4.76,1.46c.08,.03,.15,.09,.18,.17s.03,.18-.01,.26l-11.32,21.97c-.04,.07-.1,.13-.18,.15-.02,0-.04,0-.07,0Zm-13.9-10.7l13.8,9.97,11-21.35-4.19-1.28-7.94,16.8c-.04,.08-.11,.14-.19,.16-.08,.02-.17,0-.24-.06l-9.96-8.25-2.28,4.02Z"/>
    </g>
    <g>
      <polygon class="cls-3" points="1115.58 325.77 1129.86 336.08 1141.18 314.12 1136.42 312.66 1128.38 329.69 1118.16 321.22 1115.58 325.77"/>
      <path class="cls-6" d="M1129.86,336.38c-.06,0-.11-.02-.16-.05l-14.28-10.31c-.12-.09-.16-.27-.08-.4l2.58-4.55c.04-.07,.11-.12,.19-.14,.08-.02,.16,0,.23,.06l9.94,8.24,7.89-16.7c.06-.13,.2-.2,.33-.15l4.76,1.46c.08,.03,.15,.09,.18,.17s.03,.18-.01,.26l-11.32,21.97c-.04,.07-.1,.13-.18,.15-.02,0-.04,0-.07,0Zm-13.9-10.7l13.8,9.97,11-21.35-4.19-1.28-7.94,16.8c-.04,.08-.11,.14-.19,.16-.08,.02-.17,0-.24-.06l-9.96-8.25-2.28,4.02Z"/>
    </g>
    <g>
      <g>
        <g>
          <path class="cls-4" d="M1410.8,516.53s-32.5-40.22-6.42-69.12c26.08-28.9,55.92-24.65,73.28-2.3,17.36,22.35,13.47,58.68-.28,72.54-13.75,13.86-61.38-6.47-66.59-1.13Z"/>
          <path class="cls-6" d="M1460.89,522.92c-9.24,0-20.19-2.29-29.81-4.3-9.76-2.04-18.2-3.8-20.08-1.87-.06,.06-.13,.09-.21,.08-.08,0-.15-.04-.2-.1-.08-.1-8.21-10.25-13.04-23.81-2.84-7.98-4-15.56-3.45-22.54,.69-8.73,4.08-16.53,10.08-23.17,12.57-13.93,26.73-20.99,40.92-20.44,12.43,.49,24.07,6.94,32.78,18.16,8.06,10.37,12.17,24.46,11.59,39.66-.53,13.87-4.98,26.32-11.89,33.29-3.7,3.73-9.71,5.04-16.69,5.04Zm-46.44-7.59c3.8,0,9.78,1.25,16.74,2.71,15.88,3.32,37.62,7.86,46-.59,6.81-6.87,11.19-19.16,11.72-32.88,.58-15.05-3.5-28.99-11.46-39.25-8.61-11.08-20.1-17.45-32.36-17.94-14.03-.56-28.03,6.45-40.49,20.25-13.37,14.81-10.92,32.68-6.52,45.07,4.39,12.35,11.55,21.85,12.77,23.42,.73-.55,1.97-.79,3.61-.79Z"/>
        </g>
        <path class="cls-6" d="M1403.97,535.22c-.08,0-.16-.01-.24-.03-.49-.13-.78-.65-.66-1.15,6.21-25.17,21.4-46.11,33.06-59.25,12.57-14.17,23.94-22.62,24.05-22.71,.16-.12,.35-.18,.54-.18,.31,0,.6,.16,.77,.42,.28,.43,.18,1-.23,1.3-.11,.08-11.33,8.43-23.78,22.46-11.51,12.97-26.51,33.64-32.62,58.42-.1,.42-.47,.72-.9,.72Z"/>
        <path class="cls-6" d="M1474.72,469.12c-.17,0-.34-.06-.48-.17-.11-.09-11.25-8.72-21-9.15-.24,0-.46-.13-.6-.33-.13-.19-.18-.43-.12-.66,2.29-9.45-5.72-18.36-5.8-18.44-.29-.31-.28-.8,.02-1.11,.15-.15,.34-.24,.56-.24s.42,.09,.57,.25c.08,.09,8.16,9.06,6.37,18.99,10.11,.91,20.86,9.33,20.97,9.42,.33,.26,.4,.75,.16,1.1-.15,.21-.39,.33-.64,.33Z"/>
        <path class="cls-6" d="M1476.72,485.85c-.27,0-.52-.14-.66-.37-8.65-13.92-25.07-18.35-30.66-18.88-.4-.04-.71-.38-.71-.79-.05-7.42-13.41-20.71-13.55-20.84-.31-.3-.32-.79-.04-1.11,.15-.17,.36-.27,.58-.27,.2,0,.4,.08,.54,.22,.55,.54,13.22,13.1,13.99,21.27,7.38,.93,22.81,6.1,31.17,19.54,.23,.37,.13,.84-.22,1.09-.12,.09-.28,.14-.44,.14Z"/>
        <path class="cls-6" d="M1474.34,505c-.32,0-.6-.19-.73-.5-4.59-11.46-12.89-18.91-19.06-23.14-6.89-4.73-13.29-6.88-16.33-6.88-.26,0-.49,.02-.71,.05h-.11c-.18,0-.36-.06-.5-.17-.17-.14-.27-.33-.28-.55-1-12.14-21.01-31.8-21.22-32-.3-.3-.32-.79-.04-1.11,.15-.17,.36-.27,.59-.27,.2,0,.4,.08,.54,.22,.82,.8,19.85,19.51,21.61,32.23,.04,0,.09,0,.13,0,3.37,0,10,2.21,17.2,7.15,6.34,4.35,14.9,12.03,19.63,23.87,.16,.41-.02,.86-.41,1.04-.1,.04-.21,.07-.32,.07Z"/>
        <path class="cls-6" d="M1463.08,507.58c-.32,0-.62-.21-.73-.52-4.77-13.03-23.52-24.27-30.7-24.27-.12,0-.24,0-.36,0h0c-.44,0-.77-.3-.82-.7-1.75-13.63-15.97-24.28-16.11-24.38-.34-.25-.43-.73-.19-1.09,.15-.22,.39-.36,.65-.36,.17,0,.32,.05,.46,.15,.14,.1,14.41,10.62,16.65,24.77,4.07,.13,10.56,2.99,16.67,7.35,7.44,5.31,12.99,11.85,15.22,17.95,.15,.41-.04,.86-.44,1.02-.1,.04-.19,.06-.29,.06Z"/>
        <path class="cls-6" d="M1451.02,509.87c-.28,0-.53-.14-.67-.38-6.28-10.48-16.39-18.08-24.04-18.08-.64,0-1.27,.06-1.86,.17h-.05s-.1,.01-.1,.01c-.19,0-.37-.07-.51-.2-.17-.14-.27-.36-.27-.59-.15-11.23-16.68-22.59-16.84-22.71-.36-.24-.46-.72-.24-1.09,.14-.23,.39-.38,.67-.38,.15,0,.3,.04,.43,.13,.69,.46,16.58,11.25,17.51,23.12,.4-.04,.82-.06,1.23-.06,8.18,0,18.86,7.92,25.4,18.84,.22,.37,.12,.85-.23,1.08-.13,.09-.28,.13-.43,.13Z"/>
        <path class="cls-6" d="M1441.51,513.74c-.34,0-.65-.23-.75-.56-1.33-4.43-6.66-7.59-9.71-9.08-4.09-1.99-8.72-3.28-11.81-3.28-.22,0-.44,0-.65,.02h0c-.41,0-.72-.25-.81-.6-3.94-16.04-16.13-24.77-16.26-24.86-.35-.24-.44-.72-.22-1.09,.15-.23,.39-.37,.66-.37,.16,0,.31,.05,.44,.14,.12,.09,12.46,8.82,16.73,25.16,.04,0,.07,0,.11,0,6.66,0,20.63,5.57,23.01,13.5,.13,.42-.09,.85-.5,.99l-.08,.03h-.17Z"/>
      </g>
      <g>
        <g>
          <path class="cls-6" d="M1406.18,515.33s15.17-26.51,4.58-37.05c-10.59-10.53-28.96-22.22-42.96-5.14-14,17.08-13.2,38.46,5.76,48.04,18.96,9.58,21.64-7.73,32.63-5.85Z"/>
          <path class="cls-6" d="M1383.94,524.88c-3.24,0-6.75-.98-10.73-2.99-8.37-4.23-13.65-10.85-15.28-19.14-1.9-9.65,1.48-20.63,9.27-30.13,4.58-5.59,9.98-8.59,16.05-8.92,.38-.02,.75-.03,1.13-.03,11.16,0,21.67,8.79,26.93,14.03,4.56,4.53,5.21,12.58,1.88,23.29-2.48,7.98-6.29,14.67-6.33,14.74-.14,.24-.4,.4-.68,.4h-.13c-.51-.1-1.02-.14-1.51-.14-3.25,0-5.81,1.89-8.53,3.89-3.18,2.35-6.79,5-12.08,5.01h0Zm.44-59.6c-.35,0-.7,0-1.05,.03-5.62,.3-10.64,3.11-14.93,8.35-7.48,9.12-10.74,19.62-8.93,28.78,1.53,7.79,6.53,14.03,14.44,18.02,3.79,1.92,7.08,2.85,10.06,2.85,4.72,0,7.98-2.4,11.13-4.73,2.93-2.16,5.7-4.2,9.43-4.2,.41,0,.82,.03,1.24,.08,.96-1.78,4.19-7.97,6.23-15.03,2.81-9.68,2.21-16.61-1.78-20.57-5.1-5.07-15.24-13.57-25.83-13.57Z"/>
        </g>
        <path class="cls-3" d="M1409.32,534.53c-.44,0-.81-.31-.9-.75-.06-.28,0-.57,.18-.79,.09-.44,.33-3.34-3.31-17.42-3-11.59-12.54-19.99-20.01-24.99-8.2-5.49-15.69-8.17-15.76-8.2-.48-.17-.73-.7-.58-1.19,.12-.39,.48-.65,.88-.65,.1,0,.21,.02,.3,.05,.32,.11,7.88,2.86,16.15,8.39,7.75,5.19,17.66,13.92,20.81,26.1,2.88,11.11,3.93,17.47,3.12,18.89-.21,.37-.51,.49-.66,.53h-.06s-.15,.03-.15,.03Z"/>
        <path class="cls-3" d="M1388.93,518.41l-.16-.04c-.4-.13-.63-.58-.51-.99,1.04-3.57,5.24-10.56,9.92-11.8,.51-.13,1.02-.2,1.51-.2,1.13,0,2.21,.35,3.22,1.04,.41-7.12,6.31-16.62,6.57-17.04,.15-.23,.39-.37,.66-.37,.16,0,.31,.05,.45,.14,.35,.25,.44,.73,.21,1.09-.07,.11-6.93,11.16-6.31,17.83,.03,.33-.14,.65-.43,.79-.11,.06-.23,.08-.35,.08-.21,0-.41-.09-.56-.24-1.09-1.14-2.26-1.72-3.48-1.72-.36,0-.73,.05-1.11,.15-3.99,1.06-7.91,7.63-8.81,10.71-.1,.34-.41,.57-.75,.57h-.08Z"/>
        <path class="cls-3" d="M1381.86,520.22c-.43-.05-.74-.44-.7-.88,.77-7.67,4.47-14.24,9.89-17.58,1.98-1.22,4.01-1.86,5.88-1.86,.6,0,1.18,.07,1.73,.2-1-12.47,6.08-21.3,6.16-21.39,.15-.18,.37-.29,.6-.29,.19,0,.38,.07,.52,.21,.32,.29,.35,.78,.08,1.11-.07,.09-7.19,9.02-5.68,21.41,.03,.28-.08,.56-.3,.73-.13,.11-.3,.17-.48,.17-.11,0-.22-.02-.32-.07-.69-.32-1.47-.48-2.31-.48-1.58,0-3.33,.57-5.07,1.63-5,3.08-8.42,9.2-9.14,16.38-.04,.41-.38,.72-.78,.72h-.08Z"/>
        <path class="cls-3" d="M1375.19,513.22c-.41,0-.75-.33-.78-.75-.25-3.92,1.26-7.76,4.35-11.1,4.13-4.46,9.66-6.79,12.74-7.2-3.44-9.93,3.06-20.61,3.13-20.72,.14-.23,.39-.37,.66-.37,.16,0,.31,.05,.44,.14,.35,.24,.45,.72,.23,1.09-.07,.11-6.59,10.9-2.61,20.29,.11,.25,.08,.53-.06,.76-.14,.22-.39,.36-.65,.36h-.22c-2.55,0-8.48,2.4-12.51,6.76-2.79,3.01-4.15,6.44-3.93,9.9,.03,.44-.3,.82-.72,.85h-.02s-.04,0-.04,0Z"/>
        <path class="cls-3" d="M1365.49,511.66c-.41-.03-.73-.42-.7-.86,1.18-15.83,12-19.64,18.47-21.92l.6-.21c-2.12-5.68,0-17.16,.09-17.66,.07-.38,.4-.65,.77-.65h.05l.11,.02c.42,.09,.69,.51,.61,.94-.81,4.37-1.82,13.64,.12,17.45,.1,.2,.12,.44,.04,.65-.08,.22-.25,.39-.47,.47-.4,.15-.84,.3-1.3,.47l-.12,.04c-6.1,2.15-16.31,5.75-17.42,20.53-.03,.42-.37,.74-.78,.74h-.08Z"/>
        <path class="cls-3" d="M1364.55,494.77l-.12-.02c-.41-.1-.68-.52-.59-.95,.89-4.22,6.94-8.53,13.14-9.44-.89-3.29,.22-7.95,.28-8.16,.09-.36,.4-.61,.76-.61h.07l.13,.03c.41,.11,.66,.54,.56,.97-.01,.05-1.26,5.42-.01,8.11,.11,.23,.1,.5-.02,.73-.12,.23-.36,.39-.62,.41-5.86,.5-11.94,4.46-12.75,8.3-.08,.37-.4,.63-.77,.63h-.06Z"/>
      </g>
      <g>
        <g>
          <path class="cls-3" d="M1440.68,526.16s-9.06-16.65-5.62-24.59c3.43-7.94,29.64-28.49,45.84-9.07,16.2,19.43,.43,47.9-14.63,44.58-15.06-3.31-20.27-11.29-25.58-10.92Z"/>
          <path class="cls-6" d="M1468.69,538.14c-.87,0-1.75-.09-2.59-.28-8.59-1.89-14.07-5.3-18.07-7.79-2.91-1.81-5-3.12-6.99-3.12-.1,0-.21,0-.31,.01h0c-.33,0-.6-.16-.73-.41-.38-.69-9.21-17.07-5.66-25.3,2.09-4.83,13.13-15.32,25.94-17.33,1.34-.21,2.67-.32,3.95-.32,6.71,0,12.68,2.9,17.25,8.39,9.83,11.79,7.81,26.05,3.08,34.67-3.94,7.2-9.88,11.49-15.88,11.49Zm-27.55-12.79c2.38,.04,4.62,1.43,7.7,3.35,3.91,2.43,9.25,5.76,17.59,7.6,.74,.16,1.5,.25,2.26,.25,5.43,0,10.85-3.99,14.51-10.68,4.48-8.17,6.41-21.68-2.91-32.85-4.34-5.2-9.7-7.83-15.95-7.83-1.24,0-2.52,.1-3.83,.31-11.75,1.85-22.7,11.67-24.75,16.4-2.94,6.81,4.02,20.84,5.37,23.46Z"/>
        </g>
        <path class="cls-6" d="M1435.2,534.96c-.51-.08-.85-.55-.79-1.06,.06-.45,.9-4.74,12.41-15.58,5.77-5.44,12.68-10.24,19.46-13.53,5.72-2.77,10.92-4.24,15.02-4.24,.93,0,1.81,.08,2.61,.23,.5,.1,.83,.59,.74,1.1-.08,.46-.46,.79-.91,.79h-.16c-.69-.15-1.46-.21-2.27-.21-8.64,0-22.61,7.26-33.24,17.27-10.9,10.27-11.82,14.42-11.83,14.46-.07,.46-.46,.79-.91,.79h-.13Z"/>
        <path class="cls-6" d="M1467.14,528.64c-.25,0-.49-.12-.63-.33-3.75-5.26-14.3-9.32-18.15-9.34-.26,0-.5-.13-.65-.35-.14-.21-.17-.48-.09-.72,2.16-6.27-4.2-15.07-4.26-15.16-.25-.34-.2-.83,.13-1.1,.14-.11,.31-.18,.49-.18,.25,0,.48,.12,.63,.32,.27,.36,6.34,8.72,4.77,15.66,4.6,.57,14.57,4.55,18.39,9.92,.25,.35,.18,.83-.15,1.1-.14,.11-.31,.17-.48,.17Z"/>
        <path class="cls-6" d="M1478.1,530.66c-.34,0-.64-.22-.75-.56-1.58-5.09-6.84-9.18-10.99-11.72-4.87-2.98-9.85-4.75-11.43-4.83-.22-.01-.42-.11-.56-.28-.13-.16-.2-.36-.18-.58,.81-10.39-5.16-17.53-5.22-17.6-.28-.33-.25-.81,.05-1.11,.15-.14,.34-.22,.54-.22,.23,0,.44,.1,.59,.27,.06,.07,6.17,7.37,5.65,18.02,5.17,.94,20.07,7.96,23.04,17.56,.13,.42-.09,.86-.49,1l-.08,.03-.17,.02Z"/>
        <path class="cls-6" d="M1475.45,518.56c-.3,0-.58-.18-.71-.46-3.06-6.72-9.71-8.41-13.4-8.83-.21-.02-.41-.13-.54-.31-.12-.17-.18-.37-.16-.58,.88-8.02-5.41-17.74-5.67-18.15-.24-.36-.15-.84,.19-1.09,.13-.1,.29-.15,.46-.15,.26,0,.5,.13,.65,.35,.27,.41,6.5,9.93,6,18.44,4.01,.58,10.69,2.62,13.89,9.64,.18,.4,.02,.86-.36,1.05-.11,.06-.23,.08-.35,.08Z"/>
        <path class="cls-6" d="M1482.1,518c-.39,0-.71-.28-.77-.67-.97-6.09-9.25-11.57-13.73-11.65-.29,0-.55-.17-.68-.43-.12-.24-.12-.54,.02-.78,3.31-5.64-2.56-15.05-2.62-15.14-.23-.37-.14-.85,.21-1.09,.13-.09,.28-.14,.45-.14,.27,0,.51,.14,.66,.36,.25,.39,5.8,9.29,3.19,15.74,5.11,.85,13.02,6.4,14.05,12.88,.07,.43-.22,.84-.64,.92h-.04s-.09,.01-.09,.01Z"/>
        <path class="cls-6" d="M1483,508.07c-.37,0-.69-.27-.77-.64-.51-2.58-4.05-4.19-6.28-4.47-.28-.04-.51-.22-.62-.48-.11-.25-.08-.54,.07-.76,2.54-3.86,.44-6.36,.35-6.46-.28-.32-.26-.81,.04-1.11,.15-.14,.34-.22,.54-.22,.22,0,.43,.1,.58,.27,.02,.03,2.58,3.05,.37,7.4,2.49,.64,5.87,2.48,6.48,5.52,.08,.42-.18,.85-.6,.94h-.06s-.12,.02-.12,.02Z"/>
      </g>
    </g>
  </g>
</svg>