<?xml version="1.0" encoding="utf-8"?>
<!-- Generator: Adobe Illustrator 26.4.1, SVG Export Plug-In . SVG Version: 6.00 Build 0)  -->
<svg version="1.1" id="Layer_1" xmlns="http://www.w3.org/2000/svg" xmlns:xlink="http://www.w3.org/1999/xlink" x="0px" y="0px"
	 viewBox="0 0 1600 600" style="enable-background:new 0 0 1600 600;" xml:space="preserve">
<style type="text/css">
	
		.st0{clip-path:url(#SVGID_00000096767374414223178080000012230377686336536754_);fill:url(#SVGID_00000021115061301320750900000013613350419254032514_);}
	.st1{fill:#FFFFFF;}
	.st2{fill:#1A1A1A;}
	.st3{fill:#91B5FC;}
	.st4{fill:#4558EF;}
	.st5{fill:#808080;}
	.st6{fill:#3282F7;}
	.st7{fill:url(#SVGID_00000091015280592648887630000002025923765111956665_);}
</style>
<g>
	<defs>
		<rect id="SVGID_1_" x="2" y="-28.1" width="1634.2" height="583.5"/>
	</defs>
	<clipPath id="SVGID_00000163787585401428426920000013221198021235524533_">
		<use xlink:href="#SVGID_1_"  style="overflow:visible;"/>
	</clipPath>
	
		<radialGradient id="SVGID_00000040535091607315334940000004837270756607112892_" cx="729.6602" cy="787.6399" r="795.4271" gradientTransform="matrix(1.0038 0 0 0.2295 99.7078 368.5708)" gradientUnits="userSpaceOnUse">
		<stop  offset="0.4079" style="stop-color:#EBEBF2"/>
		<stop  offset="1" style="stop-color:#EBEBF2;stop-opacity:0"/>
	</radialGradient>
	
		<ellipse style="clip-path:url(#SVGID_00000163787585401428426920000013221198021235524533_);fill:url(#SVGID_00000040535091607315334940000004837270756607112892_);" cx="832.1" cy="549.4" rx="804.1" ry="184.5"/>
</g>
<g>
	<path class="st1" d="M1044.3,378l-0.1-0.4c-4.2-13.6-1.8-28.5,6-37.2c4.8-5.4,11.6-8.4,19-8.4c8.9,0,17.6,4.4,24.1,12
		c2.6-7,9.6-22,24.6-30.2c6.3-3.5,13.2-5.2,20.3-5.2c11.7,0,20.9,4.7,24.1,6.6c5.7-7.6,13.7-12,22.2-12c1.8,0,3.5,0.2,5.2,0.6
		c11.7,2.6,20.9,13.8,23.1,27.9c4.9,2.6,8.9,6.5,11.6,11.4c5.9,10.6,5.5,25.2-1,37.9l-0.2,0.3L1044.3,378z"/>
	<path class="st2" d="M1044.8,378.2c-0.4,0-0.7-0.2-0.8-0.6c-2.1-6.7-2.6-13.8-1.5-20.5c1.1-6.7,3.7-12.6,7.5-16.9
		c4.8-5.4,11.8-8.4,19.2-8.4c0.2,0,0.4,0,0.7,0c4.4,0.1,8.8,1.3,12.8,3.3c3.9,2,7.5,4.9,10.6,8.4c2.6-7,9.6-21.8,24.6-30
		c6.4-3.5,13.2-5.3,20.4-5.3c3.1,0,6.3,0.3,9.5,1c7,1.5,12.2,4.2,14.5,5.5c5.7-7.6,13.8-12,22.2-12c1.8,0,3.5,0.2,5.3,0.6
		c11.7,2.6,21,13.8,23.2,28c4.9,2.6,8.9,6.5,11.6,11.4c2.9,5.2,4.3,11.6,4.1,18.4c-0.2,6.7-2,13.5-5.2,19.8
		c-0.1,0.3-0.4,0.4-0.7,0.4L1044.8,378.2z M1222.3,379.7c6.1-12.3,6.4-26.1,0.8-36.2c-2.6-4.7-6.5-8.5-11.3-10.9
		c-0.2-0.1-0.4-0.3-0.4-0.6c-2-13.7-10.8-24.6-22-27.1c-1.6-0.4-3.3-0.5-4.9-0.5c-8.1,0-15.9,4.3-21.3,11.9
		c-0.2,0.2-0.4,0.3-0.7,0.3h-0.2l-0.3-0.1c-2.6-1.6-11.8-6.7-23.8-6.7c-6.9,0-13.5,1.7-19.7,5.1c-15.4,8.5-22.1,24.1-24.3,30.5
		c-0.1,0.3-0.4,0.6-0.8,0.6h-0.1l-0.2,0c-0.1,0-0.3-0.1-0.4-0.3c-6.1-7.6-14.5-12.1-23-12.3c-0.2,0-0.5,0-0.7,0
		c-7,0-13.4,2.8-17.9,7.9c-7.3,8.2-9.6,22.3-5.8,35.2L1222.3,379.7z"/>
</g>
<g>
	<path class="st1" d="M832.7,472.2l-0.1-0.4c-6.6-21.5-2.8-45.1,9.4-58.8c7.6-8.5,18.3-13.2,30-13.2c14.2,0,28.2,7.1,38.5,19.4
		c3.9-10.9,14.9-35.2,39.2-48.5c10-5.5,20.9-8.3,32.2-8.3c19,0,33.7,7.7,38.4,10.6c9-12.2,21.8-19.2,35.2-19.2
		c2.8,0,5.5,0.3,8.2,0.9c18.5,4.1,33.1,21.9,36.5,44.3c7.9,4,14.3,10.3,18.5,18c9.3,16.8,8.7,39.8-1.6,60.1l-0.2,0.3L832.7,472.2z"
		/>
	<path class="st2" d="M833.1,472.5c-0.4,0-0.8-0.3-0.9-0.7c-3.3-10.6-4.1-21.9-2.4-32.4c1.7-10.6,5.8-19.9,11.9-26.7
		c7.6-8.5,18.6-13.3,30.3-13.3c0.4,0,0.7,0,1.1,0c7,0.2,14,2,20.2,5.3c6.4,3.3,12.1,7.9,17.2,13.8c3.9-10.8,15.1-35,39.2-48.2
		c10.1-5.5,21-8.4,32.2-8.4c4.9,0,10,0.5,15.1,1.6c11.6,2.4,20.3,7.1,23.3,8.9c9-12.2,21.8-19.1,35.3-19.1c2.8,0,5.6,0.3,8.3,0.9
		c18.6,4.1,33.3,22,36.7,44.4c7.8,4.1,14.2,10.3,18.5,18.1c4.6,8.3,6.9,18.3,6.5,29.1c-0.3,10.6-3.1,21.4-8.2,31.3
		c-0.2,0.3-0.5,0.5-0.8,0.5h0L833.1,472.5z M1116,475.7c9.8-19.7,10.4-41.9,1.4-58.1c-4.2-7.6-10.5-13.6-18.2-17.5
		c-0.3-0.1-0.5-0.4-0.5-0.7c-3.2-21.9-17.4-39.3-35.3-43.4c-2.6-0.6-5.3-0.9-7.9-0.9c-13.1,0-25.6,6.9-34.3,19.1
		c-0.2,0.2-0.5,0.4-0.8,0.4c-0.2,0-0.3,0-0.5-0.1c-4.1-2.5-18.9-10.7-38-10.7c-11,0-21.6,2.7-31.5,8.2
		c-24.6,13.5-35.4,38.6-38.9,48.7c-0.1,0.4-0.5,0.6-0.9,0.6h-0.1l-0.2-0.1c-0.2-0.1-0.3-0.2-0.4-0.3c-9.8-12.2-23.3-19.3-37-19.7
		c-0.4,0-0.7,0-1.1,0c-11.3,0-21.5,4.5-28.8,12.7c-11.7,13.1-15.5,35.9-9.3,56.7L1116,475.7z"/>
</g>
<g>
	<g>
		<g>
			<path class="st2" d="M669.1,452.1c-1.8-0.2-3.6-0.4-5.4-0.6c-0.3,0-0.5-0.2-0.7-0.4s-0.3-0.5-0.2-0.8c0.1-0.5,0.5-0.9,1.1-0.9
				l0.1,0c1.8,0.2,3.5,0.4,5.3,0.6c0.3,0,0.5,0.2,0.7,0.4c0.2,0.2,0.3,0.5,0.2,0.8C670.2,451.7,669.7,452.1,669.1,452.1L669.1,452.1
				z M658.4,450.8c-1.8-0.2-3.6-0.5-5.3-0.7c-0.3,0-0.5-0.2-0.7-0.4c-0.2-0.2-0.2-0.5-0.2-0.8c0.1-0.5,0.5-0.9,1.1-0.9l0.1,0
				c1.7,0.3,3.5,0.5,5.3,0.7c0.3,0,0.5,0.2,0.7,0.4c0.2,0.2,0.2,0.5,0.2,0.8c-0.1,0.5-0.5,0.9-1.1,0.9L658.4,450.8z M647.8,449.2
				c-1.8-0.3-3.5-0.6-5.3-0.9c-0.3,0-0.5-0.2-0.7-0.4c-0.2-0.2-0.2-0.5-0.2-0.8c0.1-0.5,0.5-0.9,1-0.9h0.1l0.1,0
				c1.7,0.3,3.5,0.6,5.3,0.9c0.6,0.1,1,0.6,0.9,1.2c-0.1,0.5-0.5,0.9-1.1,0.9L647.8,449.2z M637.4,447.5l-0.1,0
				c-1.8-0.3-3.5-0.7-5.3-1c-0.3-0.1-0.5-0.2-0.7-0.5c-0.2-0.2-0.2-0.5-0.2-0.8c0.1-0.5,0.5-0.9,1-0.9h0.1l0.1,0
				c1.7,0.3,3.5,0.7,5.2,1c0.3,0.1,0.5,0.2,0.7,0.4c0.2,0.2,0.2,0.5,0.2,0.8C638.4,447.1,637.9,447.5,637.4,447.5L637.4,447.5z
				 M626.9,445.4l-0.2,0c-1.8-0.4-3.5-0.8-5.3-1.1c-0.6-0.1-0.9-0.7-0.8-1.3c0.1-0.5,0.5-0.8,1-0.8h0.1l0.2,0
				c1.7,0.4,3.5,0.8,5.2,1.1c0.3,0.1,0.5,0.2,0.7,0.5c0.2,0.2,0.2,0.5,0.2,0.8C627.9,445,627.4,445.4,626.9,445.4L626.9,445.4z
				 M616.4,443.1l-0.2,0c-1.7-0.4-3.5-0.9-5.2-1.3c-0.3-0.1-0.5-0.2-0.7-0.5c-0.1-0.2-0.2-0.5-0.1-0.8c0.1-0.5,0.5-0.8,1-0.8h0.1
				l0.2,0c1.7,0.4,3.4,0.9,5.2,1.3c0.6,0.1,0.9,0.7,0.8,1.3C617.4,442.7,617,443.1,616.4,443.1L616.4,443.1z M606,440.4l-0.2,0
				c-1.7-0.5-3.5-1-5.2-1.5c-0.6-0.2-0.9-0.8-0.7-1.3c0.1-0.5,0.6-0.8,1-0.8c0.1,0,0.2,0,0.3,0c1.7,0.5,3.4,1,5.1,1.4
				c0.6,0.2,0.9,0.7,0.7,1.3C607,440.1,606.6,440.4,606,440.4L606,440.4z M595.8,437.4c-0.1,0-0.2,0-0.3,0c-1.7-0.5-3.4-1.1-5.1-1.6
				c-0.3-0.1-0.5-0.3-0.6-0.5c-0.1-0.3-0.1-0.5-0.1-0.8c0.1-0.4,0.5-0.7,1-0.7c0.1,0,0.2,0,0.3,0.1c1.7,0.6,3.4,1.1,5.1,1.6
				c0.3,0.1,0.5,0.3,0.6,0.5c0.1,0.3,0.2,0.5,0.1,0.8C596.7,437.1,596.3,437.4,595.8,437.4z M585.7,434c-0.1,0-0.2,0-0.4-0.1
				c-1.7-0.6-3.4-1.2-5.1-1.8c-0.6-0.2-0.8-0.8-0.6-1.4c0.2-0.4,0.6-0.7,1-0.7c0.1,0,0.3,0,0.4,0.1c1.6,0.6,3.3,1.2,5,1.8
				c0.6,0.2,0.8,0.8,0.7,1.4C586.5,433.8,586.1,434,585.7,434z M575.6,430.3c-0.1,0-0.3,0-0.4-0.1c-1.7-0.7-3.3-1.3-5-2
				c-0.5-0.2-0.8-0.9-0.6-1.4c0.2-0.4,0.6-0.7,1-0.7c0.1,0,0.3,0,0.4,0.1c1.6,0.7,3.3,1.4,4.9,2c0.3,0.1,0.5,0.3,0.6,0.6
				c0.1,0.3,0.1,0.6,0,0.8C576.5,430,576.1,430.3,575.6,430.3z M565.8,426.2c-0.2,0-0.3,0-0.4-0.1c-1.6-0.7-3.3-1.5-4.9-2.2
				c-0.5-0.3-0.8-0.9-0.5-1.4c0.2-0.4,0.6-0.6,1-0.6c0.2,0,0.3,0,0.5,0.1c1.6,0.7,3.2,1.5,4.8,2.2c0.3,0.1,0.5,0.3,0.6,0.6
				s0.1,0.6,0,0.8C566.6,425.9,566.2,426.2,565.8,426.2z M556.1,421.6c-0.2,0-0.3,0-0.5-0.1c-1.6-0.8-3.2-1.6-4.8-2.5
				c-0.2-0.1-0.4-0.4-0.5-0.6c-0.1-0.3-0.1-0.6,0.1-0.8c0.2-0.3,0.5-0.6,0.9-0.6c0.2,0,0.3,0,0.5,0.1c1.5,0.8,3.1,1.7,4.7,2.5
				c0.3,0.1,0.4,0.3,0.5,0.6c0.1,0.3,0.1,0.6-0.1,0.8C556.9,421.3,556.5,421.6,556.1,421.6z M546.7,416.5c-0.2,0-0.4,0-0.5-0.1
				c-1.6-0.9-3.1-1.8-4.6-2.7c-0.2-0.1-0.4-0.4-0.5-0.7c-0.1-0.3,0-0.6,0.1-0.8c0.2-0.3,0.5-0.5,0.9-0.5c0.2,0,0.4,0.1,0.6,0.2
				c1.5,0.9,3,1.8,4.6,2.7c0.2,0.1,0.4,0.4,0.5,0.6c0.1,0.3,0,0.6-0.1,0.8C547.4,416.3,547.1,416.5,546.7,416.5z M537.5,410.9
				c-0.2,0-0.4-0.1-0.6-0.2c-1.5-1-3-2-4.5-3c-0.2-0.2-0.4-0.4-0.4-0.7c-0.1-0.3,0-0.6,0.2-0.8c0.2-0.3,0.5-0.5,0.9-0.5
				c0.2,0,0.4,0.1,0.6,0.2c1.4,1,2.9,2,4.4,3c0.5,0.3,0.6,1,0.3,1.5C538.2,410.8,537.9,410.9,537.5,410.9z M528.7,404.8
				c-0.2,0-0.4-0.1-0.6-0.2c-1.5-1.1-2.9-2.2-4.3-3.3c-0.5-0.4-0.5-1-0.2-1.5c0.2-0.3,0.5-0.4,0.8-0.4c0.2,0,0.5,0.1,0.7,0.2
				c1.4,1.1,2.8,2.2,4.2,3.2c0.2,0.2,0.4,0.4,0.4,0.7c0,0.3,0,0.6-0.2,0.8C529.4,404.7,529.1,404.8,528.7,404.8z M520.3,398.2
				c-0.3,0-0.5-0.1-0.7-0.3c-1.4-1.2-2.7-2.4-4.1-3.6c-0.4-0.4-0.5-1.1-0.1-1.5c0.2-0.2,0.5-0.3,0.8-0.3c0.3,0,0.5,0.1,0.7,0.3
				c1.3,1.2,2.6,2.4,4,3.5c0.2,0.2,0.3,0.4,0.4,0.7c0,0.3-0.1,0.6-0.2,0.8C521,398.1,520.7,398.2,520.3,398.2z M512.4,391
				c-0.3,0-0.5-0.1-0.7-0.3c-1.3-1.3-2.6-2.5-3.8-3.8c-0.2-0.2-0.3-0.5-0.3-0.8c0-0.3,0.1-0.5,0.3-0.7c0.2-0.2,0.5-0.3,0.7-0.3
				c0.3,0,0.6,0.1,0.8,0.3c1.2,1.3,2.5,2.5,3.7,3.8c0.4,0.4,0.4,1.1,0,1.5C513,390.9,512.7,391,512.4,391z M505.1,383.2
				c-0.3,0-0.6-0.1-0.8-0.4c-1.2-1.3-2.4-2.7-3.5-4.1c-0.4-0.5-0.3-1.1,0.2-1.5c0.2-0.2,0.4-0.2,0.7-0.2c0.3,0,0.6,0.1,0.8,0.4
				c1.1,1.4,2.3,2.7,3.4,4.1c0.4,0.4,0.3,1.1-0.1,1.5C505.6,383.2,505.3,383.2,505.1,383.2z M498.3,374.9c-0.3,0-0.7-0.2-0.9-0.4
				c-1.1-1.4-2.1-2.9-3.1-4.4c-0.3-0.5-0.2-1.2,0.3-1.5c0.2-0.1,0.4-0.2,0.6-0.2c0.4,0,0.7,0.2,0.9,0.5c1,1.5,2,2.9,3.1,4.3
				c0.4,0.5,0.3,1.1-0.2,1.5C498.8,374.9,498.6,374.9,498.3,374.9z M492.3,366.1c-0.4,0-0.7-0.2-0.9-0.5c-0.9-1.5-1.9-3.1-2.7-4.6
				c-0.1-0.2-0.2-0.5-0.1-0.8s0.3-0.5,0.5-0.6c0.2-0.1,0.3-0.1,0.5-0.1c0.4,0,0.7,0.2,0.9,0.5c0.9,1.5,1.8,3.1,2.7,4.6
				c0.3,0.5,0.2,1.2-0.3,1.5C492.7,366,492.5,366.1,492.3,366.1z M487.1,356.8c-0.4,0-0.8-0.2-1-0.6c-0.8-1.6-1.6-3.2-2.3-4.9
				c-0.2-0.5,0-1.2,0.5-1.4c0.1-0.1,0.3-0.1,0.4-0.1c0.4,0,0.8,0.2,1,0.6c0.7,1.6,1.5,3.2,2.3,4.8c0.1,0.3,0.2,0.5,0.1,0.8
				c-0.1,0.3-0.3,0.5-0.5,0.6C487.4,356.7,487.3,356.8,487.1,356.8z M482.7,347c-0.4,0-0.8-0.3-1-0.7c-0.7-1.7-1.3-3.4-1.9-5.1
				c-0.1-0.3-0.1-0.6,0-0.8c0.1-0.3,0.3-0.4,0.6-0.5c0.1,0,0.2-0.1,0.3-0.1c0.5,0,0.9,0.3,1,0.7c0.6,1.7,1.2,3.3,1.8,5
				c0.2,0.5-0.1,1.2-0.6,1.4C483,347,482.8,347,482.7,347z M479.2,336.9c-0.5,0-0.9-0.3-1-0.8c-0.5-1.7-1-3.5-1.4-5.2
				c-0.1-0.3,0-0.6,0.1-0.8c0.1-0.2,0.4-0.4,0.7-0.5l0.1,0l0.2,0c0.5,0,0.9,0.3,1,0.8c0.4,1.7,0.9,3.4,1.4,5.1
				c0.1,0.3,0.1,0.6-0.1,0.8c-0.1,0.3-0.4,0.4-0.6,0.5C479.4,336.9,479.3,336.9,479.2,336.9z M476.6,326.5c-0.5,0-0.9-0.4-1-0.9
				c-0.4-1.7-0.7-3.5-1-5.3c0-0.3,0-0.6,0.2-0.8c0.2-0.2,0.4-0.4,0.7-0.4l0.2,0c0.5,0,1,0.4,1.1,0.9c0.3,1.7,0.6,3.5,1,5.2
				c0.1,0.6-0.3,1.1-0.8,1.3l-0.1,0L476.6,326.5z M474.9,316c-0.5,0-1-0.4-1.1-0.9c-0.2-1.8-0.4-3.6-0.5-5.4c0-0.6,0.4-1.1,1-1.1
				c0,0,0,0,0,0c0.6,0,1.1,0.4,1.1,1c0.1,1.8,0.3,3.5,0.5,5.3c0.1,0.6-0.4,1.1-0.9,1.2L474.9,316z M474.1,305.3c-0.6,0-1-0.5-1.1-1
				c-0.1-1.6-0.1-3.3-0.1-5l0-0.4c0-0.6,0.5-1.1,1.1-1.1c0.3,0,0.6,0.1,0.8,0.3c0.2,0.2,0.3,0.5,0.3,0.8l0,0.4c0,1.6,0,3.3,0.1,4.9
				C475.2,304.8,474.7,305.3,474.1,305.3L474.1,305.3z M474,294.6c-0.2,0-0.5-0.1-0.7-0.3c-0.2-0.2-0.3-0.5-0.3-0.8
				c0.1-1.8,0.2-3.6,0.3-5.4c0-0.6,0.5-1,1.1-1c0.7,0,1.1,0.6,1.1,1.1c-0.1,1.8-0.2,3.6-0.3,5.3C475.2,294.1,474.7,294.6,474,294.6
				L474,294.6z M474.8,283.9c-0.3,0-0.5-0.2-0.7-0.4c-0.2-0.2-0.3-0.5-0.2-0.8c0.2-1.8,0.4-3.6,0.7-5.3c0.1-0.5,0.5-0.9,1.1-0.9
				l0.2,0c0.3,0,0.5,0.2,0.7,0.4c0.2,0.2,0.2,0.5,0.2,0.8c-0.3,1.8-0.5,3.5-0.7,5.3c-0.1,0.5-0.5,0.9-1.1,0.9L474.8,283.9z
				 M476.5,273.3l-0.1,0c-0.6-0.1-1-0.7-0.8-1.2c0.3-1.7,0.7-3.5,1.1-5.3c0.1-0.5,0.5-0.8,1-0.8h0.1l0.2,0c0.6,0.1,0.9,0.7,0.8,1.3
				c-0.4,1.7-0.7,3.5-1.1,5.2C477.5,273,477.1,273.3,476.5,273.3L476.5,273.3z M478.8,262.9l-0.2,0c-0.6-0.1-0.9-0.7-0.8-1.3
				c0.4-1.7,0.9-3.5,1.4-5.2c0.1-0.5,0.6-0.8,1-0.8c0.1,0,0.2,0,0.3,0c0.3,0.1,0.5,0.3,0.6,0.5c0.1,0.2,0.2,0.5,0.1,0.8
				c-0.5,1.7-1,3.4-1.4,5.1C479.8,262.5,479.4,262.9,478.8,262.9L478.8,262.9z M481.9,252.6c-0.1,0-0.2,0-0.3-0.1
				c-0.3-0.1-0.5-0.3-0.6-0.5c-0.1-0.3-0.2-0.5-0.1-0.8c0.5-1.7,1.1-3.4,1.7-5.1c0.2-0.4,0.6-0.7,1-0.7c0.1,0,0.2,0,0.4,0.1
				c0.3,0.1,0.5,0.3,0.6,0.5c0.1,0.3,0.1,0.5,0,0.8c-0.6,1.7-1.2,3.4-1.7,5C482.7,252.3,482.3,252.6,481.9,252.6z M485.4,242.5
				c-0.1,0-0.3,0-0.4-0.1c-0.5-0.2-0.8-0.8-0.6-1.4c0.6-1.7,1.3-3.3,2-5c0.2-0.4,0.6-0.7,1-0.7c0.1,0,0.3,0,0.4,0.1
				c0.3,0.1,0.5,0.3,0.6,0.6c0.1,0.3,0.1,0.6,0,0.8c-0.7,1.6-1.4,3.3-2,4.9C486.3,242.2,485.9,242.5,485.4,242.5z M489.6,232.6
				c-0.2,0-0.3,0-0.4-0.1c-0.3-0.1-0.5-0.3-0.6-0.6c-0.1-0.3-0.1-0.6,0-0.8c0.7-1.6,1.5-3.3,2.3-4.9c0.2-0.4,0.6-0.6,1-0.6
				c0.2,0,0.3,0,0.5,0.1c0.5,0.3,0.7,0.9,0.5,1.4c-0.8,1.6-1.5,3.2-2.3,4.8C490.4,232.4,490,232.6,489.6,232.6z M494.3,223
				c-0.2,0-0.3,0-0.5-0.1c-0.3-0.1-0.4-0.4-0.5-0.6c-0.1-0.3-0.1-0.6,0.1-0.8c0.8-1.6,1.7-3.2,2.5-4.7c0.2-0.3,0.5-0.5,0.9-0.5
				c0.2,0,0.4,0,0.5,0.1c0.2,0.1,0.4,0.4,0.5,0.6c0.1,0.3,0,0.6-0.1,0.8c-0.9,1.5-1.7,3.1-2.5,4.7C495.1,222.8,494.7,223,494.3,223z
				 M499.5,213.7c-0.2,0-0.4-0.1-0.5-0.1c-0.5-0.3-0.7-1-0.4-1.5c0.9-1.5,1.8-3.1,2.8-4.6c0.2-0.3,0.5-0.5,0.9-0.5
				c0.2,0,0.4,0.1,0.6,0.2c0.5,0.3,0.7,1,0.3,1.5c-0.9,1.5-1.9,3-2.8,4.6C500.2,213.5,499.9,213.7,499.5,213.7z M505.1,204.6
				c-0.2,0-0.4-0.1-0.6-0.2c-0.5-0.3-0.6-1-0.3-1.5c1-1.5,2-3,3-4.5c0.2-0.3,0.5-0.5,0.9-0.5c0.2,0,0.4,0.1,0.6,0.2
				c0.5,0.3,0.6,1,0.3,1.5c-1,1.5-2,2.9-3,4.4C505.8,204.4,505.5,204.6,505.1,204.6z M511.2,195.8c-0.2,0-0.4-0.1-0.6-0.2
				c-0.5-0.3-0.6-1-0.2-1.5c1-1.4,2.1-2.9,3.2-4.3c0.2-0.3,0.5-0.4,0.8-0.4c0.2,0,0.5,0.1,0.6,0.2c0.5,0.4,0.6,1,0.2,1.5
				c-1.1,1.4-2.2,2.8-3.2,4.3C511.9,195.6,511.6,195.8,511.2,195.8z M517.7,187.3c-0.2,0-0.5-0.1-0.7-0.2c-0.2-0.2-0.4-0.4-0.4-0.7
				c0-0.3,0-0.6,0.2-0.8c1.1-1.4,2.3-2.8,3.4-4.2c0.2-0.2,0.5-0.4,0.8-0.4c0.3,0,0.5,0.1,0.7,0.3c0.2,0.2,0.4,0.4,0.4,0.7
				c0,0.3-0.1,0.6-0.2,0.8c-1.1,1.4-2.3,2.7-3.4,4.1C518.4,187.1,518.1,187.3,517.7,187.3z M524.6,179.1c-0.3,0-0.5-0.1-0.7-0.3
				c-0.2-0.2-0.3-0.4-0.4-0.7c0-0.3,0.1-0.6,0.3-0.8c1.2-1.3,2.4-2.7,3.6-4c0.2-0.2,0.5-0.3,0.8-0.3c0.3,0,0.5,0.1,0.7,0.3
				c0.2,0.2,0.3,0.5,0.3,0.7c0,0.3-0.1,0.6-0.3,0.8c-1.2,1.3-2.4,2.6-3.6,4C525.2,178.9,524.9,179.1,524.6,179.1z M531.9,171.2
				c-0.3,0-0.5-0.1-0.7-0.3c-0.2-0.2-0.3-0.5-0.3-0.7c0-0.3,0.1-0.6,0.3-0.8c1.2-1.3,2.5-2.6,3.8-3.8c0.2-0.2,0.5-0.3,0.8-0.3
				c0.3,0,0.6,0.1,0.8,0.3c0.4,0.4,0.4,1.1,0,1.5c-1.3,1.3-2.5,2.5-3.7,3.8C532.4,171.1,532.2,171.2,531.9,171.2z M539.5,163.6
				c-0.3,0-0.6-0.1-0.8-0.3c-0.4-0.4-0.4-1.1,0-1.5c1.3-1.2,2.6-2.5,3.9-3.7c0.2-0.2,0.5-0.3,0.7-0.3c0.3,0,0.6,0.1,0.8,0.3
				c0.4,0.4,0.4,1.1-0.1,1.5c-1.3,1.2-2.6,2.4-3.9,3.6C540,163.5,539.7,163.6,539.5,163.6z M547.4,156.4c-0.3,0-0.6-0.1-0.8-0.4
				c-0.4-0.4-0.3-1.1,0.1-1.5c1.4-1.2,2.7-2.4,4.1-3.5c0.2-0.2,0.4-0.2,0.7-0.2c0.3,0,0.6,0.1,0.8,0.4c0.4,0.5,0.3,1.1-0.1,1.5
				c-1.4,1.1-2.7,2.3-4.1,3.5C547.9,156.3,547.7,156.4,547.4,156.4z M555.7,149.6c-0.3,0-0.6-0.1-0.8-0.4c-0.4-0.5-0.3-1.1,0.2-1.5
				c1.4-1.1,2.8-2.2,4.3-3.3c0.2-0.1,0.4-0.2,0.6-0.2c0.3,0,0.6,0.2,0.8,0.4c0.4,0.5,0.3,1.1-0.2,1.5c-1.4,1.1-2.8,2.2-4.2,3.3
				C556.2,149.5,555.9,149.6,555.7,149.6z M564.2,143.1c-0.3,0-0.7-0.2-0.9-0.4c-0.3-0.5-0.2-1.1,0.2-1.5c1.5-1.1,2.9-2.1,4.4-3.1
				c0.2-0.1,0.4-0.2,0.6-0.2c0.4,0,0.7,0.2,0.9,0.5c0.3,0.5,0.2,1.2-0.3,1.5c-1.5,1-2.9,2-4.4,3.1
				C564.7,143,564.5,143.1,564.2,143.1z M573.1,137c-0.4,0-0.7-0.2-0.9-0.5c-0.3-0.5-0.2-1.2,0.3-1.5c1.5-1,3-2,4.5-2.9
				c0.2-0.1,0.4-0.2,0.6-0.2c0.4,0,0.7,0.2,0.9,0.5c0.3,0.5,0.2,1.2-0.3,1.5c-1.5,0.9-3,1.9-4.5,2.9
				C573.5,136.9,573.3,137,573.1,137z M582.2,131.3c-0.4,0-0.7-0.2-0.9-0.5c-0.1-0.2-0.2-0.5-0.1-0.8c0.1-0.3,0.2-0.5,0.5-0.7
				c1.5-0.9,3.1-1.8,4.7-2.7c0.2-0.1,0.3-0.1,0.5-0.1c0.4,0,0.7,0.2,0.9,0.5c0.1,0.2,0.2,0.5,0.1,0.8c-0.1,0.3-0.3,0.5-0.5,0.6
				c-1.5,0.9-3.1,1.8-4.6,2.7C582.6,131.3,582.4,131.3,582.2,131.3z M591.6,126.1c-0.4,0-0.8-0.2-0.9-0.6c-0.3-0.5-0.1-1.2,0.4-1.4
				c1.6-0.8,3.2-1.7,4.8-2.5c0.1-0.1,0.3-0.1,0.5-0.1c0.4,0,0.8,0.2,1,0.6c0.3,0.5,0,1.2-0.5,1.4c-1.6,0.8-3.2,1.6-4.7,2.4
				C591.9,126,591.7,126.1,591.6,126.1z M601.1,121.3c-0.4,0-0.8-0.2-1-0.6c-0.2-0.5,0-1.2,0.5-1.4c1.6-0.8,3.3-1.5,4.9-2.2
				c0.1-0.1,0.3-0.1,0.4-0.1c0.4,0,0.8,0.2,1,0.6c0.1,0.3,0.1,0.5,0,0.8c-0.1,0.3-0.3,0.5-0.6,0.6c-1.6,0.7-3.2,1.5-4.9,2.2
				C601.5,121.2,601.3,121.3,601.1,121.3z M610.9,116.9c-0.4,0-0.8-0.3-1-0.7c-0.2-0.5,0-1.2,0.6-1.4c1.7-0.7,3.3-1.4,5-2
				c0.1,0,0.3-0.1,0.4-0.1c0.4,0,0.8,0.3,1,0.7c0.2,0.5-0.1,1.2-0.6,1.4c-1.7,0.6-3.3,1.3-5,2C611.2,116.9,611.1,116.9,610.9,116.9z
				 M621,113.1c-0.4,0-0.9-0.3-1-0.7c-0.1-0.3-0.1-0.6,0-0.8c0.1-0.3,0.3-0.5,0.6-0.5c1.7-0.6,3.4-1.2,5.1-1.8
				c0.1,0,0.2-0.1,0.3-0.1c0.5,0,0.9,0.3,1,0.7c0.1,0.3,0.1,0.6-0.1,0.8c-0.1,0.3-0.3,0.4-0.6,0.5c-1.7,0.6-3.4,1.1-5,1.7
				C621.2,113,621.1,113.1,621,113.1z M631.1,109.7c-0.5,0-0.9-0.3-1-0.8c-0.1-0.3-0.1-0.6,0.1-0.8c0.1-0.3,0.4-0.4,0.6-0.5
				c1.7-0.5,3.5-1,5.2-1.5l0.1,0l0.2,0c0.5,0,0.9,0.3,1,0.8c0.2,0.6-0.2,1.2-0.7,1.3c-1.7,0.5-3.4,1-5.1,1.5
				C631.3,109.7,631.2,109.7,631.1,109.7z M641.5,106.9c-0.5,0-0.9-0.3-1-0.8c-0.1-0.3,0-0.6,0.1-0.8c0.1-0.2,0.4-0.4,0.7-0.5
				c1.7-0.4,3.5-0.8,5.3-1.2l0.1,0l0.2,0c0.5,0,0.9,0.4,1,0.8c0.1,0.6-0.2,1.1-0.8,1.3c-1.7,0.4-3.5,0.8-5.2,1.2l-0.1,0L641.5,106.9
				z M652,104.6c-0.5,0-0.9-0.4-1-0.9c-0.1-0.6,0.3-1.1,0.8-1.2c1.8-0.3,3.6-0.7,5.3-0.9l0.1,0l0.1,0c0.5,0,1,0.4,1.1,0.9
				c0,0.3,0,0.6-0.2,0.8c-0.2,0.2-0.4,0.4-0.7,0.4c-1.7,0.3-3.5,0.6-5.3,0.9l-0.1,0L652,104.6z M662.6,102.8c-0.5,0-1-0.4-1.1-0.9
				c0-0.3,0-0.6,0.2-0.8c0.2-0.2,0.4-0.4,0.7-0.4c1.8-0.2,3.6-0.5,5.3-0.7c0,0,0,0,0,0c0.7,0,1.1,0.4,1.2,0.9
				c0.1,0.6-0.4,1.1-0.9,1.2c-1.8,0.2-3.5,0.4-5.3,0.7L662.6,102.8z M710.5,102.1c-1.8-0.2-3.5-0.4-5.3-0.5c-0.6,0-1-0.6-1-1.1
				c0-0.6,0.5-1,1.1-1c1.9,0.1,3.7,0.3,5.4,0.5c0.6,0.1,1,0.6,0.9,1.2c-0.1,0.5-0.5,1-1.1,1L710.5,102.1z M673.2,101.6
				c-0.5,0-1-0.4-1.1-1c0-0.3,0.1-0.6,0.2-0.8c0.2-0.2,0.4-0.3,0.7-0.4c1.8-0.1,3.6-0.3,5.4-0.4c0,0,0,0,0,0c0.6,0,1.1,0.4,1.1,1
				c0,0.6-0.4,1.1-1,1.1C676.8,101.4,675.1,101.5,673.2,101.6L673.2,101.6z M699.9,101.2c-1.8-0.1-3.5-0.2-5.3-0.2
				c-0.3,0-0.5-0.1-0.7-0.3c-0.2-0.2-0.3-0.5-0.3-0.8c0-0.6,0.5-1,1.1-1c1.8,0,3.6,0.1,5.4,0.2c0.6,0,1,0.5,1,1.1
				C701,100.8,700.5,101.2,699.9,101.2L699.9,101.2z M683.9,101c-0.6,0-1-0.5-1.1-1c0-0.3,0.1-0.6,0.3-0.8c0.2-0.2,0.5-0.3,0.7-0.3
				c1.8-0.1,3.6-0.1,5.4-0.1c0.6,0,1.1,0.5,1.1,1.1c0,0.3-0.1,0.6-0.3,0.8c-0.2,0.2-0.5,0.3-0.8,0.3C687.5,101,685.7,101,683.9,101
				L683.9,101z"/>
		</g>
		<g>
			<path class="st2" d="M677,452.9c-0.9-0.1-1.8-0.2-2.7-0.3c-0.6-0.1-1-0.6-1-1.2c0.1-0.5,0.5-1,1.1-1c1,0.1,1.9,0.2,2.8,0.3
				c0.3,0,0.5,0.2,0.7,0.4c0.2,0.2,0.3,0.5,0.2,0.8C678.1,452.5,677.6,452.9,677,452.9L677,452.9z"/>
		</g>
	</g>
	<g>
		<g>
			<g>
				<path class="st1" d="M615.7,213c-0.3-0.6-84.3,22.5-84.8,22.8c0.3-0.5,18.2-35.4,50.8-43.8c7.4-1.9,15.5-2.5,24.3-1
					c9.8,1.6,18,5.2,24.7,10.1C623.6,202.4,619.4,206.7,615.7,213z"/>
			</g>
			<g>
				<path class="st1" d="M530.8,235.9C530.8,235.9,530.8,235.9,530.8,235.9L530.8,235.9z"/>
			</g>
		</g>
		<g>
			<g>
				<path class="st2" d="M615.7,213c-0.3-0.6-84.3,22.5-84.8,22.8c0.3-0.5,18.2-35.4,50.8-43.8c7.4-1.9,15.5-2.5,24.3-1
					c9.8,1.6,18,5.2,24.7,10.1C623.6,202.4,619.4,206.7,615.7,213z"/>
				<path class="st2" d="M530.8,236.3c-0.1,0-0.2,0-0.3-0.1c-0.1-0.1-0.2-0.3-0.1-0.5c0.2-0.4,4.7-9.2,13.3-19
					c7.9-9,20.8-20.6,37.8-25c7.9-2.1,16.2-2.4,24.5-1c9.4,1.6,17.8,5,24.9,10.2c0.1,0.1,0.2,0.3,0.2,0.5c0,0.2-0.2,0.3-0.4,0.3
					c-6.2,1.1-10.4,4.5-14.7,11.7c-0.1,0.1-0.2,0.2-0.4,0.2c0,0-0.1,0-0.1,0c-3.4,0.2-83.6,22.5-84.5,22.8
					C531,236.3,530.9,236.3,530.8,236.3z M596.1,190.7c-4.8,0-9.6,0.6-14.3,1.8c-16.8,4.3-29.6,15.8-37.3,24.7
					c-7.1,8.1-11.3,15.4-12.7,17.9c5.1-1.5,26.4-7.4,41.2-11.4c34.7-9.5,41.2-11,42.5-11.1c4.2-6.9,8.4-10.4,14.2-11.7
					c-6.8-4.8-14.7-7.9-23.7-9.4C602.6,190.9,599.3,190.7,596.1,190.7z M615.3,213.3L615.3,213.3L615.3,213.3z M615.3,213.2
					C615.3,213.2,615.3,213.2,615.3,213.2C615.3,213.2,615.3,213.2,615.3,213.2z M615.3,213.2C615.3,213.2,615.3,213.2,615.3,213.2
					C615.3,213.2,615.3,213.2,615.3,213.2z M615.3,213.2C615.3,213.2,615.3,213.2,615.3,213.2C615.3,213.2,615.3,213.2,615.3,213.2z
					 M615.3,213.2C615.3,213.2,615.3,213.2,615.3,213.2C615.3,213.2,615.3,213.2,615.3,213.2z M615.3,213.2
					C615.3,213.2,615.3,213.2,615.3,213.2C615.3,213.2,615.3,213.2,615.3,213.2z"/>
			</g>
			<g>
				<path class="st2" d="M530.8,236.3c-0.1,0-0.2,0-0.3-0.1c-0.2-0.2-0.2-0.5,0-0.6c0.2-0.2,0.5-0.2,0.6,0c0.2,0.2,0.2,0.5,0,0.6
					l0,0C531.1,236.3,531,236.3,530.8,236.3z"/>
			</g>
		</g>
		<g>
			<g>
				<path class="st2" d="M530.8,236.3c-0.1,0-0.2,0-0.3-0.1c-0.1-0.1-0.2-0.3-0.1-0.5c0.2-0.4,4.7-9.2,13.3-19
					c7.9-9,20.8-20.6,37.8-25c7.9-2.1,16.2-2.4,24.5-1c9.4,1.6,17.8,5,24.9,10.2c0.1,0.1,0.2,0.3,0.2,0.5c0,0.2-0.2,0.3-0.4,0.3
					c-6.2,1.1-10.4,4.5-14.7,11.7c-0.1,0.1-0.2,0.2-0.4,0.2c0,0-0.1,0-0.1,0c-3.4,0.2-83.6,22.5-84.5,22.8
					C531,236.3,530.9,236.3,530.8,236.3z M596.1,190.7c-4.8,0-9.6,0.6-14.3,1.8c-16.8,4.3-29.6,15.8-37.3,24.7
					c-7.1,8.1-11.3,15.4-12.7,17.9c5.1-1.5,26.4-7.4,41.2-11.4c34.7-9.5,41.2-11,42.5-11.1c4.2-6.9,8.4-10.4,14.2-11.7
					c-6.8-4.8-14.7-7.9-23.7-9.4C602.6,190.9,599.3,190.7,596.1,190.7z M615.3,213.3L615.3,213.3L615.3,213.3z M615.3,213.2
					C615.3,213.2,615.3,213.2,615.3,213.2C615.3,213.2,615.3,213.2,615.3,213.2z M615.3,213.2C615.3,213.2,615.3,213.2,615.3,213.2
					C615.3,213.2,615.3,213.2,615.3,213.2z M615.3,213.2C615.3,213.2,615.3,213.2,615.3,213.2C615.3,213.2,615.3,213.2,615.3,213.2z
					 M615.3,213.2C615.3,213.2,615.3,213.2,615.3,213.2C615.3,213.2,615.3,213.2,615.3,213.2z M615.3,213.2
					C615.3,213.2,615.3,213.2,615.3,213.2C615.3,213.2,615.3,213.2,615.3,213.2z"/>
			</g>
			<g>
				<path class="st2" d="M530.8,236.3c-0.1,0-0.2,0-0.3-0.1c-0.2-0.2-0.2-0.5,0-0.6c0.2-0.2,0.5-0.2,0.6,0c0.2,0.2,0.2,0.5,0,0.6
					l0,0C531.1,236.3,531,236.3,530.8,236.3z"/>
			</g>
		</g>
	</g>
	<g>
		<path class="st1" d="M916.8,523.4c-31.5,0-56.9-9.3-73.4-27c-31.1-32.7-65.3-48.6-104.4-48.6c-14.3,0-27.3,2-38.7,3.7
			c-8.8,1.3-16.5,2.5-23,2.5c0,0,0,0,0,0c-9.4,0-15.2-2.5-18.9-8c-12-17.9,0.8-35,13.2-51.4C681,382,690,370.1,688.2,358
			c-1-6.9-5.6-13.3-13.9-19.4c-6.9-5.1-12.7-7.5-17.8-7.5c-0.3,0-0.5,0-0.8,0l-0.3-1.2l42.1-23.6l63-32.5l0.1,0
			c1-0.2,2.1-0.3,3.1-0.3c5.4,0,11.4,2.5,18.5,7.8c7.4,5.5,11.4,11.5,12.3,18.6c2,15.5-12.2,32.9-26,49.8
			c-16.6,20.4-33.7,41.4-22.2,58.7c2.9,4.4,7.5,6.4,14.2,6.4c9.4,0,22.5-3.9,39-8.8c14.9-4.4,33.4-9.9,54.9-14.3
			c13.2-2.7,24.6-4,34.7-4c33,0,47.2,13.8,65.3,31.3c11,10.6,23.4,22.6,42.4,33.4c9.4,6.5,16.4,9.4,22.8,9.4c0,0,0,0,0,0
			c7.2,0,13.4-3.6,22-8.7c1.9-1.1,3.9-2.3,6.1-3.5l1.7-1l-0.9,1.8c-14.4,29.7-27.2,46.5-40.3,53.1
			C975.5,516.6,943.8,523.4,916.8,523.4z"/>
		<path class="st2" d="M916.7,523.9c-1.6,0-3.3,0-4.9-0.1c-14.4-0.5-27.6-2.9-39-7.3c-11.8-4.6-21.8-11.2-29.8-19.8
			c-31-32.6-65.1-48.4-104.3-48.4c-14.3,0-27.1,1.9-38.4,3.7c-8.9,1.4-16.6,2.5-23.1,2.5c-9.5,0-15.4-2.5-19.2-8.2
			c-12.2-18.2,0.7-35.3,13.2-51.9c9.4-12.6,18.4-24.4,16.6-36.3c-1-6.8-5.5-13.1-13.7-19.1c-6.8-5-12.5-7.4-17.5-7.4
			c-0.3,0-0.5,0-0.8,0c0,0,0,0,0,0c-0.5,0-0.9-0.3-1.1-0.8c-0.1-0.5,0.1-1,0.5-1.2l42.1-23.6l62.9-32.5c0.1,0,0.2-0.1,0.3-0.1
			c1-0.2,2.1-0.3,3.2-0.3c5.5,0,11.6,2.6,18.8,7.9c7.5,5.5,11.6,11.7,12.5,18.9c2,15.7-12.3,33.2-26.1,50.1
			c-16.5,20.2-33.5,41.2-22.1,58.1c2.9,4.3,7.3,6.3,13.9,6.3c9.2,0,22.3-3.9,38.9-8.8c14.9-4.4,33.4-9.9,55-14.3
			c13.2-2.7,24.6-3.9,34.7-3.9c11.1,0,20.6,1.5,29.1,4.7c14.8,5.6,24.9,15.3,36.7,26.7c11,10.6,23.4,22.6,42.3,33.4
			c9.3,6.5,16.3,9.3,22.6,9.3c7.1,0,13.3-3.6,21.8-8.6c1.9-1.1,3.9-2.3,6.1-3.5c0.2-0.1,0.3-0.1,0.5-0.1c0.3,0,0.5,0.1,0.7,0.3
			c0.3,0.3,0.4,0.8,0.2,1.2c-14.5,29.8-27.3,46.7-40.5,53.3C975.6,517,943.8,523.9,916.7,523.9z M739,446.2c9,0,17.4,0.8,25.7,2.3
			c29,5.5,55.2,20.8,79.9,46.8c15.5,16.6,38.1,25.5,67.3,26.4c1.6,0,3.2,0.1,4.8,0.1c26.8,0,58.4-6.9,91.2-19.8
			c12.2-6.1,24.3-21.8,37.9-49.2c-1,0.6-2,1.2-3,1.8c-8.9,5.2-15.3,8.9-22.9,8.9c-6.7,0-14-3-23.7-9.7c-19-10.9-31.6-23-42.6-33.6
			c-17.8-17.2-31.9-30.8-64-30.8c-10,0-21.3,1.3-34.5,3.9c-21.4,4.3-39.9,9.8-54.8,14.2c-16.8,5-30,8.9-39.6,8.9
			c-7.4,0-12.3-2.3-15.6-7.2c-12.2-18.3,5.3-39.8,22.3-60.7c13.5-16.6,27.5-33.7,25.6-48.5c-0.8-6.6-4.6-12.3-11.7-17.4
			c-6.8-5-12.5-7.4-17.5-7.4c-0.9,0-1.8,0.1-2.6,0.2l-62.7,32.4l-38.9,21.8c4.7,0.7,10,3.2,15.9,7.6c8.7,6.4,13.5,13.1,14.6,20.6
			c1.9,12.7-7.3,24.9-17,37.9c-12,16-24.4,32.5-13.1,49.5c3.4,5,8.8,7.3,17.5,7.3c6.4,0,14-1.2,22.8-2.5
			C711.5,448.1,724.5,446.2,739,446.2z"/>
	</g>
	<g>
		<path class="st3" d="M681.4,328.7l80.7-47.5c0,0,34.2,13.3,24.2,35.6c-36.6,22.6-87.1,45.1-87.1,45.1S695.5,333.5,681.4,328.7z"/>
		<path class="st2" d="M699.2,362.4c-0.1,0-0.2,0-0.2-0.1c-0.1-0.1-0.2-0.2-0.2-0.3c0-0.3-3.8-28.2-17.5-32.9
			c-0.2-0.1-0.3-0.2-0.3-0.4c0-0.2,0.1-0.3,0.2-0.4l80.7-47.5c0.1-0.1,0.3-0.1,0.4,0c0.8,0.3,19.5,7.7,24.9,20.9
			c2,5,1.9,10.1-0.5,15.3c0,0.1-0.1,0.1-0.2,0.2c-36.2,22.3-86.7,44.9-87.2,45.2C699.3,362.4,699.2,362.4,699.2,362.4z M682.4,328.6
			c12.5,5.2,16.5,28.5,17.1,32.7c5.5-2.5,52.3-23.8,86.4-44.8c2.2-4.9,2.3-9.8,0.4-14.5c-4.9-12.1-22.1-19.5-24.2-20.3L682.4,328.6z
			"/>
	</g>
	<g>
		<path class="st1" d="M731.9,220.5c-48,25-60.2,70.1-34.1,86.3l-42.1,23.6c-16.2,0.8-21.3,26.2-36.4,35c-4.9,2.9-10.8,4-18.4,2
			c-38.6-10-29.6-62.8,23.8-90.6c33.2-17.3,32.2-56.5,5.9-75.7c-6.7-4.9-14.9-8.5-24.7-10.1c-8.8-1.5-17-0.9-24.3,1l92.6-50.5
			l0.2-0.1c10.7-5.8,23.7-9.2,38.7-6.7C761.5,142.8,773.5,198.8,731.9,220.5z"/>
		<path class="st2" d="M608.3,369.6c-2.4,0-4.9-0.3-7.6-1c-14.1-3.7-22.8-13-24.3-26.3c-1.2-10.7,2.5-22.9,10.4-34.4
			c8.6-12.5,21.6-23.6,37.5-31.9c14.5-7.6,23.5-20.3,24.6-34.9c1.1-15-5.9-29.5-18.8-39c-6.9-5-15-8.4-24.2-9.9
			c-3.3-0.5-6.6-0.8-9.8-0.8c-4.8,0-9.5,0.6-14.1,1.8l-0.1,0l-0.2,0c-0.4,0-0.8-0.3-1-0.7c-0.2-0.5,0-1.1,0.5-1.3l92.8-50.6
			c9.3-5.1,19.2-7.7,29.2-7.7c3.3,0,6.8,0.3,10.1,0.9c23.7,4,41.1,20.1,44.4,41.1c1.4,9,0,18-4,26c-4.3,8.4-11.5,15.5-20.8,20.5
			l-0.5,0.3c-27.7,14.4-46.1,37.6-46.9,59c-0.4,11,4.2,20.1,12.9,25.5c0.3,0.2,0.5,0.6,0.5,0.9c0,0.4-0.2,0.7-0.5,0.9l-42.1,23.6
			c-0.1,0.1-0.3,0.1-0.5,0.1c-8.6,0.4-14.1,8.5-19.9,17.1c-4.6,6.8-9.3,13.8-16,17.7C616.3,368.5,612.5,369.6,608.3,369.6z
			 M596.1,189.2c3.3,0,6.8,0.3,10.1,0.9c9.5,1.6,18,5.1,25.2,10.3c13.5,9.9,20.9,25.2,19.7,40.9c-1.2,15.4-10.6,28.7-25.8,36.7
			c-15.6,8.1-28.4,18.9-36.7,31.2c-7.6,11.1-11.2,22.8-10,33c1.4,12.3,9.5,21,22.7,24.4c2.5,0.6,4.8,1,7,1c3.8,0,7.3-0.9,10.6-2.9
			c6.3-3.7,10.9-10.5,15.3-17.1c6-9,11.7-17.4,21.3-18l40.4-22.7c-8.4-5.9-12.8-15.2-12.4-26.4c0.8-22.1,19.7-46,48.1-60.8
			c17.8-9.3,27.1-26.3,24.2-44.5c-3.2-20.1-19.9-35.5-42.7-39.4c-3.3-0.5-6.6-0.8-9.8-0.8c-9.7,0-19.2,2.5-28.2,7.4l-86.8,47.3
			C590.8,189.3,593.4,189.2,596.1,189.2z"/>
	</g>
	<g>
		<path class="st3" d="M659.9,249.7c38.8-20.3,91.6-58.2,91.6-58.2s3.4-33.7-24.6-41.1c-33.3,16.1-84.6,46.2-84.6,46.2
			S670.9,217.6,659.9,249.7z"/>
		<path class="st2" d="M659.9,250.2c-0.1,0-0.2,0-0.3-0.1c-0.1-0.1-0.2-0.3-0.1-0.5c5.6-16.4,0.6-29.8-4.6-38.2
			c-5.6-9.1-12.7-14.4-12.8-14.4c-0.1-0.1-0.2-0.2-0.2-0.4c0-0.1,0.1-0.3,0.2-0.4c0.5-0.3,51.7-30.3,84.6-46.2c0.1,0,0.2-0.1,0.3,0
			c14.7,3.9,20.7,15,23.1,23.7c2.6,9.3,1.8,17.9,1.8,17.9c0,0.1-0.1,0.2-0.2,0.3c-0.5,0.4-53.3,38.2-91.7,58.2
			C660.1,250.1,660,250.2,659.9,250.2z M643.2,196.6c1.8,1.4,7.6,6.5,12.5,14.2c5.2,8.4,10.2,21.7,5,37.9
			c37.1-19.6,87.1-55.2,90.4-57.5c0.1-1.3,0.6-9.1-1.8-17.4c-3.5-12.2-11-19.9-22.3-23C696,165.9,648.9,193.3,643.2,196.6z"/>
	</g>
	<g>
		<path class="st2" d="M674.7,338.1l-55.4,27.4c15-8.8,20.2-34.2,36.4-35C660.8,330.2,666.9,332.3,674.7,338.1z"/>
		<path class="st2" d="M619.3,365.9c-0.2,0-0.3-0.1-0.4-0.2c-0.1-0.2,0-0.5,0.2-0.6c6.4-3.8,11-10.6,15.5-17.3
			c6-8.9,11.6-17.3,21-17.8c5.5-0.3,11.8,2.2,19.3,7.7c0.1,0.1,0.2,0.2,0.2,0.4c0,0.2-0.1,0.3-0.2,0.4l-55.4,27.4
			C619.5,365.9,619.4,365.9,619.3,365.9z M656.5,330.9c-0.3,0-0.5,0-0.8,0c-8.9,0.5-14.5,8.7-20.3,17.4c-3.5,5.2-7.1,10.5-11.6,14.5
			l50.1-24.8C667.2,333.2,661.5,330.9,656.5,330.9z"/>
	</g>
	<g>
		<g>
			<path class="st2" d="M849.1,431.8c-0.4,0.5-8.2-2.7-13.7,4s7.9,51.7,15.5,51.2c7.7-0.6,7.5-21.5,7.6-33.8
				C858.7,441,849.1,431.8,849.1,431.8z"/>
			<path class="st2" d="M850.8,488.1c-2.3,0-4.7-2.5-7.4-7.7c-6-11.5-13.7-39.2-8.8-45.2c2.6-3.2,6-4.8,10.1-4.8
				c1.4,0,2.6,0.2,3.4,0.3c0.2,0,0.5,0.1,0.7,0.1c0.1,0,0.2,0,0.3,0c0,0,0,0,0,0c0.3,0,0.6,0.1,0.8,0.3c0.1,0.1,9.9,9.7,9.8,22.2
				l0,1.7c-0.1,13.7-0.3,32.6-8.6,33.2C851,488.1,850.9,488.1,850.8,488.1z M844.8,432.5c-3.5,0-6.3,1.3-8.5,4
				c-3.4,4.2,1.8,29,9,42.8c3.2,6.1,5,6.6,5.5,6.6c6.4-0.5,6.6-20.4,6.7-31l0-1.7c0.1-10.4-7.3-18.7-8.8-20.3
				c-0.3,0-0.6-0.1-0.9-0.1C847,432.7,846,432.5,844.8,432.5z"/>
		</g>
		<g>
			<path class="st1" d="M861.4,426.9l-6,17.7c0,0-10.1-3.1-10.2-12.2c5.1-12.8,5.3-13.9,5.3-13.9S860.7,422,861.4,426.9z"/>
			<path class="st2" d="M855.4,445.7c-0.1,0-0.2,0-0.3,0c-0.1,0-10.9-3.4-10.9-13.2c0-0.1,0-0.3,0.1-0.4c4.8-12.1,5.3-13.7,5.3-13.7
				c0.1-0.3,0.2-0.5,0.5-0.7c0.2-0.1,0.3-0.1,0.5-0.1c0.1,0,0.2,0,0.3,0.1c1.1,0.4,10.8,3.8,11.6,9.2c0,0.2,0,0.3,0,0.5l-6,17.7
				C856.2,445.4,855.8,445.7,855.4,445.7z M846.3,432.6c0.1,6.4,6.2,9.6,8.4,10.6l5.6-16.4c-0.7-3.3-6.8-6-9.1-6.9
				C850.7,421.4,849.4,424.8,846.3,432.6z"/>
		</g>
		<g>
			<path class="st4" d="M829.1,248.9c0,0,97.8,32.1,94.6,66.5s-61.1,126.8-61.1,126.8c-6.8-0.6-12.6-7.3-17.7-19.5
				c0,0,34.4-91,28.5-110c-5.9-19-73.8-45.3-73.8-45.3L829.1,248.9z"/>
			<path class="st2" d="M862.5,443.2c-7-0.6-13.2-7.4-18.5-20.1c-0.1-0.2-0.1-0.5,0-0.8c0.1-0.2,8.8-23.3,16.5-48.2
				c10.2-32.5,14.3-53.6,12-61.1c-5.7-18.3-72.5-44.3-73.2-44.6c-0.4-0.1-0.6-0.5-0.7-0.9c0-0.4,0.1-0.8,0.5-1l29.4-18.6
				c0.2-0.1,0.4-0.2,0.6-0.2c0.1,0,0.2,0,0.3,0.1c0.2,0.1,24.8,8.2,48.7,20.4c14,7.2,25.1,14.4,32.9,21.4
				c9.9,8.9,14.6,17.6,13.8,25.8c-3.1,34.2-60.7,126.3-61.3,127.2C863.3,443.1,862.9,443.3,862.5,443.2L862.5,443.2z M846.1,422.7
				c4.8,11.3,10.1,17.5,16,18.4c4.4-7.1,57.6-93.3,60.6-125.7c1.6-17.2-23.9-34-45.5-45.1c-21.9-11.2-44.2-18.9-47.9-20.2L802,267.2
				c13.5,5.4,67,27.6,72.5,45.2c2.5,7.9-1.3,28.2-11.3,60.3C855.8,396.8,847.4,419.2,846.1,422.7z"/>
		</g>
		<g>
			<path class="st2" d="M922.7,450.1c-0.1,0.6-8.3,2.1-9.3,10.8c-1,8.7,34.6,39.2,40.8,34.6c6.2-4.6-5.4-22.2-11.9-32.5
				S922.7,450.1,922.7,450.1z"/>
			<path class="st2" d="M952.5,497.1c-2,0-4.7-1-8.3-3c-11.3-6.5-32.7-25.5-31.9-33.2c0.8-7.5,6.5-10,8.9-11.1
				c0.2-0.1,0.5-0.2,0.6-0.3c0.1-0.1,0.1-0.1,0.2-0.2c0.2-0.1,0.4-0.2,0.6-0.2h0.1l0.1,0c0.1,0,13.5,2.7,20.2,13.4l0.9,1.4
				c7.4,11.6,17.4,27.5,10.8,32.5C954.2,496.8,953.4,497.1,952.5,497.1z M923,451.3c-0.2,0.1-0.5,0.2-0.8,0.4
				c-2.1,0.9-7,3.1-7.7,9.4c-0.6,5.3,17.2,23.4,30.8,31.1c4,2.3,6.1,2.8,7.2,2.8l0,0c0.5,0,0.8-0.1,1.1-0.3
				c5.1-3.8-5.6-20.6-11.3-29.7l-0.9-1.4C935.8,454.8,925.1,451.8,923,451.3z"/>
		</g>
		<g>
			<path class="st1" d="M930.4,439.4l4.5,18.1c0,0-10.2,2.9-15.1-4.7c-2.7-13.5-3.1-14.5-3.1-14.5S927.1,435.6,930.4,439.4z"/>
			<path class="st2" d="M930.5,458.5c-3.5,0-8.2-1-11.1-5.4c0,0-0.1-0.1-0.1-0.2c-2.6-13.1-3-14.5-3-14.5c0-0.1,0-0.2,0-0.4
				c0.1-0.1,0.2-0.2,0.3-0.2c0.4-0.1,10.7-2.7,14.1,1.3c0,0.1,0.1,0.1,0.1,0.2l4.5,18.1c0.1,0.2-0.1,0.5-0.3,0.5
				C935,457.9,933.1,458.5,930.5,458.5z M920.2,452.6c4.2,6.3,12.2,5,14.2,4.6l-4.4-17.6c-2.8-3-10.7-1.4-12.7-1
				C917.5,439.6,918.3,442.8,920.2,452.6z"/>
		</g>
		<g>
			<path class="st4" d="M752.9,266.9c0,0-1.2,33.6,61.2,44.9c62.5,11.3,90.5,132.2,90.5,132.2s28.1,6.8,31.2-6.3
				c-10.9-45.7-31.2-155.7-105.9-177C775.7,245.3,752.9,266.9,752.9,266.9z"/>
			<path class="st2" d="M919.1,446.8c-7.4-0.1-14.6-1.8-14.7-1.8c-0.4-0.1-0.7-0.4-0.8-0.8c-0.1-0.3-7.2-30.6-21.8-61.7
				c-13.4-28.6-36.1-64-67.9-69.7c-32.6-5.9-47.7-18-54.7-27.1c-7.6-10-7.4-18.6-7.4-18.9c0-0.3,0.1-0.5,0.3-0.7
				c0.2-0.2,6-5.6,18.6-9.1c6.9-1.9,14.5-2.9,22.8-2.9c11.4,0,23.7,1.9,36.7,5.5c16.4,4.7,31.4,14,44.5,27.8
				c11.1,11.7,21.2,26.8,29.9,45.1c15.8,33.2,24.4,70.4,30.1,95.1l0,0.1c0.8,3.5,1.5,6.7,2.3,9.7c0,0.2,0,0.3,0,0.5
				c-1.4,5.8-7.4,8.9-17.5,8.9L919.1,446.8z M905.6,443.1c1.8,0.4,7.6,1.5,13.6,1.6l0.4,0c6.1,0,13.7-1.2,15.3-7
				c-0.7-2.9-1.4-6.1-2.2-9.5c-5.7-24.7-14.2-61.8-29.9-94.8c-18.6-39.1-43.2-63.2-73-71.7c-12.8-3.6-25-5.5-36.1-5.5
				c-8,0-15.5,0.9-22.1,2.8c-10.4,2.9-16,7.1-17.4,8.4c0.1,1.9,0.8,9,7,17.2c6.7,8.8,21.5,20.5,53.3,26.3
				c14.5,2.6,28.3,11.3,41.1,25.8c10.2,11.5,19.7,26.7,28.4,45.2C897.3,410.5,904.4,438.5,905.6,443.1z"/>
		</g>
		<g>
			<path class="st2" d="M805.4,141.5c0,0,2.4,13.4,0,14.8s-11.3-1-11.1-1.7s2.1-11.6,2.1-11.6L805.4,141.5z"/>
			<path class="st2" d="M803,157.1c-3.2,0-7.8-1.3-8.8-2c-0.3-0.2-0.4-0.5-0.4-0.7c0.2-0.8,2-11.5,2.1-11.6c0-0.2,0.2-0.3,0.4-0.4
				l9.1-1.4c0.2,0,0.5,0.1,0.5,0.4c0.4,2.3,2.3,13.7-0.2,15.2C805,157,804.1,157.1,803,157.1z M794.7,154.4c1,0.7,8.4,2.7,10.4,1.4
				c1.4-0.9,0.8-8.5-0.1-13.9l-8.3,1.3C796.4,145,795,153,794.7,154.4z"/>
		</g>
		<g>
			<path class="st1" d="M858.2,213.9c-3.5,0.6-7.3,1.9-15.2,5.1c-22.5,6,3.7-52-34.3-63.7l-2.3,82.2c25,3.5,47.2-11.7,52.4-12.7
				C861.9,224.1,863.6,213.8,858.2,213.9z"/>
			<path class="st2" d="M814,239c-2.6,0-5.2-0.2-7.7-0.5c-0.5-0.1-0.9-0.5-0.9-1.1l2.3-82.2c0-0.3,0.2-0.6,0.4-0.8
				c0.2-0.1,0.4-0.2,0.6-0.2c0.1,0,0.2,0,0.3,0c22.1,6.8,23.2,28.9,24,45c0.4,8.5,0.8,15.9,4.1,18.3c0.8,0.6,1.7,0.9,2.9,0.9
				c0.8,0,1.7-0.1,2.7-0.4c7.9-3.1,11.7-4.4,15.3-5.1l0.1,0l0.2,0c2.5,0,4.2,1.8,4.5,4.7c0.4,3.4-1.2,7.8-3.7,8.3
				c-1.1,0.2-3.3,1.3-5.9,2.5C844.6,232.3,830.4,239,814,239L814,239z M807.5,236.5c2.1,0.3,4.3,0.4,6.5,0.4
				c15.9,0,29.9-6.6,38.2-10.5c3-1.4,5.1-2.4,6.4-2.7c1-0.2,2.3-3.2,2-6c-0.1-1.3-0.7-2.8-2.3-2.8c-3.3,0.6-7.1,1.9-14.9,5l-0.1,0
				c-1.2,0.3-2.2,0.5-3.2,0.5c-1.6,0-3-0.4-4.1-1.3c-4.1-3-4.5-10.4-4.9-19.9c-0.8-16-1.8-35.8-21.2-42.6L807.5,236.5z"/>
		</g>
		<g>
			<path class="st1" d="M858.5,215c0,0,10.7,0.6,13,4.2c2.2,3.6,1.8,11.4,1.8,11.4s-3.5,3.2-7.9,0.6c-4.4-2.7-4.6-7.9-7.7-8.3
				C853.9,220.1,856.2,215.7,858.5,215z"/>
			<path class="st2" d="M868.9,233.3c-1.4,0-2.8-0.4-4.1-1.2c-2.4-1.5-3.7-3.6-4.7-5.4c-1-1.7-1.6-2.6-2.5-2.7
				c-0.2,0-0.4-0.1-0.5-0.2c-2.6-1.9-2.6-4.3-2.4-5.5c0.4-2,1.9-3.8,3.6-4.3c0.1,0,0.2,0,0.3,0c1.2,0.1,11.4,0.8,13.9,4.7
				c2.3,3.7,2,11.2,2,12.1c0,0.3-0.1,0.5-0.3,0.7C874,231.5,871.9,233.3,868.9,233.3z M858.1,221.9c1.9,0.4,2.8,2,3.8,3.7
				c0.9,1.6,2,3.4,4,4.6c1,0.6,2,0.9,3.1,0.9l0,0c1.5,0,2.7-0.7,3.3-1.1c0-1.5,0-7.6-1.7-10.4c-1.5-2.3-8.1-3.4-11.9-3.7
				c-0.9,0.4-1.7,1.5-1.9,2.6C856.5,219.9,857,221,858.1,221.9z"/>
		</g>
		<g>
			<path class="st1" d="M814.3,157.7c-8.5-5.6-20.5-7.2-37.7-3.5c0,0-19.3,1-23.1,25.8c-4.5,29.7-2.8,89.4-2.8,89.4
				s84.3,0.7,89.9-20.6c-8.8-13.9-16.3-20.3-14.8-47.7L814.3,157.7z"/>
			<path class="st2" d="M750.7,270.5c-0.6,0-1-0.5-1-1c-0.1-2.5-1.7-60.4,2.8-89.6c2-13.2,8.4-19.8,13.4-22.9
				c5.3-3.3,10.1-3.7,10.6-3.8c6.1-1.3,11.9-2,16.9-2c8.6,0,15.7,1.8,21.5,5.6c0.5,0.3,0.6,1,0.3,1.5c-0.2,0.3-0.5,0.5-0.9,0.5
				c-0.2,0-0.4-0.1-0.6-0.2c-5.5-3.6-12.1-5.3-20.3-5.3c-4.9,0-10.5,0.7-16.6,2l-0.2,0c-0.2,0-4.7,0.3-9.6,3.5
				c-4.6,2.9-10.6,9.1-12.4,21.4c-4.1,27.1-3,79.7-2.8,88.2c30.5,0,82.7-4.2,87.7-19.4c-1.1-1.8-2.3-3.5-3.4-5.1
				c-7.1-10.6-12.7-19-11.4-42.8c0-0.6,0.5-1,1.1-1c0.7,0,1.1,0.5,1.1,1.1c-1.3,23.1,3.9,30.8,11,41.5c1.2,1.8,2.4,3.6,3.7,5.6
				c0.2,0.3,0.2,0.6,0.1,0.8c-2.5,9.3-18.6,15.7-48,19.1c-19.4,2.2-38.6,2.3-42.2,2.3C751,270.6,750.7,270.5,750.7,270.5z"/>
		</g>
		<g>
			<polygon class="st2" points="843.8,263.2 878.6,240.5 876.8,240.5 846.3,258.2 			"/>
			<path class="st2" d="M843.8,263.7c-0.1,0-0.2,0-0.3-0.1c-0.2-0.1-0.2-0.4-0.1-0.5l2.5-5.1c0-0.1,0.1-0.1,0.2-0.2l30.5-17.7
				c0.1,0,0.1-0.1,0.2-0.1h1.8c0.2,0,0.4,0.1,0.4,0.3c0.1,0.2,0,0.4-0.2,0.5l-34.8,22.7C844,263.6,843.9,263.7,843.8,263.7z
				 M846.6,258.5l-1.7,3.5l32.2-21h-0.2L846.6,258.5z"/>
		</g>
		<g>
			<polygon class="st2" points="802.7,245.3 846.5,258.5 843.8,263.2 800.6,248.9 			"/>
			<path class="st2" d="M843.8,263.7c0,0-0.1,0-0.1,0l-43.2-14.3c-0.1,0-0.2-0.1-0.3-0.3c0-0.1,0-0.3,0-0.4l2.1-3.6
				c0.1-0.2,0.3-0.3,0.5-0.2l43.9,13.3c0.1,0,0.2,0.1,0.3,0.3c0.1,0.1,0,0.3,0,0.4l-2.7,4.7C844.1,263.6,844,263.7,843.8,263.7z
				 M801.2,248.6l42.4,14.1l2.2-3.9l-43-13L801.2,248.6z"/>
		</g>
		<g>
			<path class="st1" d="M850.3,224.8c-1.4,0.3-47.7,20.5-47.7,20.5l43.9,13.3l35.6-22.5L850.3,224.8z"/>
			<path class="st2" d="M846.5,259.6c-0.1,0-0.2,0-0.3,0l-43.9-13.3c-0.4-0.1-0.7-0.5-0.8-1c0-0.4,0.2-0.9,0.6-1
				c13.9-6.1,46.5-20.3,47.9-20.6l0.1,0l0.2,0c0.1,0,0.2,0,0.4,0.1l31.8,11.3c0.4,0.1,0.7,0.5,0.7,0.9c0,0.4-0.1,0.8-0.5,1
				l-35.6,22.5C846.9,259.5,846.7,259.6,846.5,259.6z M846.4,257.4l33.3-21l-29.4-10.4c-3.3,1.2-29.6,12.6-44.6,19.2L846.4,257.4z"
				/>
		</g>
		<g>
			<polygon class="st2" points="885.2,212.7 846.3,258.2 849.2,260 887.4,215 			"/>
			<path class="st2" d="M849.2,260.4c-0.1,0-0.2,0-0.2-0.1l-2.9-1.8c-0.1-0.1-0.2-0.2-0.2-0.3c0-0.1,0-0.3,0.1-0.4l38.9-45.5
				c0.1-0.1,0.2-0.2,0.3-0.2c0.1,0,0.2,0,0.3,0.1l2.2,2.3c0.2,0.2,0.2,0.4,0,0.6l-38.2,45C849.4,260.4,849.3,260.4,849.2,260.4z
				 M847,258.1l2.1,1.3l37.7-44.4l-1.6-1.7L847,258.1z"/>
		</g>
		<g>
			<polygon class="st2" points="923.4,190.9 885.2,212.7 887.4,215 924.8,193.1 			"/>
			<path class="st2" d="M887.4,215.4c-0.1,0-0.2,0-0.3-0.1l-2.2-2.3c-0.1-0.1-0.1-0.2-0.1-0.4c0-0.1,0.1-0.3,0.2-0.3l38.3-21.8
				c0.2-0.1,0.5-0.1,0.6,0.1l1.4,2.2c0.1,0.1,0.1,0.2,0.1,0.3c0,0.1-0.1,0.2-0.2,0.3l-37.4,21.9
				C887.5,215.4,887.5,215.4,887.4,215.4z M885.9,212.8l1.6,1.6l36.7-21.4l-0.9-1.5L885.9,212.8z"/>
		</g>
		<g>
			<polygon class="st1" points="849.2,260 889,236.2 924.8,193.1 887.4,215 			"/>
			<path class="st2" d="M849.2,261c-0.3,0-0.6-0.1-0.8-0.4c-0.3-0.4-0.3-1,0-1.4l38.2-45c0.1-0.1,0.2-0.2,0.3-0.2l37.4-21.9
				c0.2-0.1,0.3-0.1,0.5-0.1c0.3,0,0.6,0.1,0.8,0.4c0.3,0.4,0.3,1,0,1.4l-35.9,43.1c-0.1,0.1-0.2,0.2-0.3,0.2l-39.8,23.7
				C849.6,261,849.4,261,849.2,261z M854.2,255.8l34.1-20.3l31.9-38.3l-32,18.7L854.2,255.8z"/>
		</g>
		<g>
			<path class="st1" d="M771,155.6c0,0-53.6,16-37.9,70.9c11.8,41.2,61.6,16.4,74,9.5c5-2.7,3.3-10.2-3.3-10.1
				c-1.9,0.7-4,1.5-6.6,2.6c-14.1,5.6-50.7,0.4-43.1-32L771,155.6z"/>
			<path class="st2" d="M763.2,250.8c-5.1,0-9.7-0.8-13.7-2.5c-8.5-3.5-14.4-10.8-17.5-21.5c-3.6-12.7-3.9-24.4-0.7-34.8
				c2.5-8.3,7.3-15.8,14.1-22.3c11.5-10.9,25.1-15.1,25.3-15.1c0.1,0,0.2,0,0.3,0c0.5,0,0.9,0.3,1,0.8c0.2,0.6-0.2,1.2-0.7,1.3
				c-0.1,0-13.3,4.1-24.4,14.6c-10.2,9.7-20.7,27.1-12.8,54.9c2.9,10.1,8.3,16.8,16.2,20.1c3.7,1.5,8.1,2.3,12.9,2.3
				c17.1,0,36-9.5,43.3-13.5c1.8-1,2.7-2.9,2.2-4.8c-0.4-1.5-1.9-3.3-4.8-3.3c-1.8,0.7-3.9,1.5-6.4,2.5c-3.2,1.3-7.6,2-12.4,2
				c-9.9,0-19-3-24.9-8.1c-7.4-6.3-9.8-15.7-7.2-27.1c0.1-0.5,0.5-0.8,1-0.8h0.1l0.2,0c0.6,0.1,0.9,0.7,0.8,1.3
				c-2.5,10.6-0.3,19.2,6.5,25c5.6,4.8,14.2,7.6,23.5,7.6c4.4,0,8.7-0.7,11.7-1.9c2.6-1,4.8-1.9,6.6-2.6c0.1,0,0.2-0.1,0.4-0.1
				l0.2,0c3.4,0,6.1,1.9,6.9,4.9c0.7,2.8-0.6,5.7-3.3,7.2C800.1,241.1,780.9,250.8,763.2,250.8L763.2,250.8z"/>
		</g>
		<g>
			<path class="st1" d="M796.5,159.7l1-14.2c0,0,20.2,6.9,20.9-26.5c0.4-20.2-17.5-25.2-27.9-14.6s-4.4,28.7-7,36.4
				c-1.7,5.1-7.5,12.5-9.7,17C772.7,160.2,789.7,169.9,796.5,159.7z"/>
			<path class="st2" d="M787.4,165.3c-5.1,0-9.5-2.3-10.7-3c-1.5-0.8-4.8-3-3.9-4.9c0.9-1.9,2.4-4.3,4-6.8c2.3-3.5,4.6-7.2,5.6-10.1
				c0.8-2.4,0.7-6.1,0.6-10.3c-0.3-8.6-0.6-19.2,6.7-26.6c3.6-3.7,8.3-5.8,13.1-5.8c2.1,0,4.1,0.4,6,1.2
				c6.9,2.9,10.8,10.3,10.7,19.9c-0.2,12.8-3.3,21.3-9.2,25.5c-2.5,1.7-5.4,2.6-8.5,2.6c-1.3,0-2.4-0.2-3.2-0.3l-0.9,12.9
				c0,0.2-0.1,0.4-0.2,0.5C795.2,163.6,791.7,165.3,787.4,165.3z M774.8,158.2c0.2,0.3,1,1.2,3,2.3c2.3,1.3,6.1,2.7,9.6,2.7
				c3.5,0,6.2-1.3,8-3.9l0.9-13.9c0-0.3,0.2-0.6,0.5-0.8c0.2-0.1,0.4-0.2,0.6-0.2c0.1,0,0.2,0,0.3,0.1c0,0,1.6,0.5,3.8,0.5
				c2.8,0,5.2-0.8,7.3-2.2c5.3-3.7,8.1-11.7,8.3-23.8c0.2-8.8-3.2-15.3-9.3-17.9c-1.6-0.7-3.4-1-5.2-1c-4.1,0-8.4,1.9-11.5,5.1
				c-6.6,6.7-6.3,16.9-6.1,25c0.1,4.4,0.2,8.2-0.7,11c-1,3.1-3.5,6.9-5.8,10.6C777.1,154.2,775.7,156.4,774.8,158.2z"/>
		</g>
	</g>
	<g>
		<path class="st2" d="M762.6,159.1c0,0,10.1-3,15.8-4.1c13.1-3.1,11.3-16.9,10.5-26.7c-0.8-9.7,3-11.9,4.7-10.8
			c1.7,1.1,7.5-0.8,9.2-4.9c10.6,0.2,9.7,10.1,18.2,11.8c0,0,9.4-13.5,2.7-22.8s-16.5-5.9-16.5-5.9s-12.1-10.6-25,0.6
			C769.1,107.6,761.7,151.5,762.6,159.1z"/>
		<path class="st2" d="M762.6,159.6c-0.1,0-0.2,0-0.2-0.1c-0.1-0.1-0.2-0.2-0.2-0.3c-0.4-4,1.3-17.1,4.6-30.2
			c2.4-9.5,7.5-26.5,15.1-33c12.2-10.6,23.8-2.1,25.4-0.8c1.6-0.4,10.5-2.5,16.8,6.2c6.8,9.5-2.3,22.8-2.7,23.3
			c-0.1,0.1-0.3,0.2-0.5,0.2c-4-0.8-6.1-3.4-8-5.9c-2.3-2.9-4.5-5.7-9.8-5.9c-1.2,2.5-3.7,4.1-5.8,4.7c-1.6,0.5-3.1,0.5-3.8,0.1
			c-0.4-0.3-1-0.2-1.6,0.1c-0.7,0.4-3.1,2.5-2.4,10.3l0.1,1.2c0.9,9.6,2,22.8-10.9,25.9c-5.7,1-15.7,4.1-15.8,4.1
			C762.7,159.6,762.6,159.6,762.6,159.6z M794.8,91.6c-3.7,0-8,1.3-12.4,5.1c-12.4,10.7-19.9,52.9-19.4,61.8c2.2-0.6,10.4-3,15.3-4
			c12.2-2.9,11.1-15.1,10.2-25l-0.1-1.2c-0.7-8.1,1.7-10.5,2.8-11.1c0.9-0.5,1.8-0.6,2.5-0.1c0.5,0.3,1.8,0.3,3.1-0.1
			c2-0.6,4.4-2.2,5.4-4.5c0.1-0.2,0.2-0.3,0.4-0.3c6,0.1,8.4,3.2,10.8,6.3c1.9,2.4,3.7,4.7,7.2,5.5c1.2-1.9,8.5-13.8,2.5-22.1
			c-6.5-8.9-15.6-5.9-16-5.8c-0.2,0.1-0.3,0-0.4-0.1C806.5,95.8,801.6,91.6,794.8,91.6z"/>
	</g>
	<g>
		<path class="st1" d="M804.3,227.3c0,0,12.2-4.4,18.6-1.5c6.4,2.9,8.2,18.4,8.2,18.4s-0.4,1-2.1,0c-1.7-1-4.5-10.2-4.5-10.2
			s-1,4.9-5,6c-4.1,1.1-8.5-2.2-9.6-3.5c-1.1-1.3-5.6-1.8-5.6-1.8S802.2,230.6,804.3,227.3z"/>
		<path class="st2" d="M830.3,245.7c-0.6,0-1.2-0.2-1.9-0.6c-1.1-0.7-2.5-3.3-4-7.9c-0.8,1.5-2.3,3.2-4.6,3.8
			c-0.6,0.2-1.3,0.3-2,0.3c-3.9,0-7.6-2.8-8.7-4.1c-0.4-0.5-2.7-1.2-4.9-1.4c-0.4,0-0.7-0.2-0.8-0.6c-0.1-0.2-2.4-4.7,0-8.5
			c0.1-0.2,0.3-0.3,0.5-0.4c0.3-0.1,7.2-2.5,13.4-2.5c2.4,0,4.4,0.4,6,1.1c6.8,3.1,8.7,18.6,8.8,19.3c0,0.2,0,0.3-0.1,0.5
			c0,0.1-0.3,0.8-1.1,1C830.8,245.7,830.6,245.7,830.3,245.7z M824.5,232.9c0.5,0,0.9,0.3,1,0.8c1.4,4.7,3.2,9.2,4,9.6
			c0.2,0.1,0.3,0.2,0.4,0.2c-0.8-5.6-3.2-14.9-7.5-16.8c-1.3-0.6-3-0.9-5-0.9c-5.1,0-10.8,1.8-12.4,2.3c-1.1,2.1-0.4,4.5,0,5.6
			c1.6,0.2,4.6,0.8,5.7,2.1c0.7,0.9,3.9,3.3,7,3.3l0,0c0.5,0,1-0.1,1.4-0.2c3.3-0.9,4.2-5.1,4.2-5.2
			C823.6,233.3,824,233,824.5,232.9L824.5,232.9z"/>
	</g>
	<g>
		<path class="st2" d="M693.8,386.6c-0.3,0-0.5-0.1-0.6-0.4c-0.2-0.3,0-0.7,0.3-0.9l67.6-30.9c0.3-0.2,0.7,0,0.9,0.3
			c0.2,0.3,0,0.7-0.3,0.9l-67.6,30.9C694,386.6,693.9,386.6,693.8,386.6z"/>
	</g>
	<g>
		<path class="st2" d="M679.6,411c-0.3,0-0.5-0.1-0.6-0.4c-0.2-0.3,0-0.7,0.3-0.9l67-31.4c0.3-0.2,0.7,0,0.9,0.3
			c0.2,0.3,0,0.7-0.3,0.9l-67,31.4C679.8,411,679.7,411,679.6,411z"/>
	</g>
	<g>
		<path class="st2" d="M666.7,434.7c-0.3,0-0.5-0.1-0.6-0.4c-0.2-0.3,0-0.7,0.3-0.9l70.1-32.8c0.3-0.2,0.7,0,0.9,0.3
			c0.2,0.3,0,0.7-0.3,0.9L667,434.6C666.9,434.7,666.8,434.7,666.7,434.7z"/>
	</g>
	<g>
		<path class="st2" d="M640.9,272.9c-0.2,0-0.5-0.1-0.6-0.4c-0.2-0.3,0-0.7,0.3-0.9l57.7-30.6c0.3-0.2,0.7,0,0.9,0.3
			c0.2,0.3,0,0.7-0.3,0.9l-57.7,30.6C641.1,272.9,641,272.9,640.9,272.9z"/>
	</g>
	<g>
		<path class="st2" d="M605.5,303.7c-0.2,0-0.5-0.1-0.6-0.4c-0.2-0.3,0-0.7,0.3-0.9l75.9-36.5c0.3-0.2,0.7,0,0.9,0.3
			c0.2,0.3,0,0.7-0.3,0.9l-75.9,36.5C605.7,303.7,605.6,303.7,605.5,303.7z"/>
	</g>
	<g>
		<path class="st2" d="M593.2,346.8c-0.2,0-0.5-0.1-0.6-0.4c-0.2-0.3,0-0.7,0.3-0.9l88.4-45.5c0.3-0.2,0.7,0,0.9,0.3
			c0.2,0.3,0,0.7-0.3,0.9l-88.4,45.5C593.4,346.8,593.3,346.8,593.2,346.8z"/>
	</g>
	<g>
		<path class="st2" d="M637.4,362.6c-0.2,0-0.4-0.1-0.6-0.3c-0.2-0.3-0.1-0.7,0.2-0.9l26-17.4c0.3-0.2,0.7-0.1,0.9,0.2
			c0.2,0.3,0.1,0.7-0.2,0.9l-26,17.4C637.6,362.6,637.5,362.6,637.4,362.6z"/>
	</g>
	<g>
		<path class="st2" d="M591.7,329.2c-0.2,0-0.5-0.1-0.6-0.4c-0.2-0.3,0-0.7,0.3-0.9l83-40.4c0.3-0.2,0.7,0,0.9,0.3
			c0.2,0.3,0,0.7-0.3,0.9l-83,40.4C591.9,329.2,591.8,329.2,591.7,329.2z"/>
	</g>
	<g>
		<path class="st2" d="M627.8,182.4c-0.2,0-0.5-0.1-0.6-0.3c-0.2-0.3-0.1-0.7,0.3-0.9l70.8-39.4c0.3-0.2,0.7-0.1,0.9,0.3
			c0.2,0.3,0.1,0.7-0.3,0.9l-70.8,39.4C628,182.4,627.9,182.4,627.8,182.4z"/>
	</g>
	<g>
		<g>
			<path class="st2" d="M427,265.4c-0.2,0-0.3,0-0.5-0.1L392,249.7c-0.4-0.2-0.7-0.6-0.7-1c-0.1-0.4,0.1-0.9,0.5-1.2l29.9-24.3
				c0.2-0.2,0.5-0.3,0.8-0.3c0.2,0,0.3,0,0.5,0.1c0.4,0.2,0.7,0.6,0.7,1l4.7,39.9c0.1,0.4-0.1,0.9-0.5,1.2
				C427.5,265.3,427.3,265.4,427,265.4z M425.5,262l-4.2-35.4l-26.5,21.6L425.5,262z"/>
		</g>
		<g>
			<polygon class="st2" points="378.1,382.9 364.7,380.6 351.3,378.2 359.9,366.9 368.5,355.6 373.3,369.3 			"/>
			<path class="st2" d="M378.1,383.4C378.1,383.4,378.1,383.4,378.1,383.4l-26.9-4.7c-0.1,0-0.3-0.1-0.3-0.3c-0.1-0.1,0-0.3,0.1-0.4
				l17.2-22.6c0.1-0.1,0.2-0.2,0.4-0.2c0.1,0,0.3,0.1,0.3,0.3l9.7,27.3c0.1,0.1,0,0.3-0.1,0.4C378.4,383.3,378.3,383.4,378.1,383.4z
				 M352,377.9l25.5,4.4l-9.1-25.9L352,377.9z"/>
		</g>
	</g>
	<g>
		<path class="st1" d="M784.1,167.6l1,0.2c0,0,0.4,0.1,1.1,0.1c1.3,0,3.3-0.3,5-1.8l0.5-0.4l0.4,0.6c3.5,5,3.1,22.6,2.7,30l-1.2,0.2
			L784.1,167.6z"/>
		<path class="st2" d="M794.2,197.2c-0.6,0-1.1-0.5-1-1.1c0.2-5.2,0.8-22.1-1.9-28c-1.8,1.2-3.7,1.4-5,1.4c-0.8,0-1.3-0.1-1.4-0.1
			c-0.6-0.1-1-0.7-0.8-1.3c0.1-0.5,0.5-0.9,1-0.9h0.1l0.1,0c0,0,0.4,0.1,1,0.1c1.3,0,3.1-0.3,4.7-1.7c0.2-0.2,0.4-0.3,0.7-0.3l0.1,0
			c0.3,0,0.6,0.2,0.7,0.4c3.5,4.9,3.2,21,2.8,30.2C795.3,196.8,794.8,197.2,794.2,197.2L794.2,197.2z"/>
	</g>
	<g>
		<path class="st1" d="M821.8,175.6l1.2-0.4c0.2,0.4,4.7,10.9,3.7,20l-1.2,0L821.8,175.6z"/>
		<path class="st2" d="M825.9,196.2c-0.6-0.1-1-0.6-0.9-1.2c1-8.7-3.5-19.1-3.5-19.2c-0.2-0.5,0-1.2,0.5-1.4
			c0.1-0.1,0.3-0.1,0.4-0.1c0.4,0,0.8,0.2,1,0.6c0.2,0.4,4.8,11,3.7,20.3c-0.1,0.5-0.5,0.9-1.1,0.9L825.9,196.2z"/>
	</g>
	<g>
		<path class="st2" d="M701.8,443.8c-0.3,0-0.5-0.1-0.6-0.4c-0.2-0.3,0-0.7,0.3-0.9l38.9-18.2c0.3-0.2,0.7,0,0.9,0.3
			c0.2,0.3,0,0.7-0.3,0.9L702,443.8C702,443.8,701.9,443.8,701.8,443.8z"/>
	</g>
	<g>
		<path class="st2" d="M792.5,93.6c0,0-3.2-16.4-17-9.5s-5.4,38.9-5.4,38.9L792.5,93.6z"/>
		<path class="st2" d="M770.1,123.5C770.1,123.5,770,123.5,770.1,123.5c-0.3,0-0.4-0.2-0.4-0.3c-0.3-1.3-8.3-32.5,5.6-39.5
			c4-2,7.5-2.2,10.5-0.8c5.5,2.7,7.1,10.3,7.1,10.6c0,0.1,0,0.3-0.1,0.4l-22.4,29.4C770.4,123.4,770.2,123.5,770.1,123.5z
			 M781.7,82.8c-1.8,0-3.9,0.5-6,1.6c-12,6-6.6,32.3-5.4,37.5L792,93.5c-0.3-1.2-2-7.5-6.6-9.8C784.3,83.1,783,82.8,781.7,82.8z"/>
	</g>
	<g>
		<polygon class="st4" points="888.2,318.5 882.1,328.9 892.9,324.8 889.3,332.5 894.6,332.5 		"/>
		<path class="st2" d="M894.6,332.9h-5.3c-0.2,0-0.3-0.1-0.4-0.2c-0.1-0.1-0.1-0.3,0-0.4l3.1-6.6l-9.7,3.7c-0.2,0.1-0.4,0-0.5-0.1
			c-0.1-0.1-0.1-0.4,0-0.5l6.1-10.4c0.1-0.2,0.4-0.3,0.6-0.2c0.2,0.1,0.3,0.4,0.2,0.6l-5.5,9.3l9.6-3.6c0.2-0.1,0.4,0,0.5,0.1
			c0.1,0.1,0.2,0.3,0.1,0.5l-3.3,7h4.6c0.2,0,0.4,0.2,0.4,0.4C895,332.7,894.8,332.9,894.6,332.9z"/>
	</g>
	<g>
		<polygon class="st4" points="918.9,308.4 914.3,315.3 921.1,315.3 915.4,320.4 918.9,322.3 		"/>
		<path class="st2" d="M918.9,322.7c-0.1,0-0.1,0-0.2-0.1l-3.5-1.9c-0.1-0.1-0.2-0.2-0.2-0.3s0-0.3,0.1-0.4l4.8-4.3h-5.6
			c-0.2,0-0.3-0.1-0.4-0.2c-0.1-0.1-0.1-0.3,0-0.5l4.6-6.9c0.1-0.2,0.4-0.3,0.6-0.1c0.2,0.1,0.3,0.4,0.1,0.6l-4.1,6.2h6
			c0.2,0,0.4,0.1,0.4,0.3c0.1,0.2,0,0.4-0.1,0.5l-5.2,4.7l3,1.6c0.2,0.1,0.3,0.4,0.2,0.6C919.2,322.7,919,322.7,918.9,322.7z"/>
	</g>
</g>
<g>
	<path class="st5" d="M1071.8,156.9c0.2,0.1,0.2,0.3,0.1,0.5c-0.1,0.1-0.3,0.2-0.5,0.2c-0.8,0.1-1.6,0.2-2.3,0.3
		c-0.2,0-0.5,0-0.6-0.2c-0.1-0.2,0-0.4,0.3-0.5c0.8-0.1,1.6-0.2,2.5-0.4C1071.4,156.8,1071.6,156.8,1071.8,156.9L1071.8,156.9z"/>
	<path class="st5" d="M1058,135.7c0.1,0.1,0.1,0.3,0,0.5c-0.1,0.1-0.3,0.1-0.5,0.1c-0.7,0-1.5,0.1-2.1,0.3c-0.1,0-0.2,0.1-0.3,0.1
		c-0.3,0-0.5-0.3-0.3-0.6C1055,135.7,1057.7,135.3,1058,135.7L1058,135.7z"/>
	<path class="st5" d="M1066.7,147.5c0.3,0.3-0.3,2.6-0.4,3.1c-0.1,0.4-0.7,0.3-0.7-0.1c0-0.1,0-0.2,0.1-0.3c0.2-0.7,0.3-1.5,0.4-2.2
		c0-0.2,0-0.4,0.2-0.5C1066.4,147.3,1066.6,147.4,1066.7,147.5L1066.7,147.5z"/>
	<path class="st5" d="M1062.3,155.8c0-0.2,0.1-0.3,0.3-0.5c0.5-0.5,0.9-1.1,1.3-1.6c0.1-0.1,0.2-0.3,0.3-0.3
		c0.2-0.1,0.5,0.2,0.4,0.4c0,0.1-0.1,0.2-0.1,0.3c-0.4,0.6-0.9,1.2-1.5,1.8C1062.8,156.2,1062.4,156.2,1062.3,155.8L1062.3,155.8z"
		/>
	<path class="st5" d="M1060.8,137c-0.1-0.3,0.2-0.5,0.5-0.4c0.8,0.4,1.5,0.9,2.1,1.6c0.3,0.2,0.2,0.7-0.2,0.6
		c-0.2,0-0.3-0.2-0.4-0.3c-0.5-0.5-1-0.9-1.6-1.2C1061.1,137.2,1060.9,137.2,1060.8,137L1060.8,137z"/>
	<path class="st5" d="M1066.5,144.2c0,0.3-0.4,0.4-0.6,0.2c-0.1-0.1-0.2-0.3-0.2-0.5c-0.2-0.7-0.4-1.4-0.6-2c-0.1-0.2-0.2-0.4,0-0.6
		c0.1-0.1,0.3-0.1,0.4-0.1c0.1,0.1,0.2,0.2,0.3,0.4c0.3,0.7,0.5,1.3,0.7,2.1C1066.5,143.9,1066.5,144,1066.5,144.2L1066.5,144.2z"/>
	<path class="st5" d="M1091.3,146.7c-0.2,0-0.4-0.2-0.4-0.4c0-0.2,0.2-0.3,0.3-0.5c0.2-0.2,0.3-0.6,0.5-0.6c0.2-0.1,0.5,0.2,0.5,0.4
		c0,0.1-0.1,0.3-0.2,0.4c-0.1,0.1-0.2,0.3-0.3,0.4C1091.5,146.5,1091.4,146.7,1091.3,146.7L1091.3,146.7z"/>
	<path class="st5" d="M1086.5,150.9c-0.1,0-0.3-0.2-0.2-0.3c0-0.2,0.2-0.3,0.3-0.4c0.6-0.4,1.2-0.9,1.7-1.4c0.3-0.3,0.8,0.1,0.5,0.4
		c-0.6,0.5-1.2,1-1.8,1.5C1086.8,150.8,1086.6,150.9,1086.5,150.9L1086.5,150.9z"/>
	<path class="st5" d="M1050.5,141c-0.3-0.4,0.9-2.8,1.3-2.9c0.3-0.1,0.5,0.2,0.4,0.4c0,0.1-0.1,0.2-0.2,0.3
		c-0.4,0.6-0.7,1.2-0.9,1.9c-0.1,0.2-0.1,0.4-0.3,0.5C1050.8,141.2,1050.6,141.2,1050.5,141L1050.5,141z"/>
	<path class="st5" d="M1053.8,153.1c-0.4,0-1.4-1.9-1.6-2.2c-0.3-0.6,0.4-0.9,0.6-0.3c0.3,0.6,0.7,1.2,1.1,1.8
		c0.1,0.1,0.2,0.3,0.2,0.4C1054.1,153,1054,153.1,1053.8,153.1L1053.8,153.1z"/>
	<path class="st5" d="M1050.7,144.1c0.1,0.1,0.1,0.3,0.2,0.5c0.1,0.7,0.2,1.4,0.4,2.1c0,0.2,0.1,0.4,0,0.5c-0.2,0.4-0.6,0.2-0.7-0.1
		c-0.2-0.9-0.4-1.7-0.4-2.6C1050.1,144.2,1050.4,143.9,1050.7,144.1L1050.7,144.1z"/>
	<path class="st5" d="M1059.1,156.8c-0.3,0.2-2.4-1-2.8-1.2c-0.3-0.2-0.1-0.7,0.3-0.6c0.1,0,0.2,0.1,0.3,0.1c0.6,0.4,1.3,0.7,2,1
		C1059.3,156.3,1059.4,156.7,1059.1,156.8L1059.1,156.8z"/>
	<path class="st5" d="M1057.5,160c-0.2-0.1-0.3-0.2-0.2-0.4c0-0.2,0.2-0.3,0.4-0.3c0.6-0.4,1.2-0.7,1.8-1.1c0.2-0.1,0.4-0.2,0.6-0.1
		c0.2,0.1,0.1,0.4,0,0.5c-0.6,0.5-1.3,0.9-2,1.3C1057.8,159.9,1057.6,160,1057.5,160L1057.5,160z"/>
	<path class="st5" d="M1054.6,161.4c-0.1,0.2-0.3,0.2-0.4,0.3c-0.8,0.3-1.6,0.6-2.4,0.8c-0.5,0.1-0.7-0.6-0.1-0.7
		c0.7-0.2,1.5-0.5,2.2-0.8c0.2-0.1,0.4-0.1,0.5-0.1C1054.5,161.1,1054.6,161.3,1054.6,161.4L1054.6,161.4z"/>
	<path class="st5" d="M1035.8,164.8c-0.1,0.1-0.3,0.1-0.5,0.1c-0.8,0-1.5,0-2.3-0.1c-0.2,0-0.4,0-0.5-0.1c-0.2-0.2-0.1-0.5,0.1-0.6
		c0.1,0,0.2,0,0.3,0c0.8,0,1.5,0.1,2.3,0.1c0.2,0,0.4,0,0.5,0.2C1035.9,164.5,1035.9,164.7,1035.8,164.8L1035.8,164.8z"/>
	<path class="st5" d="M1029.4,164.5c-0.1,0.1-0.4,0.1-0.5,0.1c-0.8-0.1-1.5-0.2-2.3-0.3c-0.2,0-0.4,0-0.5-0.2
		c-0.3-0.3,0-0.7,0.4-0.6c0.8,0.1,1.6,0.2,2.4,0.3c0.2,0,0.4,0,0.5,0.2C1029.6,164.2,1029.5,164.4,1029.4,164.5L1029.4,164.5z"/>
	<path class="st5" d="M1023.3,163.3c-0.1,0.1-0.4,0.1-0.5,0c-0.8-0.1-1.5-0.3-2.3-0.5c-0.2,0-0.3-0.1-0.5-0.2
		c-0.3-0.3,0.1-0.7,0.4-0.6c0.8,0.2,1.6,0.3,2.4,0.5c0.2,0,0.4,0.1,0.5,0.2C1023.5,163,1023.5,163.2,1023.3,163.3L1023.3,163.3z"/>
	<path class="st5" d="M1048.5,163.4c-0.1,0.2-0.3,0.2-0.5,0.2c-0.8,0.2-1.7,0.4-2.5,0.4c-0.6,0-0.6-0.7,0-0.7
		c0.8-0.1,1.6-0.3,2.4-0.4c0.2,0,0.4-0.1,0.6,0C1048.5,163.1,1048.6,163.3,1048.5,163.4L1048.5,163.4z"/>
	<path class="st5" d="M1042.2,164.5c-0.1,0.1-0.3,0.2-0.5,0.2c-0.8,0.1-1.7,0.1-2.6,0.2c-0.5-0.1-0.5-0.7,0.1-0.7
		c0.8,0,1.6-0.1,2.4-0.2c0.2,0,0.4,0,0.5,0.1C1042.3,164.2,1042.3,164.4,1042.2,164.5L1042.2,164.5z"/>
	<path class="st5" d="M1080.7,153.7c0.1-0.2,0.2-0.2,0.4-0.3c0.6-0.3,1.3-0.6,1.9-1c0.1-0.1,0.3-0.2,0.4-0.1c0.3,0,0.4,0.4,0.2,0.6
		c-0.7,0.5-1.5,0.8-2.2,1.2c-0.2,0.1-0.4,0.2-0.5,0.1C1080.7,154.1,1080.6,153.9,1080.7,153.7L1080.7,153.7z"/>
	<path class="st5" d="M1074.7,156.1c0.1-0.2,0.3-0.2,0.4-0.3c0.7-0.2,1.4-0.4,2.1-0.7c0.2-0.1,0.3-0.1,0.5-0.1
		c0.3,0.1,0.4,0.4,0.1,0.6c-0.8,0.4-1.7,0.6-2.5,0.8c-0.2,0.1-0.4,0.1-0.5,0C1074.7,156.4,1074.6,156.2,1074.7,156.1L1074.7,156.1z"
		/>
	<path class="st5" d="M1062.2,157.3c0.1-0.1,0.4-0.1,0.5,0c0.7,0.1,1.5,0.2,2.2,0.2c0.2,0,0.4,0,0.5,0.1c0.3,0.3,0,0.7-0.4,0.6
		c-0.9,0-1.7-0.1-2.5-0.2c-0.2,0-0.4-0.1-0.5-0.2C1062,157.5,1062,157.4,1062.2,157.3L1062.2,157.3z"/>
</g>
<g>
	<path class="st6" d="M1104.5,131.3c-3-4.8,0.1-8.3,2.1-9.5l35.6-9.6l-20.1,33.7c-0.1,0.2-0.2,0.3-0.3,0.4c-2.1,3-8.8,2.8-11.7-2.4
		l7-6.9C1112.6,134.7,1107.3,135.8,1104.5,131.3z"/>
	
		<linearGradient id="SVGID_00000028327186667015351740000012067019880769379200_" gradientUnits="userSpaceOnUse" x1="1125.038" y1="495.8733" x2="1134.2203" y2="467.3846" gradientTransform="matrix(0.8503 -0.5262 -0.5262 -0.8503 416.8595 1130.58)">
		<stop  offset="0.5255" style="stop-color:#1255F5;stop-opacity:0"/>
		<stop  offset="0.8366" style="stop-color:#C9D8FD"/>
	</linearGradient>
	<path style="fill:url(#SVGID_00000028327186667015351740000012067019880769379200_);" d="M1104.5,131.3c-3-4.8,0.1-8.3,2.1-9.5
		l35.6-9.6l-20.1,33.7c-0.1,0.2-0.2,0.3-0.3,0.4c-2.1,3-8.8,2.8-11.7-2.4l7-6.9C1112.6,134.7,1107.3,135.8,1104.5,131.3z"/>
</g>
</svg>
