<?xml version="1.0" encoding="UTF-8"?>
<svg id="Layer_1" data-name="Layer 1" xmlns="http://www.w3.org/2000/svg" xmlns:xlink="http://www.w3.org/1999/xlink" viewBox="0 0 1600 1200">
  <defs>
    <style>
      .cls-1, .cls-2 {
        fill: none;
      }

      .cls-3 {
        fill: #1c0311;
      }

      .cls-3, .cls-4, .cls-5, .cls-6, .cls-7, .cls-2 {
        stroke: #1a1a1a;
        stroke-linecap: round;
        stroke-linejoin: round;
      }

      .cls-4, .cls-8, .cls-6, .cls-7 {
        fill: #fff;
      }

      .cls-9 {
        clip-path: url(#clippath);
      }

      .cls-10, .cls-5 {
        fill: #91b5fc;
      }

      .cls-11 {
        fill: #3282f7;
      }

      .cls-12 {
        fill: #1a1a1a;
      }

      .cls-13 {
        fill: #4558ef;
      }

      .cls-14 {
        fill: gray;
      }

      .cls-15 {
        fill: url(#_未命名的渐变_10);
      }

      .cls-5, .cls-6 {
        stroke-width: 2px;
      }

      .cls-16 {
        fill: url(#radial-gradient);
      }

      .cls-7, .cls-2 {
        stroke-width: 1.5px;
      }
    </style>
    <clipPath id="clippath">
      <rect class="cls-1" x="-64.62" y="466" width="1714.52" height="583.52"/>
    </clipPath>
    <radialGradient id="radial-gradient" cx="665.45" cy="1340.85" fx="665.45" fy="1340.85" r="795.43" gradientTransform="translate(105.56 735.71) scale(1.05 .23)" gradientUnits="userSpaceOnUse">
      <stop offset=".41" stop-color="#ebebf2"/>
      <stop offset="1" stop-color="#ebebf2" stop-opacity="0"/>
    </radialGradient>
    <linearGradient id="_未命名的渐变_10" data-name="未命名的渐变 10" x1="1610.79" y1="855.1" x2="1625.65" y2="808.98" gradientTransform="translate(573.94 1700.1) rotate(-30.99) scale(1 -1)" gradientUnits="userSpaceOnUse">
      <stop offset=".53" stop-color="#1255f5" stop-opacity="0"/>
      <stop offset=".84" stop-color="#c9d8fd"/>
    </linearGradient>
  </defs>
  <g class="cls-9">
    <ellipse class="cls-16" cx="806.31" cy="1043.5" rx="843.58" ry="184.48"/>
  </g>
  <g>
    <path class="cls-12" d="M1111.25,664.82c-.27,0-.49-.14-.57-.34-1.31-3.27-1.64-6.71-.97-9.96,.68-3.27,2.33-6.11,4.78-8.22,3.04-2.61,7.46-4.11,12.14-4.11,.14,0,.28,0,.43,0,2.8,.06,5.59,.62,8.07,1.62,2.19,.86,4.21,2.04,6,3.51l.6,.49,.36-.68c1.87-3.54,6.31-10.04,15.12-13.76,4.03-1.7,8.36-2.56,12.85-2.56,1.96,0,3.98,.17,6.01,.49,3.89,.63,6.89,1.69,8.73,2.48l.39,.16,.3-.29c3.58-3.47,8.57-5.46,13.71-5.46,1.12,0,2.25,.1,3.34,.28,7.23,1.24,13.1,6.56,14.62,13.25l.07,.31,.3,.13c2.95,1.26,5.38,3.12,7.02,5.4,1.84,2.55,2.75,5.64,2.62,8.95-.13,3.26-1.25,6.58-3.26,9.61-.11,.16-.3,.26-.54,.26-.88-.01-112.13-1.56-112.13-1.56Zm15.35-21.64c-4.38,0-8.37,1.35-11.22,3.8-4.39,3.77-5.92,10.38-3.82,16.44l.15,.42,111.3,1.54,.19-.3c3.58-5.79,3.69-12.32,.29-17.02-1.63-2.26-4.08-4.08-7.08-5.25-.18-.07-.3-.21-.34-.36-1.23-6.58-6.77-11.81-13.78-13.01-1.01-.17-2.05-.26-3.08-.26-5.1,0-9.97,2.08-13.36,5.71-.12,.12-.29,.2-.49,.2h-.11l-.19-.06c-1.59-.75-7.44-3.23-14.93-3.23-4.33,0-8.48,.83-12.35,2.46-9.67,4.07-13.89,11.64-15.26,14.7-.09,.2-.31,.32-.57,.32-.02,0-.07,0-.1,0l-.09-.02c-.11-.03-.2-.08-.28-.15-3.83-3.65-9.09-5.81-14.44-5.91-.14,0-.29,0-.43,0Z"/>
    <path class="cls-12" d="M967.84,860.87c-3.92-5.34-9.76-9.69-16.87-12.59l-.49-.2-.11-.52c-3.4-15.61-17.21-28.03-34.35-30.91-2.57-.43-5.2-.65-7.82-.65-12.3,0-24.19,4.75-32.61,13.04l-.48,.48-.62-.27c-3.65-1.56-11.27-4.42-21.22-6-4.77-.76-9.54-1.14-14.16-1.14-10.57,0-20.75,1.99-30.25,5.92-21.29,8.81-31.8,24.38-36.18,32.88l-.58,1.13-.97-.82c-4.45-3.75-9.52-6.73-15.05-8.88-5.82-2.29-12.36-3.59-18.93-3.73-.34,0-.67,0-1,0-10.95,0-21.31,3.44-28.42,9.43-5.73,4.84-9.6,11.38-11.19,18.91-1.58,7.49-.79,15.43,2.28,22.97,.12,.31,.47,.51,.89,.52l265.79,3.62h0c.36,0,.67-.15,.83-.4,4.72-6.99,7.37-14.66,7.67-22.18,.3-7.6-1.83-14.72-6.14-20.59Zm-2.63,41.2l-.3,.47-264.49-3.6-.24-.65c-5.37-14.44-1.78-30.22,8.95-39.27,6.85-5.78,16.42-8.96,26.95-8.96,.34,0,.68,0,1.02,0,12.82,.25,25.43,5.31,34.6,13.89,.12,.11,.26,.19,.45,.24l.29,.04c.4,0,.76-.2,.9-.49,3.26-7.17,13.34-24.87,36.42-34.42,9.24-3.82,19.17-5.76,29.5-5.76,17.92,0,31.79,5.78,35.62,7.55,.14,.07,.32,.1,.49,.1,.3,0,.59-.11,.77-.3,8.13-8.55,19.82-13.45,32.07-13.45,2.49,0,4.98,.21,7.41,.62,16.81,2.83,30.1,15.12,33.06,30.58,.04,.24,.24,.45,.52,.56,7.21,2.76,13.09,7.04,17.01,12.37,8.26,11.23,7.89,26.74-.98,40.47Z"/>
    <g>
      <g>
        <path class="cls-12" d="M629.63,621.08c-2.29-.25-4.54-.51-6.77-.79-.36-.04-.68-.22-.9-.51s-.32-.64-.28-1c.08-.68,.66-1.19,1.34-1.19h.17c2.22,.28,4.46,.54,6.72,.79,.36,.04,.68,.22,.9,.5,.23,.28,.33,.63,.29,.99-.08,.68-.65,1.2-1.34,1.2h-.12Zm-13.5-1.64c-2.27-.3-4.53-.61-6.74-.93-.36-.05-.67-.24-.89-.53-.22-.29-.31-.65-.26-1,.1-.66,.67-1.16,1.34-1.16h.18c2.2,.33,4.46,.64,6.7,.94,.35,.05,.67,.23,.89,.51,.22,.29,.31,.64,.27,1-.09,.67-.66,1.17-1.34,1.17h-.17Zm-13.45-1.95c-2.23-.35-4.49-.72-6.71-1.09-.35-.06-.67-.26-.87-.55-.21-.29-.29-.65-.23-1.01,.11-.65,.67-1.12,1.33-1.12h.07l.17,.02c2.2,.37,4.44,.74,6.67,1.08,.74,.12,1.24,.81,1.12,1.54-.1,.66-.66,1.14-1.33,1.14l-.21-.02Zm-13.22-2.24l-.17-.02c-2.24-.41-4.49-.83-6.68-1.26-.35-.07-.66-.27-.86-.57-.2-.3-.27-.66-.2-1.01,.12-.63,.68-1.09,1.32-1.09h.08l.18,.02c2.18,.43,4.41,.85,6.64,1.25,.35,.06,.66,.26,.87,.56,.21,.3,.28,.66,.22,1.01-.11,.64-.67,1.11-1.33,1.11h-.07Zm-13.31-2.6l-.19-.03c-2.22-.47-4.46-.95-6.65-1.44-.73-.17-1.18-.89-1.02-1.61,.14-.61,.69-1.05,1.32-1.05h.09l.21,.03c2.18,.49,4.4,.97,6.6,1.43,.35,.08,.66,.28,.85,.58,.2,.3,.26,.66,.19,1.02-.13,.62-.68,1.07-1.32,1.07h-.08Zm-13.24-2.97l-.22-.04c-2.21-.53-4.43-1.08-6.59-1.64-.35-.09-.64-.31-.82-.62-.18-.31-.24-.67-.15-1.02,.15-.6,.69-1.01,1.31-1.01h.1l.23,.04c2.15,.55,4.35,1.1,6.55,1.63,.72,.18,1.17,.91,1,1.63-.15,.61-.69,1.04-1.31,1.04h-.09Zm-13.14-3.37l-.25-.05c-2.18-.6-4.39-1.22-6.54-1.84-.71-.21-1.12-.96-.92-1.67,.17-.57,.7-.97,1.29-.97,.13,0,.26,.02,.38,.06,2.13,.62,4.32,1.24,6.49,1.83,.72,.2,1.14,.94,.95,1.66-.16,.59-.7,.99-1.3,.99h-.11Zm-12.9-3.79c-.13,0-.26-.02-.39-.06-2.17-.67-4.35-1.37-6.48-2.07-.34-.11-.62-.35-.78-.67s-.19-.69-.08-1.03c.18-.55,.7-.93,1.28-.93,.14,0,.29,.02,.42,.07,2.12,.7,4.28,1.39,6.43,2.06,.34,.11,.63,.34,.79,.66,.17,.32,.2,.68,.1,1.03-.18,.57-.69,.95-1.29,.95Zm-12.87-4.24c-.15,0-.3-.03-.45-.08-2.15-.75-4.3-1.53-6.4-2.31-.7-.26-1.05-1.04-.79-1.73,.2-.53,.71-.88,1.27-.88,.16,0,.32,.03,.47,.09,2.08,.77,4.22,1.55,6.35,2.29,.7,.25,1.07,1.02,.83,1.72-.19,.54-.7,.9-1.27,.9Zm-12.7-4.73c-.17,0-.34-.03-.5-.1-2.11-.84-4.23-1.7-6.29-2.57-.69-.29-1.01-1.08-.72-1.77,.21-.5,.7-.83,1.24-.83,.18,0,.35,.04,.52,.11,2.05,.86,4.15,1.72,6.25,2.55,.33,.13,.6,.39,.74,.72s.15,.7,.02,1.03c-.2,.52-.7,.85-1.25,.85Zm-12.49-5.25c-.19,0-.38-.04-.55-.12-2.08-.93-4.16-1.89-6.18-2.85-.67-.32-.96-1.13-.64-1.8,.22-.47,.7-.77,1.22-.77,.2,0,.4,.04,.58,.13,2,.95,4.06,1.9,6.12,2.82,.33,.15,.58,.41,.71,.75s.12,.7-.03,1.03c-.22,.49-.7,.8-1.23,.8Zm-12.24-5.82c-.21,0-.42-.05-.61-.14-2.03-1.03-4.06-2.08-6.04-3.15-.32-.17-.55-.45-.65-.8s-.07-.71,.1-1.03c.24-.44,.69-.71,1.19-.71,.22,0,.44,.06,.64,.16,1.96,1.05,3.97,2.1,5.98,3.11,.32,.16,.56,.44,.67,.78,.11,.34,.09,.71-.08,1.03-.23,.46-.69,.74-1.2,.74Zm-11.93-6.41c-.23,0-.46-.06-.67-.18-1.97-1.13-3.95-2.29-5.87-3.46-.31-.19-.52-.48-.61-.83-.09-.35-.03-.71,.16-1.02,.24-.4,.68-.65,1.15-.65,.25,0,.49,.07,.7,.2,1.9,1.16,3.85,2.31,5.8,3.42,.31,.18,.54,.47,.63,.82s.05,.71-.13,1.02c-.24,.42-.69,.68-1.17,.68Zm-11.57-7.04c-.26,0-.52-.08-.74-.22-1.91-1.24-3.81-2.51-5.66-3.79-.3-.2-.49-.51-.56-.87-.06-.35,.01-.71,.22-1.01,.25-.36,.67-.58,1.11-.58,.28,0,.54,.08,.77,.24,1.83,1.26,3.71,2.53,5.59,3.75,.62,.4,.8,1.24,.4,1.86-.25,.39-.67,.62-1.13,.62Zm-11.14-7.71c-.29,0-.57-.09-.8-.26-1.84-1.36-3.66-2.75-5.42-4.14-.58-.46-.68-1.31-.22-1.89,.26-.33,.65-.51,1.06-.51,.3,0,.6,.1,.84,.29,1.74,1.38,3.54,2.75,5.35,4.09,.29,.21,.48,.53,.53,.88,.05,.36-.03,.71-.25,1-.25,.34-.66,.55-1.09,.55Zm-10.62-8.4c-.32,0-.63-.11-.87-.32-1.74-1.48-3.47-2.99-5.13-4.5-.55-.5-.59-1.36-.09-1.91,.26-.28,.62-.44,1-.44,.34,0,.66,.12,.91,.35,1.64,1.49,3.34,2.99,5.05,4.43,.28,.23,.44,.56,.47,.92,.03,.36-.08,.71-.32,.98-.25,.3-.63,.48-1.03,.48Zm-10.02-9.11c-.35,0-.69-.14-.94-.38-1.63-1.59-3.24-3.23-4.79-4.86-.25-.26-.38-.6-.37-.96s.16-.69,.42-.94c.25-.24,.58-.37,.93-.37,.37,0,.73,.15,.98,.42,1.53,1.61,3.12,3.22,4.72,4.79,.53,.52,.54,1.37,.02,1.91-.25,.26-.6,.41-.97,.41Zm-9.32-9.83c-.39,0-.76-.17-1.01-.46-1.5-1.71-2.98-3.46-4.4-5.22-.47-.58-.38-1.43,.2-1.9,.24-.19,.54-.3,.85-.3,.41,0,.79,.18,1.05,.5,1.4,1.72,2.85,3.45,4.33,5.14,.49,.56,.43,1.41-.12,1.9-.25,.22-.56,.34-.89,.34Zm-8.51-10.53c-.43,0-.83-.2-1.08-.55-1.35-1.82-2.68-3.69-3.96-5.56-.42-.62-.26-1.46,.36-1.87,.23-.15,.49-.23,.76-.23,.45,0,.87,.22,1.12,.59,1.25,1.84,2.56,3.68,3.89,5.47,.44,.6,.32,1.44-.28,1.89-.24,.18-.51,.27-.81,.27Zm-7.61-11.2c-.47,0-.9-.24-1.15-.64-1.19-1.92-2.36-3.9-3.47-5.88-.18-.31-.22-.68-.12-1.02s.32-.64,.64-.81c.2-.11,.43-.17,.66-.17,.49,0,.94,.26,1.18,.69,1.09,1.95,2.24,3.89,3.41,5.78,.39,.63,.19,1.47-.44,1.86-.22,.13-.46,.2-.71,.2Zm-6.62-11.81c-.51,0-.97-.28-1.2-.74-1.02-2.02-2.01-4.09-2.94-6.17-.3-.68,0-1.48,.68-1.78,.17-.08,.36-.12,.55-.12,.53,0,1.01,.31,1.23,.8,.91,2.03,1.88,4.07,2.89,6.06,.16,.32,.19,.69,.08,1.03s-.35,.62-.67,.78c-.19,.1-.4,.14-.61,.14Zm-5.56-12.35c-.56,0-1.05-.33-1.25-.85-.84-2.11-1.64-4.26-2.38-6.4-.12-.34-.1-.7,.06-1.03,.16-.32,.43-.57,.77-.69,.14-.05,.29-.07,.44-.07,.57,0,1.09,.37,1.27,.91,.73,2.1,1.52,4.22,2.34,6.29,.27,.69-.07,1.48-.75,1.75-.16,.06-.33,.1-.5,.1Zm-4.44-12.79c-.59,0-1.12-.4-1.29-.97-.64-2.16-1.25-4.37-1.8-6.57-.09-.35-.03-.71,.15-1.02,.19-.31,.48-.53,.83-.61l.09-.02,.23-.02c.62,0,1.16,.42,1.31,1.02,.54,2.15,1.13,4.32,1.77,6.45,.1,.35,.06,.71-.11,1.03-.17,.32-.46,.55-.8,.65-.12,.04-.25,.06-.38,.06Zm-3.29-13.1c-.64,0-1.19-.45-1.32-1.08-.45-2.21-.87-4.47-1.23-6.71-.06-.36,.03-.71,.24-1,.21-.29,.52-.49,.88-.54l.21-.02c.67,0,1.22,.48,1.33,1.13,.36,2.21,.76,4.43,1.21,6.6,.15,.73-.32,1.44-1.05,1.59l-.08,.02h-.19Zm-2.16-13.35c-.68,0-1.26-.51-1.34-1.19-.27-2.26-.49-4.55-.66-6.8-.06-.74,.5-1.39,1.24-1.45h0c.8,0,1.39,.55,1.44,1.24,.17,2.23,.39,4.48,.65,6.69,.09,.74-.44,1.41-1.18,1.5h-.16Zm-1.04-13.51c-.73,0-1.32-.57-1.35-1.3-.08-2.08-.11-4.2-.11-6.29v-.55c0-.74,.61-1.35,1.35-1.35,.36,0,.7,.14,.96,.4,.25,.26,.39,.59,.39,.96v.54c0,2.06,.04,4.14,.11,6.19,.03,.74-.55,1.37-1.3,1.4h-.05Zm-.06-13.56c-.31-.01-.65-.17-.89-.43-.24-.27-.37-.61-.36-.97,.09-2.26,.23-4.56,.41-6.83,.06-.71,.63-1.24,1.35-1.24,.85,.06,1.4,.71,1.34,1.46-.18,2.26-.31,4.53-.41,6.73-.03,.73-.62,1.29-1.35,1.29h-.1Zm1-13.53c-.34-.04-.66-.22-.88-.5-.22-.28-.32-.64-.28-.99,.26-2.22,.56-4.5,.9-6.76,.1-.65,.67-1.15,1.33-1.15l.21,.02c.35,.05,.67,.24,.88,.53,.21,.29,.3,.65,.25,1-.34,2.22-.64,4.46-.89,6.67-.08,.68-.65,1.19-1.34,1.19h-.17Zm2.13-13.39l-.18-.02c-.72-.14-1.21-.84-1.07-1.57,.41-2.21,.87-4.46,1.36-6.68,.14-.62,.68-1.06,1.32-1.06h.09l.21,.03c.72,.16,1.18,.88,1.03,1.61-.49,2.21-.94,4.43-1.35,6.6-.12,.64-.68,1.1-1.33,1.1h-.08Zm2.9-13.23l-.24-.04c-.72-.18-1.15-.92-.97-1.64,.56-2.17,1.16-4.39,1.79-6.58,.17-.57,.7-.97,1.3-.97,.13,0,.25,.02,.38,.05,.35,.1,.63,.33,.81,.64s.21,.68,.11,1.03c-.62,2.15-1.22,4.33-1.77,6.5-.15,.6-.69,1.01-1.31,1.01h-.1Zm3.87-13.02c-.14,0-.28-.02-.41-.06-.35-.11-.63-.35-.79-.67-.16-.32-.19-.69-.08-1.03,.69-2.14,1.43-4.31,2.19-6.46,.19-.54,.7-.9,1.27-.9,.15,0,.31,.03,.45,.08,.34,.12,.61,.37,.77,.69,.15,.32,.17,.69,.05,1.03-.76,2.12-1.48,4.27-2.17,6.38-.18,.56-.69,.93-1.28,.93Zm4.55-12.77c-.17,0-.33-.03-.49-.09-.69-.27-1.04-1.05-.77-1.75,.82-2.11,1.68-4.23,2.56-6.32,.21-.5,.7-.83,1.24-.83,.18,0,.36,.04,.53,.11,.33,.14,.59,.4,.72,.73,.14,.33,.13,.7,0,1.03-.87,2.06-1.72,4.16-2.53,6.24-.2,.52-.69,.86-1.26,.86Zm5.27-12.49c-.19,0-.38-.04-.56-.12-.33-.15-.58-.42-.7-.76-.13-.34-.11-.7,.04-1.03,.93-2.05,1.91-4.12,2.91-6.16,.22-.46,.7-.76,1.21-.76,.2,0,.41,.05,.59,.14,.67,.33,.95,1.13,.62,1.8-.98,2.02-1.95,4.07-2.88,6.1-.22,.48-.7,.79-1.23,.79Zm5.94-12.18c-.22,0-.43-.05-.62-.15-.32-.17-.55-.45-.66-.79-.11-.34-.08-.71,.09-1.03,1.04-2,2.13-4.02,3.23-6,.24-.43,.69-.7,1.18-.7,.23,0,.46,.06,.66,.17,.31,.17,.54,.46,.64,.81,.1,.35,.06,.71-.12,1.03-1.09,1.96-2.16,3.96-3.19,5.94-.24,.45-.69,.73-1.2,.73Zm6.57-11.86c-.24,0-.48-.06-.68-.19-.64-.38-.86-1.21-.48-1.85,1.14-1.94,2.33-3.9,3.53-5.83,.25-.4,.68-.64,1.15-.64,.25,0,.5,.07,.71,.2,.63,.39,.83,1.23,.43,1.86-1.19,1.91-2.36,3.85-3.49,5.77-.24,.41-.69,.67-1.16,.67Zm7.16-11.51c-.26,0-.52-.08-.74-.22-.62-.41-.8-1.25-.39-1.87,1.23-1.88,2.51-3.78,3.81-5.65,.25-.36,.67-.58,1.11-.58,.28,0,.54,.08,.77,.24,.61,.42,.77,1.27,.34,1.88-1.28,1.85-2.55,3.73-3.77,5.59-.25,.38-.67,.61-1.13,.61Zm7.71-11.15c-.29,0-.56-.09-.79-.26-.6-.43-.73-1.28-.3-1.88,1.33-1.82,2.69-3.66,4.07-5.46,.26-.34,.65-.53,1.07-.53,.3,0,.58,.1,.82,.28,.59,.45,.7,1.3,.26,1.89-1.37,1.79-2.72,3.61-4.03,5.41-.25,.35-.66,.56-1.09,.56Zm8.23-10.77c-.3,0-.6-.11-.84-.3-.28-.22-.46-.55-.5-.9-.04-.36,.06-.71,.29-.99,1.41-1.76,2.86-3.53,4.32-5.26,.26-.31,.63-.48,1.03-.48,.32,0,.63,.11,.87,.32,.27,.23,.44,.56,.48,.91s-.08,.71-.31,.99c-1.45,1.72-2.89,3.47-4.28,5.21-.26,.32-.64,.51-1.05,.51Zm8.72-10.38c-.33,0-.65-.12-.89-.34-.27-.24-.43-.57-.45-.92-.02-.36,.1-.71,.33-.98,1.48-1.69,3.02-3.39,4.56-5.06,.25-.28,.62-.44,.99-.44,.34,0,.66,.13,.91,.36,.27,.25,.42,.58,.43,.94s-.11,.7-.36,.97c-1.52,1.65-3.04,3.34-4.51,5.01-.25,.29-.62,.46-1.01,.46Zm9.18-9.97c-.35,0-.68-.13-.94-.38-.26-.25-.41-.58-.41-.94,0-.36,.13-.7,.38-.96,1.56-1.62,3.17-3.25,4.78-4.85,.25-.25,.59-.39,.95-.39s.7,.14,.96,.4c.52,.53,.52,1.38,0,1.91-1.59,1.58-3.19,3.2-4.74,4.81-.26,.26-.61,.41-.97,.41Zm9.62-9.55c-.37,0-.72-.15-.98-.42-.51-.54-.49-1.4,.05-1.91,1.64-1.56,3.32-3.11,4.99-4.63,.25-.23,.57-.35,.91-.35,.38,0,.74,.16,1,.44,.5,.56,.46,1.41-.09,1.91-1.66,1.5-3.32,3.05-4.94,4.59-.25,.24-.58,.37-.93,.37Zm10.05-9.13c-.39,0-.76-.17-1.02-.47-.49-.56-.43-1.41,.13-1.9,1.72-1.49,3.47-2.98,5.21-4.42,.24-.2,.55-.31,.86-.31,.4,0,.78,.18,1.04,.49,.48,.57,.4,1.43-.18,1.9-1.72,1.43-3.46,2.9-5.16,4.38-.25,.21-.56,.33-.88,.33Zm10.47-8.68c-.41,0-.8-.19-1.06-.51-.46-.58-.37-1.44,.22-1.9,1.77-1.41,3.59-2.81,5.4-4.18,.23-.18,.52-.27,.81-.27,.42,0,.82,.2,1.08,.53,.45,.59,.33,1.44-.26,1.89-1.79,1.36-3.59,2.75-5.35,4.14-.24,.19-.53,.29-.84,.29Zm10.84-8.2c-.43,0-.84-.21-1.09-.56-.44-.6-.3-1.45,.3-1.88,1.84-1.33,3.72-2.65,5.58-3.93,.23-.16,.49-.24,.76-.24,.44,0,.86,.22,1.11,.58,.42,.62,.27,1.46-.35,1.88-1.84,1.27-3.7,2.58-5.53,3.9-.23,.17-.5,.26-.79,.26Zm11.19-7.7c-.46,0-.88-.23-1.13-.61-.41-.62-.23-1.46,.39-1.87,1.89-1.24,3.82-2.47,5.75-3.67,.21-.13,.46-.2,.71-.2,.47,0,.9,.24,1.14,.63,.39,.63,.2,1.47-.43,1.86-1.91,1.19-3.82,2.41-5.7,3.64-.22,.14-.47,.22-.74,.22Zm11.53-7.18c-.48,0-.92-.25-1.16-.66-.18-.31-.24-.67-.15-1.02,.09-.35,.31-.64,.62-.83,1.96-1.16,3.94-2.3,5.91-3.41,.2-.11,.43-.17,.66-.17,.49,0,.94,.26,1.18,.69,.18,.31,.22,.68,.12,1.03s-.32,.64-.64,.81c-1.95,1.09-3.92,2.23-5.86,3.37-.2,.12-.44,.19-.69,.19Zm11.84-6.64c-.5,0-.96-.27-1.19-.72-.35-.66-.1-1.48,.56-1.83,2.01-1.06,4.05-2.12,6.06-3.13,.19-.09,.4-.14,.61-.14,.51,0,.98,.29,1.21,.74,.33,.67,.06,1.48-.6,1.81-2,1-4.02,2.04-6.01,3.1-.2,.1-.41,.16-.63,.16Zm12.14-6.08c-.52,0-1-.3-1.22-.77-.32-.67-.03-1.48,.64-1.8,2.05-.97,4.14-1.92,6.2-2.84,.17-.08,.36-.12,.55-.12,.53,0,1.02,.31,1.23,.8,.15,.33,.16,.7,.03,1.03-.13,.34-.38,.6-.71,.75-2.05,.9-4.11,1.85-6.15,2.81-.18,.09-.37,.13-.58,.13Zm12.41-5.49c-.55,0-1.04-.33-1.25-.83-.28-.69,.04-1.48,.73-1.76,2.09-.87,4.22-1.72,6.33-2.53,.16-.06,.32-.09,.49-.09,.55,0,1.06,.35,1.26,.86,.27,.69-.08,1.47-.77,1.74-2.09,.81-4.2,1.65-6.27,2.51-.17,.07-.34,.1-.52,.1Zm12.67-4.89c-.57,0-1.08-.36-1.27-.89-.12-.34-.1-.7,.05-1.03,.15-.33,.43-.57,.77-.69,2.13-.76,4.3-1.51,6.45-2.22,.14-.05,.28-.07,.43-.07,.58,0,1.09,.37,1.28,.92,.11,.34,.09,.71-.08,1.03s-.44,.56-.78,.67c-2.12,.7-4.27,1.44-6.39,2.2-.14,.05-.3,.08-.46,.08Zm12.89-4.25c-.6,0-1.12-.39-1.29-.96-.1-.35-.07-.71,.1-1.03,.17-.32,.45-.55,.8-.65,2.17-.66,4.38-1.29,6.56-1.89l.1-.03,.26-.02c.6,0,1.14,.41,1.3,.99,.2,.72-.23,1.46-.94,1.66-2.16,.59-4.34,1.22-6.49,1.87-.13,.04-.26,.06-.39,.06Zm13.1-3.6c-.62,0-1.16-.42-1.31-1.03-.09-.35-.03-.71,.15-1.02,.19-.31,.48-.53,.83-.61,2.2-.54,4.44-1.07,6.65-1.55l.08-.02h.21c.63-.01,1.18,.43,1.32,1.04,.16,.73-.3,1.45-1.03,1.61-2.18,.48-4.4,1-6.58,1.54l-.09,.02-.23,.02Zm13.27-2.92c-.65,0-1.2-.46-1.32-1.09-.14-.73,.34-1.44,1.07-1.58,2.23-.43,4.49-.83,6.73-1.2h.06s.16-.02,.16-.02c.66,0,1.22,.48,1.33,1.13,.06,.35-.02,.71-.23,1-.21,.29-.52,.49-.88,.55-2.21,.36-4.45,.76-6.66,1.19h-.07s-.18,.02-.18,.02Zm13.41-2.21c-.67,0-1.24-.5-1.34-1.16-.05-.36,.04-.71,.26-1,.22-.29,.53-.47,.89-.52,2.24-.31,4.51-.59,6.76-.84h.02c.83,0,1.4,.51,1.47,1.19,.08,.74-.46,1.41-1.19,1.49-2.22,.25-4.47,.53-6.69,.83h-.18Zm60.68-.89c-2.23-.24-4.48-.46-6.71-.64-.74-.06-1.29-.71-1.24-1.45,.06-.7,.65-1.24,1.35-1.24,2.36,.19,4.64,.41,6.89,.65,.74,.08,1.27,.75,1.19,1.49-.07,.69-.65,1.2-1.34,1.2h-.15Zm-47.21-.59c-.7,0-1.29-.54-1.34-1.24-.03-.36,.08-.71,.31-.98,.23-.28,.56-.44,.92-.47,2.26-.19,4.54-.35,6.79-.47h0c.79,0,1.38,.56,1.42,1.27,.04,.74-.53,1.38-1.27,1.42-2.23,.12-4.49,.28-6.72,.47h-.11Zm33.76-.51c-2.22-.12-4.48-.21-6.72-.27-.36,0-.69-.16-.94-.42-.25-.26-.38-.6-.37-.96,.02-.73,.62-1.32,1.34-1.32,2.31,.06,4.6,.15,6.85,.27,.74,.04,1.31,.68,1.28,1.42-.04,.72-.63,1.28-1.35,1.28h-.09Zm-20.24-.25c-.73,0-1.33-.58-1.35-1.31,0-.36,.12-.7,.37-.97,.25-.26,.58-.41,.94-.42,2.26-.07,4.55-.1,6.81-.1,.74,0,1.35,.6,1.35,1.35,0,.36-.14,.7-.39,.96-.26,.26-.59,.4-.95,.4-2.24,0-4.5,.04-6.74,.1h-.04Z"/>
        <path class="cls-12" d="M639.57,622.11c-1.14-.11-2.26-.22-3.39-.33-.74-.07-1.28-.73-1.21-1.48,.07-.69,.65-1.22,1.34-1.22,1.25,.12,2.37,.23,3.5,.34,.36,.03,.68,.21,.91,.48,.23,.28,.34,.63,.3,.99-.07,.69-.64,1.22-1.34,1.22h-.12Z"/>
      </g>
      <g>
        <g>
          <path class="cls-8" d="M578.15,333.93c-.4-.81-106.65,28.49-107.38,28.9,.35-.69,23.01-44.8,64.36-55.48,9.33-2.42,19.61-3.12,30.8-1.25,12.35,2.07,22.84,6.61,31.26,12.78-8.98,1.56-14.28,7.06-19.04,15.05Z"/>
          <path class="cls-8" d="M470.77,362.82h0s0,0,0,0Z"/>
        </g>
        <g>
          <g>
            <path class="cls-12" d="M578.15,333.93c-.4-.81-106.65,28.49-107.38,28.9,.35-.69,23.01-44.8,64.36-55.48,9.33-2.42,19.61-3.12,30.8-1.25,12.35,2.07,22.84,6.61,31.26,12.78-8.98,1.56-14.28,7.06-19.04,15.05Z"/>
            <path class="cls-12" d="M470.77,363.39c-.14,0-.28-.05-.39-.16-.18-.17-.22-.44-.11-.66,.24-.47,5.95-11.59,16.88-24.11,9.94-11.37,26.3-26.1,47.84-31.66,10.04-2.6,20.48-3.02,31.04-1.26,11.96,2,22.56,6.33,31.5,12.88,.18,.13,.27,.36,.22,.58-.05,.22-.23,.39-.45,.43-7.8,1.36-13.2,5.64-18.65,14.79-.11,.18-.31,.28-.51,.27-.04,0-.07,0-.1-.01-4.28,.28-105.81,28.45-107.03,28.86-.07,.03-.15,.05-.23,.05Zm82.54-57.79c-6.12,0-12.15,.76-18.04,2.29-21.26,5.49-37.44,20.06-47.27,31.31-8.93,10.22-14.33,19.48-16.09,22.69,6.43-1.88,33.4-9.31,52.1-14.4,43.99-11.98,52.12-13.87,53.82-14.11,5.29-8.78,10.58-13.17,17.99-14.81-8.58-6.02-18.65-10.03-29.97-11.92-4.2-.7-8.38-1.05-12.52-1.05Zm24.34,28.59h0Zm0,0h0s0,0,0,0Zm0,0s0,0,0,0c0,0,0,0,0,0Zm0,0s0,0,0,0c0,0,0,0,0,0Zm0,0h0s0,0,0,0Zm0,0s0,0,0,0c0,0,0,0,0,0Z"/>
          </g>
          <path class="cls-12" d="M470.77,363.39c-.14,0-.29-.06-.4-.17-.22-.22-.22-.58,0-.8,.22-.22,.58-.22,.8,0,.22,.22,.22,.58,0,.8h0c-.11,.12-.25,.17-.4,.17Z"/>
        </g>
        <g>
          <path class="cls-12" d="M470.77,363.39c-.14,0-.28-.05-.39-.16-.18-.17-.22-.44-.11-.66,.24-.47,5.95-11.59,16.88-24.11,9.94-11.37,26.3-26.1,47.84-31.66,10.04-2.6,20.48-3.02,31.04-1.26,11.96,2,22.56,6.33,31.5,12.88,.18,.13,.27,.36,.22,.58-.05,.22-.23,.39-.45,.43-7.8,1.36-13.2,5.64-18.65,14.79-.11,.18-.31,.28-.51,.27-.04,0-.07,0-.1-.01-4.28,.28-105.81,28.45-107.03,28.86-.07,.03-.15,.05-.23,.05Zm82.54-57.79c-6.12,0-12.15,.76-18.04,2.29-21.26,5.49-37.44,20.06-47.27,31.31-8.93,10.22-14.33,19.48-16.09,22.69,6.43-1.88,33.4-9.31,52.1-14.4,43.99-11.98,52.12-13.87,53.82-14.11,5.29-8.78,10.58-13.17,17.99-14.81-8.58-6.02-18.65-10.03-29.97-11.92-4.2-.7-8.38-1.05-12.52-1.05Zm24.34,28.59h0Zm0,0h0s0,0,0,0Zm0,0s0,0,0,0c0,0,0,0,0,0Zm0,0s0,0,0,0c0,0,0,0,0,0Zm0,0h0s0,0,0,0Zm0,0s0,0,0,0c0,0,0,0,0,0Z"/>
          <path class="cls-12" d="M470.77,363.39c-.14,0-.29-.06-.4-.17-.22-.22-.22-.58,0-.8,.22-.22,.58-.22,.8,0,.22,.22,.22,.58,0,.8h0c-.11,.12-.25,.17-.4,.17Z"/>
        </g>
      </g>
      <g>
        <path class="cls-8" d="M959.29,726.45c-39.78,0-71.81-11.79-92.61-34.08-39.48-41.46-82.79-61.61-132.42-61.61-18.16,0-34.57,2.49-49.06,4.69-11.16,1.69-20.8,3.16-29.05,3.16-11.75,0-19.03-3.07-23.64-9.95-15.03-22.47,1.08-43.89,16.66-64.61,12.08-16.06,23.48-31.23,21.22-46.65-1.31-8.91-7.11-17.04-17.75-24.88-8.78-6.47-16.23-9.61-22.77-9.61-.24,0-.48,0-.71,.01l-.25-.86,53.01-29.76,79.65-41.12h.05c1.26-.26,2.57-.39,3.89-.39,6.71,0,14.31,3.19,23.22,9.76,9.29,6.84,14.35,14.44,15.47,23.23,2.47,19.4-15.45,41.41-32.77,62.69-21.07,25.88-42.86,52.65-28.08,74.74,3.8,5.68,9.64,8.33,18.37,8.33,11.91,0,28.51-4.94,49.54-11.19,18.84-5.6,42.29-12.58,69.5-18.04,16.74-3.36,31.09-5,43.87-5,41.55,0,59.59,17.42,82.43,39.47,13.92,13.45,29.7,28.68,53.7,42.37,11.94,8.27,20.92,11.97,29.09,11.97,9.23,0,17.14-4.62,28.1-11.01,2.31-1.35,4.93-2.88,7.69-4.43l1.07-.6-.54,1.11c-18.22,37.48-34.37,58.78-50.81,67.04-41.78,16.49-81.92,25.22-116.06,25.22Z"/>
        <path class="cls-12" d="M959.19,727.02c-2.11,0-4.18-.03-6.15-.09-18.24-.57-34.79-3.68-49.19-9.24-14.86-5.74-27.5-14.13-37.57-24.92-39.33-41.3-82.62-61.38-132.34-61.38-18.07,0-34.28,2.46-48.58,4.63-11.29,1.71-21.01,3.19-29.29,3.19-11.88,0-19.29-3.15-24.02-10.21-15.25-22.8,.98-44.39,16.67-65.27,12-15.97,23.34-31.05,21.12-46.23-1.28-8.75-7.01-16.76-17.52-24.5-8.68-6.39-16.02-9.5-22.44-9.5-.34,0-.67,0-1,.03-.46,0-.84-.26-.96-.68-.12-.43,.06-.88,.45-1.09l53.28-29.92,79.62-41.11c.08-.04,.17-.07,.25-.09,1.29-.26,2.62-.38,3.97-.38,6.85,0,14.56,3.23,23.58,9.87,9.42,6.94,14.55,14.66,15.69,23.61,2.5,19.65-15.5,41.75-32.9,63.12-20.94,25.73-42.6,52.33-28.05,74.07,3.7,5.53,9.39,8.1,17.9,8.1,11.75,0,28.36-4.94,49.38-11.19,18.85-5.61,42.31-12.58,69.55-18.05,16.73-3.36,31.08-4.99,43.89-4.99,13.97,0,25.96,1.95,36.65,5.96,18.65,7,31.45,19.35,46.26,33.65,13.9,13.42,29.66,28.64,53.59,42.29,11.84,8.2,20.73,11.87,28.81,11.87,9.12,0,16.96-4.58,27.81-10.91,2.65-1.55,5.05-2.94,7.7-4.43,.14-.08,.3-.12,.46-.12,.24,0,.47,.09,.65,.26,.3,.29,.39,.73,.2,1.11-18.28,37.6-34.51,58.98-51.07,67.29-41.87,16.53-82.14,25.28-116.42,25.28Zm-224.92-97.58c11.38,0,21.99,.96,32.44,2.94,36.66,6.94,69.68,26.26,100.94,59.08,19.7,21.12,48.45,32.42,85.44,33.57,2.01,.06,4.06,.1,6.1,.1,34.03,0,74.02-8.69,115.64-25.12,15.58-7.82,30.89-27.66,48.19-62.45l.59-1.19-1.15,.66c-1.29,.75-2.54,1.48-3.78,2.2-11.25,6.57-19.34,11.28-28.86,11.28-8.42,0-17.61-3.77-29.82-12.23-24.07-13.73-39.91-29.03-53.89-42.53-22.65-21.86-40.53-39.13-81.32-39.13-12.7,0-27.02,1.64-43.79,5-27.13,5.45-50.54,12.41-69.34,18-21.21,6.31-37.96,11.29-50.02,11.29-9.16,0-15.33-2.84-19.42-8.96-15.33-22.91,6.78-50.06,28.15-76.32,17.15-21.06,34.88-42.85,32.49-61.68-1.07-8.41-5.95-15.71-14.93-22.32-8.68-6.39-16.02-9.5-22.45-9.5-1.16,0-2.31,.1-3.42,.31h-.06s-79.47,41.04-79.47,41.04l-50.23,28.2,1.14,.18c5.93,.92,12.46,4.05,19.98,9.59,10.94,8.05,16.91,16.48,18.28,25.76,2.34,15.96-9.23,31.35-21.48,47.64-15.3,20.35-31.12,41.39-16.61,63.07,4.33,6.48,11.27,9.37,22.5,9.37,8.11,0,17.72-1.46,28.84-3.14,14.58-2.21,31.04-4.71,49.31-4.71Z"/>
      </g>
      <g>
        <path class="cls-10" d="M661.35,480.35l102.2-60.17s43.34,16.86,30.59,45.07c-46.28,28.57-110.27,57.15-110.27,57.15,0,0-4.68-36.01-22.52-42.05Z"/>
        <path class="cls-12" d="M683.86,522.96c-.1,0-.19-.02-.28-.07-.16-.09-.26-.24-.28-.42-.05-.36-4.84-35.73-22.14-41.59-.21-.07-.36-.26-.38-.48-.02-.22,.08-.43,.28-.54l102.2-60.17c.15-.09,.33-.1,.49-.04,1.01,.39,24.7,9.77,31.51,26.46,2.56,6.28,2.36,12.8-.62,19.38-.05,.1-.12,.19-.22,.25-45.78,28.27-109.7,56.9-110.34,57.18-.07,.03-.15,.05-.23,.05Zm-21.22-42.72c15.85,6.62,20.89,36.09,21.67,41.34,7.02-3.17,66.22-30.09,109.37-56.71,2.77-6.23,2.95-12.39,.53-18.33-6.26-15.34-28.03-24.67-30.63-25.73l-100.95,59.43Z"/>
      </g>
      <g>
        <path class="cls-8" d="M568.76,530.3c-2.88,0-5.96-.42-9.15-1.25-17.15-4.45-27.59-15.73-29.42-31.76-1.49-13.07,3.07-28.13,12.84-42.4,10.71-15.64,26.91-29.4,46.85-39.79,18.96-9.88,30.67-26.51,32.12-45.64,1.48-19.55-7.7-38.58-24.56-50.91-8.93-6.53-19.5-10.85-31.44-12.85-4.25-.71-8.53-1.07-12.7-1.07-5.16,0-10.31,.55-15.35,1.64l114.87-62.69c11.54-6.3,23.69-9.5,36.12-9.5,4.13,0,8.36,.36,12.57,1.06,29.21,4.89,50.73,24.76,54.83,50.61,3.71,23.39-8.24,45.34-31.18,57.29-35.62,18.55-59.31,48.44-60.36,76.14-.54,14.36,5.33,26.21,16.55,33.44l-52.62,29.54c-11.75,.66-18.87,11.24-26.41,22.44-5.67,8.43-11.54,17.14-19.7,21.94-4.29,2.53-8.82,3.76-13.85,3.76Z"/>
        <path class="cls-12" d="M568.76,531.65c-2.99,0-6.18-.44-9.49-1.29-17.72-4.6-28.53-16.29-30.42-32.92-1.52-13.39,3.11-28.77,13.06-43.31,10.83-15.83,27.2-29.74,47.34-40.23,18.54-9.66,29.98-25.89,31.4-44.54,1.44-19.08-7.53-37.67-24.01-49.72-8.76-6.4-19.14-10.65-30.86-12.61-4.16-.7-8.35-1.05-12.46-1.05-6.07,0-12.11,.77-17.95,2.28l-.1,.03h-.17c-.36,0-.71-.23-.85-.6-.18-.44,0-.95,.43-1.18l117.47-64.11c11.75-6.42,24.13-9.67,36.79-9.67,4.21,0,8.51,.36,12.78,1.08,29.79,4.99,51.75,25.29,55.94,51.73,1.79,11.29,.03,22.57-5.07,32.62-5.37,10.56-14.41,19.45-26.13,25.72l-.69,.36c-35.19,18.33-58.6,47.77-59.63,75-.53,14.1,5.32,25.68,16.48,32.61,.28,.18,.46,.49,.45,.83,0,.33-.19,.64-.48,.81l-53.28,29.92c-.13,.07-.27,.11-.42,.12-11.13,.58-18.09,10.91-25.46,21.85-5.76,8.55-11.71,17.39-20.13,22.35-4.51,2.65-9.26,3.95-14.53,3.95Zm-15.45-227.56c4.22,0,8.51,.36,12.77,1.08,12.02,2.01,22.67,6.37,31.67,12.95,17.02,12.44,26.28,31.66,24.79,51.4-1.46,19.32-13.28,36.11-32.41,46.08-19.86,10.35-36,24.05-46.65,39.61-9.69,14.16-14.22,29.09-12.74,42.03,1.8,15.79,12.1,26.91,29.01,31.29,3.15,.82,6.18,1.23,9,1.23,4.93,0,9.37-1.2,13.58-3.68,8.05-4.73,13.88-13.39,19.52-21.76,7.58-11.26,14.73-21.88,26.63-22.68h.09s51.72-29.04,51.72-29.04l-.52-.37c-10.54-7.39-16.05-19.13-15.52-33.06,1.05-27.9,24.86-57.97,60.65-76.61,22.72-11.84,34.56-33.57,30.9-56.72-4.06-25.61-25.4-45.3-54.38-50.15-4.17-.7-8.36-1.05-12.46-1.05-12.34,0-24.41,3.17-35.87,9.43l-109.81,59.93,.24,.75c3.24-.43,6.54-.65,9.82-.65Z"/>
      </g>
      <g>
        <path class="cls-10" d="M634.15,380.34c49.1-25.65,115.98-73.65,115.98-73.65,0,0,4.29-42.66-31.12-52.05-42.12,20.39-107.05,58.46-107.05,58.46,0,0,36.15,26.63,22.19,67.24Z"/>
        <path class="cls-12" d="M634.15,380.9c-.13,0-.26-.05-.37-.14-.17-.15-.24-.39-.17-.61,7.13-20.76,.79-37.74-5.79-48.34-7.15-11.52-16.12-18.2-16.21-18.27-.15-.11-.24-.29-.23-.48,0-.19,.11-.36,.28-.46,.65-.38,65.43-38.31,107.09-58.48,.12-.06,.26-.07,.39-.04,18.55,4.92,26.14,19,29.24,29.94,3.34,11.81,2.31,22.61,2.3,22.71-.02,.16-.1,.31-.23,.4-.67,.48-67.48,48.31-116.05,73.69-.08,.04-.17,.06-.26,.06Zm-21.19-67.74c2.24,1.8,9.68,8.17,15.81,18.03,6.58,10.58,12.93,27.42,6.36,48,47.02-24.78,110.3-69.83,114.46-72.81,.13-1.67,.72-11.46-2.29-22.07-4.38-15.42-13.87-25.19-28.23-29.07-39.25,19.02-98.89,53.71-106.11,57.92Z"/>
      </g>
      <g>
        <path class="cls-12" d="M652.88,492.22l-70.07,34.67c19.03-11.19,25.56-43.27,46.02-44.33,6.39-.33,14.14,2.36,24.05,9.66Z"/>
        <path class="cls-12" d="M582.81,527.45c-.2,0-.4-.11-.5-.3-.14-.27-.05-.6,.21-.76,8.13-4.78,13.98-13.48,19.65-21.89,7.58-11.26,14.75-21.9,26.63-22.52,7.01-.37,14.99,2.83,24.41,9.77,.16,.12,.24,.31,.23,.5s-.14,.37-.31,.46l-70.07,34.67c-.08,.04-.17,.06-.25,.06Zm47.08-44.36c-.35,0-.69,0-1.03,.03-11.32,.59-18.33,11-25.76,22.02-4.43,6.58-8.98,13.33-14.67,18.33l63.36-31.35c-8.41-6.07-15.6-9.03-21.91-9.03Z"/>
      </g>
      <g>
        <g>
          <path class="cls-12" d="M873.67,610.82c-.54,.6-10.32-3.47-17.33,5.12-7.01,8.59,9.95,65.47,19.67,64.77,9.72-.7,9.47-27.28,9.61-42.78,.14-15.5-11.95-27.11-11.95-27.11Z"/>
          <path class="cls-12" d="M875.82,682.07c-2.91,0-5.98-3.2-9.41-9.79-7.6-14.62-17.34-49.56-11.13-57.19,3.29-4.03,7.59-6.07,12.81-6.07,1.77,0,3.3,.24,4.32,.39,.31,.05,.65,.1,.86,.12,.1-.03,.21-.05,.33-.06h0c.41,0,.74,.13,.99,.37,.13,.12,12.51,12.22,12.36,28.1l-.02,2.14c-.13,17.39-.32,41.21-10.84,41.97-.09,0-.18,0-.28,0Zm-7.67-70.34c-4.4,0-8.02,1.71-10.77,5.07-4.31,5.28,2.31,36.71,11.43,54.24,4.02,7.73,6.37,8.33,6.99,8.33,8.14-.59,8.33-25.77,8.44-39.3l.02-2.15c.12-13.17-9.24-23.72-11.12-25.7-.36-.02-.72-.08-1.14-.14-.97-.15-2.3-.35-3.85-.35Z"/>
        </g>
        <g>
          <path class="cls-8" d="M889.22,604.65l-7.62,22.4s-12.83-3.92-12.86-15.39c6.42-16.21,6.73-17.57,6.73-17.57,0,0,12.85,4.3,13.75,10.56Z"/>
          <path class="cls-12" d="M881.6,628.4c-.13,0-.27-.02-.39-.06-.13-.04-13.78-4.29-13.82-16.68,0-.17,.03-.35,.1-.51,6.07-15.34,6.65-17.32,6.67-17.4,.08-.34,.32-.66,.65-.84,.2-.11,.43-.17,.66-.17,.14,0,.29,.02,.43,.07,1.4,.47,13.67,4.77,14.66,11.65,.03,.21,0,.42-.06,.62l-7.62,22.4c-.19,.55-.7,.91-1.28,.91Zm-11.51-16.49c.18,8.16,7.81,12.17,10.68,13.39l7.06-20.75c-.94-4.18-8.66-7.58-11.54-8.71-.68,1.88-2.3,6.21-6.2,16.07Z"/>
        </g>
        <g>
          <path class="cls-13" d="M848.29,379.29s123.78,40.69,119.77,84.24c-4.01,43.55-77.36,160.46-77.36,160.46-8.57-.73-15.96-9.3-22.36-24.64,0,0,43.56-115.19,36.11-139.25-7.45-24.07-93.41-57.31-93.41-57.31l37.25-23.5Z"/>
          <path class="cls-12" d="M890.57,625.33c-8.85-.75-16.75-9.32-23.47-25.47-.13-.32-.14-.67-.02-.99,.11-.29,11.08-29.43,20.94-60.98,12.85-41.12,18.09-67.89,15.15-77.4-7.18-23.2-91.75-56.12-92.61-56.45-.48-.18-.81-.62-.86-1.13s.19-1,.62-1.27l37.25-23.49c.21-.14,.46-.21,.72-.21,.14,0,.28,.02,.42,.07,.31,.1,31.35,10.36,61.59,25.87,17.78,9.12,31.79,18.24,41.65,27.11,12.54,11.29,18.42,22.28,17.46,32.66-3.99,43.27-76.83,159.88-77.56,161.05-.25,.4-.68,.63-1.14,.63h-.13Zm-20.78-26.02c6.04,14.3,12.83,22.11,20.21,23.23,5.57-8.96,72.93-118.12,76.71-159.14,2-21.74-30.24-43.07-57.64-57.12-27.67-14.2-56-23.96-60.61-25.51l-34.45,21.73c17.12,6.81,84.85,34.99,91.72,57.19,3.11,10.05-1.69,35.75-14.26,76.39-9.4,30.39-20.03,58.84-21.68,63.23Z"/>
        </g>
        <g>
          <path class="cls-12" d="M966.8,634.03c-.13,.8-10.56,2.67-11.79,13.69-1.24,11.02,43.83,49.64,51.62,43.79,7.79-5.86-6.82-28.06-15.1-41.16-8.28-13.11-24.73-16.31-24.73-16.31Z"/>
          <path class="cls-12" d="M1004.48,693.46c-2.52,0-5.95-1.26-10.48-3.84-14.31-8.17-41.43-32.26-40.33-42.04,1.06-9.47,8.25-12.68,11.31-14.05,.29-.13,.61-.27,.79-.36,.08-.09,.16-.17,.26-.23,.23-.16,.5-.24,.77-.24h.08l.18,.02c.17,.03,17.09,3.43,25.61,16.92l1.15,1.81c9.31,14.69,22.06,34.81,13.62,41.15-.77,.58-1.76,.87-2.96,.87Zm-37.35-57.97c-.27,.15-.59,.29-1.02,.49-2.67,1.19-8.87,3.96-9.76,11.9-.76,6.77,21.83,29.6,38.99,39.4,5.06,2.89,7.76,3.49,9.13,3.49h0c.59,0,1.05-.11,1.34-.34,6.44-4.84-7.04-26.12-14.28-37.55l-1.15-1.81c-7.01-11.1-20.59-14.92-23.26-15.58Z"/>
        </g>
        <g>
          <path class="cls-8" d="M976.53,620.41l5.73,22.96s-12.91,3.66-19.15-5.97c-3.39-17.1-3.86-18.41-3.86-18.41,0,0,13.13-3.35,17.28,1.43Z"/>
          <path class="cls-12" d="M976.67,644.59c-4.41,0-10.35-1.21-14.03-6.89-.04-.06-.07-.13-.08-.2-3.29-16.6-3.84-18.32-3.84-18.33-.05-.15-.04-.32,.03-.46,.07-.14,.21-.24,.36-.28,.55-.14,13.52-3.38,17.85,1.6,.06,.07,.1,.15,.12,.23l5.73,22.96c.07,.3-.1,.6-.39,.68-.06,.02-2.48,.68-5.74,.68Zm-13.02-7.41c5.26,7.99,15.49,6.31,17.93,5.77l-5.56-22.27c-3.5-3.79-13.59-1.83-16.08-1.28,.33,1.32,1.25,5.41,3.7,17.78Z"/>
        </g>
        <g>
          <path class="cls-13" d="M751.88,402.07s-1.58,42.56,77.5,56.88c79.08,14.33,114.61,167.33,114.61,167.33,0,0,35.53,8.6,39.54-8.02-13.75-57.88-39.54-197.13-134.1-224.07-68.77-19.48-97.56,7.87-97.56,7.87Z"/>
          <path class="cls-12" d="M962.25,629.85c-9.4-.07-18.48-2.24-18.57-2.26-.5-.12-.88-.51-1-1.01-.09-.38-9.12-38.69-27.57-78.04-16.99-36.24-45.69-80.97-85.97-88.27-41.27-7.48-60.43-22.79-69.24-34.32-9.68-12.68-9.39-23.48-9.37-23.94,.01-.35,.16-.69,.42-.93,.3-.29,7.58-7.11,23.56-11.56,8.68-2.42,18.37-3.65,28.81-3.65,14.41,0,30.05,2.36,46.49,7.02,20.81,5.93,39.76,17.75,56.32,35.14,14.07,14.78,26.78,33.98,37.79,57.07,20.01,41.98,30.86,89.16,38.04,120.38l.04,.17c1.01,4.38,1.96,8.52,2.85,12.29,.05,.2,.05,.41,0,.63-1.78,7.38-9.43,11.28-22.12,11.28h-.48Zm-17.14-4.7c2.29,.49,9.64,1.95,17.18,2h.47c7.75,0,17.37-1.55,19.39-8.91-.88-3.7-1.81-7.75-2.79-12.03-7.18-31.22-17.99-78.23-37.87-119.94-23.58-49.49-54.68-80.03-92.41-90.78-16.2-4.59-31.59-6.92-45.75-6.92-10.15,0-19.57,1.19-28,3.53-13.16,3.65-20.24,9.03-22.08,10.57,.09,2.46,1,11.45,8.87,21.72,8.52,11.12,27.16,25.92,67.52,33.23,18.34,3.32,35.85,14.3,52.04,32.62,12.87,14.57,24.95,33.81,35.9,57.17,17.1,36.49,26.11,71.87,27.54,77.73Z"/>
        </g>
        <g>
          <path class="cls-12" d="M818.28,243.3s3.02,16.9,0,18.71c-3.02,1.81-14.28-1.21-14.08-2.21,.2-1.01,2.61-14.69,2.61-14.69l11.48-1.81Z"/>
          <path class="cls-12" d="M815.26,263.14c-4.1,0-9.87-1.64-11.12-2.52-.4-.28-.56-.59-.5-.93,.2-.99,2.58-14.54,2.6-14.68,.04-.24,.23-.42,.47-.46l11.48-1.81c.3-.05,.59,.16,.64,.46,.52,2.89,2.93,17.38-.27,19.3-.76,.46-1.94,.64-3.31,.64Zm-10.47-3.43c1.24,.94,10.59,3.39,13.2,1.82,1.8-1.08,1-10.75-.17-17.59l-10.53,1.66c-.38,2.19-2.17,12.32-2.5,14.1Z"/>
        </g>
        <g>
          <path class="cls-8" d="M885.14,334.98c-4.38,.81-9.22,2.41-19.25,6.42-28.44,7.57,4.74-65.86-43.4-80.66l-2.87,104.06c31.68,4.37,59.8-14.76,66.27-16.04,3.98-.79,6.12-13.89-.75-13.77Z"/>
          <path class="cls-12" d="M829.19,366.79c-3.3,0-6.58-.22-9.76-.66-.68-.1-1.18-.69-1.16-1.37l2.87-104.06c.01-.42,.22-.81,.56-1.06,.23-.16,.5-.25,.79-.25,.13,0,.27,.02,.39,.06,27.95,8.59,29.38,36.52,30.43,56.92,.56,10.82,1.04,20.15,5.16,23.16,1,.73,2.2,1.08,3.67,1.08,.99,0,2.12-.17,3.36-.49,9.94-3.98,14.86-5.62,19.39-6.45h.07s.23-.02,.23-.02c3.18,0,5.29,2.23,5.69,5.97,.46,4.32-1.5,9.84-4.73,10.48-1.34,.27-4.17,1.6-7.45,3.15-10.75,5.08-28.72,13.56-49.49,13.56h-.02Zm-8.19-3.18c2.68,.32,5.43,.48,8.2,.48,20.17,0,37.79-8.32,48.32-13.29,3.74-1.77,6.44-3.04,8.11-3.37,1.24-.25,2.95-4,2.57-7.55-.17-1.62-.83-3.55-2.97-3.55-4.22,.79-9,2.39-18.84,6.32l-.17,.06c-1.46,.39-2.84,.59-4.08,.59-2.03,0-3.8-.54-5.25-1.6-5.16-3.76-5.65-13.22-6.27-25.19-1.04-20.22-2.33-45.31-26.83-53.93l-2.79,101.03Z"/>
        </g>
        <g>
          <path class="cls-8" d="M885.59,336.37s13.58,.8,16.4,5.33c2.82,4.53,2.31,14.49,2.31,14.49,0,0-4.45,4.08-10.06,.7-5.62-3.37-5.84-10.06-9.76-10.46-4.83-3.62-1.91-9.16,1.11-10.06Z"/>
          <path class="cls-12" d="M898.76,359.57c-1.78,0-3.53-.51-5.21-1.52-3.1-1.86-4.7-4.61-5.98-6.81-1.24-2.13-2-3.34-3.23-3.47-.25-.03-.48-.12-.68-.27-3.25-2.44-3.27-5.39-3-6.93,.45-2.53,2.36-4.85,4.53-5.5,.12-.04,.25-.06,.38-.06,1.54,.09,14.44,.98,17.55,5.97,2.95,4.74,2.57,14.21,2.52,15.27-.02,.36-.17,.68-.43,.93-.11,.1-2.67,2.39-6.46,2.39Zm-13.72-14.42c2.38,.45,3.59,2.53,4.87,4.74,1.19,2.04,2.53,4.35,5.03,5.85,1.27,.76,2.57,1.15,3.88,1.15h0c1.96,0,3.47-.88,4.16-1.37,.04-1.95,.06-9.59-2.13-13.11-1.84-2.96-10.26-4.33-15.07-4.68-1.13,.46-2.19,1.88-2.44,3.32-.27,1.54,.32,2.95,1.71,4.1Z"/>
        </g>
        <g>
          <path class="cls-8" d="M829.59,263.93c-10.81-7.04-25.96-9.05-47.77-4.41,0,0-24.44,1.28-29.23,32.66-5.73,37.55-3.53,113.18-3.53,113.18,0,0,106.68,.86,113.84-26.08-11.12-17.62-20.69-25.76-18.78-60.33l-14.54-55.03Z"/>
          <path class="cls-12" d="M749.04,406.72c-.71,0-1.3-.58-1.32-1.31-.09-3.1-2.09-76.48,3.55-113.42,2.55-16.71,10.66-25.02,17.02-29.04,6.69-4.23,12.74-4.73,13.41-4.77,7.76-1.66,15.01-2.51,21.46-2.51,10.93,0,19.82,2.33,27.18,7.13,.62,.41,.8,1.24,.39,1.87-.25,.38-.67,.61-1.13,.61-.26,0-.52-.08-.74-.22-6.91-4.5-15.32-6.69-25.71-6.69-6.26,0-13.34,.83-21.05,2.47l-.21,.03c-.23,.01-5.97,.42-12.21,4.39-5.86,3.73-13.36,11.46-15.75,27.13-5.23,34.31-3.82,100.88-3.55,111.63,38.66-.05,104.74-5.26,111.06-24.53-1.46-2.29-2.88-4.41-4.26-6.47-8.98-13.41-16.07-24.01-14.4-54.14,.04-.73,.61-1.27,1.34-1.27,.83,.05,1.4,.68,1.36,1.43-1.62,29.23,4.91,38.98,13.95,52.48,1.5,2.25,3.04,4.55,4.62,7.05,.2,.32,.26,.71,.16,1.07-3.13,11.76-23.57,19.88-60.76,24.13-24.54,2.81-48.83,2.95-53.44,2.95-.61,0-.94,0-.97,0Z"/>
        </g>
        <g>
          <polygon class="cls-12" points="866.96 397.45 910.98 368.66 908.7 368.66 870.1 391.05 866.96 397.45"/>
          <path class="cls-12" d="M866.96,398.02c-.13,0-.27-.05-.37-.14-.19-.17-.24-.44-.13-.67l3.14-6.4c.05-.1,.13-.18,.22-.24l38.6-22.39c.09-.05,.18-.08,.28-.08h2.28c.25,0,.47,.16,.54,.4,.07,.24-.02,.5-.23,.63l-44.02,28.79c-.09,.06-.2,.09-.31,.09Zm3.57-6.57l-2.16,4.4,40.71-26.63h-.23l-38.32,22.22Z"/>
        </g>
        <g>
          <polygon class="cls-12" points="814.85 374.71 870.38 391.49 866.96 397.45 812.23 379.29 814.85 374.71"/>
          <path class="cls-12" d="M866.96,398.02c-.06,0-.12,0-.18-.03l-54.73-18.16c-.16-.05-.29-.18-.35-.33-.06-.16-.05-.33,.04-.48l2.62-4.58c.13-.23,.4-.34,.65-.26l55.54,16.78c.16,.05,.3,.17,.36,.33,.06,.16,.05,.34-.04,.49l-3.42,5.96c-.1,.18-.29,.28-.49,.28Zm-53.9-19.04l53.64,17.8,2.84-4.94-54.43-16.44-2.05,3.59Z"/>
        </g>
        <g>
          <path class="cls-8" d="M875.21,348.76c-1.81,.4-60.37,25.96-60.37,25.96l55.54,16.78,45.07-28.45-40.25-14.29Z"/>
          <path class="cls-12" d="M870.38,392.84c-.13,0-.26-.02-.39-.06l-55.54-16.78c-.54-.16-.92-.65-.96-1.21-.03-.56,.29-1.09,.8-1.31,17.66-7.7,58.9-25.66,60.62-26.04l.08-.02h.21c.15-.01,.3,.01,.45,.06l40.25,14.29c.48,.17,.83,.61,.89,1.12,.06,.52-.18,1.01-.62,1.29l-45.07,28.45c-.22,.14-.47,.21-.72,.21Zm-.2-2.82l42.2-26.64-37.19-13.2c-4.16,1.56-37.43,16.01-56.45,24.3l51.44,15.54Z"/>
        </g>
        <g>
          <polygon class="cls-12" points="919.28 333.46 870.1 391.05 873.75 393.31 922.11 336.37 919.28 333.46"/>
          <path class="cls-12" d="M873.74,393.88c-.1,0-.21-.03-.3-.08l-3.65-2.26c-.14-.09-.23-.23-.26-.39s.02-.33,.13-.45l49.18-57.59c.1-.12,.25-.19,.41-.2,.16,0,.31,.06,.42,.17l2.83,2.9c.2,.21,.22,.54,.03,.76l-48.37,56.95c-.11,.13-.27,.2-.43,.2Zm-2.79-2.96l2.68,1.66,47.72-56.18-2.04-2.09-48.35,56.62Z"/>
        </g>
        <g>
          <polygon class="cls-12" points="967.7 305.87 919.28 333.46 922.11 336.37 969.49 308.7 967.7 305.87"/>
          <path class="cls-12" d="M922.12,336.93c-.15,0-.29-.06-.4-.17l-2.83-2.9c-.12-.13-.18-.3-.15-.47,.02-.17,.13-.33,.28-.41l48.42-27.59c.26-.15,.59-.07,.76,.19l1.79,2.82c.08,.13,.11,.29,.07,.44s-.13,.28-.26,.35l-47.38,27.67c-.09,.05-.19,.08-.28,.08Zm-1.92-3.34l2.02,2.06,46.49-27.15-1.19-1.88-47.32,26.96Z"/>
        </g>
        <g>
          <polygon class="cls-8" points="873.75 393.31 924.11 363.3 969.49 308.7 922.11 336.37 873.75 393.31"/>
          <path class="cls-12" d="M873.75,394.66c-.4,0-.77-.17-1.03-.47-.43-.51-.43-1.24,0-1.75l48.37-56.95c.1-.11,.21-.21,.35-.29l47.38-27.67c.2-.12,.44-.18,.68-.18,.4,0,.77,.17,1.03,.48,.43,.5,.43,1.23,0,1.74l-45.38,54.6c-.1,.12-.21,.22-.35,.3l-50.37,30.02c-.21,.12-.45,.19-.69,.19Zm6.29-6.67l43.19-25.74,40.34-48.53-40.57,23.69-42.96,50.58Z"/>
        </g>
        <g>
          <path class="cls-8" d="M774.8,261.2s-67.86,20.26-48.01,89.75c14.9,52.14,77.96,20.78,93.62,12.05,6.34-3.4,4.12-12.89-4.17-12.74-2.39,.89-5.13,1.95-8.35,3.24-17.88,7.15-64.2,.51-54.52-40.52l21.43-51.79Z"/>
          <path class="cls-12" d="M764.96,381.66c-6.48,0-12.32-1.06-17.36-3.14-10.79-4.46-18.23-13.61-22.11-27.2-4.6-16.11-4.89-30.94-.87-44.11,3.23-10.55,9.21-20.03,17.79-28.18,14.5-13.77,31.82-19.08,31.99-19.13,.13-.04,.26-.06,.39-.06,.6,0,1.12,.39,1.29,.96,.21,.72-.19,1.47-.91,1.68-.17,.05-16.85,5.14-30.94,18.53-12.93,12.29-26.23,34.33-16.16,69.56,3.64,12.75,10.56,21.31,20.55,25.44,4.73,1.95,10.23,2.94,16.36,2.94,21.67,0,45.51-11.99,54.76-17.15,2.33-1.25,3.43-3.61,2.8-6.02-.5-1.93-2.39-4.17-6.06-4.19-2.29,.85-4.94,1.88-8.1,3.14-4.1,1.64-9.68,2.54-15.71,2.54-12.49,0-23.99-3.74-31.56-10.26-9.33-8.04-12.47-19.92-9.06-34.36,.15-.61,.68-1.04,1.31-1.04h.09l.22,.04c.72,.17,1.17,.89,1,1.62-3.16,13.4-.33,24.36,8.19,31.7,7.1,6.12,17.95,9.62,29.76,9.62,5.61,0,10.99-.86,14.75-2.37,3.29-1.32,6.03-2.38,8.38-3.25,.14-.05,.3-.08,.45-.08h.2c4.33,0,7.76,2.43,8.74,6.2,.94,3.6-.71,7.25-4.12,9.07-9.41,5.25-33.73,17.47-56.08,17.47h0Z"/>
        </g>
        <g>
          <path class="cls-8" d="M807.03,266.4l1.22-17.96s25.59,8.68,26.4-33.51c.49-25.6-22.17-31.91-35.35-18.44-13.18,13.47-5.62,36.39-8.83,46.13-2.13,6.46-9.53,15.77-12.23,21.51-1.37,2.92,20.2,15.17,28.79,2.27Z"/>
          <path class="cls-12" d="M795.56,273.52c-6.42,0-12.01-2.87-13.57-3.76-1.87-1.06-6.11-3.78-4.97-6.21,1.15-2.45,3.07-5.44,5.11-8.6,2.89-4.49,5.86-9.12,7.06-12.75,1.01-3.05,.87-7.66,.71-12.99-.32-10.83-.71-24.32,8.43-33.66,4.54-4.64,10.57-7.3,16.54-7.3,2.66,0,5.23,.51,7.64,1.52,8.67,3.64,13.72,13.05,13.48,25.19-.31,16.17-4.24,27.02-11.68,32.25-3.15,2.21-6.77,3.33-10.78,3.33-1.65,0-3.06-.2-4.05-.4l-1.11,16.35c-.01,.23-.09,.46-.22,.66-2.78,4.17-7.13,6.37-12.6,6.37Zm-15.98-9.05c.25,.41,1.23,1.52,3.74,2.94,2.92,1.65,7.66,3.41,12.22,3.41s7.89-1.64,10.18-4.88l1.19-17.59c.03-.41,.25-.8,.6-1.03,.22-.15,.48-.23,.75-.23,.15,0,.29,.02,.43,.07,.02,0,2.01,.65,4.83,.65,3.48,0,6.6-.95,9.26-2.82,6.69-4.71,10.23-14.83,10.52-30.09,.21-11.15-4.1-19.4-11.83-22.64-2.08-.87-4.3-1.31-6.6-1.31-5.25,0-10.57,2.36-14.61,6.49-8.34,8.52-7.97,21.37-7.66,31.69,.16,5.59,.31,10.41-.85,13.92-1.31,3.97-4.38,8.74-7.35,13.37-1.92,2.99-3.74,5.81-4.83,8.06Z"/>
        </g>
      </g>
      <g>
        <path class="cls-12" d="M764.1,265.66s12.72-3.85,19.98-5.19c16.63-3.96,14.35-21.4,13.28-33.74-1.07-12.34,3.76-15.02,5.9-13.68s9.49-1.07,11.59-6.17c13.36,.27,12.28,12.8,23.06,14.94,0,0,11.93-17.09,3.4-28.89-8.54-11.81-20.88-7.51-20.88-7.51,0,0-15.29-13.42-31.66,.8-16.37,14.22-25.74,69.85-24.67,79.44Z"/>
        <path class="cls-12" d="M764.1,266.23c-.11,0-.22-.03-.31-.09-.14-.09-.23-.24-.25-.41-.57-5.06,1.63-21.62,5.81-38.19,3.04-12.05,9.55-33.49,19.05-41.74,15.41-13.39,30.09-2.65,32.15-1.01,2.01-.57,13.29-3.15,21.21,7.81,8.67,11.99-2.9,28.84-3.39,29.55-.13,.18-.35,.27-.57,.23-5.1-1.02-7.66-4.28-10.14-7.43-2.92-3.72-5.69-7.23-12.44-7.49-1.47,3.15-4.74,5.16-7.38,6.01-2.06,.66-3.88,.69-4.87,.06-.55-.35-1.31-.29-2.02,.14-.92,.57-3.87,3.18-3.02,13.01l.14,1.53c1.09,12.2,2.59,28.9-13.85,32.81-7.16,1.32-19.82,5.14-19.94,5.18-.05,.02-.11,.02-.16,.02Zm40.77-86.02c-4.71,0-10.14,1.59-15.73,6.44-15.64,13.59-25.15,66.94-24.53,78.27,2.73-.81,13.12-3.85,19.37-5.01,15.45-3.68,14.07-19.16,12.96-31.6l-.14-1.53c-.89-10.19,2.19-13.24,3.55-14.07,1.09-.66,2.29-.72,3.21-.14,.69,.43,2.24,.36,3.93-.18,2.5-.8,5.61-2.73,6.84-5.73,.09-.22,.29-.35,.53-.35,7.56,.15,10.68,4.11,13.68,7.93,2.4,3.05,4.66,5.93,9.11,6.94,1.53-2.34,10.78-17.44,3.2-27.93-8.18-11.31-19.75-7.48-20.23-7.31-.19,.07-.4,.02-.56-.11-.39-.34-6.59-5.64-15.19-5.64Z"/>
      </g>
      <g>
        <path class="cls-8" d="M816.97,351.96s15.49-5.53,23.54-1.91,10.36,23.34,10.36,23.34c0,0-.5,1.31-2.72,0-2.21-1.31-5.63-12.92-5.63-12.92,0,0-1.21,6.18-6.34,7.59-5.13,1.41-10.76-2.82-12.12-4.43-1.36-1.61-7.1-2.24-7.1-2.24,0,0-2.72-5.21,0-9.44Z"/>
        <path class="cls-12" d="M849.85,375.32c-.71,0-1.51-.26-2.38-.77-1.41-.84-3.12-4.21-5.08-10.03-1.06,1.88-2.88,4.02-5.85,4.84-.79,.22-1.63,.33-2.49,.33-4.97,0-9.65-3.56-11.02-5.18-.54-.64-3.44-1.46-6.21-1.77-.45-.05-.84-.32-1.05-.72-.13-.24-3.04-5.96,.06-10.79,.16-.25,.4-.44,.68-.54,.37-.13,9.11-3.23,16.99-3.23,3.02,0,5.56,.46,7.56,1.36,8.65,3.89,11.05,23.58,11.15,24.42,.03,.22,0,.44-.08,.64-.06,.15-.4,.95-1.4,1.3-.28,.1-.58,.15-.89,.15Zm-7.32-16.2c.59,0,1.13,.4,1.29,.97,1.74,5.92,4.09,11.59,5.03,12.14,.22,.13,.4,.22,.55,.28-1.05-7.14-4.08-18.82-9.43-21.23-1.64-.74-3.79-1.11-6.39-1.11-6.46,0-13.7,2.25-15.69,2.91-1.43,2.64-.51,5.72,.02,7.08,2.01,.28,5.85,1.01,7.2,2.61,.92,1.09,4.89,4.23,8.91,4.23h0c.64,0,1.25-.08,1.83-.24,4.22-1.16,5.36-6.5,5.37-6.55,.12-.61,.64-1.06,1.26-1.08h.06Z"/>
      </g>
      <path class="cls-12" d="M677.02,553.27c-.17,0-.33-.1-.41-.26-.1-.22,0-.49,.22-.59l85.59-39.17c.06-.03,.12-.04,.19-.04,.17,0,.33,.1,.41,.26,.05,.11,.05,.23,.01,.34s-.12,.2-.23,.25l-85.59,39.17c-.06,.03-.12,.04-.19,.04Z"/>
      <path class="cls-12" d="M659.04,584.13c-.17,0-.33-.1-.41-.26-.1-.22,0-.49,.21-.59l84.78-39.73c.06-.03,.12-.04,.19-.04,.18,0,.33,.1,.41,.26,.05,.11,.06,.23,.02,.34s-.12,.2-.23,.25l-84.78,39.73c-.06,.03-.12,.04-.19,.04Z"/>
      <path class="cls-12" d="M642.77,614.12c-.18,0-.33-.1-.41-.26-.05-.11-.06-.23-.02-.34,.04-.11,.12-.2,.23-.25l88.71-41.53c.06-.03,.12-.04,.19-.04,.17,0,.33,.1,.41,.26,.05,.11,.06,.23,.02,.34-.04,.11-.12,.2-.23,.25l-88.71,41.53c-.06,.03-.12,.04-.19,.04Z"/>
      <path class="cls-12" d="M610.06,409.35c-.17,0-.32-.09-.4-.24-.06-.11-.07-.23-.03-.34,.03-.11,.11-.21,.22-.26l73-38.78c.07-.03,.14-.05,.21-.05,.17,0,.32,.09,.4,.24,.11,.22,.03,.49-.19,.6l-73,38.78c-.07,.03-.14,.05-.21,.05Z"/>
      <path class="cls-12" d="M565.25,448.33c-.17,0-.33-.1-.4-.25-.05-.11-.06-.23-.02-.34,.04-.11,.12-.2,.23-.25l96.1-46.22c.06-.03,.13-.04,.19-.04,.17,0,.33,.1,.4,.25,.05,.11,.06,.23,.02,.34-.04,.11-.12,.2-.23,.25l-96.1,46.22c-.06,.03-.13,.04-.19,.04Z"/>
      <path class="cls-12" d="M549.7,502.85c-.17,0-.32-.09-.4-.24-.05-.11-.06-.23-.03-.34s.12-.21,.22-.26l111.88-57.55c.06-.03,.13-.05,.2-.05,.17,0,.32,.09,.4,.24,.11,.22,.03,.49-.19,.6l-111.88,57.55c-.06,.03-.13,.05-.2,.05Z"/>
      <path class="cls-12" d="M547.84,480.59c-.17,0-.33-.1-.4-.25-.05-.11-.06-.23-.02-.34,.04-.11,.12-.2,.23-.26l105.04-51.11c.06-.03,.13-.05,.19-.05,.17,0,.33,.1,.4,.25,.05,.11,.06,.23,.02,.34-.04,.11-.12,.2-.23,.26l-105.04,51.11c-.06,.03-.13,.05-.19,.05Z"/>
      <path class="cls-12" d="M593.45,294.79c-.16,0-.31-.09-.39-.23-.12-.21-.04-.49,.17-.61l89.61-49.9c.07-.04,.14-.06,.22-.06,.16,0,.31,.09,.39,.23,.12,.21,.04,.49-.17,.61l-89.61,49.9c-.07,.04-.14,.06-.22,.06Z"/>
      <g>
        <path class="cls-8" d="M791.36,276.38l1.32,.26s.54,.1,1.36,.1c1.67,0,4.12-.39,6.33-2.25l.65-.55,.49,.7c4.44,6.29,3.9,28.61,3.46,37.92l-1.53,.21-12.09-36.39Z"/>
        <path class="cls-12" d="M804.17,313.87c-.78-.04-1.36-.67-1.32-1.41,.31-6.56,1.01-27.92-2.4-35.38-2.34,1.47-4.72,1.8-6.38,1.8-1.01,0-1.68-.12-1.8-.15-.73-.15-1.2-.86-1.06-1.59,.13-.63,.68-1.09,1.32-1.09h.08l.19,.03s.48,.09,1.23,.09c1.59,0,3.92-.37,5.99-2.11,.24-.2,.55-.32,.87-.32h.17c.38,.06,.72,.26,.93,.57,4.37,6.21,4.11,26.64,3.57,38.27-.03,.72-.63,1.29-1.35,1.29h-.03Z"/>
      </g>
      <g>
        <path class="cls-8" d="M839.04,286.5l1.49-.46c.25,.56,5.99,13.81,4.63,25.36l-1.55,.05-4.57-24.95Z"/>
        <path class="cls-12" d="M844.24,312.66c-.75-.09-1.28-.76-1.2-1.5,1.29-10.99-4.41-24.12-4.46-24.25-.3-.68,.01-1.48,.69-1.78,.17-.08,.35-.11,.54-.11,.53,0,1.02,.32,1.24,.81,.25,.56,6.05,13.94,4.67,25.65-.08,.68-.66,1.19-1.34,1.19h-.14Z"/>
      </g>
      <path class="cls-12" d="M687.13,625.66c-.17,0-.33-.1-.41-.26-.1-.22,0-.49,.22-.59l49.28-23.07c.06-.03,.12-.04,.19-.04,.17,0,.33,.1,.4,.26,.1,.22,0,.49-.22,.59l-49.28,23.07c-.06,.03-.12,.04-.19,.04Z"/>
      <g>
        <path class="cls-12" d="M801.98,182.73s-4.09-20.73-21.53-12.07c-17.44,8.65-6.84,49.3-6.84,49.3l28.37-37.23Z"/>
        <path class="cls-12" d="M773.61,220.52s-.07,0-.11-.01c-.21-.04-.38-.2-.44-.41-.44-1.68-10.52-41.19,7.14-49.95,5.07-2.51,9.55-2.85,13.31-.99,6.97,3.44,8.94,13.05,9.02,13.46,.03,.16,0,.32-.11,.45l-28.37,37.23c-.11,.14-.27,.22-.45,.22Zm14.73-51.41c-2.33,0-4.89,.68-7.64,2.05-15.22,7.55-8.36,40.88-6.82,47.51l27.49-36.07c-.35-1.5-2.48-9.53-8.36-12.43-1.43-.71-2.99-1.06-4.67-1.06Z"/>
      </g>
      <g>
        <polygon class="cls-13" points="923.19 467.48 915.46 480.59 929.09 475.45 924.53 485.11 931.24 485.11 923.19 467.48"/>
        <path class="cls-12" d="M931.24,485.67h-6.71c-.19,0-.37-.1-.48-.26-.1-.16-.12-.37-.03-.54l3.97-8.4-12.33,4.65c-.22,.08-.48,.02-.63-.16-.15-.18-.18-.44-.05-.65l7.73-13.11c.16-.27,.5-.36,.77-.2,.27,.16,.36,.5,.2,.77l-6.92,11.73,12.13-4.58c.21-.08,.46-.02,.61,.15,.16,.17,.19,.42,.1,.62l-4.18,8.85h5.82c.31,0,.56,.25,.56,.56s-.25,.56-.56,.56Z"/>
      </g>
      <g>
        <polygon class="cls-13" points="961.98 454.62 956.19 463.37 964.77 463.37 957.53 469.81 961.98 472.23 961.98 454.62"/>
        <path class="cls-12" d="M961.98,472.79c-.09,0-.18-.02-.27-.07l-4.45-2.41c-.16-.09-.27-.25-.29-.43s.05-.36,.19-.49l6.13-5.45h-7.1c-.21,0-.4-.11-.5-.3-.1-.18-.09-.41,.03-.58l5.79-8.76c.17-.26,.52-.33,.78-.16,.26,.17,.33,.52,.16,.78l-5.21,7.88h7.54c.23,0,.44,.14,.53,.36s.02,.47-.15,.62l-6.64,5.9,3.75,2.03c.27,.15,.38,.49,.23,.77-.1,.19-.3,.3-.5,.3Z"/>
      </g>
    </g>
    <path class="cls-12" d="M109.87,727.6c-.34,0-.64-.19-.75-.48-1.3-3.2-1.64-6.58-.97-9.77,.68-3.22,2.33-6.01,4.78-8.08,3.02-2.55,7.42-4.01,12.06-4.01,.14,0,.28,0,.42,0,2.77,.06,5.54,.61,8,1.58,2.34,.91,4.48,2.17,6.36,3.75,1.68-3.26,6.11-10.07,15.22-13.84,3.99-1.65,8.27-2.49,12.71-2.49,1.94,0,3.94,.16,5.94,.48,4.23,.67,7.47,1.9,8.9,2.52,3.58-3.52,8.6-5.53,13.82-5.53,1.11,0,2.23,.09,3.31,.28,7.31,1.23,13.14,6.5,14.59,13.15,3.03,1.23,5.5,3.08,7.18,5.36,1.85,2.51,2.76,5.56,2.63,8.81-.13,3.2-1.25,6.46-3.25,9.42-.14,.22-.4,.35-.69,.35h0l-110.27-1.5Zm109.81,.04c3.59-5.55,3.75-11.79,.42-16.31-1.58-2.15-3.95-3.87-6.87-4.99-.25-.1-.43-.3-.48-.55-1.19-6.24-6.57-11.21-13.37-12.35-.99-.17-2-.25-3-.25-4.97,0-9.71,1.99-13,5.45-.15,.16-.38,.25-.62,.25-.13,0-.26-.03-.38-.08-1.57-.73-7.25-3.1-14.6-3.1-4.23,0-8.3,.79-12.08,2.36-9.44,3.9-13.55,11.14-14.89,14.06-.13,.27-.42,.45-.75,.45-.03,0-.1,0-.13,0l-.08-.02c-.16-.04-.29-.11-.39-.2-3.73-3.49-8.86-5.55-14.07-5.65-.14,0-.28,0-.42,0-4.27,0-8.14,1.28-10.91,3.62-4.34,3.66-5.76,9.99-3.59,15.83l109.21,1.49Z"/>
    <g>
      <path class="cls-14" d="M1425.38,211.98c-.77,0-1.38-.34-1.69-.93-.24-.42-.26-.96-.04-1.44,.24-.51,.72-.87,1.29-.97,.49-.07,.95-.12,1.41-.18,.86-.1,1.73-.21,2.6-.36,.27-.04,.48-.07,.68-.07,.38,0,.73,.09,1.02,.28,.43,.26,.71,.69,.78,1.18,.07,.49-.09,.97-.43,1.33-.41,.46-1,.56-1.35,.62-1.36,.22-2.65,.39-3.89,.51-.09,.01-.23,.02-.37,.02Z"/>
      <path class="cls-14" d="M1402.77,179.78c-.64-.02-1.26-.43-1.52-1.06-.25-.59-.13-1.24,.31-1.71,.87-.95,4.41-1.16,5.02-1.16,1.04,0,1.64,.18,2.02,.62,.29,.29,.45,.73,.42,1.18-.03,.45-.24,.87-.6,1.16-.49,.44-1.15,.44-1.51,.44-1.18,0-2.22,.14-3.22,.41-.2,.05-.48,.13-.79,.13-.03,0-.11,0-.13,0Z"/>
      <path class="cls-14" d="M1420.67,201.3c-.91,0-1.64-.7-1.69-1.62-.02-.37,.07-.69,.14-.92,.32-1.03,.53-2.07,.64-3.1,.05-.39,.13-1.1,.74-1.56,.26-.22,.65-.35,1.04-.35,.46,0,.91,.19,1.22,.52,1.3,1.15-.46,5.87-.48,5.92-.26,.67-.9,1.12-1.62,1.12Z"/>
      <path class="cls-14" d="M1415.26,209.26c-.85,0-1.54-.6-1.66-1.47,0-.03,0-.09-.01-.12-.04-.75,.44-1.25,.7-1.51,.77-.79,1.43-1.57,2.02-2.36,.23-.31,.54-.71,1.09-.89,.14-.05,.33-.08,.52-.08,.54,0,1.05,.26,1.38,.7,.31,.42,.41,.95,.26,1.44-.08,.32-.29,.61-.4,.76-.75,1.02-1.58,1.99-2.48,2.89-.31,.38-.87,.65-1.43,.65Z"/>
      <path class="cls-14" d="M1416.15,183.11c-.62-.07-1.03-.42-1.27-.64-.79-.7-1.59-1.27-2.45-1.74-.37-.2-.96-.52-1.15-1.23-.13-.49-.03-1,.27-1.4,.33-.43,.85-.69,1.4-.69,.24,0,.47,.05,.68,.14,1.3,.6,2.56,1.48,3.78,2.6,.53,.44,.75,1.21,.5,1.88-.24,.65-.86,1.08-1.59,1.08-.03,0-.15,0-.18,0Z"/>
      <path class="cls-14" d="M1420.99,191.73c-.41,0-.8-.15-1.1-.41-.44-.36-.57-.88-.65-1.18,0,0-.03-.11-.03-.12-.26-1-.59-1.97-.98-2.87-.56-1.17-.07-1.9,.27-2.23,.28-.29,.73-.48,1.2-.48,.25,0,.51,.06,.73,.16,.59,.27,.84,.82,.97,1.11,.47,1.08,.85,2.19,1.15,3.34l.04,.14c.08,.28,.18,.67,.1,1.12-.16,.84-.87,1.42-1.7,1.42Z"/>
      <path class="cls-14" d="M1461.6,194.99c-.48,0-.95-.21-1.28-.56-.33-.35-.49-.81-.46-1.27,.02-.56,.36-.97,.6-1.27l.13-.16c.11-.14,.17-.21,.22-.29,.27-.38,.64-.9,1.3-1.05,.12-.03,.25-.04,.39-.04,.51,0,1.03,.23,1.37,.63,.32,.36,.46,.84,.4,1.3-.06,.45-.32,.8-.5,1.06-.21,.29-.39,.51-.57,.73-.27,.33-.71,.89-1.48,.93-.02,0-.09,0-.11,0Z"/>
      <path class="cls-14" d="M1453.97,201.38c-.06,0-.21-.01-.27-.02-.84-.14-1.42-.85-1.37-1.67,.01-.84,.72-1.32,1.02-1.53,.86-.58,1.73-1.21,2.75-2.01,.29-.26,.73-.43,1.17-.43,.68,0,1.29,.39,1.55,.99,.26,.59,.12,1.28-.35,1.8-.03,.03-.06,.06-.1,.09-.92,.78-1.91,1.47-2.95,2.19l-.13,.09c-.31,.21-.75,.5-1.33,.5Z"/>
      <path class="cls-14" d="M1396.18,186.7c-.59,0-1.14-.31-1.44-.81-.39-.57-.22-1.33-.03-1.92,.25-.76,1.57-3.76,2.79-4.21,.19-.07,.38-.1,.58-.1,.54,0,1.05,.26,1.37,.7,.32,.43,.41,.99,.26,1.49-.08,.31-.28,.59-.41,.77-.57,.77-1.02,1.63-1.34,2.55-.14,.41-.37,1.06-1.08,1.38-.19,.1-.45,.16-.72,.16Z"/>
      <path class="cls-14" d="M1400.9,204.7h0c-.58-.02-1.49-.3-3.55-3.95-.36-.61-.39-1.29-.08-1.85,.29-.51,.84-.83,1.44-.83,.74,0,1.41,.47,1.74,1.22,.44,.78,1.03,1.64,1.64,2.4,.24,.3,.64,.81,.56,1.51-.05,.82-.79,1.5-1.67,1.5-.02,0-.07,0-.09,0Z"/>
      <path class="cls-14" d="M1396.47,196.26c-.84,0-1.58-.63-1.75-1.49-.37-1.3-.63-2.68-.75-4.02-.08-.43,.06-.98,.41-1.39,.33-.4,.81-.62,1.31-.62,.33,0,.66,.1,.95,.28,.69,.49,.77,1.18,.8,1.51,.11,1.06,.3,2.09,.58,3.14,.1,.39,.24,.93,.01,1.51-.31,.69-.9,1.09-1.56,1.09Z"/>
      <path class="cls-14" d="M1409.35,210.38c-1.37,0-4.71-1.94-4.94-2.1-.63-.43-.9-1.16-.68-1.86,.22-.72,.89-1.2,1.66-1.2,.13,0,.26,.01,.4,.04,.33,.07,.59,.22,.79,.33,.94,.54,2,1.04,3.16,1.48,.67,.2,1.22,.83,1.28,1.55,.06,.67-.31,1.28-.95,1.6-.16,.1-.42,.16-.71,.16Z"/>
      <path class="cls-14" d="M1407.08,215.07c-.17,0-.34-.02-.5-.07-.44-.13-.81-.44-1.01-.84-.2-.39-.24-.85-.09-1.27,.19-.64,.77-.95,1.07-1.12,1.03-.55,1.98-1.11,2.87-1.69,.24-.17,.7-.42,1.24-.42,.4,0,.77,.13,1.07,.38,.39,.29,.62,.77,.62,1.29,0,.53-.27,1.03-.7,1.35-1.07,.75-2.25,1.41-3.37,2.02-.32,.17-.7,.37-1.19,.37Z"/>
      <path class="cls-14" d="M1397.6,218.97c-.91,0-1.65-.62-1.76-1.46-.1-.86,.49-1.66,1.41-1.89,.93-.28,2.22-.69,3.45-1.13,.23-.08,.57-.21,.97-.21,.26,0,.51,.05,.74,.16,.8,.32,1.23,1.26,.92,2.09-.27,.75-.97,1-1.31,1.12l-.51,.18c-1.12,.39-2.28,.8-3.48,1.1-.04,.01-.08,.02-.12,.02-.1,.01-.2,.02-.3,.02Z"/>
      <path class="cls-14" d="M1371.06,222.6c-1.31-.02-2.58-.06-3.85-.11-.42-.02-.94-.05-1.4-.38-.54-.37-.8-1.01-.67-1.66,.14-.66,.67-1.18,1.35-1.31,.14-.03,.33-.05,.55-.05h.26c1.25,.06,2.5,.1,3.72,.12,.42,0,1.19,.02,1.73,.64,.26,.27,.42,.69,.41,1.12-.01,.43-.19,.83-.51,1.13-.53,.51-1.2,.51-1.48,.51,0,0-.12,0-.12,0Z"/>
      <path class="cls-14" d="M1361.01,222.04c-.14,0-.29-.01-.42-.02-1.3-.13-2.56-.26-3.82-.42-.41-.05-.93-.12-1.37-.5-.55-.52-.72-1.21-.48-1.82,.26-.66,.96-1.1,1.73-1.1,.12,0,.24,.01,.36,.03l.74,.08c1.04,.12,2.09,.24,3.12,.34,.43,.04,1.2,.12,1.67,.8,.51,.66,.38,1.68-.32,2.23-.33,.26-.74,.39-1.21,.39Z"/>
      <path class="cls-14" d="M1351.26,220.25c-.21,0-.42-.03-.62-.06-1.28-.22-2.53-.45-3.76-.7-.41-.09-.93-.19-1.33-.61-.49-.55-.61-1.22-.35-1.8,.28-.62,.94-1.03,1.68-1.03,.17,0,.34,.02,.51,.06l.68,.13c1.05,.2,2.1,.4,3.14,.58,.43,.07,1.19,.21,1.61,.93,.45,.69,.24,1.7-.5,2.19-.3,.2-.65,.3-1.04,.3Z"/>
      <path class="cls-14" d="M1387.59,221.34c-1.15,0-1.79-.8-1.83-1.58-.05-.92,.67-1.69,1.68-1.8,1.21-.19,2.48-.4,3.71-.64,.22-.04,.46-.08,.7-.08,.42,0,.79,.12,1.1,.34,.7,.46,.93,1.44,.47,2.18-.4,.66-1.09,.8-1.46,.87l-.81,.15c-1.11,.21-2.27,.43-3.43,.55-.04,0-.08,0-.13,0h0Z"/>
      <path class="cls-14" d="M1377.1,222.43c-1.13-.12-1.68-.96-1.65-1.74,.04-.92,.84-1.62,1.85-1.63l.31-.02c1.19-.06,2.39-.13,3.56-.22,.14-.01,.27-.02,.41-.02,.56,0,1.02,.16,1.36,.48,.64,.55,.74,1.57,.17,2.25-.48,.58-1.17,.64-1.55,.67l-.99,.07c-1.09,.08-2.22,.16-3.35,.17h0s-.08,0-.12,0Z"/>
      <path class="cls-14" d="M1445.04,206.32c-.3,0-.57-.07-.83-.21-.7-.33-1.07-1.18-.83-1.95,.24-.74,.88-1.03,1.22-1.18,1.08-.48,2.1-.96,3.07-1.46,.31-.15,.69-.34,1.16-.34,.05,0,.17,0,.21,.01,.65,.06,1.23,.52,1.44,1.17,.2,.63,0,1.31-.51,1.74-.04,.03-.09,.07-.13,.1-.88,.55-1.83,.97-2.75,1.39-.33,.15-.65,.29-.97,.44-.31,.14-.67,.28-1.08,.28Z"/>
      <path class="cls-14" d="M1435.41,209.91c-.39,0-.74-.11-1.03-.31-.68-.43-.94-1.35-.56-2.09,.35-.69,1.02-.88,1.38-.98,1.17-.32,2.29-.66,3.39-1.02,.28-.09,.6-.19,.96-.19,.16,0,.31,.02,.45,.06,.65,.14,1.16,.67,1.28,1.34,.11,.65-.18,1.31-.75,1.67-.05,.03-.1,.06-.16,.08-.99,.43-2.03,.72-3.04,1-.36,.1-.73,.2-1.08,.31-.26,.07-.53,.14-.83,.14Z"/>
      <path class="cls-14" d="M1419.13,212.28c-1.25-.03-2.66-.14-4.1-.33-.4-.05-1.21-.16-1.64-.91-.45-.69-.26-1.66,.47-2.17,.31-.22,.68-.33,1.1-.33,.17,0,.34,.02,.51,.04,1.19,.15,2.37,.25,3.57,.3,.44,.02,.97,.04,1.45,.38,.64,.5,.86,1.19,.63,1.85-.25,.71-.96,1.18-1.79,1.18-.03,0-.16,0-.19,0Z"/>
    </g>
    <g>
      <path class="cls-11" d="M1501.2,160.83c-4.75-7.9,.37-13.51,3.53-15.32l57.88-14.72-33.27,54.12c-.13,.24-.27,.48-.43,.7-3.45,4.79-14.26,4.33-18.87-4.16l11.48-11.07c-7.24-3.82-15.92-2.21-20.33-9.55Z"/>
      <path class="cls-15" d="M1501.2,160.83c-4.75-7.9,.37-13.51,3.53-15.32l57.88-14.72-33.27,54.12c-.13,.24-.27,.48-.43,.7-3.45,4.79-14.26,4.33-18.87-4.16l11.48-11.07c-7.24-3.82-15.92-2.21-20.33-9.55Z"/>
    </g>
  </g>
  <g>
    <path class="cls-6" d="M442.17,270.99l8.33,31.75-67.15,17.63-3.2-12.21c5.2-4.67,17.28-13.61,30.83-10.41,5.55-8.96,16.29-24.43,31.2-26.76Z"/>
    <path class="cls-5" d="M436.58,249.69l5.59,21.3c-14.91,2.33-25.65,17.8-31.2,26.76-13.55-3.2-25.63,5.73-30.83,10.41l-10.72-40.83,67.15-17.63Z"/>
    <rect class="cls-3" x="367.91" y="265.31" width="4.11" height="5.22" transform="translate(-55.9 102.7) rotate(-14.71)"/>
    <rect class="cls-3" x="400.94" y="256.64" width="4.11" height="5.22" transform="translate(-52.61 110.8) rotate(-14.71)"/>
    <rect class="cls-3" x="433.96" y="247.97" width="4.11" height="5.22" transform="translate(-49.33 118.9) rotate(-14.71)"/>
    <rect class="cls-3" x="381.76" y="318.08" width="4.11" height="5.22" transform="translate(-68.84 107.94) rotate(-14.71)"/>
    <rect class="cls-3" x="414.79" y="309.41" width="4.11" height="5.22" transform="translate(-65.55 116.04) rotate(-14.71)"/>
    <rect class="cls-3" x="447.81" y="300.74" width="4.11" height="5.22" transform="translate(-62.27 124.14) rotate(-14.71)"/>
    <rect class="cls-3" x="374.43" y="290.17" width="4.11" height="5.22" transform="translate(-61.99 105.17) rotate(-14.71)"/>
    <rect class="cls-3" x="440.49" y="272.84" width="4.11" height="5.22" transform="translate(-55.43 121.37) rotate(-14.71)"/>
    <circle class="cls-6" cx="388.35" cy="276.81" r="6.36"/>
  </g>
  <g>
    <rect class="cls-6" x="369.37" y="492.35" width="63.17" height="45.45" transform="translate(162.39 -92.51) rotate(16.46)"/>
    <path d="M408.8,513.28l-7.53-7.93c-2.41-2.54-6.67-1.51-7.66,1.84l-3.1,10.49c-.99,3.36,2.02,6.53,5.43,5.71l10.63-2.56c3.4-.82,4.65-5.02,2.23-7.56Z"/>
  </g>
  <g>
    <g>
      <g>
        <path class="cls-7" d="M941.09,86.12c3.79-7.38,.88-16.44-6.5-20.24-7.38-3.79-16.44-.88-20.24,6.5-1.86,3.61-2.1,7.63-1.01,11.23l-.02-.02s1.35,6.72-.34,10.28c-.99,2.07-1.31,2.69-1.42,2.84l5.68,2.92,5.68,2.92c.06-.17,.37-.8,1.48-2.81,1.91-3.45,8.16-6.26,8.16-6.26h0c3.56-1.21,6.68-3.75,8.53-7.36Z"/>
        <path class="cls-7" d="M911.57,96.7l-.03-.02s-.04,.13,.03,.02Z"/>
        <path class="cls-7" d="M922.96,102.56l-.03-.02c-.05,.12,.03,.02,.03,.02Z"/>
      </g>
      <path class="cls-2" d="M917.04,93.09l5.63-10.95s-1.7-2-2.51,.56c-.81,2.56,5.2,3.26,5.77,1.33,.56-1.93-3.75,.05-1.57,2.43,2.18,2.38,6.01,1.27,5.52-.8-.49-2.07-2.62,.47-4.06,3.21l-3.66,7.11"/>
      <rect class="cls-7" x="907.78" y="95.35" width="21.9" height="2.79" rx="1.26" ry="1.26" transform="translate(145.78 -409.19) rotate(27.2)"/>
      <rect class="cls-7" x="906.22" y="98.4" width="21.9" height="2.79" rx="1.26" ry="1.26" transform="translate(147 -408.13) rotate(27.2)"/>
      <rect class="cls-7" x="904.65" y="101.45" width="21.9" height="2.79" rx="1.26" ry="1.26" transform="translate(148.22 -407.08) rotate(27.2)"/>
      <path class="cls-7" d="M907.55,103.81h12.51v.48c0,2.54-2.06,4.59-4.59,4.59h-3.32c-2.54,0-4.59-2.06-4.59-4.59v-.48h0Z" transform="translate(149.62 -405.87) rotate(27.2)"/>
    </g>
    <line class="cls-2" x1="916.45" y1="58.89" x2="910.89" y2="49.67"/>
    <line class="cls-2" x1="908.23" y1="72.65" x2="897.47" y2="72.12"/>
    <line class="cls-2" x1="950.22" y1="76.24" x2="960.96" y2="75.39"/>
    <line class="cls-2" x1="943.82" y1="90.94" x2="950.52" y2="99.37"/>
    <line class="cls-2" x1="939.06" y1="57.19" x2="943.47" y2="48.6"/>
  </g>
  <g>
    <polygon class="cls-12" points="1116.54 399.84 1158.02 415.73 1171.14 380.27 1130.86 363.26 1116.54 399.84"/>
    <polygon class="cls-4" points="1120.66 398.02 1132.63 367.45 1167.11 382.02 1156.16 411.61 1120.66 398.02"/>
    <polygon class="cls-5" points="1121.69 372.05 1137.08 397.41 1176.99 369.53 1169.83 360.01 1139.42 382.4 1130.1 367.62 1121.69 372.05"/>
  </g>
</svg>