<?xml version="1.0" encoding="UTF-8"?>
<svg id="Layer_1" data-name="Layer 1" xmlns="http://www.w3.org/2000/svg" xmlns:xlink="http://www.w3.org/1999/xlink" viewBox="0 0 1600 1200">
  <defs>
    <style>
      .cls-1 {
        fill: none;
      }

      .cls-2 {
        clip-path: url(#clippath);
      }

      .cls-3 {
        fill: #fff;
      }

      .cls-4 {
        fill: #91b5fc;
      }

      .cls-5 {
        fill: #3282f7;
      }

      .cls-6 {
        fill: #1a1a1a;
      }

      .cls-7 {
        fill: #4558ef;
      }

      .cls-8 {
        fill: gray;
      }

      .cls-9 {
        fill: url(#_未命名的渐变_10);
      }

      .cls-10 {
        fill: url(#radial-gradient);
      }
    </style>
    <clipPath id="clippath">
      <rect class="cls-1" x="-64.62" y="522.57" width="1714.52" height="583.52"/>
    </clipPath>
    <radialGradient id="radial-gradient" cx="665.45" cy="1414.63" fx="665.45" fy="1414.63" r="795.43" gradientTransform="translate(105.56 775.34) scale(1.05 .23)" gradientUnits="userSpaceOnUse">
      <stop offset=".41" stop-color="#ebebf2"/>
      <stop offset="1" stop-color="#ebebf2" stop-opacity="0"/>
    </radialGradient>
    <linearGradient id="_未命名的渐变_10" data-name="未命名的渐变 10" x1="1302.13" y1="808.61" x2="1315.01" y2="768.63" gradientTransform="translate(414.96 1589.26) rotate(-24.82) scale(1 -1)" gradientUnits="userSpaceOnUse">
      <stop offset=".53" stop-color="#1255f5" stop-opacity="0"/>
      <stop offset=".84" stop-color="#c9d8fd"/>
    </linearGradient>
  </defs>
  <g class="cls-2">
    <ellipse class="cls-10" cx="806.31" cy="1100.07" rx="843.58" ry="184.48"/>
  </g>
  <g>
    <path class="cls-6" d="M1012.07,659.97c-.85,0-1.59-.48-1.87-1.21-2.19-5.48-2.75-11.27-1.62-16.74,1.14-5.54,3.94-10.35,8.09-13.91,5.11-4.4,12.54-6.92,20.38-6.92,.24,0,.47,0,.71,0,4.67,.11,9.33,1.04,13.47,2.71,3.65,1.44,7.01,3.41,10,5.85,3.39-6.44,10.76-16.78,25.06-22.8,6.68-2.81,13.83-4.24,21.27-4.24,3.24,0,6.58,.27,9.93,.81,6.57,1.06,11.63,2.9,14.42,4.09,6.01-5.83,14.33-9.16,22.98-9.16,1.88,0,3.76,.16,5.6,.47,12.21,2.09,22,11.01,24.55,22.29,4.97,2.12,9.05,5.26,11.83,9.11,3.13,4.33,4.67,9.57,4.45,15.16-.21,5.48-2.1,11.06-5.46,16.13-.36,.55-1.01,.88-1.73,.88,0,0-182.06-2.53-182.06-2.53Zm180.9-1.14c5.6-9.06,5.82-19.17,.52-26.5-2.53-3.51-6.35-6.34-11.04-8.17-.62-.24-1.05-.74-1.18-1.34-1.93-10.28-10.58-18.44-21.54-20.32-1.59-.27-3.21-.41-4.83-.41-8,0-15.64,3.26-20.95,8.95-.38,.41-.94,.64-1.54,.64h-.18c-.14,0-.28-.02-.41-.07l-.26-.09c-2.65-1.25-11.9-5.18-23.89-5.18-6.89,0-13.5,1.32-19.65,3.91-15.36,6.47-22.07,18.48-24.24,23.34-.3,.68-1.03,1.13-1.87,1.13-.08,0-.28,0-.36-.03l-.17-.04c-.38-.1-.69-.27-.94-.5-6.04-5.76-14.34-9.15-22.76-9.32-.23,0-.45,0-.67,0-6.87,0-13.1,2.1-17.54,5.92-6.87,5.91-9.19,16.1-5.9,25.59l179.41,2.49Z"/>
    <path class="cls-6" d="M660.42,890.84c-.76-.01-1.41-.42-1.66-1.05-2.88-7.07-3.62-14.53-2.13-21.57,1.5-7.1,5.15-13.27,10.55-17.83,6.67-5.63,16.38-8.86,26.62-8.86,.31,0,.62,0,.93,0,6.12,.14,12.23,1.34,17.66,3.48,5.17,2,9.89,4.79,14.04,8.29,3.7-7.19,13.48-22.22,33.6-30.54,8.81-3.64,18.25-5.49,28.05-5.49,4.28,0,8.69,.36,13.11,1.06,9.33,1.48,16.49,4.2,19.65,5.56,7.89-7.77,18.97-12.21,30.51-12.21,2.45,0,4.91,.21,7.31,.61,16.13,2.72,29.01,14.34,32.21,29.02,6.68,2.72,12.15,6.8,15.85,11.83,4.08,5.55,6.09,12.27,5.81,19.44-.28,7.06-2.76,14.25-7.18,20.79-.32,.48-.89,.76-1.52,.77h0l-243.41-3.31Zm242.38,.09c7.91-12.26,8.28-26.02,.93-36.01-3.48-4.74-8.72-8.55-15.16-11.01-.56-.22-.96-.67-1.05-1.21-2.63-13.78-14.5-24.74-29.52-27.26-2.18-.37-4.41-.55-6.63-.55-10.97,0-21.43,4.38-28.7,12.03-.34,.36-.84,.56-1.37,.56-.29,0-.58-.06-.83-.18-3.46-1.6-16-6.83-32.23-6.83-9.34,0-18.31,1.75-26.67,5.21-20.83,8.61-29.92,24.58-32.86,31.04-.28,.6-.93,.99-1.67,.99-.06,0-.22,0-.28-.02l-.17-.03c-.36-.09-.64-.24-.86-.45-8.23-7.7-19.55-12.24-31.06-12.46-.31,0-.61,0-.92,0-9.42,0-17.98,2.84-24.08,7.99-9.58,8.08-12.72,22.05-7.92,34.94l241.07,3.28Z"/>
    <g>
      <g>
        <path class="cls-6" d="M625.99,614.4c-1.99-.22-3.94-.45-5.87-.68-.31-.04-.59-.19-.78-.44s-.28-.55-.24-.86c.07-.59,.57-1.03,1.16-1.03h.14c1.92,.24,3.86,.47,5.82,.68,.31,.03,.59,.19,.78,.43,.2,.24,.28,.55,.25,.86-.07,.59-.57,1.04-1.16,1.04h-.1Zm-11.71-1.43c-1.97-.26-3.93-.53-5.84-.81-.31-.05-.58-.21-.77-.46-.19-.25-.27-.56-.22-.87,.08-.57,.58-1,1.16-1h.16c1.91,.29,3.86,.56,5.81,.81,.31,.04,.58,.2,.77,.45,.19,.25,.27,.56,.23,.87-.08,.58-.58,1.02-1.16,1.02h-.15Zm-11.66-1.69c-1.94-.3-3.89-.62-5.81-.94-.31-.05-.58-.22-.76-.48-.18-.26-.25-.56-.2-.87,.09-.56,.58-.98,1.15-.98h.06l.14,.02c1.91,.32,3.85,.64,5.78,.94,.64,.1,1.07,.7,.98,1.34-.09,.57-.58,.99-1.16,.99h-.18Zm-11.47-1.96l-.15-.02c-1.94-.35-3.89-.72-5.79-1.09-.31-.06-.57-.24-.75-.5-.17-.26-.24-.57-.18-.88,.1-.54,.59-.94,1.15-.94h.07l.16,.02c1.89,.37,3.83,.74,5.76,1.09,.31,.06,.58,.23,.75,.48,.18,.26,.25,.57,.19,.88-.1,.55-.58,.96-1.15,.96h-.06Zm-11.54-2.26l-.17-.02c-1.93-.4-3.86-.83-5.77-1.25-.63-.14-1.03-.77-.88-1.4,.12-.53,.6-.91,1.14-.91h.08l.18,.03c1.89,.43,3.82,.84,5.73,1.24,.31,.07,.57,.24,.74,.5,.17,.26,.23,.58,.16,.88-.11,.54-.59,.93-1.14,.93h-.07Zm-11.48-2.57l-.19-.03c-1.92-.46-3.84-.94-5.72-1.42-.3-.08-.56-.27-.71-.54-.16-.27-.21-.58-.13-.89,.13-.52,.6-.88,1.13-.88h.09l.2,.04c1.86,.48,3.78,.95,5.68,1.41,.63,.15,1.02,.79,.86,1.41-.13,.53-.59,.9-1.14,.9h-.08Zm-11.39-2.92l-.22-.04c-1.89-.52-3.8-1.06-5.67-1.6-.62-.18-.98-.83-.8-1.45,.15-.5,.61-.84,1.12-.84,.11,0,.22,.02,.33,.05,1.85,.54,3.74,1.07,5.63,1.59,.62,.17,.99,.82,.82,1.44-.14,.51-.6,.86-1.13,.86h-.09Zm-11.19-3.28c-.11,0-.23-.02-.34-.05-1.88-.58-3.77-1.19-5.62-1.8-.3-.1-.54-.31-.68-.58s-.16-.6-.07-.89c.16-.48,.6-.8,1.11-.8,.12,0,.25,.02,.37,.06,1.83,.6,3.71,1.2,5.57,1.78,.3,.09,.54,.29,.69,.57,.15,.28,.17,.59,.08,.89-.15,.49-.6,.83-1.12,.83Zm-11.16-3.68c-.13,0-.26-.02-.39-.07-1.86-.65-3.73-1.33-5.55-2-.6-.23-.91-.9-.69-1.5,.17-.46,.61-.76,1.1-.76,.14,0,.28,.02,.41,.07,1.8,.67,3.66,1.34,5.5,1.99,.61,.21,.93,.88,.72,1.49-.16,.47-.61,.78-1.1,.78Zm-11.01-4.1c-.15,0-.3-.03-.44-.08-1.83-.72-3.67-1.47-5.46-2.23-.59-.25-.87-.94-.62-1.53,.18-.44,.61-.72,1.08-.72,.16,0,.31,.03,.45,.09,1.78,.75,3.6,1.49,5.41,2.21,.29,.12,.52,.34,.64,.62s.13,.6,.01,.9c-.18,.45-.6,.74-1.09,.74Zm-10.83-4.56c-.17,0-.33-.03-.48-.1-1.8-.81-3.61-1.64-5.36-2.47-.58-.28-.83-.98-.56-1.56,.19-.41,.61-.67,1.06-.67,.18,0,.34,.04,.5,.11,1.73,.82,3.52,1.65,5.31,2.45,.28,.13,.5,.36,.62,.65s.1,.61-.02,.89c-.19,.42-.61,.69-1.07,.69Zm-10.61-5.04c-.18,0-.36-.04-.53-.13-1.76-.89-3.52-1.81-5.23-2.73-.27-.15-.48-.39-.57-.69s-.06-.62,.09-.89c.2-.38,.6-.62,1.03-.62,.19,0,.38,.05,.55,.14,1.7,.91,3.44,1.82,5.18,2.7,.28,.14,.49,.38,.58,.68,.1,.3,.07,.61-.07,.89-.2,.39-.6,.64-1.04,.64Zm-10.35-5.56c-.2,0-.4-.05-.58-.15-1.71-.98-3.42-1.99-5.09-3-.27-.16-.45-.42-.53-.72-.07-.3-.02-.62,.14-.89,.21-.35,.59-.56,1-.56,.21,0,.42,.06,.61,.17,1.65,1,3.34,2,5.03,2.97,.27,.15,.47,.41,.55,.71s.04,.62-.11,.89c-.21,.36-.6,.59-1.02,.59Zm-10.03-6.11c-.23,0-.45-.07-.64-.19-1.65-1.07-3.3-2.18-4.91-3.29-.26-.18-.43-.44-.48-.75-.06-.31,.01-.62,.19-.88,.22-.32,.58-.5,.96-.5,.24,0,.47,.07,.66,.21,1.58,1.1,3.22,2.19,4.85,3.25,.54,.35,.7,1.08,.35,1.62-.22,.33-.58,.53-.98,.53Zm-9.66-6.68c-.25,0-.49-.08-.69-.23-1.6-1.18-3.17-2.39-4.7-3.59-.51-.4-.59-1.14-.19-1.64,.22-.28,.56-.44,.92-.44,.26,0,.52,.09,.72,.25,1.51,1.19,3.07,2.39,4.64,3.54,.25,.19,.41,.46,.46,.77,.05,.31-.03,.62-.22,.87-.22,.3-.57,.47-.94,.47Zm-9.21-7.28c-.28,0-.54-.1-.75-.28-1.51-1.28-3.01-2.59-4.45-3.9-.48-.44-.51-1.18-.08-1.65,.22-.24,.54-.38,.87-.38,.29,0,.57,.11,.79,.31,1.42,1.3,2.9,2.59,4.38,3.84,.24,.2,.38,.49,.41,.8,.03,.31-.07,.62-.27,.85-.22,.26-.55,.41-.89,.41Zm-8.69-7.9c-.31,0-.6-.12-.82-.33-1.41-1.38-2.81-2.8-4.15-4.21-.21-.23-.33-.52-.32-.84s.14-.6,.36-.82c.22-.21,.5-.32,.81-.32,.32,0,.63,.13,.85,.37,1.33,1.4,2.7,2.79,4.09,4.15,.46,.45,.47,1.19,.02,1.65-.22,.22-.52,.35-.84,.35Zm-8.08-8.52c-.34,0-.66-.14-.88-.4-1.3-1.48-2.58-3-3.81-4.53-.41-.5-.33-1.24,.17-1.65,.21-.17,.47-.26,.74-.26,.36,0,.69,.16,.91,.44,1.21,1.5,2.47,2.99,3.75,4.45,.42,.48,.38,1.22-.11,1.65-.22,.19-.49,.29-.77,.29Zm-7.38-9.13c-.37,0-.72-.18-.94-.47-1.17-1.58-2.33-3.2-3.43-4.82-.36-.53-.22-1.26,.31-1.62,.2-.13,.42-.2,.66-.2,.39,0,.75,.19,.97,.51,1.09,1.6,2.22,3.19,3.37,4.74,.38,.52,.28,1.25-.24,1.64-.21,.15-.45,.23-.7,.23Zm-6.6-9.71c-.41,0-.78-.21-1-.55-1.03-1.67-2.04-3.38-3.01-5.1-.15-.27-.19-.59-.11-.89s.28-.55,.55-.7c.18-.1,.37-.15,.57-.15,.42,0,.81,.23,1.02,.6,.95,1.69,1.94,3.38,2.96,5.01,.34,.55,.17,1.27-.38,1.61-.19,.11-.4,.18-.62,.18Zm-5.74-10.24c-.44,0-.84-.25-1.04-.64-.88-1.75-1.74-3.55-2.55-5.35-.26-.59,0-1.28,.59-1.55,.15-.07,.31-.1,.48-.1,.46,0,.88,.27,1.07,.69,.79,1.76,1.63,3.53,2.5,5.25,.14,.28,.16,.6,.07,.89s-.3,.54-.58,.68c-.17,.08-.35,.13-.53,.13Zm-4.82-10.71c-.48,0-.91-.29-1.09-.74-.73-1.83-1.42-3.69-2.07-5.55-.1-.29-.08-.61,.05-.89,.14-.28,.37-.49,.67-.6,.12-.04,.25-.06,.38-.06,.5,0,.94,.32,1.11,.79,.63,1.82,1.31,3.66,2.03,5.45,.24,.6-.06,1.28-.65,1.52-.14,.06-.29,.08-.43,.08Zm-3.85-11.09c-.51,0-.97-.34-1.12-.84-.56-1.87-1.08-3.79-1.56-5.69-.08-.3-.03-.62,.13-.89,.16-.27,.42-.46,.72-.53l.08-.02h.2c.54-.01,1.01,.35,1.14,.87,.47,1.86,.98,3.74,1.54,5.6,.09,.3,.06,.62-.09,.89-.15,.28-.4,.47-.69,.56-.11,.03-.22,.05-.33,.05Zm-2.85-11.36c-.55,0-1.03-.39-1.15-.94-.39-1.91-.75-3.87-1.07-5.82-.05-.31,.02-.62,.21-.87,.18-.25,.45-.42,.76-.47l.19-.02c.58,0,1.06,.41,1.15,.98,.31,1.91,.66,3.84,1.05,5.72,.13,.63-.28,1.25-.91,1.38h-.07s-.17,.02-.17,.02Zm-1.87-11.58c-.59,0-1.09-.44-1.16-1.03-.23-1.96-.42-3.94-.57-5.9-.05-.64,.43-1.21,1.08-1.26h0c.69,0,1.2,.47,1.25,1.08,.15,1.93,.34,3.88,.57,5.8,.07,.64-.39,1.22-1.03,1.3h-.14Zm-.9-11.71c-.63,0-1.15-.5-1.17-1.13-.07-1.81-.1-3.64-.1-5.45v-.48c0-.65,.53-1.17,1.17-1.17,.31,0,.61,.12,.83,.34,.22,.22,.34,.52,.34,.83v.47c0,1.79,.03,3.59,.1,5.37,.02,.64-.48,1.19-1.13,1.21h-.04Zm-.05-11.76c-.27,0-.56-.14-.77-.37-.21-.23-.32-.53-.31-.84,.08-1.96,.2-3.95,.36-5.92,.05-.61,.55-1.08,1.17-1.08,.73,.05,1.22,.62,1.17,1.26-.15,1.96-.27,3.93-.35,5.83-.03,.63-.54,1.12-1.17,1.12h-.09Zm.86-11.73c-.29-.03-.57-.19-.77-.43-.19-.25-.28-.55-.25-.86,.22-1.93,.49-3.9,.78-5.86,.08-.57,.58-1,1.15-1h.18c.31,.06,.58,.23,.76,.48,.18,.25,.26,.56,.21,.87-.29,1.92-.55,3.87-.77,5.78-.07,.59-.57,1.03-1.16,1.03h-.15Zm1.84-11.61l-.16-.02c-.63-.12-1.05-.73-.93-1.36,.36-1.92,.76-3.86,1.18-5.79,.12-.54,.59-.92,1.14-.92h.08l.18,.03c.63,.14,1.03,.77,.89,1.39-.42,1.92-.82,3.84-1.17,5.72-.1,.55-.59,.96-1.15,.96h-.07Zm2.52-11.47l-.21-.04c-.62-.16-1-.8-.84-1.42,.48-1.88,1.01-3.8,1.56-5.7,.14-.5,.61-.84,1.12-.84,.11,0,.22,.02,.33,.05,.3,.09,.55,.28,.7,.56s.19,.59,.1,.89c-.54,1.86-1.06,3.76-1.54,5.63-.13,.52-.6,.88-1.13,.88h-.09Zm3.35-11.29c-.12,0-.24-.02-.36-.06-.3-.1-.54-.3-.69-.58-.14-.28-.17-.59-.07-.89,.6-1.85,1.24-3.74,1.9-5.6,.17-.47,.61-.78,1.1-.78,.13,0,.27,.02,.39,.07,.29,.1,.53,.32,.66,.6,.13,.28,.15,.6,.05,.89-.66,1.84-1.29,3.7-1.88,5.53-.15,.48-.6,.81-1.11,.81Zm3.94-11.07c-.14,0-.29-.03-.42-.08-.6-.24-.9-.91-.67-1.51,.71-1.83,1.46-3.67,2.22-5.48,.18-.44,.61-.72,1.08-.72,.16,0,.31,.03,.46,.09,.29,.12,.51,.35,.63,.64,.12,.29,.12,.61,0,.9-.75,1.79-1.49,3.61-2.2,5.41-.17,.45-.6,.75-1.09,.75Zm4.57-10.83c-.17,0-.33-.04-.48-.1-.28-.13-.5-.36-.61-.66-.11-.29-.1-.61,.03-.9,.81-1.78,1.66-3.58,2.52-5.34,.19-.4,.61-.66,1.05-.66,.18,0,.35,.04,.51,.12,.58,.28,.82,.98,.54,1.56-.85,1.75-1.69,3.53-2.49,5.29-.19,.42-.61,.68-1.07,.68Zm5.15-10.56c-.19,0-.37-.05-.54-.13-.28-.14-.48-.39-.57-.69-.09-.3-.07-.61,.08-.89,.9-1.73,1.84-3.48,2.8-5.2,.21-.37,.6-.6,1.02-.6,.2,0,.39,.05,.57,.15,.27,.15,.47,.4,.56,.7,.09,.3,.05,.62-.1,.89-.94,1.7-1.87,3.43-2.77,5.15-.2,.39-.6,.63-1.04,.63Zm5.7-10.28c-.21,0-.41-.06-.59-.16-.55-.33-.74-1.04-.42-1.6,.99-1.68,2.02-3.38,3.06-5.05,.22-.35,.59-.55,.99-.55,.22,0,.43,.06,.62,.18,.55,.34,.72,1.06,.38,1.61-1.03,1.66-2.05,3.34-3.03,5-.21,.36-.6,.58-1.01,.58Zm6.21-9.98c-.23,0-.45-.07-.64-.19-.54-.36-.69-1.08-.34-1.62,1.07-1.63,2.18-3.28,3.3-4.9,.22-.32,.58-.5,.96-.5,.24,0,.47,.07,.66,.21,.53,.37,.66,1.1,.3,1.63-1.11,1.6-2.21,3.24-3.27,4.85-.22,.33-.58,.53-.98,.53Zm6.68-9.67c-.25,0-.49-.08-.69-.22-.52-.38-.64-1.11-.26-1.63,1.15-1.58,2.34-3.17,3.53-4.73,.22-.29,.56-.46,.93-.46,.26,0,.5,.08,.71,.24,.51,.39,.61,1.13,.22,1.64-1.18,1.55-2.36,3.13-3.5,4.69-.22,.3-.57,.48-.95,.48Zm7.13-9.34c-.26,0-.52-.09-.73-.26-.24-.19-.4-.47-.43-.78-.03-.31,.05-.62,.25-.86,1.22-1.52,2.48-3.06,3.74-4.56,.22-.27,.55-.42,.9-.42,.28,0,.54,.1,.75,.28,.24,.2,.38,.48,.41,.79s-.07,.61-.27,.85c-1.25,1.49-2.5,3.01-3.71,4.52-.22,.28-.56,.44-.91,.44Zm7.56-9c-.29,0-.56-.1-.77-.29-.23-.2-.37-.49-.39-.8-.02-.31,.08-.61,.29-.85,1.29-1.46,2.62-2.94,3.95-4.39,.22-.24,.53-.38,.86-.38,.29,0,.58,.11,.79,.31,.23,.21,.36,.5,.38,.81s-.1,.61-.31,.84c-1.32,1.43-2.64,2.9-3.91,4.35-.22,.25-.54,.4-.88,.4Zm7.96-8.65c-.3,0-.59-.12-.81-.33-.22-.21-.35-.51-.36-.82,0-.31,.11-.61,.33-.84,1.36-1.41,2.75-2.82,4.14-4.21,.22-.22,.51-.34,.82-.34s.61,.12,.83,.34c.45,.46,.45,1.2,0,1.65-1.38,1.37-2.76,2.78-4.11,4.17-.22,.23-.53,.36-.84,.36Zm8.34-8.28c-.32,0-.63-.13-.85-.36-.45-.47-.43-1.21,.04-1.66,1.42-1.35,2.88-2.7,4.33-4.02,.22-.2,.5-.3,.79-.3,.33,0,.64,.14,.86,.38,.44,.48,.4,1.22-.08,1.66-1.44,1.3-2.88,2.64-4.29,3.98-.22,.21-.5,.32-.81,.32Zm8.72-7.91c-.34,0-.66-.15-.88-.4-.42-.49-.37-1.23,.12-1.65,1.49-1.29,3.01-2.58,4.52-3.83,.21-.17,.47-.27,.75-.27,.35,0,.68,.15,.9,.42,.41,.5,.34,1.24-.15,1.65-1.49,1.24-3,2.52-4.48,3.8-.21,.19-.49,.29-.77,.29Zm9.08-7.53c-.36,0-.69-.16-.92-.44-.4-.51-.32-1.24,.19-1.64,1.54-1.22,3.11-2.44,4.68-3.63,.2-.15,.45-.24,.71-.24,.36,0,.71,.17,.93,.46,.39,.52,.29,1.25-.23,1.64-1.56,1.18-3.12,2.38-4.64,3.59-.21,.16-.46,.25-.73,.25Zm9.4-7.11c-.37,0-.73-.18-.95-.48-.38-.52-.26-1.25,.26-1.63,1.6-1.15,3.22-2.3,4.84-3.41,.2-.13,.42-.21,.66-.21,.38,0,.74,.19,.96,.5,.37,.53,.23,1.26-.3,1.63-1.6,1.1-3.21,2.24-4.79,3.38-.2,.14-.44,.22-.68,.22Zm9.7-6.68c-.4,0-.76-.2-.98-.53-.35-.54-.2-1.27,.34-1.62,1.64-1.07,3.31-2.15,4.98-3.19,.19-.12,.4-.18,.62-.18,.41,0,.78,.21,.99,.55,.34,.55,.17,1.27-.37,1.61-1.65,1.03-3.31,2.09-4.94,3.16-.19,.12-.41,.19-.64,.19Zm9.99-6.23c-.41,0-.8-.22-1.01-.57-.16-.27-.2-.58-.13-.89,.08-.3,.27-.56,.54-.72,1.7-1,3.42-2,5.12-2.95,.18-.1,.37-.15,.57-.15,.42,0,.81,.23,1.02,.6,.15,.27,.19,.59,.11,.89s-.28,.55-.55,.7c-1.69,.95-3.4,1.93-5.08,2.93-.18,.11-.38,.16-.59,.16Zm10.27-5.76c-.43,0-.83-.24-1.03-.62-.3-.57-.08-1.28,.49-1.58,1.74-.92,3.51-1.83,5.25-2.71,.16-.08,.34-.12,.52-.12,.44,0,.85,.25,1.05,.65,.29,.58,.05,1.28-.52,1.57-1.73,.87-3.48,1.77-5.21,2.69-.17,.09-.36,.14-.55,.14Zm10.52-5.27c-.45,0-.87-.26-1.06-.67-.27-.58-.02-1.28,.56-1.56,1.78-.84,3.59-1.67,5.38-2.46,.15-.07,.31-.1,.47-.1,.46,0,.88,.27,1.07,.7,.13,.29,.13,.6,.02,.89-.11,.29-.33,.52-.62,.65-1.77,.78-3.57,1.6-5.33,2.43-.16,.07-.32,.11-.5,.11Zm10.76-4.76c-.47,0-.9-.28-1.08-.72-.25-.6,.04-1.28,.63-1.53,1.81-.75,3.66-1.49,5.49-2.2,.14-.05,.28-.08,.42-.08,.48,0,.92,.3,1.09,.75,.23,.6-.07,1.28-.67,1.51-1.81,.7-3.64,1.43-5.44,2.17-.14,.06-.29,.09-.45,.09Zm10.98-4.24c-.49,0-.93-.31-1.1-.78-.11-.29-.09-.61,.04-.89,.13-.28,.37-.5,.66-.6,1.85-.66,3.73-1.31,5.59-1.92,.12-.04,.24-.06,.37-.06,.5,0,.95,.32,1.11,.8,.1,.3,.08,.62-.07,.89s-.38,.49-.68,.58c-1.84,.61-3.71,1.25-5.54,1.9-.12,.05-.26,.07-.39,.07Zm11.18-3.69c-.52,0-.97-.33-1.12-.83-.09-.3-.06-.62,.09-.89,.15-.28,.39-.48,.69-.57,1.88-.57,3.79-1.12,5.69-1.64l.09-.02,.22-.02c.52,0,.99,.35,1.13,.86,.17,.62-.2,1.27-.82,1.44-1.87,.51-3.77,1.06-5.63,1.62-.12,.03-.23,.05-.34,.05Zm11.35-3.12c-.54,0-1.01-.37-1.14-.89-.08-.3-.03-.62,.13-.88,.16-.27,.42-.46,.72-.53,1.91-.47,3.85-.93,5.76-1.35l.07-.02h.18c.54-.01,1.02,.37,1.14,.91,.14,.63-.26,1.26-.89,1.4-1.89,.42-3.81,.86-5.7,1.33l-.08,.02h-.2Zm11.51-2.51c-.56,0-1.04-.4-1.15-.95-.12-.63,.29-1.25,.93-1.37,1.93-.37,3.9-.72,5.83-1.04h.06s.14-.02,.14-.02c.58,0,1.06,.41,1.15,.98,.05,.31-.02,.62-.2,.87-.18,.25-.45,.42-.76,.47-1.92,.32-3.86,.66-5.77,1.03h-.06s-.16,.02-.16,.02Zm11.63-1.92c-.58,0-1.08-.43-1.16-1.01-.04-.31,.04-.62,.23-.87,.19-.25,.46-.41,.77-.45,1.94-.27,3.91-.51,5.86-.73h.02c.72,0,1.21,.45,1.28,1.03,.07,.64-.39,1.22-1.03,1.29-1.93,.21-3.88,.46-5.8,.72h-.16Zm52.61-.77c-1.93-.21-3.89-.4-5.82-.55-.64-.05-1.12-.62-1.07-1.26,.05-.61,.56-1.08,1.17-1.08,2.04,.16,4.02,.35,5.97,.56,.64,.07,1.11,.65,1.04,1.29-.06,.59-.56,1.04-1.16,1.04h-.13Zm-40.93-.51c-.6,0-1.11-.47-1.16-1.07-.03-.31,.07-.61,.27-.85,.2-.24,.48-.38,.8-.41,1.96-.16,3.94-.3,5.89-.41h0c.68,0,1.2,.48,1.23,1.1,.04,.64-.46,1.2-1.1,1.23-1.93,.11-3.89,.25-5.83,.41h-.1Zm29.27-.44c-1.92-.1-3.89-.18-5.83-.23-.31,0-.6-.14-.82-.36-.21-.23-.33-.52-.32-.83,.02-.63,.54-1.14,1.16-1.14,2,.05,3.99,.13,5.94,.24,.64,.04,1.14,.59,1.11,1.23-.04,.62-.55,1.11-1.17,1.11h-.08Zm-17.54-.22c-.64,0-1.15-.5-1.17-1.14,0-.31,.1-.61,.32-.84,.21-.23,.51-.36,.82-.37,1.96-.06,3.94-.09,5.9-.09,.64,0,1.17,.52,1.17,1.17,0,.31-.12,.61-.34,.83-.22,.22-.51,.34-.83,.34-1.94,0-3.9,.03-5.84,.09h-.03Z"/>
        <path class="cls-6" d="M634.61,615.28c-.99-.09-1.96-.19-2.94-.29-.64-.06-1.11-.64-1.05-1.28,.06-.6,.56-1.05,1.16-1.05,1.08,.1,2.06,.2,3.03,.29,.31,.03,.59,.18,.79,.42,.2,.24,.29,.55,.26,.86-.06,.6-.56,1.06-1.16,1.06h-.1Z"/>
      </g>
      <g>
        <g>
          <path class="cls-3" d="M581.36,365.43c-.34-.7-92.47,24.7-93.1,25.05,.3-.6,19.95-38.84,55.8-48.1,8.09-2.09,17-2.71,26.71-1.08,10.71,1.79,19.8,5.73,27.11,11.08-7.79,1.36-12.38,6.12-16.51,13.05Z"/>
          <path class="cls-3" d="M488.26,390.48h0s0,0,0,0Z"/>
        </g>
        <g>
          <g>
            <path class="cls-6" d="M581.36,365.43c-.34-.7-92.47,24.7-93.1,25.05,.3-.6,19.95-38.84,55.8-48.1,8.09-2.09,17-2.71,26.71-1.08,10.71,1.79,19.8,5.73,27.11,11.08-7.79,1.36-12.38,6.12-16.51,13.05Z"/>
            <path class="cls-6" d="M488.26,390.97c-.12,0-.25-.05-.34-.14-.16-.15-.19-.38-.1-.57,.21-.41,5.16-10.05,14.64-20.9,8.62-9.86,22.81-22.63,41.48-27.45,8.71-2.26,17.76-2.62,26.91-1.09,10.37,1.73,19.56,5.49,27.31,11.16,.16,.12,.23,.32,.19,.51-.04,.19-.2,.34-.39,.37-6.76,1.18-11.45,4.89-16.17,12.82-.09,.15-.26,.25-.44,.24-.03,0-.06,0-.09-.01-3.71,.24-91.74,24.66-92.79,25.02-.06,.03-.13,.04-.2,.04Zm71.56-50.1c-5.3,0-10.53,.66-15.64,1.99-18.43,4.76-32.46,17.39-40.98,27.15-7.74,8.86-12.42,16.89-13.95,19.67,5.58-1.63,28.96-8.07,45.17-12.49,38.14-10.39,45.19-12.03,46.66-12.23,4.58-7.62,9.18-11.42,15.59-12.84-7.44-5.22-16.17-8.69-25.98-10.33-3.64-.61-7.27-.91-10.86-.91Zm21.1,24.79h0Zm0,0h0s0,0,0,0Zm0,0s0,0,0,0c0,0,0,0,0,0Zm0,0s0,0,0,0c0,0,0,0,0,0Zm0,0h0s0,0,0,0Zm0,0s0,0,0,0c0,0,0,0,0,0Z"/>
          </g>
          <path class="cls-6" d="M488.26,390.98c-.13,0-.25-.05-.35-.14-.19-.19-.19-.5,0-.69,.19-.19,.5-.19,.69,0,.19,.19,.19,.5,0,.69h0c-.1,.1-.22,.15-.35,.15Z"/>
        </g>
        <g>
          <path class="cls-6" d="M488.26,390.97c-.12,0-.25-.05-.34-.14-.16-.15-.19-.38-.1-.57,.21-.41,5.16-10.05,14.64-20.9,8.62-9.86,22.81-22.63,41.48-27.45,8.71-2.26,17.76-2.62,26.91-1.09,10.37,1.73,19.56,5.49,27.31,11.16,.16,.12,.23,.32,.19,.51-.04,.19-.2,.34-.39,.37-6.76,1.18-11.45,4.89-16.17,12.82-.09,.15-.26,.25-.44,.24-.03,0-.06,0-.09-.01-3.71,.24-91.74,24.66-92.79,25.02-.06,.03-.13,.04-.2,.04Zm71.56-50.1c-5.3,0-10.53,.66-15.64,1.99-18.43,4.76-32.46,17.39-40.98,27.15-7.74,8.86-12.42,16.89-13.95,19.67,5.58-1.63,28.96-8.07,45.17-12.49,38.14-10.39,45.19-12.03,46.66-12.23,4.58-7.62,9.18-11.42,15.59-12.84-7.44-5.22-16.17-8.69-25.98-10.33-3.64-.61-7.27-.91-10.86-.91Zm21.1,24.79h0Zm0,0h0s0,0,0,0Zm0,0s0,0,0,0c0,0,0,0,0,0Zm0,0s0,0,0,0c0,0,0,0,0,0Zm0,0h0s0,0,0,0Zm0,0s0,0,0,0c0,0,0,0,0,0Z"/>
          <path class="cls-6" d="M488.26,390.98c-.13,0-.25-.05-.35-.14-.19-.19-.19-.5,0-.69,.19-.19,.5-.19,.69,0,.19,.19,.19,.5,0,.69h0c-.1,.1-.22,.15-.35,.15Z"/>
        </g>
      </g>
      <g>
        <path class="cls-3" d="M911.8,706.1c-34.59,0-62.44-10.26-80.54-29.66-34.16-35.87-71.63-53.3-114.55-53.3-15.71,0-29.93,2.16-42.48,4.06-9.7,1.47-18.07,2.74-25.24,2.74h0c-10.31,0-16.71-2.71-20.78-8.78-13.17-19.68,.87-38.36,14.45-56.42,10.43-13.87,20.27-26.97,18.33-40.18-1.12-7.63-6.11-14.61-15.25-21.34-7.55-5.56-13.94-8.27-19.54-8.27-.3,0-.59,0-.88,.02l-.37-1.27,46.2-25.94,69.11-35.68,.09-.02c1.11-.22,2.27-.33,3.44-.33,5.89,0,12.55,2.79,20.34,8.53,8.13,5.99,12.57,12.65,13.55,20.37,2.16,16.97-13.42,36.11-28.49,54.62-18.19,22.34-37,45.45-24.33,64.39,3.23,4.82,8.2,7.07,15.64,7.07,10.27,0,24.65-4.28,42.85-9.69,16.34-4.86,36.68-10.91,60.29-15.65,14.54-2.92,27-4.34,38.1-4.34,36.17,0,51.85,15.14,71.71,34.32,12.06,11.64,25.72,24.84,46.48,36.69,10.33,7.16,18.04,10.33,25.05,10.33h0c7.9,0,14.74-3.99,24.19-9.5,2.09-1.22,4.3-2.51,6.67-3.84l1.9-1.07-.95,1.96c-15.84,32.57-29.88,51.09-44.21,58.28-36.31,14.34-71.14,21.9-100.78,21.9Z"/>
        <path class="cls-6" d="M911.71,706.58c-1.8,0-3.58-.03-5.35-.08-15.86-.5-30.24-3.2-42.77-8.04-12.93-5-23.93-12.3-32.7-21.7-34.03-35.73-71.48-53.1-114.48-53.1-15.66,0-29.71,2.13-42.1,4.01-9.77,1.48-18.21,2.76-25.41,2.76-10.43,0-16.94-2.78-21.11-9.01-13.36-19.97,.79-38.79,14.47-56.99,10.36-13.79,20.15-26.8,18.24-39.82-1.1-7.49-6.02-14.36-15.05-21.02-7.47-5.5-13.76-8.17-19.25-8.17-.28,0-.57,0-.85,.02h0c-.58,0-1.03-.34-1.18-.84-.15-.53,.07-1.08,.55-1.35l46.19-25.94,69.04-35.65c.1-.05,.2-.09,.31-.11,1.13-.22,2.31-.34,3.51-.34,6.02,0,12.77,2.82,20.65,8.62,8.25,6.07,12.74,12.85,13.74,20.71,2.18,17.18-13.46,36.4-28.6,54.99-18.08,22.21-36.77,45.17-24.3,63.8,3.14,4.69,7.98,6.87,15.23,6.87,10.13,0,24.51-4.27,42.71-9.69,16.35-4.86,36.7-10.91,60.33-15.66,14.52-2.92,26.99-4.33,38.12-4.33,12.15,0,22.59,1.7,31.9,5.19,16.24,6.09,27.36,16.83,40.23,29.25,12.04,11.63,25.68,24.8,46.39,36.61,10.24,7.09,17.88,10.24,24.81,10.24,7.81,0,14.58-3.95,23.95-9.42,2.11-1.23,4.3-2.51,6.67-3.84,.17-.1,.37-.15,.57-.15,.3,0,.58,.11,.8,.32,.38,.36,.48,.9,.25,1.37-15.88,32.67-30,51.26-44.43,58.5-36.39,14.37-71.33,21.96-101.09,21.96Zm-195-85.3c9.89,0,19.11,.84,28.19,2.55,31.86,6.03,60.55,22.82,87.7,51.33,17.02,18.24,41.86,28,73.84,29,1.74,.05,3.5,.08,5.28,.08,29.46,0,64.09-7.52,100.13-21.75,13.38-6.72,26.64-23.9,41.6-53.97-1.14,.66-2.24,1.3-3.33,1.94-9.75,5.69-16.79,9.8-25.14,9.8-7.37,0-15.4-3.29-26.05-10.67-20.88-11.91-34.63-25.19-46.77-36.91-19.58-18.9-35.04-33.83-70.26-33.83-10.99,0-23.38,1.42-37.9,4.33-23.51,4.72-43.8,10.75-60.1,15.6-18.41,5.48-32.95,9.8-43.45,9.8-8.07,0-13.51-2.52-17.12-7.92-13.43-20.07,5.82-43.72,24.43-66.58,14.82-18.21,30.15-37.03,28.09-53.22-.91-7.19-5.1-13.44-12.81-19.12-7.46-5.5-13.76-8.17-19.26-8.17-.99,0-1.96,.09-2.9,.26l-68.85,35.55-42.66,23.95c5.19,.8,10.93,3.56,17.47,8.38,9.56,7.04,14.79,14.42,15.98,22.56,2.05,13.98-8.02,27.38-18.69,41.56-13.19,17.55-26.83,35.69-14.39,54.28,3.69,5.51,9.61,7.97,19.22,7.97,7.01,0,15.34-1.26,25-2.73,12.61-1.91,26.9-4.08,42.76-4.08Z"/>
      </g>
      <g>
        <path class="cls-4" d="M653.49,492.38l88.61-52.17s37.58,14.62,26.52,39.08c-40.13,24.77-95.6,49.55-95.6,49.55,0,0-4.06-31.22-19.52-36.46Z"/>
        <path class="cls-6" d="M673.01,529.33c-.08,0-.16-.02-.24-.06-.13-.08-.23-.21-.25-.36-.04-.31-4.2-30.98-19.19-36.06-.18-.06-.31-.22-.33-.41-.02-.19,.07-.37,.24-.47l88.61-52.17c.13-.08,.29-.09,.43-.03,.87,.34,21.42,8.47,27.32,22.94,2.22,5.44,2.04,11.1-.54,16.8-.04,.09-.11,.16-.19,.21-39.69,24.51-95.11,49.33-95.66,49.58-.06,.03-.13,.04-.2,.04Zm-18.39-37.04c13.75,5.74,18.11,31.29,18.79,35.84,6.09-2.75,57.41-26.09,94.83-49.17,2.4-5.4,2.56-10.75,.46-15.89-5.43-13.3-24.31-21.39-26.55-22.31l-87.52,51.53Z"/>
      </g>
      <g>
        <path class="cls-3" d="M708.95,373.64c-52.67,27.43-66.04,76.97-37.46,94.72l-46.19,25.94c-17.74,.92-23.4,28.73-39.9,38.43-5.34,3.14-11.81,4.39-20.2,2.21-42.39-10.99-32.45-68.91,26.17-99.44,36.44-18.99,35.38-62,6.5-83.12-7.31-5.34-16.4-9.29-27.11-11.08-9.71-1.63-18.62-1.01-26.71,1.08l101.65-55.47,.21-.12c11.75-6.42,25.96-10.12,42.44-7.36,53.05,8.89,66.27,70.41,20.6,94.2Z"/>
        <path class="cls-6" d="M573.22,537.2c-2.62,0-5.42-.38-8.32-1.13-15.52-4.02-24.97-14.26-26.63-28.83-1.33-11.69,2.71-25.11,11.38-37.79,9.42-13.77,23.66-25.87,41.17-34.99,15.97-8.32,25.82-22.29,27.03-38.34,1.24-16.42-6.49-32.43-20.68-42.8-7.55-5.52-16.5-9.18-26.61-10.87-3.59-.6-7.2-.9-10.75-.9-5.23,0-10.44,.66-15.47,1.97l-.08,.02-.21,.02c-.48,0-.91-.29-1.09-.74-.22-.55,0-1.17,.53-1.46l101.85-55.58c10.24-5.59,21.03-8.43,32.06-8.43,3.67,0,7.41,.32,11.14,.94,25.98,4.35,45.13,22.07,48.78,45.13,1.56,9.86,.03,19.72-4.43,28.49-4.7,9.23-12.57,16.98-22.8,22.44l-.6,.32c-30.41,15.84-50.63,41.24-51.51,64.73-.46,12.09,4.56,22.02,14.13,27.96,.35,.22,.56,.61,.55,1.02,0,.41-.24,.79-.6,.99l-46.2,25.94c-.16,.09-.33,.14-.51,.15-9.48,.49-15.46,9.38-21.8,18.79-5.01,7.44-10.2,15.14-17.57,19.48-3.96,2.33-8.14,3.47-12.77,3.47Zm-13.39-197.99c3.67,0,7.42,.31,11.13,.94,10.47,1.75,19.76,5.55,27.6,11.29,14.85,10.86,22.94,27.63,21.63,44.87-1.28,16.87-11.59,31.53-28.29,40.23-17.17,8.94-31.11,20.78-40.32,34.23-8.35,12.21-12.26,25.06-10.99,36.2,1.54,13.54,10.38,23.07,24.89,26.83,2.7,.7,5.3,1.05,7.72,1.05,4.21,0,8-1.03,11.59-3.14,6.91-4.07,11.94-11.54,16.81-18.77,6.62-9.83,12.87-19.11,23.34-19.81l44.29-24.87c-9.24-6.49-14.07-16.73-13.6-28.96,.92-24.31,21.63-50.49,52.77-66.71,19.56-10.19,29.76-28.89,26.6-48.81-3.49-22.06-21.89-39.01-46.86-43.19-3.59-.6-7.21-.91-10.75-.91-10.64,0-21.05,2.74-30.94,8.14l-95.21,51.96c2.83-.38,5.69-.57,8.56-.57Z"/>
      </g>
      <g>
        <path class="cls-4" d="M629.91,405.67c42.57-22.24,100.55-63.85,100.55-63.85,0,0,3.72-36.99-26.98-45.13-36.52,17.68-92.81,50.68-92.81,50.68,0,0,31.34,23.09,19.24,58.3Z"/>
        <path class="cls-6" d="M629.91,406.16c-.11,0-.23-.04-.32-.12-.15-.13-.21-.34-.14-.53,6.18-17.99,.68-32.72-5.02-41.91-6.2-9.99-13.97-15.78-14.05-15.84-.13-.1-.21-.26-.2-.42,0-.16,.1-.31,.24-.4,.56-.33,56.73-33.21,92.85-50.7,.11-.05,.23-.06,.34-.03,16.08,4.26,22.66,16.47,25.35,25.96,2.9,10.24,2,19.6,1.99,19.69-.01,.14-.09,.27-.2,.35-.58,.42-58.5,41.89-100.61,63.89-.07,.04-.15,.06-.23,.06Zm-18.37-58.73c1.94,1.56,8.39,7.08,13.7,15.63,5.7,9.17,11.21,23.77,5.51,41.62,40.76-21.48,95.63-60.55,99.24-63.12,.11-1.45,.62-9.94-1.99-19.14-3.79-13.36-12.03-21.84-24.48-25.2-34.03,16.49-85.73,46.57-91.99,50.22Z"/>
      </g>
      <g>
        <path class="cls-6" d="M646.15,502.67l-60.75,30.06c16.5-9.71,22.16-37.51,39.9-38.43,5.54-.29,12.26,2.05,20.85,8.37Z"/>
        <path class="cls-6" d="M585.39,533.22c-.17,0-.34-.09-.43-.26-.13-.23-.04-.52,.18-.65,7.04-4.14,12.12-11.68,17.03-18.98,6.58-9.76,12.79-18.99,23.09-19.52,6.07-.32,13,2.45,21.17,8.47,.14,.1,.21,.27,.2,.44s-.12,.32-.27,.4l-60.75,30.06c-.07,.03-.14,.05-.22,.05Zm40.82-38.46c-.3,0-.6,0-.89,.02-9.82,.51-15.89,9.54-22.33,19.09-3.84,5.71-7.78,11.56-12.72,15.89l54.93-27.18c-7.3-5.26-13.53-7.83-18.99-7.83Z"/>
      </g>
      <g>
        <g>
          <path class="cls-6" d="M837.57,605.5c-.47,.52-8.95-3.01-15.02,4.44-6.08,7.45,8.62,56.76,17.05,56.15,8.43-.61,8.21-23.65,8.33-37.09,.12-13.44-10.36-23.5-10.36-23.5Z"/>
          <path class="cls-6" d="M839.44,667.26c-2.52,0-5.19-2.78-8.15-8.49-6.59-12.67-15.04-42.97-9.65-49.58,2.85-3.49,6.58-5.26,11.1-5.26,1.53,0,2.86,.2,3.74,.34,.27,.04,.56,.09,.75,.1,.09-.03,.19-.04,.28-.05h0c.35,0,.64,.12,.86,.32,.11,.11,10.84,10.6,10.72,24.36l-.02,1.86c-.12,15.08-.28,35.73-9.4,36.39-.07,0-.16,0-.24,0Zm-6.65-60.98c-3.82,0-6.96,1.48-9.33,4.4-3.73,4.58,2.01,31.83,9.91,47.02,3.49,6.71,5.52,7.23,6.06,7.23,7.06-.51,7.23-22.34,7.32-34.07l.02-1.86c.1-11.41-8.01-20.57-9.64-22.28-.31-.02-.62-.07-.99-.12-.84-.13-1.99-.31-3.34-.31Z"/>
        </g>
        <g>
          <path class="cls-3" d="M851.05,600.15l-6.61,19.42s-11.12-3.4-11.15-13.34c5.56-14.06,5.83-15.23,5.83-15.23,0,0,11.14,3.73,11.92,9.16Z"/>
          <path class="cls-6" d="M844.44,620.73c-.12,0-.23-.02-.34-.05-.12-.04-11.95-3.72-11.98-14.46,0-.15,.03-.3,.09-.44,5.26-13.3,5.77-15.02,5.78-15.09,.07-.29,.27-.57,.56-.73,.18-.1,.37-.15,.57-.15,.13,0,.25,.02,.37,.06,1.21,.41,11.85,4.13,12.71,10.1,.03,.18,0,.37-.05,.54l-6.61,19.42c-.16,.47-.61,.79-1.11,.79Zm-9.98-14.3c.15,7.08,6.77,10.55,9.26,11.61l6.12-17.99c-.81-3.63-7.51-6.57-10-7.55-.59,1.63-2,5.38-5.38,13.93Z"/>
        </g>
        <g>
          <path class="cls-7" d="M815.57,404.77s107.32,35.28,103.84,73.04c-3.48,37.76-67.07,139.11-67.07,139.11-7.43-.63-13.84-8.06-19.38-21.36,0,0,37.77-99.86,31.31-120.73-6.46-20.87-80.98-49.68-80.98-49.68l32.29-20.37Z"/>
          <path class="cls-6" d="M852.23,618.08c-7.67-.65-14.52-8.08-20.35-22.08-.12-.27-.12-.58-.02-.86,.09-.25,9.61-25.52,18.15-52.87,11.14-35.65,15.68-58.86,13.13-67.11-6.23-20.12-79.55-48.65-80.29-48.94-.41-.16-.7-.53-.74-.98s.16-.87,.54-1.1l32.29-20.37c.19-.12,.4-.18,.62-.18,.12,0,.25,.02,.36,.06,.27,.09,27.18,8.98,53.4,22.43,15.42,7.91,27.56,15.82,36.11,23.51,10.88,9.79,15.97,19.32,15.14,28.32-3.46,37.51-66.61,138.61-67.25,139.63-.21,.34-.59,.55-.99,.55h-.11Zm-18.01-22.56c5.23,12.4,11.13,19.17,17.52,20.14,4.83-7.77,63.23-102.41,66.51-137.97,1.74-18.85-26.22-37.34-49.97-49.52-23.99-12.31-48.55-20.77-52.55-22.12l-29.87,18.84c14.84,5.9,73.57,30.33,79.52,49.58,2.7,8.71-1.46,30.99-12.37,66.23-8.15,26.35-17.36,51.01-18.8,54.82Z"/>
        </g>
        <g>
          <path class="cls-6" d="M918.32,625.62c-.11,.69-9.15,2.32-10.22,11.87-1.07,9.55,38,43.04,44.75,37.96,6.75-5.08-5.91-24.33-13.09-35.69-7.18-11.36-21.44-14.14-21.44-14.14Z"/>
          <path class="cls-6" d="M950.98,677.14c-2.18,0-5.16-1.09-9.08-3.33-12.4-7.08-35.92-27.97-34.97-36.45,.92-8.21,7.15-10.99,9.81-12.18,.25-.11,.52-.23,.68-.31,.07-.08,.14-.15,.22-.2,.2-.14,.43-.21,.67-.21h.07l.16,.02c.15,.03,14.82,2.97,22.2,14.67l.99,1.57c8.07,12.74,19.12,30.18,11.81,35.68-.67,.5-1.53,.75-2.56,.75Zm-32.38-50.26c-.23,.13-.51,.26-.89,.42-2.31,1.03-7.69,3.43-8.46,10.31-.66,5.87,18.93,25.66,33.8,34.16,4.38,2.5,6.73,3.03,7.92,3.03h0c.51,0,.91-.1,1.16-.29,5.59-4.2-6.1-22.65-12.38-32.56l-1-1.57c-6.08-9.63-17.85-12.94-20.16-13.51Z"/>
        </g>
        <g>
          <path class="cls-3" d="M926.75,613.81l4.97,19.9s-11.19,3.17-16.6-5.18c-2.94-14.83-3.35-15.96-3.35-15.96,0,0,11.38-2.9,14.98,1.24Z"/>
          <path class="cls-6" d="M926.87,634.78c-3.83,0-8.98-1.05-12.16-5.97-.03-.05-.06-.11-.07-.17-2.85-14.39-3.33-15.88-3.33-15.89-.05-.13-.04-.27,.03-.4,.06-.12,.18-.21,.31-.24,.48-.12,11.72-2.93,15.47,1.39,.05,.06,.09,.13,.11,.2l4.97,19.9c.06,.26-.09,.52-.34,.59-.05,.01-2.15,.59-4.98,.59Zm-11.29-6.42c4.56,6.92,13.43,5.47,15.55,5l-4.82-19.31c-3.03-3.29-11.79-1.59-13.94-1.11,.28,1.15,1.08,4.69,3.21,15.41Z"/>
        </g>
        <g>
          <path class="cls-7" d="M731.98,424.51s-1.37,36.9,67.19,49.32c68.56,12.42,99.37,145.08,99.37,145.08,0,0,30.8,7.45,34.28-6.96-11.92-50.18-34.28-170.91-116.26-194.26-59.62-16.89-84.58,6.83-84.58,6.83Z"/>
          <path class="cls-6" d="M914.37,622c-8.15-.06-16.02-1.94-16.1-1.96-.44-.11-.77-.44-.86-.88-.08-.33-7.91-33.54-23.9-67.66-14.73-31.42-39.62-70.2-74.54-76.53-35.78-6.48-52.4-19.76-60.03-29.76-8.4-10.99-8.14-20.36-8.12-20.75,.01-.31,.14-.59,.37-.81,.26-.25,6.57-6.16,20.42-10.02,7.53-2.1,15.93-3.16,24.98-3.16,12.49,0,26.05,2.05,40.3,6.09,18.05,5.14,34.47,15.39,48.83,30.47,12.2,12.81,23.22,29.46,32.76,49.48,17.35,36.4,26.75,77.3,32.98,104.37l.03,.15c.87,3.8,1.7,7.39,2.47,10.65,.04,.17,.04,.36,0,.54-1.54,6.4-8.17,9.78-19.17,9.78h-.42Zm-14.86-4.08c1.99,.43,8.36,1.69,14.89,1.74h.4c6.72,0,15.06-1.34,16.81-7.72-.76-3.21-1.57-6.72-2.42-10.43-6.23-27.07-15.6-67.83-32.83-103.99-20.45-42.91-47.4-69.39-80.12-78.71-14.05-3.98-27.39-6-39.67-6-8.8,0-16.97,1.03-24.28,3.06-11.41,3.17-17.55,7.83-19.15,9.17,.08,2.13,.86,9.93,7.69,18.83,7.39,9.64,23.55,22.47,58.54,28.81,15.9,2.88,31.08,12.4,45.12,28.28,11.16,12.63,21.63,29.31,31.13,49.57,14.83,31.63,22.64,62.31,23.88,67.4Z"/>
        </g>
        <g>
          <path class="cls-6" d="M789.55,286.86s2.62,14.65,0,16.22c-2.62,1.57-12.38-1.05-12.21-1.92,.17-.87,2.26-12.74,2.26-12.74l9.95-1.57Z"/>
          <path class="cls-6" d="M786.93,304.06c-3.55,0-8.56-1.42-9.64-2.18-.34-.24-.49-.51-.43-.81,.17-.86,2.24-12.61,2.26-12.73,.04-.21,.2-.37,.41-.4l9.95-1.57c.26-.04,.51,.14,.56,.4,.45,2.5,2.54,15.07-.23,16.73-.66,.4-1.69,.56-2.87,.56Zm-9.08-2.98c1.07,.82,9.18,2.94,11.44,1.58,1.56-.94,.87-9.32-.15-15.25l-9.13,1.44c-.33,1.9-1.88,10.68-2.17,12.22Z"/>
        </g>
        <g>
          <path class="cls-3" d="M847.52,366.35c-3.8,.7-7.99,2.09-16.69,5.57-24.66,6.56,4.11-57.1-37.63-69.93l-2.49,90.22c27.46,3.79,51.85-12.79,57.46-13.91,3.45-.68,5.31-12.04-.65-11.94Z"/>
          <path class="cls-6" d="M799.01,393.93c-2.86,0-5.7-.19-8.46-.57-.59-.08-1.03-.59-1.01-1.19l2.49-90.22c0-.36,.19-.71,.49-.92,.2-.14,.43-.22,.68-.22,.12,0,.23,.02,.34,.05,24.23,7.45,25.48,31.66,26.39,49.34,.48,9.38,.9,17.47,4.47,20.08,.86,.63,1.91,.94,3.19,.94,.86,0,1.84-.14,2.91-.43,8.62-3.45,12.88-4.87,16.81-5.59h.06s.2-.02,.2-.02c2.76,0,4.59,1.93,4.93,5.17,.4,3.75-1.3,8.53-4.1,9.09-1.16,.23-3.62,1.39-6.46,2.73-9.32,4.4-24.9,11.76-42.91,11.76h-.02Zm-7.1-2.76c2.32,.28,4.71,.42,7.11,.42,17.49,0,32.76-7.21,41.89-11.52,3.25-1.53,5.58-2.64,7.03-2.92,1.08-.21,2.56-3.46,2.23-6.54-.15-1.41-.72-3.08-2.58-3.08-3.66,.68-7.8,2.07-16.33,5.48l-.15,.05c-1.27,.34-2.46,.51-3.53,.51-1.76,0-3.29-.47-4.55-1.39-4.48-3.26-4.9-11.46-5.43-21.84-.9-17.53-2.02-39.29-23.27-46.75l-2.42,87.59Z"/>
        </g>
        <g>
          <path class="cls-3" d="M847.91,367.55s11.78,.7,14.22,4.62c2.44,3.93,2.01,12.56,2.01,12.56,0,0-3.85,3.53-8.72,.61-4.87-2.92-5.06-8.72-8.46-9.07-4.19-3.14-1.66-7.94,.96-8.72Z"/>
          <path class="cls-6" d="M859.33,387.66c-1.54,0-3.06-.44-4.52-1.32-2.69-1.61-4.07-3.99-5.18-5.9-1.08-1.85-1.74-2.9-2.8-3.01-.22-.02-.42-.1-.59-.23-2.82-2.11-2.84-4.67-2.6-6.01,.39-2.2,2.04-4.2,3.93-4.77,.1-.03,.22-.05,.33-.05,1.34,.08,12.52,.85,15.22,5.17,2.56,4.11,2.23,12.32,2.18,13.24-.02,.31-.15,.59-.38,.8-.1,.09-2.31,2.07-5.6,2.07Zm-11.9-12.5c2.06,.39,3.11,2.2,4.22,4.11,1.03,1.77,2.19,3.77,4.36,5.07,1.1,.66,2.23,1,3.36,1h0c1.7,0,3.01-.76,3.61-1.19,.04-1.69,.05-8.31-1.85-11.36-1.6-2.57-8.9-3.75-13.07-4.06-.98,.4-1.9,1.63-2.12,2.87-.24,1.33,.28,2.56,1.48,3.55Z"/>
        </g>
        <g>
          <path class="cls-3" d="M799.35,304.75c-9.37-6.11-22.51-7.85-41.42-3.82,0,0-21.19,1.11-25.34,28.32-4.97,32.56-3.06,98.13-3.06,98.13,0,0,92.49,.74,98.7-22.61-9.64-15.28-17.94-22.33-16.28-52.3l-12.6-47.71Z"/>
          <path class="cls-6" d="M729.51,428.54c-.62,0-1.13-.5-1.15-1.14-.08-2.69-1.81-66.31,3.07-98.34,2.21-14.49,9.25-21.69,14.76-25.17,5.8-3.67,11.05-4.1,11.63-4.13,6.73-1.44,13.02-2.17,18.6-2.17,9.48,0,17.18,2.02,23.56,6.18,.54,.35,.69,1.08,.34,1.62-.22,.33-.58,.53-.98,.53-.23,0-.45-.07-.64-.19-5.99-3.9-13.28-5.8-22.29-5.8-5.43,0-11.57,.72-18.25,2.14l-.18,.02c-.2,.01-5.17,.36-10.59,3.8-5.08,3.23-11.58,9.93-13.65,23.52-4.54,29.75-3.31,87.46-3.08,96.78,33.52-.04,90.81-4.56,96.29-21.26-1.26-1.98-2.5-3.83-3.69-5.61-7.79-11.63-13.93-20.82-12.49-46.94,.03-.63,.53-1.11,1.16-1.11,.72,.04,1.21,.59,1.18,1.24-1.41,25.34,4.26,33.8,12.09,45.5,1.3,1.95,2.64,3.94,4.01,6.11,.17,.28,.22,.61,.14,.93-2.71,10.19-20.43,17.23-52.68,20.92-21.28,2.43-42.33,2.56-46.34,2.56-.53,0-.82,0-.84,0Z"/>
        </g>
        <g>
          <polygon class="cls-6" points="831.75 420.51 869.92 395.55 867.94 395.55 834.47 414.96 831.75 420.51"/>
          <path class="cls-6" d="M831.75,421c-.12,0-.23-.04-.32-.12-.16-.15-.21-.38-.12-.58l2.72-5.55c.04-.09,.11-.16,.19-.21l33.47-19.41c.07-.04,.16-.07,.25-.07h1.98c.22,0,.41,.14,.47,.35,.06,.21-.02,.43-.2,.55l-38.16,24.96c-.08,.05-.18,.08-.27,.08Zm3.09-5.69l-1.87,3.82,35.3-23.09h-.2l-33.22,19.27Z"/>
        </g>
        <g>
          <polygon class="cls-6" points="786.57 400.8 834.72 415.34 831.75 420.51 784.3 404.77 786.57 400.8"/>
          <path class="cls-6" d="M831.75,421c-.05,0-.1,0-.15-.02l-47.45-15.74c-.14-.05-.25-.15-.3-.29-.05-.14-.04-.29,.03-.42l2.27-3.97c.11-.2,.35-.29,.57-.23l48.15,14.55c.14,.04,.26,.15,.31,.29,.05,.14,.04,.29-.03,.42l-2.97,5.17c-.09,.16-.25,.25-.42,.25Zm-46.73-16.51l46.51,15.43,2.46-4.29-47.19-14.26-1.78,3.11Z"/>
        </g>
        <g>
          <path class="cls-3" d="M838.91,378.29c-1.57,.35-52.34,22.51-52.34,22.51l48.15,14.55,39.08-24.67-34.89-12.39Z"/>
          <path class="cls-6" d="M834.72,416.51c-.11,0-.23-.02-.34-.05l-48.15-14.55c-.47-.14-.8-.56-.83-1.05-.03-.48,.25-.94,.7-1.14,15.31-6.68,51.07-22.25,52.55-22.58l.07-.02h.18c.13-.01,.26,.01,.39,.06l34.89,12.39c.42,.15,.72,.53,.77,.97,.05,.45-.16,.88-.54,1.12l-39.08,24.67c-.19,.12-.41,.18-.63,.18Zm-.17-2.44l36.59-23.1-32.24-11.45c-3.6,1.36-32.45,13.88-48.94,21.07l44.59,13.47Z"/>
        </g>
        <g>
          <polygon class="cls-6" points="877.11 365.03 834.47 414.96 837.63 416.92 879.57 367.55 877.11 365.03"/>
          <path class="cls-6" d="M837.63,417.41c-.09,0-.18-.02-.26-.07l-3.16-1.96c-.12-.08-.2-.2-.23-.34s.02-.28,.11-.39l42.64-49.93c.09-.1,.22-.17,.36-.17,.14,0,.27,.05,.37,.15l2.46,2.52c.18,.18,.19,.47,.02,.66l-41.94,49.37c-.1,.11-.23,.17-.37,.17Zm-2.42-2.57l2.32,1.44,41.37-48.71-1.77-1.81-41.92,49.09Z"/>
        </g>
        <g>
          <polygon class="cls-6" points="919.09 341.11 877.11 365.03 879.57 367.55 920.65 343.56 919.09 341.11"/>
          <path class="cls-6" d="M879.57,368.04c-.13,0-.26-.05-.35-.15l-2.46-2.52c-.11-.11-.16-.26-.13-.41,.02-.15,.11-.28,.24-.36l41.98-23.92c.23-.13,.52-.06,.66,.16l1.55,2.45c.07,.11,.09,.25,.06,.38s-.11,.24-.23,.31l-41.08,23.99c-.08,.04-.16,.07-.25,.07Zm-1.66-2.9l1.75,1.79,40.31-23.54-1.03-1.63-41.02,23.38Z"/>
        </g>
        <g>
          <polygon class="cls-3" points="837.63 416.92 881.3 390.9 920.65 343.56 879.57 367.55 837.63 416.92"/>
          <path class="cls-6" d="M837.64,418.09c-.34,0-.67-.15-.89-.41-.37-.44-.37-1.08,0-1.52l41.94-49.37c.08-.1,.19-.18,.3-.25l41.08-23.99c.18-.1,.38-.16,.59-.16,.34,0,.67,.15,.89,.41,.37,.44,.37,1.07,0,1.51l-39.35,47.34c-.08,.1-.19,.19-.3,.26l-43.67,26.02c-.18,.11-.39,.16-.6,.16Zm5.45-5.78l37.45-22.32,34.97-42.08-35.17,20.54-37.25,43.85Z"/>
        </g>
        <g>
          <path class="cls-3" d="M751.85,302.38s-58.84,17.57-41.62,77.81c12.92,45.21,67.59,18.01,81.16,10.44,5.5-2.94,3.57-11.18-3.61-11.04-2.07,.77-4.44,1.69-7.24,2.81-15.5,6.2-55.66,.44-47.27-35.13l18.58-44.9Z"/>
          <path class="cls-6" d="M743.32,406.82c-5.62,0-10.68-.92-15.05-2.72-9.36-3.87-15.81-11.8-19.17-23.58-3.99-13.96-4.24-26.83-.75-38.24,2.8-9.15,7.99-17.37,15.43-24.43,12.57-11.94,27.59-16.54,27.74-16.59,.11-.03,.22-.05,.34-.05,.52,0,.97,.33,1.12,.83,.18,.62-.17,1.27-.79,1.46-.15,.04-14.61,4.46-26.82,16.07-11.21,10.65-22.74,29.76-14.01,60.31,3.16,11.06,9.15,18.48,17.81,22.06,4.1,1.69,8.87,2.55,14.18,2.55,18.79,0,39.46-10.4,47.47-14.87,2.02-1.08,2.97-3.13,2.43-5.22-.44-1.67-2.07-3.62-5.25-3.63-1.99,.74-4.29,1.63-7.02,2.73-3.55,1.42-8.39,2.2-13.62,2.2-10.83,0-20.8-3.24-27.36-8.89-8.09-6.97-10.81-17.27-7.85-29.79,.13-.53,.59-.9,1.14-.9h.08l.19,.03c.62,.15,1.01,.78,.87,1.4-2.74,11.62-.28,21.12,7.1,27.49,6.16,5.3,15.56,8.34,25.8,8.34,4.87,0,9.53-.75,12.79-2.05,2.85-1.14,5.23-2.06,7.27-2.82,.13-.05,.26-.07,.39-.07h.17c3.75,0,6.73,2.11,7.58,5.38,.82,3.12-.62,6.28-3.57,7.86-8.16,4.55-29.25,15.14-48.62,15.15h0Z"/>
        </g>
        <g>
          <path class="cls-3" d="M779.8,306.89l1.06-15.57s22.19,7.52,22.89-29.05c.42-22.19-19.22-27.66-30.65-15.99-11.43,11.68-4.87,31.55-7.65,40-1.84,5.6-8.26,13.67-10.6,18.65-1.19,2.53,17.51,13.15,24.96,1.97Z"/>
          <path class="cls-6" d="M769.85,313.06c-5.57,0-10.41-2.49-11.76-3.26-1.62-.92-5.3-3.28-4.31-5.38,1-2.12,2.67-4.71,4.43-7.46,2.5-3.89,5.08-7.91,6.12-11.06,.87-2.65,.76-6.64,.62-11.26-.28-9.39-.62-21.08,7.31-29.19,3.94-4.02,9.16-6.33,14.34-6.33,2.31,0,4.54,.44,6.63,1.32,7.52,3.15,11.89,11.32,11.69,21.84-.27,14.02-3.67,23.43-10.13,27.96-2.73,1.92-5.87,2.89-9.35,2.89-1.43,0-2.66-.17-3.51-.34l-.96,14.17c-.01,.2-.08,.4-.19,.57-2.41,3.61-6.19,5.52-10.92,5.52Zm-13.86-7.84c.22,.35,1.07,1.32,3.24,2.55,2.53,1.43,6.64,2.96,10.59,2.96s6.84-1.42,8.83-4.23l1.03-15.25c.02-.36,.22-.69,.52-.89,.19-.13,.42-.2,.65-.2,.13,0,.25,.02,.37,.06,.02,0,1.74,.57,4.19,.57,3.02,0,5.72-.82,8.03-2.45,5.8-4.08,8.87-12.86,9.12-26.09,.18-9.67-3.55-16.82-10.26-19.63-1.8-.76-3.73-1.14-5.72-1.14-4.55,0-9.17,2.05-12.67,5.62-7.23,7.39-6.91,18.53-6.64,27.48,.14,4.84,.27,9.03-.73,12.07-1.13,3.44-3.8,7.58-6.37,11.59-1.67,2.59-3.24,5.04-4.19,6.99Z"/>
        </g>
      </g>
      <g>
        <path class="cls-6" d="M742.57,306.25s11.03-3.34,17.32-4.5c14.42-3.43,12.44-18.55,11.51-29.25-.93-10.7,3.26-13.03,5.12-11.86s8.23-.93,10.05-5.35c11.59,.23,10.65,11.09,19.99,12.96,0,0,10.35-14.82,2.95-25.05-7.4-10.23-18.1-6.51-18.1-6.51,0,0-13.26-11.63-27.45,.7-14.19,12.33-22.32,60.56-21.39,68.88Z"/>
        <path class="cls-6" d="M742.57,306.74c-.09,0-.19-.03-.27-.08-.12-.08-.2-.21-.22-.35-.49-4.39,1.42-18.74,5.04-33.11,2.63-10.44,8.28-29.03,16.52-36.19,13.36-11.61,26.08-2.3,27.88-.87,1.74-.49,11.52-2.73,18.39,6.77,7.52,10.4-2.51,25-2.94,25.62-.11,.16-.3,.24-.5,.2-4.42-.88-6.64-3.71-8.79-6.44-2.53-3.22-4.93-6.27-10.79-6.5-1.27,2.73-4.11,4.47-6.4,5.21-1.78,.57-3.36,.59-4.22,.06-.48-.3-1.14-.25-1.75,.12-.8,.49-3.36,2.76-2.62,11.28l.12,1.33c.95,10.57,2.24,25.05-12.01,28.44-6.21,1.15-17.18,4.46-17.29,4.49-.05,.01-.09,.02-.14,.02Zm35.34-74.58c-4.08,0-8.79,1.38-13.63,5.59-13.56,11.78-21.81,58.04-21.27,67.86,2.36-.7,11.38-3.34,16.79-4.34,13.4-3.19,12.2-16.61,11.23-27.4l-.12-1.33c-.77-8.84,1.9-11.48,3.08-12.2,.94-.58,1.98-.62,2.78-.12,.6,.38,1.94,.31,3.4-.16,2.17-.7,4.86-2.37,5.93-4.96,.08-.19,.25-.31,.46-.3,6.56,.13,9.26,3.56,11.86,6.88,2.08,2.64,4.04,5.14,7.9,6.02,1.32-2.03,9.35-15.12,2.77-24.22-7.09-9.81-17.12-6.48-17.54-6.34-.17,.06-.35,.02-.48-.09-.34-.3-5.72-4.89-13.17-4.89Z"/>
      </g>
      <g>
        <path class="cls-3" d="M788.42,381.07s13.43-4.8,20.41-1.66,8.98,20.24,8.98,20.24c0,0-.44,1.13-2.36,0-1.92-1.13-4.88-11.2-4.88-11.2,0,0-1.05,5.36-5.5,6.58s-9.33-2.44-10.51-3.84c-1.18-1.4-6.15-1.94-6.15-1.94,0,0-2.36-4.52,0-8.18Z"/>
        <path class="cls-6" d="M816.92,401.32c-.62,0-1.31-.22-2.06-.67-1.23-.72-2.7-3.65-4.4-8.7-.92,1.63-2.5,3.49-5.07,4.2-.69,.19-1.41,.28-2.16,.28-4.31,0-8.36-3.09-9.55-4.49-.47-.55-2.98-1.27-5.39-1.53-.39-.04-.73-.27-.91-.62-.11-.21-2.64-5.16,.05-9.35,.14-.21,.35-.38,.59-.47,.32-.11,7.9-2.8,14.73-2.8,2.62,0,4.82,.4,6.56,1.18,7.5,3.38,9.58,20.44,9.67,21.17,.02,.19,0,.38-.07,.56-.05,.13-.35,.83-1.21,1.13-.24,.08-.5,.13-.77,.13Zm-6.35-14.05c.51,0,.98,.34,1.12,.84,1.51,5.13,3.55,10.05,4.36,10.53,.19,.11,.35,.19,.47,.24-.91-6.19-3.54-16.31-8.18-18.4-1.42-.64-3.28-.96-5.54-.96-5.6,0-11.88,1.95-13.61,2.52-1.24,2.29-.44,4.96,.02,6.13,1.74,.24,5.07,.88,6.24,2.26,.8,.94,4.24,3.67,7.72,3.67h0c.55,0,1.08-.07,1.58-.21,3.66-1,4.65-5.63,4.66-5.68,.1-.53,.56-.92,1.09-.94h.05Z"/>
      </g>
      <path class="cls-6" d="M667.08,555.95c-.28,0-.54-.16-.67-.43-.17-.37,0-.8,.36-.97l74.2-33.96c.37-.17,.8,0,.97,.36,.17,.37,0,.8-.36,.97l-74.2,33.96c-.1,.05-.2,.07-.3,.07Z"/>
      <path class="cls-6" d="M651.49,582.7c-.28,0-.54-.16-.67-.42-.17-.37-.01-.8,.35-.98l73.51-34.44c.37-.17,.8-.01,.98,.35,.17,.37,.01,.8-.35,.98l-73.51,34.44c-.1,.05-.21,.07-.31,.07Z"/>
      <path class="cls-6" d="M637.39,608.7c-.28,0-.54-.16-.67-.42-.17-.37-.01-.8,.35-.98l76.91-36.01c.37-.17,.8-.01,.98,.35,.17,.37,.01,.8-.35,.98l-76.91,36.01c-.1,.05-.21,.07-.31,.07Z"/>
      <path class="cls-6" d="M609.02,431.17c-.26,0-.52-.14-.65-.39-.19-.36-.05-.8,.3-.99l63.29-33.62c.36-.19,.8-.05,.99,.3,.19,.36,.05,.8-.3,.99l-63.29,33.62c-.11,.06-.23,.09-.34,.09Z"/>
      <path class="cls-6" d="M570.17,464.97c-.27,0-.54-.15-.66-.42-.18-.37-.02-.8,.34-.98l83.32-40.07c.37-.18,.8-.02,.98,.34,.18,.37,.02,.8-.34,.98l-83.32,40.07c-.1,.05-.21,.07-.32,.07Z"/>
      <path class="cls-6" d="M556.7,512.23c-.27,0-.52-.15-.65-.4-.19-.36-.04-.8,.32-.99l97-49.9c.36-.18,.8-.04,.99,.32,.19,.36,.04,.8-.32,.99l-97,49.9c-.11,.06-.22,.08-.34,.08Z"/>
      <path class="cls-6" d="M605.19,529.57c-.24,0-.47-.11-.61-.33-.23-.34-.14-.79,.2-1.02l28.49-19.07c.34-.23,.79-.14,1.02,.2,.23,.34,.14,.79-.2,1.02l-28.49,19.07c-.13,.08-.27,.12-.41,.12Z"/>
      <path class="cls-6" d="M555.08,492.93c-.27,0-.53-.15-.66-.41-.18-.36-.03-.8,.34-.98l91.07-44.31c.36-.18,.8-.03,.98,.34,.18,.36,.03,.8-.34,.98l-91.07,44.31c-.1,.05-.21,.07-.32,.07Z"/>
      <path class="cls-6" d="M594.62,331.85c-.26,0-.51-.14-.64-.38-.2-.35-.07-.8,.28-1l77.69-43.27c.35-.2,.8-.07,1,.28,.2,.35,.07,.8-.28,1l-77.69,43.27c-.11,.06-.24,.09-.36,.09Z"/>
      <g>
        <path class="cls-6" d="M336.58,430.81c-.19,0-.37-.04-.54-.12l-37.9-17.11c-.44-.2-.75-.63-.81-1.12-.06-.49,.14-.98,.51-1.28l32.76-26.67c.24-.19,.53-.3,.84-.3,.19,0,.37,.04,.54,.12,.44,.2,.75,.63,.8,1.12l5.14,43.79c.06,.48-.14,.97-.51,1.28-.24,.19-.53,.3-.84,.3Zm-1.63-3.68l-4.56-38.86-29.08,23.67,33.64,15.19Z"/>
        <g>
          <polygon class="cls-6" points="282.96 559.8 268.22 557.23 253.48 554.66 262.93 542.24 272.37 529.83 277.67 544.81 282.96 559.8"/>
          <path class="cls-6" d="M282.96,560.28s-.05,0-.07,0l-29.48-5.14c-.16-.03-.29-.14-.35-.31-.06-.16-.03-.34,.07-.48l18.89-24.83c.1-.13,.26-.2,.42-.17,.16,.03,.29,.14,.35,.31l10.59,29.97c.06,.16,.03,.34-.07,.48-.09,.11-.22,.18-.35,.18Zm-28.64-5.97l27.94,4.87-10.04-28.4-17.9,23.53Z"/>
        </g>
      </g>
      <g>
        <path class="cls-3" d="M766.21,315.54l1.14,.22s.47,.09,1.18,.09c1.45,0,3.58-.34,5.49-1.95l.57-.48,.43,.61c3.85,5.46,3.38,24.81,3,32.87l-1.33,.18-10.49-31.55Z"/>
        <path class="cls-6" d="M777.31,348.04c-.68-.03-1.18-.58-1.15-1.22,.27-5.69,.88-24.2-2.08-30.68-2.03,1.28-4.1,1.56-5.53,1.56-.87,0-1.45-.11-1.56-.13-.63-.13-1.04-.74-.92-1.37,.11-.55,.59-.94,1.14-.94h.07l.16,.02s.42,.08,1.07,.08c1.38,0,3.4-.32,5.19-1.83,.21-.18,.48-.28,.76-.28h.14c.33,.05,.62,.23,.81,.5,3.79,5.38,3.56,23.1,3.09,33.18-.03,.63-.54,1.11-1.17,1.11h-.02Z"/>
      </g>
      <g>
        <path class="cls-3" d="M807.55,324.32l1.29-.4c.21,.48,5.19,11.97,4.01,21.99l-1.34,.04-3.96-21.63Z"/>
        <path class="cls-6" d="M812.05,346.99c-.65-.08-1.11-.66-1.04-1.3,1.12-9.53-3.82-20.91-3.87-21.02-.26-.59,0-1.28,.6-1.54,.15-.07,.31-.1,.47-.1,.46,0,.88,.27,1.07,.7,.22,.49,5.25,12.09,4.05,22.24-.07,.59-.57,1.03-1.16,1.03h-.13Z"/>
      </g>
      <path class="cls-6" d="M675.84,618.71c-.28,0-.54-.16-.67-.42-.17-.37-.01-.8,.35-.98l42.73-20c.37-.17,.8-.01,.98,.35,.17,.37,.01,.8-.35,.98l-42.73,20c-.1,.05-.21,.07-.31,.07Z"/>
      <g>
        <path class="cls-6" d="M775.42,234.35s-3.54-17.97-18.67-10.47c-15.12,7.5-5.93,42.74-5.93,42.74l24.6-32.28Z"/>
        <path class="cls-6" d="M750.82,267.11s-.06,0-.1,0c-.18-.04-.33-.18-.38-.36-.38-1.45-9.12-35.71,6.19-43.3,4.39-2.18,8.28-2.47,11.54-.86,6.05,2.98,7.75,11.32,7.82,11.67,.03,.14,0,.28-.09,.39l-24.6,32.27c-.09,.12-.24,.19-.39,.19Zm12.77-44.57c-2.02,0-4.24,.59-6.62,1.78-13.2,6.55-7.24,35.45-5.91,41.19l23.84-31.28c-.3-1.3-2.15-8.26-7.25-10.77-1.24-.61-2.6-.92-4.05-.92Z"/>
      </g>
      <g>
        <polygon class="cls-7" points="880.5 481.22 873.8 492.59 885.62 488.13 881.66 496.5 887.48 496.5 880.5 481.22"/>
        <path class="cls-6" d="M887.48,496.99h-5.82c-.17,0-.32-.09-.41-.23-.09-.14-.1-.32-.03-.47l3.44-7.28-10.69,4.03c-.19,.07-.41,.02-.55-.14-.13-.16-.15-.38-.05-.56l6.7-11.37c.14-.23,.44-.31,.67-.17,.23,.14,.31,.44,.17,.67l-6,10.17,10.52-3.97c.19-.07,.4-.02,.53,.13,.14,.15,.17,.36,.08,.54l-3.62,7.68h5.04c.27,0,.49,.22,.49,.49s-.22,.49-.49,.49Z"/>
      </g>
      <g>
        <polygon class="cls-7" points="914.14 470.07 909.11 477.66 916.56 477.66 910.28 483.24 914.14 485.34 914.14 470.07"/>
        <path class="cls-6" d="M914.14,485.83c-.08,0-.16-.02-.23-.06l-3.86-2.09c-.14-.08-.23-.22-.25-.37s.04-.32,.16-.42l5.32-4.73h-6.16c-.18,0-.35-.1-.43-.26-.09-.16-.08-.35,.02-.5l5.02-7.59c.15-.23,.45-.29,.68-.14,.23,.15,.29,.45,.14,.68l-4.52,6.83h6.53c.2,0,.39,.13,.46,.32s.02,.4-.13,.54l-5.76,5.12,3.25,1.76c.24,.13,.33,.43,.2,.66-.09,.16-.26,.26-.43,.26Z"/>
      </g>
    </g>
    <g>
      <path class="cls-8" d="M1193.75,367.71c-.67,0-1.2-.29-1.47-.81-.21-.37-.23-.83-.03-1.25,.21-.44,.63-.76,1.12-.84,.43-.06,.82-.11,1.22-.15,.75-.09,1.5-.18,2.26-.31,.23-.04,.42-.06,.59-.06,.33,0,.63,.08,.88,.24,.37,.22,.62,.6,.68,1.03,.06,.42-.08,.84-.38,1.15-.36,.4-.87,.48-1.17,.54-1.18,.19-2.29,.34-3.37,.45-.08,.01-.2,.02-.32,.02Z"/>
      <path class="cls-8" d="M1174.15,339.79c-.56-.01-1.09-.37-1.32-.92-.21-.51-.11-1.08,.27-1.49,.76-.82,3.82-1.01,4.35-1.01,.9,0,1.42,.16,1.75,.53,.25,.25,.39,.64,.37,1.02-.02,.39-.21,.76-.52,1.01-.43,.38-1,.38-1.31,.38-1.02,0-1.93,.12-2.79,.35-.17,.04-.41,.11-.68,.11-.02,0-.09,0-.12,0Z"/>
      <path class="cls-8" d="M1189.67,358.45c-.79,0-1.42-.6-1.47-1.41-.02-.32,.06-.6,.12-.8,.27-.89,.46-1.79,.56-2.68,.04-.34,.11-.95,.64-1.36,.23-.19,.56-.31,.9-.31,.4,0,.79,.16,1.06,.45,1.13,.99-.4,5.09-.41,5.13-.23,.58-.78,.97-1.41,.97Z"/>
      <path class="cls-8" d="M1184.98,365.35c-.74,0-1.33-.52-1.44-1.27,0-.03,0-.07,0-.1-.03-.65,.38-1.08,.6-1.31,.67-.68,1.24-1.36,1.75-2.05,.2-.27,.47-.62,.95-.77,.12-.04,.29-.07,.45-.07,.47,0,.91,.23,1.19,.6,.27,.37,.36,.82,.23,1.25-.07,.28-.25,.53-.34,.66-.65,.89-1.37,1.73-2.15,2.51-.27,.33-.76,.56-1.24,.56Z"/>
      <path class="cls-8" d="M1185.75,342.68c-.54-.06-.89-.37-1.1-.55-.68-.61-1.38-1.1-2.12-1.51-.32-.18-.83-.45-1-1.07-.12-.42-.03-.86,.24-1.21,.28-.37,.74-.6,1.22-.6,.21,0,.4,.04,.59,.12,1.13,.52,2.22,1.28,3.28,2.26,.46,.38,.65,1.05,.44,1.63-.21,.57-.75,.93-1.38,.93-.03,0-.13,0-.16,0Z"/>
      <path class="cls-8" d="M1189.95,350.15c-.35,0-.69-.13-.96-.36-.38-.32-.5-.76-.56-1.02,0,0-.03-.1-.03-.1-.23-.87-.51-1.71-.85-2.49-.48-1.02-.06-1.65,.24-1.93,.24-.25,.63-.42,1.04-.42,.22,0,.44,.05,.63,.14,.51,.24,.72,.71,.84,.96,.41,.94,.74,1.9,1,2.89l.03,.12c.07,.25,.16,.58,.09,.97-.14,.73-.75,1.23-1.47,1.23Z"/>
      <path class="cls-8" d="M1225.16,352.98c-.42,0-.82-.18-1.11-.49-.28-.3-.43-.7-.4-1.1,.02-.48,.31-.84,.52-1.1l.11-.14c.1-.12,.15-.19,.19-.25,.23-.33,.55-.78,1.13-.91,.1-.02,.22-.04,.34-.04,.45,0,.89,.2,1.18,.54,.28,.32,.4,.73,.34,1.13-.05,.39-.27,.69-.44,.92-.19,.25-.34,.44-.49,.64-.23,.29-.62,.77-1.28,.81-.02,0-.08,0-.1,0Z"/>
      <path class="cls-8" d="M1218.54,358.51c-.05,0-.18-.01-.24-.02-.73-.12-1.23-.74-1.19-1.45,.01-.73,.62-1.15,.89-1.32,.74-.5,1.5-1.05,2.39-1.74,.25-.23,.63-.37,1.02-.37,.59,0,1.12,.34,1.34,.86,.22,.52,.11,1.11-.31,1.56-.03,.03-.05,.05-.08,.08-.8,.68-1.65,1.27-2.56,1.9l-.11,.08c-.27,.18-.65,.43-1.15,.43Z"/>
      <path class="cls-8" d="M1168.44,345.79c-.51,0-.99-.27-1.25-.7-.34-.5-.19-1.15-.03-1.67,.21-.66,1.36-3.26,2.42-3.65,.16-.06,.33-.09,.5-.09,.46,0,.91,.23,1.19,.61,.27,.37,.36,.85,.22,1.29-.07,.27-.24,.51-.35,.67-.5,.67-.88,1.41-1.16,2.21-.12,.35-.32,.92-.93,1.2-.16,.08-.39,.14-.62,.14Z"/>
      <path class="cls-8" d="M1172.53,361.39h0c-.5-.02-1.29-.26-3.08-3.43-.31-.52-.34-1.12-.07-1.61,.25-.44,.73-.72,1.25-.72,.64,0,1.22,.41,1.51,1.06,.39,.68,.89,1.43,1.42,2.08,.21,.26,.56,.7,.49,1.31-.05,.71-.68,1.3-1.45,1.3-.02,0-.06,0-.08,0Z"/>
      <path class="cls-8" d="M1168.69,354.08c-.73,0-1.37-.54-1.52-1.29-.32-1.12-.54-2.32-.65-3.49-.07-.38,.05-.85,.35-1.2,.29-.34,.7-.54,1.14-.54,.29,0,.57,.08,.82,.24,.6,.43,.67,1.03,.7,1.31,.1,.92,.26,1.81,.5,2.72,.09,.34,.21,.81,.01,1.31-.27,.6-.78,.94-1.35,.94Z"/>
      <path class="cls-8" d="M1179.86,366.32c-1.19,0-4.08-1.68-4.29-1.82-.55-.37-.78-1.01-.59-1.62,.19-.62,.77-1.04,1.44-1.04,.11,0,.23,.01,.34,.04,.29,.06,.51,.19,.68,.28,.82,.47,1.74,.9,2.74,1.28,.58,.17,1.06,.72,1.11,1.34,.05,.58-.27,1.11-.83,1.39-.14,.08-.37,.14-.61,.14Z"/>
      <path class="cls-8" d="M1177.89,370.38c-.15,0-.29-.02-.43-.06-.38-.11-.7-.38-.88-.73-.17-.34-.2-.74-.08-1.1,.17-.56,.66-.82,.93-.97,.89-.48,1.71-.96,2.49-1.46,.21-.15,.6-.36,1.08-.36,.34,0,.67,.11,.93,.33,.33,.25,.54,.67,.53,1.12,0,.46-.23,.89-.61,1.17-.93,.65-1.95,1.22-2.92,1.75-.27,.14-.61,.32-1.04,.32Z"/>
      <path class="cls-8" d="M1169.67,373.77c-.79,0-1.43-.53-1.52-1.27-.09-.75,.42-1.44,1.22-1.63,.81-.25,1.93-.6,2.99-.98,.2-.07,.5-.18,.84-.18,.23,0,.44,.05,.64,.14,.69,.28,1.06,1.1,.79,1.81-.24,.65-.84,.87-1.14,.97l-.45,.16c-.97,.34-1.98,.69-3.02,.95-.04,0-.07,.02-.11,.02-.09,.01-.18,.02-.26,.02Z"/>
      <path class="cls-8" d="M1146.66,376.92c-1.13-.02-2.24-.05-3.33-.1-.36-.02-.81-.04-1.22-.33-.47-.32-.7-.88-.58-1.44,.12-.58,.58-1.02,1.17-1.14,.12-.03,.28-.04,.48-.04h.23c1.09,.05,2.17,.09,3.23,.1,.37,0,1.03,.02,1.5,.56,.23,.24,.37,.59,.36,.97,0,.37-.17,.72-.44,.98-.46,.44-1.04,.44-1.29,.44,0,0-.1,0-.1,0Z"/>
      <path class="cls-8" d="M1137.94,376.43c-.12,0-.25-.01-.37-.02-1.13-.11-2.22-.23-3.31-.36-.36-.05-.81-.1-1.19-.43-.48-.45-.62-1.05-.41-1.58,.23-.57,.83-.95,1.5-.95,.1,0,.21,0,.31,.03l.64,.07c.9,.1,1.81,.21,2.71,.29,.38,.04,1.04,.1,1.45,.69,.44,.57,.33,1.45-.28,1.93-.29,.23-.64,.34-1.05,.34Z"/>
      <path class="cls-8" d="M1129.49,374.88c-.18,0-.37-.03-.54-.06-1.11-.19-2.19-.39-3.26-.61-.36-.08-.8-.17-1.16-.52-.42-.47-.53-1.06-.3-1.56,.24-.54,.81-.89,1.46-.89,.15,0,.29,.02,.44,.06l.59,.11c.91,.18,1.82,.35,2.72,.5,.37,.06,1.03,.18,1.4,.8,.39,.6,.21,1.47-.44,1.9-.26,.18-.56,.26-.9,.26Z"/>
      <path class="cls-8" d="M1160.99,375.82c-1,0-1.55-.69-1.59-1.37-.04-.8,.58-1.47,1.46-1.56,1.05-.17,2.15-.35,3.22-.56,.19-.04,.4-.07,.6-.07,.37,0,.69,.1,.96,.3,.61,.4,.8,1.24,.41,1.89-.35,.57-.95,.69-1.27,.76l-.7,.13c-.97,.18-1.96,.37-2.98,.48-.04,0-.07,0-.11,0h0Z"/>
      <path class="cls-8" d="M1151.9,376.77c-.98-.1-1.46-.84-1.43-1.51,.04-.8,.73-1.41,1.6-1.42l.27-.02c1.03-.05,2.07-.11,3.09-.19,.12,0,.24-.02,.36-.02,.48,0,.88,.14,1.18,.42,.56,.47,.64,1.36,.14,1.95-.42,.5-1.02,.56-1.34,.58l-.86,.06c-.95,.07-1.92,.14-2.9,.15h0s-.07,0-.1,0Z"/>
      <path class="cls-8" d="M1210.8,362.8c-.26,0-.5-.06-.72-.18-.6-.29-.93-1.02-.72-1.69,.21-.65,.76-.89,1.06-1.03,.94-.42,1.82-.84,2.67-1.26,.27-.13,.6-.3,1.01-.3,.04,0,.14,0,.18,.01,.57,.05,1.07,.45,1.25,1.02,.17,.55,0,1.14-.44,1.51-.04,.03-.08,.06-.12,.08-.76,.47-1.59,.85-2.38,1.2-.28,.13-.56,.25-.84,.39-.27,.12-.58,.24-.94,.24Z"/>
      <path class="cls-8" d="M1202.45,365.91c-.34,0-.64-.09-.9-.27-.59-.38-.82-1.17-.49-1.82,.31-.6,.89-.76,1.2-.85,1.01-.28,1.98-.57,2.94-.89,.25-.08,.52-.17,.84-.17,.13,0,.27,.02,.39,.05,.56,.12,1.01,.58,1.11,1.16,.1,.57-.16,1.13-.65,1.45-.04,.03-.09,.05-.14,.07-.86,.37-1.76,.63-2.64,.87-.32,.09-.63,.18-.94,.27-.23,.06-.46,.12-.72,.12Z"/>
      <path class="cls-8" d="M1188.33,367.97c-1.08-.02-2.3-.12-3.56-.28-.34-.05-1.05-.14-1.43-.79-.39-.6-.22-1.44,.41-1.88,.27-.19,.59-.29,.96-.29,.15,0,.3,.02,.44,.03,1.03,.13,2.06,.22,3.1,.26,.38,.02,.84,.04,1.25,.33,.55,.43,.75,1.03,.55,1.6-.21,.61-.84,1.02-1.55,1.02-.03,0-.14,0-.17,0Z"/>
    </g>
    <g>
      <path class="cls-5" d="M1243.63,327.38c-3.35-7.25,1.58-11.61,4.47-12.88l51.26-7.3-33.71,43.55c-.13,.2-.28,.39-.44,.57-3.42,3.81-12.7,2.41-15.88-5.34l10.93-8.47c-5.89-3.96-13.52-3.39-16.63-10.13Z"/>
      <path class="cls-9" d="M1243.63,327.38c-3.35-7.25,1.58-11.61,4.47-12.88l51.26-7.3-33.71,43.55c-.13,.2-.28,.39-.44,.57-3.42,3.81-12.7,2.41-15.88-5.34l10.93-8.47c-5.89-3.96-13.52-3.39-16.63-10.13Z"/>
    </g>
  </g>
</svg>