<?xml version="1.0" encoding="utf-8"?>
<!-- Generator: Adobe Illustrator 26.4.1, SVG Export Plug-In . SVG Version: 6.00 Build 0)  -->
<svg version="1.1" id="Layer_1" xmlns="http://www.w3.org/2000/svg" xmlns:xlink="http://www.w3.org/1999/xlink" x="0px" y="0px"
	 viewBox="0 0 1600 600" style="enable-background:new 0 0 1600 600;" xml:space="preserve">
<style type="text/css">
	
		.st0{clip-path:url(#SVGID_00000008121810560186096180000012397366993476210825_);fill:url(#SVGID_00000041984395467593227580000007980329845827283625_);}
	.st1{fill:#1A1A1A;}
	.st2{fill:#FFFFFF;}
	.st3{fill:#8EABF4;}
	.st4{fill:#4373EF;}
</style>
<g>
	<defs>
		<rect id="SVGID_1_" x="-38.5" y="7.1" width="1634.2" height="583.5"/>
	</defs>
	<clipPath id="SVGID_00000182488142893066081150000015972788314245513345_">
		<use xlink:href="#SVGID_1_"  style="overflow:visible;"/>
	</clipPath>
	
		<radialGradient id="SVGID_00000140733357790114682520000003085742441417416368_" cx="689.3976" cy="833.5604" r="795.4271" gradientTransform="matrix(1.0038 0 0 0.2295 99.7078 393.2356)" gradientUnits="userSpaceOnUse">
		<stop  offset="0.4079" style="stop-color:#EBEBF2"/>
		<stop  offset="1" style="stop-color:#EBEBF2;stop-opacity:0"/>
	</radialGradient>
	
		<ellipse style="clip-path:url(#SVGID_00000182488142893066081150000015972788314245513345_);fill:url(#SVGID_00000140733357790114682520000003085742441417416368_);" cx="791.7" cy="584.6" rx="804.1" ry="184.5"/>
</g>
<g>
	<g>
		<g>
			<path class="st1" d="M370.8,114.1C370.8,114.1,370.8,114.1,370.8,114.1c-0.8-0.1-1.5-0.2-2.2-0.3c-0.2,0-0.3-0.2-0.3-0.4
				c0-0.2,0.2-0.3,0.4-0.3c0.7,0.1,1.4,0.2,2.1,0.3c0.2,0,0.3,0.2,0.3,0.4C371.2,114,371,114.1,370.8,114.1z"/>
		</g>
		<g>
			<path class="st1" d="M331.1,395.1C331.1,395.1,331,395.1,331.1,395.1c-1.5-0.2-2.9-0.3-4.3-0.5c-0.2,0-0.3-0.2-0.3-0.4
				c0-0.2,0.2-0.3,0.4-0.3c1.4,0.2,2.8,0.3,4.3,0.5c0.2,0,0.3,0.2,0.3,0.4C331.4,395,331.3,395.1,331.1,395.1z M322.5,394.1
				C322.5,394.1,322.5,394.1,322.5,394.1c-1.5-0.2-2.9-0.4-4.3-0.6c-0.2,0-0.3-0.2-0.3-0.4c0-0.2,0.2-0.3,0.4-0.3
				c1.4,0.2,2.8,0.4,4.3,0.6c0.2,0,0.3,0.2,0.3,0.4C322.8,393.9,322.7,394.1,322.5,394.1z M314,392.8
				C314,392.8,313.9,392.8,314,392.8c-1.5-0.2-2.9-0.5-4.3-0.7c-0.2,0-0.3-0.2-0.3-0.4c0-0.2,0.2-0.3,0.4-0.3
				c1.4,0.2,2.8,0.5,4.3,0.7c0.2,0,0.3,0.2,0.3,0.4C314.3,392.7,314.2,392.8,314,392.8z M305.5,391.4
				C305.5,391.4,305.4,391.4,305.5,391.4c-1.5-0.3-2.9-0.5-4.3-0.8c-0.2,0-0.3-0.2-0.3-0.4c0-0.2,0.2-0.3,0.4-0.3
				c1.4,0.3,2.8,0.5,4.2,0.8c0.2,0,0.3,0.2,0.3,0.4C305.8,391.3,305.6,391.4,305.5,391.4z M297,389.8C297,389.8,297,389.8,297,389.8
				c-1.5-0.3-2.9-0.6-4.3-0.9c-0.2,0-0.3-0.2-0.3-0.4c0-0.2,0.2-0.3,0.4-0.3c1.4,0.3,2.8,0.6,4.2,0.9c0.2,0,0.3,0.2,0.3,0.4
				C297.3,389.6,297.2,389.8,297,389.8z M288.6,387.9C288.6,387.9,288.5,387.9,288.6,387.9c-1.5-0.3-2.9-0.7-4.3-1
				c-0.2,0-0.3-0.2-0.3-0.4c0-0.2,0.2-0.3,0.4-0.3c1.4,0.4,2.8,0.7,4.2,1c0.2,0,0.3,0.2,0.3,0.4
				C288.9,387.8,288.8,387.9,288.6,387.9z M280.3,385.7C280.2,385.7,280.2,385.7,280.3,385.7c-1.5-0.4-2.9-0.8-4.2-1.2
				c-0.2-0.1-0.3-0.3-0.2-0.4c0.1-0.2,0.3-0.3,0.4-0.2c1.4,0.4,2.8,0.8,4.1,1.2c0.2,0.1,0.3,0.2,0.3,0.4
				C280.6,385.6,280.4,385.7,280.3,385.7z M272,383.3c0,0-0.1,0-0.1,0c-1.4-0.4-2.8-0.9-4.1-1.3c-0.2-0.1-0.3-0.3-0.2-0.5
				c0.1-0.2,0.3-0.3,0.5-0.2c1.3,0.4,2.7,0.9,4.1,1.3c0.2,0.1,0.3,0.3,0.2,0.4C272.3,383.2,272.1,383.3,272,383.3z M263.8,380.6
				c0,0-0.1,0-0.1,0c-1.4-0.5-2.7-1-4.1-1.5c-0.2-0.1-0.3-0.3-0.2-0.5c0.1-0.2,0.3-0.3,0.5-0.2c1.3,0.5,2.7,1,4,1.5
				c0.2,0.1,0.3,0.3,0.2,0.5C264.1,380.5,263.9,380.6,263.8,380.6z M255.7,377.6c0,0-0.1,0-0.1,0c-1.3-0.5-2.7-1.1-4-1.6
				c-0.2-0.1-0.3-0.3-0.2-0.5c0.1-0.2,0.3-0.3,0.5-0.2c1.3,0.5,2.6,1.1,4,1.6c0.2,0.1,0.3,0.3,0.2,0.5
				C256,377.5,255.9,377.6,255.7,377.6z M247.8,374.3c0,0-0.1,0-0.1,0c-1.3-0.6-2.6-1.2-3.9-1.8c-0.2-0.1-0.3-0.3-0.2-0.5
				c0.1-0.2,0.3-0.3,0.5-0.2c1.3,0.6,2.6,1.2,3.9,1.8c0.2,0.1,0.3,0.3,0.2,0.5C248,374.2,247.9,374.3,247.8,374.3z M240,370.6
				c-0.1,0-0.1,0-0.2,0c-1.3-0.7-2.6-1.3-3.8-2c-0.2-0.1-0.2-0.3-0.1-0.5c0.1-0.2,0.3-0.2,0.5-0.1c1.2,0.7,2.5,1.3,3.8,2
				c0.2,0.1,0.2,0.3,0.2,0.5C240.2,370.5,240.1,370.6,240,370.6z M232.4,366.5c-0.1,0-0.1,0-0.2,0c-1.3-0.7-2.5-1.5-3.7-2.2
				c-0.2-0.1-0.2-0.3-0.1-0.5c0.1-0.2,0.3-0.2,0.5-0.1c1.2,0.7,2.5,1.5,3.7,2.2c0.2,0.1,0.2,0.3,0.1,0.5
				C232.6,366.4,232.5,366.5,232.4,366.5z M225,362c-0.1,0-0.1,0-0.2-0.1c-1.2-0.8-2.4-1.6-3.6-2.4c-0.2-0.1-0.2-0.3-0.1-0.5
				c0.1-0.2,0.3-0.2,0.5-0.1c1.2,0.8,2.4,1.6,3.6,2.4c0.2,0.1,0.2,0.3,0.1,0.5C225.3,361.9,225.1,362,225,362z M217.9,357.1
				c-0.1,0-0.1,0-0.2-0.1c-1.2-0.9-2.3-1.7-3.4-2.6c-0.2-0.1-0.2-0.3-0.1-0.5c0.1-0.2,0.3-0.2,0.5-0.1c1.1,0.9,2.3,1.8,3.4,2.6
				c0.2,0.1,0.2,0.3,0.1,0.5C218.2,357,218,357.1,217.9,357.1z M211.2,351.7c-0.1,0-0.2,0-0.2-0.1c-1.1-0.9-2.2-1.9-3.2-2.9
				c-0.1-0.1-0.2-0.4,0-0.5c0.1-0.1,0.4-0.2,0.5,0c1,1,2.1,1.9,3.2,2.8c0.2,0.1,0.2,0.4,0,0.5C211.4,351.7,211.3,351.7,211.2,351.7z
				 M204.8,345.9c-0.1,0-0.2,0-0.3-0.1c-1-1-2.1-2-3-3.1c-0.1-0.1-0.1-0.4,0-0.5c0.1-0.1,0.4-0.1,0.5,0c1,1,2,2.1,3,3.1
				c0.1,0.1,0.1,0.4,0,0.5C205,345.9,204.9,345.9,204.8,345.9z M198.9,339.7c-0.1,0-0.2,0-0.3-0.1c-1-1.1-1.9-2.2-2.8-3.3
				c-0.1-0.2-0.1-0.4,0.1-0.5c0.2-0.1,0.4-0.1,0.5,0.1c0.9,1.1,1.8,2.2,2.8,3.3c0.1,0.1,0.1,0.4,0,0.5
				C199,339.7,199,339.7,198.9,339.7z M193.5,333c-0.1,0-0.2,0-0.3-0.1c-0.9-1.2-1.7-2.3-2.5-3.5c-0.1-0.2-0.1-0.4,0.1-0.5
				c0.2-0.1,0.4-0.1,0.5,0.1c0.8,1.2,1.6,2.3,2.5,3.5c0.1,0.2,0.1,0.4-0.1,0.5C193.6,333,193.5,333,193.5,333z M188.6,325.9
				c-0.1,0-0.2-0.1-0.3-0.2c-0.8-1.2-1.5-2.5-2.2-3.7c-0.1-0.2,0-0.4,0.1-0.5c0.2-0.1,0.4,0,0.5,0.1c0.7,1.2,1.4,2.5,2.2,3.7
				c0.1,0.2,0.1,0.4-0.1,0.5C188.7,325.8,188.7,325.9,188.6,325.9z M184.4,318.4c-0.1,0-0.3-0.1-0.3-0.2c-0.6-1.3-1.3-2.6-1.9-3.9
				c-0.1-0.2,0-0.4,0.2-0.5c0.2-0.1,0.4,0,0.5,0.2c0.6,1.3,1.2,2.6,1.8,3.9c0.1,0.2,0,0.4-0.2,0.5
				C184.5,318.3,184.5,318.4,184.4,318.4z M180.9,310.5c-0.1,0-0.3-0.1-0.3-0.2c-0.5-1.3-1-2.7-1.5-4.1c-0.1-0.2,0-0.4,0.2-0.5
				c0.2-0.1,0.4,0,0.5,0.2c0.5,1.3,1,2.7,1.5,4c0.1,0.2,0,0.4-0.2,0.5C181,310.5,180.9,310.5,180.9,310.5z M178,302.4
				c-0.2,0-0.3-0.1-0.3-0.3c-0.4-1.4-0.8-2.8-1.1-4.2c0-0.2,0.1-0.4,0.3-0.4c0.2,0,0.4,0.1,0.4,0.3c0.3,1.4,0.7,2.8,1.1,4.1
				c0.1,0.2-0.1,0.4-0.2,0.4C178.1,302.3,178.1,302.4,178,302.4z M176,294c-0.2,0-0.3-0.1-0.4-0.3c-0.3-1.4-0.6-2.8-0.8-4.2
				c0-0.2,0.1-0.4,0.3-0.4c0.2,0,0.4,0.1,0.4,0.3c0.2,1.4,0.5,2.8,0.8,4.2C176.3,293.8,176.2,294,176,294C176,294,176,294,176,294z
				 M174.6,285.5c-0.2,0-0.3-0.1-0.4-0.3c-0.2-1.4-0.3-2.9-0.4-4.3c0-0.2,0.1-0.4,0.3-0.4c0.2,0,0.4,0.1,0.4,0.3
				c0.1,1.4,0.2,2.9,0.4,4.3C175,285.3,174.8,285.5,174.6,285.5C174.6,285.5,174.6,285.5,174.6,285.5z M173.9,276.9
				c-0.2,0-0.4-0.2-0.4-0.3c0-1.3-0.1-2.7-0.1-4l0-0.3c0-0.2,0.2-0.4,0.4-0.4c0,0,0,0,0,0c0.2,0,0.4,0.2,0.4,0.4l0,0.3
				c0,1.3,0,2.6,0.1,4C174.3,276.7,174.1,276.9,173.9,276.9C173.9,276.9,173.9,276.9,173.9,276.9z M173.9,268.3
				C173.9,268.3,173.9,268.3,173.9,268.3c-0.2,0-0.4-0.2-0.4-0.4c0.1-1.4,0.1-2.9,0.3-4.3c0-0.2,0.2-0.3,0.4-0.3
				c0.2,0,0.3,0.2,0.3,0.4c-0.1,1.4-0.2,2.9-0.3,4.3C174.3,268.1,174.1,268.3,173.9,268.3z M174.6,259.7
				C174.6,259.7,174.6,259.7,174.6,259.7c-0.2,0-0.4-0.2-0.4-0.4c0.2-1.4,0.4-2.9,0.6-4.3c0-0.2,0.2-0.3,0.4-0.3
				c0.2,0,0.3,0.2,0.3,0.4c-0.2,1.4-0.4,2.8-0.6,4.3C175,259.5,174.8,259.7,174.6,259.7z M175.9,251.2
				C175.9,251.2,175.9,251.2,175.9,251.2c-0.3,0-0.4-0.2-0.4-0.4c0.3-1.4,0.6-2.8,0.9-4.2c0-0.2,0.2-0.3,0.4-0.3
				c0.2,0,0.3,0.2,0.3,0.4c-0.3,1.4-0.6,2.8-0.9,4.2C176.2,251,176.1,251.2,175.9,251.2z M177.8,242.7
				C177.7,242.7,177.7,242.7,177.8,242.7c-0.3-0.1-0.4-0.3-0.3-0.4c0.4-1.4,0.7-2.8,1.1-4.2c0.1-0.2,0.3-0.3,0.4-0.2
				c0.2,0.1,0.3,0.3,0.2,0.4c-0.4,1.4-0.8,2.8-1.1,4.1C178.1,242.6,177.9,242.7,177.8,242.7z M180.2,234.5c0,0-0.1,0-0.1,0
				c-0.2-0.1-0.3-0.3-0.2-0.5c0.4-1.4,0.9-2.7,1.4-4.1c0.1-0.2,0.3-0.3,0.5-0.2c0.2,0.1,0.3,0.3,0.2,0.5c-0.5,1.4-0.9,2.7-1.4,4.1
				C180.5,234.4,180.3,234.5,180.2,234.5z M183.1,226.3c0,0-0.1,0-0.1,0c-0.2-0.1-0.3-0.3-0.2-0.5c0.5-1.3,1.1-2.7,1.6-4
				c0.1-0.2,0.3-0.3,0.5-0.2c0.2,0.1,0.3,0.3,0.2,0.5c-0.6,1.3-1.1,2.7-1.6,4C183.3,226.2,183.2,226.3,183.1,226.3z M186.4,218.4
				c0,0-0.1,0-0.1,0c-0.2-0.1-0.3-0.3-0.2-0.5c0.6-1.3,1.2-2.6,1.8-3.9c0.1-0.2,0.3-0.3,0.5-0.2c0.2,0.1,0.3,0.3,0.2,0.5
				c-0.6,1.3-1.2,2.6-1.8,3.9C186.7,218.3,186.6,218.4,186.4,218.4z M190.2,210.6c-0.1,0-0.1,0-0.2,0c-0.2-0.1-0.2-0.3-0.2-0.5
				c0.7-1.3,1.3-2.5,2-3.8c0.1-0.2,0.3-0.2,0.5-0.1c0.2,0.1,0.2,0.3,0.1,0.5c-0.7,1.3-1.4,2.5-2,3.8
				C190.5,210.6,190.3,210.6,190.2,210.6z M194.4,203.1c-0.1,0-0.1,0-0.2,0c-0.2-0.1-0.2-0.3-0.1-0.5c0.7-1.2,1.5-2.5,2.2-3.7
				c0.1-0.2,0.3-0.2,0.5-0.1c0.2,0.1,0.2,0.3,0.1,0.5c-0.8,1.2-1.5,2.5-2.2,3.7C194.6,203,194.5,203.1,194.4,203.1z M198.9,195.8
				c-0.1,0-0.1,0-0.2-0.1c-0.2-0.1-0.2-0.3-0.1-0.5c0.8-1.2,1.6-2.4,2.4-3.6c0.1-0.2,0.3-0.2,0.5-0.1c0.2,0.1,0.2,0.3,0.1,0.5
				c-0.8,1.2-1.6,2.4-2.4,3.6C199.2,195.7,199.1,195.8,198.9,195.8z M203.8,188.7c-0.1,0-0.1,0-0.2-0.1c-0.2-0.1-0.2-0.3-0.1-0.5
				c0.8-1.2,1.7-2.3,2.6-3.5c0.1-0.2,0.3-0.2,0.5-0.1c0.2,0.1,0.2,0.3,0.1,0.5c-0.9,1.1-1.7,2.3-2.6,3.5
				C204.1,188.6,204,188.7,203.8,188.7z M209.1,181.8c-0.1,0-0.2,0-0.2-0.1c-0.2-0.1-0.2-0.4-0.1-0.5c0.9-1.1,1.8-2.2,2.7-3.3
				c0.1-0.2,0.4-0.2,0.5,0c0.2,0.1,0.2,0.4,0,0.5c-0.9,1.1-1.8,2.2-2.7,3.3C209.3,181.8,209.2,181.8,209.1,181.8z M214.6,175.2
				c-0.1,0-0.2,0-0.2-0.1c-0.1-0.1-0.2-0.4,0-0.5c0.9-1.1,1.9-2.2,2.9-3.2c0.1-0.1,0.4-0.2,0.5,0c0.1,0.1,0.2,0.4,0,0.5
				c-1,1.1-1.9,2.1-2.9,3.2C214.8,175.2,214.7,175.2,214.6,175.2z M220.5,168.9c-0.1,0-0.2,0-0.2-0.1c-0.1-0.1-0.1-0.4,0-0.5
				c1-1,2-2.1,3-3.1c0.1-0.1,0.4-0.1,0.5,0c0.1,0.1,0.1,0.4,0,0.5c-1,1-2,2-3,3.1C220.7,168.8,220.6,168.9,220.5,168.9z
				 M226.6,162.8c-0.1,0-0.2,0-0.3-0.1c-0.1-0.1-0.1-0.4,0-0.5c1-1,2.1-2,3.2-2.9c0.1-0.1,0.4-0.1,0.5,0c0.1,0.1,0.1,0.4,0,0.5
				c-1.1,1-2.1,1.9-3.2,2.9C226.8,162.8,226.7,162.8,226.6,162.8z M233,157c-0.1,0-0.2,0-0.3-0.1c-0.1-0.1-0.1-0.4,0-0.5
				c1.1-0.9,2.2-1.9,3.3-2.8c0.2-0.1,0.4-0.1,0.5,0c0.1,0.2,0.1,0.4,0,0.5c-1.1,0.9-2.2,1.9-3.3,2.8C233.2,157,233.1,157,233,157z
				 M239.6,151.5c-0.1,0-0.2,0-0.3-0.1c-0.1-0.2-0.1-0.4,0.1-0.5c1.1-0.9,2.3-1.8,3.4-2.7c0.2-0.1,0.4-0.1,0.5,0.1
				c0.1,0.2,0.1,0.4-0.1,0.5c-1.1,0.9-2.3,1.8-3.4,2.6C239.8,151.4,239.7,151.5,239.6,151.5z M246.5,146.2c-0.1,0-0.2-0.1-0.3-0.1
				c-0.1-0.2-0.1-0.4,0.1-0.5c1.2-0.8,2.4-1.7,3.5-2.5c0.2-0.1,0.4-0.1,0.5,0.1c0.1,0.2,0.1,0.4-0.1,0.5c-1.2,0.8-2.4,1.6-3.5,2.5
				C246.7,146.2,246.6,146.2,246.5,146.2z M253.7,141.3c-0.1,0-0.2-0.1-0.3-0.2c-0.1-0.2-0.1-0.4,0.1-0.5c1.2-0.8,2.4-1.6,3.6-2.3
				c0.2-0.1,0.4-0.1,0.5,0.1s0.1,0.4-0.1,0.5c-1.2,0.8-2.4,1.5-3.6,2.3C253.8,141.3,253.7,141.3,253.7,141.3z M261,136.8
				c-0.1,0-0.2-0.1-0.3-0.2c-0.1-0.2,0-0.4,0.1-0.5c1.2-0.7,2.5-1.5,3.8-2.2c0.2-0.1,0.4,0,0.5,0.1c0.1,0.2,0,0.4-0.1,0.5
				c-1.2,0.7-2.5,1.4-3.7,2.2C261.1,136.8,261.1,136.8,261,136.8z M268.5,132.5c-0.1,0-0.3-0.1-0.3-0.2c-0.1-0.2,0-0.4,0.1-0.5
				c1.3-0.7,2.6-1.3,3.8-2c0.2-0.1,0.4,0,0.5,0.2c0.1,0.2,0,0.4-0.2,0.5c-1.3,0.6-2.6,1.3-3.8,2
				C268.6,132.5,268.6,132.5,268.5,132.5z M276.3,128.7c-0.1,0-0.3-0.1-0.3-0.2c-0.1-0.2,0-0.4,0.2-0.5c1.3-0.6,2.6-1.2,3.9-1.8
				c0.2-0.1,0.4,0,0.5,0.2c0.1,0.2,0,0.4-0.2,0.5c-1.3,0.6-2.6,1.2-3.9,1.8C276.4,128.7,276.3,128.7,276.3,128.7z M284.2,125.2
				c-0.1,0-0.3-0.1-0.3-0.2c-0.1-0.2,0-0.4,0.2-0.5c1.3-0.5,2.7-1.1,4-1.6c0.2-0.1,0.4,0,0.5,0.2c0.1,0.2,0,0.4-0.2,0.5
				c-1.3,0.5-2.7,1.1-4,1.6C284.2,125.2,284.2,125.2,284.2,125.2z M292.2,122.1c-0.1,0-0.3-0.1-0.3-0.2c-0.1-0.2,0-0.4,0.2-0.5
				c1.4-0.5,2.7-1,4.1-1.4c0.2-0.1,0.4,0,0.5,0.2c0.1,0.2,0,0.4-0.2,0.5c-1.4,0.4-2.7,0.9-4.1,1.4
				C292.3,122.1,292.3,122.1,292.2,122.1z M300.4,119.4c-0.2,0-0.3-0.1-0.3-0.3c-0.1-0.2,0-0.4,0.2-0.4c1.4-0.4,2.8-0.8,4.2-1.2
				c0.2-0.1,0.4,0.1,0.4,0.3c0.1,0.2-0.1,0.4-0.3,0.4c-1.4,0.4-2.8,0.8-4.1,1.2C300.5,119.4,300.5,119.4,300.4,119.4z M308.8,117.1
				c-0.2,0-0.3-0.1-0.3-0.3c0-0.2,0.1-0.4,0.3-0.4c1.4-0.3,2.8-0.7,4.2-1c0.2,0,0.4,0.1,0.4,0.3c0,0.2-0.1,0.4-0.3,0.4
				C311.6,116.4,310.2,116.7,308.8,117.1C308.8,117.1,308.8,117.1,308.8,117.1z M317.2,115.2c-0.2,0-0.3-0.1-0.4-0.3
				c0-0.2,0.1-0.4,0.3-0.4c1.4-0.3,2.9-0.5,4.3-0.8c0.2,0,0.4,0.1,0.4,0.3c0,0.2-0.1,0.4-0.3,0.4
				C320.1,114.7,318.7,114.9,317.2,115.2C317.2,115.2,317.2,115.2,317.2,115.2z M325.7,113.8c-0.2,0-0.3-0.1-0.4-0.3
				c0-0.2,0.1-0.4,0.3-0.4c1.4-0.2,2.9-0.4,4.3-0.5c0.2,0,0.4,0.1,0.4,0.3c0,0.2-0.1,0.4-0.3,0.4
				C328.6,113.4,327.2,113.6,325.7,113.8C325.8,113.8,325.7,113.8,325.7,113.8z M364.4,113.2C364.4,113.2,364.4,113.2,364.4,113.2
				c-1.5-0.2-2.9-0.3-4.3-0.4c-0.2,0-0.3-0.2-0.3-0.4c0-0.2,0.2-0.3,0.4-0.3c1.4,0.1,2.9,0.3,4.3,0.4c0.2,0,0.3,0.2,0.3,0.4
				C364.8,113.1,364.6,113.2,364.4,113.2z M334.3,112.9c-0.2,0-0.3-0.1-0.4-0.3c0-0.2,0.1-0.4,0.3-0.4c1.4-0.1,2.9-0.2,4.3-0.3
				c0.2,0,0.4,0.1,0.4,0.3c0,0.2-0.1,0.4-0.3,0.4C337.2,112.7,335.8,112.8,334.3,112.9C334.3,112.9,334.3,112.9,334.3,112.9z
				 M355.8,112.5C355.8,112.5,355.8,112.5,355.8,112.5c-1.4-0.1-2.9-0.1-4.3-0.2c-0.2,0-0.4-0.2-0.3-0.4c0-0.2,0.2-0.4,0.4-0.3
				c1.4,0,2.9,0.1,4.3,0.2c0.2,0,0.4,0.2,0.3,0.4C356.2,112.4,356,112.5,355.8,112.5z M342.9,112.4c-0.2,0-0.4-0.2-0.4-0.3
				c0-0.2,0.2-0.4,0.3-0.4c1.4,0,2.9-0.1,4.3-0.1h0c0.2,0,0.4,0.2,0.4,0.4c0,0.2-0.2,0.4-0.4,0.4
				C345.8,112.3,344.3,112.3,342.9,112.4C342.9,112.4,342.9,112.4,342.9,112.4z"/>
		</g>
		<g>
			<path class="st1" d="M337.4,395.8C337.4,395.8,337.4,395.8,337.4,395.8c-0.8-0.1-1.5-0.1-2.2-0.2c-0.2,0-0.3-0.2-0.3-0.4
				c0-0.2,0.2-0.3,0.4-0.3c0.7,0.1,1.4,0.1,2.1,0.2c0.2,0,0.3,0.2,0.3,0.4C337.7,395.6,337.6,395.8,337.4,395.8z"/>
		</g>
	</g>
	<g>
		<g>
			<g>
				<path class="st2" d="M278.6,194.6c-0.3-0.5-67.9,18.1-68.3,18.4c0.2-0.4,14.6-28.5,41-35.3c5.9-1.5,12.5-2,19.6-0.8
					c7.9,1.3,14.5,4.2,19.9,8.1C285,186,281.6,189.5,278.6,194.6z"/>
			</g>
			<g>
				<path class="st2" d="M210.3,212.9C210.3,213,210.3,213,210.3,212.9L210.3,212.9z"/>
			</g>
		</g>
		<g>
			<g>
				<path class="st1" d="M278.6,194.6c-0.3-0.5-67.9,18.1-68.3,18.4c0.2-0.4,14.6-28.5,41-35.3c5.9-1.5,12.5-2,19.6-0.8
					c7.9,1.3,14.5,4.2,19.9,8.1C285,186,281.6,189.5,278.6,194.6z"/>
				<path class="st1" d="M210.3,213.3c-0.1,0-0.2,0-0.2-0.1c-0.1-0.1-0.1-0.3-0.1-0.4c0.2-0.3,3.8-7.4,10.7-15.3
					c6.3-7.2,16.7-16.6,30.4-20.1c6.4-1.7,13-1.9,19.7-0.8c7.6,1.3,14.4,4,20,8.2c0.1,0.1,0.2,0.2,0.1,0.4c0,0.1-0.1,0.2-0.3,0.3
					c-5,0.9-8.4,3.6-11.9,9.4c-0.1,0.1-0.2,0.2-0.3,0.2c0,0,0,0-0.1,0c-2.7,0.2-67.3,18.1-68.1,18.4
					C210.4,213.3,210.3,213.3,210.3,213.3z M262.8,176.5c-3.9,0-7.7,0.5-11.5,1.5c-13.5,3.5-23.8,12.8-30.1,19.9
					c-5.7,6.5-9.1,12.4-10.2,14.4c4.1-1.2,21.3-5.9,33.1-9.2c28-7.6,33.2-8.8,34.2-9c3.4-5.6,6.7-8.4,11.4-9.4
					c-5.5-3.8-11.9-6.4-19.1-7.6C268.1,176.8,265.4,176.5,262.8,176.5z M278.3,194.7L278.3,194.7L278.3,194.7z M278.3,194.7
					C278.3,194.7,278.3,194.7,278.3,194.7C278.3,194.7,278.3,194.7,278.3,194.7z M278.3,194.7C278.3,194.7,278.3,194.7,278.3,194.7
					C278.3,194.7,278.3,194.7,278.3,194.7z M278.3,194.7C278.3,194.7,278.3,194.7,278.3,194.7C278.3,194.7,278.3,194.7,278.3,194.7z
					 M278.3,194.7C278.3,194.7,278.3,194.7,278.3,194.7C278.3,194.7,278.3,194.7,278.3,194.7z M278.3,194.7
					C278.3,194.7,278.3,194.7,278.3,194.7C278.3,194.7,278.3,194.7,278.3,194.7z"/>
			</g>
			<g>
				<path class="st1" d="M210.3,213.3c-0.1,0-0.2,0-0.3-0.1c-0.1-0.1-0.1-0.4,0-0.5c0.1-0.1,0.4-0.1,0.5,0c0.1,0.1,0.1,0.4,0,0.5
					l0,0C210.4,213.3,210.3,213.3,210.3,213.3z"/>
			</g>
		</g>
		<g>
			<g>
				<path class="st1" d="M210.3,213.3c-0.1,0-0.2,0-0.2-0.1c-0.1-0.1-0.1-0.3-0.1-0.4c0.2-0.3,3.8-7.4,10.7-15.3
					c6.3-7.2,16.7-16.6,30.4-20.1c6.4-1.7,13-1.9,19.7-0.8c7.6,1.3,14.4,4,20,8.2c0.1,0.1,0.2,0.2,0.1,0.4c0,0.1-0.1,0.2-0.3,0.3
					c-5,0.9-8.4,3.6-11.9,9.4c-0.1,0.1-0.2,0.2-0.3,0.2c0,0,0,0-0.1,0c-2.7,0.2-67.3,18.1-68.1,18.4
					C210.4,213.3,210.3,213.3,210.3,213.3z M262.8,176.5c-3.9,0-7.7,0.5-11.5,1.5c-13.5,3.5-23.8,12.8-30.1,19.9
					c-5.7,6.5-9.1,12.4-10.2,14.4c4.1-1.2,21.3-5.9,33.1-9.2c28-7.6,33.2-8.8,34.2-9c3.4-5.6,6.7-8.4,11.4-9.4
					c-5.5-3.8-11.9-6.4-19.1-7.6C268.1,176.8,265.4,176.5,262.8,176.5z M278.3,194.7L278.3,194.7L278.3,194.7z M278.3,194.7
					C278.3,194.7,278.3,194.7,278.3,194.7C278.3,194.7,278.3,194.7,278.3,194.7z M278.3,194.7C278.3,194.7,278.3,194.7,278.3,194.7
					C278.3,194.7,278.3,194.7,278.3,194.7z M278.3,194.7C278.3,194.7,278.3,194.7,278.3,194.7C278.3,194.7,278.3,194.7,278.3,194.7z
					 M278.3,194.7C278.3,194.7,278.3,194.7,278.3,194.7C278.3,194.7,278.3,194.7,278.3,194.7z M278.3,194.7
					C278.3,194.7,278.3,194.7,278.3,194.7C278.3,194.7,278.3,194.7,278.3,194.7z"/>
			</g>
			<g>
				<path class="st1" d="M210.3,213.3c-0.1,0-0.2,0-0.3-0.1c-0.1-0.1-0.1-0.4,0-0.5c0.1-0.1,0.4-0.1,0.5,0c0.1,0.1,0.1,0.4,0,0.5
					l0,0C210.4,213.3,210.3,213.3,210.3,213.3z"/>
			</g>
		</g>
	</g>
	<g>
		<path class="st2" d="M627.1,385.5c-9.4,19.4-20.1,36.5-32.2,42.5c-56.4,22.3-106.6,22.2-132.5-5.6c-69.7-73.2-133.2-17-149-40.5
			c-20.6-30.7,51.3-58.3,12.8-86.7c-6.3-4.6-11.2-6.4-15.3-6.1l33.9-19l44.2-22.8l6.4-3.3c4.4-0.9,9.8,0.6,17.1,5.9
			c38.6,28.4-49.5,71.4-28.9,102.2c9.6,14.3,37.7-3.2,87.7-13.2c70.3-14.1,67,21.9,114.4,48.9C604.8,401.1,610.7,394.7,627.1,385.5z
			"/>
		<path class="st1" d="M521,444.4c-1.3,0-2.6,0-3.9-0.1c-11.6-0.4-22.1-2.3-31.2-5.9c-9.4-3.6-17.4-9-23.8-15.8
			c-44.7-46.9-87.2-40.5-115.4-36.2c-16.2,2.5-27.9,4.2-33.6-4.4c-9.6-14.4,0.7-28,10.6-41.2c7.7-10.2,14.9-19.8,13.5-29.6
			c-0.8-5.6-4.5-10.8-11.2-15.8c-5.9-4.3-10.8-6.3-15.1-6.1c-0.2,0-0.3-0.1-0.4-0.3c0-0.2,0-0.3,0.2-0.4l33.9-19l50.7-26.2
			c0,0,0.1,0,0.1,0c4.9-1,10.5,1,17.3,6c5.9,4.4,9.2,9.2,9.9,14.9c1.6,12.4-9.8,26.4-20.9,40c-13.4,16.4-27.2,33.4-17.9,47.4
			c6.1,9.1,20,5,43.1-1.9c12-3.6,26.9-8,44.2-11.5c22-4.4,38.2-4.2,51.1,0.6c11.8,4.4,19.9,12.3,29.4,21.4
			c8.9,8.6,18.9,18.2,34.1,26.9c17.1,11.8,23.5,8.1,36.3,0.6c1.5-0.9,3.1-1.8,4.9-2.8c0.1-0.1,0.3-0.1,0.4,0.1
			c0.1,0.1,0.1,0.3,0.1,0.4c-11.6,23.9-21.9,37.4-32.4,42.7C568.3,438.9,542.8,444.4,521,444.4z M377.9,382.8
			c6.6,0,13.4,0.5,20.6,1.9c23.3,4.4,44.2,16.7,64.1,37.5c12.6,13.5,30.9,20.7,54.5,21.4c22.5,0.7,49.4-4.8,77.6-15.9
			c10.2-5.1,20.2-18.2,31.5-41.3c-1.4,0.8-2.6,1.5-3.9,2.2c-13.1,7.6-19.6,11.4-37-0.6c-15.3-8.7-25.4-18.5-34.3-27
			c-18.8-18.2-32.4-31.3-79.8-21.8c-17.3,3.5-32.2,7.9-44.2,11.5c-23.4,7-37.5,11.1-43.9,1.6c-9.7-14.4,4.4-31.6,17.9-48.3
			c10.9-13.4,22.3-27.3,20.7-39.4c-0.7-5.4-3.8-10.1-9.6-14.4c-6.6-4.9-12.1-6.8-16.7-5.9l-50.6,26.1l-32.7,18.4
			c4.1,0.2,8.8,2.3,14.1,6.2c6.9,5.1,10.7,10.4,11.5,16.2c1.5,10.1-5.9,19.8-13.6,30.1c-9.8,13-19.9,26.5-10.6,40.4
			c5.5,8.2,17,6.5,32.9,4.1C355.8,384.4,366.3,382.8,377.9,382.8z"/>
	</g>
	<g>
		<path class="st3" d="M331.5,287.7l65-38.3c0,0,27.6,10.7,19.5,28.7c-29.4,18.2-70.2,36.4-70.2,36.4S342.9,291.6,331.5,287.7z"/>
		<path class="st1" d="M345.8,314.8c-0.1,0-0.1,0-0.2,0c-0.1-0.1-0.2-0.2-0.2-0.3c0-0.2-3.1-22.7-14.1-26.5c-0.1,0-0.2-0.2-0.2-0.3
			c0-0.1,0.1-0.3,0.2-0.3l65-38.3c0.1-0.1,0.2-0.1,0.3,0c0.6,0.2,15.7,6.2,20.1,16.8c1.6,4,1.5,8.1-0.4,12.3c0,0.1-0.1,0.1-0.1,0.2
			c-29.1,18-69.8,36.2-70.2,36.4C345.9,314.8,345.9,314.8,345.8,314.8z M332.3,287.7c10.1,4.2,13.3,23,13.8,26.3
			c4.5-2,42.1-19.1,69.6-36.1c1.8-4,1.9-7.9,0.3-11.7c-4-9.8-17.8-15.7-19.5-16.4L332.3,287.7z"/>
	</g>
	<g>
		<path class="st2" d="M372.2,200.6c-38.7,20.1-48.5,56.5-27.5,69.5l-33.9,19c-13,0.7-17.2,21.1-29.3,28.2
			c-3.9,2.3-8.7,3.2-14.8,1.6c-31.1-8.1-23.8-50.6,19.2-73c26.7-13.9,26-45.5,4.8-61c-5.4-3.9-12-6.8-19.9-8.1
			c-7.1-1.2-13.7-0.7-19.6,0.8l74.6-40.7l0.2-0.1c8.6-4.7,19-7.4,31.1-5.4C396,138,405.7,183.1,372.2,200.6z"/>
		<path class="st1" d="M272.6,320.1c-1.9,0-3.9-0.3-6-0.8c-11.2-2.9-18-10.3-19.2-20.7c-1-8.5,2-18.2,8.3-27.4
			c6.9-10,17.3-18.9,30-25.5c11.9-6.2,19.2-16.6,20.1-28.5c0.9-12.2-4.8-24.1-15.4-31.9c-5.6-4.1-12.2-6.8-19.7-8.1
			c-6.6-1.1-13.2-0.8-19.4,0.8c-0.2,0-0.4,0-0.4-0.2c-0.1-0.2,0-0.4,0.2-0.4l74.6-40.7l0.2-0.1c9.9-5.4,20.5-7.3,31.4-5.4
			c18.9,3.2,32.7,16,35.4,32.7c1.1,7.1,0,14.3-3.2,20.6c-3.5,6.8-9.3,12.5-17,16.5l-0.2-0.3l0.2,0.3c-22.5,11.7-37.4,30.5-38.1,47.9
			c-0.3,9.1,3.4,16.5,10.6,21c0.1,0.1,0.2,0.2,0.2,0.3s-0.1,0.2-0.2,0.3l-33.9,19c0,0-0.1,0-0.2,0c-7.2,0.4-11.7,7-16.4,14
			c-3.6,5.4-7.4,11-12.7,14.1C278.9,319.3,275.9,320.1,272.6,320.1z M262.8,175.8c2.7,0,5.4,0.2,8.1,0.7c7.6,1.3,14.4,4,20,8.2
			c10.8,7.9,16.6,20,15.7,32.5c-0.9,12.2-8.4,22.8-20.5,29.1c-12.7,6.6-23,15.3-29.8,25.3c-6.2,9.1-9.1,18.6-8.2,26.9
			c1.2,10.2,7.8,17.3,18.6,20.1c5.5,1.4,10.3,0.9,14.6-1.6c5.2-3,8.9-8.6,12.5-13.9c4.8-7.1,9.3-13.9,16.9-14.3l33.3-18.7
			c-7.1-4.6-10.8-12.2-10.4-21.3c0.7-17.7,15.8-36.7,38.5-48.5l0,0c14.6-7.6,22.1-21.5,19.8-36.3c-2.6-16.4-16.3-29-34.8-32.1
			c-10.7-1.8-21.1,0-30.9,5.4l-0.2,0.1l-72.3,39.5C256.7,176.1,259.7,175.8,262.8,175.8z"/>
	</g>
	<g>
		<path class="st3" d="M314.2,224.1c31.2-16.3,73.8-46.9,73.8-46.9s2.7-27.1-19.8-33.1c-26.8,13-68.1,37.2-68.1,37.2
			S323.1,198.3,314.2,224.1z"/>
		<path class="st1" d="M314.2,224.5c-0.1,0-0.2,0-0.2-0.1c-0.1-0.1-0.2-0.2-0.1-0.4c4.5-13.2,0.5-24-3.7-30.8
			c-4.5-7.3-10.3-11.6-10.3-11.6c-0.1-0.1-0.2-0.2-0.1-0.3c0-0.1,0.1-0.2,0.2-0.3c0.4-0.2,41.6-24.4,68.1-37.2c0.1,0,0.2,0,0.2,0
			c11.8,3.1,16.6,12.1,18.6,19c2.1,7.5,1.5,14.4,1.5,14.5c0,0.1-0.1,0.2-0.1,0.3c-0.4,0.3-42.9,30.7-73.8,46.9
			C314.3,224.4,314.3,224.5,314.2,224.5z M300.7,181.3c1.4,1.1,6.2,5.2,10.1,11.5c4.2,6.7,8.2,17.4,4,30.5
			c29.9-15.8,70.2-44.4,72.8-46.3c0.1-1.1,0.5-7.3-1.5-14c-2.8-9.8-8.8-16-18-18.5C343.3,156.6,305.3,178.7,300.7,181.3z"/>
	</g>
	<g>
		<path class="st1" d="M326.1,295.3l-44.6,22.1c12.1-7.1,16.3-27.5,29.3-28.2C314.9,288.9,319.8,290.6,326.1,295.3z"/>
		<path class="st1" d="M281.5,317.7c-0.1,0-0.3-0.1-0.3-0.2c-0.1-0.2,0-0.4,0.1-0.5c5.2-3,8.9-8.6,12.5-13.9
			c4.8-7.2,9.4-13.9,16.9-14.3c4.5-0.2,9.5,1.8,15.5,6.2c0.1,0.1,0.2,0.2,0.1,0.3s-0.1,0.2-0.2,0.3l-44.6,22.1
			C281.7,317.7,281.6,317.7,281.5,317.7z M311.5,289.5c-0.2,0-0.4,0-0.7,0c-7.2,0.4-11.7,7-16.4,14c-2.8,4.2-5.7,8.5-9.3,11.7
			l40.3-19.9C320.1,291.4,315.5,289.5,311.5,289.5z"/>
	</g>
	<g>
		<g>
			<path class="st1" d="M466.6,370.8c-0.3,0.4-6.6-2.2-11,3.3c-4.5,5.5,6.3,41.7,12.5,41.2c6.2-0.4,6-17.4,6.1-27.2
				C474.3,378.1,466.6,370.8,466.6,370.8z"/>
			<path class="st1" d="M468,415.6c-1.6,0-3.5-2-5.5-6c-5.2-10-10.7-31.5-7.1-35.8c3.7-4.5,8.4-3.7,10.4-3.4c0.3,0,0.6,0.1,0.7,0.1
				c0,0,0.1,0,0.2,0c0.1,0,0.2,0,0.3,0.1c0.1,0.1,7.8,7.6,7.7,17.5l0,1.4c-0.1,10.3-0.2,25.8-6.4,26.2
				C468.1,415.6,468,415.6,468,415.6z M463.1,370.8c-2.2,0-4.9,0.6-7.2,3.4c-3.1,3.8,1.7,24.5,7.2,35.1c1.9,3.7,3.7,5.7,5,5.6
				c5.6-0.4,5.7-16.1,5.8-25.5l0-1.4c0.1-8.9-6.3-15.8-7.4-16.8c-0.2,0-0.5,0-0.9-0.1C465,371,464.1,370.8,463.1,370.8z"/>
		</g>
		<g>
			<path class="st2" d="M476.5,366.8l-4.8,14.3c0,0-8.2-2.5-8.2-9.8c4.1-10.3,4.3-11.2,4.3-11.2S475.9,362.8,476.5,366.8z"/>
			<path class="st1" d="M471.7,381.4c0,0-0.1,0-0.1,0c-0.1,0-8.4-2.7-8.4-10.1c0,0,0-0.1,0-0.1c4-10,4.3-11.1,4.3-11.1
				c0-0.1,0.1-0.2,0.2-0.2c0.1,0,0.2-0.1,0.3,0c0.3,0.1,8.4,2.9,9,7c0,0.1,0,0.1,0,0.2l-4.8,14.3C472,381.3,471.8,381.4,471.7,381.4
				z M463.8,371.3c0.1,6.1,6.1,8.7,7.6,9.3l4.7-13.8c-0.6-3.2-6.6-5.7-8.2-6.2C467.7,361.4,466.8,363.9,463.8,371.3z"/>
		</g>
		<g>
			<path class="st4" d="M450.5,223.4c0,0,78.8,25.9,76.2,53.6s-49.2,102.1-49.2,102.1c-5.4-0.5-10.2-5.9-14.2-15.7
				c0,0,27.7-73.3,23-88.6c-4.7-15.3-59.4-36.5-59.4-36.5L450.5,223.4z"/>
			<path class="st1" d="M477.5,379.5C477.4,379.5,477.4,379.5,477.5,379.5c-5.5-0.5-10.4-5.8-14.6-15.9c0-0.1,0-0.2,0-0.3
				c0.3-0.7,27.6-73.4,23-88.4c-4.6-15-58.7-36-59.2-36.2c-0.1,0-0.2-0.2-0.2-0.3c0-0.1,0.1-0.3,0.2-0.3l23.7-15
				c0.1-0.1,0.2-0.1,0.3,0c0.2,0.1,19.9,6.6,39.1,16.4c11.3,5.8,20.2,11.6,26.4,17.2c7.9,7.1,11.5,13.9,10.9,20.4
				c-2.5,27.5-48.8,101.5-49.3,102.3C477.7,379.4,477.6,379.5,477.5,379.5z M463.6,363.4c4,9.6,8.6,14.7,13.7,15.3
				c2.6-4.2,46.6-75.1,49.1-101.8c1.3-14.1-19.4-27.8-36.9-36.8c-18.2-9.3-36.9-15.7-38.9-16.3l-23,14.5c6.5,2.6,54.5,21.9,59,36.4
				C491.2,289.8,465.3,358.9,463.6,363.4z"/>
		</g>
		<g>
			<path class="st1" d="M525.9,385.5c-0.1,0.5-6.7,1.7-7.5,8.7s27.9,31.6,32.8,27.9c5-3.7-4.3-17.9-9.6-26.2
				C536.3,387.6,525.9,385.5,525.9,385.5z"/>
			<path class="st1" d="M549.9,422.8c-1.5,0-3.6-0.8-6.4-2.4c-9.8-5.6-26-20.7-25.4-26.3c0.6-5.7,5-7.7,6.9-8.5
				c0.3-0.1,0.5-0.2,0.6-0.3c0,0,0.1-0.1,0.1-0.1c0.1-0.1,0.2-0.1,0.3-0.1c0.1,0,10.7,2.2,16,10.5l0.7,1.2
				c5.5,8.7,13.8,21.8,8.8,25.5C551,422.7,550.5,422.8,549.9,422.8z M526,385.9c-0.2,0.1-0.4,0.2-0.8,0.4c-1.8,0.8-5.9,2.6-6.5,8
				c-0.5,4.9,14.7,19.6,25.1,25.6c3.6,2.1,6.2,2.8,7.2,2c4.5-3.4-3.9-16.6-9-24.6l-0.7-1.2C536.6,388.6,527.4,386.2,526,385.9z"/>
		</g>
		<g>
			<path class="st2" d="M532.1,376.9l3.6,14.6c0,0-8.2,2.3-12.2-3.8c-2.2-10.9-2.5-11.7-2.5-11.7S529.4,373.8,532.1,376.9z"/>
			<path class="st1" d="M532.2,392.2c-2.8,0-6.6-0.8-8.9-4.4c0,0,0-0.1-0.1-0.1c-2.1-10.6-2.4-11.7-2.4-11.7c0-0.1,0-0.2,0-0.3
				c0-0.1,0.1-0.2,0.2-0.2c0.4-0.1,8.6-2.1,11.4,1c0,0,0.1,0.1,0.1,0.1l3.6,14.6c0,0.2-0.1,0.4-0.3,0.4
				C535.8,391.8,534.2,392.2,532.2,392.2z M523.9,387.5c3.3,5.1,9.9,4,11.4,3.7l-3.5-14.2c-2.2-2.4-8.7-1.2-10.2-0.8
				C521.7,377.1,522.3,379.7,523.9,387.5z"/>
		</g>
		<g>
			<path class="st4" d="M389.1,237.9c0,0-1,27.1,49.3,36.2c50.3,9.1,72.9,106.5,72.9,106.5s22.6,5.5,25.2-5.1
				c-8.8-36.8-25.2-125.4-85.3-142.6C407.4,220.5,389.1,237.9,389.1,237.9z"/>
			<path class="st1" d="M523.3,382.4c-0.1,0-0.2,0-0.3,0c-5.9,0-11.6-1.4-11.7-1.4c-0.1,0-0.2-0.1-0.3-0.3
				c-0.1-0.2-5.8-24.6-17.6-49.8c-10.9-23.2-29.2-51.8-55.1-56.4c-26.1-4.7-38.2-14.4-43.7-21.7c-6-7.9-5.9-14.6-5.9-14.9
				c0-0.1,0-0.2,0.1-0.2c0.2-0.2,4.8-4.4,14.8-7.2c9.2-2.6,25-4.3,47.6,2.1c13.2,3.7,25.1,11.2,35.6,22.2c8.9,9.4,17,21.5,24,36.2
				c12.7,26.7,19.6,56.7,24.2,76.5c0.7,2.8,1.3,5.5,1.8,7.9c0,0.1,0,0.1,0,0.2C535.8,380,531.1,382.4,523.3,382.4z M511.7,380.3
				c1.1,0.2,6.1,1.3,11.3,1.4c5.3,0,11.8-1,13.2-6.2c-0.6-2.4-1.2-5.1-1.8-7.8c-4.6-19.8-11.4-49.8-24.1-76.3
				c-15.1-31.6-35-51.1-59.1-58c-22.5-6.4-38.1-4.7-47.2-2.2c-9,2.5-13.7,6.3-14.4,7c0,1,0.3,7.3,5.8,14.3
				c5.5,7.1,17.4,16.7,43.3,21.3c11.6,2.1,22.6,9,32.8,20.6c8.2,9.2,15.8,21.4,22.8,36.3C505.3,354.6,511.1,377.8,511.7,380.3z"/>
		</g>
		<g>
			<path class="st1" d="M431.4,136.9c0,0,1.9,10.8,0,11.9c-1.9,1.2-9.1-0.8-9-1.4c0.1-0.6,1.7-9.3,1.7-9.3L431.4,136.9z"/>
			<path class="st1" d="M429.5,149.5c-2.6,0-6.3-1-7.1-1.6c-0.3-0.2-0.4-0.4-0.3-0.6c0.1-0.6,1.6-9.3,1.7-9.3c0-0.2,0.1-0.3,0.3-0.3
				l7.3-1.2c0.2,0,0.4,0.1,0.4,0.3c0.3,1.8,1.9,11.1-0.2,12.3C431.1,149.4,430.3,149.5,429.5,149.5z M422.8,147.3
				c0.8,0.6,6.7,2.2,8.4,1.2c1.1-0.7,0.6-6.8-0.1-11.2l-6.7,1.1C424.1,139.8,423,146.2,422.8,147.3z"/>
		</g>
		<g>
			<path class="st2" d="M473.9,195.2c-2.8,0.5-5.9,1.5-12.3,4.1c-18.1,4.8,3-41.9-27.6-51.3l-1.8,66.2c20.2,2.8,38.1-9.4,42.2-10.2
				C476.9,203.5,478.3,195.2,473.9,195.2z"/>
			<path class="st1" d="M438.3,215c-2,0-4.1-0.1-6.2-0.4c-0.2,0-0.3-0.2-0.3-0.4l1.8-66.2c0-0.1,0.1-0.2,0.1-0.3
				c0.1-0.1,0.2-0.1,0.3-0.1c17.4,5.4,18.4,22.9,19,35.8c0.4,7,0.7,13.1,3.5,15.1c1.2,0.9,2.8,1,4.9,0.5c6.3-2.5,9.5-3.6,12.3-4.1
				c0,0,0.1,0,0.1,0c1.7,0,2.9,1.2,3.1,3.3c0.3,2.5-0.8,5.8-2.6,6.1c-0.9,0.2-2.7,1-4.9,2C463,209.5,451.4,215,438.3,215z
				 M432.6,213.9c15.2,2,29.2-4.6,36.7-8.1c2.3-1.1,4-1.9,5-2.1c1.2-0.2,2.3-3,2-5.3c-0.1-1-0.6-2.7-2.4-2.7c0,0,0,0,0,0
				c-2.8,0.5-5.9,1.5-12.2,4.1c0,0,0,0,0,0c-2.3,0.6-4.2,0.4-5.5-0.6c-3.1-2.3-3.4-8.2-3.8-15.7c-0.7-13.2-1.5-29.6-18.1-35
				L432.6,213.9z M461.7,199.3L461.7,199.3L461.7,199.3z"/>
		</g>
		<g>
			<path class="st2" d="M474.2,196.1c0,0,8.6,0.5,10.4,3.4c1.8,2.9,1.5,9.2,1.5,9.2s-2.8,2.6-6.4,0.4c-3.6-2.1-3.7-6.4-6.2-6.7
				C470.4,200.2,472.3,196.7,474.2,196.1z"/>
			<path class="st1" d="M482.6,210.4c-0.9,0-2-0.2-3.1-0.9c-1.9-1.1-2.8-2.8-3.6-4.2c-0.8-1.3-1.4-2.3-2.4-2.5c-0.1,0-0.1,0-0.2-0.1
				c-1.9-1.4-1.9-3.1-1.7-3.9c0.3-1.4,1.3-2.7,2.5-3.1c0,0,0.1,0,0.1,0c0.4,0,8.8,0.6,10.7,3.6c1.8,2.9,1.5,9.2,1.5,9.4
				c0,0.1,0,0.2-0.1,0.2C486.3,209,484.8,210.4,482.6,210.4z M473.6,202.2c1.4,0.2,2.1,1.4,2.9,2.8c0.8,1.3,1.7,2.9,3.4,3.9
				c3,1.8,5.3,0.1,5.9-0.3c0-1,0.1-6.3-1.4-8.9c-1.6-2.6-9.3-3.2-10.1-3.2c-0.9,0.3-1.8,1.4-2,2.5
				C472.1,200.2,472.5,201.3,473.6,202.2z"/>
		</g>
		<g>
			<path class="st2" d="M438.6,150c-6.9-4.5-16.5-5.8-30.4-2.8c0,0-15.5,0.8-18.6,20.8c-3.6,23.9-2.2,72-2.2,72s67.9,0.5,72.4-16.6
				c-7.1-11.2-13.2-16.4-11.9-38.4L438.6,150z"/>
			<path class="st1" d="M387.9,240.4c-0.4,0-0.6,0-0.6,0c-0.2,0-0.4-0.2-0.4-0.3c0-0.5-1.4-48.4,2.3-72.1
				c1.6-10.4,6.6-15.6,10.6-18.1c4.2-2.6,7.9-2.9,8.3-3c13.3-2.8,23.3-1.9,30.6,2.9c0.2,0.1,0.2,0.3,0.1,0.5
				c-0.1,0.2-0.3,0.2-0.5,0.1c-7.1-4.7-17-5.6-30.1-2.8c0,0,0,0-0.1,0c0,0-3.9,0.2-8,2.9c-3.8,2.4-8.7,7.5-10.2,17.6
				c-3.4,22.5-2.4,67.2-2.3,71.6c0,0,0.1,0,0.2,0c6.2,0,67-0.4,71.6-16.2c-1-1.5-1.9-2.9-2.8-4.3c-5.7-8.5-10.1-15.1-9.1-34.1
				c0-0.2,0.2-0.4,0.4-0.3c0.2,0,0.3,0.2,0.3,0.4c-1,18.8,3.2,25,9,33.7c0.9,1.4,1.9,2.9,2.9,4.5c0.1,0.1,0.1,0.2,0,0.3
				c-1.9,7.3-14.8,12.3-38.2,15C406.4,240.3,391.1,240.4,387.9,240.4z"/>
		</g>
		<g>
			<polygon class="st1" points="462.4,235 490.4,216.7 488.9,216.7 464.3,230.9 			"/>
			<path class="st1" d="M462.4,235.3c-0.1,0-0.2,0-0.2-0.1c-0.1-0.1-0.2-0.3-0.1-0.4l2-4.1c0-0.1,0.1-0.1,0.1-0.2l24.6-14.2
				c0.1,0,0.1,0,0.2,0h1.5c0.2,0,0.3,0.1,0.3,0.3c0,0.2,0,0.3-0.1,0.4l-28,18.3C462.5,235.3,462.4,235.3,462.4,235.3z M464.6,231.2
				l-1.4,2.8l25.9-16.9H489L464.6,231.2z"/>
		</g>
		<g>
			<polygon class="st1" points="429.2,220.5 464.5,231.2 462.4,235 427.5,223.4 			"/>
			<path class="st1" d="M462.4,235.3c0,0-0.1,0-0.1,0l-34.8-11.6c-0.1,0-0.2-0.1-0.2-0.2c0-0.1,0-0.2,0-0.3l1.7-2.9
				c0.1-0.1,0.3-0.2,0.4-0.2l35.3,10.7c0.1,0,0.2,0.1,0.2,0.2c0,0.1,0,0.2,0,0.3l-2.2,3.8C462.6,235.3,462.5,235.3,462.4,235.3z
				 M428.1,223.2l34.1,11.3l1.8-3.1l-34.6-10.5L428.1,223.2z"/>
		</g>
		<g>
			<path class="st2" d="M467.6,204c-1.2,0.3-38.4,16.5-38.4,16.5l35.3,10.7l28.7-18.1L467.6,204z"/>
			<path class="st1" d="M464.5,231.6c0,0-0.1,0-0.1,0l-35.3-10.7c-0.1,0-0.2-0.2-0.3-0.3c0-0.2,0.1-0.3,0.2-0.4
				c3.8-1.7,37.3-16.3,38.5-16.5c0.1,0,0.1,0,0.2,0l25.6,9.1c0.1,0,0.2,0.2,0.2,0.3c0,0.1,0,0.3-0.2,0.3l-28.7,18.1
				C464.7,231.5,464.6,231.6,464.5,231.6z M430.2,220.5l34.2,10.3l27.9-17.6l-24.8-8.8C465.7,205,440.9,215.8,430.2,220.5z"/>
		</g>
		<g>
			<polygon class="st1" points="495.6,194.3 464.3,230.9 466.7,232.4 497.4,196.1 			"/>
			<path class="st1" d="M466.7,232.7c-0.1,0-0.1,0-0.2-0.1l-2.3-1.4c-0.1-0.1-0.1-0.1-0.2-0.3s0-0.2,0.1-0.3l31.3-36.6
				c0.1-0.1,0.2-0.1,0.3-0.1c0.1,0,0.2,0,0.3,0.1l1.8,1.8c0.1,0.1,0.1,0.3,0,0.5l-30.8,36.2C466.9,232.7,466.8,232.7,466.7,232.7z
				 M464.9,230.8l1.7,1.1l30.4-35.8l-1.3-1.3L464.9,230.8z"/>
		</g>
		<g>
			<polygon class="st1" points="526.5,176.7 495.6,194.3 497.4,196.1 527.6,178.5 			"/>
			<path class="st1" d="M497.4,196.5c-0.1,0-0.2,0-0.3-0.1l-1.8-1.8c-0.1-0.1-0.1-0.2-0.1-0.3c0-0.1,0.1-0.2,0.2-0.3l30.8-17.6
				c0.2-0.1,0.4,0,0.5,0.1l1.1,1.8c0.1,0.1,0.1,0.2,0,0.3c0,0.1-0.1,0.2-0.2,0.2l-30.1,17.6C497.6,196.5,497.5,196.5,497.4,196.5z
				 M496.2,194.4l1.3,1.3l29.6-17.3l-0.8-1.2L496.2,194.4z"/>
		</g>
		<g>
			<polygon class="st2" points="466.7,232.4 498.7,213.3 527.6,178.5 497.4,196.1 			"/>
			<path class="st1" d="M466.7,232.7c-0.1,0-0.2,0-0.3-0.1c-0.1-0.1-0.1-0.3,0-0.5l30.8-36.2c0,0,0.1-0.1,0.1-0.1l30.1-17.6
				c0.2-0.1,0.3-0.1,0.5,0.1c0.1,0.1,0.1,0.3,0,0.5L499,213.5c0,0-0.1,0.1-0.1,0.1l-32,19.1C466.8,232.7,466.7,232.7,466.7,232.7z
				 M497.7,196.4l-29.3,34.5l30.1-18l27.5-33.1L497.7,196.4z"/>
		</g>
		<g>
			<path class="st2" d="M403.7,148.3c0,0-43.2,12.9-30.5,57.1c9.5,33.2,49.6,13.2,59.6,7.7c4-2.2,2.6-8.2-2.7-8.1
				c-1.5,0.6-3.3,1.2-5.3,2.1c-11.4,4.6-40.8,0.3-34.7-25.8L403.7,148.3z"/>
			<path class="st1" d="M397.5,224.4c-3.8,0-7.5-0.6-10.9-2c-6.7-2.8-11.4-8.5-13.8-17c-2.9-10.2-3.1-19.5-0.6-27.8
				c2-6.6,5.8-12.6,11.2-17.7c9.2-8.7,20-12,20.2-12.1c0.2-0.1,0.4,0.1,0.4,0.2c0.1,0.2-0.1,0.4-0.2,0.4c-0.1,0-10.8,3.3-19.9,11.9
				c-8.3,7.9-16.9,22.1-10.4,44.8c2.4,8.3,6.9,13.8,13.4,16.5c3.3,1.4,6.9,1.9,10.6,1.9c14.1,0,29.7-8,35.1-11
				c1.7-0.9,2.5-2.6,2-4.4c-0.4-1.4-1.7-3-4.4-3c0,0,0,0-0.1,0c-1.5,0.5-3.2,1.2-5.2,2c-6.7,2.7-21.1,2.5-29.6-4.8
				c-5.8-5-7.7-12.4-5.6-21.4c0-0.2,0.2-0.3,0.4-0.3c0.2,0,0.3,0.2,0.3,0.4c-2.1,8.7-0.2,15.9,5.4,20.7c8.3,7.1,22.3,7.3,28.8,4.7
				c2.1-0.8,3.8-1.5,5.3-2.1c0,0,0.1,0,0.1,0c2.6,0,4.6,1.4,5.2,3.6c0.5,2.1-0.4,4.2-2.4,5.2C427.5,216.4,411.7,224.4,397.5,224.4z"
				/>
		</g>
		<g>
			<path class="st2" d="M424.2,151.6l0.8-11.4c0,0,16.3,5.5,16.8-21.3c0.3-16.3-14.1-20.3-22.5-11.7c-8.4,8.6-3.6,23.2-5.6,29.4
				c-1.4,4.1-6.1,10-7.8,13.7C405,152,418.7,159.8,424.2,151.6z"/>
			<path class="st1" d="M416.9,155.6c-3.2,0-6.4-1.2-8.4-2.3c-1.7-1-3.4-2.4-3-3.3c0.7-1.5,1.9-3.4,3.2-5.4c1.9-2.9,3.8-5.9,4.5-8.2
				c0.7-2,0.6-5,0.5-8.4c-0.2-6.8-0.4-15.3,5.2-21.1c4.1-4.2,9.9-5.6,14.8-3.6c5.3,2.2,8.4,8,8.3,15.6c-0.2,10.1-2.6,16.9-7.2,20.1
				c-4,2.8-8.2,2-9.6,1.7l-0.7,11c0,0.1,0,0.1-0.1,0.2C422.6,154.7,419.8,155.6,416.9,155.6z M429.2,103.1c-3.4,0-6.9,1.5-9.7,4.3
				c-5.5,5.6-5.2,13.9-5,20.5c0.1,3.5,0.2,6.5-0.5,8.7c-0.8,2.5-2.7,5.5-4.6,8.4c-1.3,2-2.5,3.9-3.2,5.3c-0.1,0.2,0.5,1.2,2.7,2.4
				c3.5,2,11.2,4.3,15-1.2l0.8-11.3c0-0.1,0.1-0.2,0.2-0.3c0.1-0.1,0.2-0.1,0.3,0c0,0,5,1.6,9.4-1.4c4.4-3.1,6.7-9.7,6.9-19.5
				c0.1-7.3-2.7-12.7-7.8-14.9C432.2,103.4,430.7,103.1,429.2,103.1z M424.2,151.6L424.2,151.6L424.2,151.6z"/>
		</g>
	</g>
	<g>
		<path class="st1" d="M396.9,151.1c0,0,8.1-2.5,12.7-3.3c10.6-2.5,9.1-13.6,8.5-21.5c-0.7-7.9,2.4-9.6,3.8-8.7
			c1.4,0.9,6-0.7,7.4-3.9c8.5,0.2,7.8,8.1,14.7,9.5c0,0,7.6-10.9,2.2-18.4c-5.4-7.5-13.3-4.8-13.3-4.8s-9.7-8.5-20.1,0.5
			S396.2,145,396.9,151.1z"/>
		<path class="st1" d="M396.9,151.5c-0.1,0-0.1,0-0.2-0.1c-0.1-0.1-0.1-0.2-0.2-0.3c-0.4-3.2,1-13.8,3.7-24.3
			c1.9-7.7,6.1-21.3,12.1-26.6c9.8-8.5,19.1-1.7,20.5-0.6c1.3-0.4,8.5-2,13.5,5c5.5,7.6-1.8,18.3-2.2,18.8c-0.1,0.1-0.2,0.2-0.4,0.1
			c-3.2-0.6-4.9-2.7-6.5-4.7c-1.9-2.4-3.6-4.6-7.9-4.8c-0.9,2-3,3.3-4.7,3.8c-1.3,0.4-2.5,0.4-3.1,0c-0.4-0.2-0.8-0.2-1.3,0.1
			c-0.6,0.4-2.5,2-1.9,8.3l0.1,1c0.7,7.8,1.6,18.4-8.8,20.9c-4.6,0.8-12.6,3.3-12.7,3.3C397,151.5,396.9,151.5,396.9,151.5z
			 M422.8,96.8c-3,0-6.5,1-10,4.1c-10,8.6-16,42.6-15.6,49.8c1.7-0.5,8.3-2.5,12.3-3.2c9.8-2.3,9-12.2,8.2-20.1l-0.1-1
			c-0.6-6.5,1.4-8.4,2.3-9c0.7-0.4,1.5-0.5,2-0.1c0.4,0.3,1.4,0.2,2.5-0.1c1.6-0.5,3.6-1.7,4.4-3.6c0.1-0.1,0.2-0.2,0.3-0.2
			c4.8,0.1,6.8,2.6,8.7,5c1.5,1.9,3,3.8,5.8,4.4c1-1.5,6.9-11.1,2-17.8c-5.2-7.2-12.6-4.8-12.9-4.7c-0.1,0-0.3,0-0.4-0.1
			C432.3,100.1,428.3,96.8,422.8,96.8z"/>
	</g>
	<g>
		<path class="st2" d="M430.5,206c0,0,9.9-3.5,15-1.2s6.6,14.9,6.6,14.9s-0.3,0.8-1.7,0c-1.4-0.8-3.6-8.2-3.6-8.2s-0.8,3.9-4,4.8
			c-3.3,0.9-6.8-1.8-7.7-2.8c-0.9-1-4.5-1.4-4.5-1.4S428.8,208.7,430.5,206z"/>
		<path class="st1" d="M451.5,220.4c-0.4,0-0.8-0.1-1.3-0.4c-1.2-0.7-2.7-5.1-3.4-7.3c-0.5,1.3-1.6,3.3-3.9,3.9
			c-3.4,0.9-7.2-1.9-8.1-2.9c-0.6-0.7-2.9-1.1-4.3-1.3c-0.1,0-0.2-0.1-0.3-0.2c-0.1-0.1-1.8-3.5,0-6.4c0-0.1,0.1-0.1,0.2-0.1
			c0.4-0.1,10.1-3.5,15.2-1.2c5.2,2.4,6.7,14.6,6.8,15.1c0,0.1,0,0.1,0,0.2c0,0-0.2,0.4-0.6,0.5
			C451.7,220.4,451.6,220.4,451.5,220.4z M446.8,211.1c0.2,0,0.3,0.1,0.3,0.3c0.8,2.8,2.5,7.5,3.4,8c0.6,0.4,0.9,0.3,1.1,0.3
			c0.1,0,0.1,0,0.1-0.1c-0.2-1.3-1.8-12.4-6.4-14.4c-4.6-2.1-13.5,0.8-14.6,1.2c-1.3,2.1-0.3,4.7,0,5.4c0.8,0.1,3.7,0.5,4.5,1.5
			c0.8,1,4.2,3.6,7.3,2.7c3-0.8,3.8-4.5,3.8-4.6C446.5,211.2,446.6,211.1,446.8,211.1C446.8,211.1,446.8,211.1,446.8,211.1z"/>
	</g>
	<g>
		<path class="st1" d="M362.8,326c-0.2,0-0.4-0.1-0.5-0.3c-0.1-0.3,0-0.6,0.3-0.7l54.5-24.9c0.3-0.1,0.6,0,0.7,0.3
			c0.1,0.3,0,0.6-0.3,0.7L363,325.9C363,325.9,362.9,326,362.8,326z"/>
	</g>
	<g>
		<path class="st1" d="M351.4,345.6c-0.2,0-0.4-0.1-0.5-0.3c-0.1-0.3,0-0.6,0.3-0.7l53.9-25.3c0.3-0.1,0.6,0,0.7,0.3
			c0.1,0.3,0,0.6-0.3,0.7l-53.9,25.3C351.5,345.6,351.5,345.6,351.4,345.6z"/>
	</g>
	<g>
		<path class="st1" d="M341,364.7c-0.2,0-0.4-0.1-0.5-0.3c-0.1-0.3,0-0.6,0.3-0.7l56.4-26.4c0.3-0.1,0.6,0,0.7,0.3
			c0.1,0.3,0,0.6-0.3,0.7l-56.4,26.4C341.2,364.7,341.1,364.7,341,364.7z"/>
	</g>
	<g>
		<path class="st1" d="M298.9,242.8c-0.2,0-0.4-0.1-0.5-0.3c-0.1-0.3,0-0.6,0.2-0.7l46.5-24.7c0.3-0.1,0.6,0,0.7,0.2
			c0.1,0.3,0,0.6-0.2,0.7l-46.5,24.7C299.1,242.8,299,242.8,298.9,242.8z"/>
	</g>
	<g>
		<path class="st1" d="M270.4,267.6c-0.2,0-0.4-0.1-0.5-0.3c-0.1-0.3,0-0.6,0.3-0.7l61.1-29.4c0.3-0.1,0.6,0,0.7,0.3
			c0.1,0.3,0,0.6-0.3,0.7l-61.1,29.4C270.5,267.6,270.5,267.6,270.4,267.6z"/>
	</g>
	<g>
		<path class="st1" d="M260.5,302.3c-0.2,0-0.4-0.1-0.5-0.3c-0.1-0.3,0-0.6,0.2-0.7l71.2-36.6c0.3-0.1,0.6,0,0.7,0.2
			c0.1,0.3,0,0.6-0.2,0.7l-71.2,36.6C260.7,302.3,260.6,302.3,260.5,302.3z"/>
	</g>
	<g>
		<path class="st1" d="M296.1,315c-0.2,0-0.3-0.1-0.4-0.2c-0.2-0.2-0.1-0.6,0.1-0.7l20.9-14c0.2-0.2,0.6-0.1,0.7,0.1
			c0.2,0.2,0.1,0.6-0.1,0.7l-20.9,14C296.3,315,296.2,315,296.1,315z"/>
	</g>
	<g>
		<path class="st1" d="M259.3,288.1c-0.2,0-0.4-0.1-0.5-0.3c-0.1-0.3,0-0.6,0.2-0.7l66.8-32.5c0.3-0.1,0.6,0,0.7,0.2
			c0.1,0.3,0,0.6-0.2,0.7l-66.8,32.5C259.5,288.1,259.4,288.1,259.3,288.1z"/>
	</g>
	<g>
		<path class="st1" d="M288.3,169.9c-0.2,0-0.4-0.1-0.5-0.3c-0.1-0.3-0.1-0.6,0.2-0.7l57-31.8c0.3-0.1,0.6-0.1,0.7,0.2
			c0.1,0.3,0.1,0.6-0.2,0.7l-57,31.8C288.5,169.9,288.4,169.9,288.3,169.9z"/>
	</g>
	<g>
		<g>
			<path class="st1" d="M126.6,236.2c-0.1,0-0.1,0-0.2,0l-27.8-12.6c-0.2-0.1-0.3-0.2-0.3-0.4c0-0.2,0.1-0.4,0.2-0.5l24-19.6
				c0.1-0.1,0.3-0.1,0.5-0.1c0.2,0.1,0.3,0.2,0.3,0.4l3.8,32.1c0,0.2-0.1,0.4-0.2,0.5C126.8,236.2,126.7,236.2,126.6,236.2z
				 M99.8,223l26.2,11.8l-3.6-30.3L99.8,223z"/>
		</g>
		<g>
			<polygon class="st1" points="87.3,331.4 76.4,329.5 65.6,327.6 72.6,318.5 79.5,309.4 83.4,320.4 			"/>
			<path class="st1" d="M87.3,331.7C87.2,331.7,87.2,331.7,87.3,331.7L65.6,328c-0.1,0-0.2-0.1-0.3-0.2c0-0.1,0-0.3,0.1-0.4
				l13.9-18.2c0.1-0.1,0.2-0.1,0.3-0.1c0.1,0,0.2,0.1,0.3,0.2l7.8,22c0,0.1,0,0.3-0.1,0.4C87.5,331.7,87.4,331.7,87.3,331.7z
				 M66.2,327.4l20.5,3.6l-7.4-20.8L66.2,327.4z"/>
		</g>
	</g>
	<g>
		<path class="st2" d="M415,158.6c0,0,2.9,0.6,5.3-1.5c2.8,3.9,2.4,18.4,2.1,23.8L415,158.6z"/>
		<path class="st1" d="M422.4,181.3C422.4,181.3,422.4,181.3,422.4,181.3c-0.2,0-0.4-0.2-0.4-0.4c0.2-4.4,0.7-18.9-1.8-23.3
			c-2.5,1.8-5.2,1.3-5.3,1.3c-0.2,0-0.3-0.2-0.3-0.4c0-0.2,0.2-0.3,0.4-0.3c0,0,2.7,0.5,5-1.4c0.1-0.1,0.2-0.1,0.3-0.1
			c0.1,0,0.2,0.1,0.2,0.1c2.8,4,2.5,18.1,2.2,24C422.8,181.2,422.6,181.3,422.4,181.3z"/>
	</g>
	<g>
		<path class="st2" d="M445.1,164.3c0,0,3.8,8.6,2.9,15.9L445.1,164.3z"/>
		<path class="st1" d="M448,180.5C448,180.5,448,180.5,448,180.5c-0.2,0-0.4-0.2-0.4-0.4c0.8-7.1-2.8-15.6-2.9-15.7
			c-0.1-0.2,0-0.4,0.2-0.5c0.2-0.1,0.4,0,0.5,0.2c0.2,0.4,3.8,8.8,2.9,16.1C448.3,180.4,448.2,180.5,448,180.5z"/>
	</g>
	<g>
		<path class="st1" d="M369.3,372c-0.2,0-0.4-0.1-0.5-0.3c-0.1-0.3,0-0.6,0.3-0.7l31.4-14.7c0.3-0.1,0.6,0,0.7,0.3
			c0.1,0.3,0,0.6-0.3,0.7L369.5,372C369.4,372,369.3,372,369.3,372z"/>
	</g>
	<g>
		<path class="st1" d="M421,98.4c0,0-2.6-13.2-13.7-7.7C396.2,96.2,403,122,403,122L421,98.4z"/>
		<path class="st1" d="M403,122.4C402.9,122.4,402.9,122.4,403,122.4c-0.2,0-0.3-0.1-0.3-0.3c-0.3-1.1-6.7-26.2,4.5-31.8
			c3.2-1.6,6.1-1.8,8.5-0.6c4.4,2.2,5.7,8.3,5.7,8.6c0,0.1,0,0.2-0.1,0.3l-18.1,23.7C403.2,122.4,403.1,122.4,403,122.4z
			 M412.3,89.7c-1.5,0-3.1,0.4-4.9,1.3c-9.7,4.8-5.3,26-4.3,30.2l17.5-23c-0.2-1-1.6-6.1-5.3-7.9C414.4,89.9,413.4,89.7,412.3,89.7z
			"/>
	</g>
	<g>
		<polygon class="st4" points="498.1,279.5 493.2,287.9 501.9,284.6 499,290.8 503.2,290.8 		"/>
		<path class="st1" d="M503.2,291.1H499c-0.1,0-0.2-0.1-0.3-0.2c-0.1-0.1-0.1-0.2,0-0.3l2.5-5.3l-7.8,3c-0.1,0.1-0.3,0-0.4-0.1
			c-0.1-0.1-0.1-0.3,0-0.4l4.9-8.3c0.1-0.2,0.3-0.2,0.5-0.1c0.2,0.1,0.2,0.3,0.1,0.5l-4.4,7.5l7.7-2.9c0.1-0.1,0.3,0,0.4,0.1
			c0.1,0.1,0.1,0.3,0.1,0.4l-2.7,5.6h3.7c0.2,0,0.4,0.2,0.4,0.4C503.6,291,503.4,291.1,503.2,291.1z"/>
	</g>
	<g>
		<polygon class="st4" points="522.8,271.4 519.1,276.9 524.6,276.9 520,281 522.8,282.6 		"/>
		<path class="st1" d="M522.8,282.9c-0.1,0-0.1,0-0.2,0l-2.8-1.5c-0.1-0.1-0.2-0.2-0.2-0.3c0-0.1,0-0.2,0.1-0.3l3.9-3.5h-4.5
			c-0.1,0-0.3-0.1-0.3-0.2c-0.1-0.1-0.1-0.3,0-0.4l3.7-5.6c0.1-0.2,0.3-0.2,0.5-0.1c0.2,0.1,0.2,0.3,0.1,0.5l-3.3,5h4.8
			c0.1,0,0.3,0.1,0.3,0.2c0.1,0.1,0,0.3-0.1,0.4l-4.2,3.8l2.4,1.3c0.2,0.1,0.2,0.3,0.1,0.5C523.1,282.9,522.9,282.9,522.8,282.9z"/>
	</g>
</g>
<g>
	<g>
		<g>
			<path class="st1" d="M1017.6,491.7l183.6-8.6l-51.1-256.9c-2.4-12.5-13.4-21.4-26.1-21.4h-135c-16.7,0-29.3,15.2-26.1,31.6
				L1017.6,491.7z"/>
			<path class="st1" d="M1017.6,492c-0.1,0-0.3-0.1-0.3-0.3l-54.5-255.4c-1.5-7.9,0.5-16,5.6-22.2c5.1-6.2,12.7-9.8,20.7-9.8h135
				c12.8,0,23.9,9.1,26.4,21.7l51,256.9c0,0.1,0,0.2-0.1,0.3c-0.1,0.1-0.1,0.1-0.2,0.1L1017.6,492C1017.6,492,1017.6,492,1017.6,492
				z M989.2,205c-7.9,0-15.2,3.5-20.2,9.6c-5,6.1-7,14-5.5,21.7l54.4,255.1l183-8.6l-51-256.5c-2.4-12.3-13.2-21.2-25.7-21.2H989.2z
				"/>
		</g>
		<g>
			<path class="st1" d="M1030.6,194.7h12.2l-2.2-11c-1.3-6.3,2.9-11.5,9.2-11.5l0,0c6.3,0,12.5,5.1,13.7,11.5l2.2,11h12
				c3.6,0,6.7,2.2,8,5.5l4,10.2h-65.9l-1.4-4.3C1020.5,200.5,1024.7,194.7,1030.6,194.7z"/>
			<path class="st1" d="M1089.7,210.7h-65.9c-0.1,0-0.3-0.1-0.3-0.2l-1.4-4.3c-0.9-2.8-0.5-5.7,1.2-8.1c1.7-2.4,4.4-3.7,7.3-3.7
				h11.8l-2.1-10.6c-0.6-3.2,0-6.2,1.9-8.4c1.8-2.2,4.5-3.4,7.6-3.4c6.5,0,12.8,5.3,14,11.7l2.1,10.8h11.8c3.7,0,7,2.2,8.3,5.7
				l4,10.2c0,0.1,0,0.2,0,0.3C1089.9,210.7,1089.8,210.7,1089.7,210.7z M1024.1,210.1h65.2l-3.8-9.8c-1.3-3.2-4.3-5.3-7.7-5.3h-12
				c-0.2,0-0.3-0.1-0.3-0.3l-2.2-11c-1.2-6.2-7.2-11.2-13.4-11.2c-2.9,0-5.5,1.1-7.1,3.2c-1.7,2.1-2.3,4.9-1.7,7.9l2.2,11
				c0,0.1,0,0.2-0.1,0.3s-0.2,0.1-0.2,0.1h-12.2c-2.7,0-5.2,1.3-6.8,3.5c-1.6,2.2-2,4.9-1.1,7.5L1024.1,210.1z"/>
		</g>
		<g>
			<path class="st2" d="M1025.4,490.4l183.6-8.6L1158,224.9c-2.4-12.5-13.4-21.4-26.1-21.4H997c-16.7,0-29.3,15.2-26.1,31.6
				L1025.4,490.4z"/>
			<path class="st1" d="M1025.4,490.8c-0.1,0-0.3-0.1-0.3-0.3l-54.5-255.4c-1.5-7.9,0.5-16,5.6-22.2c5.1-6.2,12.7-9.8,20.7-9.8h135
				c12.8,0,23.9,9.1,26.4,21.7l51,256.9c0,0.1,0,0.2-0.1,0.3c-0.1,0.1-0.1,0.1-0.2,0.1L1025.4,490.8
				C1025.4,490.8,1025.4,490.8,1025.4,490.8z M997,203.8c-7.9,0-15.2,3.5-20.2,9.6c-5,6.1-7,14-5.5,21.7l54.4,255.1l183-8.6
				l-51-256.5c-2.4-12.3-13.2-21.2-25.7-21.2H997z"/>
		</g>
		<g>
			<ellipse class="st2" cx="1130" cy="256.3" rx="14" ry="12.1"/>
			<path class="st1" d="M1130,268.7c-7.9,0-14.3-5.6-14.3-12.4s6.4-12.4,14.3-12.4s14.3,5.6,14.3,12.4S1137.9,268.7,1130,268.7z
				 M1130,244.5c-7.5,0-13.7,5.3-13.7,11.8c0,6.5,6.1,11.8,13.7,11.8c7.5,0,13.7-5.3,13.7-11.8
				C1143.6,249.8,1137.5,244.5,1130,244.5z"/>
		</g>
		<g>
			<ellipse class="st1" cx="1135.9" cy="285.5" rx="14" ry="12.1"/>
			<path class="st1" d="M1135.9,297.9c-7.9,0-14.3-5.6-14.3-12.4s6.4-12.4,14.3-12.4c7.9,0,14.3,5.6,14.3,12.4
				S1143.8,297.9,1135.9,297.9z M1135.9,273.7c-7.5,0-13.7,5.3-13.7,11.8c0,6.5,6.1,11.8,13.7,11.8s13.7-5.3,13.7-11.8
				C1149.6,279,1143.4,273.7,1135.9,273.7z"/>
		</g>
		<g>
			<ellipse class="st2" cx="1141.8" cy="313.2" rx="14" ry="12.1"/>
			<path class="st1" d="M1141.8,325.6c-7.9,0-14.3-5.6-14.3-12.4c0-6.8,6.4-12.4,14.3-12.4c7.9,0,14.3,5.6,14.3,12.4
				C1156.1,320.1,1149.7,325.6,1141.8,325.6z M1141.8,301.4c-7.5,0-13.7,5.3-13.7,11.8c0,6.5,6.1,11.8,13.7,11.8s13.7-5.3,13.7-11.8
				C1155.5,306.7,1149.4,301.4,1141.8,301.4z"/>
		</g>
		<g>
			<ellipse class="st2" cx="1146.8" cy="340.4" rx="14" ry="12.1"/>
			<path class="st1" d="M1146.8,352.8c-7.9,0-14.3-5.6-14.3-12.4s6.4-12.4,14.3-12.4s14.3,5.6,14.3,12.4S1154.7,352.8,1146.8,352.8z
				 M1146.8,328.6c-7.5,0-13.7,5.3-13.7,11.8c0,6.5,6.1,11.8,13.7,11.8c7.5,0,13.7-5.3,13.7-11.8
				C1160.5,333.9,1154.3,328.6,1146.8,328.6z"/>
		</g>
		<g>
			<ellipse class="st2" cx="1153.7" cy="372" rx="14" ry="12.1"/>
			<path class="st1" d="M1153.7,384.4c-7.9,0-14.3-5.6-14.3-12.4s6.4-12.4,14.3-12.4s14.3,5.6,14.3,12.4S1161.6,384.4,1153.7,384.4z
				 M1153.7,360.2c-7.5,0-13.7,5.3-13.7,11.8c0,6.5,6.1,11.8,13.7,11.8s13.7-5.3,13.7-11.8C1167.4,365.5,1161.2,360.2,1153.7,360.2z
				"/>
		</g>
		<g>
			<ellipse class="st2" cx="1158.9" cy="401.4" rx="14" ry="12.1"/>
			<path class="st1" d="M1158.9,413.8c-7.9,0-14.3-5.6-14.3-12.4s6.4-12.4,14.3-12.4s14.3,5.6,14.3,12.4S1166.8,413.8,1158.9,413.8z
				 M1158.9,389.6c-7.5,0-13.7,5.3-13.7,11.8c0,6.5,6.1,11.8,13.7,11.8c7.5,0,13.7-5.3,13.7-11.8
				C1172.6,394.9,1166.4,389.6,1158.9,389.6z"/>
		</g>
		<g>
			<ellipse class="st2" cx="1166.6" cy="429.8" rx="14" ry="12.1"/>
			<path class="st1" d="M1166.6,442.2c-7.9,0-14.3-5.6-14.3-12.4c0-6.8,6.4-12.4,14.3-12.4s14.3,5.6,14.3,12.4
				C1180.9,436.6,1174.5,442.2,1166.6,442.2z M1166.6,418c-7.5,0-13.7,5.3-13.7,11.8c0,6.5,6.1,11.8,13.7,11.8
				c7.5,0,13.7-5.3,13.7-11.8C1180.3,423.3,1174.2,418,1166.6,418z"/>
		</g>
		<g>
			<g>
				<g>
					<polygon class="st2" points="1116,319 1014.7,319 1012.7,310.3 1114,310.3 					"/>
				</g>
				<g>
					<polygon class="st2" points="1121.9,348.2 1020.6,348.2 1018.7,339.4 1119.9,339.4 					"/>
				</g>
				<g>
					<polygon class="st2" points="1127.8,377.4 1026.6,377.4 1024.6,368.6 1125.1,368.6 					"/>
				</g>
				<g>
					<polygon class="st2" points="1133.8,406.6 1032.5,406.6 1030.5,397.8 1131.8,397.8 					"/>
				</g>
				<g>
					<polygon class="st2" points="1141.4,434.6 1040.1,434.6 1038.1,425.8 1139.4,425.8 					"/>
				</g>
			</g>
			<g>
				<g>
					<polygon class="st2" points="1116,319 1014.7,319 1012.7,310.3 1114,310.3 					"/>
					<path class="st1" d="M1116,319.4h-101.3c-0.1,0-0.3-0.1-0.3-0.2l-2-8.8c0-0.1,0-0.2,0.1-0.3c0.1-0.1,0.2-0.1,0.2-0.1H1114
						c0.1,0,0.3,0.1,0.3,0.2l2,8.8c0,0.1,0,0.2-0.1,0.3C1116.2,319.3,1116.1,319.4,1116,319.4z M1015,318.7h100.6l-1.8-8.2h-100.6
						L1015,318.7z"/>
				</g>
				<g>
					<polygon class="st3" points="1121.9,348.2 1020.6,348.2 1018.7,339.4 1119.9,339.4 					"/>
					<path class="st1" d="M1121.9,348.5h-101.3c-0.1,0-0.3-0.1-0.3-0.2l-2-8.8c0-0.1,0-0.2,0.1-0.3c0.1-0.1,0.2-0.1,0.2-0.1h101.3
						c0.1,0,0.3,0.1,0.3,0.2l2,8.8c0,0.1,0,0.2-0.1,0.3C1122.1,348.5,1122,348.5,1121.9,348.5z M1020.9,347.9h100.6l-1.8-8.2h-100.6
						L1020.9,347.9z"/>
				</g>
				<g>
					<polygon class="st2" points="1127.8,377.4 1026.6,377.4 1024.6,368.6 1125.1,368.6 					"/>
					<path class="st1" d="M1127.8,377.7h-101.3c-0.1,0-0.3-0.1-0.3-0.2l-2-8.8c0-0.1,0-0.2,0.1-0.3c0.1-0.1,0.2-0.1,0.2-0.1h100.5
						c0.1,0,0.3,0.1,0.3,0.2l2.7,8.8c0,0.1,0,0.2,0,0.3C1128,377.7,1128,377.7,1127.8,377.7z M1026.8,377.1h100.6l-2.5-8.2H1025
						L1026.8,377.1z"/>
				</g>
				<g>
					<polygon class="st3" points="1133.8,406.6 1032.5,406.6 1030.5,397.8 1131.8,397.8 					"/>
					<path class="st1" d="M1133.8,406.9h-101.3c-0.1,0-0.3-0.1-0.3-0.2l-2-8.8c0-0.1,0-0.2,0.1-0.3c0.1-0.1,0.2-0.1,0.2-0.1h101.3
						c0.1,0,0.3,0.1,0.3,0.2l2,8.8c0,0.1,0,0.2-0.1,0.3C1134,406.9,1133.9,406.9,1133.8,406.9z M1032.7,406.3h100.6l-1.8-8.2h-100.6
						L1032.7,406.3z"/>
				</g>
				<g>
					<polygon class="st2" points="1141.4,434.6 1040.1,434.6 1038.1,425.8 1139.4,425.8 					"/>
					<path class="st1" d="M1141.4,434.9h-101.3c-0.1,0-0.3-0.1-0.3-0.2l-2-8.8c0-0.1,0-0.2,0.1-0.3c0.1-0.1,0.2-0.1,0.2-0.1h101.3
						c0.1,0,0.3,0.1,0.3,0.2l2,8.8c0,0.1,0,0.2-0.1,0.3C1141.6,434.9,1141.5,434.9,1141.4,434.9z M1040.3,434.3H1141l-1.8-8.2
						h-100.6L1040.3,434.3z"/>
				</g>
			</g>
			<g>
				<g>
					<path class="st1" d="M1116,319.4h-101.3c-0.1,0-0.3-0.1-0.3-0.2l-2-8.8c0-0.1,0-0.2,0.1-0.3c0.1-0.1,0.2-0.1,0.2-0.1H1114
						c0.1,0,0.3,0.1,0.3,0.2l2,8.8c0,0.1,0,0.2-0.1,0.3C1116.2,319.3,1116.1,319.4,1116,319.4z M1015,318.7h100.6l-1.8-8.2h-100.6
						L1015,318.7z"/>
				</g>
				<g>
					<path class="st1" d="M1121.9,348.5h-101.3c-0.1,0-0.3-0.1-0.3-0.2l-2-8.8c0-0.1,0-0.2,0.1-0.3c0.1-0.1,0.2-0.1,0.2-0.1h101.3
						c0.1,0,0.3,0.1,0.3,0.2l2,8.8c0,0.1,0,0.2-0.1,0.3C1122.1,348.5,1122,348.5,1121.9,348.5z M1020.9,347.9h100.6l-1.8-8.2h-100.6
						L1020.9,347.9z"/>
				</g>
				<g>
					<path class="st1" d="M1127.8,377.7h-101.3c-0.1,0-0.3-0.1-0.3-0.2l-2-8.8c0-0.1,0-0.2,0.1-0.3c0.1-0.1,0.2-0.1,0.2-0.1h100.5
						c0.1,0,0.3,0.1,0.3,0.2l2.7,8.8c0,0.1,0,0.2,0,0.3C1128,377.7,1128,377.7,1127.8,377.7z M1026.8,377.1h100.6l-2.5-8.2H1025
						L1026.8,377.1z"/>
				</g>
				<g>
					<path class="st1" d="M1133.8,406.9h-101.3c-0.1,0-0.3-0.1-0.3-0.2l-2-8.8c0-0.1,0-0.2,0.1-0.3c0.1-0.1,0.2-0.1,0.2-0.1h101.3
						c0.1,0,0.3,0.1,0.3,0.2l2,8.8c0,0.1,0,0.2-0.1,0.3C1134,406.9,1133.9,406.9,1133.8,406.9z M1032.7,406.3h100.6l-1.8-8.2h-100.6
						L1032.7,406.3z"/>
				</g>
				<g>
					<path class="st1" d="M1141.4,434.9h-101.3c-0.1,0-0.3-0.1-0.3-0.2l-2-8.8c0-0.1,0-0.2,0.1-0.3c0.1-0.1,0.2-0.1,0.2-0.1h101.3
						c0.1,0,0.3,0.1,0.3,0.2l2,8.8c0,0.1,0,0.2-0.1,0.3C1141.6,434.9,1141.5,434.9,1141.4,434.9z M1040.3,434.3H1141l-1.8-8.2
						h-100.6L1040.3,434.3z"/>
				</g>
			</g>
		</g>
		<g>
			<path class="st2" d="M1034.1,194.7h12.2l-2.2-11c-1.3-6.3,2.9-11.5,9.2-11.5l0,0c6.3,0,12.5,5.1,13.7,11.5l2.2,11h12
				c3.6,0,6.7,2.2,8,5.5l4,10.2h-65.9l-1.4-4.3C1024,200.5,1028.2,194.7,1034.1,194.7z"/>
			<path class="st1" d="M1093.2,210.7h-65.9c-0.1,0-0.3-0.1-0.3-0.2l-1.4-4.3c-0.9-2.8-0.5-5.7,1.2-8.1c1.7-2.4,4.4-3.7,7.3-3.7
				h11.8l-2.1-10.6c-0.6-3.2,0-6.2,1.9-8.4c1.8-2.2,4.5-3.4,7.6-3.4c6.5,0,12.8,5.3,14,11.7l2.1,10.8h11.8c3.7,0,7,2.2,8.3,5.7
				l4,10.2c0,0.1,0,0.2,0,0.3C1093.4,210.7,1093.3,210.7,1093.2,210.7z M1027.5,210.1h65.2l-3.8-9.8c-1.3-3.2-4.3-5.3-7.7-5.3h-12
				c-0.2,0-0.3-0.1-0.3-0.3l-2.2-11c-1.2-6.2-7.2-11.2-13.4-11.2c-2.9,0-5.5,1.1-7.1,3.2c-1.7,2.1-2.3,4.9-1.7,7.9l2.2,11
				c0,0.1,0,0.2-0.1,0.3c-0.1,0.1-0.2,0.1-0.2,0.1h-12.2c-2.7,0-5.2,1.3-6.8,3.5c-1.6,2.2-2,4.9-1.1,7.5L1027.5,210.1z"/>
		</g>
		<g>
			<circle class="st1" cx="1055" cy="182.8" r="4.3"/>
			<path class="st1" d="M1055,187.4c-2.6,0-4.7-2.1-4.7-4.7s2.1-4.7,4.7-4.7c2.6,0,4.7,2.1,4.7,4.7S1057.5,187.4,1055,187.4z
				 M1055,178.7c-2.2,0-4,1.8-4,4s1.8,4,4,4c2.2,0,4-1.8,4-4S1057.2,178.7,1055,178.7z"/>
		</g>
	</g>
	<g>
		<g>
			<path class="st1" d="M1488.7,294.9c-0.1,0-0.2,0-0.3-0.1c-0.1-0.1-0.2-0.3-0.2-0.4l1.5-25.4c0-0.2,0.1-0.3,0.3-0.4
				c0.2-0.1,0.3-0.1,0.5,0l21.3,14c0.1,0.1,0.2,0.3,0.2,0.4c0,0.2-0.1,0.3-0.3,0.4l-22.8,11.4
				C1488.9,294.9,1488.8,294.9,1488.7,294.9z M1490.6,269.8l-1.4,23.8l21.3-10.7L1490.6,269.8z"/>
		</g>
		<g>
			<polygon class="st4" points="1431.5,262 1415.6,264.8 1399.8,267.5 1405.4,252.4 1410.9,237.3 1421.2,249.7 			"/>
			<path class="st1" d="M1399.8,267.8c-0.1,0-0.2,0-0.2-0.1c-0.1-0.1-0.1-0.2-0.1-0.3l11.1-30.2c0-0.1,0.1-0.2,0.2-0.2
				c0.1,0,0.2,0,0.3,0.1l20.6,24.7c0.1,0.1,0.1,0.2,0.1,0.3c0,0.1-0.1,0.2-0.2,0.2L1399.8,267.8
				C1399.8,267.8,1399.8,267.8,1399.8,267.8z M1411,238l-10.7,29.1l30.6-5.3L1411,238z"/>
		</g>
	</g>
	<g>
		<path class="st2" d="M1488.6,502.8c0-11.8-152.8-21.3-341.3-21.3S806,491,806,502.8c0,6.8,51.5,12.9,131.7,16.8
			c-1.9,1.5-3,3-3,4.5c0,15.7,105.7,28.3,236,28.3s236-12.7,236-28.3c0-2.4-2.5-4.7-7.2-7C1454.9,513.3,1488.6,508.3,1488.6,502.8z"
			/>
		<path class="st1" d="M1170.8,552.7c-63.1,0-122.4-2.9-167-8.3c-44.8-5.4-69.5-12.6-69.5-20.4c0-1.4,0.8-2.8,2.5-4.2
			c-39.7-1.9-72.5-4.5-95-7.3c-24-3-36.2-6.3-36.2-9.8c0-7.5,54.6-12.5,100.4-15.4c64.5-4,150.2-6.2,241.4-6.2s176.9,2.2,241.4,6.2
			c45.8,2.9,100.4,7.8,100.4,15.4c0,7-47.6,11.8-88.2,14.6c4.2,2.2,6.4,4.4,6.4,6.7c0,7.7-24.7,15-69.5,20.4
			C1293.2,549.8,1233.9,552.7,1170.8,552.7z M1147.3,481.8c-91.1,0-176.8,2.2-241.3,6.2c-31.3,2-55.9,4.2-73.1,6.8
			c-21.9,3.2-26.5,6.1-26.5,8c0,2.2,6.1,5.5,35.4,9.2c22.6,2.8,55.8,5.4,95.8,7.3c0.2,0,0.3,0.1,0.4,0.2c0.1,0.1,0,0.2-0.1,0.3
			c-1.9,1.4-2.8,2.9-2.8,4.3c0,7.3,25.1,14.5,68.8,19.7c44.6,5.3,103.8,8.3,166.8,8.3c63,0,122.3-2.9,166.8-8.3
			c43.7-5.2,68.8-12.4,68.8-19.7c0-2.2-2.3-4.5-7-6.7c-0.2-0.1-0.2-0.2-0.2-0.3c0-0.1,0.2-0.2,0.4-0.2c56.3-3.9,88.6-9,88.6-14
			c0-1.9-4.6-4.8-26.5-8c-17.2-2.5-41.8-4.8-73.1-6.8C1324.2,484,1238.5,481.8,1147.3,481.8z"/>
	</g>
	<g>
		<g>
			<path class="st2" d="M1182,489.9c0.1-0.8,0.1-1.4,0.1-1.9c0.3-3.7,2.5-7.8,2.5-7.8l-11.1-1.9c0,0-3.9,3.9-8.9,7.3
				C1169.6,489.5,1176.1,491.1,1182,489.9z"/>
			<path class="st1" d="M1178.2,490.6c-4.8,0-9.7-1.7-13.7-4.7c-0.1-0.1-0.1-0.2-0.1-0.3c0-0.1,0.1-0.2,0.1-0.3
				c4.9-3.4,8.8-7.2,8.8-7.3c0.1-0.1,0.2-0.1,0.3-0.1l11.1,1.9c0.1,0,0.2,0.1,0.2,0.2c0,0.1,0,0.2,0,0.3c0,0-2.1,4.1-2.4,7.7
				c0,0.4-0.1,1.1-0.1,1.9c0,0.1-0.1,0.3-0.3,0.3C1180.8,490.5,1179.5,490.6,1178.2,490.6z M1165.2,485.7c4.8,3.5,10.9,5,16.5,4
				c0-0.7,0.1-1.3,0.1-1.6c0.3-3.1,1.8-6.4,2.3-7.5l-10.5-1.8C1173,479.4,1169.5,482.7,1165.2,485.7z M1182,489.9L1182,489.9
				L1182,489.9z"/>
		</g>
		<g>
			<path class="st1" d="M1164.6,485.7c-3.5,2.4-7.5,4.5-11.2,5.1c-9.3,1.8-13.9,9.9-13.9,9.9s-0.7,2.9,0,3.5c25.8,0.2,41.7-2,41.7-2
				s0.5-8.1,0.7-12.3C1176.1,491.1,1169.6,489.5,1164.6,485.7z"/>
			<path class="st1" d="M1143.1,504.5c-1.2,0-2.4,0-3.6,0c-0.1,0-0.2,0-0.2-0.1c-0.7-0.7-0.2-3.3-0.1-3.8c0,0,0-0.1,0-0.1
				c0-0.1,4.8-8.3,14.1-10.1c3.1-0.5,6.9-2.1,11.1-5c0.1-0.1,0.3-0.1,0.4,0c4.9,3.8,11.3,5.4,17.1,4.2c0.1,0,0.2,0,0.3,0.1
				c0.1,0.1,0.1,0.2,0.1,0.3c-0.3,4.1-0.7,12.2-0.7,12.2c0,0.2-0.1,0.3-0.3,0.3C1181.2,502.5,1166.6,504.5,1143.1,504.5z
				 M1139.7,503.9c23.6,0.2,39.1-1.7,41.3-2c0.1-1.4,0.4-7.8,0.7-11.6c-5.8,1-12.1-0.6-17-4.3c-4.2,2.8-8,4.5-11.1,5
				c-8.7,1.7-13.3,9.1-13.7,9.7C1139.6,501.8,1139.4,503.4,1139.7,503.9z"/>
		</g>
		<g>
			<path class="st2" d="M1253.9,422.9c0,0-35.6-36.7-51.1-28.5c-15.4,8.3-32.4,85.5-32.4,85.5s10.6,5.6,14.9,4.3
				c18.5-22.8,25.9-40.1,30.2-48.4c8.3,14.9,31.9,36.1,59.3,16.6c27.5-19.5,18.9-31.1,18.9-31.1L1253.9,422.9z"/>
			<path class="st1" d="M1183.7,484.7c-4.9,0-13.1-4.3-13.5-4.5c-0.1-0.1-0.2-0.2-0.2-0.3c0-0.2,4.3-19.5,10.4-39.6
				c8.2-27.1,15.7-42.5,22.2-46c6.5-3.5,17.2,0.3,31.7,11.2c10.7,8.1,19.7,17.3,19.8,17.4c0.1,0.1,0.1,0.3,0,0.4
				c-0.1,0.1-0.3,0.1-0.4,0c-0.4-0.4-35.7-36.5-50.7-28.4c-14.7,7.9-31.2,80.3-32.2,85c1.5,0.8,10.5,5.3,14.4,4.2
				c15.8-19.5,23.4-34.9,28-44.1c0.8-1.6,1.5-3,2.1-4.2c0.1-0.1,0.2-0.2,0.3-0.2c0.1,0,0.2,0.1,0.3,0.2c4.9,8.9,15.6,20.3,29.4,23.5
				c9.9,2.2,19.8-0.1,29.5-7c14.9-10.6,19-18.8,19.8-23.8c0.7-4.4-1-6.8-1-6.8c-0.1-0.1-0.1-0.3,0.1-0.4c0.1-0.1,0.3-0.1,0.4,0.1
				c0.1,0.1,1.9,2.6,1.2,7.3c-0.8,5.1-5,13.5-20.1,24.3c-9.8,7-19.9,9.4-30,7.1c-13.7-3.1-24.4-14.3-29.5-23.2
				c-0.6,1.1-1.1,2.3-1.8,3.6c-4.6,9.3-12.2,24.7-28.1,44.3c0,0-0.1,0.1-0.2,0.1C1184.9,484.7,1184.3,484.7,1183.7,484.7z"/>
		</g>
	</g>
	<g>
		<g>
			<path class="st2" d="M1310.9,481.9c-0.2-1.2-0.9-2.1-1.9-2.8c-2.9,1-5.6,0.5-5.6,0.5s-5.7,7.6-0.8,10.6c2-0.4,5.1,0.5,8.6,2.1
				C1312.5,489.3,1311.4,485.1,1310.9,481.9z"/>
			<path class="st1" d="M1311.2,492.6c0,0-0.1,0-0.1,0c-4-1.7-6.7-2.4-8.4-2.1c-0.1,0-0.2,0-0.2,0c-1.1-0.7-1.8-1.7-2.1-2.9
				c-0.7-3.5,2.6-8,2.8-8.2c0.1-0.1,0.2-0.1,0.3-0.1c0,0,2.7,0.5,5.5-0.5c0.1,0,0.2,0,0.3,0c1.2,0.8,1.8,1.8,2,3l0,0
				c0.1,0.6,0.2,1.2,0.3,1.8c0.5,2.9,1.1,6.2,0,8.7c0,0.1-0.1,0.1-0.2,0.2C1311.3,492.6,1311.3,492.6,1311.2,492.6z M1303.7,489.8
				c1.8,0,4.2,0.7,7.4,2.1c0.8-2.3,0.3-5.3-0.1-8c-0.1-0.6-0.2-1.3-0.3-1.8c-0.1-1-0.7-1.7-1.6-2.5c-2.5,0.8-4.8,0.6-5.4,0.5
				c-0.6,0.8-3.1,4.6-2.5,7.5c0.2,1,0.8,1.8,1.7,2.4C1303,489.8,1303.3,489.8,1303.7,489.8z"/>
		</g>
		<g>
			<path class="st1" d="M1352.1,498.1c-0.5-1.1-5.6-2.4-11.6-6.4c-8.7-6-19.8-15.3-26-17.2c-1.5,2.6-3.5,3.9-5.5,4.6
				c1,0.7,1.7,1.5,1.9,2.8c0.5,3.2,1.6,7.4,0.3,10.4c6.9,3,15.5,8.3,21.8,10C1342.5,504.7,1353.4,500.8,1352.1,498.1z"/>
			<path class="st1" d="M1339.4,503.3c-2.2,0-4.4-0.2-6.5-0.8c-4-1.1-9-3.6-13.9-6.1c-2.8-1.4-5.5-2.8-7.9-3.9
				c-0.2-0.1-0.2-0.3-0.2-0.4c1-2.3,0.5-5.5,0-8.3c-0.1-0.6-0.2-1.3-0.3-1.8c-0.1-1-0.7-1.8-1.7-2.6c-0.1-0.1-0.1-0.2-0.1-0.3
				s0.1-0.2,0.2-0.3c2.3-0.8,4.1-2.3,5.3-4.5c0.1-0.1,0.2-0.2,0.4-0.1c4.4,1.4,11.3,6.4,17.9,11.4c2.7,2,5.6,4.1,8.1,5.9
				c3.3,2.3,6.3,3.6,8.5,4.6c1.8,0.8,2.9,1.3,3.2,1.9l0,0c0.2,0.4,0.3,1-0.3,1.7C1350.5,501.6,1345.3,503.3,1339.4,503.3z
				 M1311.6,492.1c2.4,1.1,5,2.4,7.7,3.8c4.8,2.5,9.8,5,13.7,6c8.2,2.2,16.7-0.5,18.5-2.6c0.5-0.6,0.3-0.9,0.2-1
				c-0.2-0.4-1.4-0.9-2.9-1.6c-2.2-1-5.2-2.4-8.6-4.7c-2.6-1.8-5.4-3.9-8.1-5.9c-6.5-4.8-13.2-9.8-17.5-11.2c-1.2,2-2.9,3.5-5,4.3
				c0.9,0.8,1.4,1.6,1.5,2.6c0.1,0.6,0.2,1.2,0.3,1.8C1312,486.5,1312.6,489.6,1311.6,492.1z"/>
		</g>
		<g>
			<path class="st2" d="M1256.5,416.3c0,0-74.2,34.8-72.2,67.2s123.8,8.1,123.8,8.1l-4-12.2c0,0-43.4-15.7-85.1-4.8
				c30.1-9.9,67.6-0.5,80.2-15.9c18.7-22.9-6-45.4-6-45.4L1256.5,416.3z"/>
			<path class="st1" d="M1228.8,500.7c-3.9,0-7.5-0.1-10.9-0.3c-13.6-0.8-23.2-3.4-28.6-7.5c-3.3-2.5-5-5.7-5.2-9.3
				c-0.5-7.5,3.1-15.7,10.5-24.4c5.9-6.9,14.3-14.2,25-21.6c18.1-12.6,36.7-21.4,36.9-21.5c0,0,0.1,0,0.1,0l36.7-3
				c0.1,0,0.2,0,0.2,0.1c0.1,0.1,6.3,5.8,10.1,14.2c3.5,7.8,5.7,19.6-4.1,31.6c-7.2,8.9-22.4,9.6-39.9,10.4
				c-8,0.4-16.6,0.8-25.1,2.1c16.2-1.9,31.7-0.6,42.8,1.2c15.9,2.5,26.8,6.5,27,6.5c0.1,0,0.2,0.1,0.2,0.2l4,12.2c0,0.1,0,0.2,0,0.3
				c0,0.1-0.1,0.1-0.2,0.2c-0.2,0-24.1,4.8-50.6,7.3C1247,500.2,1237.3,500.7,1228.8,500.7z M1256.6,416.6
				c-1.1,0.5-19.1,9.1-36.7,21.4c-10.6,7.4-19,14.6-24.8,21.5c-7.3,8.6-10.8,16.6-10.4,24c0.2,3.5,1.9,6.5,5,8.9
				c9.5,7.3,33,9.5,67.9,6.2c24.7-2.3,47.1-6.6,50.2-7.2l-3.8-11.8c-1.3-0.5-11.9-4.1-26.7-6.4c-14.6-2.3-36.6-3.9-58,1.7
				c-0.2,0-0.3-0.1-0.4-0.2c0-0.2,0-0.3,0.2-0.4c13-4.3,27.7-5,40.6-5.6c17.4-0.8,32.4-1.5,39.4-10.2c7.7-9.4,9-19.8,4-30.9
				c-3.5-7.7-9.1-13.1-9.9-13.9L1256.6,416.6z"/>
		</g>
		<g>
			<path class="st1" d="M1249.8,419.7l-1.9,1c0,0,1.6,12.4,21.7,11.4c20.1-1.1,33-5.5,33-5.5l-1.9-4.2L1249.8,419.7z"/>
			<path class="st1" d="M1267.2,432.5c-9,0-13.8-2.9-16.3-5.5c-3-3-3.4-6.1-3.4-6.3c0-0.1,0-0.3,0.2-0.3l1.9-1c0.1,0,0.1,0,0.2,0
				l50.9,2.8c0.1,0,0.2,0.1,0.3,0.2l1.9,4.2c0,0.1,0,0.2,0,0.3c0,0.1-0.1,0.1-0.2,0.2c-0.1,0-13.2,4.4-33.1,5.5
				C1268.7,432.4,1268,432.5,1267.2,432.5z M1248.2,420.9c0.2,0.7,0.8,3.3,3.2,5.7c2.6,2.7,7.9,5.7,18.1,5.2
				c18-0.9,30.5-4.7,32.6-5.3l-1.7-3.7l-50.6-2.8L1248.2,420.9z"/>
		</g>
		<g>
			<path class="st2" d="M1161.4,319.1c0.7,0,1.5-0.1,2.2-0.2c-1.8-5.8-3.1-10.7-4.1-12.7c-2.9-6-13.8-16.6-13.8-16.6
				s-1.2,2.9,0.7,4.9s4.9,8.6,4.9,8.6s-12.1,2-10.2,9.5c2,7.5,8.2,4,8.8,0.4c0,0,1,5.2,3,12.3
				C1154.8,322.3,1157.2,319.6,1161.4,319.1z"/>
			<path class="st1" d="M1153,325.8C1153,325.8,1153,325.8,1153,325.8c-0.2,0-0.3-0.1-0.3-0.2c-1.4-5.1-2.3-9.3-2.7-11.2
				c-0.8,1.7-2.7,3-4.4,3.1c-1.2,0-3.5-0.5-4.6-4.7c-0.5-1.7-0.2-3.3,0.7-4.7c2.2-3.4,7.8-4.7,9.3-5.1c-0.6-1.4-3-6.5-4.6-8.1
				c-2.1-2.1-0.9-5.1-0.8-5.2c0-0.1,0.1-0.2,0.2-0.2c0.1,0,0.2,0,0.3,0.1c0.4,0.4,11,10.7,13.8,16.6c0.7,1.4,1.5,4,2.5,7.4
				c0.5,1.6,1,3.4,1.6,5.3c0,0.1,0,0.2,0,0.3c-0.1,0.1-0.1,0.1-0.2,0.1c-0.7,0.1-1.5,0.1-2.3,0.2c-3.4,0.4-5.9,2.3-8.1,6.2
				C1153.2,325.7,1153.1,325.8,1153,325.8z M1150,312.8c0.2,0,0.3,0.1,0.3,0.3c0,0,1,4.9,2.8,11.6c1.6-2.6,4-5.4,8.2-5.8
				c0,0,0,0,0,0c0.6,0,1.3-0.1,1.8-0.2c-0.6-1.8-1.1-3.4-1.5-4.9c-1-3.3-1.8-6-2.4-7.3c-2.5-5.2-11.4-14.2-13.3-16.1
				c-0.2,0.8-0.5,2.7,0.8,4.1c2,2,4.8,8.4,4.9,8.7c0,0.1,0,0.2,0,0.3s-0.1,0.1-0.2,0.2c-0.1,0-6.9,1.2-9.3,4.9
				c-0.8,1.3-1,2.7-0.6,4.2c0.7,2.8,2.1,4.3,4,4.2c1.9-0.1,3.9-1.8,4.2-3.7C1149.8,312.9,1149.9,312.8,1150,312.8
				C1150,312.8,1150,312.8,1150,312.8z"/>
		</g>
		<g>
			<path class="st2" d="M1325.9,417.3c1.2,4.9,0.9,8.1,0.9,8.1s-0.4,2.9-2.6,3.5c-2.2,0.6-3.4,5.3-3.1,8.1c0.2,1.7,0.2,5,3.1,5.6
				c2,0.4,6.9-1.3,8.1-2.5c1.6-1.6,2.3-12.8,2.2-24.5c-0.9,0.7-1.9,1.2-3,1.6C1329.7,418.1,1328,418.4,1325.9,417.3z"/>
			<path class="st1" d="M1324.9,443.1c-0.3,0-0.5,0-0.7-0.1c-2.9-0.6-3.2-3.6-3.3-5.3c0-0.2,0-0.4-0.1-0.6c-0.3-2.8,0.9-7.8,3.3-8.4
				c2-0.6,2.4-3.2,2.4-3.3c0,0,0.3-3.2-0.9-8c0-0.1,0-0.2,0.1-0.3c0.1-0.1,0.2-0.1,0.3,0c2,1,3.6,0.7,5.4,0c1-0.4,2-0.9,2.9-1.6
				c0.1-0.1,0.2-0.1,0.3,0c0.1,0.1,0.2,0.2,0.2,0.3c0.1,10.2-0.5,22.9-2.3,24.7C1331.4,441.6,1327.3,443.1,1324.9,443.1z
				 M1326.4,417.9c1,4.5,0.8,7.4,0.8,7.6c0,0.1-0.5,3.1-2.9,3.8c-2,0.6-3.2,5.1-2.9,7.8c0,0.2,0,0.4,0.1,0.6
				c0.2,1.7,0.4,4.3,2.8,4.8c1.8,0.4,6.7-1.3,7.8-2.4c1.3-1.3,2.2-11.3,2.1-23.7c-0.8,0.5-1.7,1-2.5,1.3
				C1329.9,418.3,1328.3,418.6,1326.4,417.9z"/>
		</g>
		<g>
			<path class="st4" d="M1328.7,385.4c-0.2-0.3-0.6-0.8-1.1-1.6c-0.1-0.1-0.1-0.2-0.2-0.3c-5.1-7.1-21.9-29.5-21.9-29.5
				s-19.6-24.5-32.9-23l-2.6,15.9c0,0,45.2,47.5,47,49.7c3.5,4.4,6.8,15.4,8.7,23.2c2.1,1,4.8,1.1,6.7,0.4c1-0.4,2-1,3-1.6
				c-0.1-10.2-0.8-20.6-2.2-25.4C1332.5,391.4,1330.9,388.6,1328.7,385.4z"/>
			<path class="st1" d="M1329.4,421c-1.4,0-2.8-0.3-4-0.9c-0.1,0-0.1-0.1-0.2-0.2c-2-8.2-5.2-18.9-8.7-23.1
				c-1.7-2.1-46.5-49.2-46.9-49.7c-0.1-0.1-0.1-0.2-0.1-0.3l2.6-15.9c0-0.1,0.1-0.2,0.3-0.3c13.3-1.5,32.4,22.1,33.2,23.1
				c0.2,0.2,16.8,22.6,21.9,29.6l0.2,0.3c0.6,0.8,1,1.4,1.2,1.6c2.4,3.5,3.9,6.1,4.4,7.9c1.5,5.2,2.2,16.5,2.2,25.4
				c0,0.1-0.1,0.2-0.1,0.3c-1,0.7-2,1.2-3,1.6C1331.5,420.9,1330.5,421,1329.4,421z M1325.8,419.6c2,0.9,4.5,1,6.3,0.3
				c1-0.4,1.9-0.9,2.8-1.5c-0.1-11.2-1-20.8-2.2-25.1c-0.5-1.7-2-4.3-4.3-7.7c0,0,0,0,0,0c-0.2-0.3-0.5-0.8-1.1-1.6l-0.2-0.3
				c-5.1-7-21.7-29.3-21.9-29.5c-0.2-0.2-19.4-24-32.4-22.9l-2.6,15.5c3,3.2,45.2,47.5,46.9,49.6
				C1320.6,400.7,1323.8,411.4,1325.8,419.6z"/>
		</g>
		<g>
			<path class="st2" d="M1238.4,291.2c0,0-8.5,26.3,5.1,32.3c2.6,0.2,4.4-0.9,5.5-1.5c4.8,3.7,3.1,13,3.1,13.3
				c1.7,5.3,20.8,1.1,19.4-3.3c0,0-1.1-5.7-2.9-12.5c-1.1-4.1-0.1-9.1-1.6-13.1c-1-2.7-4.4-4.6-5.5-6.5
				C1255.9,290.4,1243.4,284.9,1238.4,291.2z"/>
			<path class="st1" d="M1258.2,338c-3.1,0-5.8-0.7-6.4-2.7c0-0.1,0-0.2,0-0.6c0.6-6.1-0.3-10.2-2.9-12.4c-1.1,0.6-2.9,1.6-5.4,1.5
				c0,0-0.1,0-0.1,0c-5.7-2.5-8.4-9-7.8-18.7c0.4-7.3,2.5-13.9,2.6-14c0,0,0-0.1,0.1-0.1c1.6-2,4-3,7.1-2.8
				c5.9,0.4,12.9,5.2,16.5,11.4c0.4,0.7,1.3,1.5,2.1,2.3c1.3,1.2,2.8,2.6,3.4,4.2c0.8,2.2,0.9,4.8,1,7.2c0.1,2,0.1,4.1,0.6,5.9
				c1.7,6.6,2.9,12.2,2.9,12.5c0.5,1.8-1.6,3.6-5.7,4.9C1263.7,337.5,1260.8,338,1258.2,338z M1252.4,335.2c1,2.8,7.9,2.8,13.5,1
				c3.7-1.2,5.7-2.8,5.3-4.1c0,0,0,0,0,0c0-0.1-1.1-5.7-2.9-12.5c-0.5-1.9-0.6-4-0.6-6.1c-0.1-2.4-0.2-4.9-1-7c-0.6-1.5-2-2.8-3.2-4
				c-0.9-0.9-1.8-1.7-2.3-2.5c-3.6-6-10.3-10.7-16-11.1c-2.8-0.2-5,0.7-6.5,2.5c-0.4,1.3-7.9,26.1,4.9,31.8c2.3,0.1,3.9-0.8,5-1.4
				l0.2-0.1c0.1-0.1,0.2-0.1,0.3,0c2.9,2.2,4,6.6,3.3,13.1C1252.4,334.9,1252.4,335.1,1252.4,335.2z"/>
		</g>
		<g>
			<path class="st4" d="M1294.5,364.4c3.9,22.8,8.3,55.4,8,58c-0.4,4.6-17.2,8.6-38,7.5c-20.7-1.1-14.8-17.4-25.8-37.5
				c-4.3-7.9-3.6-21.3-9.1-22c-5.7-0.7-17.1-1-17.1-1s-22.3,0.9-37.5-3.3c-10.3-2.8-18-25.9-22-40.6c1.8-3.2,4.3-5.9,8.4-6.3
				c0.7,0,1.5-0.1,2.2-0.2c3.7,11.6,9.5,26.8,18.9,29.5c9.4,2.6,26.1-1.9,36.2-5.3l8.7-3.1l18.4-6.6c0,0,9.8-6.2,23.4-3.3l8.2,1.4
				L1294.5,364.4z"/>
			<path class="st1" d="M1271.5,430.4c-2.3,0-4.6-0.1-6.9-0.2c-13.9-0.7-16.1-8.4-19-19c-1.6-5.6-3.3-11.9-7.1-18.7
				c-1.8-3.2-2.7-7.5-3.6-11.2c-1.2-5.5-2.3-10.2-5.3-10.6c-5.6-0.7-17-1-17.1-1c-0.2,0-22.5,0.8-37.6-3.3
				c-10.5-2.9-18.4-26.8-22.2-40.9c0-0.1,0-0.2,0-0.2c1.6-2.8,4-6,8.6-6.5c0.8,0,1.6-0.1,2.3-0.2c0.1,0,0.3,0.1,0.3,0.2
				c3.6,11.3,9.4,26.7,18.7,29.3c9.4,2.7,26.6-2.2,36.1-5.3l27.1-9.7c0.6-0.4,10.5-6.2,23.6-3.3l8.2,1.3c0.2,0,0.3,0.2,0.3,0.4
				c0,0.2-0.2,0.3-0.4,0.3l-8.2-1.4c-13.3-2.9-23.1,3.2-23.2,3.3c0,0,0,0-0.1,0l-27.1,9.7c-9.5,3.1-26.8,8-36.4,5.3
				c-9.5-2.7-15.4-18-19-29.5c-0.6,0.1-1.3,0.1-2,0.2c-3.3,0.4-5.8,2.2-8,6c3.7,13.9,11.5,37.5,21.7,40.3c15,4.1,37.2,3.3,37.4,3.3
				c0.1,0,11.5,0.3,17.2,1c3.5,0.4,4.6,5.4,5.9,11.1c0.9,3.9,1.8,7.9,3.5,11.1c3.8,6.9,5.5,13.2,7.1,18.8c3,10.7,5,17.8,18.5,18.6
				c9.7,0.5,19.2,0,26.5-1.6c6.8-1.4,10.9-3.5,11.1-5.6c0.3-2.7-4.2-35.5-8-58c0-0.2,0.1-0.3,0.3-0.4c0.2,0,0.3,0.1,0.4,0.3
				c3.9,22.5,8.3,55.4,8,58.1C1302.4,427,1288.5,430.4,1271.5,430.4z"/>
		</g>
		<g>
			<path class="st1" d="M1248.3,299c0,0,2.1,6.7,3.7,7.8c2.2-2.9,5.3-5.1,6.6-3.5c1.3,1.5,1.8,8.6,1.8,8.6s5.9,5.3,11.2,2.5
				c5.1-9.7,4.8-28.2-11-32.8c-4.6-1.3-10.6-3.8-18-2.5c-4.5,0.8-12.6,5.5-13.7,7.6c-3.3,6.3,5.8,13.3,5.8,13.3
				S1240.2,306.2,1248.3,299z"/>
			<path class="st1" d="M1268.2,315.5c-4.2,0-7.8-3.2-8-3.4c-0.1-0.1-0.1-0.1-0.1-0.2c-0.1-1.9-0.7-7.2-1.7-8.4
				c-0.2-0.3-0.5-0.4-0.9-0.4c-1.3,0-3.4,1.6-5.2,3.9c-0.1,0.1-0.3,0.2-0.4,0.1c-1.4-1-3.1-5.9-3.7-7.5c-2.7,2.3-5.4,3.4-8.1,3.2
				c-3.4-0.2-5.5-2.4-5.7-2.6c-0.6-0.5-9.2-7.3-5.9-13.7c1.1-2.2,9.3-6.9,14-7.7c6.5-1.1,11.9,0.6,16.2,1.9c0.7,0.2,1.3,0.4,1.9,0.6
				c5.8,1.7,10,5.4,12.3,10.8c3.3,7.8,1.8,16.9-1.1,22.5c0,0.1-0.1,0.1-0.1,0.1C1270.5,315.3,1269.3,315.5,1268.2,315.5z
				 M1260.7,311.7c0.8,0.6,6,4.8,10.6,2.4c2.7-5.3,4.2-14.4,1-21.9c-2.2-5.2-6.3-8.8-11.9-10.4c-0.6-0.2-1.3-0.4-1.9-0.6
				c-4.3-1.3-9.6-3-15.9-1.9c-4.5,0.8-12.5,5.4-13.5,7.4c-3.2,6,5.6,12.8,5.7,12.9c0,0,0,0,0,0c0.2,0.2,5.5,6,13.3-0.9
				c0.1-0.1,0.2-0.1,0.3-0.1c0.1,0,0.2,0.1,0.2,0.2c0.6,1.7,2.2,6.2,3.3,7.5c1.5-1.8,3.7-3.8,5.5-3.9c0.6,0,1.1,0.2,1.4,0.6
				C1260.2,304.6,1260.6,310.7,1260.7,311.7z"/>
		</g>
	</g>
	<g>
		<path class="st2" d="M1284.3,474.3c0,0,28.1,27.7,37.9,24.6c1.3-1.1-4.1-3.1-10.2-7.5C1301.1,483.6,1285.4,472.4,1284.3,474.3z"/>
		<path class="st1" d="M1320.5,499.5c-11,0-35.3-23.8-36.4-24.9c-0.1-0.1-0.1-0.3-0.1-0.4c0.1-0.1,0.2-0.3,0.5-0.4
			c2.5-0.5,13.9,7.5,27.5,17.2l0.2,0.1c2.3,1.7,4.5,3,6.3,4.1c2.9,1.7,4.1,2.5,4.2,3.3c0,0.2,0,0.4-0.3,0.7c0,0-0.1,0-0.1,0.1
			C1321.7,499.4,1321.1,499.5,1320.5,499.5z M1284.8,474.4c3.1,3,28.2,26.9,37.2,24.2c0-0.1,0-0.1,0-0.1c0-0.5-1.9-1.6-3.9-2.8
			c-1.8-1.1-4-2.4-6.4-4.1l-0.2-0.1C1302.1,484.7,1287.7,474.4,1284.8,474.4C1284.8,474.4,1284.8,474.4,1284.8,474.4z"/>
	</g>
	<g>
		<polygon class="st4" points="1104.1,260.7 1002.9,260.7 1000.9,251.9 1102.2,251.9 		"/>
		<path class="st1" d="M1104.1,261h-101.3c-0.1,0-0.3-0.1-0.3-0.2l-2-8.8c0-0.1,0-0.2,0.1-0.3c0.1-0.1,0.2-0.1,0.2-0.1h101.3
			c0.1,0,0.3,0.1,0.3,0.2l2,8.8c0,0.1,0,0.2-0.1,0.3C1104.3,260.9,1104.2,261,1104.1,261z M1003.1,260.4h100.6l-1.8-8.2h-100.6
			L1003.1,260.4z"/>
	</g>
	<g>
		<polygon class="st4" points="1110.1,289.9 1008.8,289.9 1006.8,281.1 1108.1,281.1 		"/>
		<path class="st1" d="M1110.1,290.2h-101.3c-0.1,0-0.3-0.1-0.3-0.2l-2-8.8c0-0.1,0-0.2,0.1-0.3c0.1-0.1,0.2-0.1,0.2-0.1h101.3
			c0.1,0,0.3,0.1,0.3,0.2l2,8.8c0,0.1,0,0.2-0.1,0.3C1110.3,290.1,1110.2,290.2,1110.1,290.2z M1009,289.5h100.6l-1.8-8.2h-100.6
			L1009,289.5z"/>
	</g>
	<g>
		<polygon class="st4" points="1115.3,248.5 1131.3,259.4 1144,236.1 1138.6,234.6 1129.6,252.6 1118.2,243.6 		"/>
		<path class="st1" d="M1131.3,259.7c-0.1,0-0.1,0-0.2-0.1l-16-10.9c-0.1-0.1-0.2-0.3-0.1-0.4l2.9-4.8c0-0.1,0.1-0.1,0.2-0.1
			c0.1,0,0.2,0,0.3,0.1l11.1,8.7l8.8-17.7c0.1-0.1,0.2-0.2,0.4-0.2l5.3,1.5c0.1,0,0.2,0.1,0.2,0.2c0,0.1,0,0.2,0,0.3l-12.7,23.2
			C1131.5,259.6,1131.5,259.7,1131.3,259.7C1131.3,259.7,1131.3,259.7,1131.3,259.7z M1115.7,248.4l15.5,10.5l12.3-22.6l-4.7-1.4
			l-8.9,17.8c0,0.1-0.1,0.1-0.2,0.2c-0.1,0-0.2,0-0.3-0.1l-11.2-8.7L1115.7,248.4z"/>
	</g>
	<g>
		<polygon class="st2" points="1120.7,280.9 1136.7,291.8 1149.4,268.6 1144.1,267.1 1135.1,285.1 1123.6,276.1 		"/>
		<path class="st1" d="M1136.7,292.2c-0.1,0-0.1,0-0.2-0.1l-16-10.9c-0.1-0.1-0.2-0.3-0.1-0.4l2.9-4.8c0-0.1,0.1-0.1,0.2-0.1
			c0.1,0,0.2,0,0.3,0.1l11.1,8.7l8.8-17.7c0.1-0.1,0.2-0.2,0.4-0.2l5.3,1.5c0.1,0,0.2,0.1,0.2,0.2c0,0.1,0,0.2,0,0.3L1137,292
			C1137,292.1,1136.9,292.1,1136.7,292.2C1136.8,292.1,1136.8,292.2,1136.7,292.2z M1121.2,280.8l15.5,10.5l12.3-22.6l-4.7-1.4
			l-8.9,17.8c0,0.1-0.1,0.1-0.2,0.2c-0.1,0-0.2,0-0.3-0.1l-11.2-8.7L1121.2,280.8z"/>
	</g>
	<g>
		<polygon class="st1" points="1221.5,318.9 1219.1,322.1 1221,323.6 		"/>
		<path class="st1" d="M1221,324c-0.1,0-0.1,0-0.2-0.1l-1.9-1.6c-0.1-0.1-0.1-0.3-0.1-0.4l2.4-3.2c0.1-0.1,0.2-0.2,0.4-0.1
			c0.1,0.1,0.2,0.2,0.2,0.3l-0.5,4.8c0,0.1-0.1,0.2-0.2,0.3C1221,323.9,1221,324,1221,324z M1219.5,322l1.2,1l0.3-3L1219.5,322z"/>
	</g>
	<g>
		<g>
			<g>
				<path class="st3" d="M1451.5,482.6c0,0-36.4-42.5-7.2-73.1c29.2-30.6,62.6-26.1,82.1-2.4c19.4,23.6,15.1,62-0.3,76.7
					C1510.6,498.5,1457.3,477,1451.5,482.6z"/>
				<path class="st1" d="M1507.6,489.4c-10.3,0-22.6-2.4-33.4-4.5c-10.9-2.2-20.4-4-22.5-2c-0.1,0.1-0.1,0.1-0.2,0.1
					c-0.1,0-0.2,0-0.2-0.1c-0.1-0.1-9.2-10.8-14.6-25.2c-3.2-8.4-4.5-16.4-3.9-23.8c0.8-9.2,4.6-17.5,11.3-24.5
					c14.1-14.7,29.9-22.2,45.8-21.6c13.9,0.5,27,7.3,36.7,19.2c9,11,13.6,25.9,13,41.9c-0.6,14.7-5.6,27.8-13.3,35.2
					C1522.1,488,1515.4,489.4,1507.6,489.4z M1455.5,481.3c4.3,0,11,1.3,18.8,2.9c17.8,3.5,42.1,8.3,51.5-0.6
					c7.6-7.3,12.5-20.3,13.1-34.8c0.6-15.9-3.9-30.7-12.8-41.5c-9.6-11.7-22.5-18.5-36.3-19c-15.7-0.6-31.4,6.8-45.4,21.4
					c-15,15.7-12.2,34.6-7.3,47.6c4.9,13.1,12.9,23.1,14.3,24.8C1452.3,481.6,1453.7,481.3,1455.5,481.3z"/>
			</g>
			<g>
				<path class="st1" d="M1443.8,501.8c0,0-0.1,0-0.1,0c-0.3-0.1-0.4-0.3-0.3-0.6c6.9-26.5,23.9-48.6,36.9-62.4
					c14.1-15,26.7-23.8,26.9-23.9c0.2-0.2,0.5-0.1,0.7,0.1c0.2,0.2,0.1,0.5-0.1,0.7c-0.1,0.1-12.7,8.9-26.7,23.8
					c-12.9,13.8-29.8,35.7-36.7,62C1444.2,501.7,1444,501.8,1443.8,501.8z"/>
			</g>
			<g>
				<path class="st1" d="M1523.1,432c-0.1,0-0.1,0-0.2-0.1c-0.1-0.1-12.7-9.3-23.9-9.8c-0.1,0-0.2-0.1-0.2-0.1
					c-0.1-0.1-0.1-0.2-0.1-0.3c2.6-10.3-6.5-19.9-6.6-20c-0.1-0.1-0.1-0.3,0-0.4c0.1-0.1,0.3-0.1,0.4,0c0.1,0.1,9.3,9.7,6.9,20.2
					c11.3,0.7,23.7,9.8,23.8,9.9c0.1,0.1,0.2,0.3,0.1,0.4C1523.3,431.9,1523.2,432,1523.1,432z"/>
			</g>
			<g>
				<path class="st1" d="M1525.3,449.6c-0.1,0-0.2-0.1-0.3-0.1c-9.8-14.9-28.4-19.6-34.8-20.2c-0.2,0-0.3-0.2-0.3-0.3
					c-0.1-8.1-15.2-22.3-15.3-22.4c-0.1-0.1-0.1-0.3,0-0.4c0.1-0.1,0.3-0.1,0.4,0c0.6,0.6,15.2,14.2,15.5,22.6
					c6.7,0.7,25.2,5.6,35,20.5c0.1,0.1,0.1,0.3-0.1,0.4C1525.4,449.6,1525.4,449.6,1525.3,449.6z"/>
			</g>
			<g>
				<path class="st1" d="M1522.6,469.9c-0.1,0-0.2-0.1-0.3-0.2c-5.2-12.2-14.6-20.2-21.5-24.7c-8.3-5.4-16.2-7.8-19.5-7.3
					c-0.1,0-0.2,0-0.2-0.1c-0.1-0.1-0.1-0.1-0.1-0.2c-1.1-13-23.7-34-23.9-34.2c-0.1-0.1-0.1-0.3,0-0.4c0.1-0.1,0.3-0.1,0.4,0
					c0.9,0.9,22.6,21,24.1,34.3c3.6-0.3,11.3,2.1,19.6,7.4c7,4.6,16.5,12.6,21.8,25c0.1,0.2,0,0.3-0.2,0.4
					C1522.7,469.9,1522.7,469.9,1522.6,469.9z"/>
			</g>
			<g>
				<path class="st1" d="M1510,472.6c-0.1,0-0.2-0.1-0.3-0.2c-5.6-14.4-27.4-26.4-35.4-26c-0.2,0-0.3-0.1-0.3-0.3
					c-2-14.7-18.1-26-18.3-26.1c-0.1-0.1-0.2-0.3-0.1-0.4c0.1-0.1,0.3-0.2,0.4-0.1c0.2,0.1,16.3,11.5,18.5,26.3
					c4.3-0.1,11.8,3,18.8,7.7c8.2,5.6,14.4,12.4,16.8,18.7c0.1,0.2,0,0.3-0.2,0.4C1510.1,472.6,1510.1,472.6,1510,472.6z"/>
			</g>
			<g>
				<path class="st1" d="M1496.5,475c-0.1,0-0.2-0.1-0.3-0.1c-7.8-12.3-20.8-20.8-29.6-19.2c-0.1,0-0.2,0-0.3-0.1
					c-0.1-0.1-0.1-0.1-0.1-0.2c-0.2-12.3-18.9-24.3-19.1-24.4c-0.1-0.1-0.2-0.3-0.1-0.4c0.1-0.1,0.3-0.2,0.4-0.1
					c0.8,0.5,18.9,12.1,19.4,24.6c9-1.3,22,7.2,29.9,19.5c0.1,0.1,0.1,0.3-0.1,0.4C1496.6,475,1496.6,475,1496.5,475z"/>
			</g>
			<g>
				<path class="st1" d="M1485.9,479.1c-0.1,0-0.3-0.1-0.3-0.2c-1.6-4.9-7.7-8.3-11.2-9.9c-5-2.3-10.8-3.7-14.2-3.5
					c-0.2,0-0.3-0.1-0.3-0.2c-4.5-17.2-18.3-26.5-18.4-26.6c-0.1-0.1-0.2-0.3-0.1-0.4c0.1-0.1,0.3-0.2,0.4-0.1
					c0.1,0.1,14,9.4,18.6,26.7c7.3-0.3,23.2,5.6,25.8,13.9C1486.2,478.9,1486.1,479.1,1485.9,479.1
					C1485.9,479.1,1485.9,479.1,1485.9,479.1z"/>
			</g>
		</g>
		<g>
			<g>
				<path class="st1" d="M1446.3,481.3c0,0,17-28,5.1-39.2c-11.9-11.1-32.4-23.5-48.1-5.4c-15.7,18.1-14.8,40.7,6.5,50.8
					C1431,497.7,1434,479.4,1446.3,481.3z"/>
				<path class="st1" d="M1421.4,490.9c-3.2,0-7.1-0.9-11.8-3.1c-9.2-4.4-15-11.3-16.8-19.9c-2.1-10,1.6-21.5,10.3-31.4
					c5-5.8,10.9-8.9,17.6-9.2c12.7-0.6,24.9,8.9,31,14.6c4.9,4.6,5.6,13,2,24.1c-2.7,8.3-7,15.4-7,15.5c-0.1,0.1-0.2,0.2-0.3,0.1
					c-4.7-0.8-8.1,1.6-11.7,4.1C1431,488.2,1427.1,490.9,1421.4,490.9z M1421.9,427.9c-0.4,0-0.8,0-1.2,0c-6.5,0.3-12.2,3.4-17.1,9
					c-8.5,9.8-12.2,21-10.1,30.9c1.8,8.4,7.4,15.1,16.5,19.4c12.7,6.1,18.6,1.9,24.3-2c3.6-2.5,7.1-4.9,11.9-4.2
					c1.4-2.4,16.1-28.2,5.1-38.6C1445.3,436.9,1433.9,427.9,1421.9,427.9z"/>
			</g>
			<g>
				<path class="st2" d="M1449.8,501.1c-0.2,0-0.4-0.1-0.5-0.4c0-0.2,0-0.4,0.2-0.5c0.1-0.3,0.7-2.9-3.7-18.8
					c-3.4-12.4-14.2-21.4-22.7-26.7c-9.2-5.8-17.7-8.7-17.8-8.7c-0.2-0.1-0.4-0.4-0.3-0.6s0.4-0.4,0.6-0.3c0.1,0,8.7,2.9,18,8.8
					c8.6,5.4,19.6,14.6,23.1,27.3c3.1,11.3,4.4,18.2,3.6,19.6c-0.1,0.2-0.3,0.3-0.4,0.3C1449.9,501.1,1449.8,501.1,1449.8,501.1z
					 M1449.7,500.2L1449.7,500.2L1449.7,500.2z M1449.7,500.2L1449.7,500.2L1449.7,500.2z M1449.7,500.2
					C1449.7,500.2,1449.7,500.2,1449.7,500.2C1449.7,500.2,1449.7,500.2,1449.7,500.2z M1449.7,500.2
					C1449.7,500.2,1449.7,500.2,1449.7,500.2C1449.7,500.2,1449.7,500.2,1449.7,500.2z M1449.7,500.2
					C1449.7,500.2,1449.7,500.2,1449.7,500.2C1449.7,500.2,1449.7,500.2,1449.7,500.2z"/>
			</g>
			<g>
				<path class="st2" d="M1427,484.1C1427,484.1,1427,484.1,1427,484.1c-0.3-0.1-0.4-0.2-0.3-0.4c1.1-3.7,5.7-10.9,10.7-12.1
					c2-0.5,4,0,5.7,1.4c-0.2-7.5,7-18.3,7.3-18.8c0.1-0.1,0.3-0.2,0.4-0.1c0.1,0.1,0.2,0.3,0.1,0.4c-0.1,0.1-7.9,11.9-7.2,19.2
					c0,0.1-0.1,0.3-0.2,0.3c-0.1,0.1-0.3,0-0.4-0.1c-1.7-1.7-3.6-2.3-5.7-1.8c-4.7,1.2-9.2,8.2-10.3,11.7
					C1427.3,484,1427.2,484.1,1427,484.1z"/>
			</g>
			<g>
				<path class="st2" d="M1419.1,486C1419.1,486,1419.1,486,1419.1,486c-0.2,0-0.3-0.2-0.3-0.4c0.8-7.9,4.9-14.7,10.8-18.2
					c3.1-1.8,6.3-2.4,8.9-1.5c-1.5-13.4,6.6-22.9,6.7-23c0.1-0.1,0.3-0.1,0.4,0c0.1,0.1,0.1,0.3,0,0.4c-0.1,0.1-8.2,9.6-6.5,23
					c0,0.1,0,0.2-0.1,0.3c-0.1,0.1-0.2,0.1-0.3,0c-2.4-1.1-5.6-0.6-8.8,1.2c-5.8,3.3-9.7,10-10.5,17.7
					C1419.4,485.9,1419.3,486,1419.1,486z"/>
			</g>
			<g>
				<path class="st2" d="M1411.6,478.6c-0.2,0-0.3-0.1-0.3-0.3c-0.3-4,1.4-7.9,4.7-11.3c4.7-4.8,11.4-7.4,14.6-7.5
					c-4.3-10.4,3.1-22,3.2-22.1c0.1-0.1,0.3-0.2,0.4-0.1c0.1,0.1,0.2,0.3,0.1,0.4c-0.1,0.1-7.5,11.8-3,21.9c0,0.1,0,0.2,0,0.3
					c-0.1,0.1-0.2,0.1-0.3,0.1c-3-0.1-10,2.6-14.7,7.3c-3.2,3.3-4.8,7-4.6,10.9C1411.9,478.4,1411.8,478.6,1411.6,478.6
					C1411.6,478.6,1411.6,478.6,1411.6,478.6z"/>
			</g>
			<g>
				<path class="st2" d="M1400.8,476.9C1400.8,476.9,1400.8,476.9,1400.8,476.9c-0.2,0-0.3-0.2-0.3-0.3
					c1.3-16.4,13.2-20.4,20.3-22.7c0.4-0.1,0.8-0.3,1.2-0.4c-2.7-5.6-0.2-18.3-0.1-18.9c0-0.2,0.2-0.3,0.4-0.2
					c0.2,0,0.3,0.2,0.2,0.4c0,0.1-2.7,13.5,0.2,18.8c0,0.1,0.1,0.2,0,0.3c0,0.1-0.1,0.2-0.2,0.2c-0.5,0.2-1,0.3-1.6,0.5
					c-7,2.3-18.6,6.2-19.9,22.2C1401.1,476.8,1401,476.9,1400.8,476.9z"/>
			</g>
			<g>
				<path class="st2" d="M1399.7,459.1C1399.7,459.1,1399.7,459.1,1399.7,459.1c-0.2,0-0.3-0.2-0.3-0.4c1-4.4,8-8.9,14.9-9.6
					c-1.3-3.3,0.1-8.7,0.1-8.9c0-0.2,0.2-0.3,0.4-0.2c0.2,0,0.3,0.2,0.2,0.4c0,0.1-1.5,5.9,0,8.9c0,0.1,0,0.2,0,0.3
					c-0.1,0.1-0.1,0.2-0.3,0.2c-6.8,0.5-13.8,4.9-14.8,9.2C1400,459,1399.9,459.1,1399.7,459.1z"/>
			</g>
		</g>
		<g>
			<g>
				<path class="st2" d="M1484.9,492.8c0,0-10.1-17.6-6.3-26s33.2-30.1,51.4-9.6c18.1,20.5,0.5,50.6-16.4,47.1
					C1496.7,500.8,1490.9,492.4,1484.9,492.8z"/>
				<path class="st1" d="M1516.3,504.9c-0.9,0-1.9-0.1-2.8-0.3c-9.5-2-15.6-5.6-20.1-8.2c-3.5-2-6-3.5-8.5-3.4
					c-0.1,0-0.2-0.1-0.3-0.2c-0.4-0.7-10.2-17.8-6.3-26.3c2.3-5,14.5-15.9,28.6-18c9.2-1.4,17.2,1.5,23.2,8.3
					c10.8,12.3,8.6,27.1,3.4,36.1C1529.3,500.5,1522.7,504.9,1516.3,504.9z M1485.3,492.5c2.6,0,5.1,1.5,8.4,3.5
					c4.4,2.6,10.4,6.1,19.9,8.1c7,1.4,14.6-3,19.4-11.3c5.1-8.8,7.3-23.3-3.3-35.3c-6-6.7-13.6-9.5-22.7-8.1
					c-13.4,2-25.8,12.6-28.2,17.7c-3.5,7.7,5.2,23.7,6.2,25.5C1485.2,492.5,1485.3,492.5,1485.3,492.5z"/>
			</g>
			<g>
				<path class="st1" d="M1478.9,501.6C1478.9,501.6,1478.9,501.6,1478.9,501.6c-0.3,0-0.5-0.3-0.5-0.5c0-0.2,0.8-4.6,13.7-16.2
					c6.4-5.7,14.1-10.8,21.7-14.2c7.8-3.6,14.7-5.1,19.4-4.2c0.3,0,0.4,0.3,0.4,0.6c0,0.3-0.3,0.4-0.6,0.4
					c-9.2-1.7-26.9,6.3-40.3,18.2c-12.6,11.2-13.4,15.5-13.4,15.6C1479.4,501.4,1479.2,501.6,1478.9,501.6z"/>
			</g>
			<g>
				<path class="st1" d="M1514.6,494.9c-0.1,0-0.2,0-0.3-0.1c-4.3-5.7-16.4-10.1-20.8-10.1c-0.1,0-0.2-0.1-0.3-0.1
					c-0.1-0.1-0.1-0.2,0-0.3c2.5-6.9-4.8-16.4-4.8-16.5c-0.1-0.1-0.1-0.3,0.1-0.4c0.1-0.1,0.3-0.1,0.4,0.1c0.3,0.4,7.3,9.5,5.1,16.7
					c4.8,0.3,16.6,4.7,20.9,10.3c0.1,0.1,0.1,0.3-0.1,0.4C1514.7,494.9,1514.6,494.9,1514.6,494.9z"/>
			</g>
			<g>
				<path class="st1" d="M1526.8,497c-0.1,0-0.3-0.1-0.3-0.2c-1.8-5.5-7.8-10-12.5-12.7c-5.6-3.2-11.2-5.1-13.1-5.2
					c-0.1,0-0.2,0-0.2-0.1c-0.1-0.1-0.1-0.1-0.1-0.2c0.9-11.2-5.9-18.9-6-19c-0.1-0.1-0.1-0.3,0-0.4c0.1-0.1,0.3-0.1,0.4,0
					c0.1,0.1,7,7.8,6.2,19.2c4.7,0.5,22.5,7.9,25.9,18.3C1527.2,496.8,1527.1,496.9,1526.8,497C1526.9,497,1526.9,497,1526.8,497z"
					/>
			</g>
			<g>
				<path class="st1" d="M1523.9,484.2c-0.1,0-0.2-0.1-0.3-0.2c-3.5-7.3-11.2-9.2-15.5-9.6c-0.1,0-0.2-0.1-0.2-0.1
					c-0.1-0.1-0.1-0.2-0.1-0.2c1-8.8-6.4-19.4-6.4-19.5c-0.1-0.1-0.1-0.3,0.1-0.4c0.1-0.1,0.3-0.1,0.4,0.1
					c0.3,0.4,7.4,10.7,6.6,19.7c4.4,0.5,12.1,2.5,15.7,10c0.1,0.2,0,0.3-0.1,0.4C1524,484.2,1523.9,484.2,1523.9,484.2z"/>
			</g>
			<g>
				<path class="st1" d="M1531.3,483.6c-0.2,0-0.3-0.1-0.3-0.3c-1.1-6.7-10.7-12.7-15.9-12.8c-0.1,0-0.2-0.1-0.3-0.2
					c-0.1-0.1-0.1-0.2,0-0.3c3.9-6.2-2.9-16.5-2.9-16.6c-0.1-0.1-0.1-0.3,0.1-0.4c0.1-0.1,0.3-0.1,0.4,0.1
					c0.3,0.4,6.7,10.2,3.2,16.8c5.6,0.4,14.9,6.4,16,13.3C1531.7,483.4,1531.6,483.6,1531.3,483.6
					C1531.4,483.6,1531.3,483.6,1531.3,483.6z"/>
			</g>
			<g>
				<path class="st1" d="M1532.3,473.1c-0.1,0-0.3-0.1-0.3-0.3c-0.6-3-4.8-4.8-7.5-5.1c-0.1,0-0.2-0.1-0.3-0.2c0-0.1,0-0.2,0-0.3
					c3.1-4.4,0.5-7.3,0.4-7.5c-0.1-0.1-0.1-0.3,0-0.4c0.1-0.1,0.3-0.1,0.4,0c0,0,2.9,3.2,0,7.8c2.9,0.5,6.9,2.4,7.6,5.6
					C1532.7,472.9,1532.6,473.1,1532.3,473.1C1532.4,473.1,1532.4,473.1,1532.3,473.1z"/>
			</g>
		</g>
	</g>
</g>
<g>
	<g>
		<path class="st2" d="M759.2,489.8l-5.9,35.8c-12.7,2.8-25.7,3.1-39,1.1l-2-39.1L759.2,489.8z"/>
		<path class="st1" d="M731.2,528.3c-5.6,0-11.2-0.4-16.9-1.3c-0.2,0-0.3-0.2-0.3-0.3l-2-39.1c0-0.1,0-0.2,0.1-0.3
			c0.1-0.1,0.2-0.1,0.3-0.1l46.9,2.2c0.1,0,0.2,0.1,0.3,0.1c0.1,0.1,0.1,0.2,0.1,0.3l-5.9,35.8c0,0.1-0.1,0.3-0.3,0.3
			C746.1,527.5,738.7,528.3,731.2,528.3z M714.7,526.3c13,2,25.9,1.6,38.3-1l5.8-35.1l-46.1-2.2L714.7,526.3z"/>
	</g>
	<g>
		<ellipse class="st1" cx="739.7" cy="488.3" rx="21.4" ry="2.3"/>
		<path class="st1" d="M739.7,490.9c-5.7,0-11.1-0.2-15.2-0.7c-6.6-0.7-6.6-1.5-6.6-2s0-1.3,6.6-2c4.1-0.4,9.5-0.7,15.2-0.7
			c5.7,0,11.1,0.2,15.2,0.7c6.6,0.7,6.6,1.5,6.6,2s0,1.3-6.6,2C750.8,490.7,745.4,490.9,739.7,490.9z M718.6,488.3
			c0.6,0.8,8.3,1.9,21.1,1.9s20.4-1.1,21.1-1.9c-0.6-0.8-8.3-1.9-21.1-1.9C727,486.4,719.3,487.5,718.6,488.3z M760.8,488.3
			L760.8,488.3L760.8,488.3z"/>
	</g>
	<g>
		<g>
			<g>
				<g>
					<path class="st3" d="M738,477.5c0,0,51.3,29.4,77.3-6.9c26-36.4,14.7-70.2-13.7-85.7c-28.4-15.5-67.4-3.4-79.6,15.4
						C709.9,419.2,742.7,470.4,738,477.5z"/>
					<path class="st1" d="M778.7,489.1c-3.8,0-7.7-0.4-11.9-1.1c-16-2.8-28.9-10.1-29-10.2c-0.1,0-0.1-0.1-0.2-0.2
						c0-0.1,0-0.2,0-0.3c1.7-2.6-2.1-12-6.5-23c-7.6-18.9-17.1-42.5-9.5-54.3c6.1-9.5,18.8-17.3,33.9-20.8c16.6-3.8,32.9-2,46.1,5.2
						c14.2,7.8,23.9,20,27.2,34.4c3.8,16.4-0.9,34.3-13.4,51.9c-6,8.4-13.8,13.9-23.2,16.6C788.2,488.5,783.6,489.1,778.7,489.1z
						 M738.5,477.4c2,1.1,14,7.4,28.5,10c14.6,2.5,34.7,1.7,48-17c12.4-17.4,17-35.1,13.3-51.3c-3.2-14.2-12.8-26.2-26.8-33.9
						c-13-7.1-29.2-9-45.6-5.2c-14.9,3.5-27.5,11.1-33.5,20.5c-7.4,11.5,2.4,35.9,9.5,53.6C736.4,465.3,740,474.2,738.5,477.4z"/>
				</g>
				<g>
					<path class="st1" d="M720.1,489.7c-0.2,0-0.4-0.1-0.5-0.3c-0.1-0.3,0-0.6,0.3-0.7c26-12.3,45.4-34.2,57.1-50.3
						c12.7-17.5,19.4-32.3,19.5-32.4c0.1-0.3,0.4-0.4,0.7-0.3c0.3,0.1,0.4,0.4,0.3,0.7c-0.1,0.1-6.8,15-19.6,32.6
						c-11.8,16.3-31.4,38.2-57.6,50.7C720.2,489.7,720.1,489.7,720.1,489.7z"/>
				</g>
				<g>
					<path class="st1" d="M814.2,419.4c-0.1,0-0.1,0-0.2-0.1c-0.1-0.1-11.9-7.7-22-2.9c-0.1,0-0.2,0-0.3,0c-0.1,0-0.2-0.1-0.2-0.2
						c-2.7-11.5-14.7-22.7-14.9-22.8c-0.1-0.1-0.2-0.4,0-0.5c0.1-0.1,0.4-0.2,0.5,0c0.1,0.1,12.1,11.2,15,22.8
						c10.5-4.6,22.2,3.1,22.3,3.2c0.2,0.1,0.2,0.3,0.1,0.5C814.4,419.4,814.3,419.4,814.2,419.4z"/>
				</g>
				<g>
					<path class="st1" d="M812.6,438.5c-0.1,0-0.1,0-0.2-0.1c-0.2-0.1-17.9-13.1-26.3-11.5c-0.2,0-0.4-0.1-0.4-0.2
						c-1.8-6.5-10.4-24.9-27.8-32.1c-0.2-0.1-0.3-0.3-0.2-0.5c0.1-0.2,0.3-0.3,0.5-0.2c17.4,7.2,26.1,25.5,28.2,32.3
						c8.8-1.2,25.8,11.2,26.5,11.7c0.2,0.1,0.2,0.3,0.1,0.5C812.9,438.5,812.8,438.5,812.6,438.5z"/>
				</g>
				<g>
					<path class="st1" d="M819.6,456.2c-0.1,0-0.1,0-0.2-0.1c-0.3-0.2-26.5-19.5-40.2-18.1c-0.1,0-0.2,0-0.3-0.1
						c-0.1-0.1-0.1-0.2-0.1-0.2c-0.2-3.5-4.2-11.2-11.4-18.8c-6.1-6.3-16.2-14.5-29.9-17.5c-0.2,0-0.3-0.2-0.3-0.4
						c0-0.2,0.2-0.3,0.4-0.3c13.9,3,24.1,11.3,30.3,17.7c7.2,7.5,11.2,15,11.6,18.9c14.1-1.1,39.2,17.5,40.3,18.3
						c0.2,0.1,0.2,0.3,0.1,0.5C819.8,456.1,819.7,456.2,819.6,456.2z"/>
				</g>
				<g>
					<path class="st1" d="M802.4,460.8c-0.1,0-0.2,0-0.2-0.1c-0.1-0.1-15.1-14.6-30.7-13.8c-0.2,0-0.3-0.1-0.4-0.3
						c-1.1-8.3-17.9-28.6-34-31.6c-0.2,0-0.3-0.2-0.3-0.4c0-0.2,0.2-0.3,0.4-0.3c7.1,1.3,15.4,6.3,22.8,13.8
						c6.3,6.3,10.9,13.5,11.7,18c15.8-0.6,30.8,13.9,31,14c0.1,0.1,0.1,0.4,0,0.5C802.6,460.8,802.5,460.8,802.4,460.8z"/>
				</g>
				<g>
					<path class="st1" d="M792.8,471.9c-0.1,0-0.2,0-0.3-0.1c-0.2-0.2-16.4-17.3-29.1-15c-0.1,0-0.2,0-0.3-0.1
						c-0.1-0.1-0.1-0.2-0.1-0.3c-0.1-9.4-11.4-21.3-25.8-26.9c-0.2-0.1-0.3-0.3-0.2-0.5c0.1-0.2,0.3-0.3,0.5-0.2
						c14.4,5.7,25.8,17.6,26.2,27.2c13.1-1.9,28.7,14.6,29.4,15.3c0.1,0.1,0.1,0.4,0,0.5C793,471.9,792.9,471.9,792.8,471.9z"/>
				</g>
				<g>
					<path class="st1" d="M785.9,479.4c-0.1,0-0.2,0-0.3-0.1c-0.1-0.1-12.5-12.6-31.2-13.9c-0.2,0-0.3-0.1-0.3-0.3
						c-0.9-7.2-10.2-22.7-18.9-23.7c-0.2,0-0.3-0.2-0.3-0.4c0-0.2,0.2-0.3,0.4-0.3c9.1,1.1,18.4,16.4,19.5,24.1
						c18.9,1.4,31.3,14,31.4,14.1c0.1,0.1,0.1,0.4,0,0.5C786.1,479.4,786,479.4,785.9,479.4z"/>
				</g>
			</g>
			<g>
				<g>
					<path class="st1" d="M757.5,487.8c0,0,25.8-23.2,39.7-13c13.9,10.1,30.8,29.1,15.1,48.9c-15.7,19.9-39.3,23.4-54,3.3
						C743.5,507,762,500.2,757.5,487.8z"/>
					<path class="st1" d="M782.4,540.8c-0.2,0-0.3,0-0.5,0c-9.3-0.2-17.6-4.9-24-13.6c-9-12.3-5.7-19.8-2.8-26.4
						c1.9-4.2,3.6-8.2,1.9-12.9c0-0.1,0-0.3,0.1-0.4c0.1-0.1,6.6-5.9,14.7-10.4c10.8-6,19.6-6.9,25.4-2.7c7.2,5.2,19.5,16,21.3,29.3
						c1,7-1.1,13.7-6.1,20.1C804.1,534.7,793.1,540.8,782.4,540.8z M757.9,488c1.7,4.9-0.1,8.9-2,13.2c-3,6.7-6.1,13.7,2.7,25.7
						c6.2,8.5,14.3,13.1,23.4,13.3c10.6,0.2,21.6-5.9,30.1-16.6c4.9-6.2,6.9-12.8,6-19.6c-1.8-13.1-14-23.7-21.1-28.9
						C784,465.7,760.2,486,757.9,488z"/>
				</g>
				<g>
					<path class="st2" d="M802.7,523.6c-0.2,0-0.4-0.1-0.5-0.3c0-0.1-4.7-8.3-12.6-16.7c-7.2-7.7-18.7-17.2-32.2-18.2
						c-17.3-1.4-19.9-0.3-20.2-0.1c-0.1,0.2-0.3,0.3-0.5,0.3c-0.3,0-0.5-0.3-0.5-0.5c0-0.1,0-0.3,0.2-0.5c1.2-1.1,8.7-1.2,21.1-0.2
						c13.9,1.1,25.6,10.7,32.9,18.6c7.9,8.5,12.7,16.9,12.7,16.9c0.1,0.3,0.1,0.6-0.2,0.7C802.8,523.6,802.8,523.6,802.7,523.6z
						 M737.3,488L737.3,488L737.3,488z M737.3,488C737.3,488,737.3,488,737.3,488C737.3,488,737.3,488,737.3,488z M737.3,488
						C737.3,488,737.3,488,737.3,488C737.3,488,737.3,488,737.3,488z M737.3,488C737.3,488,737.3,488,737.3,488
						C737.3,488,737.3,488,737.3,488z M737.3,488C737.3,488,737.3,488,737.3,488C737.3,488,737.3,488,737.3,488z"/>
				</g>
				<g>
					<path class="st2" d="M758.8,508.7c-0.1,0-0.2-0.1-0.3-0.2c-0.1-0.2,0-0.4,0.1-0.5c3.4-1.8,9.8-7.8,10.1-12.9
						c0.1-2.2-0.9-4.1-3-5.5c-0.1-0.1-0.2-0.2-0.1-0.4c0-0.1,0.2-0.2,0.3-0.3c7.7-0.7,18.4-11.1,18.5-11.2c0.1-0.1,0.4-0.1,0.5,0
						c0.1,0.1,0.1,0.4,0,0.5c-0.4,0.4-10.3,10-18.1,11.3c1.9,1.5,2.7,3.4,2.6,5.6c-0.3,5.5-6.9,11.6-10.5,13.5
						C758.9,508.6,758.8,508.7,758.8,508.7z"/>
				</g>
				<g>
					<path class="st2" d="M758.3,517.3c-0.2,0-0.3-0.1-0.3-0.2c-0.1-0.2,0-0.4,0.2-0.4c7.9-2.4,14-7.8,16.3-14.4
						c1.3-3.7,1.1-7.1-0.4-9.4c-0.1-0.1-0.1-0.2,0-0.4c0.1-0.1,0.2-0.2,0.3-0.2c14.2-0.8,22.6-11.2,22.6-11.3
						c0.1-0.2,0.3-0.2,0.5-0.1c0.2,0.1,0.2,0.3,0.1,0.5c-0.1,0.1-8.3,10.4-22.6,11.5c1.4,2.5,1.5,5.9,0.2,9.5
						c-2.4,6.8-8.7,12.4-16.8,14.8C758.4,517.3,758.4,517.3,758.3,517.3z"/>
				</g>
				<g>
					<path class="st2" d="M767.5,523.6c-0.2,0-0.3-0.1-0.3-0.3c0-0.2,0.1-0.4,0.3-0.4c4-0.5,7.6-2.9,10.4-6.9
						c4-5.8,5.4-13.6,4.7-16.7c0-0.1,0-0.2,0.1-0.3c0.1-0.1,0.2-0.1,0.3-0.1c11.4,2.7,22.1-7.3,22.2-7.4c0.1-0.1,0.4-0.1,0.5,0
						c0.1,0.1,0.1,0.4,0,0.5c-0.1,0.1-10.7,10.1-22.3,7.7c0.5,3.4-0.9,10.8-4.9,16.7C775.5,520.7,771.7,523.1,767.5,523.6
						C767.5,523.6,767.5,523.6,767.5,523.6z"/>
				</g>
				<g>
					<path class="st2" d="M771.3,534.5c-0.2,0-0.3-0.1-0.3-0.3c-0.1-0.2,0.1-0.4,0.2-0.4c16.3-4.5,18.1-17.3,19.1-25
						c0.1-0.6,0.2-1.2,0.2-1.7c0-0.1,0.1-0.2,0.2-0.2c0.1-0.1,0.2-0.1,0.3,0c6,1.9,19.4-3.5,19.5-3.5c0.2-0.1,0.4,0,0.5,0.2
						c0.1,0.2,0,0.4-0.2,0.5c-0.5,0.2-13.2,5.3-19.6,3.6c-0.1,0.4-0.1,0.9-0.2,1.3C790,516.8,788.2,529.9,771.3,534.5
						C771.4,534.5,771.4,534.5,771.3,534.5z"/>
				</g>
				<g>
					<path class="st2" d="M790.1,532.1c-0.1,0-0.3-0.1-0.3-0.2c-0.1-0.2,0-0.4,0.2-0.5c4.2-1.8,7.4-10,6.6-17.2c0-0.1,0-0.2,0.1-0.3
						c0.1-0.1,0.2-0.1,0.3-0.1c3.4,1,9.2-1.7,9.3-1.7c0.2-0.1,0.4,0,0.5,0.2c0.1,0.2,0,0.4-0.2,0.5c-0.2,0.1-5.6,2.6-9.3,1.9
						c0.6,7.3-2.7,15.5-7.1,17.4C790.2,532.1,790.1,532.1,790.1,532.1z"/>
				</g>
			</g>
			<g>
				<g>
					<path class="st2" d="M735.4,480.2c0,0-2.5-36.1-20.2-38.6c-17.8-2.5-44.2-0.6-46.9,25.6c-2.7,26.2,12.5,46.1,38.1,41.7
						C731.9,504.6,723,486.2,735.4,480.2z"/>
					<path class="st1" d="M699.4,509.9c-8.2,0-15.3-2.7-20.8-7.9c-8.3-7.7-12.2-20.4-10.7-34.9c0.9-8.4,4.2-15,10-19.5
						c11.1-8.7,28.1-7.8,37.3-6.5c7.4,1,13.3,8.1,17.1,20.5c2.8,9.3,3.5,18.3,3.5,18.4c0,0.1-0.1,0.3-0.2,0.3
						c-4.7,2.3-6.3,6.6-7.9,11.1c-2.6,7.1-5.5,15.1-21.2,17.7C704,509.7,701.7,509.9,699.4,509.9z M703.9,441.1
						c-8.5,0-18.3,1.5-25.5,7.1c-5.6,4.4-8.9,10.8-9.7,19c-1.5,14.2,2.4,26.7,10.5,34.3c6.9,6.5,16.3,8.9,27.2,7.1
						c15.3-2.6,18-10.1,20.7-17.3c1.7-4.6,3.3-8.9,8.1-11.4c-0.3-3.1-3.4-35.7-19.9-38C712.1,441.5,708.1,441.1,703.9,441.1z"/>
				</g>
				<g>
					<path class="st1" d="M738.2,489.8c-0.2,0-0.4-0.1-0.5-0.3c-0.1-0.3,0-0.6,0.2-0.7c0,0,1-0.5,1.2-1.7c0.1-1.2-0.4-3.2-4.1-6.5
						c-10.6-9.4-26.1-10.6-37.2-10c-12.1,0.7-21.7,3.6-21.8,3.7c-0.3,0.1-0.6-0.1-0.7-0.3c-0.1-0.3,0.1-0.6,0.3-0.7
						c0.1,0,9.9-3,22-3.7c11.3-0.6,27,0.6,37.9,10.3c3.2,2.9,4.7,5.4,4.5,7.4c-0.2,1.8-1.7,2.5-1.8,2.5
						C738.4,489.8,738.3,489.8,738.2,489.8z"/>
				</g>
				<g>
					<path class="st1" d="M719.6,494.9c-0.1,0-0.3-0.1-0.3-0.2c-1.3-4-1.8-13.4,2-17.7c1.5-1.8,3.5-2.5,6.1-2.3
						c-4.9-6.6-5.3-21-5.3-21.6c0-0.2,0.1-0.4,0.3-0.4c0,0,0,0,0,0c0.2,0,0.3,0.2,0.4,0.3c0,0.2,0.5,15.8,5.7,21.8
						c0.1,0.1,0.1,0.3,0,0.4c-0.1,0.1-0.2,0.2-0.4,0.2c-2.6-0.4-4.8,0.2-6.3,2c-3.5,4.1-3.1,13.3-1.8,17.1c0.1,0.2,0,0.4-0.2,0.4
						C719.6,494.9,719.6,494.9,719.6,494.9z"/>
				</g>
				<g>
					<path class="st1" d="M713.6,501.7c-0.1,0-0.2-0.1-0.3-0.2c-4.3-7.7-5-16.4-1.8-23.3c1.7-3.6,4.2-6.1,7.1-7
						c-9.9-11.2-8.6-24.9-8.6-25c0-0.2,0.2-0.3,0.4-0.3c0.2,0,0.3,0.2,0.3,0.4c0,0.1-1.3,13.9,8.8,24.9c0.1,0.1,0.1,0.2,0.1,0.3
						c0,0.1-0.1,0.2-0.3,0.2c-2.8,0.6-5.4,3-7.1,6.7c-3.1,6.7-2.4,15.1,1.8,22.6c0.1,0.2,0,0.4-0.1,0.5
						C713.8,501.7,713.7,501.7,713.6,501.7z"/>
				</g>
				<g>
					<path class="st1" d="M702.1,499.8c-0.1,0-0.2,0-0.3-0.1c-2.8-3.4-3.8-8-2.9-13.2c1.2-7.3,5.6-13.9,8.4-16.1
						c-10.5-6.6-11.1-21.8-11.1-22c0-0.2,0.1-0.4,0.3-0.4c0.2,0,0.4,0.1,0.4,0.3c0,0.2,0.7,15.4,11.2,21.7c0.1,0.1,0.2,0.2,0.2,0.3
						c0,0.1-0.1,0.2-0.2,0.3c-2.8,1.8-7.4,8.7-8.6,15.9c-0.8,5,0.1,9.4,2.8,12.7c0.1,0.2,0.1,0.4-0.1,0.5
						C702.3,499.8,702.2,499.8,702.1,499.8z"/>
				</g>
				<g>
					<path class="st1" d="M691.4,505.2c-0.1,0-0.2-0.1-0.3-0.2c-9.2-15.6-1-26.7,3.9-33.4c0.3-0.4,0.6-0.8,0.8-1.2
						c-6-3.4-11.8-16.4-12.1-17c-0.1-0.2,0-0.4,0.2-0.5c0.2-0.1,0.4,0,0.5,0.2c0.1,0.1,6.2,13.9,12.1,16.8c0.1,0,0.2,0.1,0.2,0.2
						c0,0.1,0,0.2-0.1,0.3c-0.3,0.5-0.7,1-1.1,1.5c-4.8,6.5-12.9,17.4-3.9,32.6c0.1,0.2,0,0.4-0.1,0.5
						C691.5,505.1,691.4,505.2,691.4,505.2z"/>
				</g>
				<g>
					<path class="st1" d="M679.1,489.7c-0.1,0-0.3-0.1-0.3-0.2c-1.9-4.6,1.6-13.1,7.3-18.2c-3.3-2.2-5.5-7.9-5.6-8.1
						c-0.1-0.2,0-0.4,0.2-0.5c0.2-0.1,0.4,0,0.5,0.2c0,0.1,2.4,6.2,5.7,8c0.1,0.1,0.2,0.2,0.2,0.3c0,0.1,0,0.2-0.1,0.3
						c-5.8,4.8-9.3,13.2-7.5,17.7c0.1,0.2,0,0.4-0.2,0.5C679.1,489.7,679.1,489.7,679.1,489.7z"/>
				</g>
			</g>
		</g>
	</g>
</g>
</svg>
