<?xml version="1.0" encoding="UTF-8"?>
<svg id="Layer_1" data-name="Layer 1" xmlns="http://www.w3.org/2000/svg" xmlns:xlink="http://www.w3.org/1999/xlink" viewBox="0 0 1600 600">
  <defs>
    <style>
      .cls-1 {
        fill: none;
      }

      .cls-2 {
        clip-path: url(#clippath);
      }

      .cls-3 {
        fill: #fff;
      }

      .cls-4 {
        fill: #8eabf4;
      }

      .cls-5 {
        fill: #4373ef;
      }

      .cls-6 {
        fill: #1a1a1a;
      }

      .cls-7 {
        fill: url(#radial-gradient);
      }
    </style>
    <clipPath id="clippath">
      <rect class="cls-1" x="-38.46" y="7.08" width="1634.25" height="583.52"/>
    </clipPath>
    <radialGradient id="radial-gradient" cx="689.4" cy="833.56" fx="689.4" fy="833.56" r="795.43" gradientTransform="translate(99.71 393.24) scale(1 .23)" gradientUnits="userSpaceOnUse">
      <stop offset=".41" stop-color="#ebebf2"/>
      <stop offset="1" stop-color="#ebebf2" stop-opacity="0"/>
    </radialGradient>
  </defs>
  <g class="cls-2">
    <ellipse class="cls-7" cx="791.69" cy="584.58" rx="804.09" ry="184.48"/>
  </g>
  <g>
    <g>
      <path class="cls-6" d="M347.73,65.24s-.04,0-.06,0c-.74-.11-1.47-.22-2.21-.32-.2-.03-.35-.22-.32-.42s.22-.35,.42-.32c.74,.1,1.48,.21,2.22,.32,.2,.03,.34,.22,.31,.42-.03,.18-.19,.32-.37,.32Z"/>
      <path class="cls-6" d="M306.46,356.8s-.03,0-.04,0c-1.49-.17-2.98-.34-4.45-.52-.2-.02-.35-.21-.33-.41,.03-.2,.21-.35,.41-.32,1.47,.18,2.95,.35,4.44,.51,.2,.02,.35,.21,.33,.41-.02,.19-.18,.33-.37,.33Zm-8.88-1.08s-.03,0-.05,0c-1.49-.2-2.98-.4-4.43-.61-.2-.03-.35-.22-.32-.42,.03-.2,.22-.34,.42-.32,1.45,.21,2.94,.42,4.43,.61,.2,.03,.35,.21,.32,.42-.02,.19-.18,.32-.37,.32Zm-8.85-1.28s-.04,0-.06,0c-1.47-.23-2.96-.47-4.42-.72-.2-.03-.34-.23-.31-.43,.03-.2,.22-.34,.43-.31,1.46,.25,2.94,.49,4.41,.72,.2,.03,.34,.22,.31,.43-.03,.18-.19,.32-.37,.32Zm-8.82-1.49s-.04,0-.07,0c-1.48-.27-2.96-.55-4.4-.83-.2-.04-.33-.24-.29-.44,.04-.2,.23-.33,.44-.29,1.44,.28,2.92,.56,4.39,.83,.2,.04,.34,.23,.3,.43-.03,.18-.19,.31-.37,.31Zm-8.78-1.72s-.05,0-.08,0c-1.46-.31-2.93-.63-4.38-.95-.2-.05-.33-.24-.28-.45,.05-.2,.25-.33,.45-.28,1.44,.32,2.91,.64,4.37,.95,.2,.04,.33,.24,.29,.44-.04,.18-.19,.3-.36,.3Zm-8.73-1.96s-.06,0-.09-.01c-1.46-.35-2.92-.71-4.35-1.08-.2-.05-.32-.25-.27-.45,.05-.2,.26-.32,.45-.27,1.42,.36,2.88,.73,4.34,1.08,.2,.05,.32,.25,.28,.45-.04,.17-.19,.29-.36,.29Zm-8.66-2.22s-.07,0-.1-.01c-1.44-.39-2.89-.8-4.31-1.22-.2-.06-.31-.26-.25-.46s.26-.31,.46-.25c1.41,.41,2.86,.82,4.3,1.21,.2,.05,.32,.26,.26,.46-.05,.17-.2,.27-.36,.27Zm-8.59-2.5s-.07,0-.11-.02c-1.43-.44-2.86-.9-4.27-1.36-.2-.06-.3-.28-.24-.47,.06-.2,.27-.3,.47-.24,1.4,.46,2.83,.92,4.25,1.36,.2,.06,.31,.27,.25,.47-.05,.16-.2,.26-.36,.26Zm-8.49-2.8s-.08,0-.12-.02c-1.41-.5-2.83-1.01-4.21-1.52-.19-.07-.29-.29-.22-.48,.07-.19,.29-.29,.48-.22,1.38,.51,2.79,1.02,4.2,1.52,.19,.07,.3,.28,.23,.48-.05,.15-.2,.25-.35,.25Zm-8.38-3.12s-.09,0-.14-.03c-1.39-.55-2.79-1.12-4.15-1.69-.19-.08-.28-.3-.2-.49,.08-.19,.3-.28,.49-.2,1.35,.57,2.75,1.14,4.13,1.69,.19,.08,.28,.29,.21,.48-.06,.15-.2,.24-.35,.24Zm-8.24-3.47c-.05,0-.1-.01-.15-.03-1.37-.61-2.74-1.24-4.07-1.88-.19-.09-.27-.31-.18-.5,.09-.19,.31-.26,.5-.18,1.32,.63,2.69,1.26,4.05,1.87,.19,.08,.27,.3,.19,.49-.06,.14-.2,.22-.34,.22Zm-8.08-3.84c-.06,0-.11-.01-.17-.04-1.34-.67-2.67-1.37-3.97-2.07-.18-.1-.25-.32-.15-.5,.1-.18,.32-.25,.5-.15,1.3,.7,2.63,1.39,3.96,2.06,.18,.09,.26,.32,.16,.5-.07,.13-.2,.2-.33,.2Zm-7.88-4.23c-.06,0-.13-.02-.18-.05-1.3-.74-2.6-1.51-3.86-2.28-.18-.11-.23-.34-.12-.51,.11-.18,.34-.23,.51-.12,1.26,.77,2.55,1.53,3.84,2.27,.18,.1,.24,.33,.14,.51-.07,.12-.19,.19-.32,.19Zm-7.64-4.65c-.07,0-.14-.02-.2-.06-1.26-.81-2.51-1.65-3.72-2.49-.17-.12-.21-.35-.09-.52,.12-.17,.35-.21,.52-.09,1.21,.84,2.46,1.67,3.71,2.48,.17,.11,.22,.34,.11,.52-.07,.11-.19,.17-.31,.17Zm-7.35-5.09c-.08,0-.15-.02-.22-.07-1.2-.89-2.4-1.81-3.56-2.72-.16-.13-.19-.36-.06-.52,.13-.16,.36-.19,.52-.06,1.15,.91,2.35,1.82,3.54,2.71,.17,.12,.2,.36,.08,.52-.07,.1-.19,.15-.3,.15Zm-7.01-5.55c-.08,0-.17-.03-.24-.09-1.14-.97-2.28-1.96-3.37-2.96-.15-.14-.16-.37-.03-.53,.14-.15,.37-.16,.53-.02,1.09,.99,2.21,1.98,3.35,2.94,.16,.13,.18,.37,.04,.53-.07,.09-.18,.13-.28,.13Zm-6.61-6.01c-.09,0-.19-.04-.26-.11-1.07-1.05-2.13-2.12-3.15-3.19-.14-.15-.14-.39,.01-.53,.15-.14,.39-.14,.53,.01,1.01,1.07,2.06,2.14,3.13,3.17,.15,.14,.15,.38,0,.53-.07,.07-.17,.11-.27,.11Zm-6.15-6.49c-.1,0-.21-.04-.28-.13-.99-1.13-1.96-2.28-2.89-3.43-.13-.16-.1-.39,.06-.52,.16-.13,.39-.1,.52,.06,.92,1.14,1.89,2.29,2.87,3.41,.14,.15,.12,.39-.03,.53-.07,.06-.16,.09-.25,.09Zm-5.62-6.95c-.11,0-.23-.05-.3-.15-.89-1.2-1.77-2.43-2.6-3.66-.12-.17-.07-.4,.1-.52,.17-.12,.4-.07,.52,.1,.83,1.22,1.7,2.44,2.58,3.63,.12,.17,.09,.4-.08,.52-.07,.05-.14,.07-.22,.07Zm-5.02-7.39c-.12,0-.25-.06-.32-.18-.78-1.27-1.55-2.57-2.28-3.86-.1-.18-.04-.41,.14-.51,.18-.1,.41-.04,.51,.14,.72,1.29,1.48,2.58,2.26,3.84,.11,.18,.05,.4-.12,.51-.06,.04-.13,.06-.2,.06Zm-4.37-7.8c-.14,0-.27-.07-.33-.2-.67-1.33-1.32-2.7-1.93-4.05-.08-.19,0-.41,.19-.49,.19-.08,.41,0,.49,.19,.6,1.34,1.25,2.7,1.92,4.02,.09,.18,.02,.41-.16,.5-.05,.03-.11,.04-.17,.04Zm-3.67-8.15c-.15,0-.29-.09-.35-.24-.55-1.38-1.08-2.8-1.56-4.21-.07-.19,.04-.41,.23-.47,.19-.07,.41,.04,.47,.23,.48,1.4,1.01,2.8,1.55,4.17,.08,.19-.02,.41-.21,.48-.05,.02-.09,.03-.14,.03Zm-2.93-8.44c-.16,0-.31-.1-.36-.27-.42-1.42-.82-2.88-1.18-4.31-.05-.2,.07-.4,.27-.45,.2-.05,.4,.07,.45,.27,.36,1.43,.75,2.87,1.17,4.28,.06,.2-.05,.4-.25,.46-.04,.01-.07,.02-.11,.02Zm-2.17-8.65c-.17,0-.33-.12-.36-.3-.3-1.46-.57-2.94-.81-4.41-.03-.2,.11-.39,.31-.43,.2-.03,.39,.11,.43,.31,.24,1.46,.5,2.93,.8,4.38,.04,.2-.09,.4-.29,.44-.03,0-.05,0-.08,0Zm-1.42-8.82c-.19,0-.35-.14-.37-.33-.17-1.48-.32-2.98-.44-4.47-.02-.21,.14-.38,.34-.4,.2-.02,.38,.14,.4,.34,.11,1.48,.26,2.97,.43,4.44,.02,.2-.12,.39-.33,.41-.01,0-.03,0-.04,0Zm-.69-8.92c-.2,0-.36-.16-.37-.36-.05-1.37-.07-2.76-.07-4.13v-.36c0-.21,.17-.37,.37-.37h0c.21,0,.37,.17,.37,.37v.36c0,1.37,.02,2.75,.07,4.11,0,.21-.15,.38-.36,.39,0,0,0,0-.01,0Zm.03-8.95s-.01,0-.02,0c-.21,0-.37-.18-.36-.39,.06-1.48,.15-2.99,.27-4.49,.02-.21,.19-.36,.4-.34,.2,.02,.36,.2,.34,.4-.12,1.49-.21,2.99-.27,4.46,0,.2-.17,.36-.37,.36Zm.7-8.93s-.03,0-.04,0c-.2-.02-.35-.21-.33-.41,.17-1.47,.37-2.97,.59-4.45,.03-.2,.22-.34,.42-.31,.2,.03,.34,.22,.31,.42-.22,1.47-.42,2.96-.59,4.42-.02,.19-.18,.33-.37,.33Zm1.34-8.84s-.05,0-.07,0c-.2-.04-.34-.23-.3-.43,.27-1.45,.57-2.93,.9-4.39,.04-.2,.24-.33,.44-.28,.2,.04,.33,.24,.28,.44-.32,1.45-.62,2.92-.89,4.37-.03,.18-.19,.3-.37,.3Zm1.93-8.73s-.06,0-.09-.01c-.2-.05-.32-.25-.27-.45,.37-1.43,.76-2.89,1.18-4.33,.06-.2,.26-.31,.46-.25,.2,.06,.31,.26,.25,.46-.41,1.43-.81,2.88-1.17,4.3-.04,.17-.19,.28-.36,.28Zm2.49-8.59s-.08,0-.11-.02c-.2-.06-.3-.27-.24-.47,.45-1.41,.94-2.83,1.44-4.25,.07-.19,.28-.3,.48-.23,.19,.07,.29,.28,.23,.48-.5,1.4-.98,2.83-1.43,4.23-.05,.16-.2,.26-.35,.26Zm3-8.43s-.09,0-.14-.03c-.19-.07-.29-.29-.21-.48,.54-1.39,1.11-2.78,1.69-4.15,.08-.19,.3-.28,.49-.2,.19,.08,.28,.3,.2,.49-.58,1.37-1.14,2.76-1.68,4.14-.06,.15-.2,.24-.35,.24Zm3.48-8.24c-.05,0-.1-.01-.15-.03-.19-.09-.27-.31-.18-.49,.61-1.35,1.26-2.71,1.91-4.06,.09-.18,.31-.26,.5-.17,.18,.09,.26,.31,.17,.5-.65,1.34-1.29,2.69-1.9,4.04-.06,.14-.2,.22-.34,.22Zm3.92-8.04c-.06,0-.12-.01-.17-.04-.18-.1-.25-.32-.16-.5,.69-1.31,1.4-2.64,2.12-3.95,.1-.18,.33-.25,.51-.15,.18,.1,.25,.33,.15,.51-.72,1.3-1.43,2.62-2.11,3.93-.07,.13-.2,.2-.33,.2Zm4.34-7.83c-.06,0-.13-.02-.19-.05-.18-.1-.24-.33-.13-.51,.75-1.28,1.53-2.57,2.32-3.84,.11-.17,.34-.23,.51-.12,.17,.11,.23,.34,.12,.51-.79,1.26-1.56,2.55-2.31,3.82-.07,.12-.19,.18-.32,.18Zm4.73-7.6c-.07,0-.14-.02-.2-.06-.17-.11-.22-.34-.11-.52,.81-1.24,1.65-2.49,2.51-3.72,.12-.17,.35-.21,.52-.09,.17,.12,.21,.35,.09,.52-.85,1.23-1.69,2.47-2.5,3.7-.07,.11-.19,.17-.31,.17Zm5.09-7.36c-.08,0-.15-.02-.22-.07-.17-.12-.2-.35-.08-.52,.87-1.2,1.77-2.41,2.68-3.59,.13-.16,.36-.19,.52-.07,.16,.12,.19,.36,.07,.52-.9,1.18-1.8,2.39-2.67,3.58-.07,.1-.19,.15-.3,.15Zm5.43-7.11c-.08,0-.16-.03-.23-.08-.16-.13-.19-.36-.06-.52,.93-1.16,1.88-2.32,2.84-3.47,.13-.16,.37-.18,.53-.05,.16,.13,.18,.37,.05,.52-.96,1.14-1.91,2.3-2.83,3.45-.07,.09-.18,.14-.29,.14Zm5.75-6.85c-.09,0-.18-.03-.25-.09-.15-.14-.17-.37-.03-.53,.98-1.11,1.99-2.23,3-3.33,.14-.15,.38-.16,.53-.02,.15,.14,.16,.38,.02,.53-1.01,1.1-2.01,2.21-2.99,3.32-.07,.08-.18,.13-.28,.13Zm6.06-6.58c-.09,0-.19-.03-.26-.1-.15-.14-.15-.38-.01-.53,1.03-1.07,2.09-2.14,3.15-3.19,.15-.15,.38-.14,.53,0,.14,.15,.14,.38,0,.53-1.05,1.05-2.11,2.12-3.13,3.18-.07,.08-.17,.11-.27,.11Zm6.35-6.3c-.1,0-.2-.04-.27-.12-.14-.15-.14-.39,.01-.53,1.08-1.02,2.18-2.05,3.28-3.05,.15-.14,.39-.13,.53,.03,.14,.15,.13,.39-.03,.53-1.1,1-2.2,2.02-3.27,3.04-.07,.07-.16,.1-.26,.1Zm6.64-6.03c-.1,0-.21-.04-.28-.13-.14-.16-.12-.39,.04-.53,1.13-.98,2.28-1.96,3.43-2.91,.16-.13,.39-.11,.52,.05,.13,.16,.11,.39-.05,.52-1.14,.95-2.29,1.92-3.42,2.9-.07,.06-.16,.09-.24,.09Zm6.91-5.73c-.11,0-.22-.05-.29-.14-.13-.16-.1-.4,.06-.52,1.17-.93,2.36-1.85,3.55-2.75,.16-.12,.4-.09,.52,.07,.12,.16,.09,.4-.07,.52-1.19,.9-2.38,1.82-3.54,2.74-.07,.05-.15,.08-.23,.08Zm7.15-5.41c-.12,0-.23-.05-.3-.15-.12-.17-.08-.4,.08-.52,1.21-.88,2.45-1.75,3.67-2.59,.17-.12,.4-.07,.52,.1,.12,.17,.07,.4-.1,.52-1.22,.84-2.45,1.71-3.66,2.58-.07,.05-.14,.07-.22,.07Zm7.39-5.08c-.12,0-.24-.06-.31-.17-.11-.17-.06-.4,.11-.52,1.24-.82,2.52-1.63,3.78-2.42,.18-.11,.4-.06,.51,.12s.06,.4-.12,.51c-1.26,.79-2.53,1.6-3.77,2.41-.06,.04-.13,.06-.2,.06Zm7.61-4.74c-.13,0-.25-.07-.32-.18-.1-.18-.05-.41,.13-.51,1.29-.76,2.6-1.52,3.89-2.24,.18-.1,.41-.04,.51,.14,.1,.18,.04,.41-.14,.51-1.29,.72-2.59,1.47-3.88,2.23-.06,.04-.12,.05-.19,.05Zm7.82-4.38c-.13,0-.26-.07-.33-.2-.1-.18-.03-.41,.15-.5,1.32-.7,2.66-1.39,3.99-2.06,.19-.09,.41-.02,.5,.17,.09,.18,.02,.41-.17,.5-1.32,.66-2.66,1.35-3.98,2.05-.06,.03-.12,.04-.17,.04Zm8.01-4.01c-.14,0-.27-.08-.34-.21-.09-.19,0-.41,.18-.5,1.35-.64,2.73-1.27,4.08-1.87,.19-.08,.41,0,.49,.19,.08,.19,0,.41-.19,.49-1.35,.6-2.72,1.22-4.07,1.86-.05,.02-.11,.04-.16,.04Zm8.19-3.63c-.15,0-.28-.09-.34-.23-.08-.19,.01-.41,.2-.49,1.38-.57,2.78-1.13,4.17-1.67,.19-.07,.41,.02,.48,.21,.07,.19-.02,.41-.21,.48-1.39,.53-2.78,1.09-4.15,1.66-.05,.02-.09,.03-.14,.03Zm8.36-3.22c-.15,0-.3-.09-.35-.25-.07-.19,.03-.41,.23-.48,1.4-.5,2.83-.99,4.25-1.46,.2-.06,.41,.04,.47,.24,.06,.2-.04,.41-.24,.47-1.41,.46-2.83,.95-4.23,1.45-.04,.01-.08,.02-.13,.02Zm8.51-2.81c-.16,0-.31-.1-.36-.27-.06-.2,.05-.4,.25-.46,1.43-.43,2.88-.85,4.32-1.24,.2-.06,.4,.06,.46,.26,.05,.2-.06,.4-.26,.46-1.43,.39-2.88,.81-4.3,1.24-.04,.01-.07,.02-.11,.02Zm8.65-2.37c-.17,0-.32-.11-.36-.28-.05-.2,.07-.4,.27-.45,1.45-.36,2.92-.7,4.38-1.02,.2-.05,.4,.08,.44,.28,.04,.2-.08,.4-.28,.44-1.45,.32-2.91,.66-4.36,1.02-.03,0-.06,.01-.09,.01Zm8.76-1.92c-.18,0-.33-.12-.37-.3-.04-.2,.09-.4,.3-.44,1.47-.28,2.96-.55,4.43-.79,.21-.03,.4,.1,.43,.31,.03,.2-.1,.39-.31,.43-1.46,.24-2.95,.51-4.41,.79-.02,0-.05,0-.07,0Zm8.85-1.46c-.18,0-.34-.14-.37-.32-.03-.2,.11-.39,.32-.42,1.47-.2,2.97-.39,4.45-.55,.22-.02,.39,.13,.41,.33,.02,.2-.12,.39-.33,.41-1.47,.16-2.96,.35-4.43,.55-.02,0-.03,0-.05,0Zm40.15-.59s-.03,0-.04,0c-1.47-.16-2.97-.3-4.44-.42-.21-.02-.36-.2-.34-.4,.02-.21,.2-.36,.4-.34,1.48,.12,2.98,.26,4.46,.43,.2,.02,.35,.21,.33,.41-.02,.19-.18,.33-.37,.33Zm-31.26-.39c-.19,0-.35-.15-.37-.34-.02-.21,.14-.39,.34-.4,1.49-.12,2.99-.23,4.47-.31,.21,0,.38,.15,.39,.35,.01,.21-.15,.38-.35,.39-1.48,.08-2.97,.19-4.45,.31-.01,0-.02,0-.03,0Zm22.34-.33s-.01,0-.02,0c-1.48-.08-2.98-.14-4.46-.18-.21,0-.37-.18-.36-.38,0-.21,.18-.37,.38-.36,1.49,.04,3,.1,4.48,.18,.21,.01,.36,.19,.35,.39-.01,.2-.18,.35-.37,.35Zm-13.42-.17c-.2,0-.37-.16-.37-.36,0-.21,.16-.38,.36-.38,1.49-.04,2.99-.07,4.48-.07h0c.21,0,.37,.17,.37,.37,0,.21-.17,.37-.37,.37-1.48,0-2.98,.02-4.46,.07,0,0,0,0-.01,0Z"/>
      <path class="cls-6" d="M313.02,357.47s-.02,0-.04,0c-.75-.07-1.49-.14-2.23-.22-.2-.02-.35-.2-.33-.41,.02-.2,.21-.35,.41-.33,.74,.07,1.48,.15,2.22,.22,.2,.02,.36,.2,.34,.41-.02,.19-.18,.34-.37,.34Z"/>
    </g>
    <g>
      <g>
        <path class="cls-3" d="M261.74,157.59c-.26-.53-70.4,18.81-70.88,19.07,.23-.45,15.19-29.57,42.48-36.62,6.16-1.6,12.94-2.06,20.33-.82,8.15,1.36,15.07,4.36,20.64,8.43-5.93,1.03-9.43,4.66-12.57,9.94Z"/>
        <path class="cls-3" d="M190.85,176.66h0s0,0,0,0Z"/>
      </g>
      <g>
        <g>
          <path class="cls-6" d="M261.74,157.59c-.26-.53-70.4,18.81-70.88,19.07,.23-.45,15.19-29.57,42.48-36.62,6.16-1.6,12.94-2.06,20.33-.82,8.15,1.36,15.07,4.36,20.64,8.43-5.93,1.03-9.43,4.66-12.57,9.94Z"/>
          <path class="cls-6" d="M190.85,177.04c-.09,0-.19-.04-.26-.1-.12-.11-.15-.29-.07-.44,.16-.31,3.93-7.65,11.14-15.91,6.56-7.51,17.36-17.23,31.58-20.9,6.63-1.72,13.52-2,20.49-.83,7.89,1.32,14.89,4.18,20.8,8.5,.12,.09,.18,.24,.14,.39-.03,.15-.15,.26-.3,.28-5.15,.9-8.72,3.72-12.31,9.76-.07,.12-.2,.19-.34,.18-.02,0-.05,0-.07,0-2.82,.18-69.85,18.78-70.65,19.05-.05,.02-.1,.03-.15,.03Zm54.49-38.15c-4.04,0-8.02,.5-11.91,1.51-14.03,3.62-24.71,13.24-31.2,20.67-5.89,6.74-9.46,12.86-10.62,14.98,4.25-1.24,22.05-6.14,34.39-9.51,29.04-7.91,34.41-9.16,35.53-9.31,3.49-5.8,6.99-8.69,11.87-9.78-5.66-3.97-12.31-6.62-19.78-7.87-2.77-.46-5.53-.7-8.27-.7Zm16.07,18.87h0Zm0,0h0s0,0,0,0Zm0,0s0,0,0,0c0,0,0,0,0,0Zm0,0s0,0,0,0c0,0,0,0,0,0Zm0,0h0s0,0,0,0Zm0,0s0,0,0,0c0,0,0,0,0,0Z"/>
        </g>
        <path class="cls-6" d="M190.85,177.04c-.1,0-.19-.04-.26-.11-.15-.15-.15-.38,0-.53,.15-.15,.38-.15,.53,0,.15,.15,.15,.38,0,.53h0c-.07,.08-.17,.11-.26,.11Z"/>
      </g>
      <g>
        <path class="cls-6" d="M190.85,177.04c-.09,0-.19-.04-.26-.1-.12-.11-.15-.29-.07-.44,.16-.31,3.93-7.65,11.14-15.91,6.56-7.51,17.36-17.23,31.58-20.9,6.63-1.72,13.52-2,20.49-.83,7.89,1.32,14.89,4.18,20.8,8.5,.12,.09,.18,.24,.14,.39-.03,.15-.15,.26-.3,.28-5.15,.9-8.72,3.72-12.31,9.76-.07,.12-.2,.19-.34,.18-.02,0-.05,0-.07,0-2.82,.18-69.85,18.78-70.65,19.05-.05,.02-.1,.03-.15,.03Zm54.49-38.15c-4.04,0-8.02,.5-11.91,1.51-14.03,3.62-24.71,13.24-31.2,20.67-5.89,6.74-9.46,12.86-10.62,14.98,4.25-1.24,22.05-6.14,34.39-9.51,29.04-7.91,34.41-9.16,35.53-9.31,3.49-5.8,6.99-8.69,11.87-9.78-5.66-3.97-12.31-6.62-19.78-7.87-2.77-.46-5.53-.7-8.27-.7Zm16.07,18.87h0Zm0,0h0s0,0,0,0Zm0,0s0,0,0,0c0,0,0,0,0,0Zm0,0s0,0,0,0c0,0,0,0,0,0Zm0,0h0s0,0,0,0Zm0,0s0,0,0,0c0,0,0,0,0,0Z"/>
        <path class="cls-6" d="M190.85,177.04c-.1,0-.19-.04-.26-.11-.15-.15-.15-.38,0-.53,.15-.15,.38-.15,.53,0,.15,.15,.15,.38,0,.53h0c-.07,.08-.17,.11-.26,.11Z"/>
      </g>
    </g>
    <g>
      <path class="cls-3" d="M623.26,355.69c-9.77,20.09-20.83,37.82-33.43,44.13-58.54,23.11-110.6,22.98-137.45-5.8-72.34-75.96-138.21-17.61-154.55-42.02-21.33-31.87,53.22-60.47,13.23-89.93-6.54-4.82-11.66-6.6-15.88-6.38l35.17-19.75,45.85-23.67,6.69-3.45c4.55-.91,10.18,.61,17.69,6.15,40,29.46-51.35,74.11-30.02,105.99,9.93,14.84,39.16-3.28,90.97-13.69,72.95-14.65,69.55,22.69,118.64,50.7,19.98,13.85,26.07,7.27,43.08-2.29Z"/>
      <path class="cls-6" d="M513.26,416.82c-1.37,0-2.72-.02-4.05-.06-12.02-.38-22.91-2.42-32.39-6.09-9.77-3.78-18.08-9.29-24.71-16.39-46.34-48.66-90.48-41.97-119.68-37.54-16.8,2.55-28.93,4.39-34.9-4.53-9.97-14.9,.69-29.08,11-42.79,7.96-10.58,15.47-20.58,13.99-30.7-.86-5.85-4.67-11.19-11.67-16.34-6.08-4.47-11.19-6.53-15.64-6.3-.18,0-.33-.1-.38-.27-.05-.17,.02-.34,.18-.43l35.17-19.75,52.55-27.13s.06-.03,.1-.03c5.06-1.01,10.94,1.03,17.99,6.21,6.16,4.54,9.51,9.58,10.26,15.41,1.63,12.86-10.21,27.41-21.66,41.47-13.88,17.05-28.24,34.69-18.53,49.19,6.34,9.47,20.78,5.18,44.7-1.93,12.44-3.7,27.92-8.3,45.89-11.91,22.82-4.58,39.67-4.38,53.03,.63,12.27,4.6,20.69,12.74,30.45,22.16,9.19,8.87,19.6,18.92,35.42,27.95,17.7,12.26,24.36,8.38,37.64,.63,1.61-.94,3.27-1.91,5.07-2.92,.14-.08,.32-.06,.44,.05,.12,.11,.15,.29,.08,.43-12.04,24.77-22.72,38.85-33.59,44.3-27.7,10.94-54.12,16.66-76.74,16.66Zm-148.47-63.91c6.8,0,13.95,.53,21.37,1.94,24.15,4.57,45.9,17.3,66.49,38.93,13.05,13.99,32.09,21.47,56.58,22.24,23.38,.73,51.21-4.99,80.46-16.53,10.54-5.29,20.95-18.93,32.7-42.87-1.4,.8-2.73,1.57-4.01,2.32-13.55,7.91-20.35,11.88-38.41-.64-15.88-9.06-26.33-19.15-35.54-28.05-19.52-18.85-33.63-32.47-82.81-22.6-17.93,3.6-33.4,8.2-45.82,11.89-24.25,7.21-38.89,11.56-45.53,1.63-10.01-14.97,4.52-32.82,18.57-50.08,11.35-13.95,23.09-28.37,21.5-40.91-.71-5.62-3.97-10.5-9.96-14.91-6.84-5.04-12.52-7.03-17.35-6.09l-52.49,27.1-33.92,19.04c4.27,.22,9.09,2.34,14.67,6.45,7.16,5.27,11.08,10.78,11.96,16.83,1.53,10.43-6.08,20.55-14.13,31.26-10.15,13.5-20.65,27.47-10.98,41.93,5.71,8.53,17.65,6.72,34.17,4.21,9.48-1.44,20.44-3.1,32.48-3.1Z"/>
    </g>
    <g>
      <path class="cls-4" d="M316.65,254.25l67.47-39.72s28.61,11.13,20.19,29.75c-30.55,18.86-72.79,37.72-72.79,37.72,0,0-3.09-23.77-14.86-27.76Z"/>
      <path class="cls-6" d="M331.52,282.38c-.06,0-.13-.02-.18-.05-.1-.06-.17-.16-.19-.28-.03-.24-3.2-23.59-14.61-27.45-.14-.05-.24-.17-.25-.31-.01-.15,.06-.29,.18-.36l67.47-39.72c.1-.06,.22-.07,.32-.03,.66,.26,16.31,6.45,20.8,17.46,1.69,4.15,1.56,8.45-.41,12.79-.03,.07-.08,.12-.14,.16-30.22,18.66-72.41,37.56-72.84,37.75-.05,.02-.1,.03-.15,.03Zm-14-28.2c10.47,4.37,13.79,23.83,14.3,27.29,4.64-2.09,43.71-19.87,72.2-37.44,1.83-4.11,1.95-8.18,.35-12.1-4.13-10.13-18.51-16.28-20.22-16.99l-66.64,39.23Z"/>
    </g>
    <g>
      <path class="cls-3" d="M358.88,163.84c-40.1,20.89-50.28,58.61-28.52,72.12l-35.17,19.75c-13.51,.7-17.82,21.87-30.38,29.26-4.06,2.39-8.99,3.34-15.38,1.68-32.28-8.37-24.71-52.46,19.93-75.71,27.75-14.46,26.94-47.21,4.95-63.29-5.56-4.07-12.48-7.07-20.64-8.43-7.39-1.24-14.18-.77-20.33,.82l77.39-42.23,.16-.09c8.94-4.89,19.76-7.7,32.31-5.6,40.39,6.77,50.46,53.61,15.69,71.72Z"/>
      <path class="cls-6" d="M255.54,287.86c-1.97,0-4.03-.28-6.2-.85-11.59-3.01-18.66-10.65-19.89-21.51-1-8.78,2.05-18.87,8.58-28.42,7.13-10.41,17.9-19.57,31.16-26.47,12.32-6.42,19.92-17.21,20.86-29.61,.96-12.69-5.01-25.04-15.96-33.05-5.81-4.25-12.7-7.07-20.48-8.37-6.86-1.15-13.65-.87-20.18,.82-.18,.05-.37-.05-.44-.22-.07-.17,0-.37,.17-.46l77.39-42.23,.16-.09c10.32-5.64,21.27-7.53,32.55-5.64,19.56,3.28,33.97,16.6,36.72,33.93,1.17,7.4,.02,14.79-3.33,21.38-3.6,7.07-9.68,12.98-17.59,17.11l-.17-.33,.17,.33c-23.31,12.14-38.82,31.66-39.5,49.72-.36,9.4,3.55,17.12,11,21.75,.11,.07,.18,.19,.18,.32s-.08,.25-.19,.32l-35.17,19.75s-.11,.04-.16,.05c-7.47,.39-12.1,7.26-17,14.54-3.78,5.62-7.7,11.43-13.21,14.67-2.91,1.72-6.04,2.57-9.46,2.57Zm-10.2-149.71c2.78,0,5.58,.24,8.39,.71,7.89,1.32,14.89,4.18,20.8,8.5,11.16,8.16,17.24,20.76,16.26,33.7-.96,12.66-8.71,23.67-21.26,30.21-13.15,6.85-23.83,15.92-30.89,26.23-6.43,9.4-9.43,19.31-8.46,27.91,1.2,10.54,8.07,17.95,19.34,20.87,5.75,1.49,10.69,.95,15.1-1.64,5.36-3.16,9.23-8.9,12.97-14.45,4.99-7.41,9.7-14.41,17.49-14.86l34.55-19.4c-7.34-4.81-11.18-12.62-10.82-22.07,.69-18.32,16.35-38.09,39.9-50.35h0c15.1-7.86,22.97-22.31,20.53-37.71-2.7-17.02-16.87-30.09-36.1-33.32-11.12-1.86-21.91,0-32.07,5.56l-.16,.09-75.02,40.94c3.11-.62,6.26-.93,9.45-.93Z"/>
    </g>
    <g>
      <path class="cls-4" d="M298.7,188.23c32.41-16.94,76.56-48.62,76.56-48.62,0,0,2.83-28.16-20.54-34.36-27.81,13.46-70.67,38.59-70.67,38.59,0,0,23.86,17.58,14.65,44.39Z"/>
      <path class="cls-6" d="M298.7,188.6c-.09,0-.17-.03-.24-.09-.12-.1-.16-.26-.11-.4,4.71-13.7,.52-24.91-3.82-31.91-4.72-7.6-10.64-12.02-10.7-12.06-.1-.07-.16-.19-.15-.32,0-.13,.08-.24,.18-.3,.43-.25,43.19-25.29,70.69-38.6,.08-.04,.17-.05,.26-.02,12.25,3.25,17.26,12.54,19.3,19.76,2.21,7.79,1.53,14.92,1.52,14.99-.01,.11-.07,.2-.15,.27-.44,.32-44.54,31.89-76.6,48.64-.05,.03-.11,.04-.17,.04Zm-13.99-44.72c1.48,1.19,6.39,5.39,10.43,11.9,4.34,6.99,8.53,18.1,4.2,31.69,31.04-16.36,72.81-46.1,75.56-48.06,.09-1.11,.48-7.57-1.51-14.57-2.89-10.18-9.16-16.63-18.64-19.19-25.91,12.56-65.28,35.45-70.04,38.24Z"/>
    </g>
    <g>
      <path class="cls-6" d="M311.06,262.08l-46.26,22.89c12.56-7.39,16.87-28.56,30.38-29.26,4.22-.22,9.33,1.56,15.88,6.38Z"/>
      <path class="cls-6" d="M264.81,285.34c-.13,0-.26-.07-.33-.2-.1-.18-.03-.4,.14-.5,5.36-3.16,9.23-8.9,12.97-14.45,5.01-7.43,9.73-14.46,17.58-14.86,4.62-.24,9.9,1.87,16.12,6.45,.1,.08,.16,.2,.15,.33s-.09,.24-.21,.3l-46.26,22.89c-.05,.03-.11,.04-.16,.04Zm31.08-29.28c-.23,0-.45,0-.68,.02-7.47,.39-12.1,7.26-17,14.54-2.92,4.34-5.93,8.8-9.68,12.1l41.82-20.69c-5.55-4-10.3-5.96-14.46-5.96Z"/>
    </g>
    <g>
      <g>
        <path class="cls-6" d="M456.81,340.37c-.36,.4-6.81-2.29-11.44,3.38-4.63,5.67,6.57,43.22,12.98,42.75,6.42-.46,6.25-18.01,6.34-28.24,.09-10.23-7.89-17.89-7.89-17.89Z"/>
        <path class="cls-6" d="M458.23,386.88c-1.68,0-3.62-2.08-5.75-6.18-5.39-10.38-11.09-32.67-7.4-37.18,3.79-4.65,8.72-3.89,10.82-3.56,.29,.04,.61,.09,.73,.09,.05-.03,.1-.04,.16-.04,.1,0,.2,.03,.27,.1,.08,.08,8.09,7.89,8,18.17v1.42c-.09,10.64-.22,26.72-6.69,27.19-.05,0-.1,0-.15,0Zm-5.06-46.43c-2.23,0-5.13,.62-7.51,3.54-3.23,3.97,1.78,25.39,7.49,36.37,1.99,3.82,3.83,5.89,5.18,5.78,5.79-.42,5.91-16.72,5.99-26.45v-1.42c.1-9.2-6.55-16.38-7.62-17.48-.21,0-.49-.03-.9-.1-.64-.1-1.56-.24-2.62-.24Z"/>
      </g>
      <g>
        <path class="cls-3" d="M467.07,336.3l-5.03,14.79s-8.47-2.59-8.49-10.16c4.24-10.7,4.44-11.6,4.44-11.6,0,0,8.48,2.84,9.08,6.97Z"/>
        <path class="cls-6" d="M462.04,351.46s-.07,0-.11-.02c-.09-.03-8.73-2.76-8.75-10.52,0-.05,0-.09,.03-.14,4.11-10.39,4.42-11.54,4.42-11.54,.02-.1,.09-.19,.18-.24,.09-.05,.2-.06,.3-.03,.36,.12,8.71,2.96,9.33,7.27,0,.06,0,.12-.02,.17l-5.03,14.79c-.05,.15-.2,.25-.35,.25Zm-8.12-10.46c.06,6.31,6.34,9.04,7.88,9.61l4.88-14.34c-.58-3.35-6.89-5.88-8.46-6.46-.29,.85-1.24,3.45-4.3,11.19Z"/>
      </g>
      <g>
        <path class="cls-5" d="M440.06,187.54s81.71,26.86,79.06,55.61c-2.65,28.75-51.07,105.92-51.07,105.92-5.65-.48-10.54-6.14-14.76-16.27,0,0,28.75-76.04,23.84-91.92-4.92-15.89-61.66-37.83-61.66-37.83l24.59-15.51Z"/>
        <path class="cls-6" d="M468.05,349.44s-.02,0-.03,0c-5.64-.48-10.71-6.03-15.07-16.49-.04-.09-.04-.19,0-.27,.29-.76,28.65-76.1,23.83-91.68-4.81-15.54-60.87-37.37-61.44-37.59-.13-.05-.22-.17-.24-.31-.01-.14,.05-.28,.17-.35l24.59-15.51c.09-.06,.21-.07,.32-.04,.2,.07,20.69,6.84,40.58,17.05,11.7,6,20.91,12,27.38,17.82,8.15,7.34,11.97,14.45,11.36,21.13-2.63,28.51-50.64,105.31-51.12,106.08-.07,.11-.19,.17-.32,.17Zm-14.36-16.65c4.17,9.96,8.93,15.3,14.16,15.88,2.71-4.34,48.35-77.93,50.89-105.56,1.35-14.64-20.1-28.86-38.33-38.22-18.89-9.69-38.32-16.28-40.31-16.95l-23.81,15.02c6.78,2.67,56.52,22.68,61.19,37.8,4.84,15.64-22.02,87.34-23.79,92.03Z"/>
      </g>
      <g>
        <path class="cls-6" d="M518.29,355.69c-.09,.53-6.97,1.76-7.78,9.04-.82,7.27,28.93,32.77,34.07,28.9,5.14-3.87-4.5-18.52-9.97-27.17-5.46-8.65-16.32-10.77-16.32-10.77Z"/>
        <path class="cls-6" d="M543.16,394.4c-1.55,0-3.78-.82-6.66-2.47-10.16-5.8-27.02-21.45-26.37-27.25,.67-5.96,5.22-7.99,7.17-8.86,.26-.12,.56-.25,.66-.32,.03-.05,.07-.09,.11-.12,.08-.06,.19-.08,.28-.06,.11,.02,11.08,2.25,16.57,10.94l.76,1.2c5.7,8.99,14.3,22.58,9.12,26.47-.42,.31-.97,.47-1.64,.47Zm-24.74-38.3c-.17,.12-.43,.24-.81,.41-1.83,.82-6.11,2.73-6.73,8.26-.57,5.09,15.25,20.38,26,26.52,3.74,2.14,6.4,2.86,7.48,2.05,4.64-3.49-4.09-17.25-9.3-25.48l-.76-1.2c-4.91-7.77-14.39-10.22-15.88-10.56Z"/>
      </g>
      <g>
        <path class="cls-3" d="M524.71,346.7l3.78,15.15s-8.52,2.42-12.64-3.94c-2.24-11.29-2.55-12.15-2.55-12.15,0,0,8.67-2.21,11.41,.94Z"/>
        <path class="cls-6" d="M524.8,362.66c-2.91,0-6.83-.8-9.26-4.55-.03-.04-.04-.08-.05-.13-2.17-10.96-2.53-12.09-2.54-12.1-.04-.1-.03-.21,.02-.3,.05-.09,.14-.16,.24-.19,.36-.09,8.92-2.23,11.78,1.06,.04,.04,.07,.1,.08,.15l3.78,15.15c.05,.2-.07,.39-.26,.45-.04,.01-1.64,.45-3.79,.45Zm-8.6-4.89c3.47,5.27,10.22,4.16,11.84,3.81l-3.67-14.7c-2.31-2.5-8.97-1.21-10.61-.85,.22,.87,.82,3.57,2.44,11.74Z"/>
      </g>
      <g>
        <path class="cls-5" d="M376.42,202.57s-1.04,28.09,51.16,37.55c52.2,9.46,75.66,110.46,75.66,110.46,0,0,23.45,5.67,26.1-5.3-9.08-38.21-26.1-130.13-88.52-147.91-45.39-12.86-64.4,5.2-64.4,5.2Z"/>
        <path class="cls-6" d="M515.6,352.42c-.1,0-.21,0-.31,0-6.17-.05-12.08-1.46-12.14-1.48-.14-.03-.24-.14-.28-.28-.06-.25-6-25.52-18.23-51.62-11.27-24.03-30.32-53.7-57.13-58.56-27.08-4.91-39.63-14.92-45.39-22.46-6.27-8.22-6.09-15.18-6.08-15.47,0-.1,.05-.19,.12-.26,.2-.19,4.94-4.61,15.33-7.51,9.56-2.67,25.89-4.44,49.42,2.22,13.65,3.89,26.08,11.65,36.94,23.06,9.25,9.71,17.61,22.34,24.85,37.54,13.18,27.66,20.34,58.77,25.07,79.36,.68,2.93,1.31,5.71,1.91,8.22,.01,.06,.01,.12,0,.17-1.11,4.61-5.99,7.05-14.1,7.05Zm-12.06-2.15c1.12,.25,6.35,1.36,11.76,1.4,5.48,.04,12.29-1.04,13.65-6.39-.59-2.5-1.22-5.24-1.89-8.14-4.73-20.56-11.87-51.62-25.02-79.21-15.63-32.81-36.27-53.06-61.33-60.2-23.33-6.61-39.5-4.87-48.96-2.24-9.37,2.6-14.18,6.56-14.96,7.25,.01,1.07,.33,7.53,5.97,14.89,5.68,7.42,18.08,17.27,44.89,22.13,11.99,2.17,23.45,9.36,34.06,21.37,8.46,9.58,16.41,22.24,23.62,37.62,11.64,24.84,17.6,48.94,18.22,51.53Z"/>
      </g>
      <g>
        <path class="cls-6" d="M420.25,97.77s1.99,11.16,0,12.35c-1.99,1.2-9.43-.8-9.3-1.46s1.72-9.7,1.72-9.7l7.58-1.2Z"/>
        <path class="cls-6" d="M418.25,110.86c-2.7,0-6.52-1.08-7.34-1.66-.26-.18-.37-.39-.33-.61,.13-.65,1.7-9.6,1.72-9.69,.03-.16,.15-.28,.31-.3l7.58-1.2c.2-.03,.39,.1,.43,.3,.34,1.91,1.93,11.47-.18,12.74-.5,.3-1.28,.42-2.19,.42Zm-6.91-2.27c.82,.62,6.99,2.24,8.71,1.2,1.19-.71,.66-7.09-.11-11.61l-6.95,1.1c-.25,1.44-1.43,8.14-1.65,9.31Z"/>
      </g>
      <g>
        <path class="cls-3" d="M464.39,158.29c-2.89,.53-6.09,1.59-12.71,4.24-18.78,4.99,3.13-43.48-28.65-53.25l-1.89,68.69c20.91,2.89,39.48-9.74,43.75-10.59,2.63-.52,4.04-9.17-.5-9.09Z"/>
        <path class="cls-6" d="M427.46,178.77c-2.09,0-4.22-.13-6.38-.43-.19-.03-.33-.19-.32-.38l1.89-68.69c0-.12,.06-.22,.16-.29,.09-.07,.22-.09,.33-.05,18.1,5.57,19.04,23.79,19.72,37.1,.37,7.27,.7,13.55,3.62,15.68,1.23,.89,2.89,1.05,5.08,.47,6.59-2.63,9.81-3.71,12.76-4.25,.04,0,.08,0,.13,0,1.81,0,2.98,1.26,3.22,3.48,.28,2.58-.87,5.99-2.71,6.36-.95,.19-2.76,1.04-5.05,2.13-6.86,3.24-18.84,8.9-32.44,8.9Zm-5.95-1.13c15.82,2.06,30.27-4.77,38.07-8.45,2.43-1.15,4.19-1.98,5.22-2.18,1.26-.25,2.37-3.15,2.11-5.55-.11-1.05-.58-2.81-2.48-2.81,0,0-.01,0-.02,0-2.89,.54-6.08,1.6-12.61,4.21-.01,0-.03,.01-.04,.01-2.43,.65-4.31,.46-5.73-.58-3.21-2.34-3.52-8.47-3.92-16.24-.7-13.7-1.58-30.71-18.73-36.28l-1.87,67.86Zm30.16-15.12h0Z"/>
      </g>
      <g>
        <path class="cls-3" d="M464.68,159.2s8.97,.53,10.83,3.52,1.53,9.56,1.53,9.56c0,0-2.93,2.69-6.64,.46-3.71-2.23-3.85-6.64-6.44-6.91-3.19-2.39-1.26-6.04,.73-6.64Z"/>
        <path class="cls-6" d="M473.38,174c-.95,0-2.03-.24-3.17-.93-1.93-1.16-2.95-2.91-3.76-4.31-.79-1.36-1.41-2.43-2.52-2.55-.07,0-.13-.03-.19-.07-1.92-1.44-1.94-3.17-1.78-4.07,.26-1.49,1.37-2.85,2.63-3.23,.04-.01,.08-.02,.13-.01,.37,.02,9.18,.58,11.12,3.69,1.9,3.05,1.6,9.51,1.58,9.78,0,.1-.05,.19-.12,.26-.02,.02-1.61,1.44-3.91,1.44Zm-9.28-8.51c1.42,.2,2.14,1.45,2.98,2.9,.81,1.4,1.74,2.99,3.5,4.05,3.06,1.84,5.53,.12,6.08-.32,.03-1.01,.14-6.59-1.48-9.19-1.66-2.66-9.64-3.28-10.46-3.34-.96,.32-1.84,1.44-2.05,2.62-.22,1.24,.28,2.4,1.42,3.29Z"/>
      </g>
      <g>
        <path class="cls-3" d="M427.71,111.39c-7.13-4.65-17.14-5.98-31.54-2.91,0,0-16.13,.85-19.29,21.56-3.78,24.79-2.33,74.71-2.33,74.71,0,0,70.42,.57,75.15-17.21-7.34-11.63-13.66-17-12.4-39.82l-9.6-36.33Z"/>
        <path class="cls-6" d="M375.18,205.13c-.39,0-.61,0-.63,0-.2,0-.36-.16-.37-.36-.01-.5-1.41-50.24,2.33-74.78,1.65-10.84,6.89-16.21,11-18.81,4.31-2.72,8.2-3.04,8.61-3.07,13.82-2.94,24.22-1.97,31.79,2.97,.17,.11,.22,.34,.11,.52-.11,.17-.34,.22-.52,.11-7.4-4.83-17.63-5.76-31.25-2.86-.02,0-.04,0-.06,0-.04,0-4.02,.25-8.31,2.98-3.96,2.52-9.02,7.73-10.63,18.27-3.57,23.37-2.46,69.72-2.34,74.29,.05,0,.1,0,.16,0,6.38,0,69.48-.43,74.23-16.78-1.01-1.59-1.99-3.06-2.94-4.48-5.87-8.77-10.51-15.7-9.42-35.42,.01-.21,.18-.37,.39-.35,.21,.01,.36,.19,.35,.39-1.08,19.47,3.27,25.97,9.3,34.96,.98,1.47,2,2.99,3.04,4.64,.06,.09,.07,.19,.05,.29-2,7.54-15.35,12.77-39.67,15.55-16.1,1.84-31.92,1.94-35.22,1.94Z"/>
      </g>
      <g>
        <polygon class="cls-6" points="452.38 199.52 481.44 180.52 479.93 180.52 454.45 195.3 452.38 199.52"/>
        <path class="cls-6" d="M452.38,199.9c-.09,0-.18-.03-.25-.09-.13-.11-.16-.29-.09-.44l2.07-4.23c.03-.07,.08-.12,.15-.16l25.48-14.78c.06-.03,.12-.05,.19-.05h1.51c.16,0,.31,.11,.36,.27,.05,.16-.01,.33-.15,.42l-29.06,19c-.06,.04-.13,.06-.2,.06Zm2.35-4.33l-1.42,2.91,26.88-17.58h-.16l-25.3,14.67Z"/>
      </g>
      <g>
        <polygon class="cls-6" points="417.98 184.51 454.64 195.59 452.38 199.52 416.25 187.54 417.98 184.51"/>
        <path class="cls-6" d="M452.38,199.9s-.08,0-.12-.02l-36.13-11.99c-.11-.04-.19-.12-.23-.22-.04-.1-.03-.22,.02-.32l1.73-3.02c.09-.15,.27-.22,.43-.17l36.66,11.08c.11,.03,.2,.11,.24,.22,.04,.11,.03,.22-.02,.32l-2.26,3.93c-.07,.12-.19,.19-.32,.19Zm-35.58-12.57l35.41,11.75,1.87-3.26-35.93-10.86-1.35,2.37Z"/>
      </g>
      <g>
        <path class="cls-3" d="M457.83,167.38c-1.2,.27-39.85,17.14-39.85,17.14l36.66,11.08,29.75-18.78-26.57-9.43Z"/>
        <path class="cls-6" d="M454.64,195.96s-.07,0-.11-.02l-36.66-11.08c-.15-.05-.26-.18-.26-.33,0-.16,.08-.3,.22-.36,3.96-1.73,38.72-16.89,39.92-17.16,.07-.02,.14-.01,.21,.01l26.57,9.43c.13,.05,.23,.17,.25,.31,.02,.14-.05,.28-.17,.36l-29.75,18.78c-.06,.04-.13,.06-.2,.06Zm-35.58-11.51l35.53,10.73,28.96-18.28-25.73-9.13c-1.99,.68-27.68,11.84-38.76,16.68Z"/>
      </g>
      <g>
        <polygon class="cls-6" points="486.92 157.28 454.45 195.3 456.86 196.79 488.79 159.2 486.92 157.28"/>
        <path class="cls-6" d="M456.86,197.17c-.07,0-.14-.02-.2-.06l-2.41-1.5c-.09-.06-.16-.15-.17-.26s.01-.22,.08-.3l32.47-38.01c.07-.08,.17-.13,.27-.13,.11,0,.21,.04,.28,.11l1.87,1.92c.13,.14,.14,.35,.02,.5l-31.93,37.59c-.07,.09-.18,.13-.28,.13Zm-1.84-1.96l1.77,1.1,31.5-37.09-1.35-1.38-31.92,37.37Z"/>
      </g>
      <g>
        <polygon class="cls-6" points="518.88 139.07 486.92 157.28 488.79 159.2 520.07 140.94 518.88 139.07"/>
        <path class="cls-6" d="M488.79,159.57c-.1,0-.19-.04-.27-.11l-1.87-1.92c-.08-.08-.12-.2-.1-.31,.02-.11,.08-.21,.18-.27l31.96-18.21c.17-.1,.39-.04,.5,.12l1.18,1.86c.05,.09,.07,.19,.05,.29s-.09,.18-.17,.23l-31.28,18.26c-.06,.03-.12,.05-.19,.05Zm-1.27-2.2l1.33,1.36,30.69-17.92-.78-1.24-31.24,17.8Z"/>
      </g>
      <g>
        <polygon class="cls-3" points="456.86 196.79 490.11 176.98 520.07 140.94 488.79 159.2 456.86 196.79"/>
        <path class="cls-6" d="M456.86,197.17c-.11,0-.21-.05-.28-.13-.12-.14-.12-.34,0-.48l31.93-37.59s.06-.06,.1-.08l31.28-18.26c.16-.09,.36-.06,.47,.08,.12,.14,.12,.34,0,.48l-29.96,36.04s-.06,.06-.1,.08l-33.25,19.81c-.06,.04-.13,.05-.19,.05Zm32.17-37.67l-30.44,35.83,31.26-18.63,28.56-34.37-29.39,17.17Z"/>
      </g>
      <g>
        <path class="cls-3" d="M391.55,109.58s-44.8,13.38-31.69,59.25c9.83,34.42,51.46,13.72,61.8,7.95,4.19-2.24,2.72-8.51-2.75-8.41-1.58,.59-3.38,1.29-5.51,2.14-11.8,4.72-42.38,.34-35.99-26.75l14.15-34.18Z"/>
        <path class="cls-6" d="M385.05,188.58c-3.94,0-7.77-.59-11.26-2.03-6.97-2.88-11.78-8.81-14.3-17.62-3.01-10.53-3.2-20.23-.58-28.82,2.1-6.88,6.01-13.06,11.61-18.38,9.52-9.03,20.8-12.47,20.91-12.51,.2-.06,.4,.05,.46,.25,.06,.2-.05,.4-.25,.46-.11,.03-11.24,3.43-20.63,12.35-8.64,8.21-17.53,22.93-10.81,46.43,2.45,8.58,7.12,14.34,13.86,17.13,3.4,1.4,7.14,1.98,10.99,1.98,14.61,0,30.86-8.29,36.4-11.39,1.75-.94,2.57-2.73,2.1-4.56-.38-1.46-1.8-3.15-4.53-3.15-.02,0-.04,0-.06,0-1.53,.57-3.32,1.26-5.44,2.11-6.94,2.78-21.86,2.59-30.68-5-6.01-5.17-8.02-12.84-5.81-22.17,.05-.2,.25-.33,.45-.28,.2,.05,.32,.25,.28,.45-2.13,9.05-.21,16.46,5.57,21.44,8.6,7.41,23.15,7.58,29.91,4.88,2.16-.86,3.97-1.57,5.52-2.14,.04-.01,.08-.02,.12-.02,2.68-.05,4.79,1.41,5.39,3.71,.56,2.14-.43,4.31-2.46,5.4-5.58,3.11-21.97,11.47-36.78,11.47Z"/>
      </g>
      <g>
        <path class="cls-3" d="M412.82,113.02l.8-11.86s16.89,5.73,17.43-22.12c.32-16.9-14.64-21.06-23.34-12.17-8.7,8.89-3.71,24.02-5.83,30.45-1.4,4.26-6.29,10.41-8.07,14.2-.91,1.93,13.33,10.01,19.01,1.5Z"/>
        <path class="cls-6" d="M405.25,117.19c-3.31,0-6.64-1.25-8.7-2.41-1.79-1.01-3.53-2.44-3.07-3.43,.74-1.58,2.01-3.54,3.34-5.62,1.92-2.99,3.9-6.07,4.72-8.54,.69-2.1,.6-5.18,.5-8.75-.21-7.05-.47-15.83,5.42-21.84,4.28-4.37,10.32-5.82,15.39-3.7,5.52,2.31,8.73,8.35,8.58,16.14-.2,10.5-2.72,17.53-7.49,20.88-4.1,2.88-8.54,2.09-9.97,1.72l-.77,11.4c0,.06-.03,.13-.06,.18-1.98,2.97-4.92,3.97-7.89,3.97Zm12.75-54.51c-3.56,0-7.19,1.55-10.01,4.44-5.66,5.78-5.41,14.39-5.21,21.3,.11,3.64,.2,6.78-.53,9.01-.84,2.56-2.85,5.68-4.8,8.71-1.32,2.06-2.57,4-3.29,5.53-.1,.21,.55,1.22,2.76,2.46,3.68,2.08,11.64,4.48,15.55-1.24l.8-11.76c0-.12,.07-.22,.17-.28,.1-.06,.22-.08,.33-.04,.05,.02,5.22,1.7,9.77-1.5,4.56-3.21,6.97-10.03,7.17-20.28,.14-7.58-2.82-13.21-8.13-15.44-1.46-.61-3-.91-4.56-.91Zm-5.17,50.33h0Z"/>
      </g>
    </g>
    <g>
      <path class="cls-6" d="M384.48,112.53s8.4-2.54,13.19-3.43c10.98-2.61,9.48-14.12,8.77-22.27-.71-8.15,2.48-9.92,3.9-9.03s6.27-.71,7.65-4.07c8.82,.18,8.11,8.45,15.22,9.86,0,0,7.88-11.28,2.24-19.07s-13.78-4.96-13.78-4.96c0,0-10.1-8.86-20.9,.53-10.8,9.39-16.99,46.11-16.29,52.44Z"/>
      <path class="cls-6" d="M384.48,112.9c-.07,0-.14-.02-.21-.06-.09-.06-.15-.16-.17-.27-.37-3.34,1.08-14.27,3.83-25.21,2-7.95,6.3-22.11,12.58-27.56,10.17-8.84,19.86-1.75,21.23-.66,1.32-.37,8.77-2.08,14,5.15,5.72,7.92-1.91,19.04-2.24,19.51-.08,.12-.23,.18-.38,.15-3.37-.67-5.06-2.82-6.7-4.9-1.93-2.45-3.76-4.77-8.21-4.95-.97,2.08-3.13,3.41-4.87,3.97-1.36,.44-2.56,.45-3.21,.04-.37-.23-.86-.19-1.33,.09-.61,.37-2.56,2.1-1.99,8.59l.09,1.01c.72,8.05,1.71,19.08-9.14,21.66-4.73,.87-13.08,3.4-13.16,3.42-.04,.01-.07,.02-.11,.02Zm26.91-56.78c-3.11,0-6.69,1.05-10.38,4.25-10.32,8.97-16.6,44.19-16.2,51.67,1.8-.53,8.66-2.54,12.78-3.3,10.2-2.43,9.29-12.65,8.55-20.86l-.09-1.01c-.59-6.73,1.45-8.74,2.35-9.29,.72-.44,1.51-.47,2.12-.09,.46,.29,1.48,.24,2.59-.12,1.65-.53,3.7-1.8,4.52-3.78,.06-.14,.19-.23,.35-.23,4.99,.1,7.05,2.71,9.03,5.24,1.58,2.01,3.08,3.91,6.01,4.58,1.01-1.55,7.12-11.51,2.11-18.44-5.4-7.47-13.03-4.94-13.36-4.83-.13,.04-.27,.02-.37-.07-.26-.23-4.35-3.72-10.03-3.72Z"/>
    </g>
    <g>
      <path class="cls-3" d="M419.39,169.5s10.23-3.65,15.54-1.26c5.31,2.39,6.84,15.41,6.84,15.41,0,0-.33,.86-1.79,0s-3.72-8.53-3.72-8.53c0,0-.8,4.08-4.18,5.01s-7.1-1.86-8-2.92c-.9-1.06-4.68-1.48-4.68-1.48,0,0-1.79-3.44,0-6.23Z"/>
      <path class="cls-6" d="M441.09,184.4c-.38,0-.81-.15-1.31-.44-1.23-.73-2.81-5.32-3.53-7.58-.52,1.35-1.69,3.44-4.09,4.09-3.56,.98-7.45-1.93-8.38-3.04-.58-.69-3.03-1.19-4.44-1.35-.12-.01-.23-.09-.29-.2-.08-.15-1.87-3.66,.02-6.6,.04-.07,.11-.12,.19-.15,.42-.15,10.43-3.68,15.82-1.25,5.44,2.45,6.99,15.16,7.06,15.7,0,.06,0,.12-.02,.18-.02,.04-.17,.4-.61,.56-.13,.04-.27,.07-.42,.07Zm-4.83-9.66c.16,0,.31,.11,.36,.27,.86,2.91,2.58,7.74,3.55,8.31,.64,.38,.96,.35,1.1,.31,.06-.02,.09-.05,.12-.07-.18-1.36-1.82-12.83-6.61-14.98-4.81-2.16-13.98,.84-15.14,1.23-1.33,2.21-.31,4.88,0,5.57,.88,.11,3.85,.55,4.72,1.58,.86,1.02,4.41,3.68,7.62,2.8,3.12-.86,3.91-4.68,3.92-4.72,.03-.17,.18-.29,.35-.3,0,0,.01,0,.02,0Z"/>
    </g>
    <path class="cls-6" d="M349.13,293.9c-.21,0-.41-.12-.51-.33-.13-.28,0-.61,.28-.74l56.5-25.86c.28-.13,.61,0,.74,.28,.13,.28,0,.61-.28,.74l-56.5,25.86c-.08,.03-.15,.05-.23,.05Z"/>
    <path class="cls-6" d="M337.26,314.26c-.21,0-.41-.12-.51-.32-.13-.28-.01-.61,.27-.74l55.97-26.23c.28-.13,.61-.01,.74,.27,.13,.28,.01,.61-.27,.74l-55.97,26.23c-.08,.04-.16,.05-.24,.05Z"/>
    <path class="cls-6" d="M326.52,334.06c-.21,0-.41-.12-.51-.32-.13-.28-.01-.61,.27-.74l58.56-27.42c.28-.13,.61-.01,.74,.27,.13,.28,.01,.61-.27,.74l-58.56,27.42c-.08,.04-.16,.05-.24,.05Z"/>
    <path class="cls-6" d="M282.8,207.64c-.2,0-.39-.11-.49-.3-.14-.27-.04-.61,.23-.76l48.19-25.6c.27-.14,.61-.04,.76,.23,.14,.27,.04,.61-.23,.76l-48.19,25.6c-.08,.04-.17,.07-.26,.07Z"/>
    <path class="cls-6" d="M253.22,233.37c-.21,0-.41-.12-.5-.32-.13-.28-.02-.61,.26-.75l63.44-30.51c.28-.13,.61-.02,.75,.26,.13,.28,.02,.61-.26,.75l-63.44,30.51c-.08,.04-.16,.06-.24,.06Z"/>
    <path class="cls-6" d="M242.96,269.36c-.2,0-.4-.11-.5-.3-.14-.27-.03-.61,.24-.75l73.85-37.99c.27-.14,.61-.03,.75,.24,.14,.27,.03,.61-.24,.75l-73.85,37.99c-.08,.04-.17,.06-.26,.06Z"/>
    <path class="cls-6" d="M279.88,282.56c-.18,0-.36-.09-.46-.25-.17-.26-.1-.6,.15-.78l21.69-14.52c.26-.17,.6-.1,.78,.15,.17,.26,.1,.6-.15,.78l-21.69,14.52c-.1,.06-.2,.09-.31,.09Z"/>
    <path class="cls-6" d="M241.72,254.67c-.21,0-.41-.12-.5-.31-.14-.28-.02-.61,.26-.75l69.34-33.74c.28-.14,.61-.02,.75,.26,.14,.28,.02,.61-.26,.75l-69.34,33.74c-.08,.04-.16,.06-.24,.06Z"/>
    <path class="cls-6" d="M271.83,132.02c-.2,0-.39-.1-.49-.29-.15-.27-.05-.61,.22-.76l59.15-32.94c.27-.15,.61-.05,.76,.22,.15,.27,.05,.61-.22,.76l-59.15,32.94c-.09,.05-.18,.07-.27,.07Z"/>
    <g>
      <path class="cls-6" d="M104.07,200.81c-.07,0-.14-.01-.2-.04l-28.86-13.03c-.17-.08-.29-.24-.31-.44s.05-.39,.2-.51l24.94-20.31c.15-.12,.34-.15,.51-.07,.17,.08,.29,.24,.31,.44l3.91,33.34c.02,.2-.05,.39-.2,.51-.09,.07-.2,.11-.31,.11Zm-27.84-13.72l27.21,12.29-3.69-31.43-23.52,19.15Z"/>
      <g>
        <polygon class="cls-6" points="63.25 299.53 52.03 297.58 40.8 295.62 47.99 286.17 55.19 276.71 59.22 288.12 63.25 299.53"/>
        <path class="cls-6" d="M63.25,299.9s-.04,0-.06,0l-22.45-3.92c-.12-.02-.22-.11-.27-.23-.04-.12-.02-.26,.06-.36l14.38-18.91c.08-.1,.2-.15,.32-.13,.12,.02,.22,.11,.27,.23l8.06,22.82c.04,.12,.02,.26-.06,.36-.07,.09-.16,.14-.27,.14Zm-21.81-4.55l21.27,3.71-7.64-21.63-13.63,17.92Z"/>
      </g>
    </g>
    <g>
      <path class="cls-3" d="M403.25,120.28s2.99,.6,5.51-1.53c2.86,4.05,2.46,19.06,2.19,24.71l-7.7-23.18Z"/>
      <path class="cls-6" d="M410.95,143.83s-.01,0-.02,0c-.21,0-.36-.18-.35-.39,.22-4.6,.7-19.64-1.91-24.14-2.55,1.9-5.37,1.37-5.49,1.34-.2-.04-.33-.24-.29-.44,.04-.2,.23-.33,.44-.29,.03,0,2.85,.53,5.2-1.45,.08-.07,.18-.1,.29-.08,.1,.01,.2,.07,.26,.15,2.9,4.12,2.55,18.81,2.26,24.94,0,.2-.17,.36-.37,.36Z"/>
    </g>
    <g>
      <path class="cls-3" d="M434.46,126.19s3.91,8.9,3.02,16.47l-3.02-16.47Z"/>
      <path class="cls-6" d="M437.48,143.04s-.03,0-.04,0c-.2-.02-.35-.21-.33-.41,.87-7.39-2.95-16.19-2.99-16.28-.08-.19,0-.41,.19-.49,.19-.08,.41,0,.49,.19,.16,.37,3.94,9.08,3.04,16.66-.02,.19-.18,.33-.37,.33Z"/>
    </g>
    <path class="cls-6" d="M355.8,341.68c-.21,0-.41-.12-.51-.32-.13-.28-.01-.61,.27-.74l32.53-15.23c.28-.13,.61-.01,.74,.27,.13,.28,.01,.61-.27,.74l-32.53,15.23c-.08,.04-.16,.05-.24,.05Z"/>
    <g>
      <path class="cls-6" d="M409.49,57.78s-2.7-13.68-14.21-7.97c-11.51,5.71-4.52,32.54-4.52,32.54l18.73-24.57Z"/>
      <path class="cls-6" d="M390.76,82.73s-.05,0-.07,0c-.14-.03-.25-.13-.29-.27-.29-1.11-6.94-27.19,4.71-32.97,3.34-1.66,6.3-1.88,8.79-.65,4.6,2.27,5.9,8.62,5.96,8.89,.02,.1,0,.21-.07,.3l-18.73,24.57c-.07,.09-.18,.15-.3,.15Zm9.72-33.94c-1.54,0-3.22,.45-5.04,1.35-10.05,4.98-5.52,26.99-4.5,31.36l18.15-23.81c-.23-.99-1.64-6.29-5.52-8.2-.95-.47-1.98-.7-3.08-.7Z"/>
    </g>
    <g>
      <polygon class="cls-5" points="489.5 245.75 484.4 254.4 493.39 251.01 490.38 257.39 494.81 257.39 489.5 245.75"/>
      <path class="cls-6" d="M494.81,257.76h-4.43c-.13,0-.25-.07-.31-.17-.07-.11-.08-.24-.02-.36l2.62-5.54-8.14,3.07c-.15,.06-.31,.01-.42-.11-.1-.12-.12-.29-.04-.43l5.1-8.65c.1-.18,.33-.24,.51-.13,.18,.1,.24,.33,.13,.51l-4.57,7.74,8.01-3.02c.14-.05,.3-.02,.41,.1,.1,.11,.13,.27,.06,.41l-2.76,5.84h3.84c.21,0,.37,.17,.37,.37s-.17,.37-.37,.37Z"/>
    </g>
    <g>
      <polygon class="cls-5" points="515.11 237.26 511.28 243.04 516.95 243.04 512.17 247.29 515.11 248.88 515.11 237.26"/>
      <path class="cls-6" d="M515.11,249.26c-.06,0-.12-.01-.18-.05l-2.94-1.59c-.11-.06-.18-.16-.19-.28s.03-.24,.12-.32l4.05-3.6h-4.69c-.14,0-.26-.08-.33-.2-.06-.12-.06-.27,.02-.38l3.82-5.78c.11-.17,.34-.22,.52-.11,.17,.11,.22,.34,.11,.52l-3.44,5.2h4.97c.15,0,.29,.1,.35,.24s.01,.31-.1,.41l-4.38,3.9,2.47,1.34c.18,.1,.25,.32,.15,.51-.07,.12-.2,.2-.33,.2Z"/>
    </g>
  </g>
  <g>
    <g>
      <g>
        <path class="cls-6" d="M923.08,494.65l191.35-9.01-53.2-267.73c-2.54-12.98-13.92-22.35-27.15-22.35h-140.64c-17.41,0-30.49,15.89-27.15,32.97l56.78,266.11Z"/>
        <path class="cls-6" d="M923.08,494.98c-.16,0-.29-.11-.32-.26l-56.78-266.11c-1.61-8.25,.52-16.69,5.86-23.17,5.34-6.48,13.21-10.2,21.61-10.2h140.64c13.35,0,24.91,9.51,27.47,22.62l53.2,267.73c.02,.09,0,.19-.06,.27-.06,.08-.15,.12-.24,.13l-191.35,9.01s-.01,0-.02,0Zm-29.63-299.09c-8.2,0-15.89,3.63-21.1,9.96-5.21,6.33-7.3,14.57-5.72,22.62l56.72,265.83,190.69-8.98-53.12-267.35c-2.5-12.8-13.78-22.08-26.82-22.08h-140.64Z"/>
      </g>
      <g>
        <path class="cls-6" d="M936.62,185.13h12.68s-2.28-11.49-2.28-11.49c-1.31-6.59,2.97-11.94,9.57-11.94h0c6.59,0,13,5.34,14.31,11.94l2.28,11.49h12.52c3.7,0,7.03,2.27,8.38,5.72l4.18,10.66h-68.67s-1.51-4.53-1.51-4.53c-1.94-5.83,2.4-11.85,8.54-11.85Z"/>
        <path class="cls-6" d="M998.26,201.83h-68.67c-.14,0-.27-.09-.31-.23l-1.51-4.53c-.96-2.88-.49-5.94,1.28-8.41,1.78-2.46,4.53-3.88,7.57-3.88h12.28l-2.21-11.09c-.66-3.33,.03-6.46,1.95-8.8,1.87-2.28,4.69-3.54,7.94-3.54,6.73,0,13.3,5.47,14.64,12.2l2.23,11.22h12.25c3.87,0,7.28,2.33,8.69,5.93l4.18,10.66c.04,.1,.03,.22-.03,.31-.06,.09-.16,.14-.27,.14Zm-68.43-.66h67.94l-4-10.21c-1.31-3.34-4.48-5.51-8.07-5.51h-12.52c-.16,0-.29-.11-.32-.27l-2.28-11.49c-1.28-6.44-7.55-11.67-13.99-11.67-3.04,0-5.68,1.17-7.42,3.29-1.79,2.19-2.44,5.12-1.82,8.25l2.28,11.49c.02,.1,0,.2-.07,.27s-.16,.12-.26,.12h-12.68c-2.82,0-5.39,1.31-7.03,3.6-1.65,2.29-2.08,5.14-1.19,7.81l1.43,4.3Z"/>
      </g>
      <g>
        <path class="cls-3" d="M931.23,493.31l191.35-9.01-53.2-267.73c-2.54-12.98-13.92-22.35-27.15-22.35h-140.64c-17.41,0-30.49,15.89-27.15,32.97l56.78,266.11Z"/>
        <path class="cls-6" d="M931.23,493.64c-.16,0-.29-.11-.32-.26l-56.78-266.11c-1.61-8.25,.52-16.69,5.86-23.17,5.34-6.48,13.21-10.2,21.61-10.2h140.64c13.35,0,24.91,9.51,27.47,22.62l53.2,267.73c.02,.09,0,.19-.06,.27-.06,.08-.15,.12-.24,.13l-191.35,9.01s-.01,0-.02,0Zm-29.63-299.09c-8.2,0-15.89,3.63-21.1,9.96-5.21,6.33-7.3,14.57-5.72,22.62l56.72,265.83,190.69-8.98-53.12-267.35c-2.5-12.8-13.78-22.08-26.82-22.08h-140.64Z"/>
      </g>
      <g>
        <ellipse class="cls-3" cx="1040.21" cy="249.29" rx="14.57" ry="12.6"/>
        <path class="cls-6" d="M1040.21,262.22c-8.22,0-14.9-5.8-14.9-12.93s6.69-12.93,14.9-12.93,14.9,5.8,14.9,12.93-6.69,12.93-14.9,12.93Zm0-25.19c-7.85,0-14.24,5.5-14.24,12.27s6.39,12.27,14.24,12.27,14.24-5.5,14.24-12.27-6.39-12.27-14.24-12.27Z"/>
      </g>
      <g>
        <ellipse class="cls-6" cx="1046.38" cy="279.7" rx="14.57" ry="12.6"/>
        <path class="cls-6" d="M1046.38,292.63c-8.22,0-14.9-5.8-14.9-12.93s6.69-12.93,14.9-12.93,14.9,5.8,14.9,12.93-6.69,12.93-14.9,12.93Zm0-25.19c-7.85,0-14.24,5.5-14.24,12.27s6.39,12.27,14.24,12.27,14.24-5.5,14.24-12.27-6.39-12.27-14.24-12.27Z"/>
      </g>
      <g>
        <ellipse class="cls-3" cx="1052.56" cy="308.62" rx="14.57" ry="12.6"/>
        <path class="cls-6" d="M1052.56,321.55c-8.22,0-14.9-5.8-14.9-12.93s6.69-12.93,14.9-12.93,14.9,5.8,14.9,12.93-6.69,12.93-14.9,12.93Zm0-25.19c-7.85,0-14.24,5.5-14.24,12.27s6.39,12.27,14.24,12.27,14.24-5.5,14.24-12.27-6.39-12.27-14.24-12.27Z"/>
      </g>
      <g>
        <ellipse class="cls-3" cx="1057.74" cy="336.93" rx="14.57" ry="12.6"/>
        <path class="cls-6" d="M1057.74,349.86c-8.22,0-14.9-5.8-14.9-12.93s6.69-12.93,14.9-12.93,14.9,5.8,14.9,12.93-6.69,12.93-14.9,12.93Zm0-25.19c-7.85,0-14.24,5.5-14.24,12.27s6.39,12.27,14.24,12.27,14.24-5.5,14.24-12.27-6.39-12.27-14.24-12.27Z"/>
      </g>
      <g>
        <ellipse class="cls-3" cx="1064.91" cy="369.85" rx="14.57" ry="12.6"/>
        <path class="cls-6" d="M1064.91,382.78c-8.22,0-14.9-5.8-14.9-12.93s6.69-12.93,14.9-12.93,14.9,5.8,14.9,12.93-6.69,12.93-14.9,12.93Zm0-25.19c-7.85,0-14.24,5.5-14.24,12.27s6.39,12.27,14.24,12.27,14.24-5.5,14.24-12.27-6.39-12.27-14.24-12.27Z"/>
      </g>
      <g>
        <ellipse class="cls-3" cx="1070.34" cy="400.48" rx="14.57" ry="12.6"/>
        <path class="cls-6" d="M1070.34,413.41c-8.22,0-14.9-5.8-14.9-12.93s6.69-12.93,14.9-12.93,14.9,5.8,14.9,12.93-6.69,12.93-14.9,12.93Zm0-25.19c-7.85,0-14.24,5.5-14.24,12.27s6.39,12.27,14.24,12.27,14.24-5.5,14.24-12.27-6.39-12.27-14.24-12.27Z"/>
      </g>
      <g>
        <ellipse class="cls-3" cx="1078.41" cy="430.12" rx="14.57" ry="12.6"/>
        <path class="cls-6" d="M1078.41,443.05c-8.22,0-14.9-5.8-14.9-12.93s6.69-12.93,14.9-12.93,14.9,5.8,14.9,12.93-6.69,12.93-14.9,12.93Zm0-25.19c-7.85,0-14.24,5.5-14.24,12.27s6.39,12.27,14.24,12.27,14.24-5.5,14.24-12.27-6.39-12.27-14.24-12.27Z"/>
      </g>
      <g>
        <g>
          <polygon class="cls-3" points="1025.63 314.69 920.08 314.69 918.01 305.54 1023.56 305.54 1025.63 314.69"/>
          <polygon class="cls-3" points="1031.81 345.1 926.26 345.1 924.19 335.95 1029.74 335.95 1031.81 345.1"/>
          <polygon class="cls-3" points="1037.98 375.52 932.43 375.52 930.36 366.36 1035.14 366.36 1037.98 375.52"/>
          <polygon class="cls-3" points="1044.16 405.93 938.61 405.93 936.54 396.77 1042.09 396.77 1044.16 405.93"/>
          <polygon class="cls-3" points="1052.07 435.1 946.52 435.1 944.45 425.94 1050 425.94 1052.07 435.1"/>
        </g>
        <g>
          <g>
            <polygon class="cls-3" points="1025.63 314.69 920.08 314.69 918.01 305.54 1023.56 305.54 1025.63 314.69"/>
            <path class="cls-6" d="M1025.63,315.02h-105.55c-.15,0-.29-.11-.32-.26l-2.07-9.16c-.02-.1,0-.2,.06-.28,.06-.08,.16-.12,.26-.12h105.55c.15,0,.29,.11,.32,.26l2.07,9.16c.02,.1,0,.2-.06,.28-.06,.08-.16,.12-.26,.12Zm-105.28-.66h104.87l-1.92-8.49h-104.87l1.92,8.49Z"/>
          </g>
          <g>
            <polygon class="cls-4" points="1031.81 345.1 926.26 345.1 924.19 335.95 1029.74 335.95 1031.81 345.1"/>
            <path class="cls-6" d="M1031.81,345.43h-105.55c-.15,0-.29-.11-.32-.26l-2.07-9.16c-.02-.1,0-.2,.06-.28,.06-.08,.16-.12,.26-.12h105.55c.15,0,.29,.11,.32,.26l2.07,9.16c.02,.1,0,.2-.06,.28-.06,.08-.16,.12-.26,.12Zm-105.28-.66h104.87l-1.92-8.49h-104.87l1.92,8.49Z"/>
          </g>
          <g>
            <polygon class="cls-3" points="1037.98 375.52 932.43 375.52 930.36 366.36 1035.14 366.36 1037.98 375.52"/>
            <path class="cls-6" d="M1037.98,375.85h-105.55c-.15,0-.29-.11-.32-.26l-2.07-9.16c-.02-.1,0-.2,.06-.28,.06-.08,.16-.12,.26-.12h104.78c.14,0,.27,.09,.32,.23l2.84,9.16c.03,.1,.01,.21-.05,.29-.06,.08-.16,.13-.27,.13Zm-105.28-.66h104.83l-2.63-8.49h-104.12l1.92,8.49Z"/>
          </g>
          <g>
            <polygon class="cls-4" points="1044.16 405.93 938.61 405.93 936.54 396.77 1042.09 396.77 1044.16 405.93"/>
            <path class="cls-6" d="M1044.16,406.26h-105.55c-.15,0-.29-.11-.32-.26l-2.07-9.16c-.02-.1,0-.2,.06-.28s.16-.12,.26-.12h105.55c.15,0,.29,.11,.32,.26l2.07,9.16c.02,.1,0,.2-.06,.28s-.16,.12-.26,.12Zm-105.28-.66h104.87l-1.92-8.49h-104.87l1.92,8.49Z"/>
          </g>
          <g>
            <polygon class="cls-3" points="1052.07 435.1 946.52 435.1 944.45 425.94 1050 425.94 1052.07 435.1"/>
            <path class="cls-6" d="M1052.07,435.43h-105.55c-.15,0-.29-.11-.32-.26l-2.07-9.16c-.02-.1,0-.2,.06-.28s.16-.12,.26-.12h105.55c.15,0,.29,.11,.32,.26l2.07,9.16c.02,.1,0,.2-.06,.28-.06,.08-.16,.12-.26,.12Zm-105.28-.66h104.87l-1.92-8.49h-104.87l1.92,8.49Z"/>
          </g>
        </g>
        <g>
          <path class="cls-6" d="M1025.63,315.02h-105.55c-.15,0-.29-.11-.32-.26l-2.07-9.16c-.02-.1,0-.2,.06-.28,.06-.08,.16-.12,.26-.12h105.55c.15,0,.29,.11,.32,.26l2.07,9.16c.02,.1,0,.2-.06,.28-.06,.08-.16,.12-.26,.12Zm-105.28-.66h104.87l-1.92-8.49h-104.87l1.92,8.49Z"/>
          <path class="cls-6" d="M1031.81,345.43h-105.55c-.15,0-.29-.11-.32-.26l-2.07-9.16c-.02-.1,0-.2,.06-.28,.06-.08,.16-.12,.26-.12h105.55c.15,0,.29,.11,.32,.26l2.07,9.16c.02,.1,0,.2-.06,.28-.06,.08-.16,.12-.26,.12Zm-105.28-.66h104.87l-1.92-8.49h-104.87l1.92,8.49Z"/>
          <path class="cls-6" d="M1037.98,375.85h-105.55c-.15,0-.29-.11-.32-.26l-2.07-9.16c-.02-.1,0-.2,.06-.28,.06-.08,.16-.12,.26-.12h104.78c.14,0,.27,.09,.32,.23l2.84,9.16c.03,.1,.01,.21-.05,.29-.06,.08-.16,.13-.27,.13Zm-105.28-.66h104.83l-2.63-8.49h-104.12l1.92,8.49Z"/>
          <path class="cls-6" d="M1044.16,406.26h-105.55c-.15,0-.29-.11-.32-.26l-2.07-9.16c-.02-.1,0-.2,.06-.28s.16-.12,.26-.12h105.55c.15,0,.29,.11,.32,.26l2.07,9.16c.02,.1,0,.2-.06,.28s-.16,.12-.26,.12Zm-105.28-.66h104.87l-1.92-8.49h-104.87l1.92,8.49Z"/>
          <path class="cls-6" d="M1052.07,435.43h-105.55c-.15,0-.29-.11-.32-.26l-2.07-9.16c-.02-.1,0-.2,.06-.28s.16-.12,.26-.12h105.55c.15,0,.29,.11,.32,.26l2.07,9.16c.02,.1,0,.2-.06,.28-.06,.08-.16,.12-.26,.12Zm-105.28-.66h104.87l-1.92-8.49h-104.87l1.92,8.49Z"/>
        </g>
      </g>
      <g>
        <path class="cls-3" d="M940.24,185.13h12.68s-2.28-11.49-2.28-11.49c-1.31-6.59,2.97-11.94,9.57-11.94h0c6.59,0,13,5.34,14.31,11.94l2.28,11.49h12.52c3.7,0,7.03,2.27,8.38,5.72l4.18,10.66h-68.67s-1.51-4.53-1.51-4.53c-1.94-5.83,2.4-11.85,8.54-11.85Z"/>
        <path class="cls-6" d="M1001.88,201.83h-68.67c-.14,0-.27-.09-.31-.23l-1.51-4.53c-.96-2.88-.49-5.94,1.28-8.41,1.78-2.46,4.54-3.88,7.57-3.88h12.28l-2.21-11.09c-.66-3.33,.03-6.46,1.95-8.8,1.87-2.28,4.69-3.54,7.94-3.54,6.73,0,13.3,5.47,14.64,12.2l2.23,11.22h12.25c3.87,0,7.28,2.33,8.69,5.93l4.18,10.66c.04,.1,.03,.22-.03,.31-.06,.09-.16,.14-.27,.14Zm-68.43-.66h67.94l-4-10.21c-1.31-3.34-4.48-5.51-8.07-5.51h-12.52c-.16,0-.29-.11-.32-.27l-2.28-11.49c-1.28-6.44-7.55-11.67-13.99-11.67-3.04,0-5.68,1.17-7.42,3.29-1.79,2.19-2.44,5.12-1.82,8.25l2.28,11.49c.02,.1,0,.2-.07,.27s-.16,.12-.26,.12h-12.68c-2.82,0-5.39,1.31-7.03,3.6-1.65,2.29-2.08,5.14-1.19,7.81l1.43,4.3Z"/>
      </g>
      <g>
        <circle class="cls-6" cx="962.03" cy="172.69" r="4.53"/>
        <path class="cls-6" d="M962.03,177.55c-2.68,0-4.86-2.18-4.86-4.86s2.18-4.86,4.86-4.86,4.86,2.18,4.86,4.86-2.18,4.86-4.86,4.86Zm0-9.06c-2.31,0-4.2,1.88-4.2,4.2s1.88,4.2,4.2,4.2,4.2-1.88,4.2-4.2-1.88-4.2-4.2-4.2Z"/>
      </g>
    </g>
    <g>
      <path class="cls-6" d="M1514.06,285.12c-.1,0-.19-.03-.27-.08-.15-.1-.23-.27-.22-.44l1.54-26.51c.01-.18,.11-.33,.27-.41,.16-.08,.35-.07,.5,.03l22.19,14.59c.15,.1,.23,.27,.22,.44-.01,.18-.11,.33-.27,.41l-23.73,11.92c-.07,.04-.15,.05-.22,.05Zm1.98-26.12l-1.44,24.79,22.19-11.15-20.75-13.64Z"/>
      <g>
        <polygon class="cls-5" points="1454.4 250.88 1437.89 253.73 1421.39 256.57 1427.18 240.86 1432.96 225.15 1443.68 238.01 1454.4 250.88"/>
        <path class="cls-6" d="M1421.39,256.9c-.1,0-.19-.04-.25-.12-.08-.09-.1-.22-.06-.33l11.57-31.43c.04-.11,.14-.19,.25-.21,.12-.02,.23,.02,.31,.11l21.43,25.73c.08,.09,.1,.22,.06,.33-.04,.11-.14,.19-.25,.21l-33,5.7s-.04,0-.06,0Zm11.68-31.11l-11.17,30.35,31.87-5.5-20.7-24.85Z"/>
      </g>
    </g>
    <g>
      <path class="cls-3" d="M1433.02,504.9c0-12.26-159.23-22.2-355.65-22.2s-355.65,9.94-355.65,22.2c0,7.12,53.72,13.46,137.23,17.52-2.02,1.52-3.07,3.09-3.07,4.68,0,16.31,110.12,29.53,245.95,29.53s245.95-13.22,245.95-29.53c0-2.5-2.6-4.93-7.47-7.25,57.6-3.94,92.72-9.19,92.72-14.95Z"/>
      <path class="cls-6" d="M1101.82,556.97c-65.72,0-127.51-3.07-173.99-8.65-46.71-5.61-72.43-13.14-72.43-21.21,0-1.48,.86-2.95,2.56-4.4-41.37-2.03-75.6-4.64-99.03-7.57-25.01-3.12-37.68-6.57-37.68-10.23,0-7.85,56.88-13.05,104.59-16.03,67.19-4.19,156.51-6.5,251.53-6.5s184.34,2.31,251.53,6.5c47.72,2.98,104.59,8.18,104.59,16.03,0,7.28-49.66,12.27-91.88,15.19,4.4,2.27,6.63,4.62,6.63,7.01,0,8.07-25.72,15.6-72.43,21.21-46.48,5.58-108.27,8.65-173.99,8.65Zm-24.46-73.93c-94.99,0-184.28,2.31-251.44,6.5-32.64,2.04-58.27,4.41-76.16,7.05-22.79,3.36-27.58,6.38-27.58,8.32,0,2.27,6.4,5.77,36.91,9.58,23.58,2.95,58.12,5.58,99.88,7.61,.18,0,.34,.09,.4,.21s.03,.25-.09,.35c-1.96,1.48-2.95,2.97-2.95,4.45,0,7.6,26.11,15.09,71.65,20.56,46.43,5.57,108.17,8.64,173.84,8.64s127.41-3.07,173.84-8.64c45.53-5.47,71.65-12.96,71.65-20.56,0-2.34-2.44-4.68-7.27-6.98-.16-.08-.24-.22-.19-.36,.05-.14,.21-.23,.41-.25,58.66-4.02,92.3-9.35,92.3-14.62,0-1.94-4.78-4.95-27.58-8.32-17.9-2.64-43.52-5.01-76.17-7.05-67.16-4.19-156.46-6.5-251.44-6.5Z"/>
    </g>
    <g>
      <g>
        <path class="cls-3" d="M1094.42,492.79c.06-.83,.11-1.51,.15-1.95,.35-3.81,2.55-8.13,2.55-8.13l-11.52-1.99s-4.03,4.02-9.27,7.6c5.21,4.02,11.89,5.69,18.09,4.47Z"/>
        <path class="cls-6" d="M1090.42,493.51c-5.03,0-10.15-1.73-14.29-4.92-.08-.06-.13-.17-.13-.27,0-.11,.06-.2,.14-.26,5.15-3.51,9.18-7.52,9.22-7.56,.08-.08,.18-.11,.29-.09l11.52,1.99c.1,.02,.19,.08,.24,.18,.05,.09,.05,.2,0,.3-.02,.04-2.18,4.3-2.52,8.01-.04,.44-.09,1.12-.15,1.94-.01,.15-.12,.27-.27,.3-1.33,.26-2.69,.39-4.06,.39Zm-13.52-5.17c4.99,3.7,11.37,5.25,17.21,4.18,.05-.72,.1-1.3,.13-1.7,.29-3.2,1.84-6.68,2.39-7.85l-10.92-1.89c-.7,.68-4.29,4.12-8.81,7.26Zm17.52,4.46h0Z"/>
      </g>
      <g>
        <path class="cls-6" d="M1076.33,488.32c-3.62,2.47-7.81,4.72-11.66,5.28-9.66,1.84-14.49,10.35-14.49,10.35,0,0-.69,2.99,0,3.68,26.91,.23,43.47-2.07,43.47-2.07,0,0,.47-8.43,.77-12.77-6.2,1.22-12.88-.45-18.09-4.47Z"/>
        <path class="cls-6" d="M1053.91,507.98c-1.22,0-2.46,0-3.73-.02-.09,0-.17-.04-.23-.1-.78-.78-.21-3.46-.09-3.99,0-.03,.02-.06,.03-.09,.05-.09,5.02-8.66,14.72-10.51,3.27-.48,7.15-2.24,11.54-5.23,.12-.08,.28-.08,.39,.01,5.11,3.95,11.78,5.6,17.82,4.41,.1-.02,.21,0,.28,.08,.08,.07,.12,.17,.11,.27-.3,4.29-.77,12.68-.77,12.76,0,.16-.13,.29-.28,.31-.16,.02-15.34,2.09-39.79,2.09Zm-3.56-.68c24.65,.21,40.74-1.74,42.99-2.03,.08-1.43,.46-8.14,.73-12.07-6.04,1.05-12.62-.6-17.74-4.47-4.39,2.97-8.29,4.72-11.61,5.2-9.05,1.72-13.85,9.51-14.23,10.15-.24,1.06-.43,2.7-.15,3.23Z"/>
      </g>
      <g>
        <path class="cls-3" d="M1169.32,422.95s-37.15-38.29-53.25-29.67c-16.1,8.62-33.81,89.05-33.81,89.05,0,0,11.04,5.86,15.53,4.48,19.32-23.8,26.94-41.81,31.43-50.44,8.63,15.52,33.21,37.62,61.84,17.27,28.64-20.35,19.67-32.43,19.67-32.43l-41.4,1.72Z"/>
        <path class="cls-6" d="M1096.18,487.36c-5.1,0-13.66-4.52-14.07-4.73-.13-.07-.2-.22-.17-.36,.04-.2,4.51-20.36,10.88-41.32,8.57-28.2,16.35-44.34,23.1-47.96,6.8-3.64,17.91,.27,33.01,11.63,11.19,8.41,20.53,18.01,20.62,18.1,.13,.13,.12,.34,0,.47-.13,.13-.34,.12-.47,0-.37-.38-37.15-38.02-52.85-29.61-15.34,8.22-32.49,83.65-33.59,88.58,1.57,.81,10.94,5.49,14.96,4.37,16.44-20.27,24.39-36.34,29.14-45.94,.82-1.66,1.53-3.1,2.19-4.35,.06-.11,.17-.18,.29-.18,.13,.01,.23,.06,.29,.17,5.13,9.24,16.23,21.18,30.59,24.44,10.33,2.34,20.68-.11,30.77-7.28,15.57-11.07,19.84-19.61,20.68-24.84,.74-4.58-1.07-7.1-1.09-7.12-.11-.15-.08-.35,.07-.46,.15-.11,.35-.08,.46,.07,.08,.11,1.98,2.74,1.22,7.58-.85,5.35-5.17,14.09-20.95,25.31-10.25,7.28-20.78,9.77-31.3,7.38-14.3-3.24-25.4-14.95-30.72-24.23-.57,1.12-1.2,2.38-1.9,3.8-4.77,9.64-12.75,25.78-29.29,46.15-.04,.05-.1,.09-.16,.11-.5,.15-1.08,.22-1.71,.22Z"/>
      </g>
    </g>
    <g>
      <g>
        <path class="cls-3" d="M1228.78,505c-.18-1.29-.96-2.18-1.95-2.9-3.07,1.03-5.88,.5-5.88,.5,0,0-5.98,7.93-.8,11.04,2.13-.43,5.31,.56,8.95,2.16,1.32-3.05,.17-7.43-.31-10.8Z"/>
        <path class="cls-6" d="M1229.09,516.14s-.09,0-.13-.03c-4.15-1.82-6.93-2.5-8.75-2.14-.08,.02-.16,0-.24-.04-1.19-.71-1.92-1.73-2.17-3.01-.72-3.68,2.74-8.31,2.88-8.51,.08-.1,.2-.15,.33-.13,.03,0,2.77,.51,5.72-.49,.1-.03,.21-.02,.3,.04,1.23,.88,1.91,1.9,2.08,3.12h0c.09,.61,.19,1.24,.31,1.91,.51,3.04,1.1,6.48-.02,9.07-.04,.08-.1,.14-.18,.18-.04,.02-.08,.02-.12,.02Zm-7.87-2.92c1.84,0,4.33,.7,7.69,2.15,.87-2.38,.33-5.56-.15-8.39-.11-.67-.22-1.31-.31-1.93-.14-1-.68-1.82-1.68-2.58-2.6,.83-4.97,.59-5.68,.49-.59,.84-3.24,4.79-2.65,7.82,.21,1.06,.8,1.9,1.76,2.51,.31-.05,.65-.08,1.01-.08Z"/>
      </g>
      <g>
        <path class="cls-6" d="M1271.66,521.92c-.56-1.12-5.88-2.47-12.04-6.69-9.07-6.22-20.62-15.93-27.06-17.92-1.52,2.72-3.68,4.1-5.73,4.79,.99,.71,1.77,1.61,1.95,2.9,.48,3.37,1.63,7.75,.31,10.8,7.15,3.14,16.13,8.62,22.68,10.37,9.89,2.64,21.28-1.49,19.9-4.25Z"/>
        <path class="cls-6" d="M1258.49,527.35c-2.25,0-4.58-.25-6.81-.85-4.21-1.13-9.42-3.78-14.45-6.35-2.93-1.49-5.69-2.9-8.27-4.04-.17-.07-.24-.27-.17-.43,1.04-2.41,.48-5.75-.02-8.7-.11-.67-.22-1.31-.31-1.93-.15-1.04-.73-1.89-1.82-2.68-.1-.07-.15-.2-.13-.32s.1-.22,.22-.26c2.41-.81,4.28-2.37,5.55-4.64,.08-.14,.24-.2,.39-.15,4.59,1.42,11.76,6.72,18.68,11.84,2.85,2.11,5.8,4.29,8.47,6.12,3.42,2.35,6.54,3.78,8.82,4.83,1.89,.87,3.03,1.39,3.32,1.98h0c.2,.39,.3,1.02-.33,1.8-1.58,1.94-7.08,3.78-13.13,3.78Zm-28.98-11.72c2.51,1.12,5.19,2.48,8.01,3.92,5,2.55,10.18,5.2,14.32,6.3,8.55,2.29,17.45-.49,19.26-2.7,.49-.61,.31-.97,.25-1.08-.19-.39-1.5-.99-3.01-1.68-2.3-1.06-5.45-2.5-8.92-4.88-2.68-1.84-5.63-4.02-8.49-6.14-6.76-5-13.74-10.16-18.23-11.66-1.24,2.11-2.99,3.62-5.21,4.5,.93,.79,1.46,1.7,1.61,2.74,.09,.61,.19,1.24,.31,1.91,.49,2.92,1.05,6.21,.1,8.76Z"/>
      </g>
      <g>
        <path class="cls-3" d="M1172.08,436.66s-77.28,36.22-75.21,70.03c2.07,33.81,129.02,8.44,129.02,8.44l-4.13-12.76s-45.2-16.38-88.67-4.99c31.4-10.35,70.47-.52,83.54-16.55,19.54-23.88-6.26-47.27-6.26-47.27l-38.3,3.1Z"/>
        <path class="cls-6" d="M1143.17,524.6c-4.04,0-7.82-.11-11.35-.33-14.15-.87-24.18-3.5-29.8-7.83-3.39-2.61-5.24-5.89-5.47-9.73-.48-7.8,3.21-16.36,10.96-25.44,6.17-7.23,14.92-14.82,26.01-22.55,18.87-13.15,38.24-22.27,38.43-22.37,.04-.02,.07-.03,.11-.03l38.3-3.1c.09,0,.18,.02,.25,.08,.06,.06,6.55,6,10.53,14.79,3.69,8.15,5.96,20.47-4.24,32.94-7.52,9.23-23.3,9.98-41.57,10.84-8.31,.39-17.3,.82-26.15,2.15,16.92-2.02,32.98-.61,44.61,1.25,16.57,2.65,27.98,6.74,28.09,6.78,.1,.03,.17,.11,.2,.21l4.13,12.76c.03,.09,.02,.19-.03,.27-.05,.08-.13,.14-.22,.16-.25,.05-25.15,4.99-52.72,7.57-11.13,1.04-21.2,1.57-30.07,1.57Zm29-87.61c-1.15,.54-19.96,9.52-38.29,22.29-11.04,7.69-19.75,15.24-25.88,22.43-7.63,8.95-11.26,17.35-10.8,24.97,.22,3.64,1.98,6.75,5.21,9.25,9.91,7.63,34.38,9.86,70.76,6.46,25.72-2.41,49.11-6.87,52.29-7.49l-3.96-12.25c-1.4-.49-12.35-4.23-27.84-6.7-15.23-2.43-38.09-4.1-60.48,1.77-.17,.04-.35-.05-.4-.23-.05-.17,.04-.35,.21-.41,13.58-4.48,28.84-5.2,42.29-5.84,18.11-.86,33.76-1.6,41.09-10.6,8.01-9.79,9.41-20.63,4.16-32.23-3.65-8.07-9.44-13.7-10.28-14.5l-38.09,3.09Z"/>
      </g>
      <g>
        <path class="cls-6" d="M1165.03,440.16l-2.01,1.09s1.69,12.96,22.6,11.86c20.91-1.1,34.43-5.69,34.43-5.69l-2.01-4.37-53-2.88Z"/>
        <path class="cls-6" d="M1183.2,453.51c-9.35,0-14.36-3.03-16.96-5.68-3.08-3.14-3.53-6.39-3.55-6.53-.02-.14,.05-.27,.17-.33l2.01-1.09c.05-.03,.11-.05,.18-.04l53,2.88c.12,0,.23,.08,.28,.19l2.01,4.37c.04,.08,.04,.18,0,.27-.04,.09-.11,.15-.2,.18-.14,.05-13.8,4.63-34.52,5.71-.84,.04-1.65,.06-2.43,.06Zm-19.82-12.08c.16,.77,.86,3.43,3.36,5.96,2.72,2.77,8.21,5.95,18.86,5.39,18.79-.98,31.74-4.85,33.99-5.56l-1.77-3.85-52.71-2.87-1.72,.93Z"/>
      </g>
      <g>
        <path class="cls-3" d="M1072.9,335.41c.76-.05,1.55-.12,2.34-.2-1.9-6.03-3.25-11.12-4.25-13.19-2.99-6.21-14.35-17.25-14.35-17.25,0,0-1.29,2.99,.78,5.06,2.07,2.07,5.06,8.97,5.06,8.97,0,0-12.65,2.07-10.58,9.89,2.07,7.82,8.51,4.14,9.2,.46,0,0,1.08,5.41,3.08,12.84,1.91-3.33,4.43-6.13,8.71-6.58Z"/>
        <path class="cls-6" d="M1064.18,342.32s-.03,0-.04,0c-.13-.02-.24-.11-.28-.24-1.44-5.35-2.41-9.68-2.83-11.68-.86,1.76-2.78,3.17-4.64,3.24-1.3,.04-3.66-.52-4.81-4.87-.48-1.81-.24-3.48,.72-4.95,2.31-3.57,8.09-4.95,9.71-5.27-.66-1.47-3.1-6.76-4.82-8.49-2.2-2.2-.9-5.29-.85-5.42,.04-.1,.13-.17,.24-.19,.11-.02,.22,.01,.29,.09,.47,.45,11.43,11.15,14.42,17.34,.68,1.41,1.52,4.19,2.57,7.7,.5,1.67,1.07,3.56,1.69,5.53,.03,.09,.02,.2-.04,.28-.05,.08-.14,.14-.24,.15-.71,.07-1.55,.15-2.35,.2-3.52,.37-6.13,2.35-8.46,6.42-.06,.1-.17,.17-.29,.17Zm-3.08-13.5c.16,0,.29,.11,.32,.27,.01,.05,1.02,5.11,2.87,12.06,1.65-2.7,4.13-5.6,8.56-6.06,0,0,0,0,.01,0,.65-.04,1.32-.1,1.93-.16-.57-1.83-1.1-3.59-1.57-5.15-1.05-3.49-1.88-6.24-2.54-7.61-2.63-5.45-11.93-14.83-13.91-16.79-.25,.88-.56,2.79,.87,4.22,2.09,2.09,5.01,8.79,5.13,9.07,.04,.09,.04,.2-.01,.29s-.14,.15-.24,.17c-.07,.01-7.2,1.22-9.68,5.06-.85,1.31-1.06,2.8-.63,4.42,.77,2.89,2.23,4.44,4.14,4.37,1.94-.07,4.04-1.93,4.41-3.89,.03-.16,.16-.27,.32-.27h0Z"/>
      </g>
      <g>
        <path class="cls-3" d="M1244.41,437.75c1.26,5.07,.96,8.42,.96,8.42,0,0-.46,3.02-2.76,3.68-2.3,.66-3.57,5.57-3.22,8.44,.21,1.72,.19,5.26,3.28,5.87,2.06,.41,7.21-1.34,8.45-2.59,1.66-1.66,2.43-13.38,2.32-25.55-.99,.68-2.02,1.25-3.1,1.68-2.01,.8-3.78,1.1-5.93,.04Z"/>
        <path class="cls-6" d="M1243.36,464.56c-.28,0-.54-.02-.76-.07-3-.6-3.3-3.71-3.48-5.57-.02-.21-.04-.41-.06-.59-.36-2.97,.97-8.08,3.46-8.8,2.07-.59,2.52-3.38,2.52-3.41,0-.01,.28-3.34-.95-8.3-.03-.12,.01-.26,.11-.34,.1-.08,.24-.1,.35-.04,2.06,1.01,3.75,.71,5.66-.05,1.05-.42,2.07-.97,3.03-1.64,.1-.07,.23-.08,.34-.02,.11,.06,.18,.17,.18,.29,.1,10.68-.47,23.84-2.41,25.79-1.2,1.2-5.56,2.74-7.99,2.74Zm1.53-26.24c1.08,4.7,.82,7.75,.81,7.88-.02,.15-.52,3.26-3,3.97-2.11,.61-3.31,5.33-2.98,8.08,.02,.18,.04,.39,.06,.61,.17,1.78,.43,4.48,2.95,4.98,1.9,.38,6.97-1.31,8.15-2.5,1.39-1.39,2.32-11.73,2.23-24.7-.85,.55-1.74,1-2.65,1.37-1.88,.75-3.57,1.09-5.58,.3Z"/>
      </g>
      <g>
        <path class="cls-5" d="M1247.25,404.49c-.18-.28-.6-.87-1.19-1.69-.07-.1-.15-.21-.23-.31-5.33-7.37-22.81-30.79-22.81-30.79,0,0-20.47-25.53-34.27-23.92l-2.76,16.56s47.11,49.54,48.94,51.79c3.69,4.54,7.05,16.06,9.08,24.23,2.15,1.06,4.98,1.19,6.98,.39,1.07-.43,2.11-.99,3.1-1.68-.1-10.58-.87-21.51-2.32-26.43-.58-1.96-2.23-4.81-4.53-8.14Z"/>
        <path class="cls-6" d="M1248.07,441.58c-1.44,0-2.94-.32-4.2-.94-.09-.04-.15-.12-.17-.22-2.13-8.55-5.42-19.68-9.01-24.1-1.8-2.21-48.45-51.27-48.92-51.77-.07-.08-.1-.18-.09-.28l2.76-16.56c.02-.15,.14-.26,.29-.27,13.82-1.61,33.73,22.99,34.57,24.04,.18,.24,17.55,23.52,22.82,30.81l.23,.31c.61,.85,1.02,1.42,1.2,1.7,2.48,3.6,4.02,6.37,4.57,8.23,1.58,5.4,2.24,17.24,2.33,26.52,0,.11-.05,.21-.14,.27-1.01,.7-2.07,1.27-3.16,1.71-.91,.36-1.97,.54-3.05,.54Zm-3.77-1.47c2.04,.95,4.66,1.08,6.58,.31,1-.4,1.97-.92,2.89-1.54-.12-11.71-1-21.72-2.3-26.16-.53-1.8-2.04-4.51-4.48-8.05,0,0,0,0,0,0-.17-.27-.57-.83-1.18-1.68l-.22-.31c-5.27-7.28-22.63-30.56-22.8-30.79-.2-.24-20.26-25.05-33.72-23.81l-2.69,16.15c3.14,3.3,47.05,49.49,48.84,51.69,3.65,4.49,6.96,15.61,9.11,24.21Z"/>
      </g>
      <g>
        <path class="cls-3" d="M1153.19,306.27s-8.85,27.44,5.3,33.65c2.67,.18,4.57-.99,5.68-1.61,4.98,3.88,3.2,13.57,3.28,13.84,1.74,5.49,21.71,1.19,20.24-3.45,0,0-1.17-5.9-3.07-13.03-1.13-4.27-.13-9.52-1.68-13.66-1.05-2.8-4.56-4.8-5.72-6.77-5.75-9.77-18.86-15.52-24.04-8.97Z"/>
        <path class="cls-6" d="M1173.83,355.06c-3.28,0-6.06-.78-6.7-2.8-.03-.1-.02-.18,.03-.65,.66-6.34-.36-10.67-3.03-12.89-1.14,.64-3.06,1.71-5.67,1.54-.04,0-.08-.01-.11-.03-5.92-2.6-8.74-9.33-8.15-19.48,.44-7.59,2.65-14.51,2.67-14.58,.01-.04,.03-.07,.06-.1,1.67-2.11,4.21-3.12,7.36-2.9,6.17,.42,13.41,5.43,17.22,11.91,.45,.77,1.32,1.58,2.23,2.43,1.34,1.25,2.87,2.68,3.51,4.4,.86,2.31,.95,4.95,1.04,7.52,.07,2.1,.15,4.27,.65,6.18,1.82,6.87,3,12.67,3.07,13.03,.57,1.85-1.66,3.76-5.97,5.12-2.48,.79-5.52,1.31-8.21,1.31Zm-6.06-2.96c.99,2.92,8.19,2.88,14.07,1.02,3.81-1.21,5.98-2.9,5.53-4.31,0-.01,0-.02,0-.04-.01-.06-1.19-5.97-3.06-13.01-.53-1.98-.6-4.19-.67-6.32-.09-2.51-.17-5.1-1-7.31-.59-1.57-2.05-2.94-3.34-4.14-.95-.89-1.85-1.72-2.35-2.58-3.71-6.3-10.73-11.17-16.7-11.58-2.89-.2-5.23,.7-6.75,2.6-.43,1.39-8.25,27.23,5.08,33.16,2.39,.14,4.11-.82,5.25-1.46l.19-.11c.12-.06,.26-.05,.36,.03,2.99,2.32,4.14,6.9,3.45,13.61-.02,.17-.04,.35-.04,.43Z"/>
      </g>
      <g>
        <path class="cls-5" d="M1211.67,382.55c4.07,23.74,8.64,57.72,8.37,60.49-.46,4.83-17.95,8.92-39.57,7.77-21.62-1.15-15.41-18.17-26.91-39.1-4.5-8.2-3.72-22.16-9.53-22.88-5.93-.74-17.84-1.04-17.84-1.04,0,0-23.23,.92-39.1-3.45-10.7-2.94-18.78-26.99-22.91-42.36,1.91-3.33,4.43-6.13,8.71-6.58,.76-.05,1.55-.12,2.34-.2,3.82,12.1,9.85,27.98,19.67,30.74,9.76,2.74,27.15-1.99,37.77-5.5l9.06-3.25,19.18-6.89s10.26-6.51,24.38-3.45l8.59,1.41,17.78,34.29Z"/>
        <path class="cls-6" d="M1187.68,451.33c-2.36,0-4.78-.06-7.22-.19-14.51-.77-16.74-8.76-19.83-19.82-1.62-5.8-3.46-12.37-7.35-19.45-1.86-3.38-2.84-7.8-3.71-11.7-1.27-5.69-2.36-10.61-5.57-11.01-5.84-.73-17.69-1.03-17.81-1.03-.21,0-23.44,.87-39.18-3.46-10.98-3.02-19.21-27.98-23.14-42.59-.02-.08-.01-.17,.03-.25,1.65-2.87,4.15-6.24,8.97-6.75,.81-.05,1.64-.13,2.35-.2,.15-.02,.3,.08,.35,.23,3.72,11.8,9.79,27.8,19.45,30.52,9.84,2.77,27.76-2.26,37.58-5.5l28.2-10.12c.66-.4,10.9-6.44,24.6-3.48l8.57,1.41c.18,.03,.3,.2,.27,.38-.03,.18-.2,.3-.38,.27l-8.59-1.41c-13.85-3-24.05,3.34-24.15,3.4-.02,.01-.04,.02-.07,.03l-28.24,10.14c-9.89,3.27-27.97,8.32-37.97,5.51-9.9-2.78-16.04-18.78-19.82-30.7-.65,.07-1.38,.13-2.09,.18-3.48,.37-6.07,2.31-8.38,6.3,3.91,14.49,12.01,39.06,22.65,41.99,15.64,4.31,38.77,3.45,39,3.44,.14,0,12.02,.3,17.89,1.04,3.67,.46,4.81,5.59,6.13,11.52,.9,4.04,1.83,8.23,3.64,11.53,3.93,7.15,5.78,13.76,7.41,19.59,3.13,11.2,5.2,18.59,19.23,19.34,10.15,.54,19.96-.04,27.63-1.63,7.05-1.46,11.38-3.64,11.59-5.83,.27-2.83-4.36-37.03-8.37-60.4-.03-.18,.09-.35,.27-.38,.18-.03,.35,.09,.38,.27,4.01,23.41,8.65,57.71,8.37,60.58-.45,4.76-15.02,8.26-32.69,8.26Z"/>
      </g>
      <g>
        <path class="cls-6" d="M1163.52,314.4s2.24,7.01,3.85,8.16c2.3-2.99,5.52-5.29,6.9-3.68,1.38,1.61,1.84,8.97,1.84,8.97,0,0,6.14,5.55,11.66,2.56,5.29-10.12,5.03-29.38-11.49-34.21-4.8-1.4-11.07-3.93-18.77-2.59-4.7,.81-13.17,5.72-14.33,7.9-3.46,6.56,6.05,13.83,6.05,13.83,0,0,5.84,6.58,14.3-.95Z"/>
        <path class="cls-6" d="M1184.21,331.64c-4.34,0-8.12-3.36-8.32-3.54-.06-.06-.1-.14-.11-.22-.13-2.02-.69-7.52-1.76-8.78-.25-.29-.57-.42-.99-.41-1.38,.04-3.55,1.68-5.4,4.08-.11,.14-.31,.17-.45,.07-1.46-1.04-3.25-6.16-3.81-7.85-2.81,2.39-5.63,3.51-8.39,3.35-3.54-.21-5.71-2.46-5.97-2.74-.65-.5-9.61-7.6-6.12-14.23,1.19-2.27,9.67-7.23,14.56-8.08,6.75-1.17,12.39,.58,16.91,1.99,.7,.22,1.36,.42,2.01,.61,6.03,1.76,10.47,5.64,12.85,11.22,3.45,8.1,1.91,17.62-1.15,23.46-.03,.06-.08,.11-.14,.14-1.24,.67-2.5,.93-3.72,.93Zm-7.78-3.95c.8,.67,6.24,5.02,11.09,2.48,2.86-5.53,4.4-14.99,1.08-22.8-2.29-5.39-6.59-9.14-12.42-10.84-.65-.19-1.32-.4-2.02-.62-4.46-1.39-10.01-3.11-16.61-1.97-4.65,.81-12.98,5.62-14.09,7.73-3.29,6.24,5.87,13.34,5.96,13.41,.02,.01,.03,.03,.05,.04,.23,.26,5.73,6.24,13.83-.97,.08-.07,.2-.1,.31-.07,.11,.03,.19,.11,.23,.22,.58,1.8,2.25,6.48,3.49,7.78,1.52-1.9,3.84-4.01,5.69-4.06,.61-.02,1.13,.21,1.51,.64,1.34,1.57,1.84,7.97,1.91,9.03Z"/>
      </g>
    </g>
    <g>
      <path class="cls-3" d="M1200.99,476.53s29.33,28.87,39.49,25.61c1.39-1.12-4.22-3.28-10.59-7.83-11.38-8.14-27.71-19.84-28.9-17.78Z"/>
      <path class="cls-6" d="M1238.71,502.72c-11.44,0-36.81-24.84-37.95-25.96-.11-.11-.13-.27-.05-.4,.08-.13,.23-.31,.54-.38,2.56-.56,14.5,7.8,28.68,17.94l.16,.11c2.42,1.73,4.73,3.11,6.59,4.23,2.97,1.78,4.29,2.6,4.35,3.43,.01,.18-.03,.45-.33,.7-.03,.03-.07,.05-.11,.06-.57,.18-1.2,.27-1.87,.27Zm-37.15-26.11c3.26,3.15,29.41,28.07,38.76,25.23,.05-.05,.05-.08,.05-.1-.04-.52-1.98-1.68-4.03-2.91-1.87-1.12-4.19-2.51-6.63-4.26l-.16-.11c-9.98-7.14-24.95-17.85-27.96-17.85-.01,0-.02,0-.03,0Z"/>
    </g>
    <g>
      <polygon class="cls-5" points="1013.28 253.87 907.73 253.87 905.66 244.72 1011.21 244.72 1013.28 253.87"/>
      <path class="cls-6" d="M1013.28,254.2h-105.55c-.15,0-.29-.11-.32-.26l-2.07-9.16c-.02-.1,0-.2,.06-.28,.06-.08,.16-.12,.26-.12h105.55c.15,0,.29,.11,.32,.26l2.07,9.16c.02,.1,0,.2-.06,.28-.06,.08-.16,.12-.26,.12Zm-105.28-.66h104.87l-1.92-8.49h-104.87l1.92,8.49Z"/>
    </g>
    <g>
      <polygon class="cls-5" points="1019.46 284.28 913.91 284.28 911.84 275.13 1017.39 275.13 1019.46 284.28"/>
      <path class="cls-6" d="M1019.46,284.61h-105.55c-.15,0-.29-.11-.32-.26l-2.07-9.16c-.02-.1,0-.2,.06-.28,.06-.08,.16-.12,.26-.12h105.55c.15,0,.29,.11,.32,.26l2.07,9.16c.02,.1,0,.2-.06,.28-.06,.08-.16,.12-.26,.12Zm-105.28-.66h104.87l-1.92-8.49h-104.87l1.92,8.49Z"/>
    </g>
    <g>
      <polygon class="cls-5" points="1024.89 241.14 1041.57 252.5 1054.78 228.3 1049.22 226.69 1039.84 245.45 1027.91 236.13 1024.89 241.14"/>
      <path class="cls-6" d="M1041.57,252.84c-.07,0-.13-.02-.19-.06l-16.67-11.36c-.14-.1-.19-.29-.1-.44l3.02-5.01c.05-.08,.13-.14,.22-.15,.09-.02,.19,0,.26,.06l11.61,9.08,9.21-18.4c.07-.14,.23-.21,.39-.17l5.56,1.61c.1,.03,.17,.1,.21,.19s.03,.2-.01,.29l-13.21,24.21c-.04,.08-.12,.14-.21,.16-.03,0-.05,0-.08,0Zm-16.23-11.79l16.11,10.98,12.84-23.52-4.89-1.41-9.26,18.51c-.04,.09-.13,.15-.22,.17-.1,.02-.2,0-.28-.06l-11.63-9.09-2.66,4.43Z"/>
    </g>
    <g>
      <polygon class="cls-3" points="1030.57 274.98 1047.25 286.34 1060.46 262.14 1054.9 260.53 1045.52 279.29 1033.59 269.97 1030.57 274.98"/>
      <path class="cls-6" d="M1047.25,286.67c-.07,0-.13-.02-.19-.06l-16.67-11.36c-.14-.1-.19-.29-.1-.44l3.02-5.01c.05-.08,.13-.14,.22-.15,.09-.02,.19,0,.26,.06l11.61,9.08,9.21-18.4c.07-.14,.23-.21,.39-.17l5.56,1.61c.1,.03,.17,.1,.21,.19s.03,.2-.01,.29l-13.21,24.21c-.04,.08-.12,.14-.21,.16-.03,0-.05,0-.08,0Zm-16.23-11.79l16.11,10.98,12.84-23.52-4.89-1.41-9.26,18.51c-.04,.09-.13,.15-.22,.17-.1,.02-.2,0-.28-.06l-11.63-9.09-2.66,4.43Z"/>
    </g>
    <g>
      <g>
        <g>
          <path class="cls-4" d="M1375.22,485.15s-37.94-44.31-7.49-76.15c30.45-31.84,65.28-27.16,85.55-2.53,20.27,24.63,15.73,64.65-.32,79.92-16.05,15.27-71.66-7.13-77.73-1.24Z"/>
          <path class="cls-6" d="M1433.69,492.19c-10.79,0-23.57-2.52-34.8-4.74-11.4-2.25-21.24-4.19-23.44-2.06-.07,.06-.15,.1-.25,.09-.09,0-.18-.05-.24-.12-.1-.11-9.59-11.29-15.22-26.23-3.31-8.79-4.67-17.14-4.02-24.83,.81-9.62,4.77-18.21,11.77-25.53,14.68-15.35,31.2-23.13,47.77-22.52,14.51,.54,28.1,7.65,38.27,20,9.41,11.43,14.21,26.95,13.53,43.69-.62,15.29-5.81,29-13.88,36.68-4.32,4.11-11.33,5.55-19.49,5.55Zm-54.21-8.37c4.43,0,11.41,1.38,19.54,2.98,18.53,3.66,43.92,8.66,53.7-.65,7.95-7.57,13.07-21.11,13.68-36.23,.67-16.58-4.08-31.94-13.38-43.25-10.05-12.21-23.47-19.23-37.78-19.76-16.38-.61-32.73,7.11-47.27,22.31-15.61,16.32-12.75,36.01-7.61,49.65,5.13,13.61,13.48,24.08,14.9,25.8,.85-.61,2.3-.87,4.22-.87Z"/>
        </g>
        <path class="cls-6" d="M1367.25,505.19s-.08,0-.13-.02c-.26-.07-.42-.34-.35-.61,7.22-27.62,24.9-50.61,38.47-65.04,14.69-15.62,27.86-24.85,27.99-24.94,.23-.16,.53-.1,.69,.12,.16,.22,.1,.53-.12,.69-.13,.09-13.23,9.27-27.85,24.82-13.48,14.34-31.05,37.19-38.21,64.59-.06,.22-.26,.37-.48,.37Z"/>
        <path class="cls-6" d="M1449.84,432.36c-.07,0-.14-.02-.2-.07-.13-.1-13.19-9.72-24.86-10.19-.1,0-.19-.05-.25-.13s-.08-.18-.06-.28c2.76-10.76-6.81-20.72-6.91-20.82-.13-.13-.12-.34,0-.47,.13-.13,.34-.12,.47,0,.1,.1,9.7,10.09,7.17,21.06,11.77,.68,24.69,10.21,24.82,10.3,.15,.11,.18,.32,.07,.46-.06,.09-.16,.13-.27,.13Z"/>
        <path class="cls-6" d="M1452.18,450.8c-.11,0-.21-.05-.28-.15-10.22-15.53-29.62-20.47-36.23-21.06-.17-.02-.3-.16-.3-.33-.06-8.45-15.83-23.21-15.99-23.36-.13-.12-.14-.33-.02-.47,.12-.13,.33-.14,.47-.02,.65,.61,15.79,14.78,16.2,23.54,6.96,.72,26.22,5.8,36.44,21.33,.1,.15,.06,.36-.09,.46-.06,.04-.12,.05-.18,.05Z"/>
        <path class="cls-6" d="M1449.4,471.89c-.13,0-.25-.08-.3-.2-5.41-12.76-15.2-21.04-22.46-25.75-8.63-5.59-16.9-8.1-20.3-7.62-.09,.01-.18-.01-.25-.07s-.12-.14-.12-.23c-1.18-13.55-24.7-35.38-24.94-35.6-.13-.12-.14-.33-.02-.47,.12-.13,.33-.14,.47-.02,.97,.89,23.58,21.88,25.12,35.69,3.77-.32,11.82,2.19,20.41,7.76,7.34,4.75,17.23,13.13,22.71,26.04,.07,.17,0,.36-.18,.43-.04,.02-.09,.03-.13,.03Z"/>
        <path class="cls-6" d="M1436.25,474.74c-.13,0-.26-.08-.31-.21-5.82-15-28.57-27.54-36.84-27.08-.17,.01-.32-.12-.35-.29-2.08-15.31-18.87-27.12-19.04-27.24-.15-.1-.19-.31-.08-.46,.1-.15,.31-.19,.46-.08,.17,.12,16.99,11.94,19.28,27.39,4.53-.08,12.34,3.1,19.63,8,8.59,5.79,14.99,12.9,17.56,19.51,.07,.17-.02,.36-.19,.43-.04,.02-.08,.02-.12,.02Z"/>
        <path class="cls-6" d="M1422.17,477.26c-.11,0-.22-.05-.28-.15-8.15-12.84-21.7-21.63-30.85-20-.1,.02-.19,0-.27-.07-.07-.06-.12-.15-.12-.25-.18-12.8-19.73-25.34-19.92-25.47-.15-.1-.2-.3-.1-.46,.1-.15,.3-.2,.46-.1,.81,.51,19.68,12.62,20.22,25.64,9.38-1.37,22.97,7.48,31.14,20.36,.1,.15,.05,.36-.1,.46-.06,.03-.12,.05-.18,.05Z"/>
        <path class="cls-6" d="M1411.07,481.52c-.14,0-.27-.09-.32-.23-1.62-5.08-7.99-8.66-11.65-10.34-5.25-2.42-11.21-3.88-14.84-3.65-.16,0-.3-.09-.34-.25-4.66-17.93-19.06-27.61-19.21-27.7-.15-.1-.19-.31-.09-.46,.1-.15,.31-.19,.46-.09,.15,.1,14.61,9.82,19.42,27.83,7.6-.32,24.15,5.88,26.88,14.46,.06,.17-.04,.36-.21,.42-.03,.01-.07,.02-.1,.02Z"/>
      </g>
      <g>
        <g>
          <path class="cls-6" d="M1369.83,483.82s17.71-29.21,5.34-40.82c-12.37-11.6-33.81-24.48-50.16-5.66-16.34,18.82-15.41,42.37,6.72,52.93,22.13,10.55,25.26-8.51,38.09-6.45Z"/>
          <path class="cls-6" d="M1343.86,493.8c-3.37,0-7.36-.9-12.26-3.23-9.6-4.58-15.66-11.74-17.53-20.71-2.18-10.47,1.72-22.4,10.7-32.74,5.24-6.03,11.4-9.27,18.31-9.62,13.25-.67,25.94,9.27,32.32,15.26,5.16,4.84,5.87,13.52,2.05,25.1-2.86,8.69-7.3,16.05-7.34,16.12-.07,.12-.2,.18-.34,.16-4.92-.79-8.44,1.65-12.17,4.24-3.73,2.59-7.77,5.41-13.75,5.41Zm.51-65.67c-.42,0-.84,.01-1.26,.03-6.73,.34-12.73,3.5-17.85,9.4-8.84,10.18-12.69,21.91-10.55,32.17,1.82,8.76,7.76,15.76,17.17,20.24,13.23,6.31,19.39,2.02,25.35-2.12,3.78-2.63,7.36-5.12,12.42-4.39,1.48-2.53,16.8-29.41,5.29-40.21-6.1-5.73-18.03-15.12-30.57-15.12Z"/>
        </g>
        <path class="cls-3" d="M1373.5,504.42c-.23,0-.43-.16-.48-.39-.04-.19,.03-.37,.16-.49,.15-.36,.72-3.03-3.82-19.6-3.55-12.94-14.8-22.29-23.61-27.85-9.59-6.05-18.45-9.07-18.53-9.1-.26-.09-.4-.37-.31-.63,.09-.26,.37-.4,.63-.31,.09,.03,9.04,3.07,18.73,9.19,8.97,5.66,20.42,15.19,24.05,28.44,3.23,11.76,4.54,19,3.7,20.4-.14,.23-.31,.3-.4,.32-.04,0-.07,.01-.11,.01Zm-.12-.98h0Zm0,0h0Zm0,0h0Zm0,0h0Zm0,0h0Z"/>
        <path class="cls-3" d="M1349.78,486.67s-.07,0-.1-.01c-.17-.05-.27-.24-.22-.41,1.18-3.82,5.91-11.31,11.16-12.62,2.13-.53,4.12-.03,5.94,1.5-.17-7.79,7.28-19.1,7.61-19.59,.1-.15,.31-.19,.46-.09,.15,.1,.19,.31,.09,.46-.08,.12-8.2,12.44-7.45,19.99,.01,.14-.06,.27-.19,.33-.13,.06-.28,.03-.37-.06-1.8-1.78-3.79-2.42-5.92-1.88-4.94,1.24-9.59,8.58-10.69,12.18-.04,.14-.17,.23-.32,.23Z"/>
        <path class="cls-3" d="M1341.53,488.67s-.02,0-.04,0c-.18-.02-.31-.18-.29-.36,.88-8.28,5.09-15.37,11.27-18.96,3.27-1.9,6.6-2.45,9.24-1.54-1.55-13.97,6.89-23.88,6.98-23.98,.12-.14,.33-.15,.47-.03,.14,.12,.15,.33,.03,.47-.09,.1-8.56,10.05-6.76,24.01,.02,.12-.03,.24-.13,.31-.1,.07-.22,.09-.33,.04-2.52-1.1-5.86-.62-9.17,1.3-5.99,3.48-10.09,10.39-10.94,18.46-.02,.17-.16,.3-.33,.3Z"/>
        <path class="cls-3" d="M1333.65,480.95c-.17,0-.32-.13-.33-.31-.28-4.16,1.42-8.25,4.93-11.82,4.91-5.01,11.86-7.69,15.26-7.82-4.47-10.81,3.26-22.9,3.34-23.02,.1-.15,.3-.2,.46-.1,.15,.1,.2,.3,.1,.46-.08,.12-7.84,12.27-3.09,22.86,.05,.1,.04,.23-.03,.32-.06,.1-.18,.15-.29,.14-3.1-.15-10.42,2.68-15.28,7.63-3.37,3.43-5.01,7.35-4.74,11.31,.01,.18-.13,.34-.31,.35,0,0-.02,0-.02,0Z"/>
        <path class="cls-3" d="M1322.43,479.24s-.02,0-.03,0c-.18-.01-.32-.17-.3-.36,1.35-17.08,13.76-21.21,21.17-23.67,.45-.15,.88-.29,1.28-.43-2.8-5.89-.2-19.11-.09-19.68,.04-.18,.21-.3,.39-.26,.18,.04,.3,.21,.26,.39-.03,.14-2.77,14.09,.2,19.58,.05,.08,.05,.19,.02,.28-.04,.09-.11,.16-.2,.19-.51,.18-1.06,.36-1.65,.56-7.26,2.41-19.41,6.45-20.72,23.1-.01,.17-.16,.3-.33,.3Z"/>
        <path class="cls-3" d="M1321.29,460.63s-.05,0-.07,0c-.18-.04-.29-.22-.25-.39,1.02-4.59,8.35-9.3,15.54-10.06-1.36-3.45,.06-9.07,.12-9.32,.05-.18,.23-.28,.4-.24,.18,.05,.28,.23,.24,.4-.02,.06-1.54,6.13,.02,9.3,.05,.1,.05,.21,0,.31-.05,.1-.15,.16-.26,.17-7.07,.57-14.41,5.14-15.4,9.58-.03,.15-.17,.26-.32,.26Z"/>
      </g>
      <g>
        <g>
          <path class="cls-3" d="M1410.1,495.76s-10.57-18.34-6.57-27.1c4.01-8.75,34.6-31.39,53.51-9.99,18.91,21.4,.5,52.77-17.08,49.12-17.58-3.65-23.66-12.43-29.87-12.03Z"/>
          <path class="cls-6" d="M1442.8,508.41c-.97,0-1.94-.1-2.9-.3-9.93-2.06-16.28-5.79-20.91-8.52-3.63-2.13-6.25-3.68-8.87-3.51-.12,0-.25-.06-.31-.17-.44-.76-10.61-18.59-6.58-27.4,2.39-5.22,15.09-16.59,29.84-18.77,9.56-1.42,17.94,1.59,24.22,8.7,11.29,12.78,8.96,28.23,3.54,37.58-4.51,7.78-11.35,12.38-18.03,12.38Zm-32.27-12.99c2.66,0,5.27,1.53,8.8,3.61,4.59,2.7,10.88,6.4,20.71,8.44,7.26,1.51,15.2-3.11,20.22-11.77,5.32-9.16,7.6-24.29-3.46-36.81-6.21-7.03-14.16-9.89-23.63-8.48-13.92,2.06-26.9,13.08-29.34,18.39-3.68,8.05,5.39,24.72,6.45,26.62,.08,0,.16,0,.24,0Z"/>
        </g>
        <path class="cls-6" d="M1403.86,504.91s-.05,0-.07,0c-.27-.04-.45-.29-.42-.55,.03-.19,.8-4.83,14.31-16.84,6.7-5.96,14.71-11.22,22.57-14.81,8.11-3.71,15.29-5.26,20.22-4.37,.27,.05,.45,.31,.4,.58s-.31,.45-.58,.4c-9.62-1.74-28.06,6.59-41.96,18.95-13.09,11.64-13.98,16.2-13.99,16.24-.04,.24-.25,.42-.49,.42Z"/>
        <path class="cls-6" d="M1440.99,497.94c-.1,0-.2-.05-.26-.13-4.47-5.93-17.07-10.5-21.66-10.52-.11,0-.21-.05-.27-.14-.06-.09-.08-.2-.04-.3,2.64-7.22-4.98-17.11-5.05-17.21-.11-.14-.09-.35,.06-.46,.14-.11,.35-.09,.46,.06,.32,.41,7.63,9.91,5.3,17.41,5.03,.3,17.29,4.87,21.73,10.77,.11,.15,.08,.35-.06,.46-.06,.04-.13,.07-.2,.07Z"/>
        <path class="cls-6" d="M1453.78,500.16c-.14,0-.27-.09-.31-.23-1.89-5.77-8.16-10.37-13.08-13.21-5.85-3.38-11.66-5.3-13.61-5.4-.09,0-.17-.04-.23-.11-.06-.07-.09-.16-.08-.25,.96-11.7-6.16-19.71-6.24-19.79-.12-.14-.11-.34,.02-.47,.14-.12,.34-.11,.47,.02,.07,.08,7.26,8.14,6.43,19.96,4.87,.56,23.41,8.25,26.95,19.04,.06,.17-.04,.36-.21,.42-.03,.01-.07,.02-.1,.02Z"/>
        <path class="cls-6" d="M1450.7,486.84c-.12,0-.24-.07-.3-.19-3.7-7.65-11.68-9.58-16.11-10.04-.09,0-.17-.05-.22-.12-.06-.07-.08-.16-.07-.24,1.06-9.14-6.64-20.25-6.72-20.36-.1-.15-.07-.36,.08-.46,.15-.1,.36-.07,.46,.08,.32,.46,7.75,11.17,6.87,20.49,4.62,.54,12.57,2.62,16.31,10.38,.08,.16,.01,.36-.15,.44-.05,.02-.1,.03-.14,.03Z"/>
        <path class="cls-6" d="M1458.45,486.22c-.16,0-.3-.11-.33-.28-1.18-6.96-11.18-13.21-16.6-13.3-.12,0-.23-.07-.28-.17-.06-.1-.05-.23,0-.33,4.05-6.51-3-17.15-3.07-17.26-.1-.15-.06-.36,.09-.46,.15-.1,.36-.06,.46,.09,.3,.44,7.03,10.62,3.36,17.5,5.84,.47,15.48,6.68,16.69,13.83,.03,.18-.09,.35-.27,.38-.02,0-.04,0-.06,0Z"/>
        <path class="cls-6" d="M1459.51,475.28c-.15,0-.29-.11-.32-.26-.66-3.14-4.98-5.03-7.83-5.36-.12-.01-.22-.09-.26-.19-.05-.11-.04-.23,.03-.32,3.2-4.6,.49-7.65,.37-7.78-.12-.13-.11-.34,.02-.47,.13-.12,.34-.12,.47,.02,.03,.03,3.02,3.35-.02,8.17,3.03,.52,7.18,2.54,7.88,5.81,.04,.18-.08,.35-.26,.39-.02,0-.05,0-.07,0Z"/>
      </g>
    </g>
  </g>
  <g>
    <g>
      <path class="cls-3" d="M684.47,482.83l-5.86,35.76c-12.69,2.78-25.68,3.13-38.97,1.06l-2.03-39.06,46.86,2.23Z"/>
      <path class="cls-6" d="M656.48,521.32c-5.59,0-11.23-.44-16.88-1.33-.16-.03-.29-.16-.3-.33l-2.03-39.06c0-.1,.03-.2,.1-.27,.07-.07,.16-.11,.27-.1l46.86,2.23c.1,0,.19,.05,.26,.13s.09,.18,.07,.28l-5.86,35.77c-.02,.14-.13,.26-.27,.29-7.27,1.59-14.7,2.39-22.21,2.39Zm-16.49-1.98c12.99,2,25.88,1.64,38.32-1.05l5.76-35.14-46.07-2.2,1.99,38.38Z"/>
    </g>
    <g>
      <ellipse class="cls-6" cx="664.98" cy="481.31" rx="21.42" ry="2.27"/>
      <path class="cls-6" d="M664.98,483.93c-5.73,0-11.13-.24-15.19-.67-6.59-.7-6.59-1.55-6.59-1.96s0-1.26,6.59-1.96c4.06-.43,9.45-.67,15.19-.67s11.13,.24,15.19,.67c6.59,.7,6.59,1.55,6.59,1.96s0,1.26-6.59,1.96c-4.06,.43-9.45,.67-15.19,.67Zm-21.06-2.62c.63,.8,8.34,1.92,21.06,1.92s20.43-1.12,21.06-1.92c-.63-.8-8.34-1.92-21.06-1.92s-20.43,1.12-21.06,1.92Zm42.14,.04h0Z"/>
    </g>
    <g>
      <g>
        <g>
          <path class="cls-4" d="M663.3,470.53s51.34,29.43,77.32-6.94c25.97-36.37,14.72-70.2-13.66-85.74-28.38-15.54-67.41-3.45-79.6,15.44-12.19,18.89,20.66,70.07,15.94,77.24Z"/>
          <path class="cls-6" d="M704.02,482.12c-3.79,0-7.75-.36-11.87-1.08-15.96-2.79-28.9-10.14-29.03-10.21-.08-.05-.14-.13-.17-.22-.02-.09,0-.19,.05-.27,1.7-2.59-2.09-12.03-6.49-22.96-7.61-18.92-17.08-42.46-9.46-54.28,6.13-9.5,18.82-17.27,33.94-20.78,16.57-3.85,32.95-1.99,46.12,5.22,14.25,7.8,23.9,20.01,27.19,34.37,3.75,16.41-.88,34.35-13.41,51.89-5.97,8.36-13.79,13.94-23.23,16.56-4.23,1.18-8.8,1.77-13.65,1.77Zm-40.25-11.73c2.03,1.11,14.02,7.43,28.52,9.96,14.57,2.54,34.73,1.66,48.04-16.97,12.4-17.37,17-35.12,13.29-51.32-3.24-14.16-12.77-26.2-26.84-33.91-13.02-7.13-29.23-8.96-45.63-5.16-14.95,3.47-27.48,11.13-33.51,20.48-7.42,11.51,2.37,35.86,9.52,53.63,4.49,11.16,8.07,20.06,6.61,23.28Z"/>
        </g>
        <path class="cls-6" d="M645.33,482.7c-.2,0-.39-.11-.48-.3-.12-.26-.01-.58,.25-.7,25.96-12.32,45.4-34.15,57.15-50.3,12.73-17.51,19.41-32.3,19.47-32.45,.12-.27,.43-.39,.7-.27,.27,.12,.38,.43,.27,.7-.07,.15-6.77,15.02-19.57,32.62-11.81,16.25-31.39,38.23-57.56,50.65-.07,.03-.15,.05-.23,.05Z"/>
        <path class="cls-6" d="M739.48,412.44c-.07,0-.13-.02-.19-.06-.12-.08-11.85-7.72-22.05-2.94-.1,.04-.21,.04-.3,0-.1-.05-.16-.13-.19-.24-2.68-11.53-14.74-22.73-14.86-22.84-.14-.13-.15-.35-.02-.5,.13-.14,.35-.15,.5-.02,.12,.11,12.05,11.18,14.97,22.78,10.46-4.58,22.22,3.09,22.34,3.17,.16,.11,.21,.33,.1,.49-.07,.1-.18,.16-.29,.16Z"/>
        <path class="cls-6" d="M737.92,431.54c-.07,0-.15-.02-.21-.07-.18-.13-17.87-13.05-26.29-11.52-.17,.03-.35-.08-.4-.25-1.84-6.48-10.43-24.87-27.84-32.12-.18-.07-.26-.28-.19-.46,.07-.18,.28-.26,.46-.19,17.4,7.24,26.11,25.46,28.15,32.28,8.81-1.23,25.79,11.16,26.52,11.69,.16,.11,.19,.34,.07,.49-.07,.09-.18,.14-.28,.14Z"/>
        <path class="cls-6" d="M744.86,449.18c-.07,0-.15-.02-.21-.07-.26-.2-26.46-19.5-40.19-18.12-.1,.01-.19-.02-.26-.08-.07-.06-.12-.15-.12-.25-.17-3.48-4.23-11.24-11.43-18.78-6.06-6.34-16.17-14.53-29.9-17.51-.19-.04-.31-.23-.27-.42,.04-.19,.23-.31,.42-.27,13.91,3.01,24.13,11.29,30.26,17.71,7.16,7.5,11.19,15.04,11.6,18.87,14.07-1.06,39.25,17.49,40.32,18.29,.16,.12,.19,.34,.07,.49-.07,.09-.18,.14-.28,.14Z"/>
        <path class="cls-6" d="M727.7,453.81c-.09,0-.18-.03-.25-.1-.15-.15-15.1-14.65-30.74-13.82-.18,.01-.34-.12-.37-.3-1.12-8.33-17.91-28.62-33.95-31.58-.19-.04-.32-.22-.28-.41,.04-.19,.22-.32,.41-.28,7.08,1.31,15.38,6.34,22.78,13.81,6.27,6.33,10.91,13.51,11.69,18.04,15.84-.63,30.8,13.89,30.95,14.04,.14,.14,.14,.36,0,.5-.07,.07-.16,.11-.25,.11Z"/>
        <path class="cls-6" d="M718.05,464.93c-.09,0-.19-.04-.26-.11-.16-.17-16.36-17.28-29.14-15.03-.1,.02-.21,0-.29-.08-.08-.07-.13-.16-.13-.27-.11-9.42-11.42-21.25-25.76-26.94-.18-.07-.27-.28-.2-.46,.07-.18,.28-.27,.46-.2,14.38,5.71,25.77,17.57,26.19,27.18,13.08-1.9,28.71,14.6,29.37,15.31,.13,.14,.13,.36-.02,.5-.07,.06-.15,.09-.24,.09Z"/>
        <path class="cls-6" d="M711.18,472.44c-.09,0-.18-.04-.25-.11-.12-.13-12.49-12.64-31.24-13.9-.17-.01-.3-.14-.33-.31-.89-7.17-10.21-22.68-18.94-23.73-.19-.02-.33-.2-.31-.39,.02-.19,.2-.33,.39-.31,9.08,1.1,18.38,16.41,19.51,24.06,18.86,1.38,31.28,13.96,31.41,14.09,.14,.14,.13,.36,0,.5-.07,.07-.16,.1-.25,.1Z"/>
      </g>
      <g>
        <g>
          <path class="cls-6" d="M682.74,480.85s25.77-23.18,39.67-13.05c13.91,10.13,30.8,29.07,15.13,48.92-15.67,19.85-39.32,23.38-54.03,3.31-14.71-20.06,3.71-26.79-.78-39.18Z"/>
          <path class="cls-6" d="M707.7,533.8c-.17,0-.33,0-.5,0-9.3-.17-17.59-4.85-23.97-13.56-9.03-12.32-5.7-19.78-2.76-26.35,1.88-4.2,3.65-8.16,1.93-12.92-.05-.13-.01-.29,.1-.38,.06-.06,6.57-5.87,14.69-10.37,10.83-6,19.62-6.93,25.43-2.7,7.18,5.23,19.5,16,21.33,29.33,.96,6.96-1.11,13.72-6.13,20.09-8.48,10.74-19.43,16.87-30.12,16.87Zm-24.55-52.85c1.68,4.92-.12,8.95-2.03,13.22-3,6.72-6.11,13.66,2.68,25.65,6.25,8.52,14.34,13.11,23.41,13.27,10.63,.18,21.58-5.86,30.05-16.59,4.9-6.21,6.92-12.79,5.99-19.55-1.8-13.08-13.96-23.7-21.05-28.86-12.93-9.42-36.77,10.88-39.05,12.87Z"/>
        </g>
        <path class="cls-3" d="M727.94,516.64c-.18,0-.36-.1-.46-.27-.05-.08-4.72-8.34-12.57-16.75-7.21-7.72-18.65-17.16-32.21-18.25-17.3-1.39-19.9-.33-20.24-.11-.1,.16-.27,.26-.47,.26-.29-.01-.52-.26-.51-.55,0-.1,.04-.29,.25-.48,1.24-1.1,8.72-1.17,21.05-.18,13.9,1.12,25.57,10.73,32.91,18.6,7.93,8.5,12.66,16.85,12.7,16.93,.14,.25,.05,.58-.2,.72-.08,.05-.17,.07-.26,.07Zm-65.41-35.62h0Zm0,0h0s0,0,0,0Zm0,0h0s0,0,0,0Zm0,0s0,0,0,0c0,0,0,0,0,0Zm0,0h0s0,0,0,0Z"/>
        <path class="cls-3" d="M684.03,501.66c-.13,0-.25-.07-.31-.19-.09-.17-.03-.38,.15-.47,3.37-1.78,9.81-7.8,10.11-12.95,.13-2.22-.88-4.08-2.99-5.53-.12-.08-.18-.24-.14-.38,.04-.14,.16-.25,.31-.26,7.66-.68,18.4-11.1,18.5-11.2,.14-.14,.36-.13,.5,0,.14,.14,.13,.36,0,.5-.43,.42-10.27,9.96-18.06,11.29,1.85,1.52,2.72,3.41,2.6,5.63-.32,5.49-6.89,11.63-10.48,13.53-.05,.03-.11,.04-.16,.04Z"/>
        <path class="cls-3" d="M683.6,510.26c-.15,0-.29-.1-.34-.25-.06-.19,.05-.38,.23-.44,7.88-2.38,13.98-7.76,16.32-14.39,1.29-3.66,1.13-7.08-.43-9.37-.07-.1-.08-.24-.03-.35,.06-.11,.17-.19,.29-.2,14.25-.85,22.56-11.17,22.64-11.27,.12-.15,.34-.18,.49-.06,.15,.12,.18,.34,.06,.49-.08,.11-8.35,10.39-22.56,11.5,1.4,2.46,1.48,5.87,.2,9.49-2.41,6.84-8.68,12.38-16.78,14.83-.03,.01-.07,.02-.1,.02Z"/>
        <path class="cls-3" d="M692.78,516.65c-.18,0-.33-.13-.35-.31-.02-.19,.11-.37,.31-.39,4-.48,7.59-2.86,10.37-6.86,4.01-5.77,5.44-13.59,4.71-16.65-.03-.12,0-.24,.09-.33,.09-.09,.21-.12,.33-.09,11.45,2.73,22.08-7.3,22.19-7.4,.14-.13,.36-.13,.5,.01,.13,.14,.13,.36-.01,.5-.11,.1-10.69,10.09-22.31,7.69,.5,3.43-.86,10.84-4.92,16.68-2.9,4.17-6.66,6.65-10.86,7.16-.01,0-.03,0-.04,0Z"/>
        <path class="cls-3" d="M696.61,527.51c-.15,0-.3-.1-.34-.26-.05-.19,.06-.38,.25-.43,16.33-4.46,18.06-17.32,19.09-25.01,.08-.62,.16-1.21,.24-1.75,.02-.1,.07-.19,.16-.25,.09-.05,.19-.07,.29-.04,6.03,1.92,19.41-3.45,19.54-3.51,.18-.07,.38,.01,.46,.19,.07,.18-.01,.38-.19,.46-.55,.22-13.22,5.3-19.62,3.64-.06,.42-.12,.87-.18,1.34-1.06,7.86-2.82,21.01-19.6,25.59-.03,0-.06,.01-.09,.01Z"/>
        <path class="cls-3" d="M715.37,525.12c-.14,0-.27-.08-.32-.21-.08-.18,0-.39,.18-.46,4.23-1.83,7.39-10,6.63-17.15-.01-.12,.03-.23,.12-.31,.09-.08,.21-.1,.32-.07,3.45,.96,9.2-1.71,9.26-1.74,.18-.08,.39,0,.47,.17,.08,.18,0,.38-.17,.47-.23,.11-5.56,2.58-9.26,1.89,.6,7.3-2.71,15.49-7.1,17.38-.05,.02-.09,.03-.14,.03Z"/>
      </g>
      <g>
        <g>
          <path class="cls-3" d="M660.67,473.19s-2.46-36.07-20.23-38.59c-17.77-2.51-44.18-.6-46.87,25.64-2.69,26.25,12.47,46.07,38.06,41.72,25.59-4.34,16.68-22.76,29.04-28.78Z"/>
          <path class="cls-6" d="M624.71,502.92c-8.16,0-15.26-2.66-20.82-7.86-8.26-7.73-12.15-20.44-10.68-34.86,.86-8.41,4.22-14.97,9.99-19.48,11.06-8.65,28.1-7.77,37.27-6.47,7.41,1.05,13.31,8.13,17.07,20.48,2.82,9.26,3.46,18.34,3.47,18.43,0,.14-.07,.28-.2,.34-4.75,2.31-6.3,6.57-7.94,11.08-2.57,7.06-5.49,15.06-21.2,17.73-2.4,.41-4.72,.61-6.97,.61Zm4.43-68.79c-8.45,0-18.29,1.51-25.49,7.15-5.61,4.39-8.89,10.79-9.73,19-1.45,14.2,2.36,26.69,10.46,34.27,6.91,6.47,16.32,8.92,27.19,7.07,15.3-2.6,18.02-10.06,20.65-17.27,1.67-4.58,3.25-8.91,8.08-11.37-.26-3.09-3.37-35.69-19.91-38.03-3.05-.43-6.97-.82-11.25-.82Z"/>
        </g>
        <path class="cls-6" d="M663.49,482.81c-.19,0-.38-.11-.47-.3-.13-.26-.02-.58,.24-.71,.04-.02,1.02-.53,1.18-1.74,.15-1.17-.44-3.24-4.12-6.49-10.64-9.4-26.09-10.62-37.17-9.99-12.06,.69-21.69,3.65-21.79,3.68-.28,.09-.57-.07-.66-.35-.09-.28,.07-.57,.35-.66,.1-.03,9.86-3.03,22.04-3.73,11.28-.64,27.03,.61,37.93,10.25,3.24,2.86,4.74,5.37,4.46,7.43-.24,1.77-1.69,2.5-1.75,2.53-.07,.04-.15,.05-.23,.05Z"/>
        <path class="cls-6" d="M644.84,487.93c-.15,0-.29-.09-.33-.24-1.31-4.03-1.77-13.39,1.98-17.73,1.52-1.76,3.55-2.54,6.05-2.32-4.89-6.64-5.33-20.96-5.35-21.59,0-.19,.15-.36,.34-.36,0,0,0,0,0,0,.19,0,.35,.15,.35,.34,0,.16,.48,15.76,5.72,21.84,.1,.11,.11,.27,.04,.4-.07,.13-.22,.2-.36,.17-2.64-.45-4.76,.22-6.27,1.98-3.52,4.08-3.07,13.27-1.84,17.05,.06,.18-.04,.38-.23,.44-.04,.01-.07,.02-.11,.02Z"/>
        <path class="cls-6" d="M638.92,494.68c-.12,0-.24-.07-.31-.18-4.28-7.71-4.95-16.41-1.79-23.28,1.67-3.64,4.22-6.14,7.06-6.96-9.85-11.16-8.57-24.87-8.56-25.01,.02-.19,.2-.33,.39-.31,.19,.02,.33,.19,.31,.39-.01,.14-1.29,13.91,8.77,24.9,.09,.09,.11,.23,.08,.35-.04,.12-.14,.21-.26,.24-2.85,.58-5.45,3.03-7.14,6.71-3.07,6.67-2.4,15.13,1.77,22.64,.09,.17,.03,.38-.14,.48-.05,.03-.11,.04-.17,.04Z"/>
        <path class="cls-6" d="M627.41,492.8c-.1,0-.2-.04-.27-.13-2.78-3.43-3.79-8.01-2.93-13.24,1.2-7.33,5.58-13.88,8.44-16.07-10.46-6.63-11.13-21.81-11.13-21.96,0-.19,.14-.36,.34-.36,.18,0,.36,.14,.36,.34,0,.15,.69,15.39,11.25,21.67,.11,.06,.17,.17,.17,.3,0,.12-.06,.24-.16,.3-2.78,1.76-7.39,8.66-8.58,15.9-.83,5.03,.14,9.41,2.79,12.68,.12,.15,.1,.37-.05,.49-.06,.05-.14,.08-.22,.08Z"/>
        <path class="cls-6" d="M616.65,498.15c-.12,0-.24-.06-.3-.17-9.24-15.61-1.01-26.74,3.91-33.39,.3-.4,.58-.78,.85-1.15-6.01-3.39-11.81-16.42-12.06-16.98-.08-.18,0-.39,.18-.46,.18-.08,.39,0,.46,.18,.06,.14,6.18,13.89,12.1,16.83,.09,.05,.16,.13,.18,.23,.02,.1,0,.21-.06,.29-.33,.46-.7,.96-1.09,1.48-4.81,6.51-12.87,17.4-3.87,32.61,.1,.17,.04,.38-.12,.48-.06,.03-.12,.05-.18,.05Z"/>
        <path class="cls-6" d="M604.33,482.73c-.14,0-.27-.08-.32-.22-1.91-4.6,1.57-13.14,7.32-18.17-3.28-2.16-5.48-7.89-5.57-8.14-.07-.18,.02-.38,.2-.45,.18-.07,.38,.02,.45,.2,.02,.06,2.4,6.24,5.68,8.03,.1,.06,.17,.16,.18,.27s-.04,.23-.12,.3c-5.77,4.8-9.35,13.23-7.5,17.68,.07,.18-.01,.39-.19,.46-.04,.02-.09,.03-.13,.03Z"/>
      </g>
    </g>
  </g>
</svg>