<?xml version="1.0" encoding="utf-8"?>
<!-- Generator: Adobe Illustrator 26.4.1, SVG Export Plug-In . SVG Version: 6.00 Build 0)  -->
<svg version="1.1" id="Layer_1" xmlns="http://www.w3.org/2000/svg" xmlns:xlink="http://www.w3.org/1999/xlink" x="0px" y="0px"
	 viewBox="0 0 1600 600" style="enable-background:new 0 0 1600 600;" xml:space="preserve">
<style type="text/css">
	
		.st0{clip-path:url(#SVGID_00000173120030711732410300000007286753390950411927_);fill:url(#SVGID_00000055681197189294044840000014809166875093043646_);}
	.st1{fill:#FFFFFF;}
	.st2{fill:#1A1A1A;}
	.st3{fill:#91B5FC;}
	.st4{fill:#4558EF;}
	.st5{fill:#808080;}
	.st6{fill:#3282F7;}
	.st7{fill:url(#SVGID_00000149351017792551122630000006714701230910968238_);}
</style>
<g>
	<defs>
		<rect id="SVGID_1_" x="2" y="-28.1" width="1634.2" height="583.5"/>
	</defs>
	<clipPath id="SVGID_00000018220827032956443840000018019180219309815189_">
		<use xlink:href="#SVGID_1_"  style="overflow:visible;"/>
	</clipPath>
	
		<radialGradient id="SVGID_00000141438191470405632710000011420977918421099926_" cx="729.6602" cy="787.6399" r="795.4271" gradientTransform="matrix(1.0038 0 0 0.2295 99.7078 368.5708)" gradientUnits="userSpaceOnUse">
		<stop  offset="0.4079" style="stop-color:#EBEBF2"/>
		<stop  offset="1" style="stop-color:#EBEBF2;stop-opacity:0"/>
	</radialGradient>
	
		<ellipse style="clip-path:url(#SVGID_00000018220827032956443840000018019180219309815189_);fill:url(#SVGID_00000141438191470405632710000011420977918421099926_);" cx="832.1" cy="549.4" rx="804.1" ry="184.5"/>
</g>
<g>
	<path class="st1" d="M1109.1,379.3l-0.1-0.4c-4.2-13.6-1.8-28.5,6-37.2c4.8-5.4,11.6-8.4,19-8.4c8.9,0,17.6,4.4,24.1,12
		c2.6-7,9.6-22,24.6-30.2c6.3-3.5,13.2-5.2,20.3-5.2c11.7,0,20.9,4.7,24.1,6.6c5.7-7.6,13.7-12,22.2-12c1.8,0,3.5,0.2,5.2,0.6
		c11.7,2.6,20.9,13.8,23.1,27.9c4.9,2.6,8.9,6.5,11.6,11.4c5.9,10.6,5.5,25.2-1,37.9l-0.2,0.3L1109.1,379.3z"/>
	<path class="st2" d="M1109.6,379.5c-0.4,0-0.7-0.2-0.8-0.6c-2.1-6.7-2.6-13.8-1.5-20.5c1.1-6.7,3.7-12.6,7.5-16.9
		c4.8-5.4,11.8-8.4,19.2-8.4c0.2,0,0.4,0,0.7,0c4.4,0.1,8.8,1.3,12.8,3.3c3.9,2,7.5,4.9,10.6,8.4c2.6-7,9.6-21.8,24.6-30
		c6.4-3.5,13.2-5.3,20.4-5.3c3.1,0,6.3,0.3,9.5,1c7,1.5,12.2,4.2,14.5,5.5c5.7-7.6,13.8-12,22.2-12c1.8,0,3.5,0.2,5.3,0.6
		c11.7,2.6,21,13.8,23.2,28c4.9,2.6,8.9,6.5,11.6,11.4c2.9,5.2,4.3,11.6,4.1,18.4c-0.2,6.7-2,13.5-5.2,19.8
		c-0.1,0.3-0.4,0.4-0.7,0.4L1109.6,379.5z M1287.2,381.1c6.1-12.3,6.4-26.1,0.8-36.2c-2.6-4.7-6.5-8.5-11.3-10.9
		c-0.2-0.1-0.4-0.3-0.4-0.6c-2-13.7-10.8-24.6-22-27.1c-1.6-0.4-3.3-0.5-4.9-0.5c-8.1,0-15.9,4.3-21.3,11.9
		c-0.2,0.2-0.4,0.3-0.7,0.3h-0.2l-0.3-0.1c-2.6-1.6-11.8-6.7-23.8-6.7c-6.9,0-13.5,1.7-19.7,5.1c-15.4,8.5-22.1,24.1-24.3,30.5
		c-0.1,0.3-0.4,0.6-0.8,0.6h-0.1l-0.2,0c-0.1,0-0.3-0.1-0.4-0.3c-6.1-7.6-14.5-12.1-23-12.3c-0.2,0-0.5,0-0.7,0
		c-7,0-13.4,2.8-17.9,7.9c-7.3,8.2-9.6,22.3-5.8,35.2L1287.2,381.1z"/>
</g>
<g>
	<path class="st1" d="M857.8,529.1l-0.1-0.4c-6.6-21.5-2.8-45.1,9.4-58.8c7.6-8.5,18.3-13.2,30-13.2c14.2,0,28.2,7.1,38.5,19.4
		c3.9-10.9,14.9-35.2,39.2-48.5c10-5.5,20.9-8.3,32.2-8.3c19,0,33.7,7.7,38.4,10.6c9-12.2,21.8-19.2,35.2-19.2
		c2.8,0,5.5,0.3,8.2,0.9c18.5,4.1,33.1,21.9,36.5,44.3c7.9,4,14.3,10.3,18.5,18c9.3,16.8,8.7,39.8-1.6,60.1l-0.2,0.3L857.8,529.1z"
		/>
	<path class="st2" d="M858.3,529.4c-0.4,0-0.8-0.3-0.9-0.7c-3.3-10.6-4.1-21.9-2.4-32.4c1.7-10.6,5.8-19.9,11.9-26.7
		c7.6-8.5,18.6-13.3,30.3-13.3c0.4,0,0.7,0,1.1,0c7,0.2,14,2,20.2,5.3c6.4,3.3,12.1,7.9,17.2,13.8c3.9-10.8,15.1-35,39.2-48.2
		c10.1-5.5,21-8.4,32.2-8.4c4.9,0,10,0.5,15.1,1.6c11.6,2.4,20.3,7.1,23.3,8.9c9-12.2,21.8-19.1,35.3-19.1c2.8,0,5.6,0.3,8.3,0.9
		c18.6,4.1,33.3,22,36.7,44.4c7.8,4.1,14.2,10.3,18.5,18.1c4.6,8.3,6.9,18.3,6.5,29.1c-0.3,10.6-3.1,21.4-8.2,31.3
		c-0.2,0.3-0.5,0.5-0.8,0.5h0L858.3,529.4z M1141.1,532.6c9.8-19.7,10.4-41.9,1.4-58.1c-4.2-7.6-10.5-13.6-18.2-17.5
		c-0.3-0.1-0.5-0.4-0.5-0.7c-3.2-21.9-17.4-39.3-35.3-43.4c-2.6-0.6-5.3-0.9-7.9-0.9c-13.1,0-25.6,6.9-34.3,19.1
		c-0.2,0.2-0.5,0.4-0.8,0.4c-0.2,0-0.3,0-0.5-0.1c-4.1-2.5-18.9-10.7-38-10.7c-11,0-21.6,2.7-31.5,8.2
		c-24.6,13.5-35.4,38.6-38.9,48.7c-0.1,0.4-0.5,0.6-0.9,0.6h-0.1l-0.2-0.1c-0.2-0.1-0.3-0.2-0.4-0.3c-9.8-12.2-23.3-19.3-37-19.7
		c-0.4,0-0.7,0-1.1,0c-11.3,0-21.5,4.5-28.8,12.7c-11.7,13.1-15.5,35.9-9.3,56.7L1141.1,532.6z"/>
</g>
<g>
	<g>
		<g>
			<path class="st2" d="M638.8,411.3c-1.8-0.2-3.6-0.4-5.4-0.6c-0.3,0-0.5-0.2-0.7-0.4c-0.2-0.2-0.3-0.5-0.2-0.8
				c0.1-0.5,0.5-0.9,1.1-0.9l0.1,0c1.8,0.2,3.5,0.4,5.3,0.6c0.3,0,0.5,0.2,0.7,0.4c0.2,0.2,0.3,0.5,0.2,0.8
				C639.9,410.9,639.4,411.3,638.8,411.3L638.8,411.3z M628.1,410c-1.8-0.2-3.6-0.5-5.3-0.7c-0.3,0-0.5-0.2-0.7-0.4
				c-0.2-0.2-0.2-0.5-0.2-0.8c0.1-0.5,0.5-0.9,1.1-0.9l0.1,0c1.7,0.3,3.5,0.5,5.3,0.7c0.3,0,0.5,0.2,0.7,0.4
				c0.2,0.2,0.2,0.5,0.2,0.8c-0.1,0.5-0.5,0.9-1.1,0.9L628.1,410z M617.5,408.5c-1.8-0.3-3.5-0.6-5.3-0.9c-0.3,0-0.5-0.2-0.7-0.4
				c-0.2-0.2-0.2-0.5-0.2-0.8c0.1-0.5,0.5-0.9,1-0.9h0.1l0.1,0c1.7,0.3,3.5,0.6,5.3,0.9c0.6,0.1,1,0.6,0.9,1.2
				c-0.1,0.5-0.5,0.9-1.1,0.9L617.5,408.5z M607,406.7l-0.1,0c-1.8-0.3-3.5-0.7-5.3-1c-0.3-0.1-0.5-0.2-0.7-0.5
				c-0.2-0.2-0.2-0.5-0.2-0.8c0.1-0.5,0.5-0.9,1-0.9h0.1l0.1,0c1.7,0.3,3.5,0.7,5.2,1c0.3,0.1,0.5,0.2,0.7,0.4
				c0.2,0.2,0.2,0.5,0.2,0.8C608,406.3,607.6,406.7,607,406.7L607,406.7z M596.5,404.6l-0.2,0c-1.8-0.4-3.5-0.8-5.3-1.1
				c-0.6-0.1-0.9-0.7-0.8-1.3c0.1-0.5,0.5-0.8,1-0.8h0.1l0.2,0c1.7,0.4,3.5,0.8,5.2,1.1c0.3,0.1,0.5,0.2,0.7,0.5
				c0.2,0.2,0.2,0.5,0.2,0.8C597.5,404.3,597.1,404.6,596.5,404.6L596.5,404.6z M586.1,402.3l-0.2,0c-1.7-0.4-3.5-0.9-5.2-1.3
				c-0.3-0.1-0.5-0.2-0.7-0.5c-0.1-0.2-0.2-0.5-0.1-0.8c0.1-0.5,0.5-0.8,1-0.8h0.1l0.2,0c1.7,0.4,3.4,0.9,5.2,1.3
				c0.6,0.1,0.9,0.7,0.8,1.3C587,401.9,586.6,402.3,586.1,402.3L586.1,402.3z M575.7,399.6l-0.2,0c-1.7-0.5-3.5-1-5.2-1.5
				c-0.6-0.2-0.9-0.8-0.7-1.3c0.1-0.5,0.6-0.8,1-0.8c0.1,0,0.2,0,0.3,0c1.7,0.5,3.4,1,5.1,1.4c0.6,0.2,0.9,0.7,0.7,1.3
				C576.7,399.3,576.2,399.6,575.7,399.6L575.7,399.6z M565.5,396.6c-0.1,0-0.2,0-0.3,0c-1.7-0.5-3.4-1.1-5.1-1.6
				c-0.3-0.1-0.5-0.3-0.6-0.5c-0.1-0.3-0.1-0.5-0.1-0.8c0.1-0.4,0.5-0.7,1-0.7c0.1,0,0.2,0,0.3,0.1c1.7,0.6,3.4,1.1,5.1,1.6
				c0.3,0.1,0.5,0.3,0.6,0.5c0.1,0.3,0.2,0.5,0.1,0.8C566.4,396.3,566,396.6,565.5,396.6z M555.3,393.3c-0.1,0-0.2,0-0.4-0.1
				c-1.7-0.6-3.4-1.2-5.1-1.8c-0.6-0.2-0.8-0.8-0.6-1.4c0.2-0.4,0.6-0.7,1-0.7c0.1,0,0.3,0,0.4,0.1c1.6,0.6,3.3,1.2,5,1.8
				c0.6,0.2,0.8,0.8,0.7,1.4C556.2,393,555.8,393.3,555.3,393.3z M545.3,389.5c-0.1,0-0.3,0-0.4-0.1c-1.7-0.7-3.3-1.3-5-2
				c-0.5-0.2-0.8-0.9-0.6-1.4c0.2-0.4,0.6-0.7,1-0.7c0.1,0,0.3,0,0.4,0.1c1.6,0.7,3.3,1.4,4.9,2c0.3,0.1,0.5,0.3,0.6,0.6
				c0.1,0.3,0.1,0.6,0,0.8C546.1,389.3,545.7,389.5,545.3,389.5z M535.4,385.4c-0.2,0-0.3,0-0.4-0.1c-1.6-0.7-3.3-1.5-4.9-2.2
				c-0.5-0.3-0.8-0.9-0.5-1.4c0.2-0.4,0.6-0.6,1-0.6c0.2,0,0.3,0,0.5,0.1c1.6,0.7,3.2,1.5,4.8,2.2c0.3,0.1,0.5,0.3,0.6,0.6
				c0.1,0.3,0.1,0.6,0,0.8C536.2,385.1,535.8,385.4,535.4,385.4z M525.8,380.8c-0.2,0-0.3,0-0.5-0.1c-1.6-0.8-3.2-1.6-4.8-2.5
				c-0.2-0.1-0.4-0.4-0.5-0.6c-0.1-0.3-0.1-0.6,0.1-0.8c0.2-0.3,0.5-0.6,0.9-0.6c0.2,0,0.3,0,0.5,0.1c1.5,0.8,3.1,1.7,4.7,2.5
				c0.3,0.1,0.4,0.3,0.5,0.6c0.1,0.3,0.1,0.6-0.1,0.8C526.5,380.6,526.2,380.8,525.8,380.8z M516.3,375.7c-0.2,0-0.4,0-0.5-0.1
				c-1.6-0.9-3.1-1.8-4.6-2.7c-0.2-0.1-0.4-0.4-0.5-0.7c-0.1-0.3,0-0.6,0.1-0.8c0.2-0.3,0.5-0.5,0.9-0.5c0.2,0,0.4,0.1,0.6,0.2
				c1.5,0.9,3,1.8,4.6,2.7c0.2,0.1,0.4,0.4,0.5,0.6c0.1,0.3,0,0.6-0.1,0.8C517.1,375.5,516.7,375.7,516.3,375.7z M507.2,370.2
				c-0.2,0-0.4-0.1-0.6-0.2c-1.5-1-3-2-4.5-3c-0.2-0.2-0.4-0.4-0.4-0.7c-0.1-0.3,0-0.6,0.2-0.8c0.2-0.3,0.5-0.5,0.9-0.5
				c0.2,0,0.4,0.1,0.6,0.2c1.4,1,2.9,2,4.4,3c0.5,0.3,0.6,1,0.3,1.5C507.9,370,507.6,370.2,507.2,370.2z M498.4,364.1
				c-0.2,0-0.4-0.1-0.6-0.2c-1.5-1.1-2.9-2.2-4.3-3.3c-0.5-0.4-0.5-1-0.2-1.5c0.2-0.3,0.5-0.4,0.8-0.4c0.2,0,0.5,0.1,0.7,0.2
				c1.4,1.1,2.8,2.2,4.2,3.2c0.2,0.2,0.4,0.4,0.4,0.7c0,0.3,0,0.6-0.2,0.8C499.1,363.9,498.7,364.1,498.4,364.1z M490,357.4
				c-0.3,0-0.5-0.1-0.7-0.3c-1.4-1.2-2.7-2.4-4.1-3.6c-0.4-0.4-0.5-1.1-0.1-1.5c0.2-0.2,0.5-0.3,0.8-0.3c0.3,0,0.5,0.1,0.7,0.3
				c1.3,1.2,2.6,2.4,4,3.5c0.2,0.2,0.3,0.4,0.4,0.7c0,0.3-0.1,0.6-0.2,0.8C490.6,357.3,490.3,357.4,490,357.4z M482.1,350.2
				c-0.3,0-0.5-0.1-0.7-0.3c-1.3-1.3-2.6-2.5-3.8-3.8c-0.2-0.2-0.3-0.5-0.3-0.8s0.1-0.5,0.3-0.7c0.2-0.2,0.5-0.3,0.7-0.3
				c0.3,0,0.6,0.1,0.8,0.3c1.2,1.3,2.5,2.5,3.7,3.8c0.4,0.4,0.4,1.1,0,1.5C482.7,350.1,482.4,350.2,482.1,350.2z M474.7,342.5
				c-0.3,0-0.6-0.1-0.8-0.4c-1.2-1.3-2.4-2.7-3.5-4.1c-0.4-0.5-0.3-1.1,0.2-1.5c0.2-0.2,0.4-0.2,0.7-0.2c0.3,0,0.6,0.1,0.8,0.4
				c1.1,1.4,2.3,2.7,3.4,4.1c0.4,0.4,0.3,1.1-0.1,1.5C475.2,342.4,475,342.5,474.7,342.5z M468,334.2c-0.3,0-0.7-0.2-0.9-0.4
				c-1.1-1.4-2.1-2.9-3.1-4.4c-0.3-0.5-0.2-1.2,0.3-1.5c0.2-0.1,0.4-0.2,0.6-0.2c0.4,0,0.7,0.2,0.9,0.5c1,1.5,2,2.9,3.1,4.3
				c0.4,0.5,0.3,1.1-0.2,1.5C468.5,334.1,468.2,334.2,468,334.2z M462,325.3c-0.4,0-0.7-0.2-0.9-0.5c-0.9-1.5-1.9-3.1-2.7-4.6
				c-0.1-0.2-0.2-0.5-0.1-0.8s0.3-0.5,0.5-0.6c0.2-0.1,0.3-0.1,0.5-0.1c0.4,0,0.7,0.2,0.9,0.5c0.9,1.5,1.8,3.1,2.7,4.6
				c0.3,0.5,0.2,1.2-0.3,1.5C462.4,325.3,462.2,325.3,462,325.3z M456.8,316c-0.4,0-0.8-0.2-1-0.6c-0.8-1.6-1.6-3.2-2.3-4.9
				c-0.2-0.5,0-1.2,0.5-1.4c0.1-0.1,0.3-0.1,0.4-0.1c0.4,0,0.8,0.2,1,0.6c0.7,1.6,1.5,3.2,2.3,4.8c0.1,0.3,0.2,0.5,0.1,0.8
				c-0.1,0.3-0.3,0.5-0.5,0.6C457.1,315.9,456.9,316,456.8,316z M452.4,306.2c-0.4,0-0.8-0.3-1-0.7c-0.7-1.7-1.3-3.4-1.9-5.1
				c-0.1-0.3-0.1-0.6,0-0.8c0.1-0.3,0.3-0.4,0.6-0.5c0.1,0,0.2-0.1,0.3-0.1c0.5,0,0.9,0.3,1,0.7c0.6,1.7,1.2,3.3,1.8,5
				c0.2,0.5-0.1,1.2-0.6,1.4C452.6,306.2,452.5,306.2,452.4,306.2z M448.9,296.1c-0.5,0-0.9-0.3-1-0.8c-0.5-1.7-1-3.5-1.4-5.2
				c-0.1-0.3,0-0.6,0.1-0.8c0.1-0.2,0.4-0.4,0.7-0.5l0.1,0l0.2,0c0.5,0,0.9,0.3,1,0.8c0.4,1.7,0.9,3.4,1.4,5.1
				c0.1,0.3,0.1,0.6-0.1,0.8c-0.1,0.3-0.4,0.4-0.6,0.5C449.1,296.1,449,296.1,448.9,296.1z M446.3,285.8c-0.5,0-0.9-0.4-1-0.9
				c-0.4-1.7-0.7-3.5-1-5.3c0-0.3,0-0.6,0.2-0.8c0.2-0.2,0.4-0.4,0.7-0.4l0.2,0c0.5,0,1,0.4,1.1,0.9c0.3,1.7,0.6,3.5,1,5.2
				c0.1,0.6-0.3,1.1-0.8,1.3l-0.1,0L446.3,285.8z M444.6,275.2c-0.5,0-1-0.4-1.1-0.9c-0.2-1.8-0.4-3.6-0.5-5.4c0-0.6,0.4-1.1,1-1.1
				c0,0,0,0,0,0c0.6,0,1.1,0.4,1.1,1c0.1,1.8,0.3,3.5,0.5,5.3c0.1,0.6-0.4,1.1-0.9,1.2L444.6,275.2z M443.7,264.5
				c-0.6,0-1-0.5-1.1-1c-0.1-1.6-0.1-3.3-0.1-5l0-0.4c0-0.6,0.5-1.1,1.1-1.1c0.3,0,0.6,0.1,0.8,0.3c0.2,0.2,0.3,0.5,0.3,0.8l0,0.4
				c0,1.6,0,3.3,0.1,4.9C444.8,264,444.4,264.5,443.7,264.5L443.7,264.5z M443.7,253.8c-0.2,0-0.5-0.1-0.7-0.3
				c-0.2-0.2-0.3-0.5-0.3-0.8c0.1-1.8,0.2-3.6,0.3-5.4c0-0.6,0.5-1,1.1-1c0.7,0,1.1,0.6,1.1,1.1c-0.1,1.8-0.2,3.6-0.3,5.3
				C444.8,253.4,444.3,253.8,443.7,253.8L443.7,253.8z M444.5,243.1c-0.3,0-0.5-0.2-0.7-0.4c-0.2-0.2-0.3-0.5-0.2-0.8
				c0.2-1.8,0.4-3.6,0.7-5.3c0.1-0.5,0.5-0.9,1.1-0.9l0.2,0c0.3,0,0.5,0.2,0.7,0.4c0.2,0.2,0.2,0.5,0.2,0.8
				c-0.3,1.8-0.5,3.5-0.7,5.3c-0.1,0.5-0.5,0.9-1.1,0.9L444.5,243.1z M446.2,232.6l-0.1,0c-0.6-0.1-1-0.7-0.8-1.2
				c0.3-1.7,0.7-3.5,1.1-5.3c0.1-0.5,0.5-0.8,1-0.8h0.1l0.2,0c0.6,0.1,0.9,0.7,0.8,1.3c-0.4,1.7-0.7,3.5-1.1,5.2
				C447.2,232.2,446.7,232.6,446.2,232.6L446.2,232.6z M448.5,222.1l-0.2,0c-0.6-0.1-0.9-0.7-0.8-1.3c0.4-1.7,0.9-3.5,1.4-5.2
				c0.1-0.5,0.6-0.8,1-0.8c0.1,0,0.2,0,0.3,0c0.3,0.1,0.5,0.3,0.6,0.5c0.1,0.2,0.2,0.5,0.1,0.8c-0.5,1.7-1,3.4-1.4,5.1
				C449.4,221.8,449,222.1,448.5,222.1L448.5,222.1z M451.5,211.8c-0.1,0-0.2,0-0.3-0.1c-0.3-0.1-0.5-0.3-0.6-0.5
				c-0.1-0.3-0.2-0.5-0.1-0.8c0.5-1.7,1.1-3.4,1.7-5.1c0.2-0.4,0.6-0.7,1-0.7c0.1,0,0.2,0,0.4,0.1c0.3,0.1,0.5,0.3,0.6,0.5
				c0.1,0.3,0.1,0.5,0,0.8c-0.6,1.7-1.2,3.4-1.7,5C452.4,211.5,452,211.8,451.5,211.8z M455.1,201.7c-0.1,0-0.3,0-0.4-0.1
				c-0.5-0.2-0.8-0.8-0.6-1.4c0.6-1.7,1.3-3.3,2-5c0.2-0.4,0.6-0.7,1-0.7c0.1,0,0.3,0,0.4,0.1c0.3,0.1,0.5,0.3,0.6,0.6
				c0.1,0.3,0.1,0.6,0,0.8c-0.7,1.6-1.4,3.3-2,4.9C455.9,201.5,455.5,201.7,455.1,201.7z M459.3,191.9c-0.2,0-0.3,0-0.4-0.1
				c-0.3-0.1-0.5-0.3-0.6-0.6c-0.1-0.3-0.1-0.6,0-0.8c0.7-1.6,1.5-3.3,2.3-4.9c0.2-0.4,0.6-0.6,1-0.6c0.2,0,0.3,0,0.5,0.1
				c0.5,0.3,0.7,0.9,0.5,1.4c-0.8,1.6-1.5,3.2-2.3,4.8C460.1,191.6,459.7,191.9,459.3,191.9z M464,182.3c-0.2,0-0.3,0-0.5-0.1
				c-0.3-0.1-0.4-0.4-0.5-0.6c-0.1-0.3-0.1-0.6,0.1-0.8c0.8-1.6,1.7-3.2,2.5-4.7c0.2-0.3,0.5-0.5,0.9-0.5c0.2,0,0.4,0,0.5,0.1
				c0.2,0.1,0.4,0.4,0.5,0.6c0.1,0.3,0,0.6-0.1,0.8c-0.9,1.5-1.7,3.1-2.5,4.7C464.7,182,464.4,182.3,464,182.3z M469.1,172.9
				c-0.2,0-0.4-0.1-0.5-0.1c-0.5-0.3-0.7-1-0.4-1.5c0.9-1.5,1.8-3.1,2.8-4.6c0.2-0.3,0.5-0.5,0.9-0.5c0.2,0,0.4,0.1,0.6,0.2
				c0.5,0.3,0.7,1,0.3,1.5c-0.9,1.5-1.9,3-2.8,4.6C469.9,172.7,469.5,172.9,469.1,172.9z M474.8,163.8c-0.2,0-0.4-0.1-0.6-0.2
				c-0.5-0.3-0.6-1-0.3-1.5c1-1.5,2-3,3-4.5c0.2-0.3,0.5-0.5,0.9-0.5c0.2,0,0.4,0.1,0.6,0.2c0.5,0.3,0.6,1,0.3,1.5
				c-1,1.5-2,2.9-3,4.4C475.5,163.6,475.2,163.8,474.8,163.8z M480.9,155c-0.2,0-0.4-0.1-0.6-0.2c-0.5-0.3-0.6-1-0.2-1.5
				c1-1.4,2.1-2.9,3.2-4.3c0.2-0.3,0.5-0.4,0.8-0.4c0.2,0,0.5,0.1,0.6,0.2c0.5,0.4,0.6,1,0.2,1.5c-1.1,1.4-2.2,2.8-3.2,4.3
				C481.6,154.8,481.2,155,480.9,155z M487.4,146.5c-0.2,0-0.5-0.1-0.7-0.2c-0.2-0.2-0.4-0.4-0.4-0.7c0-0.3,0-0.6,0.2-0.8
				c1.1-1.4,2.3-2.8,3.4-4.2c0.2-0.2,0.5-0.4,0.8-0.4c0.3,0,0.5,0.1,0.7,0.3c0.2,0.2,0.4,0.4,0.4,0.7c0,0.3-0.1,0.6-0.2,0.8
				c-1.1,1.4-2.3,2.7-3.4,4.1C488,146.3,487.7,146.5,487.4,146.5z M494.3,138.3c-0.3,0-0.5-0.1-0.7-0.3c-0.2-0.2-0.3-0.4-0.4-0.7
				c0-0.3,0.1-0.6,0.3-0.8c1.2-1.3,2.4-2.7,3.6-4c0.2-0.2,0.5-0.3,0.8-0.3c0.3,0,0.5,0.1,0.7,0.3c0.2,0.2,0.3,0.5,0.3,0.7
				c0,0.3-0.1,0.6-0.3,0.8c-1.2,1.3-2.4,2.6-3.6,4C494.9,138.1,494.6,138.3,494.3,138.3z M501.5,130.4c-0.3,0-0.5-0.1-0.7-0.3
				c-0.2-0.2-0.3-0.5-0.3-0.7c0-0.3,0.1-0.6,0.3-0.8c1.2-1.3,2.5-2.6,3.8-3.8c0.2-0.2,0.5-0.3,0.8-0.3c0.3,0,0.6,0.1,0.8,0.3
				c0.4,0.4,0.4,1.1,0,1.5c-1.3,1.3-2.5,2.5-3.7,3.8C502.1,130.3,501.8,130.4,501.5,130.4z M509.1,122.9c-0.3,0-0.6-0.1-0.8-0.3
				c-0.4-0.4-0.4-1.1,0-1.5c1.3-1.2,2.6-2.5,3.9-3.7c0.2-0.2,0.5-0.3,0.7-0.3c0.3,0,0.6,0.1,0.8,0.3c0.4,0.4,0.4,1.1-0.1,1.5
				c-1.3,1.2-2.6,2.4-3.9,3.6C509.7,122.8,509.4,122.9,509.1,122.9z M517.1,115.6c-0.3,0-0.6-0.1-0.8-0.4c-0.4-0.4-0.3-1.1,0.1-1.5
				c1.4-1.2,2.7-2.4,4.1-3.5c0.2-0.2,0.4-0.2,0.7-0.2c0.3,0,0.6,0.1,0.8,0.4c0.4,0.5,0.3,1.1-0.1,1.5c-1.4,1.1-2.7,2.3-4.1,3.5
				C517.6,115.6,517.3,115.6,517.1,115.6z M525.3,108.8c-0.3,0-0.6-0.1-0.8-0.4c-0.4-0.5-0.3-1.1,0.2-1.5c1.4-1.1,2.8-2.2,4.3-3.3
				c0.2-0.1,0.4-0.2,0.6-0.2c0.3,0,0.6,0.2,0.8,0.4c0.4,0.5,0.3,1.1-0.2,1.5c-1.4,1.1-2.8,2.2-4.2,3.3
				C525.8,108.7,525.6,108.8,525.3,108.8z M533.9,102.3c-0.3,0-0.7-0.2-0.9-0.4c-0.3-0.5-0.2-1.1,0.2-1.5c1.5-1.1,2.9-2.1,4.4-3.1
				c0.2-0.1,0.4-0.2,0.6-0.2c0.4,0,0.7,0.2,0.9,0.5c0.3,0.5,0.2,1.2-0.3,1.5c-1.5,1-2.9,2-4.4,3.1
				C534.3,102.2,534.1,102.3,533.9,102.3z M542.7,96.2c-0.4,0-0.7-0.2-0.9-0.5c-0.3-0.5-0.2-1.2,0.3-1.5c1.5-1,3-2,4.5-2.9
				c0.2-0.1,0.4-0.2,0.6-0.2c0.4,0,0.7,0.2,0.9,0.5c0.3,0.5,0.2,1.2-0.3,1.5c-1.5,0.9-3,1.9-4.5,2.9C543.2,96.2,543,96.2,542.7,96.2
				z M551.9,90.6c-0.4,0-0.7-0.2-0.9-0.5c-0.1-0.2-0.2-0.5-0.1-0.8c0.1-0.3,0.2-0.5,0.5-0.7c1.5-0.9,3.1-1.8,4.7-2.7
				c0.2-0.1,0.3-0.1,0.5-0.1c0.4,0,0.7,0.2,0.9,0.5c0.1,0.2,0.2,0.5,0.1,0.8c-0.1,0.3-0.3,0.5-0.5,0.6c-1.5,0.9-3.1,1.8-4.6,2.7
				C552.2,90.5,552,90.6,551.9,90.6z M561.2,85.3c-0.4,0-0.8-0.2-0.9-0.6c-0.3-0.5-0.1-1.2,0.4-1.4c1.6-0.8,3.2-1.7,4.8-2.5
				c0.1-0.1,0.3-0.1,0.5-0.1c0.4,0,0.8,0.2,1,0.6c0.3,0.5,0,1.2-0.5,1.4c-1.6,0.8-3.2,1.6-4.7,2.4C561.6,85.3,561.4,85.3,561.2,85.3
				z M570.8,80.5c-0.4,0-0.8-0.2-1-0.6c-0.2-0.5,0-1.2,0.5-1.4c1.6-0.8,3.3-1.5,4.9-2.2c0.1-0.1,0.3-0.1,0.4-0.1
				c0.4,0,0.8,0.2,1,0.6c0.1,0.3,0.1,0.5,0,0.8c-0.1,0.3-0.3,0.5-0.6,0.6c-1.6,0.7-3.2,1.5-4.9,2.2C571.1,80.5,571,80.5,570.8,80.5z
				 M580.6,76.2c-0.4,0-0.8-0.3-1-0.7c-0.2-0.5,0-1.2,0.6-1.4c1.7-0.7,3.3-1.4,5-2c0.1,0,0.3-0.1,0.4-0.1c0.4,0,0.8,0.3,1,0.7
				c0.2,0.5-0.1,1.2-0.6,1.4c-1.7,0.6-3.3,1.3-5,2C580.9,76.1,580.7,76.2,580.6,76.2z M590.6,72.3c-0.4,0-0.9-0.3-1-0.7
				c-0.1-0.3-0.1-0.6,0-0.8c0.1-0.3,0.3-0.5,0.6-0.5c1.7-0.6,3.4-1.2,5.1-1.8c0.1,0,0.2-0.1,0.3-0.1c0.5,0,0.9,0.3,1,0.7
				c0.1,0.3,0.1,0.6-0.1,0.8c-0.1,0.3-0.3,0.4-0.6,0.5c-1.7,0.6-3.4,1.1-5,1.7C590.9,72.3,590.7,72.3,590.6,72.3z M600.8,68.9
				c-0.5,0-0.9-0.3-1-0.8c-0.1-0.3-0.1-0.6,0.1-0.8c0.1-0.3,0.4-0.4,0.6-0.5c1.7-0.5,3.5-1,5.2-1.5l0.1,0l0.2,0c0.5,0,0.9,0.3,1,0.8
				c0.2,0.6-0.2,1.2-0.7,1.3c-1.7,0.5-3.4,1-5.1,1.5C601,68.9,600.9,68.9,600.8,68.9z M611.1,66.1c-0.5,0-0.9-0.3-1-0.8
				c-0.1-0.3,0-0.6,0.1-0.8c0.1-0.2,0.4-0.4,0.7-0.5c1.7-0.4,3.5-0.8,5.3-1.2l0.1,0l0.2,0c0.5,0,0.9,0.4,1,0.8
				c0.1,0.6-0.2,1.1-0.8,1.3c-1.7,0.4-3.5,0.8-5.2,1.2l-0.1,0L611.1,66.1z M621.6,63.8c-0.5,0-0.9-0.4-1-0.9
				c-0.1-0.6,0.3-1.1,0.8-1.2c1.8-0.3,3.6-0.7,5.3-0.9l0.1,0l0.1,0c0.5,0,1,0.4,1.1,0.9c0,0.3,0,0.6-0.2,0.8
				c-0.2,0.2-0.4,0.4-0.7,0.4c-1.7,0.3-3.5,0.6-5.3,0.9l-0.1,0L621.6,63.8z M632.2,62.1c-0.5,0-1-0.4-1.1-0.9c0-0.3,0-0.6,0.2-0.8
				c0.2-0.2,0.4-0.4,0.7-0.4c1.8-0.2,3.6-0.5,5.3-0.7c0,0,0,0,0,0c0.7,0,1.1,0.4,1.2,0.9c0.1,0.6-0.4,1.1-0.9,1.2
				c-1.8,0.2-3.5,0.4-5.3,0.7L632.2,62.1z M680.2,61.3c-1.8-0.2-3.5-0.4-5.3-0.5c-0.6,0-1-0.6-1-1.1c0-0.6,0.5-1,1.1-1
				c1.9,0.1,3.7,0.3,5.4,0.5c0.6,0.1,1,0.6,0.9,1.2c-0.1,0.5-0.5,1-1.1,1L680.2,61.3z M642.9,60.9c-0.5,0-1-0.4-1.1-1
				c0-0.3,0.1-0.6,0.2-0.8c0.2-0.2,0.4-0.3,0.7-0.4c1.8-0.1,3.6-0.3,5.4-0.4c0,0,0,0,0,0c0.6,0,1.1,0.4,1.1,1c0,0.6-0.4,1.1-1,1.1
				C646.5,60.6,644.7,60.7,642.9,60.9L642.9,60.9z M669.5,60.5c-1.8-0.1-3.5-0.2-5.3-0.2c-0.3,0-0.5-0.1-0.7-0.3
				c-0.2-0.2-0.3-0.5-0.3-0.8c0-0.6,0.5-1,1.1-1c1.8,0,3.6,0.1,5.4,0.2c0.6,0,1,0.5,1,1.1C670.6,60,670.2,60.5,669.5,60.5
				L669.5,60.5z M653.5,60.3c-0.6,0-1-0.5-1.1-1c0-0.3,0.1-0.6,0.3-0.8c0.2-0.2,0.5-0.3,0.7-0.3c1.8-0.1,3.6-0.1,5.4-0.1
				c0.6,0,1.1,0.5,1.1,1.1c0,0.3-0.1,0.6-0.3,0.8c-0.2,0.2-0.5,0.3-0.8,0.3C657.1,60.2,655.3,60.2,653.5,60.3L653.5,60.3z"/>
		</g>
		<g>
			<path class="st2" d="M646.6,412.1c-0.9-0.1-1.8-0.2-2.7-0.3c-0.6-0.1-1-0.6-1-1.2c0.1-0.5,0.5-1,1.1-1c1,0.1,1.9,0.2,2.8,0.3
				c0.3,0,0.5,0.2,0.7,0.4c0.2,0.2,0.3,0.5,0.2,0.8C647.7,411.7,647.3,412.1,646.6,412.1L646.6,412.1z"/>
		</g>
	</g>
	<g>
		<g>
			<g>
				<path class="st1" d="M585.3,172.3c-0.3-0.6-84.3,22.5-84.8,22.8c0.3-0.5,18.2-35.4,50.8-43.8c7.4-1.9,15.5-2.5,24.3-1
					c9.8,1.6,18,5.2,24.7,10.1C593.3,161.6,589.1,166,585.3,172.3z"/>
			</g>
			<g>
				<path class="st1" d="M500.5,195.1C500.5,195.1,500.5,195.1,500.5,195.1L500.5,195.1z"/>
			</g>
		</g>
		<g>
			<g>
				<path class="st2" d="M585.3,172.3c-0.3-0.6-84.3,22.5-84.8,22.8c0.3-0.5,18.2-35.4,50.8-43.8c7.4-1.9,15.5-2.5,24.3-1
					c9.8,1.6,18,5.2,24.7,10.1C593.3,161.6,589.1,166,585.3,172.3z"/>
				<path class="st2" d="M500.5,195.5c-0.1,0-0.2,0-0.3-0.1c-0.1-0.1-0.2-0.3-0.1-0.5c0.2-0.4,4.7-9.2,13.3-19
					c7.9-9,20.8-20.6,37.8-25c7.9-2.1,16.2-2.4,24.5-1c9.4,1.6,17.8,5,24.9,10.2c0.1,0.1,0.2,0.3,0.2,0.5c0,0.2-0.2,0.3-0.4,0.3
					c-6.2,1.1-10.4,4.5-14.7,11.7c-0.1,0.1-0.2,0.2-0.4,0.2c0,0-0.1,0-0.1,0c-3.4,0.2-83.6,22.5-84.5,22.8
					C500.6,195.5,500.6,195.5,500.5,195.5z M565.7,149.9c-4.8,0-9.6,0.6-14.3,1.8c-16.8,4.3-29.6,15.8-37.3,24.7
					c-7.1,8.1-11.3,15.4-12.7,17.9c5.1-1.5,26.4-7.4,41.2-11.4c34.7-9.5,41.2-11,42.5-11.1c4.2-6.9,8.4-10.4,14.2-11.7
					c-6.8-4.8-14.7-7.9-23.7-9.4C572.3,150.2,569,149.9,565.7,149.9z M584.9,172.5L584.9,172.5L584.9,172.5z M584.9,172.5
					C584.9,172.5,584.9,172.5,584.9,172.5C584.9,172.5,584.9,172.5,584.9,172.5z M584.9,172.5C584.9,172.5,584.9,172.5,584.9,172.5
					C584.9,172.5,584.9,172.5,584.9,172.5z M584.9,172.5C584.9,172.5,584.9,172.5,584.9,172.5C584.9,172.5,584.9,172.5,584.9,172.5z
					 M584.9,172.5C584.9,172.5,584.9,172.5,584.9,172.5C584.9,172.5,584.9,172.5,584.9,172.5z M584.9,172.5
					C584.9,172.5,584.9,172.5,584.9,172.5C584.9,172.5,584.9,172.5,584.9,172.5z"/>
			</g>
			<g>
				<path class="st2" d="M500.5,195.6c-0.1,0-0.2,0-0.3-0.1c-0.2-0.2-0.2-0.5,0-0.6c0.2-0.2,0.5-0.2,0.6,0c0.2,0.2,0.2,0.5,0,0.6
					l0,0C500.7,195.5,500.6,195.6,500.5,195.6z"/>
			</g>
		</g>
		<g>
			<g>
				<path class="st2" d="M500.5,195.5c-0.1,0-0.2,0-0.3-0.1c-0.1-0.1-0.2-0.3-0.1-0.5c0.2-0.4,4.7-9.2,13.3-19
					c7.9-9,20.8-20.6,37.8-25c7.9-2.1,16.2-2.4,24.5-1c9.4,1.6,17.8,5,24.9,10.2c0.1,0.1,0.2,0.3,0.2,0.5c0,0.2-0.2,0.3-0.4,0.3
					c-6.2,1.1-10.4,4.5-14.7,11.7c-0.1,0.1-0.2,0.2-0.4,0.2c0,0-0.1,0-0.1,0c-3.4,0.2-83.6,22.5-84.5,22.8
					C500.6,195.5,500.6,195.5,500.5,195.5z M565.7,149.9c-4.8,0-9.6,0.6-14.3,1.8c-16.8,4.3-29.6,15.8-37.3,24.7
					c-7.1,8.1-11.3,15.4-12.7,17.9c5.1-1.5,26.4-7.4,41.2-11.4c34.7-9.5,41.2-11,42.5-11.1c4.2-6.9,8.4-10.4,14.2-11.7
					c-6.8-4.8-14.7-7.9-23.7-9.4C572.3,150.2,569,149.9,565.7,149.9z M584.9,172.5L584.9,172.5L584.9,172.5z M584.9,172.5
					C584.9,172.5,584.9,172.5,584.9,172.5C584.9,172.5,584.9,172.5,584.9,172.5z M584.9,172.5C584.9,172.5,584.9,172.5,584.9,172.5
					C584.9,172.5,584.9,172.5,584.9,172.5z M584.9,172.5C584.9,172.5,584.9,172.5,584.9,172.5C584.9,172.5,584.9,172.5,584.9,172.5z
					 M584.9,172.5C584.9,172.5,584.9,172.5,584.9,172.5C584.9,172.5,584.9,172.5,584.9,172.5z M584.9,172.5
					C584.9,172.5,584.9,172.5,584.9,172.5C584.9,172.5,584.9,172.5,584.9,172.5z"/>
			</g>
			<g>
				<path class="st2" d="M500.5,195.6c-0.1,0-0.2,0-0.3-0.1c-0.2-0.2-0.2-0.5,0-0.6c0.2-0.2,0.5-0.2,0.6,0c0.2,0.2,0.2,0.5,0,0.6
					l0,0C500.7,195.5,500.6,195.6,500.5,195.6z"/>
			</g>
		</g>
	</g>
	<g>
		<path class="st1" d="M886.4,482.7c-31.5,0-56.9-9.3-73.4-27c-31.1-32.7-65.3-48.6-104.4-48.6c-14.3,0-27.3,2-38.7,3.7
			c-8.8,1.3-16.5,2.5-23,2.5c0,0,0,0,0,0c-9.4,0-15.2-2.5-18.9-8c-12-17.9,0.8-35,13.2-51.4c9.5-12.6,18.5-24.6,16.7-36.6
			c-1-6.9-5.6-13.3-13.9-19.4c-6.9-5.1-12.7-7.5-17.8-7.5c-0.3,0-0.5,0-0.8,0l-0.3-1.2l42.1-23.6l63-32.5l0.1,0
			c1-0.2,2.1-0.3,3.1-0.3c5.4,0,11.4,2.5,18.5,7.8c7.4,5.5,11.4,11.5,12.3,18.6c2,15.5-12.2,32.9-26,49.8
			c-16.6,20.4-33.7,41.4-22.2,58.7c2.9,4.4,7.5,6.4,14.2,6.4c9.4,0,22.5-3.9,39-8.8c14.9-4.4,33.4-9.9,54.9-14.3
			c13.2-2.7,24.6-4,34.7-4c33,0,47.2,13.8,65.3,31.3c11,10.6,23.4,22.6,42.4,33.4c9.4,6.5,16.4,9.4,22.8,9.4c0,0,0,0,0,0
			c7.2,0,13.4-3.6,22-8.7c1.9-1.1,3.9-2.3,6.1-3.5l1.7-1l-0.9,1.8c-14.4,29.7-27.2,46.5-40.3,53.1
			C945.2,475.8,913.4,482.7,886.4,482.7z"/>
		<path class="st2" d="M886.3,483.1c-1.6,0-3.3,0-4.9-0.1c-14.4-0.5-27.6-2.9-39-7.3c-11.8-4.6-21.8-11.2-29.8-19.8
			c-31-32.6-65.1-48.4-104.3-48.4c-14.3,0-27.1,1.9-38.4,3.7c-8.9,1.4-16.6,2.5-23.1,2.5c-9.5,0-15.4-2.5-19.2-8.2
			c-12.2-18.2,0.7-35.3,13.2-51.9c9.4-12.6,18.4-24.4,16.6-36.3c-1-6.8-5.5-13.1-13.7-19.1c-6.8-5-12.5-7.4-17.5-7.4
			c-0.3,0-0.5,0-0.8,0c0,0,0,0,0,0c-0.5,0-0.9-0.3-1.1-0.8c-0.1-0.5,0.1-1,0.5-1.2l42.1-23.6l62.9-32.5c0.1,0,0.2-0.1,0.3-0.1
			c1-0.2,2.1-0.3,3.2-0.3c5.5,0,11.6,2.6,18.8,7.9c7.5,5.5,11.6,11.7,12.5,18.9c2,15.7-12.3,33.2-26.1,50.1
			c-16.5,20.2-33.5,41.2-22.1,58.1c2.9,4.3,7.3,6.3,13.9,6.3c9.2,0,22.3-3.9,38.9-8.8c14.9-4.4,33.4-9.9,55-14.3
			c13.2-2.7,24.6-3.9,34.7-3.9c11.1,0,20.6,1.5,29.1,4.7c14.8,5.6,24.9,15.3,36.7,26.7c11,10.6,23.4,22.6,42.3,33.4
			c9.3,6.5,16.3,9.3,22.6,9.3c7.1,0,13.3-3.6,21.8-8.6c1.9-1.1,3.9-2.3,6.1-3.5c0.2-0.1,0.3-0.1,0.5-0.1c0.3,0,0.5,0.1,0.7,0.3
			c0.3,0.3,0.4,0.8,0.2,1.2c-14.5,29.8-27.3,46.7-40.5,53.3C945.3,476.2,913.5,483.1,886.3,483.1z M708.7,405.4
			c9,0,17.4,0.8,25.7,2.3c29,5.5,55.2,20.8,79.9,46.8c15.5,16.6,38.1,25.5,67.3,26.4c1.6,0,3.2,0.1,4.8,0.1
			c26.8,0,58.4-6.9,91.2-19.8c12.2-6.1,24.3-21.8,37.9-49.2c-1,0.6-2,1.2-3,1.8c-8.9,5.2-15.3,8.9-22.9,8.9c-6.7,0-14-3-23.7-9.7
			c-19-10.9-31.6-23-42.6-33.6c-17.8-17.2-31.9-30.8-64-30.8c-10,0-21.3,1.3-34.5,3.9c-21.4,4.3-39.9,9.8-54.8,14.2
			c-16.8,5-30,8.9-39.6,8.9c-7.4,0-12.3-2.3-15.6-7.2c-12.2-18.3,5.3-39.8,22.3-60.7c13.5-16.6,27.5-33.7,25.6-48.5
			c-0.8-6.6-4.6-12.3-11.7-17.4c-6.8-5-12.5-7.4-17.5-7.4c-0.9,0-1.8,0.1-2.6,0.2L667.9,267l-38.9,21.8c4.7,0.7,10,3.2,15.9,7.6
			c8.7,6.4,13.5,13.1,14.6,20.6c1.9,12.7-7.3,24.9-17,37.9c-12,16-24.4,32.5-13.1,49.5c3.4,5,8.8,7.3,17.5,7.3
			c6.4,0,14-1.2,22.8-2.5C681.2,407.4,694.2,405.4,708.7,405.4z"/>
	</g>
	<g>
		<path class="st3" d="M651.1,287.9l80.7-47.5c0,0,34.2,13.3,24.2,35.6c-36.6,22.6-87.1,45.1-87.1,45.1S665.1,292.7,651.1,287.9z"/>
		<path class="st2" d="M668.8,321.6c-0.1,0-0.2,0-0.2-0.1c-0.1-0.1-0.2-0.2-0.2-0.3c0-0.3-3.8-28.2-17.5-32.9
			c-0.2-0.1-0.3-0.2-0.3-0.4c0-0.2,0.1-0.3,0.2-0.4l80.7-47.5c0.1-0.1,0.3-0.1,0.4,0c0.8,0.3,19.5,7.7,24.9,20.9
			c2,5,1.9,10.1-0.5,15.3c0,0.1-0.1,0.1-0.2,0.2c-36.2,22.3-86.7,44.9-87.2,45.2C669,321.6,668.9,321.6,668.8,321.6z M652.1,287.9
			c12.5,5.2,16.5,28.5,17.1,32.7c5.5-2.5,52.3-23.8,86.4-44.8c2.2-4.9,2.3-9.8,0.4-14.5c-4.9-12.1-22.1-19.5-24.2-20.3L652.1,287.9z
			"/>
	</g>
	<g>
		<path class="st1" d="M701.6,179.7c-48,25-60.2,70.1-34.1,86.3l-42.1,23.6c-16.2,0.8-21.3,26.2-36.4,35c-4.9,2.9-10.8,4-18.4,2
			c-38.6-10-29.6-62.8,23.8-90.6c33.2-17.3,32.2-56.5,5.9-75.7c-6.7-4.9-14.9-8.5-24.7-10.1c-8.8-1.5-17-0.9-24.3,1l92.6-50.5
			l0.2-0.1c10.7-5.8,23.7-9.2,38.7-6.7C731.2,102,743.2,158.1,701.6,179.7z"/>
		<path class="st2" d="M577.9,328.8c-2.4,0-4.9-0.3-7.6-1c-14.1-3.7-22.8-13-24.3-26.3c-1.2-10.7,2.5-22.9,10.4-34.4
			c8.6-12.5,21.6-23.6,37.5-31.9c14.5-7.6,23.5-20.3,24.6-34.9c1.1-15-5.9-29.5-18.8-39c-6.9-5-15-8.4-24.2-9.9
			c-3.3-0.5-6.6-0.8-9.8-0.8c-4.8,0-9.5,0.6-14.1,1.8l-0.1,0l-0.2,0c-0.4,0-0.8-0.3-1-0.7c-0.2-0.5,0-1.1,0.5-1.3l92.8-50.6
			c9.3-5.1,19.2-7.7,29.2-7.7c3.3,0,6.8,0.3,10.1,0.9c23.7,4,41.1,20.1,44.4,41.1c1.4,9,0,18-4,26c-4.3,8.4-11.5,15.5-20.8,20.5
			l-0.5,0.3c-27.7,14.4-46.1,37.6-46.9,59c-0.4,11,4.2,20.1,12.9,25.5c0.3,0.2,0.5,0.6,0.5,0.9c0,0.4-0.2,0.7-0.5,0.9l-42.1,23.6
			c-0.1,0.1-0.3,0.1-0.5,0.1c-8.6,0.4-14.1,8.5-19.9,17.1c-4.6,6.8-9.3,13.8-16,17.7C585.9,327.8,582.1,328.8,577.9,328.8z
			 M565.7,148.4c3.3,0,6.8,0.3,10.1,0.9c9.5,1.6,18,5.1,25.2,10.3c13.5,9.9,20.9,25.2,19.7,40.9c-1.2,15.4-10.6,28.7-25.8,36.7
			c-15.6,8.1-28.4,18.9-36.7,31.2c-7.6,11.1-11.2,22.8-10,33c1.4,12.3,9.5,21,22.7,24.4c2.5,0.6,4.8,1,7,1c3.8,0,7.3-0.9,10.6-2.9
			c6.3-3.7,10.9-10.5,15.3-17.1c6-9,11.7-17.4,21.3-18l40.4-22.7c-8.4-5.9-12.8-15.2-12.4-26.4c0.8-22.1,19.7-46,48.1-60.8
			c17.8-9.3,27.1-26.3,24.2-44.5c-3.2-20.1-19.9-35.5-42.7-39.4c-3.3-0.5-6.6-0.8-9.8-0.8c-9.7,0-19.2,2.5-28.2,7.4l-86.8,47.3
			C560.5,148.6,563.1,148.4,565.7,148.4z"/>
	</g>
	<g>
		<path class="st3" d="M629.6,208.9c38.8-20.3,91.6-58.2,91.6-58.2s3.4-33.7-24.6-41.1c-33.3,16.1-84.6,46.2-84.6,46.2
			S640.6,176.9,629.6,208.9z"/>
		<path class="st2" d="M629.6,209.4c-0.1,0-0.2,0-0.3-0.1c-0.1-0.1-0.2-0.3-0.1-0.5c5.6-16.4,0.6-29.8-4.6-38.2
			c-5.6-9.1-12.7-14.4-12.8-14.4c-0.1-0.1-0.2-0.2-0.2-0.4c0-0.1,0.1-0.3,0.2-0.4c0.5-0.3,51.7-30.3,84.6-46.2c0.1,0,0.2-0.1,0.3,0
			c14.7,3.9,20.7,15,23.1,23.7c2.6,9.3,1.8,17.9,1.8,17.9c0,0.1-0.1,0.2-0.2,0.3c-0.5,0.4-53.3,38.2-91.7,58.2
			C629.7,209.4,629.6,209.4,629.6,209.4z M612.8,155.9c1.8,1.4,7.6,6.5,12.5,14.2c5.2,8.4,10.2,21.7,5,37.9
			c37.1-19.6,87.1-55.2,90.4-57.5c0.1-1.3,0.6-9.1-1.8-17.4c-3.5-12.2-11-19.9-22.3-23C665.6,125.1,618.5,152.5,612.8,155.9z"/>
	</g>
	<g>
		<path class="st2" d="M644.4,297.3L589,324.7c15-8.8,20.2-34.2,36.4-35C630.4,289.4,636.5,291.6,644.4,297.3z"/>
		<path class="st2" d="M589,325.2c-0.2,0-0.3-0.1-0.4-0.2c-0.1-0.2,0-0.5,0.2-0.6c6.4-3.8,11-10.6,15.5-17.3
			c6-8.9,11.6-17.3,21-17.8c5.5-0.3,11.8,2.2,19.3,7.7c0.1,0.1,0.2,0.2,0.2,0.4c0,0.2-0.1,0.3-0.2,0.4l-55.4,27.4
			C589.1,325.1,589.1,325.2,589,325.2z M626.2,290.1c-0.3,0-0.5,0-0.8,0c-8.9,0.5-14.5,8.7-20.3,17.4c-3.5,5.2-7.1,10.5-11.6,14.5
			l50.1-24.8C636.9,292.5,631.2,290.1,626.2,290.1z"/>
	</g>
	<g>
		<g>
			<path class="st2" d="M818.8,391c-0.4,0.5-8.2-2.7-13.7,4s7.9,51.7,15.5,51.2c7.7-0.6,7.5-21.5,7.6-33.8
				C828.3,400.2,818.8,391,818.8,391z"/>
			<path class="st2" d="M820.5,447.3c-2.3,0-4.7-2.5-7.4-7.7c-6-11.5-13.7-39.2-8.8-45.2c2.6-3.2,6-4.8,10.1-4.8
				c1.4,0,2.6,0.2,3.4,0.3c0.2,0,0.5,0.1,0.7,0.1c0.1,0,0.2,0,0.3,0c0,0,0,0,0,0c0.3,0,0.6,0.1,0.8,0.3c0.1,0.1,9.9,9.7,9.8,22.2
				l0,1.7c-0.1,13.7-0.3,32.6-8.6,33.2C820.6,447.3,820.6,447.3,820.5,447.3z M814.4,391.7c-3.5,0-6.3,1.3-8.5,4
				c-3.4,4.2,1.8,29,9,42.8c3.2,6.1,5,6.6,5.5,6.6c6.4-0.5,6.6-20.4,6.7-31l0-1.7c0.1-10.4-7.3-18.7-8.8-20.3
				c-0.3,0-0.6-0.1-0.9-0.1C816.7,391.9,815.7,391.7,814.4,391.7z"/>
		</g>
		<g>
			<path class="st1" d="M831.1,386.1l-6,17.7c0,0-10.1-3.1-10.2-12.2c5.1-12.8,5.3-13.9,5.3-13.9S830.4,381.2,831.1,386.1z"/>
			<path class="st2" d="M825,404.9c-0.1,0-0.2,0-0.3,0c-0.1,0-10.9-3.4-10.9-13.2c0-0.1,0-0.3,0.1-0.4c4.8-12.1,5.3-13.7,5.3-13.7
				c0.1-0.3,0.2-0.5,0.5-0.7c0.2-0.1,0.3-0.1,0.5-0.1c0.1,0,0.2,0,0.3,0.1c1.1,0.4,10.8,3.8,11.6,9.2c0,0.2,0,0.3,0,0.5l-6,17.7
				C825.9,404.6,825.5,404.9,825,404.9z M816,391.9c0.1,6.4,6.2,9.6,8.4,10.6l5.6-16.4c-0.7-3.3-6.8-6-9.1-6.9
				C820.3,380.7,819,384.1,816,391.9z"/>
		</g>
		<g>
			<path class="st4" d="M798.7,208.1c0,0,97.8,32.1,94.6,66.5s-61.1,126.8-61.1,126.8c-6.8-0.6-12.6-7.3-17.7-19.5
				c0,0,34.4-91,28.5-110c-5.9-19-73.8-45.3-73.8-45.3L798.7,208.1z"/>
			<path class="st2" d="M832.1,402.5c-7-0.6-13.2-7.4-18.5-20.1c-0.1-0.2-0.1-0.5,0-0.8c0.1-0.2,8.8-23.3,16.5-48.2
				c10.2-32.5,14.3-53.6,12-61.1c-5.7-18.3-72.5-44.3-73.2-44.6c-0.4-0.1-0.6-0.5-0.7-0.9c0-0.4,0.1-0.8,0.5-1l29.4-18.6
				c0.2-0.1,0.4-0.2,0.6-0.2c0.1,0,0.2,0,0.3,0.1c0.2,0.1,24.8,8.2,48.7,20.4c14,7.2,25.1,14.4,32.9,21.4
				c9.9,8.9,14.6,17.6,13.8,25.8c-3.1,34.2-60.7,126.3-61.3,127.2C832.9,402.3,832.6,402.5,832.1,402.5L832.1,402.5z M815.7,381.9
				c4.8,11.3,10.1,17.5,16,18.4c4.4-7.1,57.6-93.3,60.6-125.7c1.6-17.2-23.9-34-45.5-45.1c-21.9-11.2-44.2-18.9-47.9-20.2
				l-27.2,17.2c13.5,5.4,67,27.6,72.5,45.2c2.5,7.9-1.3,28.2-11.3,60.3C825.4,356,817,378.5,815.7,381.9z"/>
		</g>
		<g>
			<path class="st2" d="M892.4,409.3c-0.1,0.6-8.3,2.1-9.3,10.8c-1,8.7,34.6,39.2,40.8,34.6c6.2-4.6-5.4-22.2-11.9-32.5
				C905.3,411.9,892.4,409.3,892.4,409.3z"/>
			<path class="st2" d="M922.1,456.3c-2,0-4.7-1-8.3-3c-11.3-6.5-32.7-25.5-31.9-33.2c0.8-7.5,6.5-10,8.9-11.1
				c0.2-0.1,0.5-0.2,0.6-0.3c0.1-0.1,0.1-0.1,0.2-0.2c0.2-0.1,0.4-0.2,0.6-0.2h0.1l0.1,0c0.1,0,13.5,2.7,20.2,13.4l0.9,1.4
				c7.4,11.6,17.4,27.5,10.8,32.5C923.8,456.1,923.1,456.3,922.1,456.3z M892.6,410.5c-0.2,0.1-0.5,0.2-0.8,0.4
				c-2.1,0.9-7,3.1-7.7,9.4c-0.6,5.3,17.2,23.4,30.8,31.1c4,2.3,6.1,2.8,7.2,2.8l0,0c0.5,0,0.8-0.1,1.1-0.3
				c5.1-3.8-5.6-20.6-11.3-29.7l-0.9-1.4C905.4,414,894.7,411,892.6,410.5z"/>
		</g>
		<g>
			<path class="st1" d="M900,398.6l4.5,18.1c0,0-10.2,2.9-15.1-4.7c-2.7-13.5-3.1-14.5-3.1-14.5S896.8,394.8,900,398.6z"/>
			<path class="st2" d="M900.1,417.7c-3.5,0-8.2-1-11.1-5.4c0,0-0.1-0.1-0.1-0.2c-2.6-13.1-3-14.5-3-14.5c0-0.1,0-0.2,0-0.4
				c0.1-0.1,0.2-0.2,0.3-0.2c0.4-0.1,10.7-2.7,14.1,1.3c0,0.1,0.1,0.1,0.1,0.2l4.5,18.1c0.1,0.2-0.1,0.5-0.3,0.5
				C904.6,417.2,902.7,417.7,900.1,417.7z M889.9,411.8c4.2,6.3,12.2,5,14.2,4.6l-4.4-17.6c-2.8-3-10.7-1.4-12.7-1
				C887.2,398.8,887.9,402.1,889.9,411.8z"/>
		</g>
		<g>
			<path class="st4" d="M722.6,226.1c0,0-1.2,33.6,61.2,44.9c62.5,11.3,90.5,132.2,90.5,132.2s28.1,6.8,31.2-6.3
				c-10.9-45.7-31.2-155.7-105.9-177C745.3,204.5,722.6,226.1,722.6,226.1z"/>
			<path class="st2" d="M888.8,406c-7.4-0.1-14.6-1.8-14.7-1.8c-0.4-0.1-0.7-0.4-0.8-0.8c-0.1-0.3-7.2-30.6-21.8-61.7
				c-13.4-28.6-36.1-64-67.9-69.7c-32.6-5.9-47.7-18-54.7-27.1c-7.6-10-7.4-18.6-7.4-18.9c0-0.3,0.1-0.5,0.3-0.7
				c0.2-0.2,6-5.6,18.6-9.1c6.9-1.9,14.5-2.9,22.8-2.9c11.4,0,23.7,1.9,36.7,5.5c16.4,4.7,31.4,14,44.5,27.8
				c11.1,11.7,21.2,26.8,29.9,45.1c15.8,33.2,24.4,70.4,30.1,95.1l0,0.1c0.8,3.5,1.5,6.7,2.3,9.7c0,0.2,0,0.3,0,0.5
				c-1.4,5.8-7.4,8.9-17.5,8.9L888.8,406z M875.2,402.3c1.8,0.4,7.6,1.5,13.6,1.6l0.4,0c6.1,0,13.7-1.2,15.3-7
				c-0.7-2.9-1.4-6.1-2.2-9.5c-5.7-24.7-14.2-61.8-29.9-94.8c-18.6-39.1-43.2-63.2-73-71.7c-12.8-3.6-25-5.5-36.1-5.5
				c-8,0-15.5,0.9-22.1,2.8c-10.4,2.9-16,7.1-17.4,8.4c0.1,1.9,0.8,9,7,17.2c6.7,8.8,21.5,20.5,53.3,26.3
				c14.5,2.6,28.3,11.3,41.1,25.8c10.2,11.5,19.7,26.7,28.4,45.2C867,369.7,874.1,397.7,875.2,402.3z"/>
		</g>
		<g>
			<path class="st2" d="M775,100.7c0,0,2.4,13.4,0,14.8c-2.4,1.4-11.3-1-11.1-1.7s2.1-11.6,2.1-11.6L775,100.7z"/>
			<path class="st2" d="M772.6,116.4c-3.2,0-7.8-1.3-8.8-2c-0.3-0.2-0.4-0.5-0.4-0.7c0.2-0.8,2-11.5,2.1-11.6c0-0.2,0.2-0.3,0.4-0.4
				l9.1-1.4c0.2,0,0.5,0.1,0.5,0.4c0.4,2.3,2.3,13.7-0.2,15.2C774.7,116.2,773.7,116.4,772.6,116.4z M764.4,113.6
				c1,0.7,8.4,2.7,10.4,1.4c1.4-0.9,0.8-8.5-0.1-13.9l-8.3,1.3C766,104.2,764.6,112.2,764.4,113.6z"/>
		</g>
		<g>
			<path class="st1" d="M827.8,173.1c-3.5,0.6-7.3,1.9-15.2,5.1c-22.5,6,3.7-52-34.3-63.7l-2.3,82.2c25,3.5,47.2-11.7,52.4-12.7
				C831.6,183.4,833.3,173,827.8,173.1z"/>
			<path class="st2" d="M783.6,198.2c-2.6,0-5.2-0.2-7.7-0.5c-0.5-0.1-0.9-0.5-0.9-1.1l2.3-82.2c0-0.3,0.2-0.6,0.4-0.8
				c0.2-0.1,0.4-0.2,0.6-0.2c0.1,0,0.2,0,0.3,0c22.1,6.8,23.2,28.9,24,45c0.4,8.5,0.8,15.9,4.1,18.3c0.8,0.6,1.7,0.9,2.9,0.9
				c0.8,0,1.7-0.1,2.7-0.4c7.9-3.1,11.7-4.4,15.3-5.1l0.1,0l0.2,0c2.5,0,4.2,1.8,4.5,4.7c0.4,3.4-1.2,7.8-3.7,8.3
				c-1.1,0.2-3.3,1.3-5.9,2.5C814.3,191.5,800.1,198.2,783.6,198.2L783.6,198.2z M777.2,195.7c2.1,0.3,4.3,0.4,6.5,0.4
				c15.9,0,29.9-6.6,38.2-10.5c3-1.4,5.1-2.4,6.4-2.7c1-0.2,2.3-3.2,2-6c-0.1-1.3-0.7-2.8-2.3-2.8c-3.3,0.6-7.1,1.9-14.9,5l-0.1,0
				c-1.2,0.3-2.2,0.5-3.2,0.5c-1.6,0-3-0.4-4.1-1.3c-4.1-3-4.5-10.4-4.9-19.9c-0.8-16-1.8-35.8-21.2-42.6L777.2,195.7z"/>
		</g>
		<g>
			<path class="st1" d="M828.2,174.2c0,0,10.7,0.6,13,4.2c2.2,3.6,1.8,11.4,1.8,11.4s-3.5,3.2-7.9,0.6c-4.4-2.7-4.6-7.9-7.7-8.3
				C823.5,179.3,825.8,174.9,828.2,174.2z"/>
			<path class="st2" d="M838.6,192.5c-1.4,0-2.8-0.4-4.1-1.2c-2.4-1.5-3.7-3.6-4.7-5.4c-1-1.7-1.6-2.6-2.5-2.7
				c-0.2,0-0.4-0.1-0.5-0.2c-2.6-1.9-2.6-4.3-2.4-5.5c0.4-2,1.9-3.8,3.6-4.3c0.1,0,0.2,0,0.3,0c1.2,0.1,11.4,0.8,13.9,4.7
				c2.3,3.7,2,11.2,2,12.1c0,0.3-0.1,0.5-0.3,0.7C843.6,190.7,841.6,192.5,838.6,192.5z M827.8,181.1c1.9,0.4,2.8,2,3.8,3.7
				c0.9,1.6,2,3.4,4,4.6c1,0.6,2,0.9,3.1,0.9l0,0c1.5,0,2.7-0.7,3.3-1.1c0-1.5,0-7.6-1.7-10.4c-1.5-2.3-8.1-3.4-11.9-3.7
				c-0.9,0.4-1.7,1.5-1.9,2.6C826.2,179.1,826.7,180.2,827.8,181.1z"/>
		</g>
		<g>
			<path class="st1" d="M784,117c-8.5-5.6-20.5-7.2-37.7-3.5c0,0-19.3,1-23.1,25.8c-4.5,29.7-2.8,89.4-2.8,89.4s84.3,0.7,89.9-20.6
				c-8.8-13.9-16.3-20.3-14.8-47.7L784,117z"/>
			<path class="st2" d="M720.3,229.8c-0.6,0-1-0.5-1-1c-0.1-2.5-1.7-60.4,2.8-89.6c2-13.2,8.4-19.8,13.4-22.9
				c5.3-3.3,10.1-3.7,10.6-3.8c6.1-1.3,11.9-2,16.9-2c8.6,0,15.7,1.8,21.5,5.6c0.5,0.3,0.6,1,0.3,1.5c-0.2,0.3-0.5,0.5-0.9,0.5
				c-0.2,0-0.4-0.1-0.6-0.2c-5.5-3.6-12.1-5.3-20.3-5.3c-4.9,0-10.5,0.7-16.6,2l-0.2,0c-0.2,0-4.7,0.3-9.6,3.5
				c-4.6,2.9-10.6,9.1-12.4,21.4c-4.1,27.1-3,79.7-2.8,88.2c30.5,0,82.7-4.2,87.7-19.4c-1.1-1.8-2.3-3.5-3.4-5.1
				c-7.1-10.6-12.7-19-11.4-42.8c0-0.6,0.5-1,1.1-1c0.7,0,1.1,0.5,1.1,1.1c-1.3,23.1,3.9,30.8,11,41.5c1.2,1.8,2.4,3.6,3.7,5.6
				c0.2,0.3,0.2,0.6,0.1,0.8c-2.5,9.3-18.6,15.7-48,19.1c-19.4,2.2-38.6,2.3-42.2,2.3C720.6,229.8,720.3,229.8,720.3,229.8z"/>
		</g>
		<g>
			<polygon class="st2" points="813.5,222.5 848.3,199.7 846.5,199.7 816,217.4 			"/>
			<path class="st2" d="M813.5,222.9c-0.1,0-0.2,0-0.3-0.1c-0.2-0.1-0.2-0.4-0.1-0.5l2.5-5.1c0-0.1,0.1-0.1,0.2-0.2l30.5-17.7
				c0.1,0,0.1-0.1,0.2-0.1h1.8c0.2,0,0.4,0.1,0.4,0.3c0.1,0.2,0,0.4-0.2,0.5l-34.8,22.7C813.7,222.9,813.6,222.9,813.5,222.9z
				 M816.3,217.7l-1.7,3.5l32.2-21h-0.2L816.3,217.7z"/>
		</g>
		<g>
			<polygon class="st2" points="772.3,204.5 816.2,217.8 813.5,222.5 770.2,208.1 			"/>
			<path class="st2" d="M813.5,222.9c0,0-0.1,0-0.1,0l-43.2-14.3c-0.1,0-0.2-0.1-0.3-0.3c0-0.1,0-0.3,0-0.4l2.1-3.6
				c0.1-0.2,0.3-0.3,0.5-0.2l43.9,13.3c0.1,0,0.2,0.1,0.3,0.3c0.1,0.1,0,0.3,0,0.4l-2.7,4.7C813.8,222.8,813.6,222.9,813.5,222.9z
				 M770.9,207.9l42.4,14.1l2.2-3.9l-43-13L770.9,207.9z"/>
		</g>
		<g>
			<path class="st1" d="M820,184c-1.4,0.3-47.7,20.5-47.7,20.5l43.9,13.3l35.6-22.5L820,184z"/>
			<path class="st2" d="M816.2,218.8c-0.1,0-0.2,0-0.3,0L772,205.5c-0.4-0.1-0.7-0.5-0.8-1c0-0.4,0.2-0.9,0.6-1
				c13.9-6.1,46.5-20.3,47.9-20.6l0.1,0l0.2,0c0.1,0,0.2,0,0.4,0.1l31.8,11.3c0.4,0.1,0.7,0.5,0.7,0.9c0,0.4-0.1,0.8-0.5,1
				l-35.6,22.5C816.6,218.8,816.4,218.8,816.2,218.8z M816,216.6l33.3-21L820,185.1c-3.3,1.2-29.6,12.6-44.6,19.2L816,216.6z"/>
		</g>
		<g>
			<polygon class="st2" points="854.8,171.9 816,217.4 818.8,219.2 857.1,174.2 			"/>
			<path class="st2" d="M818.8,219.6c-0.1,0-0.2,0-0.2-0.1l-2.9-1.8c-0.1-0.1-0.2-0.2-0.2-0.3s0-0.3,0.1-0.4l38.9-45.5
				c0.1-0.1,0.2-0.2,0.3-0.2c0.1,0,0.2,0,0.3,0.1l2.2,2.3c0.2,0.2,0.2,0.4,0,0.6l-38.2,45C819.1,219.6,819,219.6,818.8,219.6z
				 M816.6,217.3l2.1,1.3l37.7-44.4l-1.6-1.7L816.6,217.3z"/>
		</g>
		<g>
			<polygon class="st2" points="893.1,150.1 854.8,171.9 857.1,174.2 894.5,152.3 			"/>
			<path class="st2" d="M857.1,174.6c-0.1,0-0.2,0-0.3-0.1l-2.2-2.3c-0.1-0.1-0.1-0.2-0.1-0.4c0-0.1,0.1-0.3,0.2-0.3l38.3-21.8
				c0.2-0.1,0.5-0.1,0.6,0.1l1.4,2.2c0.1,0.1,0.1,0.2,0.1,0.3c0,0.1-0.1,0.2-0.2,0.3l-37.4,21.9
				C857.2,174.6,857.1,174.6,857.1,174.6z M855.5,172l1.6,1.6l36.7-21.4l-0.9-1.5L855.5,172z"/>
		</g>
		<g>
			<polygon class="st1" points="818.8,219.2 858.6,195.5 894.5,152.3 857.1,174.2 			"/>
			<path class="st2" d="M818.8,220.3c-0.3,0-0.6-0.1-0.8-0.4c-0.3-0.4-0.3-1,0-1.4l38.2-45c0.1-0.1,0.2-0.2,0.3-0.2l37.4-21.9
				c0.2-0.1,0.3-0.1,0.5-0.1c0.3,0,0.6,0.1,0.8,0.4c0.3,0.4,0.3,1,0,1.4l-35.9,43.1c-0.1,0.1-0.2,0.2-0.3,0.2l-39.8,23.7
				C819.2,220.2,819,220.3,818.8,220.3z M823.8,215l34.1-20.3l31.9-38.3l-32,18.7L823.8,215z"/>
		</g>
		<g>
			<path class="st1" d="M740.7,114.8c0,0-53.6,16-37.9,70.9c11.8,41.2,61.6,16.4,74,9.5c5-2.7,3.3-10.2-3.3-10.1
				c-1.9,0.7-4,1.5-6.6,2.6c-14.1,5.6-50.7,0.4-43.1-32L740.7,114.8z"/>
			<path class="st2" d="M732.9,210c-5.1,0-9.7-0.8-13.7-2.5c-8.5-3.5-14.4-10.8-17.5-21.5c-3.6-12.7-3.9-24.4-0.7-34.8
				c2.5-8.3,7.3-15.8,14.1-22.3c11.5-10.9,25.1-15.1,25.3-15.1c0.1,0,0.2,0,0.3,0c0.5,0,0.9,0.3,1,0.8c0.2,0.6-0.2,1.2-0.7,1.3
				c-0.1,0-13.3,4.1-24.4,14.6c-10.2,9.7-20.7,27.1-12.8,54.9c2.9,10.1,8.3,16.8,16.2,20.1c3.7,1.5,8.1,2.3,12.9,2.3
				c17.1,0,36-9.5,43.3-13.5c1.8-1,2.7-2.9,2.2-4.8c-0.4-1.5-1.9-3.3-4.8-3.3c-1.8,0.7-3.9,1.5-6.4,2.5c-3.2,1.3-7.6,2-12.4,2
				c-9.9,0-19-3-24.9-8.1c-7.4-6.3-9.8-15.7-7.2-27.1c0.1-0.5,0.5-0.8,1-0.8h0.1l0.2,0c0.6,0.1,0.9,0.7,0.8,1.3
				c-2.5,10.6-0.3,19.2,6.5,25c5.6,4.8,14.2,7.6,23.5,7.6c4.4,0,8.7-0.7,11.7-1.9c2.6-1,4.8-1.9,6.6-2.6c0.1,0,0.2-0.1,0.4-0.1
				l0.2,0c3.4,0,6.1,1.9,6.9,4.9c0.7,2.8-0.6,5.7-3.3,7.2C769.8,200.3,750.6,210,732.9,210L732.9,210z"/>
		</g>
		<g>
			<path class="st1" d="M766.1,118.9l1-14.2c0,0,20.2,6.9,20.9-26.5c0.4-20.2-17.5-25.2-27.9-14.6s-4.4,28.7-7,36.4
				c-1.7,5.1-7.5,12.5-9.7,17C742.3,119.4,759.3,129.1,766.1,118.9z"/>
			<path class="st2" d="M757.1,124.6c-5.1,0-9.5-2.3-10.7-3c-1.5-0.8-4.8-3-3.9-4.9c0.9-1.9,2.4-4.3,4-6.8c2.3-3.5,4.6-7.2,5.6-10.1
				c0.8-2.4,0.7-6.1,0.6-10.3c-0.3-8.6-0.6-19.2,6.7-26.6c3.6-3.7,8.3-5.8,13.1-5.8c2.1,0,4.1,0.4,6,1.2
				c6.9,2.9,10.8,10.3,10.7,19.9c-0.2,12.8-3.3,21.3-9.2,25.5c-2.5,1.7-5.4,2.6-8.5,2.6c-1.3,0-2.4-0.2-3.2-0.3l-0.9,12.9
				c0,0.2-0.1,0.4-0.2,0.5C764.8,122.8,761.4,124.6,757.1,124.6z M744.4,117.4c0.2,0.3,1,1.2,3,2.3c2.3,1.3,6.1,2.7,9.6,2.7
				c3.5,0,6.2-1.3,8-3.9l0.9-13.9c0-0.3,0.2-0.6,0.5-0.8c0.2-0.1,0.4-0.2,0.6-0.2c0.1,0,0.2,0,0.3,0.1c0,0,1.6,0.5,3.8,0.5
				c2.8,0,5.2-0.8,7.3-2.2c5.3-3.7,8.1-11.7,8.3-23.8c0.2-8.8-3.2-15.3-9.3-17.9c-1.6-0.7-3.4-1-5.2-1c-4.1,0-8.4,1.9-11.5,5.1
				c-6.6,6.7-6.3,16.9-6.1,25c0.1,4.4,0.2,8.2-0.7,11c-1,3.1-3.5,6.9-5.8,10.6C746.7,113.4,745.3,115.6,744.4,117.4z"/>
		</g>
	</g>
	<g>
		<path class="st2" d="M732.2,118.3c0,0,10.1-3,15.8-4.1c13.1-3.1,11.3-16.9,10.5-26.7s3-11.9,4.7-10.8s7.5-0.8,9.2-4.9
			c10.6,0.2,9.7,10.1,18.2,11.8c0,0,9.4-13.5,2.7-22.8S776.7,55,776.7,55s-12.1-10.6-25,0.6C738.8,66.8,731.4,110.8,732.2,118.3z"/>
		<path class="st2" d="M732.2,118.8c-0.1,0-0.2,0-0.2-0.1c-0.1-0.1-0.2-0.2-0.2-0.3c-0.4-4,1.3-17.1,4.6-30.2
			c2.4-9.5,7.5-26.5,15.1-33c12.2-10.6,23.8-2.1,25.4-0.8c1.6-0.4,10.5-2.5,16.8,6.2c6.8,9.5-2.3,22.8-2.7,23.3
			c-0.1,0.1-0.3,0.2-0.5,0.2c-4-0.8-6.1-3.4-8-5.9c-2.3-2.9-4.5-5.7-9.8-5.9c-1.2,2.5-3.7,4.1-5.8,4.7c-1.6,0.5-3.1,0.5-3.8,0.1
			c-0.4-0.3-1-0.2-1.6,0.1c-0.7,0.4-3.1,2.5-2.4,10.3l0.1,1.2c0.9,9.6,2,22.8-10.9,25.9c-5.7,1-15.7,4.1-15.8,4.1
			C732.3,118.8,732.3,118.8,732.2,118.8z M764.4,50.8c-3.7,0-8,1.3-12.4,5.1c-12.4,10.7-19.9,52.9-19.4,61.8c2.2-0.6,10.4-3,15.3-4
			c12.2-2.9,11.1-15.1,10.2-25l-0.1-1.2c-0.7-8.1,1.7-10.5,2.8-11.1c0.9-0.5,1.8-0.6,2.5-0.1c0.5,0.3,1.8,0.3,3.1-0.1
			c2-0.6,4.4-2.2,5.4-4.5c0.1-0.2,0.2-0.3,0.4-0.3c6,0.1,8.4,3.2,10.8,6.3c1.9,2.4,3.7,4.7,7.2,5.5c1.2-1.9,8.5-13.8,2.5-22.1
			c-6.5-8.9-15.6-5.9-16-5.8c-0.2,0.1-0.3,0-0.4-0.1C776.1,55,771.2,50.8,764.4,50.8z"/>
	</g>
	<g>
		<path class="st1" d="M774,186.5c0,0,12.2-4.4,18.6-1.5s8.2,18.4,8.2,18.4s-0.4,1-2.1,0s-4.5-10.2-4.5-10.2s-1,4.9-5,6
			c-4.1,1.1-8.5-2.2-9.6-3.5c-1.1-1.3-5.6-1.8-5.6-1.8S771.8,189.9,774,186.5z"/>
		<path class="st2" d="M800,205c-0.6,0-1.2-0.2-1.9-0.6c-1.1-0.7-2.5-3.3-4-7.9c-0.8,1.5-2.3,3.2-4.6,3.8c-0.6,0.2-1.3,0.3-2,0.3
			c-3.9,0-7.6-2.8-8.7-4.1c-0.4-0.5-2.7-1.2-4.9-1.4c-0.4,0-0.7-0.2-0.8-0.6c-0.1-0.2-2.4-4.7,0-8.5c0.1-0.2,0.3-0.3,0.5-0.4
			c0.3-0.1,7.2-2.5,13.4-2.5c2.4,0,4.4,0.4,6,1.1c6.8,3.1,8.7,18.6,8.8,19.3c0,0.2,0,0.3-0.1,0.5c0,0.1-0.3,0.8-1.1,1
			C800.4,204.9,800.2,205,800,205z M794.2,192.2c0.5,0,0.9,0.3,1,0.8c1.4,4.7,3.2,9.2,4,9.6c0.2,0.1,0.3,0.2,0.4,0.2
			c-0.8-5.6-3.2-14.9-7.5-16.8c-1.3-0.6-3-0.9-5-0.9c-5.1,0-10.8,1.8-12.4,2.3c-1.1,2.1-0.4,4.5,0,5.6c1.6,0.2,4.6,0.8,5.7,2.1
			c0.7,0.9,3.9,3.3,7,3.3l0,0c0.5,0,1-0.1,1.4-0.2c3.3-0.9,4.2-5.1,4.2-5.2C793.2,192.6,793.6,192.2,794.2,192.2L794.2,192.2z"/>
	</g>
	<g>
		<path class="st2" d="M663.4,345.9c-0.3,0-0.5-0.1-0.6-0.4c-0.2-0.3,0-0.7,0.3-0.9l67.6-30.9c0.3-0.2,0.7,0,0.9,0.3
			c0.2,0.3,0,0.7-0.3,0.9l-67.6,30.9C663.6,345.8,663.5,345.9,663.4,345.9z"/>
	</g>
	<g>
		<path class="st2" d="M649.2,370.2c-0.3,0-0.5-0.1-0.6-0.4c-0.2-0.3,0-0.7,0.3-0.9l67-31.4c0.3-0.2,0.7,0,0.9,0.3
			c0.2,0.3,0,0.7-0.3,0.9l-67,31.4C649.4,370.2,649.3,370.2,649.2,370.2z"/>
	</g>
	<g>
		<path class="st2" d="M636.4,393.9c-0.3,0-0.5-0.1-0.6-0.4c-0.2-0.3,0-0.7,0.3-0.9l70.1-32.8c0.3-0.2,0.7,0,0.9,0.3
			c0.2,0.3,0,0.7-0.3,0.9l-70.1,32.8C636.6,393.9,636.5,393.9,636.4,393.9z"/>
	</g>
	<g>
		<path class="st2" d="M610.5,232.2c-0.2,0-0.5-0.1-0.6-0.4c-0.2-0.3,0-0.7,0.3-0.9l57.7-30.6c0.3-0.2,0.7,0,0.9,0.3
			c0.2,0.3,0,0.7-0.3,0.9l-57.7,30.6C610.7,232.1,610.6,232.2,610.5,232.2z"/>
	</g>
	<g>
		<path class="st2" d="M575.1,263c-0.2,0-0.5-0.1-0.6-0.4c-0.2-0.3,0-0.7,0.3-0.9l75.9-36.5c0.3-0.2,0.7,0,0.9,0.3
			c0.2,0.3,0,0.7-0.3,0.9l-75.9,36.5C575.3,262.9,575.2,263,575.1,263z"/>
	</g>
	<g>
		<path class="st2" d="M562.9,306c-0.2,0-0.5-0.1-0.6-0.4c-0.2-0.3,0-0.7,0.3-0.9l88.4-45.5c0.3-0.2,0.7,0,0.9,0.3
			c0.2,0.3,0,0.7-0.3,0.9L563.2,306C563.1,306,563,306,562.9,306z"/>
	</g>
	<g>
		<path class="st2" d="M607,321.8c-0.2,0-0.4-0.1-0.6-0.3c-0.2-0.3-0.1-0.7,0.2-0.9l26-17.4c0.3-0.2,0.7-0.1,0.9,0.2
			c0.2,0.3,0.1,0.7-0.2,0.9l-26,17.4C607.3,321.8,607.2,321.8,607,321.8z"/>
	</g>
	<g>
		<path class="st2" d="M561.4,288.4c-0.2,0-0.5-0.1-0.6-0.4c-0.2-0.3,0-0.7,0.3-0.9l83-40.4c0.3-0.2,0.7,0,0.9,0.3
			c0.2,0.3,0,0.7-0.3,0.9l-83,40.4C561.6,288.4,561.5,288.4,561.4,288.4z"/>
	</g>
	<g>
		<path class="st2" d="M597.4,141.7c-0.2,0-0.5-0.1-0.6-0.3c-0.2-0.3-0.1-0.7,0.3-0.9l70.8-39.4c0.3-0.2,0.7-0.1,0.9,0.3
			c0.2,0.3,0.1,0.7-0.3,0.9l-70.8,39.4C597.6,141.6,597.5,141.7,597.4,141.7z"/>
	</g>
	<g>
		<g>
			<path class="st2" d="M396.7,224.6c-0.2,0-0.3,0-0.5-0.1l-34.5-15.6c-0.4-0.2-0.7-0.6-0.7-1c-0.1-0.4,0.1-0.9,0.5-1.2l29.9-24.3
				c0.2-0.2,0.5-0.3,0.8-0.3c0.2,0,0.3,0,0.5,0.1c0.4,0.2,0.7,0.6,0.7,1l4.7,39.9c0.1,0.4-0.1,0.9-0.5,1.2
				C397.2,224.5,396.9,224.6,396.7,224.6z M395.2,221.3l-4.2-35.4l-26.5,21.6L395.2,221.3z"/>
		</g>
		<g>
			<polygon class="st2" points="347.8,342.1 334.4,339.8 320.9,337.5 329.5,326.1 338.1,314.8 343,328.5 			"/>
			<path class="st2" d="M347.8,342.6C347.8,342.6,347.8,342.6,347.8,342.6l-26.9-4.7c-0.1,0-0.3-0.1-0.3-0.3c-0.1-0.1,0-0.3,0.1-0.4
				l17.2-22.6c0.1-0.1,0.2-0.2,0.4-0.2c0.1,0,0.3,0.1,0.3,0.3l9.7,27.3c0.1,0.1,0,0.3-0.1,0.4C348,342.5,347.9,342.6,347.8,342.6z
				 M321.7,337.1l25.5,4.4l-9.1-25.9L321.7,337.1z"/>
		</g>
	</g>
	<g>
		<path class="st1" d="M753.8,126.8l1,0.2c0,0,0.4,0.1,1.1,0.1c1.3,0,3.3-0.3,5-1.8l0.5-0.4l0.4,0.6c3.5,5,3.1,22.6,2.7,30l-1.2,0.2
			L753.8,126.8z"/>
		<path class="st2" d="M763.9,156.4c-0.6,0-1.1-0.5-1-1.1c0.2-5.2,0.8-22.1-1.9-28c-1.8,1.2-3.7,1.4-5,1.4c-0.8,0-1.3-0.1-1.4-0.1
			c-0.6-0.1-1-0.7-0.8-1.3c0.1-0.5,0.5-0.9,1-0.9h0.1l0.1,0c0,0,0.4,0.1,1,0.1c1.3,0,3.1-0.3,4.7-1.7c0.2-0.2,0.4-0.3,0.7-0.3l0.1,0
			c0.3,0,0.6,0.2,0.7,0.4c3.5,4.9,3.2,21,2.8,30.2C764.9,156,764.5,156.4,763.9,156.4L763.9,156.4z"/>
	</g>
	<g>
		<path class="st1" d="M791.4,134.8l1.2-0.4c0.2,0.4,4.7,10.9,3.7,20l-1.2,0L791.4,134.8z"/>
		<path class="st2" d="M795.5,155.5c-0.6-0.1-1-0.6-0.9-1.2c1-8.7-3.5-19.1-3.5-19.2c-0.2-0.5,0-1.2,0.5-1.4
			c0.1-0.1,0.3-0.1,0.4-0.1c0.4,0,0.8,0.2,1,0.6c0.2,0.4,4.8,11,3.7,20.3c-0.1,0.5-0.5,0.9-1.1,0.9L795.5,155.5z"/>
	</g>
	<g>
		<path class="st2" d="M671.4,403c-0.3,0-0.5-0.1-0.6-0.4c-0.2-0.3,0-0.7,0.3-0.9l38.9-18.2c0.3-0.2,0.7,0,0.9,0.3
			c0.2,0.3,0,0.7-0.3,0.9L671.7,403C671.6,403,671.5,403,671.4,403z"/>
	</g>
	<g>
		<path class="st2" d="M762.2,52.8c0,0-3.2-16.4-17-9.5c-13.8,6.8-5.4,38.9-5.4,38.9L762.2,52.8z"/>
		<path class="st2" d="M739.7,82.7C739.7,82.7,739.7,82.7,739.7,82.7c-0.3,0-0.4-0.2-0.4-0.3c-0.3-1.3-8.3-32.5,5.6-39.5
			c4-2,7.5-2.2,10.5-0.8c5.5,2.7,7.1,10.3,7.1,10.6c0,0.1,0,0.3-0.1,0.4l-22.4,29.4C740,82.6,739.9,82.7,739.7,82.7z M751.4,42.1
			c-1.8,0-3.9,0.5-6,1.6c-12,6-6.6,32.3-5.4,37.5l21.7-28.5c-0.3-1.2-2-7.5-6.6-9.8C753.9,42.4,752.7,42.1,751.4,42.1z"/>
	</g>
	<g>
		<polygon class="st4" points="857.9,277.8 851.8,288.1 862.6,284.1 859,291.7 864.3,291.7 		"/>
		<path class="st2" d="M864.3,292.1H859c-0.2,0-0.3-0.1-0.4-0.2c-0.1-0.1-0.1-0.3,0-0.4l3.1-6.6l-9.7,3.7c-0.2,0.1-0.4,0-0.5-0.1
			c-0.1-0.1-0.1-0.4,0-0.5l6.1-10.4c0.1-0.2,0.4-0.3,0.6-0.2c0.2,0.1,0.3,0.4,0.2,0.6l-5.5,9.3l9.6-3.6c0.2-0.1,0.4,0,0.5,0.1
			c0.1,0.1,0.2,0.3,0.1,0.5l-3.3,7h4.6c0.2,0,0.4,0.2,0.4,0.4C864.7,291.9,864.5,292.1,864.3,292.1z"/>
	</g>
	<g>
		<polygon class="st4" points="888.5,267.6 884,274.5 890.8,274.5 885,279.6 888.5,281.5 		"/>
		<path class="st2" d="M888.5,282c-0.1,0-0.1,0-0.2-0.1l-3.5-1.9c-0.1-0.1-0.2-0.2-0.2-0.3c0-0.1,0-0.3,0.1-0.4l4.8-4.3H884
			c-0.2,0-0.3-0.1-0.4-0.2c-0.1-0.1-0.1-0.3,0-0.5l4.6-6.9c0.1-0.2,0.4-0.3,0.6-0.1c0.2,0.1,0.3,0.4,0.1,0.6l-4.1,6.2h6
			c0.2,0,0.4,0.1,0.4,0.3c0.1,0.2,0,0.4-0.1,0.5l-5.2,4.7l3,1.6c0.2,0.1,0.3,0.4,0.2,0.6C888.9,281.9,888.7,282,888.5,282z"/>
	</g>
</g>
<g>
	<path class="st5" d="M1046.3,179.5c0.2,0.1,0.2,0.3,0.1,0.5c-0.1,0.1-0.3,0.1-0.5,0.2c-0.8,0.1-1.6,0.2-2.3,0.3
		c-0.2,0-0.5,0-0.6-0.2c-0.1-0.2,0-0.4,0.3-0.5c0.8-0.1,1.6-0.2,2.5-0.3C1045.9,179.4,1046.1,179.4,1046.3,179.5L1046.3,179.5z"/>
	<path class="st5" d="M1032.5,159.7c0.1,0.1,0.1,0.3,0,0.4c-0.1,0.1-0.3,0.1-0.5,0.1c-0.7,0-1.5,0.1-2.1,0.3c-0.1,0-0.2,0.1-0.3,0.1
		c-0.3,0-0.5-0.3-0.3-0.5C1029.5,159.7,1032.2,159.3,1032.5,159.7L1032.5,159.7z"/>
	<path class="st5" d="M1041.3,170.7c0.3,0.3-0.3,2.5-0.4,2.9c-0.1,0.4-0.7,0.3-0.7-0.1c0-0.1,0-0.2,0.1-0.3c0.2-0.7,0.3-1.4,0.4-2
		c0-0.2,0-0.4,0.2-0.5C1041,170.6,1041.2,170.6,1041.3,170.7L1041.3,170.7z"/>
	<path class="st5" d="M1036.8,178.4c0-0.2,0.1-0.3,0.3-0.4c0.5-0.5,0.9-1,1.3-1.5c0.1-0.1,0.2-0.2,0.3-0.3c0.2-0.1,0.5,0.1,0.4,0.4
		c0,0.1-0.1,0.2-0.1,0.3c-0.4,0.6-0.9,1.2-1.5,1.7C1037.3,178.8,1036.9,178.8,1036.8,178.4L1036.8,178.4z"/>
	<path class="st5" d="M1035.4,160.9c-0.1-0.3,0.2-0.5,0.5-0.4c0.8,0.4,1.5,0.9,2.1,1.5c0.3,0.2,0.2,0.6-0.2,0.6
		c-0.2,0-0.3-0.1-0.4-0.2c-0.5-0.4-1-0.8-1.6-1.1C1035.6,161.1,1035.4,161.1,1035.4,160.9L1035.4,160.9z"/>
	<path class="st5" d="M1041,167.6c0,0.2-0.4,0.4-0.6,0.2c-0.1-0.1-0.2-0.3-0.2-0.4c-0.2-0.7-0.4-1.3-0.6-1.9c-0.1-0.2-0.2-0.4,0-0.6
		c0.1-0.1,0.3-0.1,0.4-0.1c0.1,0.1,0.2,0.2,0.3,0.4c0.3,0.6,0.5,1.3,0.7,1.9C1041,167.3,1041.1,167.5,1041,167.6L1041,167.6z"/>
	<path class="st5" d="M1065.8,169.9c-0.2,0-0.4-0.2-0.4-0.4c0-0.2,0.2-0.3,0.3-0.5c0.2-0.2,0.3-0.5,0.5-0.6c0.2-0.1,0.5,0.1,0.5,0.4
		c0,0.1-0.1,0.2-0.2,0.4c-0.1,0.1-0.2,0.3-0.3,0.4C1066.1,169.8,1066,169.9,1065.8,169.9L1065.8,169.9z"/>
	<path class="st5" d="M1061,173.9c-0.1,0-0.3-0.1-0.2-0.3c0-0.2,0.2-0.3,0.3-0.4c0.6-0.4,1.2-0.8,1.7-1.3c0.3-0.3,0.8,0.1,0.5,0.4
		c-0.6,0.5-1.2,0.9-1.8,1.4C1061.4,173.8,1061.2,173.9,1061,173.9L1061,173.9z"/>
	<path class="st5" d="M1025.1,164.6c-0.3-0.4,0.9-2.6,1.3-2.7c0.3-0.1,0.5,0.2,0.4,0.4c0,0.1-0.1,0.2-0.2,0.3
		c-0.4,0.5-0.7,1.1-0.9,1.8c-0.1,0.2-0.1,0.4-0.3,0.4C1025.4,164.9,1025.2,164.8,1025.1,164.6L1025.1,164.6z"/>
	<path class="st5" d="M1028.3,175.9c-0.4,0-1.4-1.7-1.6-2.1c-0.3-0.6,0.4-0.9,0.6-0.3c0.3,0.6,0.7,1.1,1.1,1.6
		c0.1,0.1,0.2,0.3,0.2,0.4C1028.7,175.8,1028.5,175.9,1028.3,175.9L1028.3,175.9z"/>
	<path class="st5" d="M1025.3,167.6c0.1,0.1,0.1,0.3,0.2,0.4c0.1,0.6,0.2,1.3,0.4,2c0,0.2,0.1,0.3,0,0.5c-0.2,0.4-0.6,0.2-0.7-0.1
		c-0.2-0.8-0.4-1.6-0.4-2.4C1024.7,167.7,1025,167.4,1025.3,167.6L1025.3,167.6z"/>
	<path class="st5" d="M1033.6,179.4c-0.3,0.2-2.4-0.9-2.8-1.2c-0.3-0.2-0.1-0.7,0.3-0.6c0.1,0,0.2,0.1,0.3,0.1c0.6,0.4,1.3,0.7,2,1
		C1033.8,178.9,1034,179.2,1033.6,179.4L1033.6,179.4z"/>
	<path class="st5" d="M1032,182.3c-0.2-0.1-0.3-0.2-0.2-0.4c0-0.2,0.2-0.2,0.4-0.3c0.6-0.3,1.2-0.7,1.8-1.1c0.2-0.1,0.4-0.2,0.6-0.1
		c0.2,0.1,0.1,0.4,0,0.5c-0.6,0.4-1.3,0.8-2,1.2C1032.4,182.3,1032.2,182.4,1032,182.3L1032,182.3z"/>
	<path class="st5" d="M1029.1,183.7c-0.1,0.2-0.3,0.2-0.4,0.3c-0.8,0.3-1.6,0.6-2.4,0.8c-0.5,0.1-0.7-0.5-0.1-0.7
		c0.7-0.2,1.5-0.5,2.2-0.7c0.2-0.1,0.4-0.1,0.5-0.1C1029.1,183.4,1029.2,183.5,1029.1,183.7L1029.1,183.7z"/>
	<path class="st5" d="M1010.4,186.9c-0.1,0.1-0.3,0.1-0.5,0.1c-0.8,0-1.5,0-2.3-0.1c-0.2,0-0.4,0-0.5-0.1c-0.2-0.2-0.1-0.5,0.1-0.6
		c0.1,0,0.2,0,0.3,0c0.8,0,1.5,0.1,2.3,0.1c0.2,0,0.4,0,0.5,0.1C1010.5,186.6,1010.5,186.8,1010.4,186.9L1010.4,186.9z"/>
	<path class="st5" d="M1003.9,186.6c-0.1,0.1-0.4,0.1-0.5,0.1c-0.8-0.1-1.5-0.2-2.3-0.3c-0.2,0-0.4,0-0.5-0.1
		c-0.3-0.3,0-0.6,0.4-0.5c0.8,0.1,1.6,0.2,2.4,0.3c0.2,0,0.4,0,0.5,0.2C1004.1,186.3,1004.1,186.4,1003.9,186.6L1003.9,186.6z"/>
	<path class="st5" d="M997.9,185.5c-0.1,0.1-0.4,0.1-0.5,0c-0.8-0.1-1.5-0.3-2.3-0.4c-0.2,0-0.3-0.1-0.5-0.2
		c-0.3-0.3,0.1-0.6,0.4-0.5c0.8,0.2,1.6,0.3,2.4,0.5c0.2,0,0.4,0.1,0.5,0.2C998.1,185.2,998,185.4,997.9,185.5L997.9,185.5z"/>
	<path class="st5" d="M1023.1,185.6c-0.1,0.1-0.3,0.2-0.5,0.2c-0.8,0.2-1.7,0.3-2.5,0.4c-0.6,0-0.6-0.6,0-0.7
		c0.8-0.1,1.6-0.3,2.4-0.4c0.2,0,0.4-0.1,0.6,0C1023.1,185.3,1023.1,185.4,1023.1,185.6L1023.1,185.6z"/>
	<path class="st5" d="M1016.8,186.6c-0.1,0.1-0.3,0.1-0.5,0.2c-0.8,0.1-1.7,0.1-2.6,0.1c-0.5-0.1-0.5-0.7,0.1-0.7
		c0.8,0,1.6-0.1,2.4-0.2c0.2,0,0.4,0,0.5,0.1C1016.8,186.3,1016.9,186.5,1016.8,186.6L1016.8,186.6z"/>
	<path class="st5" d="M1055.2,176.5c0.1-0.2,0.2-0.2,0.4-0.3c0.6-0.3,1.3-0.6,1.9-0.9c0.1-0.1,0.3-0.2,0.4-0.1
		c0.3,0,0.4,0.4,0.2,0.5c-0.7,0.4-1.5,0.7-2.2,1.1c-0.2,0.1-0.4,0.2-0.5,0.1C1055.2,176.8,1055.2,176.7,1055.2,176.5L1055.2,176.5z"
		/>
	<path class="st5" d="M1049.3,178.7c0.1-0.1,0.3-0.2,0.4-0.2c0.7-0.2,1.4-0.4,2.1-0.6c0.2,0,0.3-0.1,0.5-0.1
		c0.3,0.1,0.4,0.4,0.1,0.6c-0.8,0.3-1.7,0.5-2.5,0.8c-0.2,0-0.4,0.1-0.5,0C1049.2,179,1049.2,178.8,1049.3,178.7L1049.3,178.7z"/>
	<path class="st5" d="M1036.7,179.8c0.1-0.1,0.4-0.1,0.5,0c0.7,0.1,1.5,0.2,2.2,0.2c0.2,0,0.4,0,0.5,0.1c0.3,0.3,0,0.6-0.4,0.6
		c-0.9,0-1.7-0.1-2.5-0.2c-0.2,0-0.4-0.1-0.5-0.2C1036.5,180.1,1036.6,179.9,1036.7,179.8L1036.7,179.8z"/>
</g>
<g>
	<path class="st6" d="M1091.7,149.8c-3-4.8,0.1-8.3,2.1-9.5l35.6-9.6l-20.1,33.7c-0.1,0.2-0.2,0.3-0.3,0.4c-2.1,3-8.8,2.8-11.7-2.4
		l7-6.9C1099.8,153.2,1094.5,154.3,1091.7,149.8z"/>
	
		<linearGradient id="SVGID_00000065076899064074709450000005839779280918136960_" gradientUnits="userSpaceOnUse" x1="1104.4148" y1="486.8427" x2="1113.5972" y2="458.3539" gradientTransform="matrix(0.8503 -0.5262 -0.5262 -0.8503 416.8595 1130.58)">
		<stop  offset="0.5255" style="stop-color:#1255F5;stop-opacity:0"/>
		<stop  offset="0.8366" style="stop-color:#C9D8FD"/>
	</linearGradient>
	<path style="fill:url(#SVGID_00000065076899064074709450000005839779280918136960_);" d="M1091.7,149.8c-3-4.8,0.1-8.3,2.1-9.5
		l35.6-9.6l-20.1,33.7c-0.1,0.2-0.2,0.3-0.3,0.4c-2.1,3-8.8,2.8-11.7-2.4l7-6.9C1099.8,153.2,1094.5,154.3,1091.7,149.8z"/>
</g>
</svg>
