<?xml version="1.0" encoding="UTF-8"?>
<svg id="Layer_1" data-name="Layer 1" xmlns="http://www.w3.org/2000/svg" xmlns:xlink="http://www.w3.org/1999/xlink" viewBox="0 0 1600 1200">
  <defs>
    <style>
      .cls-1 {
        fill: none;
      }

      .cls-2 {
        clip-path: url(#clippath);
      }

      .cls-3 {
        fill: #fff;
      }

      .cls-4 {
        fill: #91b5fc;
      }

      .cls-5 {
        fill: #3282f7;
      }

      .cls-6 {
        fill: #1a1a1a;
      }

      .cls-7 {
        fill: #4558ef;
      }

      .cls-8 {
        fill: gray;
      }

      .cls-9 {
        fill: url(#_未命名的渐变_10);
      }

      .cls-10 {
        fill: url(#radial-gradient);
      }
    </style>
    <clipPath id="clippath">
      <rect class="cls-1" x="-64.62" y="522.57" width="1714.52" height="583.52"/>
    </clipPath>
    <radialGradient id="radial-gradient" cx="665.45" cy="1414.63" fx="665.45" fy="1414.63" r="795.43" gradientTransform="translate(105.56 775.34) scale(1.05 .23)" gradientUnits="userSpaceOnUse">
      <stop offset=".41" stop-color="#ebebf2"/>
      <stop offset="1" stop-color="#ebebf2" stop-opacity="0"/>
    </radialGradient>
    <linearGradient id="_未命名的渐变_10" data-name="未命名的渐变 10" x1="1410.22" y1="802.91" x2="1425.09" y2="756.8" gradientTransform="translate(414.96 1589.26) rotate(-24.82) scale(1 -1)" gradientUnits="userSpaceOnUse">
      <stop offset=".53" stop-color="#1255f5" stop-opacity="0"/>
      <stop offset=".84" stop-color="#c9d8fd"/>
    </linearGradient>
  </defs>
  <g class="cls-2">
    <ellipse class="cls-10" cx="806.31" cy="1100.07" rx="843.58" ry="184.48"/>
  </g>
  <g>
    <path class="cls-6" d="M1111.92,666.16c-.83,0-1.55-.47-1.83-1.18-2.14-5.35-2.69-11-1.58-16.34,1.12-5.4,3.85-10.1,7.9-13.58,4.99-4.29,12.24-6.75,19.89-6.75,.23,0,.46,0,.69,0,4.56,.1,9.11,1.02,13.15,2.64,3.56,1.41,6.84,3.33,9.76,5.71,3.31-6.29,10.5-16.38,24.47-22.26,6.52-2.75,13.5-4.14,20.76-4.14,3.17,0,6.43,.27,9.69,.79,6.41,1.04,11.35,2.83,14.07,3.99,5.86-5.69,13.99-8.94,22.43-8.94,1.83,0,3.67,.16,5.46,.46,11.92,2.04,21.48,10.75,23.97,21.76,4.85,2.07,8.83,5.13,11.54,8.89,3.05,4.23,4.55,9.34,4.34,14.8-.21,5.35-2.05,10.79-5.33,15.75-.35,.53-.98,.86-1.69,.86,0,0-177.71-2.47-177.71-2.47Zm176.59-1.11c5.47-8.85,5.68-18.71,.51-25.87-2.47-3.43-6.2-6.18-10.78-7.97-.6-.24-1.03-.73-1.15-1.31-1.88-10.03-10.33-18-21.03-19.83-1.55-.27-3.14-.4-4.72-.4-7.81,0-15.27,3.18-20.45,8.74-.37,.4-.92,.63-1.51,.63h-.17c-.14,0-.27-.02-.4-.07l-.25-.09c-2.59-1.22-11.62-5.05-23.32-5.05-6.72,0-13.18,1.28-19.19,3.82-14.99,6.32-21.55,18.03-23.67,22.78-.29,.67-1.01,1.11-1.82,1.11-.08,0-.27,0-.35-.03l-.16-.04c-.37-.09-.68-.26-.92-.49-5.89-5.62-13.99-8.93-22.22-9.09-.22,0-.44,0-.66,0-6.71,0-12.79,2.05-17.12,5.78-6.71,5.76-8.97,15.72-5.76,24.98l175.13,2.43Z"/>
    <path class="cls-6" d="M717.64,879.39c-.65,0-1.22-.37-1.44-.91-2.49-6.12-3.13-12.57-1.84-18.66,1.29-6.14,4.45-11.47,9.13-15.42,5.77-4.87,14.16-7.66,23.03-7.66,.27,0,.54,0,.81,0,5.3,.12,10.57,1.16,15.27,3.01,4.47,1.73,8.55,4.14,12.15,7.17,3.2-6.22,11.66-19.22,29.06-26.41,7.62-3.15,15.78-4.75,24.26-4.75,3.7,0,7.52,.31,11.34,.91,8.07,1.28,14.26,3.63,17,4.81,6.83-6.72,16.41-10.56,26.39-10.56,2.12,0,4.25,.18,6.33,.53,13.95,2.35,25.09,12.41,27.86,25.1,5.78,2.35,10.51,5.88,13.71,10.24,3.53,4.8,5.27,10.61,5.02,16.81-.24,6.11-2.39,12.32-6.21,17.98-.28,.41-.77,.66-1.32,.67h0l-210.53-2.87Zm209.64,.08c6.84-10.61,7.16-22.5,.8-31.15-3.01-4.1-7.55-7.39-13.11-9.52-.49-.19-.83-.58-.91-1.04-2.28-11.91-12.54-21.39-25.53-23.58-1.88-.32-3.81-.48-5.74-.48-9.49,0-18.54,3.79-24.82,10.4-.29,.31-.73,.48-1.19,.48-.25,0-.5-.05-.72-.15-2.99-1.39-13.84-5.91-27.87-5.91-8.08,0-15.84,1.52-23.06,4.5-18.01,7.45-25.88,21.26-28.42,26.85-.24,.52-.8,.86-1.44,.86-.06,0-.19,0-.24-.02l-.15-.03c-.31-.07-.55-.21-.75-.39-7.12-6.66-16.91-10.59-26.87-10.78-.27,0-.53,0-.8,0-8.15,0-15.55,2.45-20.83,6.91-8.28,6.99-11,19.07-6.85,30.22l208.5,2.84Z"/>
    <g>
      <g>
        <path class="cls-6" d="M629.63,621.08c-2.29-.25-4.54-.51-6.77-.79-.36-.04-.68-.22-.9-.51s-.32-.64-.28-1c.08-.68,.66-1.19,1.34-1.19h.17c2.22,.28,4.46,.54,6.72,.79,.36,.04,.68,.22,.9,.5,.23,.28,.33,.63,.29,.99-.08,.68-.65,1.2-1.34,1.2h-.12Zm-13.5-1.64c-2.27-.3-4.53-.61-6.74-.93-.36-.05-.67-.24-.89-.53-.22-.29-.31-.65-.26-1,.1-.66,.67-1.16,1.34-1.16h.18c2.2,.33,4.46,.64,6.7,.94,.35,.05,.67,.23,.89,.51,.22,.29,.31,.64,.27,1-.09,.67-.66,1.17-1.34,1.17h-.17Zm-13.45-1.95c-2.23-.35-4.49-.72-6.71-1.09-.35-.06-.67-.26-.87-.55-.21-.29-.29-.65-.23-1.01,.11-.65,.67-1.12,1.33-1.12h.07l.17,.02c2.2,.37,4.44,.74,6.67,1.08,.74,.12,1.24,.81,1.12,1.54-.1,.66-.66,1.14-1.33,1.14l-.21-.02Zm-13.22-2.24l-.17-.02c-2.24-.41-4.49-.83-6.68-1.26-.35-.07-.66-.27-.86-.57-.2-.3-.27-.66-.2-1.01,.12-.63,.68-1.09,1.32-1.09h.08l.18,.02c2.18,.43,4.41,.85,6.64,1.25,.35,.06,.66,.26,.87,.56,.21,.3,.28,.66,.22,1.01-.11,.64-.67,1.11-1.33,1.11h-.07Zm-13.31-2.6l-.19-.03c-2.22-.47-4.46-.95-6.65-1.44-.73-.17-1.18-.89-1.02-1.61,.14-.61,.69-1.05,1.32-1.05h.09l.21,.03c2.18,.49,4.4,.97,6.6,1.43,.35,.08,.66,.28,.85,.58,.2,.3,.26,.66,.19,1.02-.13,.62-.68,1.07-1.32,1.07h-.08Zm-13.24-2.97l-.22-.04c-2.21-.53-4.43-1.08-6.59-1.64-.35-.09-.64-.31-.82-.62-.18-.31-.24-.67-.15-1.02,.15-.6,.69-1.01,1.31-1.01h.1l.23,.04c2.15,.55,4.35,1.1,6.55,1.63,.72,.18,1.17,.91,1,1.63-.15,.61-.69,1.04-1.31,1.04h-.09Zm-13.14-3.37l-.25-.05c-2.18-.6-4.39-1.22-6.54-1.84-.71-.21-1.12-.96-.92-1.67,.17-.57,.7-.97,1.29-.97,.13,0,.26,.02,.38,.06,2.13,.62,4.32,1.24,6.49,1.83,.72,.2,1.14,.94,.95,1.66-.16,.59-.7,.99-1.3,.99h-.11Zm-12.9-3.79c-.13,0-.26-.02-.39-.06-2.17-.67-4.35-1.37-6.48-2.07-.34-.11-.62-.35-.78-.67s-.19-.69-.08-1.03c.18-.55,.7-.93,1.28-.93,.14,0,.29,.02,.42,.07,2.12,.7,4.28,1.39,6.43,2.06,.34,.11,.63,.34,.79,.66,.17,.32,.2,.68,.1,1.03-.18,.57-.69,.95-1.29,.95Zm-12.87-4.24c-.15,0-.3-.03-.45-.08-2.15-.75-4.3-1.53-6.4-2.31-.7-.26-1.05-1.04-.79-1.73,.2-.53,.71-.88,1.27-.88,.16,0,.32,.03,.47,.09,2.08,.77,4.22,1.55,6.35,2.29,.7,.25,1.07,1.02,.83,1.72-.19,.54-.7,.9-1.27,.9Zm-12.7-4.73c-.17,0-.34-.03-.5-.1-2.11-.84-4.23-1.7-6.29-2.57-.69-.29-1.01-1.08-.72-1.77,.21-.5,.7-.83,1.24-.83,.18,0,.35,.04,.52,.11,2.05,.86,4.15,1.72,6.25,2.55,.33,.13,.6,.39,.74,.72s.15,.7,.02,1.03c-.2,.52-.7,.85-1.25,.85Zm-12.49-5.25c-.19,0-.38-.04-.55-.12-2.08-.93-4.16-1.89-6.18-2.85-.67-.32-.96-1.13-.64-1.8,.22-.47,.7-.77,1.22-.77,.2,0,.4,.04,.58,.13,2,.95,4.06,1.9,6.12,2.82,.33,.15,.58,.41,.71,.75s.12,.7-.03,1.03c-.22,.49-.7,.8-1.23,.8Zm-12.24-5.82c-.21,0-.42-.05-.61-.14-2.03-1.03-4.06-2.08-6.04-3.15-.32-.17-.55-.45-.65-.8s-.07-.71,.1-1.03c.24-.44,.69-.71,1.19-.71,.22,0,.44,.06,.64,.16,1.96,1.05,3.97,2.1,5.98,3.11,.32,.16,.56,.44,.67,.78,.11,.34,.09,.71-.08,1.03-.23,.46-.69,.74-1.2,.74Zm-11.93-6.41c-.23,0-.46-.06-.67-.18-1.97-1.13-3.95-2.29-5.87-3.46-.31-.19-.52-.48-.61-.83-.09-.35-.03-.71,.16-1.02,.24-.4,.68-.65,1.15-.65,.25,0,.49,.07,.7,.2,1.9,1.16,3.85,2.31,5.8,3.42,.31,.18,.54,.47,.63,.82s.05,.71-.13,1.02c-.24,.42-.69,.68-1.17,.68Zm-11.57-7.04c-.26,0-.52-.08-.74-.22-1.91-1.24-3.81-2.51-5.66-3.79-.3-.2-.49-.51-.56-.87-.06-.35,.01-.71,.22-1.01,.25-.36,.67-.58,1.11-.58,.28,0,.54,.08,.77,.24,1.83,1.26,3.71,2.53,5.59,3.75,.62,.4,.8,1.24,.4,1.86-.25,.39-.67,.62-1.13,.62Zm-11.14-7.71c-.29,0-.57-.09-.8-.26-1.84-1.36-3.66-2.75-5.42-4.14-.58-.46-.68-1.31-.22-1.89,.26-.33,.65-.51,1.06-.51,.3,0,.6,.1,.84,.29,1.74,1.38,3.54,2.75,5.35,4.09,.29,.21,.48,.53,.53,.88,.05,.36-.03,.71-.25,1-.25,.34-.66,.55-1.09,.55Zm-10.62-8.4c-.32,0-.63-.11-.87-.32-1.74-1.48-3.47-2.99-5.13-4.5-.55-.5-.59-1.36-.09-1.91,.26-.28,.62-.44,1-.44,.34,0,.66,.12,.91,.35,1.64,1.49,3.34,2.99,5.05,4.43,.28,.23,.44,.56,.47,.92,.03,.36-.08,.71-.32,.98-.25,.3-.63,.48-1.03,.48Zm-10.02-9.11c-.35,0-.69-.14-.94-.38-1.63-1.59-3.24-3.23-4.79-4.86-.25-.26-.38-.6-.37-.96s.16-.69,.42-.94c.25-.24,.58-.37,.93-.37,.37,0,.73,.15,.98,.42,1.53,1.61,3.12,3.22,4.72,4.79,.53,.52,.54,1.37,.02,1.91-.25,.26-.6,.41-.97,.41Zm-9.32-9.83c-.39,0-.76-.17-1.01-.46-1.5-1.71-2.98-3.46-4.4-5.22-.47-.58-.38-1.43,.2-1.9,.24-.19,.54-.3,.85-.3,.41,0,.79,.18,1.05,.5,1.4,1.72,2.85,3.45,4.33,5.14,.49,.56,.43,1.41-.12,1.9-.25,.22-.56,.34-.89,.34Zm-8.51-10.53c-.43,0-.83-.2-1.08-.55-1.35-1.82-2.68-3.69-3.96-5.56-.42-.62-.26-1.46,.36-1.87,.23-.15,.49-.23,.76-.23,.45,0,.87,.22,1.12,.59,1.25,1.84,2.56,3.68,3.89,5.47,.44,.6,.32,1.44-.28,1.89-.24,.18-.51,.27-.81,.27Zm-7.61-11.2c-.47,0-.9-.24-1.15-.64-1.19-1.92-2.36-3.9-3.47-5.88-.18-.31-.22-.68-.12-1.02s.32-.64,.64-.81c.2-.11,.43-.17,.66-.17,.49,0,.94,.26,1.18,.69,1.09,1.95,2.24,3.89,3.41,5.78,.39,.63,.19,1.47-.44,1.86-.22,.13-.46,.2-.71,.2Zm-6.62-11.81c-.51,0-.97-.28-1.2-.74-1.02-2.02-2.01-4.09-2.94-6.17-.3-.68,0-1.48,.68-1.78,.17-.08,.36-.12,.55-.12,.53,0,1.01,.31,1.23,.8,.91,2.03,1.88,4.07,2.89,6.06,.16,.32,.19,.69,.08,1.03s-.35,.62-.67,.78c-.19,.1-.4,.14-.61,.14Zm-5.56-12.35c-.56,0-1.05-.33-1.25-.85-.84-2.11-1.64-4.26-2.38-6.4-.12-.34-.1-.7,.06-1.03,.16-.32,.43-.57,.77-.69,.14-.05,.29-.07,.44-.07,.57,0,1.09,.37,1.27,.91,.73,2.1,1.52,4.22,2.34,6.29,.27,.69-.07,1.48-.75,1.75-.16,.06-.33,.1-.5,.1Zm-4.44-12.79c-.59,0-1.12-.4-1.29-.97-.64-2.16-1.25-4.37-1.8-6.57-.09-.35-.03-.71,.15-1.02,.19-.31,.48-.53,.83-.61l.09-.02,.23-.02c.62,0,1.16,.42,1.31,1.02,.54,2.15,1.13,4.32,1.77,6.45,.1,.35,.06,.71-.11,1.03-.17,.32-.46,.55-.8,.65-.12,.04-.25,.06-.38,.06Zm-3.29-13.1c-.64,0-1.19-.45-1.32-1.08-.45-2.21-.87-4.47-1.23-6.71-.06-.36,.03-.71,.24-1,.21-.29,.52-.49,.88-.54l.21-.02c.67,0,1.22,.48,1.33,1.13,.36,2.21,.76,4.43,1.21,6.6,.15,.73-.32,1.44-1.05,1.59l-.08,.02h-.19Zm-2.16-13.35c-.68,0-1.26-.51-1.34-1.19-.27-2.26-.49-4.55-.66-6.8-.06-.74,.5-1.39,1.24-1.45h0c.8,0,1.39,.55,1.44,1.24,.17,2.23,.39,4.48,.65,6.69,.09,.74-.44,1.41-1.18,1.5h-.16Zm-1.04-13.51c-.73,0-1.32-.57-1.35-1.3-.08-2.08-.11-4.2-.11-6.29v-.55c0-.74,.61-1.35,1.35-1.35,.36,0,.7,.14,.96,.4,.25,.26,.39,.59,.39,.96v.54c0,2.06,.04,4.14,.11,6.19,.03,.74-.55,1.37-1.3,1.4h-.05Zm-.06-13.56c-.31-.01-.65-.17-.89-.43-.24-.27-.37-.61-.36-.97,.09-2.26,.23-4.56,.41-6.83,.06-.71,.63-1.24,1.35-1.24,.85,.06,1.4,.71,1.34,1.46-.18,2.26-.31,4.53-.41,6.73-.03,.73-.62,1.29-1.35,1.29h-.1Zm1-13.53c-.34-.04-.66-.22-.88-.5-.22-.28-.32-.64-.28-.99,.26-2.22,.56-4.5,.9-6.76,.1-.65,.67-1.15,1.33-1.15l.21,.02c.35,.05,.67,.24,.88,.53,.21,.29,.3,.65,.25,1-.34,2.22-.64,4.46-.89,6.67-.08,.68-.65,1.19-1.34,1.19h-.17Zm2.13-13.39l-.18-.02c-.72-.14-1.21-.84-1.07-1.57,.41-2.21,.87-4.46,1.36-6.68,.14-.62,.68-1.06,1.32-1.06h.09l.21,.03c.72,.16,1.18,.88,1.03,1.61-.49,2.21-.94,4.43-1.35,6.6-.12,.64-.68,1.1-1.33,1.1h-.08Zm2.9-13.23l-.24-.04c-.72-.18-1.15-.92-.97-1.64,.56-2.17,1.16-4.39,1.79-6.58,.17-.57,.7-.97,1.3-.97,.13,0,.25,.02,.38,.05,.35,.1,.63,.33,.81,.64s.21,.68,.11,1.03c-.62,2.15-1.22,4.33-1.77,6.5-.15,.6-.69,1.01-1.31,1.01h-.1Zm3.87-13.02c-.14,0-.28-.02-.41-.06-.35-.11-.63-.35-.79-.67-.16-.32-.19-.69-.08-1.03,.69-2.14,1.43-4.31,2.19-6.46,.19-.54,.7-.9,1.27-.9,.15,0,.31,.03,.45,.08,.34,.12,.61,.37,.77,.69,.15,.32,.17,.69,.05,1.03-.76,2.12-1.48,4.27-2.17,6.38-.18,.56-.69,.93-1.28,.93Zm4.55-12.77c-.17,0-.33-.03-.49-.09-.69-.27-1.04-1.05-.77-1.75,.82-2.11,1.68-4.23,2.56-6.32,.21-.5,.7-.83,1.24-.83,.18,0,.36,.04,.53,.11,.33,.14,.59,.4,.72,.73,.14,.33,.13,.7,0,1.03-.87,2.06-1.72,4.16-2.53,6.24-.2,.52-.69,.86-1.26,.86Zm5.27-12.49c-.19,0-.38-.04-.56-.12-.33-.15-.58-.42-.7-.76-.13-.34-.11-.7,.04-1.03,.93-2.05,1.91-4.12,2.91-6.16,.22-.46,.7-.76,1.21-.76,.2,0,.41,.05,.59,.14,.67,.33,.95,1.13,.62,1.8-.98,2.02-1.95,4.07-2.88,6.1-.22,.48-.7,.79-1.23,.79Zm5.94-12.18c-.22,0-.43-.05-.62-.15-.32-.17-.55-.45-.66-.79-.11-.34-.08-.71,.09-1.03,1.04-2,2.13-4.02,3.23-6,.24-.43,.69-.7,1.18-.7,.23,0,.46,.06,.66,.17,.31,.17,.54,.46,.64,.81,.1,.35,.06,.71-.12,1.03-1.09,1.96-2.16,3.96-3.19,5.94-.24,.45-.69,.73-1.2,.73Zm6.57-11.86c-.24,0-.48-.06-.68-.19-.64-.38-.86-1.21-.48-1.85,1.14-1.94,2.33-3.9,3.53-5.83,.25-.4,.68-.64,1.15-.64,.25,0,.5,.07,.71,.2,.63,.39,.83,1.23,.43,1.86-1.19,1.91-2.36,3.85-3.49,5.77-.24,.41-.69,.67-1.16,.67Zm7.16-11.51c-.26,0-.52-.08-.74-.22-.62-.41-.8-1.25-.39-1.87,1.23-1.88,2.51-3.78,3.81-5.65,.25-.36,.67-.58,1.11-.58,.28,0,.54,.08,.77,.24,.61,.42,.77,1.27,.34,1.88-1.28,1.85-2.55,3.73-3.77,5.59-.25,.38-.67,.61-1.13,.61Zm7.71-11.15c-.29,0-.56-.09-.79-.26-.6-.43-.73-1.28-.3-1.88,1.33-1.82,2.69-3.66,4.07-5.46,.26-.34,.65-.53,1.07-.53,.3,0,.58,.1,.82,.28,.59,.45,.7,1.3,.26,1.89-1.37,1.79-2.72,3.61-4.03,5.41-.25,.35-.66,.56-1.09,.56Zm8.23-10.77c-.3,0-.6-.11-.84-.3-.28-.22-.46-.55-.5-.9-.04-.36,.06-.71,.29-.99,1.41-1.76,2.86-3.53,4.32-5.26,.26-.31,.63-.48,1.03-.48,.32,0,.63,.11,.87,.32,.27,.23,.44,.56,.48,.91s-.08,.71-.31,.99c-1.45,1.72-2.89,3.47-4.28,5.21-.26,.32-.64,.51-1.05,.51Zm8.72-10.38c-.33,0-.65-.12-.89-.34-.27-.24-.43-.57-.45-.92-.02-.36,.1-.71,.33-.98,1.48-1.69,3.02-3.39,4.56-5.06,.25-.28,.62-.44,.99-.44,.34,0,.66,.13,.91,.36,.27,.25,.42,.58,.43,.94s-.11,.7-.36,.97c-1.52,1.65-3.04,3.34-4.51,5.01-.25,.29-.62,.46-1.01,.46Zm9.18-9.97c-.35,0-.68-.13-.94-.38-.26-.25-.41-.58-.41-.94,0-.36,.13-.7,.38-.96,1.56-1.62,3.17-3.25,4.78-4.85,.25-.25,.59-.39,.95-.39s.7,.14,.96,.4c.52,.53,.52,1.38,0,1.91-1.59,1.58-3.19,3.2-4.74,4.81-.26,.26-.61,.41-.97,.41Zm9.62-9.55c-.37,0-.72-.15-.98-.42-.51-.54-.49-1.4,.05-1.91,1.64-1.56,3.32-3.11,4.99-4.63,.25-.23,.57-.35,.91-.35,.38,0,.74,.16,1,.44,.5,.56,.46,1.41-.09,1.91-1.66,1.5-3.32,3.05-4.94,4.59-.25,.24-.58,.37-.93,.37Zm10.05-9.13c-.39,0-.76-.17-1.02-.47-.49-.56-.43-1.41,.13-1.9,1.72-1.49,3.47-2.98,5.21-4.42,.24-.2,.55-.31,.86-.31,.4,0,.78,.18,1.04,.49,.48,.57,.4,1.43-.18,1.9-1.72,1.43-3.46,2.9-5.16,4.38-.25,.21-.56,.33-.88,.33Zm10.47-8.68c-.41,0-.8-.19-1.06-.51-.46-.58-.37-1.44,.22-1.9,1.77-1.41,3.59-2.81,5.4-4.18,.23-.18,.52-.27,.81-.27,.42,0,.82,.2,1.08,.53,.45,.59,.33,1.44-.26,1.89-1.79,1.36-3.59,2.75-5.35,4.14-.24,.19-.53,.29-.84,.29Zm10.84-8.2c-.43,0-.84-.21-1.09-.56-.44-.6-.3-1.45,.3-1.88,1.84-1.33,3.72-2.65,5.58-3.93,.23-.16,.49-.24,.76-.24,.44,0,.86,.22,1.11,.58,.42,.62,.27,1.46-.35,1.88-1.84,1.27-3.7,2.58-5.53,3.9-.23,.17-.5,.26-.79,.26Zm11.19-7.7c-.46,0-.88-.23-1.13-.61-.41-.62-.23-1.46,.39-1.87,1.89-1.24,3.82-2.47,5.75-3.67,.21-.13,.46-.2,.71-.2,.47,0,.9,.24,1.14,.63,.39,.63,.2,1.47-.43,1.86-1.91,1.19-3.82,2.41-5.7,3.64-.22,.14-.47,.22-.74,.22Zm11.53-7.18c-.48,0-.92-.25-1.16-.66-.18-.31-.24-.67-.15-1.02,.09-.35,.31-.64,.62-.83,1.96-1.16,3.94-2.3,5.91-3.41,.2-.11,.43-.17,.66-.17,.49,0,.94,.26,1.18,.69,.18,.31,.22,.68,.12,1.03s-.32,.64-.64,.81c-1.95,1.09-3.92,2.23-5.86,3.37-.2,.12-.44,.19-.69,.19Zm11.84-6.64c-.5,0-.96-.27-1.19-.72-.35-.66-.1-1.48,.56-1.83,2.01-1.06,4.05-2.12,6.06-3.13,.19-.09,.4-.14,.61-.14,.51,0,.98,.29,1.21,.74,.33,.67,.06,1.48-.6,1.81-2,1-4.02,2.04-6.01,3.1-.2,.1-.41,.16-.63,.16Zm12.14-6.08c-.52,0-1-.3-1.22-.77-.32-.67-.03-1.48,.64-1.8,2.05-.97,4.14-1.92,6.2-2.84,.17-.08,.36-.12,.55-.12,.53,0,1.02,.31,1.23,.8,.15,.33,.16,.7,.03,1.03-.13,.34-.38,.6-.71,.75-2.05,.9-4.11,1.85-6.15,2.81-.18,.09-.37,.13-.58,.13Zm12.41-5.49c-.55,0-1.04-.33-1.25-.83-.28-.69,.04-1.48,.73-1.76,2.09-.87,4.22-1.72,6.33-2.53,.16-.06,.32-.09,.49-.09,.55,0,1.06,.35,1.26,.86,.27,.69-.08,1.47-.77,1.74-2.09,.81-4.2,1.65-6.27,2.51-.17,.07-.34,.1-.52,.1Zm12.67-4.89c-.57,0-1.08-.36-1.27-.89-.12-.34-.1-.7,.05-1.03,.15-.33,.43-.57,.77-.69,2.13-.76,4.3-1.51,6.45-2.22,.14-.05,.28-.07,.43-.07,.58,0,1.09,.37,1.28,.92,.11,.34,.09,.71-.08,1.03s-.44,.56-.78,.67c-2.12,.7-4.27,1.44-6.39,2.2-.14,.05-.3,.08-.46,.08Zm12.89-4.25c-.6,0-1.12-.39-1.29-.96-.1-.35-.07-.71,.1-1.03,.17-.32,.45-.55,.8-.65,2.17-.66,4.38-1.29,6.56-1.89l.1-.03,.26-.02c.6,0,1.14,.41,1.3,.99,.2,.72-.23,1.46-.94,1.66-2.16,.59-4.34,1.22-6.49,1.87-.13,.04-.26,.06-.39,.06Zm13.1-3.6c-.62,0-1.16-.42-1.31-1.03-.09-.35-.03-.71,.15-1.02,.19-.31,.48-.53,.83-.61,2.2-.54,4.44-1.07,6.65-1.55l.08-.02h.21c.63-.01,1.18,.43,1.32,1.04,.16,.73-.3,1.45-1.03,1.61-2.18,.48-4.4,1-6.58,1.54l-.09,.02-.23,.02Zm13.27-2.92c-.65,0-1.2-.46-1.32-1.09-.14-.73,.34-1.44,1.07-1.58,2.23-.43,4.49-.83,6.73-1.2h.06s.16-.02,.16-.02c.66,0,1.22,.48,1.33,1.13,.06,.35-.02,.71-.23,1-.21,.29-.52,.49-.88,.55-2.21,.36-4.45,.76-6.66,1.19h-.07s-.18,.02-.18,.02Zm13.41-2.21c-.67,0-1.24-.5-1.34-1.16-.05-.36,.04-.71,.26-1,.22-.29,.53-.47,.89-.52,2.24-.31,4.51-.59,6.76-.84h.02c.83,0,1.4,.51,1.47,1.19,.08,.74-.46,1.41-1.19,1.49-2.22,.25-4.47,.53-6.69,.83h-.18Zm60.68-.89c-2.23-.24-4.48-.46-6.71-.64-.74-.06-1.29-.71-1.24-1.45,.06-.7,.65-1.24,1.35-1.24,2.36,.19,4.64,.41,6.89,.65,.74,.08,1.27,.75,1.19,1.49-.07,.69-.65,1.2-1.34,1.2h-.15Zm-47.21-.59c-.7,0-1.29-.54-1.34-1.24-.03-.36,.08-.71,.31-.98,.23-.28,.56-.44,.92-.47,2.26-.19,4.54-.35,6.79-.47h0c.79,0,1.38,.56,1.42,1.27,.04,.74-.53,1.38-1.27,1.42-2.23,.12-4.49,.28-6.72,.47h-.11Zm33.76-.51c-2.22-.12-4.48-.21-6.72-.27-.36,0-.69-.16-.94-.42-.25-.26-.38-.6-.37-.96,.02-.73,.62-1.32,1.34-1.32,2.31,.06,4.6,.15,6.85,.27,.74,.04,1.31,.68,1.28,1.42-.04,.72-.63,1.28-1.35,1.28h-.09Zm-20.24-.25c-.73,0-1.33-.58-1.35-1.31,0-.36,.12-.7,.37-.97,.25-.26,.58-.41,.94-.42,2.26-.07,4.55-.1,6.81-.1,.74,0,1.35,.6,1.35,1.35,0,.36-.14,.7-.39,.96-.26,.26-.59,.4-.95,.4-2.24,0-4.5,.04-6.74,.1h-.04Z"/>
        <path class="cls-6" d="M639.57,622.11c-1.14-.11-2.26-.22-3.39-.33-.74-.07-1.28-.73-1.21-1.48,.07-.69,.65-1.22,1.34-1.22,1.25,.12,2.37,.23,3.5,.34,.36,.03,.68,.21,.91,.48,.23,.28,.34,.63,.3,.99-.07,.69-.64,1.22-1.34,1.22h-.12Z"/>
      </g>
      <g>
        <g>
          <path class="cls-3" d="M578.15,333.93c-.4-.81-106.65,28.49-107.38,28.9,.35-.69,23.01-44.8,64.36-55.48,9.33-2.42,19.61-3.12,30.8-1.25,12.35,2.07,22.84,6.61,31.26,12.78-8.98,1.56-14.28,7.06-19.04,15.05Z"/>
          <path class="cls-3" d="M470.77,362.82h0s0,0,0,0Z"/>
        </g>
        <g>
          <g>
            <path class="cls-6" d="M578.15,333.93c-.4-.81-106.65,28.49-107.38,28.9,.35-.69,23.01-44.8,64.36-55.48,9.33-2.42,19.61-3.12,30.8-1.25,12.35,2.07,22.84,6.61,31.26,12.78-8.98,1.56-14.28,7.06-19.04,15.05Z"/>
            <path class="cls-6" d="M470.77,363.39c-.14,0-.28-.05-.39-.16-.18-.17-.22-.44-.11-.66,.24-.47,5.95-11.59,16.88-24.11,9.94-11.37,26.3-26.1,47.84-31.66,10.04-2.6,20.48-3.02,31.04-1.26,11.96,2,22.56,6.33,31.5,12.88,.18,.13,.27,.36,.22,.58-.05,.22-.23,.39-.45,.43-7.8,1.36-13.2,5.64-18.65,14.79-.11,.18-.31,.28-.51,.27-.04,0-.07,0-.1-.01-4.28,.28-105.81,28.45-107.03,28.86-.07,.03-.15,.05-.23,.05Zm82.54-57.79c-6.12,0-12.15,.76-18.04,2.29-21.26,5.49-37.44,20.06-47.27,31.31-8.93,10.22-14.33,19.48-16.09,22.69,6.43-1.88,33.4-9.31,52.1-14.4,43.99-11.98,52.12-13.87,53.82-14.11,5.29-8.78,10.58-13.17,17.99-14.81-8.58-6.02-18.65-10.03-29.97-11.92-4.2-.7-8.38-1.05-12.52-1.05Zm24.34,28.59h0Zm0,0h0s0,0,0,0Zm0,0s0,0,0,0c0,0,0,0,0,0Zm0,0s0,0,0,0c0,0,0,0,0,0Zm0,0h0s0,0,0,0Zm0,0s0,0,0,0c0,0,0,0,0,0Z"/>
          </g>
          <path class="cls-6" d="M470.77,363.39c-.14,0-.29-.06-.4-.17-.22-.22-.22-.58,0-.8,.22-.22,.58-.22,.8,0,.22,.22,.22,.58,0,.8h0c-.11,.12-.25,.17-.4,.17Z"/>
        </g>
        <g>
          <path class="cls-6" d="M470.77,363.39c-.14,0-.28-.05-.39-.16-.18-.17-.22-.44-.11-.66,.24-.47,5.95-11.59,16.88-24.11,9.94-11.37,26.3-26.1,47.84-31.66,10.04-2.6,20.48-3.02,31.04-1.26,11.96,2,22.56,6.33,31.5,12.88,.18,.13,.27,.36,.22,.58-.05,.22-.23,.39-.45,.43-7.8,1.36-13.2,5.64-18.65,14.79-.11,.18-.31,.28-.51,.27-.04,0-.07,0-.1-.01-4.28,.28-105.81,28.45-107.03,28.86-.07,.03-.15,.05-.23,.05Zm82.54-57.79c-6.12,0-12.15,.76-18.04,2.29-21.26,5.49-37.44,20.06-47.27,31.31-8.93,10.22-14.33,19.48-16.09,22.69,6.43-1.88,33.4-9.31,52.1-14.4,43.99-11.98,52.12-13.87,53.82-14.11,5.29-8.78,10.58-13.17,17.99-14.81-8.58-6.02-18.65-10.03-29.97-11.92-4.2-.7-8.38-1.05-12.52-1.05Zm24.34,28.59h0Zm0,0h0s0,0,0,0Zm0,0s0,0,0,0c0,0,0,0,0,0Zm0,0s0,0,0,0c0,0,0,0,0,0Zm0,0h0s0,0,0,0Zm0,0s0,0,0,0c0,0,0,0,0,0Z"/>
          <path class="cls-6" d="M470.77,363.39c-.14,0-.29-.06-.4-.17-.22-.22-.22-.58,0-.8,.22-.22,.58-.22,.8,0,.22,.22,.22,.58,0,.8h0c-.11,.12-.25,.17-.4,.17Z"/>
        </g>
      </g>
      <g>
        <path class="cls-3" d="M959.29,726.85c-39.9,0-72.02-11.83-92.9-34.21-39.4-41.37-82.62-61.48-132.12-61.48-18.12,0-34.52,2.49-49,4.69-11.18,1.7-20.84,3.16-29.11,3.16h0c-11.89,0-19.28-3.12-23.96-10.13-15.19-22.7,1.01-44.24,16.67-65.08,12.03-15.99,23.38-31.1,21.15-46.35-1.29-8.8-7.04-16.85-17.59-24.61-8.71-6.41-16.08-9.53-22.53-9.53-.34,0-.68,0-1.01,.03l-.42-1.47,53.28-29.91,79.71-41.16,.11-.02c1.28-.26,2.62-.39,3.96-.39,6.8,0,14.47,3.22,23.46,9.84,9.38,6.91,14.49,14.6,15.62,23.5,2.49,19.57-15.48,41.65-32.86,62.99-20.98,25.77-42.67,52.42-28.06,74.26,3.72,5.56,9.45,8.15,18.04,8.15,11.85,0,28.43-4.93,49.43-11.17,18.85-5.6,42.31-12.58,69.54-18.05,16.77-3.37,31.14-5,43.95-5,41.72,0,59.81,17.47,82.71,39.58,13.91,13.43,29.67,28.65,53.62,42.31,11.91,8.25,20.8,11.92,28.89,11.92h0c9.12,0,17-4.6,27.9-10.96,2.41-1.4,4.95-2.89,7.69-4.43l2.19-1.23-1.1,2.26c-18.26,37.57-34.47,58.93-50.99,67.22-41.88,16.54-82.06,25.26-116.24,25.27Z"/>
        <path class="cls-6" d="M959.19,727.42c-2.08,0-4.13-.03-6.17-.1-18.29-.57-34.88-3.69-49.33-9.27-14.91-5.76-27.6-14.18-37.72-25.02-39.25-41.21-82.44-61.25-132.05-61.25-18.06,0-34.26,2.46-48.56,4.63-11.27,1.71-21,3.19-29.3,3.19-12.03,0-19.54-3.2-24.35-10.39-15.41-23.03,.91-44.74,16.69-65.73,11.95-15.9,23.24-30.92,21.04-45.93-1.27-8.64-6.95-16.57-17.36-24.24-8.61-6.34-15.87-9.42-22.2-9.42-.33,0-.65,0-.98,.03h0c-.67,0-1.19-.39-1.36-.97-.18-.61,.09-1.25,.64-1.55l53.28-29.91,79.63-41.12c.11-.06,.23-.1,.36-.13,1.3-.26,2.67-.39,4.05-.39,6.94,0,14.73,3.25,23.82,9.94,9.51,7.01,14.7,14.82,15.85,23.88,2.52,19.81-15.53,41.98-32.98,63.42-20.85,25.61-42.41,52.1-28.03,73.59,3.62,5.41,9.2,7.93,17.57,7.93,11.69,0,28.27-4.93,49.27-11.17,18.86-5.61,42.33-12.59,69.58-18.06,16.75-3.36,31.13-5,43.97-5,14.02,0,26.05,1.96,36.79,5.99,18.73,7.03,31.55,19.41,46.4,33.74,13.89,13.41,29.62,28.6,53.51,42.23,11.81,8.18,20.62,11.82,28.61,11.82,9.01,0,16.82-4.56,27.63-10.86,2.44-1.42,4.96-2.89,7.69-4.43,.2-.11,.43-.17,.66-.17,.34,0,.67,.13,.92,.36,.43,.41,.55,1.04,.29,1.58-18.32,37.68-34.6,59.12-51.25,67.47-41.98,16.58-82.27,25.32-116.6,25.32Zm-224.92-98.39c11.41,0,22.05,.96,32.52,2.95,36.75,6.95,69.84,26.32,101.15,59.2,19.63,21.04,48.28,32.29,85.17,33.45,2.01,.06,4.04,.1,6.09,.1,33.98,0,73.92-8.68,115.49-25.09,15.43-7.75,30.72-27.56,47.98-62.25-1.31,.76-2.59,1.5-3.84,2.23-11.24,6.56-19.37,11.3-28.99,11.3-8.5,0-17.77-3.79-30.04-12.3-24.09-13.74-39.95-29.05-53.94-42.57-22.58-21.8-40.41-39.02-81.04-39.02-12.67,0-26.97,1.63-43.71,5-27.12,5.45-50.52,12.4-69.32,18-21.24,6.32-38,11.3-50.12,11.3-9.31,0-15.58-2.9-19.75-9.13-15.49-23.15,6.71-50.42,28.18-76.8,17.09-21,34.77-42.71,32.4-61.38-1.05-8.29-5.89-15.51-14.77-22.05-8.6-6.34-15.87-9.42-22.21-9.42-1.14,0-2.26,.1-3.34,.3l-79.42,41-49.21,27.63c5.99,.93,12.61,4.11,20.15,9.66,11.03,8.12,17.06,16.63,18.43,26.02,2.37,16.13-9.25,31.58-21.55,47.94-15.22,20.24-30.95,41.16-16.6,62.61,4.25,6.36,11.09,9.19,22.16,9.19,8.08,0,17.7-1.46,28.83-3.15,14.54-2.21,31.02-4.71,49.32-4.71Z"/>
      </g>
      <g>
        <path class="cls-4" d="M661.35,480.35l102.2-60.17s43.34,16.86,30.59,45.07c-46.28,28.57-110.27,57.15-110.27,57.15,0,0-4.68-36.01-22.52-42.05Z"/>
        <path class="cls-6" d="M683.86,522.96c-.1,0-.19-.02-.28-.07-.16-.09-.26-.24-.28-.42-.05-.36-4.84-35.73-22.14-41.59-.21-.07-.36-.26-.38-.48-.02-.22,.08-.43,.28-.54l102.2-60.17c.15-.09,.33-.1,.49-.04,1.01,.39,24.7,9.77,31.51,26.46,2.56,6.28,2.36,12.8-.62,19.38-.05,.1-.12,.19-.22,.25-45.78,28.27-109.7,56.9-110.34,57.18-.07,.03-.15,.05-.23,.05Zm-21.22-42.72c15.85,6.62,20.89,36.09,21.67,41.34,7.02-3.17,66.22-30.09,109.37-56.71,2.77-6.23,2.95-12.39,.53-18.33-6.26-15.34-28.03-24.67-30.63-25.73l-100.95,59.43Z"/>
      </g>
      <g>
        <path class="cls-3" d="M725.32,343.39c-60.75,31.64-76.17,88.78-43.21,109.25l-53.28,29.92c-20.46,1.06-26.99,33.13-46.02,44.33-6.15,3.62-13.62,5.06-23.3,2.55-48.9-12.68-37.43-79.48,30.19-114.69,42.04-21.9,40.81-71.52,7.5-95.87-8.43-6.16-18.91-10.71-31.26-12.78-11.2-1.87-21.48-1.17-30.8,1.25l117.24-63.98,.24-.14c13.55-7.4,29.94-11.67,48.95-8.49,61.19,10.25,76.44,81.21,23.76,108.65Z"/>
        <path class="cls-6" d="M568.76,532.05c-3.02,0-6.25-.44-9.59-1.31-17.9-4.64-28.8-16.45-30.71-33.26-1.53-13.49,3.13-28.97,13.13-43.58,10.87-15.88,27.29-29.84,47.49-40.35,18.42-9.59,29.78-25.71,31.18-44.22,1.43-18.94-7.48-37.4-23.85-49.37-8.7-6.37-19.03-10.58-30.69-12.53-4.14-.69-8.31-1.04-12.4-1.04-6.04,0-12.04,.76-17.85,2.27l-.1,.03-.24,.02c-.56,0-1.05-.33-1.26-.85-.25-.63,.01-1.35,.61-1.68l117.47-64.11c11.81-6.45,24.25-9.72,36.98-9.72,4.23,0,8.55,.36,12.84,1.08,29.97,5.02,52.05,25.45,56.27,52.06,1.8,11.38,.04,22.74-5.11,32.86-5.42,10.65-14.5,19.58-26.3,25.89l-.69,.37c-35.07,18.27-58.39,47.57-59.42,74.66-.53,13.95,5.26,25.4,16.3,32.25,.4,.25,.65,.7,.64,1.18-.01,.47-.27,.91-.69,1.14l-53.28,29.92c-.18,.1-.39,.16-.59,.17-10.93,.57-17.84,10.82-25.15,21.68-5.78,8.59-11.76,17.47-20.26,22.47-4.57,2.69-9.39,4-14.73,4Zm-15.45-228.36c4.24,0,8.56,.36,12.84,1.08,12.08,2.02,22.79,6.4,31.84,13.02,17.13,12.52,26.46,31.87,24.95,51.75-1.47,19.46-13.37,36.37-32.63,46.41-19.81,10.32-35.89,23.97-46.51,39.49-9.64,14.08-14.14,28.91-12.68,41.76,1.78,15.62,11.97,26.61,28.71,30.95,3.11,.81,6.11,1.22,8.9,1.22,4.86,0,9.23-1.19,13.37-3.62,7.97-4.69,13.78-13.31,19.39-21.65,7.63-11.33,14.84-22.04,26.93-22.85l51.08-28.68c-10.66-7.48-16.22-19.29-15.69-33.41,1.06-28.04,24.95-58.24,60.87-76.95,22.57-11.75,34.32-33.33,30.69-56.3-4.03-25.44-25.24-44.99-54.05-49.82-4.14-.69-8.31-1.05-12.39-1.05-12.28,0-24.28,3.16-35.68,9.38l-109.81,59.93c3.26-.44,6.57-.66,9.87-.66Z"/>
      </g>
      <g>
        <path class="cls-4" d="M634.15,380.34c49.1-25.65,115.98-73.65,115.98-73.65,0,0,4.29-42.66-31.12-52.05-42.12,20.39-107.05,58.46-107.05,58.46,0,0,36.15,26.63,22.19,67.24Z"/>
        <path class="cls-6" d="M634.15,380.9c-.13,0-.26-.05-.37-.14-.17-.15-.24-.39-.17-.61,7.13-20.76,.79-37.74-5.79-48.34-7.15-11.52-16.12-18.2-16.21-18.27-.15-.11-.24-.29-.23-.48,0-.19,.11-.36,.28-.46,.65-.38,65.43-38.31,107.09-58.48,.12-.06,.26-.07,.39-.04,18.55,4.92,26.14,19,29.24,29.94,3.34,11.81,2.31,22.61,2.3,22.71-.02,.16-.1,.31-.23,.4-.67,.48-67.48,48.31-116.05,73.69-.08,.04-.17,.06-.26,.06Zm-21.19-67.74c2.24,1.8,9.68,8.17,15.81,18.03,6.58,10.58,12.93,27.42,6.36,48,47.02-24.78,110.3-69.83,114.46-72.81,.13-1.67,.72-11.46-2.29-22.07-4.38-15.42-13.87-25.19-28.23-29.07-39.25,19.02-98.89,53.71-106.11,57.92Z"/>
      </g>
      <g>
        <path class="cls-6" d="M652.88,492.22l-70.07,34.67c19.03-11.19,25.56-43.27,46.02-44.33,6.39-.33,14.14,2.36,24.05,9.66Z"/>
        <path class="cls-6" d="M582.81,527.45c-.2,0-.4-.11-.5-.3-.14-.27-.05-.6,.21-.76,8.13-4.78,13.98-13.48,19.65-21.89,7.58-11.26,14.75-21.9,26.63-22.52,7.01-.37,14.99,2.83,24.41,9.77,.16,.12,.24,.31,.23,.5s-.14,.37-.31,.46l-70.07,34.67c-.08,.04-.17,.06-.25,.06Zm47.08-44.36c-.35,0-.69,0-1.03,.03-11.32,.59-18.33,11-25.76,22.02-4.43,6.58-8.98,13.33-14.67,18.33l63.36-31.35c-8.41-6.07-15.6-9.03-21.91-9.03Z"/>
      </g>
      <g>
        <g>
          <path class="cls-6" d="M873.67,610.82c-.54,.6-10.32-3.47-17.33,5.12-7.01,8.59,9.95,65.47,19.67,64.77,9.72-.7,9.47-27.28,9.61-42.78,.14-15.5-11.95-27.11-11.95-27.11Z"/>
          <path class="cls-6" d="M875.82,682.07c-2.91,0-5.98-3.2-9.41-9.79-7.6-14.62-17.34-49.56-11.13-57.19,3.29-4.03,7.59-6.07,12.81-6.07,1.77,0,3.3,.24,4.32,.39,.31,.05,.65,.1,.86,.12,.1-.03,.21-.05,.33-.06h0c.41,0,.74,.13,.99,.37,.13,.12,12.51,12.22,12.36,28.1l-.02,2.14c-.13,17.39-.32,41.21-10.84,41.97-.09,0-.18,0-.28,0Zm-7.67-70.34c-4.4,0-8.02,1.71-10.77,5.07-4.31,5.28,2.31,36.71,11.43,54.24,4.02,7.73,6.37,8.33,6.99,8.33,8.14-.59,8.33-25.77,8.44-39.3l.02-2.15c.12-13.17-9.24-23.72-11.12-25.7-.36-.02-.72-.08-1.14-.14-.97-.15-2.3-.35-3.85-.35Z"/>
        </g>
        <g>
          <path class="cls-3" d="M889.22,604.65l-7.62,22.4s-12.83-3.92-12.86-15.39c6.42-16.21,6.73-17.57,6.73-17.57,0,0,12.85,4.3,13.75,10.56Z"/>
          <path class="cls-6" d="M881.6,628.4c-.13,0-.27-.02-.39-.06-.13-.04-13.78-4.29-13.82-16.68,0-.17,.03-.35,.1-.51,6.07-15.34,6.65-17.32,6.67-17.4,.08-.34,.32-.66,.65-.84,.2-.11,.43-.17,.66-.17,.14,0,.29,.02,.43,.07,1.4,.47,13.67,4.77,14.66,11.65,.03,.21,0,.42-.06,.62l-7.62,22.4c-.19,.55-.7,.91-1.28,.91Zm-11.51-16.49c.18,8.16,7.81,12.17,10.68,13.39l7.06-20.75c-.94-4.18-8.66-7.58-11.54-8.71-.68,1.88-2.3,6.21-6.2,16.07Z"/>
        </g>
        <g>
          <path class="cls-7" d="M848.29,379.29s123.78,40.69,119.77,84.24c-4.01,43.55-77.36,160.46-77.36,160.46-8.57-.73-15.96-9.3-22.36-24.64,0,0,43.56-115.19,36.11-139.25-7.45-24.07-93.41-57.31-93.41-57.31l37.25-23.5Z"/>
          <path class="cls-6" d="M890.57,625.33c-8.85-.75-16.75-9.32-23.47-25.47-.13-.32-.14-.67-.02-.99,.11-.29,11.08-29.43,20.94-60.98,12.85-41.12,18.09-67.89,15.15-77.4-7.18-23.2-91.75-56.12-92.61-56.45-.48-.18-.81-.62-.86-1.13s.19-1,.62-1.27l37.25-23.49c.21-.14,.46-.21,.72-.21,.14,0,.28,.02,.42,.07,.31,.1,31.35,10.36,61.59,25.87,17.78,9.12,31.79,18.24,41.65,27.11,12.54,11.29,18.42,22.28,17.46,32.66-3.99,43.27-76.83,159.88-77.56,161.05-.25,.4-.68,.63-1.14,.63h-.13Zm-20.78-26.02c6.04,14.3,12.83,22.11,20.21,23.23,5.57-8.96,72.93-118.12,76.71-159.14,2-21.74-30.24-43.07-57.64-57.12-27.67-14.2-56-23.96-60.61-25.51l-34.45,21.73c17.12,6.81,84.85,34.99,91.72,57.19,3.11,10.05-1.69,35.75-14.26,76.39-9.4,30.39-20.03,58.84-21.68,63.23Z"/>
        </g>
        <g>
          <path class="cls-6" d="M966.8,634.03c-.13,.8-10.56,2.67-11.79,13.69-1.24,11.02,43.83,49.64,51.62,43.79,7.79-5.86-6.82-28.06-15.1-41.16-8.28-13.11-24.73-16.31-24.73-16.31Z"/>
          <path class="cls-6" d="M1004.48,693.46c-2.52,0-5.95-1.26-10.48-3.84-14.31-8.17-41.43-32.26-40.33-42.04,1.06-9.47,8.25-12.68,11.31-14.05,.29-.13,.61-.27,.79-.36,.08-.09,.16-.17,.26-.23,.23-.16,.5-.24,.77-.24h.08l.18,.02c.17,.03,17.09,3.43,25.61,16.92l1.15,1.81c9.31,14.69,22.06,34.81,13.62,41.15-.77,.58-1.76,.87-2.96,.87Zm-37.35-57.97c-.27,.15-.59,.29-1.02,.49-2.67,1.19-8.87,3.96-9.76,11.9-.76,6.77,21.83,29.6,38.99,39.4,5.06,2.89,7.76,3.49,9.13,3.49h0c.59,0,1.05-.11,1.34-.34,6.44-4.84-7.04-26.12-14.28-37.55l-1.15-1.81c-7.01-11.1-20.59-14.92-23.26-15.58Z"/>
        </g>
        <g>
          <path class="cls-3" d="M976.53,620.41l5.73,22.96s-12.91,3.66-19.15-5.97c-3.39-17.1-3.86-18.41-3.86-18.41,0,0,13.13-3.35,17.28,1.43Z"/>
          <path class="cls-6" d="M976.67,644.59c-4.41,0-10.35-1.21-14.03-6.89-.04-.06-.07-.13-.08-.2-3.29-16.6-3.84-18.32-3.84-18.33-.05-.15-.04-.32,.03-.46,.07-.14,.21-.24,.36-.28,.55-.14,13.52-3.38,17.85,1.6,.06,.07,.1,.15,.12,.23l5.73,22.96c.07,.3-.1,.6-.39,.68-.06,.02-2.48,.68-5.74,.68Zm-13.02-7.41c5.26,7.99,15.49,6.31,17.93,5.77l-5.56-22.27c-3.5-3.79-13.59-1.83-16.08-1.28,.33,1.32,1.25,5.41,3.7,17.78Z"/>
        </g>
        <g>
          <path class="cls-7" d="M751.88,402.07s-1.58,42.56,77.5,56.88c79.08,14.33,114.61,167.33,114.61,167.33,0,0,35.53,8.6,39.54-8.02-13.75-57.88-39.54-197.13-134.1-224.07-68.77-19.48-97.56,7.87-97.56,7.87Z"/>
          <path class="cls-6" d="M962.25,629.85c-9.4-.07-18.48-2.24-18.57-2.26-.5-.12-.88-.51-1-1.01-.09-.38-9.12-38.69-27.57-78.04-16.99-36.24-45.69-80.97-85.97-88.27-41.27-7.48-60.43-22.79-69.24-34.32-9.68-12.68-9.39-23.48-9.37-23.94,.01-.35,.16-.69,.42-.93,.3-.29,7.58-7.11,23.56-11.56,8.68-2.42,18.37-3.65,28.81-3.65,14.41,0,30.05,2.36,46.49,7.02,20.81,5.93,39.76,17.75,56.32,35.14,14.07,14.78,26.78,33.98,37.79,57.07,20.01,41.98,30.86,89.16,38.04,120.38l.04,.17c1.01,4.38,1.96,8.52,2.85,12.29,.05,.2,.05,.41,0,.63-1.78,7.38-9.43,11.28-22.12,11.28h-.48Zm-17.14-4.7c2.29,.49,9.64,1.95,17.18,2h.47c7.75,0,17.37-1.55,19.39-8.91-.88-3.7-1.81-7.75-2.79-12.03-7.18-31.22-17.99-78.23-37.87-119.94-23.58-49.49-54.68-80.03-92.41-90.78-16.2-4.59-31.59-6.92-45.75-6.92-10.15,0-19.57,1.19-28,3.53-13.16,3.65-20.24,9.03-22.08,10.57,.09,2.46,1,11.45,8.87,21.72,8.52,11.12,27.16,25.92,67.52,33.23,18.34,3.32,35.85,14.3,52.04,32.62,12.87,14.57,24.95,33.81,35.9,57.17,17.1,36.49,26.11,71.87,27.54,77.73Z"/>
        </g>
        <g>
          <path class="cls-6" d="M818.28,243.3s3.02,16.9,0,18.71c-3.02,1.81-14.28-1.21-14.08-2.21,.2-1.01,2.61-14.69,2.61-14.69l11.48-1.81Z"/>
          <path class="cls-6" d="M815.26,263.14c-4.1,0-9.87-1.64-11.12-2.52-.4-.28-.56-.59-.5-.93,.2-.99,2.58-14.54,2.6-14.68,.04-.24,.23-.42,.47-.46l11.48-1.81c.3-.05,.59,.16,.64,.46,.52,2.89,2.93,17.38-.27,19.3-.76,.46-1.94,.64-3.31,.64Zm-10.47-3.43c1.24,.94,10.59,3.39,13.2,1.82,1.8-1.08,1-10.75-.17-17.59l-10.53,1.66c-.38,2.19-2.17,12.32-2.5,14.1Z"/>
        </g>
        <g>
          <path class="cls-3" d="M885.14,334.98c-4.38,.81-9.22,2.41-19.25,6.42-28.44,7.57,4.74-65.86-43.4-80.66l-2.87,104.06c31.68,4.37,59.8-14.76,66.27-16.04,3.98-.79,6.12-13.89-.75-13.77Z"/>
          <path class="cls-6" d="M829.19,366.79c-3.3,0-6.58-.22-9.76-.66-.68-.1-1.18-.69-1.16-1.37l2.87-104.06c.01-.42,.22-.81,.56-1.06,.23-.16,.5-.25,.79-.25,.13,0,.27,.02,.39,.06,27.95,8.59,29.38,36.52,30.43,56.92,.56,10.82,1.04,20.15,5.16,23.16,1,.73,2.2,1.08,3.67,1.08,.99,0,2.12-.17,3.36-.49,9.94-3.98,14.86-5.62,19.39-6.45h.07s.23-.02,.23-.02c3.18,0,5.29,2.23,5.69,5.97,.46,4.32-1.5,9.84-4.73,10.48-1.34,.27-4.17,1.6-7.45,3.15-10.75,5.08-28.72,13.56-49.49,13.56h-.02Zm-8.19-3.18c2.68,.32,5.43,.48,8.2,.48,20.17,0,37.79-8.32,48.32-13.29,3.74-1.77,6.44-3.04,8.11-3.37,1.24-.25,2.95-4,2.57-7.55-.17-1.62-.83-3.55-2.97-3.55-4.22,.79-9,2.39-18.84,6.32l-.17,.06c-1.46,.39-2.84,.59-4.08,.59-2.03,0-3.8-.54-5.25-1.6-5.16-3.76-5.65-13.22-6.27-25.19-1.04-20.22-2.33-45.31-26.83-53.93l-2.79,101.03Z"/>
        </g>
        <g>
          <path class="cls-3" d="M885.59,336.37s13.58,.8,16.4,5.33c2.82,4.53,2.31,14.49,2.31,14.49,0,0-4.45,4.08-10.06,.7-5.62-3.37-5.84-10.06-9.76-10.46-4.83-3.62-1.91-9.16,1.11-10.06Z"/>
          <path class="cls-6" d="M898.76,359.57c-1.78,0-3.53-.51-5.21-1.52-3.1-1.86-4.7-4.61-5.98-6.81-1.24-2.13-2-3.34-3.23-3.47-.25-.03-.48-.12-.68-.27-3.25-2.44-3.27-5.39-3-6.93,.45-2.53,2.36-4.85,4.53-5.5,.12-.04,.25-.06,.38-.06,1.54,.09,14.44,.98,17.55,5.97,2.95,4.74,2.57,14.21,2.52,15.27-.02,.36-.17,.68-.43,.93-.11,.1-2.67,2.39-6.46,2.39Zm-13.72-14.42c2.38,.45,3.59,2.53,4.87,4.74,1.19,2.04,2.53,4.35,5.03,5.85,1.27,.76,2.57,1.15,3.88,1.15h0c1.96,0,3.47-.88,4.16-1.37,.04-1.95,.06-9.59-2.13-13.11-1.84-2.96-10.26-4.33-15.07-4.68-1.13,.46-2.19,1.88-2.44,3.32-.27,1.54,.32,2.95,1.71,4.1Z"/>
        </g>
        <g>
          <path class="cls-3" d="M829.59,263.93c-10.81-7.04-25.96-9.05-47.77-4.41,0,0-24.44,1.28-29.23,32.66-5.73,37.55-3.53,113.18-3.53,113.18,0,0,106.68,.86,113.84-26.08-11.12-17.62-20.69-25.76-18.78-60.33l-14.54-55.03Z"/>
          <path class="cls-6" d="M749.04,406.72c-.71,0-1.3-.58-1.32-1.31-.09-3.1-2.09-76.48,3.55-113.42,2.55-16.71,10.66-25.02,17.02-29.04,6.69-4.23,12.74-4.73,13.41-4.77,7.76-1.66,15.01-2.51,21.46-2.51,10.93,0,19.82,2.33,27.18,7.13,.62,.41,.8,1.24,.39,1.87-.25,.38-.67,.61-1.13,.61-.26,0-.52-.08-.74-.22-6.91-4.5-15.32-6.69-25.71-6.69-6.26,0-13.34,.83-21.05,2.47l-.21,.03c-.23,.01-5.97,.42-12.21,4.39-5.86,3.73-13.36,11.46-15.75,27.13-5.23,34.31-3.82,100.88-3.55,111.63,38.66-.05,104.74-5.26,111.06-24.53-1.46-2.29-2.88-4.41-4.26-6.47-8.98-13.41-16.07-24.01-14.4-54.14,.04-.73,.61-1.27,1.34-1.27,.83,.05,1.4,.68,1.36,1.43-1.62,29.23,4.91,38.98,13.95,52.48,1.5,2.25,3.04,4.55,4.62,7.05,.2,.32,.26,.71,.16,1.07-3.13,11.76-23.57,19.88-60.76,24.13-24.54,2.81-48.83,2.95-53.44,2.95-.61,0-.94,0-.97,0Z"/>
        </g>
        <g>
          <polygon class="cls-6" points="866.96 397.45 910.98 368.66 908.7 368.66 870.1 391.05 866.96 397.45"/>
          <path class="cls-6" d="M866.96,398.02c-.13,0-.27-.05-.37-.14-.19-.17-.24-.44-.13-.67l3.14-6.4c.05-.1,.13-.18,.22-.24l38.6-22.39c.09-.05,.18-.08,.28-.08h2.28c.25,0,.47,.16,.54,.4,.07,.24-.02,.5-.23,.63l-44.02,28.79c-.09,.06-.2,.09-.31,.09Zm3.57-6.57l-2.16,4.4,40.71-26.63h-.23l-38.32,22.22Z"/>
        </g>
        <g>
          <polygon class="cls-6" points="814.85 374.71 870.38 391.49 866.96 397.45 812.23 379.29 814.85 374.71"/>
          <path class="cls-6" d="M866.96,398.02c-.06,0-.12,0-.18-.03l-54.73-18.16c-.16-.05-.29-.18-.35-.33-.06-.16-.05-.33,.04-.48l2.62-4.58c.13-.23,.4-.34,.65-.26l55.54,16.78c.16,.05,.3,.17,.36,.33,.06,.16,.05,.34-.04,.49l-3.42,5.96c-.1,.18-.29,.28-.49,.28Zm-53.9-19.04l53.64,17.8,2.84-4.94-54.43-16.44-2.05,3.59Z"/>
        </g>
        <g>
          <path class="cls-3" d="M875.21,348.76c-1.81,.4-60.37,25.96-60.37,25.96l55.54,16.78,45.07-28.45-40.25-14.29Z"/>
          <path class="cls-6" d="M870.38,392.84c-.13,0-.26-.02-.39-.06l-55.54-16.78c-.54-.16-.92-.65-.96-1.21-.03-.56,.29-1.09,.8-1.31,17.66-7.7,58.9-25.66,60.62-26.04l.08-.02h.21c.15-.01,.3,.01,.45,.06l40.25,14.29c.48,.17,.83,.61,.89,1.12,.06,.52-.18,1.01-.62,1.29l-45.07,28.45c-.22,.14-.47,.21-.72,.21Zm-.2-2.82l42.2-26.64-37.19-13.2c-4.16,1.56-37.43,16.01-56.45,24.3l51.44,15.54Z"/>
        </g>
        <g>
          <polygon class="cls-6" points="919.28 333.46 870.1 391.05 873.75 393.31 922.11 336.37 919.28 333.46"/>
          <path class="cls-6" d="M873.74,393.88c-.1,0-.21-.03-.3-.08l-3.65-2.26c-.14-.09-.23-.23-.26-.39s.02-.33,.13-.45l49.18-57.59c.1-.12,.25-.19,.41-.2,.16,0,.31,.06,.42,.17l2.83,2.9c.2,.21,.22,.54,.03,.76l-48.37,56.95c-.11,.13-.27,.2-.43,.2Zm-2.79-2.96l2.68,1.66,47.72-56.18-2.04-2.09-48.35,56.62Z"/>
        </g>
        <g>
          <polygon class="cls-6" points="967.7 305.87 919.28 333.46 922.11 336.37 969.49 308.7 967.7 305.87"/>
          <path class="cls-6" d="M922.12,336.93c-.15,0-.29-.06-.4-.17l-2.83-2.9c-.12-.13-.18-.3-.15-.47,.02-.17,.13-.33,.28-.41l48.42-27.59c.26-.15,.59-.07,.76,.19l1.79,2.82c.08,.13,.11,.29,.07,.44s-.13,.28-.26,.35l-47.38,27.67c-.09,.05-.19,.08-.28,.08Zm-1.92-3.34l2.02,2.06,46.49-27.15-1.19-1.88-47.32,26.96Z"/>
        </g>
        <g>
          <polygon class="cls-3" points="873.75 393.31 924.11 363.3 969.49 308.7 922.11 336.37 873.75 393.31"/>
          <path class="cls-6" d="M873.75,394.66c-.4,0-.77-.17-1.03-.47-.43-.51-.43-1.24,0-1.75l48.37-56.95c.1-.11,.21-.21,.35-.29l47.38-27.67c.2-.12,.44-.18,.68-.18,.4,0,.77,.17,1.03,.48,.43,.5,.43,1.23,0,1.74l-45.38,54.6c-.1,.12-.21,.22-.35,.3l-50.37,30.02c-.21,.12-.45,.19-.69,.19Zm6.29-6.67l43.19-25.74,40.34-48.53-40.57,23.69-42.96,50.58Z"/>
        </g>
        <g>
          <path class="cls-3" d="M774.8,261.2s-67.86,20.26-48.01,89.75c14.9,52.14,77.96,20.78,93.62,12.05,6.34-3.4,4.12-12.89-4.17-12.74-2.39,.89-5.13,1.95-8.35,3.24-17.88,7.15-64.2,.51-54.52-40.52l21.43-51.79Z"/>
          <path class="cls-6" d="M764.96,381.66c-6.48,0-12.32-1.06-17.36-3.14-10.79-4.46-18.23-13.61-22.11-27.2-4.6-16.11-4.89-30.94-.87-44.11,3.23-10.55,9.21-20.03,17.79-28.18,14.5-13.77,31.82-19.08,31.99-19.13,.13-.04,.26-.06,.39-.06,.6,0,1.12,.39,1.29,.96,.21,.72-.19,1.47-.91,1.68-.17,.05-16.85,5.14-30.94,18.53-12.93,12.29-26.23,34.33-16.16,69.56,3.64,12.75,10.56,21.31,20.55,25.44,4.73,1.95,10.23,2.94,16.36,2.94,21.67,0,45.51-11.99,54.76-17.15,2.33-1.25,3.43-3.61,2.8-6.02-.5-1.93-2.39-4.17-6.06-4.19-2.29,.85-4.94,1.88-8.1,3.14-4.1,1.64-9.68,2.54-15.71,2.54-12.49,0-23.99-3.74-31.56-10.26-9.33-8.04-12.47-19.92-9.06-34.36,.15-.61,.68-1.04,1.31-1.04h.09l.22,.04c.72,.17,1.17,.89,1,1.62-3.16,13.4-.33,24.36,8.19,31.7,7.1,6.12,17.95,9.62,29.76,9.62,5.61,0,10.99-.86,14.75-2.37,3.29-1.32,6.03-2.38,8.38-3.25,.14-.05,.3-.08,.45-.08h.2c4.33,0,7.76,2.43,8.74,6.2,.94,3.6-.71,7.25-4.12,9.07-9.41,5.25-33.73,17.47-56.08,17.47h0Z"/>
        </g>
        <g>
          <path class="cls-3" d="M807.03,266.4l1.22-17.96s25.59,8.68,26.4-33.51c.49-25.6-22.17-31.91-35.35-18.44-13.18,13.47-5.62,36.39-8.83,46.13-2.13,6.46-9.53,15.77-12.23,21.51-1.37,2.92,20.2,15.17,28.79,2.27Z"/>
          <path class="cls-6" d="M795.56,273.52c-6.42,0-12.01-2.87-13.57-3.76-1.87-1.06-6.11-3.78-4.97-6.21,1.15-2.45,3.07-5.44,5.11-8.6,2.89-4.49,5.86-9.12,7.06-12.75,1.01-3.05,.87-7.66,.71-12.99-.32-10.83-.71-24.32,8.43-33.66,4.54-4.64,10.57-7.3,16.54-7.3,2.66,0,5.23,.51,7.64,1.52,8.67,3.64,13.72,13.05,13.48,25.19-.31,16.17-4.24,27.02-11.68,32.25-3.15,2.21-6.77,3.33-10.78,3.33-1.65,0-3.06-.2-4.05-.4l-1.11,16.35c-.01,.23-.09,.46-.22,.66-2.78,4.17-7.13,6.37-12.6,6.37Zm-15.98-9.05c.25,.41,1.23,1.52,3.74,2.94,2.92,1.65,7.66,3.41,12.22,3.41s7.89-1.64,10.18-4.88l1.19-17.59c.03-.41,.25-.8,.6-1.03,.22-.15,.48-.23,.75-.23,.15,0,.29,.02,.43,.07,.02,0,2.01,.65,4.83,.65,3.48,0,6.6-.95,9.26-2.82,6.69-4.71,10.23-14.83,10.52-30.09,.21-11.15-4.1-19.4-11.83-22.64-2.08-.87-4.3-1.31-6.6-1.31-5.25,0-10.57,2.36-14.61,6.49-8.34,8.52-7.97,21.37-7.66,31.69,.16,5.59,.31,10.41-.85,13.92-1.31,3.97-4.38,8.74-7.35,13.37-1.92,2.99-3.74,5.81-4.83,8.06Z"/>
        </g>
      </g>
      <g>
        <path class="cls-6" d="M764.1,265.66s12.72-3.85,19.98-5.19c16.63-3.96,14.35-21.4,13.28-33.74-1.07-12.34,3.76-15.02,5.9-13.68s9.49-1.07,11.59-6.17c13.36,.27,12.28,12.8,23.06,14.94,0,0,11.93-17.09,3.4-28.89-8.54-11.81-20.88-7.51-20.88-7.51,0,0-15.29-13.42-31.66,.8-16.37,14.22-25.74,69.85-24.67,79.44Z"/>
        <path class="cls-6" d="M764.1,266.23c-.11,0-.22-.03-.31-.09-.14-.09-.23-.24-.25-.41-.57-5.06,1.63-21.62,5.81-38.19,3.04-12.05,9.55-33.49,19.05-41.74,15.41-13.39,30.09-2.65,32.15-1.01,2.01-.57,13.29-3.15,21.21,7.81,8.67,11.99-2.9,28.84-3.39,29.55-.13,.18-.35,.27-.57,.23-5.1-1.02-7.66-4.28-10.14-7.43-2.92-3.72-5.69-7.23-12.44-7.49-1.47,3.15-4.74,5.16-7.38,6.01-2.06,.66-3.88,.69-4.87,.06-.55-.35-1.31-.29-2.02,.14-.92,.57-3.87,3.18-3.02,13.01l.14,1.53c1.09,12.2,2.59,28.9-13.85,32.81-7.16,1.32-19.82,5.14-19.94,5.18-.05,.02-.11,.02-.16,.02Zm40.77-86.02c-4.71,0-10.14,1.59-15.73,6.44-15.64,13.59-25.15,66.94-24.53,78.27,2.73-.81,13.12-3.85,19.37-5.01,15.45-3.68,14.07-19.16,12.96-31.6l-.14-1.53c-.89-10.19,2.19-13.24,3.55-14.07,1.09-.66,2.29-.72,3.21-.14,.69,.43,2.24,.36,3.93-.18,2.5-.8,5.61-2.73,6.84-5.73,.09-.22,.29-.35,.53-.35,7.56,.15,10.68,4.11,13.68,7.93,2.4,3.05,4.66,5.93,9.11,6.94,1.53-2.34,10.78-17.44,3.2-27.93-8.18-11.31-19.75-7.48-20.23-7.31-.19,.07-.4,.02-.56-.11-.39-.34-6.59-5.64-15.19-5.64Z"/>
      </g>
      <g>
        <path class="cls-3" d="M816.97,351.96s15.49-5.53,23.54-1.91,10.36,23.34,10.36,23.34c0,0-.5,1.31-2.72,0-2.21-1.31-5.63-12.92-5.63-12.92,0,0-1.21,6.18-6.34,7.59-5.13,1.41-10.76-2.82-12.12-4.43-1.36-1.61-7.1-2.24-7.1-2.24,0,0-2.72-5.21,0-9.44Z"/>
        <path class="cls-6" d="M849.85,375.32c-.71,0-1.51-.26-2.38-.77-1.41-.84-3.12-4.21-5.08-10.03-1.06,1.88-2.88,4.02-5.85,4.84-.79,.22-1.63,.33-2.49,.33-4.97,0-9.65-3.56-11.02-5.18-.54-.64-3.44-1.46-6.21-1.77-.45-.05-.84-.32-1.05-.72-.13-.24-3.04-5.96,.06-10.79,.16-.25,.4-.44,.68-.54,.37-.13,9.11-3.23,16.99-3.23,3.02,0,5.56,.46,7.56,1.36,8.65,3.89,11.05,23.58,11.15,24.42,.03,.22,0,.44-.08,.64-.06,.15-.4,.95-1.4,1.3-.28,.1-.58,.15-.89,.15Zm-7.32-16.2c.59,0,1.13,.4,1.29,.97,1.74,5.92,4.09,11.59,5.03,12.14,.22,.13,.4,.22,.55,.28-1.05-7.14-4.08-18.82-9.43-21.23-1.64-.74-3.79-1.11-6.39-1.11-6.46,0-13.7,2.25-15.69,2.91-1.43,2.64-.51,5.72,.02,7.08,2.01,.28,5.85,1.01,7.2,2.61,.92,1.09,4.89,4.23,8.91,4.23h0c.64,0,1.25-.08,1.83-.24,4.22-1.16,5.36-6.5,5.37-6.55,.12-.61,.64-1.06,1.26-1.08h.06Z"/>
      </g>
      <path class="cls-6" d="M677.02,553.67c-.32,0-.63-.18-.77-.49-.19-.43,0-.93,.42-1.12l85.59-39.17c.43-.19,.93,0,1.12,.42,.19,.43,0,.93-.42,1.12l-85.59,39.17c-.11,.05-.23,.08-.35,.08Z"/>
      <path class="cls-6" d="M659.04,584.53c-.32,0-.62-.18-.77-.49-.2-.42-.02-.93,.41-1.13l84.78-39.73c.43-.2,.93-.02,1.13,.41,.2,.42,.02,.93-.41,1.13l-84.78,39.73c-.12,.05-.24,.08-.36,.08Z"/>
      <path class="cls-6" d="M642.77,614.52c-.32,0-.62-.18-.77-.49-.2-.42-.02-.93,.41-1.13l88.71-41.53c.42-.2,.93-.02,1.13,.41,.2,.42,.02,.93-.41,1.13l-88.71,41.53c-.12,.05-.24,.08-.36,.08Z"/>
      <path class="cls-6" d="M610.06,409.75c-.3,0-.6-.16-.75-.45-.22-.41-.06-.93,.35-1.15l73-38.78c.41-.22,.93-.06,1.15,.35,.22,.41,.06,.93-.35,1.15l-73,38.78c-.13,.07-.26,.1-.4,.1Z"/>
      <path class="cls-6" d="M565.25,448.73c-.32,0-.62-.18-.76-.48-.2-.42-.03-.93,.4-1.13l96.1-46.22c.42-.2,.93-.03,1.13,.4,.2,.42,.03,.93-.4,1.13l-96.1,46.22c-.12,.06-.24,.08-.37,.08Z"/>
      <path class="cls-6" d="M549.7,503.25c-.31,0-.6-.17-.75-.46-.21-.42-.05-.93,.37-1.14l111.88-57.55c.42-.21,.93-.05,1.14,.37,.21,.42,.05,.93-.37,1.14l-111.88,57.55c-.12,.06-.26,.09-.39,.09Z"/>
      <path class="cls-6" d="M605.64,523.25c-.27,0-.54-.13-.7-.38-.26-.39-.16-.91,.23-1.17l32.86-22c.39-.26,.91-.16,1.17,.23,.26,.39,.16,.91-.23,1.17l-32.86,22c-.14,.1-.31,.14-.47,.14Z"/>
      <path class="cls-6" d="M547.84,480.99c-.31,0-.62-.18-.76-.48-.2-.42-.03-.93,.39-1.13l105.04-51.11c.42-.2,.93-.03,1.13,.39,.2,.42,.03,.93-.39,1.13l-105.04,51.11c-.12,.06-.25,.09-.37,.09Z"/>
      <path class="cls-6" d="M593.45,295.19c-.3,0-.59-.16-.74-.43-.23-.41-.08-.92,.33-1.15l89.61-49.9c.41-.23,.92-.08,1.15,.33,.23,.41,.08,.92-.33,1.15l-89.61,49.9c-.13,.07-.27,.11-.41,.11Z"/>
      <g>
        <path class="cls-6" d="M295.82,409.33c-.22,0-.43-.05-.63-.14l-43.72-19.74c-.51-.23-.86-.72-.93-1.29-.07-.56,.16-1.13,.59-1.47l37.79-30.76c.27-.22,.62-.35,.97-.35,.22,0,.43,.05,.63,.14,.51,.23,.86,.72,.93,1.29l5.93,50.5c.07,.56-.16,1.12-.59,1.47-.27,.22-.62,.35-.97,.35Zm-1.89-4.24l-5.26-44.82-33.54,27.3,38.8,17.52Z"/>
        <g>
          <polygon class="cls-6" points="233.98 558.11 216.98 555.15 199.97 552.18 210.87 537.86 221.76 523.54 227.87 540.83 233.98 558.11"/>
          <path class="cls-6" d="M233.98,558.67s-.06,0-.08,0l-34.01-5.93c-.18-.03-.34-.17-.4-.35-.07-.19-.03-.4,.08-.55l21.79-28.64c.12-.15,.3-.23,.49-.2,.18,.03,.34,.17,.4,.35l12.22,34.57c.07,.19,.03,.4-.08,.55-.1,.13-.25,.21-.4,.21Zm-33.03-6.89l32.23,5.62-11.58-32.76-20.65,27.14Z"/>
        </g>
      </g>
      <g>
        <path class="cls-3" d="M791.36,276.38l1.32,.26s.54,.1,1.36,.1c1.67,0,4.12-.39,6.33-2.25l.65-.55,.49,.7c4.44,6.29,3.9,28.61,3.46,37.92l-1.53,.21-12.09-36.39Z"/>
        <path class="cls-6" d="M804.17,313.87c-.78-.04-1.36-.67-1.32-1.41,.31-6.56,1.01-27.92-2.4-35.38-2.34,1.47-4.72,1.8-6.38,1.8-1.01,0-1.68-.12-1.8-.15-.73-.15-1.2-.86-1.06-1.59,.13-.63,.68-1.09,1.32-1.09h.08l.19,.03s.48,.09,1.23,.09c1.59,0,3.92-.37,5.99-2.11,.24-.2,.55-.32,.87-.32h.17c.38,.06,.72,.26,.93,.57,4.37,6.21,4.11,26.64,3.57,38.27-.03,.72-.63,1.29-1.35,1.29h-.03Z"/>
      </g>
      <g>
        <path class="cls-3" d="M839.04,286.5l1.49-.46c.25,.56,5.99,13.81,4.63,25.36l-1.55,.05-4.57-24.95Z"/>
        <path class="cls-6" d="M844.24,312.66c-.75-.09-1.28-.76-1.2-1.5,1.29-10.99-4.41-24.12-4.46-24.25-.3-.68,.01-1.48,.69-1.78,.17-.08,.35-.11,.54-.11,.53,0,1.02,.32,1.24,.81,.25,.56,6.05,13.94,4.67,25.65-.08,.68-.66,1.19-1.34,1.19h-.14Z"/>
      </g>
      <path class="cls-6" d="M687.13,626.06c-.32,0-.62-.18-.77-.49-.2-.42-.02-.93,.41-1.13l49.28-23.07c.42-.2,.93-.02,1.13,.41,.2,.42,.02,.93-.41,1.13l-49.28,23.07c-.12,.05-.24,.08-.36,.08Z"/>
      <g>
        <path class="cls-6" d="M801.98,182.73s-4.09-20.73-21.53-12.07c-17.44,8.65-6.84,49.3-6.84,49.3l28.37-37.23Z"/>
        <path class="cls-6" d="M773.61,220.52s-.07,0-.11-.01c-.21-.04-.38-.2-.44-.41-.44-1.68-10.52-41.19,7.14-49.95,5.07-2.51,9.55-2.85,13.31-.99,6.97,3.44,8.94,13.05,9.02,13.46,.03,.16,0,.32-.11,.45l-28.37,37.23c-.11,.14-.27,.22-.45,.22Zm14.73-51.41c-2.33,0-4.89,.68-7.64,2.05-15.22,7.55-8.36,40.88-6.82,47.51l27.49-36.07c-.35-1.5-2.48-9.53-8.36-12.43-1.43-.71-2.99-1.06-4.67-1.06Z"/>
      </g>
      <g>
        <polygon class="cls-7" points="923.19 467.48 915.46 480.59 929.09 475.45 924.53 485.11 931.24 485.11 923.19 467.48"/>
        <path class="cls-6" d="M931.24,485.67h-6.71c-.19,0-.37-.1-.48-.26-.1-.16-.12-.37-.03-.54l3.97-8.4-12.33,4.65c-.22,.08-.48,.02-.63-.16-.15-.18-.18-.44-.05-.65l7.73-13.11c.16-.27,.5-.36,.77-.2,.27,.16,.36,.5,.2,.77l-6.92,11.73,12.13-4.58c.21-.08,.46-.02,.61,.15,.16,.17,.19,.42,.1,.62l-4.18,8.85h5.82c.31,0,.56,.25,.56,.56s-.25,.56-.56,.56Z"/>
      </g>
      <g>
        <polygon class="cls-7" points="961.98 454.62 956.19 463.37 964.77 463.37 957.53 469.81 961.98 472.23 961.98 454.62"/>
        <path class="cls-6" d="M961.98,472.79c-.09,0-.18-.02-.27-.07l-4.45-2.41c-.16-.09-.27-.25-.29-.43s.05-.36,.19-.49l6.13-5.45h-7.1c-.21,0-.4-.11-.5-.3-.1-.18-.09-.41,.03-.58l5.79-8.76c.17-.26,.52-.33,.78-.16,.26,.17,.33,.52,.16,.78l-5.21,7.88h7.54c.23,0,.44,.14,.53,.36s.02,.47-.15,.62l-6.64,5.9,3.75,2.03c.27,.15,.38,.49,.23,.77-.1,.19-.3,.3-.5,.3Z"/>
      </g>
    </g>
    <g>
      <path class="cls-8" d="M1284.49,336.55c-.77,0-1.38-.34-1.69-.93-.24-.42-.26-.96-.04-1.44,.24-.51,.72-.87,1.29-.97,.49-.07,.95-.12,1.41-.18,.86-.1,1.73-.21,2.6-.36,.27-.04,.48-.07,.68-.07,.38,0,.73,.09,1.02,.28,.43,.26,.71,.69,.78,1.18,.07,.49-.09,.97-.43,1.33-.41,.46-1,.56-1.35,.62-1.36,.22-2.65,.39-3.89,.51-.09,.01-.23,.02-.37,.02Z"/>
      <path class="cls-8" d="M1261.89,304.35c-.64-.02-1.26-.43-1.52-1.06-.25-.59-.13-1.24,.31-1.71,.87-.95,4.41-1.16,5.02-1.16,1.04,0,1.64,.18,2.02,.62,.29,.29,.45,.73,.42,1.18-.03,.45-.24,.87-.6,1.16-.49,.44-1.15,.44-1.51,.44-1.18,0-2.22,.14-3.22,.41-.2,.05-.48,.13-.79,.13-.03,0-.11,0-.13,0Z"/>
      <path class="cls-8" d="M1279.79,325.87c-.91,0-1.64-.7-1.69-1.62-.02-.37,.07-.69,.14-.92,.32-1.03,.53-2.07,.64-3.1,.05-.39,.13-1.1,.74-1.56,.26-.22,.65-.35,1.04-.35,.46,0,.91,.19,1.22,.52,1.3,1.15-.46,5.87-.48,5.92-.26,.67-.9,1.12-1.62,1.12Z"/>
      <path class="cls-8" d="M1274.38,333.84c-.85,0-1.54-.6-1.66-1.47,0-.03,0-.09-.01-.12-.04-.75,.44-1.25,.7-1.51,.77-.79,1.43-1.57,2.02-2.36,.23-.31,.54-.71,1.09-.89,.14-.05,.33-.08,.52-.08,.54,0,1.05,.26,1.38,.7,.31,.42,.41,.95,.26,1.44-.08,.32-.29,.61-.4,.76-.75,1.02-1.58,1.99-2.48,2.89-.31,.38-.87,.65-1.43,.65Z"/>
      <path class="cls-8" d="M1275.27,307.69c-.62-.07-1.03-.42-1.27-.64-.79-.7-1.59-1.27-2.45-1.74-.37-.2-.96-.52-1.15-1.23-.13-.49-.03-1,.27-1.4,.33-.43,.85-.69,1.4-.69,.24,0,.47,.05,.68,.14,1.3,.6,2.56,1.48,3.78,2.6,.53,.44,.75,1.21,.5,1.88-.24,.65-.86,1.08-1.59,1.08-.03,0-.15,0-.18,0Z"/>
      <path class="cls-8" d="M1280.11,316.3c-.41,0-.8-.15-1.1-.41-.44-.36-.57-.88-.65-1.18,0,0-.03-.11-.03-.12-.26-1-.59-1.97-.98-2.87-.56-1.17-.07-1.9,.27-2.23,.28-.29,.73-.48,1.2-.48,.25,0,.51,.06,.73,.16,.59,.27,.84,.82,.97,1.11,.47,1.08,.85,2.19,1.15,3.34l.04,.14c.08,.28,.18,.67,.1,1.12-.16,.84-.87,1.42-1.7,1.42Z"/>
      <path class="cls-8" d="M1320.72,319.57c-.48,0-.95-.21-1.28-.56-.33-.35-.49-.81-.46-1.27,.02-.56,.36-.97,.6-1.27l.13-.16c.11-.14,.17-.21,.22-.29,.27-.38,.64-.9,1.3-1.05,.12-.03,.25-.04,.39-.04,.51,0,1.03,.23,1.37,.63,.32,.36,.46,.84,.4,1.3-.06,.45-.32,.8-.5,1.06-.21,.29-.39,.51-.57,.73-.27,.33-.71,.89-1.48,.93-.02,0-.09,0-.11,0Z"/>
      <path class="cls-8" d="M1313.09,325.95c-.06,0-.21-.01-.27-.02-.84-.14-1.42-.85-1.37-1.67,.01-.84,.72-1.32,1.02-1.53,.86-.58,1.73-1.21,2.75-2.01,.29-.26,.73-.43,1.17-.43,.68,0,1.29,.39,1.55,.99,.26,.59,.12,1.28-.35,1.8-.03,.03-.06,.06-.1,.09-.92,.78-1.91,1.47-2.95,2.19l-.13,.09c-.31,.21-.75,.5-1.33,.5Z"/>
      <path class="cls-8" d="M1255.3,311.27c-.59,0-1.14-.31-1.44-.81-.39-.57-.22-1.33-.03-1.92,.25-.76,1.57-3.76,2.79-4.21,.19-.07,.38-.1,.58-.1,.54,0,1.05,.26,1.37,.7,.32,.43,.41,.99,.26,1.49-.08,.31-.28,.59-.41,.77-.57,.77-1.02,1.63-1.34,2.55-.14,.41-.37,1.06-1.08,1.38-.19,.1-.45,.16-.72,.16Z"/>
      <path class="cls-8" d="M1260.02,329.27h0c-.58-.02-1.49-.3-3.55-3.95-.36-.61-.39-1.29-.08-1.85,.29-.51,.84-.83,1.44-.83,.74,0,1.41,.47,1.74,1.22,.44,.78,1.03,1.64,1.64,2.4,.24,.3,.64,.81,.56,1.51-.05,.82-.79,1.5-1.67,1.5-.02,0-.07,0-.09,0Z"/>
      <path class="cls-8" d="M1255.58,320.83c-.84,0-1.58-.63-1.75-1.49-.37-1.3-.63-2.68-.75-4.02-.08-.43,.06-.98,.41-1.39,.33-.4,.81-.62,1.31-.62,.33,0,.66,.1,.95,.28,.69,.49,.77,1.18,.8,1.51,.11,1.06,.3,2.09,.58,3.14,.1,.39,.24,.93,.01,1.51-.31,.69-.9,1.09-1.56,1.09Z"/>
      <path class="cls-8" d="M1268.47,334.95c-1.37,0-4.71-1.94-4.94-2.1-.63-.43-.9-1.16-.68-1.86,.22-.72,.89-1.2,1.66-1.2,.13,0,.26,.01,.4,.04,.33,.07,.59,.22,.79,.33,.94,.54,2,1.04,3.16,1.48,.67,.2,1.22,.83,1.28,1.55,.06,.67-.31,1.28-.95,1.6-.16,.1-.42,.16-.71,.16Z"/>
      <path class="cls-8" d="M1266.2,339.64c-.17,0-.34-.02-.5-.07-.44-.13-.81-.44-1.01-.84-.2-.39-.24-.85-.09-1.27,.19-.64,.77-.95,1.07-1.12,1.03-.55,1.98-1.11,2.87-1.69,.24-.17,.7-.42,1.24-.42,.4,0,.77,.13,1.07,.38,.39,.29,.62,.77,.62,1.29,0,.53-.27,1.03-.7,1.35-1.07,.75-2.25,1.41-3.37,2.02-.32,.17-.7,.37-1.19,.37Z"/>
      <path class="cls-8" d="M1256.72,343.54c-.91,0-1.65-.62-1.76-1.46-.1-.86,.49-1.66,1.41-1.89,.93-.28,2.22-.69,3.45-1.13,.23-.08,.57-.21,.97-.21,.26,0,.51,.05,.74,.16,.8,.32,1.23,1.26,.92,2.09-.27,.75-.97,1-1.31,1.12l-.51,.18c-1.12,.39-2.28,.8-3.48,1.1-.04,.01-.08,.02-.12,.02-.1,.01-.2,.02-.3,.02Z"/>
      <path class="cls-8" d="M1230.18,347.17c-1.31-.02-2.58-.06-3.85-.11-.42-.02-.94-.05-1.4-.38-.54-.37-.8-1.01-.67-1.66,.14-.66,.67-1.18,1.35-1.31,.14-.03,.33-.05,.55-.05h.26c1.25,.06,2.5,.1,3.72,.12,.42,0,1.19,.02,1.73,.64,.26,.27,.42,.69,.41,1.12-.01,.43-.19,.83-.51,1.13-.53,.51-1.2,.51-1.48,.51,0,0-.12,0-.12,0Z"/>
      <path class="cls-8" d="M1220.12,346.61c-.14,0-.29-.01-.42-.02-1.3-.13-2.56-.26-3.82-.42-.41-.05-.93-.12-1.37-.5-.55-.52-.72-1.21-.48-1.82,.26-.66,.96-1.1,1.73-1.1,.12,0,.24,.01,.36,.03l.74,.08c1.04,.12,2.09,.24,3.12,.34,.43,.04,1.2,.12,1.67,.8,.51,.66,.38,1.68-.32,2.23-.33,.26-.74,.39-1.21,.39Z"/>
      <path class="cls-8" d="M1210.38,344.82c-.21,0-.42-.03-.62-.06-1.28-.22-2.53-.45-3.76-.7-.41-.09-.93-.19-1.33-.61-.49-.55-.61-1.22-.35-1.8,.28-.62,.94-1.03,1.68-1.03,.17,0,.34,.02,.51,.06l.68,.13c1.05,.2,2.1,.4,3.14,.58,.43,.07,1.19,.21,1.61,.93,.45,.69,.24,1.7-.5,2.19-.3,.2-.65,.3-1.04,.3Z"/>
      <path class="cls-8" d="M1246.71,345.91c-1.15,0-1.79-.8-1.83-1.58-.05-.92,.67-1.69,1.68-1.8,1.21-.19,2.48-.4,3.71-.64,.22-.04,.46-.08,.7-.08,.42,0,.79,.12,1.1,.34,.7,.46,.93,1.44,.47,2.18-.4,.66-1.09,.8-1.46,.87l-.81,.15c-1.11,.21-2.27,.43-3.43,.55-.04,0-.08,0-.13,0h0Z"/>
      <path class="cls-8" d="M1236.22,347c-1.13-.12-1.68-.96-1.65-1.74,.04-.92,.84-1.62,1.85-1.63l.31-.02c1.19-.06,2.39-.13,3.56-.22,.14-.01,.27-.02,.41-.02,.56,0,1.02,.16,1.36,.48,.64,.55,.74,1.57,.17,2.25-.48,.58-1.17,.64-1.55,.67l-.99,.07c-1.09,.08-2.22,.16-3.35,.17h0s-.08,0-.12,0Z"/>
      <path class="cls-8" d="M1304.16,330.89c-.3,0-.57-.07-.83-.21-.7-.33-1.07-1.18-.83-1.95,.24-.74,.88-1.03,1.22-1.18,1.08-.48,2.1-.96,3.07-1.46,.31-.15,.69-.34,1.16-.34,.05,0,.17,0,.21,.01,.65,.06,1.23,.52,1.44,1.17,.2,.63,0,1.31-.51,1.74-.04,.03-.09,.07-.13,.1-.88,.55-1.83,.97-2.75,1.39-.33,.15-.65,.29-.97,.44-.31,.14-.67,.28-1.08,.28Z"/>
      <path class="cls-8" d="M1294.53,334.48c-.39,0-.74-.11-1.03-.31-.68-.43-.94-1.35-.56-2.09,.35-.69,1.02-.88,1.38-.98,1.17-.32,2.29-.66,3.39-1.02,.28-.09,.6-.19,.96-.19,.16,0,.31,.02,.45,.06,.65,.14,1.16,.67,1.28,1.34,.11,.65-.18,1.31-.75,1.67-.05,.03-.1,.06-.16,.08-.99,.43-2.03,.72-3.04,1-.36,.1-.73,.2-1.08,.31-.26,.07-.53,.14-.83,.14Z"/>
      <path class="cls-8" d="M1278.25,336.86c-1.25-.03-2.66-.14-4.1-.33-.4-.05-1.21-.16-1.64-.91-.45-.69-.26-1.66,.47-2.17,.31-.22,.68-.33,1.1-.33,.17,0,.34,.02,.51,.04,1.19,.15,2.37,.25,3.57,.3,.44,.02,.97,.04,1.45,.38,.64,.5,.86,1.19,.63,1.85-.25,.71-.96,1.18-1.79,1.18-.03,0-.16,0-.19,0Z"/>
    </g>
    <g>
      <path class="cls-5" d="M1342.03,290.04c-3.87-8.37,1.82-13.39,5.15-14.86l59.13-8.42-38.89,50.23c-.15,.23-.32,.45-.5,.65-3.94,4.4-14.65,2.77-18.31-6.16l12.6-9.77c-6.79-4.57-15.59-3.91-19.18-11.68Z"/>
      <path class="cls-9" d="M1342.03,290.04c-3.87-8.37,1.82-13.39,5.15-14.86l59.13-8.42-38.89,50.23c-.15,.23-.32,.45-.5,.65-3.94,4.4-14.65,2.77-18.31-6.16l12.6-9.77c-6.79-4.57-15.59-3.91-19.18-11.68Z"/>
    </g>
  </g>
</svg>