<?xml version="1.0" encoding="UTF-8"?>
<svg id="Layer_1" data-name="Layer 1" xmlns="http://www.w3.org/2000/svg" xmlns:xlink="http://www.w3.org/1999/xlink" viewBox="0 0 1600 1200">
  <defs>
    <style>
      .cls-1, .cls-2 {
        fill: none;
      }

      .cls-3 {
        fill: #1c0311;
      }

      .cls-3, .cls-4, .cls-5, .cls-6, .cls-7, .cls-2 {
        stroke: #1a1a1a;
        stroke-linecap: round;
        stroke-linejoin: round;
      }

      .cls-4, .cls-8, .cls-6, .cls-7 {
        fill: #fff;
      }

      .cls-9 {
        clip-path: url(#clippath);
      }

      .cls-10, .cls-5 {
        fill: #91b5fc;
      }

      .cls-11 {
        fill: #3282f7;
      }

      .cls-12 {
        fill: #1a1a1a;
      }

      .cls-13 {
        fill: #4558ef;
      }

      .cls-14 {
        fill: gray;
      }

      .cls-15 {
        fill: url(#_未命名的渐变_10);
      }

      .cls-5, .cls-6 {
        stroke-width: 2px;
      }

      .cls-16 {
        fill: url(#radial-gradient);
      }

      .cls-7, .cls-2 {
        stroke-width: 1.5px;
      }
    </style>
    <clipPath id="clippath">
      <rect class="cls-1" x="-64.62" y="498.32" width="1714.52" height="583.52"/>
    </clipPath>
    <radialGradient id="radial-gradient" cx="665.45" cy="1383.01" fx="665.45" fy="1383.01" r="795.43" gradientTransform="translate(105.56 807.6) scale(1.05 .21)" gradientUnits="userSpaceOnUse">
      <stop offset=".41" stop-color="#ebebf2"/>
      <stop offset="1" stop-color="#ebebf2" stop-opacity="0"/>
    </radialGradient>
    <linearGradient id="_未命名的渐变_10" data-name="未命名的渐变 10" x1="1578.91" y1="880.52" x2="1590.39" y2="844.9" gradientTransform="translate(573.94 1700.1) rotate(-30.99) scale(1 -1)" gradientUnits="userSpaceOnUse">
      <stop offset=".53" stop-color="#1255f5" stop-opacity="0"/>
      <stop offset=".84" stop-color="#c9d8fd"/>
    </linearGradient>
  </defs>
  <g class="cls-9">
    <ellipse class="cls-16" cx="806.31" cy="1093.92" rx="843.58" ry="166.38"/>
  </g>
  <g>
    <path class="cls-12" d="M1140.36,730.88c-.35,0-.65-.18-.75-.45-1.72-4.3-2.16-8.83-1.28-13.11,.89-4.31,3.07-8.05,6.29-10.82,4-3.44,9.82-5.41,15.98-5.41,.19,0,.37,0,.56,0,3.68,.08,7.36,.82,10.62,2.14,2.88,1.14,5.54,2.69,7.89,4.62l.79,.64,.47-.9c2.46-4.66,8.31-13.22,19.91-18.11,5.31-2.24,11-3.37,16.92-3.37,2.58,0,5.24,.22,7.92,.65,5.12,.83,9.08,2.23,11.5,3.26l.51,.22,.4-.38c4.71-4.57,11.29-7.19,18.05-7.19,1.48,0,2.96,.13,4.4,.37,9.52,1.63,17.25,8.64,19.24,17.44l.09,.41,.39,.17c3.89,1.66,7.08,4.11,9.24,7.11,2.43,3.36,3.62,7.43,3.45,11.78-.16,4.29-1.65,8.67-4.29,12.65-.14,.21-.4,.34-.7,.34-1.16-.02-147.6-2.05-147.6-2.05Zm20.2-28.49c-5.77,0-11.02,1.78-14.77,5-5.78,4.97-7.8,13.67-5.03,21.65l.19,.55,146.52,2.03,.25-.4c4.71-7.63,4.86-16.21,.39-22.41-2.15-2.98-5.37-5.37-9.33-6.91-.23-.09-.4-.27-.44-.48-1.62-8.66-8.91-15.54-18.14-17.12-1.33-.23-2.7-.34-4.06-.34-6.72,0-13.13,2.74-17.59,7.52-.15,.16-.39,.26-.64,.26h-.14l-.25-.08c-2.09-.99-9.79-4.25-19.65-4.25-5.69,0-11.16,1.09-16.26,3.23-12.73,5.36-18.29,15.32-20.09,19.35-.11,.26-.41,.43-.76,.43-.03,0-.1,0-.14,0l-.11-.02c-.14-.04-.27-.1-.37-.2-5.04-4.81-11.97-7.64-19.01-7.78-.19,0-.38,0-.56,0Z"/>
    <path class="cls-12" d="M933.61,916.01c-3.92-5.34-9.76-9.69-16.87-12.59l-.49-.2-.11-.52c-3.4-15.61-17.21-28.03-34.35-30.91-2.57-.43-5.2-.65-7.82-.65-12.3,0-24.19,4.75-32.61,13.04l-.48,.48-.62-.27c-3.65-1.56-11.27-4.42-21.22-6-4.77-.76-9.54-1.14-14.16-1.14-10.57,0-20.75,1.99-30.25,5.92-21.29,8.81-31.8,24.38-36.18,32.88l-.58,1.13-.97-.82c-4.45-3.75-9.52-6.73-15.05-8.88-5.82-2.29-12.36-3.59-18.93-3.73-.34,0-.67,0-1,0-10.95,0-21.31,3.44-28.42,9.43-5.73,4.84-9.6,11.38-11.19,18.91-1.58,7.49-.79,15.43,2.28,22.97,.12,.31,.47,.51,.89,.52l265.79,3.62h0c.36,0,.67-.15,.83-.4,4.72-6.99,7.37-14.66,7.67-22.18,.3-7.6-1.83-14.72-6.14-20.59Zm-2.63,41.2l-.3,.47-264.49-3.6-.24-.65c-5.37-14.44-1.78-30.22,8.95-39.27,6.85-5.78,16.42-8.96,26.95-8.96,.34,0,.68,0,1.02,0,12.82,.25,25.43,5.31,34.6,13.89,.12,.11,.26,.19,.45,.24l.29,.04c.4,0,.76-.2,.9-.49,3.26-7.17,13.34-24.87,36.42-34.42,9.24-3.82,19.17-5.76,29.5-5.76,17.92,0,31.79,5.78,35.62,7.55,.14,.07,.32,.1,.49,.1,.3,0,.59-.11,.77-.3,8.13-8.55,19.82-13.45,32.07-13.45,2.49,0,4.98,.21,7.41,.62,16.81,2.83,30.1,15.12,33.06,30.58,.04,.24,.24,.45,.52,.56,7.21,2.76,13.09,7.04,17.01,12.37,8.26,11.23,7.89,26.74-.98,40.47Z"/>
    <g>
      <g>
        <path class="cls-12" d="M626.7,662.88c-2.58-.28-5.12-.58-7.63-.89-.4-.05-.76-.25-1.01-.57s-.36-.72-.31-1.12c.09-.76,.74-1.34,1.51-1.34h.19c2.5,.32,5.02,.61,7.56,.89,.4,.04,.76,.24,1.02,.56,.25,.32,.37,.71,.32,1.12-.09,.77-.74,1.35-1.51,1.35h-.14Zm-15.2-1.85c-2.55-.34-5.1-.69-7.59-1.05-.4-.06-.76-.27-1-.59-.24-.33-.35-.73-.29-1.13,.11-.74,.76-1.3,1.51-1.3h.2c2.48,.37,5.02,.72,7.55,1.06,.4,.05,.76,.26,1.01,.58,.25,.32,.35,.72,.3,1.13-.1,.75-.75,1.32-1.51,1.32h-.19Zm-15.15-2.2c-2.52-.39-5.05-.81-7.55-1.23-.4-.07-.75-.29-.98-.62-.24-.33-.33-.73-.26-1.13,.12-.73,.75-1.27,1.49-1.27h.08l.19,.02c2.48,.42,5,.83,7.51,1.22,.83,.13,1.4,.91,1.27,1.74-.12,.75-.75,1.29-1.5,1.29l-.23-.02Zm-14.89-2.52l-.19-.02c-2.53-.46-5.05-.94-7.52-1.42-.4-.08-.74-.31-.97-.64-.23-.34-.31-.74-.23-1.14,.14-.71,.76-1.23,1.49-1.23h.08l.21,.03c2.45,.48,4.97,.96,7.48,1.41,.4,.07,.75,.3,.98,.63,.23,.33,.32,.74,.24,1.14-.13,.72-.76,1.25-1.49,1.25h-.08Zm-14.98-2.93l-.21-.03c-2.5-.52-5.02-1.07-7.49-1.63-.82-.19-1.33-1-1.15-1.82,.15-.69,.78-1.19,1.48-1.19h.1l.23,.04c2.46,.55,4.96,1.1,7.44,1.62,.4,.08,.74,.32,.96,.66,.22,.34,.3,.75,.21,1.14-.14,.7-.77,1.21-1.49,1.21h-.09Zm-14.91-3.34l-.25-.04c-2.49-.6-4.99-1.22-7.43-1.84-.39-.1-.72-.35-.93-.7-.21-.35-.27-.76-.17-1.15,.17-.67,.78-1.14,1.47-1.14h.11l.26,.05c2.42,.62,4.9,1.24,7.38,1.83,.82,.2,1.32,1.02,1.12,1.83-.16,.69-.77,1.17-1.48,1.17h-.11Zm-14.8-3.79l-.29-.06c-2.46-.67-4.94-1.37-7.36-2.08-.8-.23-1.27-1.08-1.04-1.88,.19-.65,.79-1.1,1.46-1.1,.15,0,.29,.02,.43,.06,2.4,.7,4.86,1.39,7.31,2.06,.81,.22,1.29,1.06,1.07,1.87-.18,.66-.78,1.12-1.47,1.12h-.12Zm-14.53-4.27c-.15,0-.3-.02-.44-.07-2.45-.76-4.9-1.54-7.3-2.33-.39-.13-.7-.4-.88-.76s-.21-.77-.09-1.16c.2-.62,.78-1.04,1.44-1.04,.16,0,.32,.03,.48,.08,2.38,.79,4.82,1.56,7.24,2.31,.39,.12,.71,.38,.89,.74,.19,.36,.23,.77,.11,1.16-.2,.64-.78,1.07-1.45,1.07Zm-14.49-4.78c-.17,0-.34-.03-.5-.09-2.42-.85-4.84-1.72-7.2-2.6-.79-.29-1.19-1.17-.89-1.95,.22-.59,.8-.99,1.43-.99,.18,0,.36,.03,.53,.1,2.34,.87,4.75,1.74,7.15,2.58,.79,.28,1.21,1.14,.93,1.93-.21,.61-.79,1.02-1.43,1.02Zm-14.3-5.33c-.2,0-.39-.04-.57-.11-2.38-.94-4.76-1.92-7.09-2.89-.77-.32-1.14-1.22-.81-1.99,.24-.57,.79-.93,1.4-.93,.2,0,.4,.04,.59,.12,2.31,.97,4.67,1.94,7.03,2.87,.38,.15,.67,.44,.84,.81s.17,.79,.02,1.16c-.23,.58-.78,.96-1.41,.96Zm-14.06-5.92c-.21,0-.42-.04-.62-.13-2.34-1.05-4.68-2.13-6.96-3.21-.76-.36-1.08-1.27-.72-2.02,.25-.53,.79-.87,1.37-.87,.23,0,.45,.05,.65,.15,2.25,1.07,4.57,2.14,6.89,3.18,.37,.17,.65,.47,.8,.84s.13,.79-.03,1.16c-.25,.55-.79,.9-1.39,.9Zm-13.78-6.55c-.24,0-.47-.06-.69-.16-2.28-1.15-4.57-2.35-6.8-3.54-.36-.19-.62-.51-.74-.9s-.08-.8,.12-1.16c.26-.49,.78-.8,1.34-.8,.25,0,.5,.06,.72,.18,2.2,1.18,4.47,2.36,6.73,3.51,.36,.18,.63,.5,.76,.88,.13,.39,.1,.8-.09,1.16-.26,.51-.78,.83-1.36,.83Zm-13.44-7.22c-.26,0-.52-.07-.75-.2-2.22-1.27-4.45-2.58-6.61-3.9-.35-.21-.59-.54-.69-.94-.1-.39-.03-.8,.18-1.15,.27-.45,.77-.73,1.3-.73,.28,0,.55,.08,.79,.22,2.14,1.3,4.34,2.6,6.53,3.85,.35,.2,.61,.53,.71,.92s.05,.8-.15,1.15c-.27,.47-.78,.76-1.32,.76Zm-13.03-7.93c-.3,0-.58-.09-.83-.25-2.15-1.39-4.29-2.83-6.37-4.27-.33-.23-.56-.58-.63-.98-.07-.4,.01-.8,.25-1.14,.28-.41,.75-.65,1.25-.65,.31,0,.61,.09,.86,.27,2.06,1.42,4.18,2.84,6.3,4.22,.7,.45,.9,1.4,.45,2.1-.28,.43-.76,.69-1.28,.69Zm-12.54-8.68c-.33,0-.64-.1-.9-.3-2.07-1.53-4.12-3.1-6.1-4.66-.66-.52-.77-1.48-.25-2.13,.29-.37,.73-.58,1.19-.58,.34,0,.67,.12,.94,.33,1.96,1.55,3.99,3.1,6.02,4.6,.33,.24,.54,.59,.6,1,.06,.4-.04,.8-.28,1.13-.29,.39-.74,.62-1.22,.62Zm-11.96-9.46c-.36,0-.71-.13-.98-.36-1.96-1.66-3.9-3.37-5.78-5.07-.62-.57-.66-1.53-.1-2.15,.29-.32,.7-.5,1.12-.5,.38,0,.74,.14,1.02,.4,1.85,1.68,3.77,3.36,5.69,4.99,.31,.26,.5,.63,.53,1.03,.03,.4-.09,.8-.36,1.11-.29,.34-.71,.54-1.16,.54Zm-11.28-10.26c-.4,0-.78-.15-1.06-.43-1.83-1.79-3.65-3.63-5.39-5.47-.28-.29-.43-.68-.42-1.09s.18-.78,.47-1.06c.28-.27,.66-.42,1.05-.42,.42,0,.82,.17,1.1,.48,1.72,1.81,3.51,3.63,5.31,5.39,.6,.58,.61,1.55,.03,2.15-.29,.29-.68,.46-1.09,.46Zm-10.49-11.07c-.44,0-.85-.19-1.14-.52-1.68-1.92-3.35-3.9-4.95-5.88-.53-.65-.43-1.61,.22-2.14,.27-.22,.61-.34,.96-.34,.46,0,.89,.21,1.18,.57,1.57,1.94,3.21,3.89,4.87,5.78,.55,.63,.49,1.59-.14,2.14-.28,.25-.64,.38-1,.38Zm-9.59-11.86c-.48,0-.94-.23-1.22-.62-1.52-2.05-3.02-4.16-4.46-6.26-.47-.69-.29-1.64,.4-2.11,.26-.17,.55-.26,.86-.26,.5,0,.97,.25,1.26,.67,1.41,2.07,2.89,4.15,4.38,6.16,.5,.67,.36,1.62-.31,2.13-.27,.2-.58,.3-.91,.3Zm-8.57-12.61c-.53,0-1.01-.27-1.29-.72-1.34-2.16-2.65-4.39-3.9-6.62-.2-.35-.25-.76-.14-1.15s.36-.72,.72-.91c.23-.13,.48-.19,.74-.19,.55,0,1.06,.3,1.33,.78,1.23,2.19,2.52,4.38,3.84,6.51,.44,.71,.22,1.65-.49,2.09-.24,.15-.52,.23-.8,.23Zm-7.45-13.3c-.58,0-1.1-.32-1.36-.84-1.15-2.27-2.26-4.61-3.31-6.94-.34-.76,0-1.66,.76-2.01,.2-.09,.41-.13,.62-.13,.6,0,1.14,.35,1.39,.9,1.03,2.28,2.12,4.58,3.25,6.82,.18,.36,.21,.77,.09,1.16s-.4,.7-.76,.88c-.21,.11-.45,.16-.68,.16Zm-6.26-13.9c-.63,0-1.18-.38-1.41-.96-.94-2.37-1.85-4.8-2.68-7.21-.13-.38-.11-.79,.07-1.16,.18-.37,.49-.64,.87-.77,.16-.06,.33-.08,.5-.08,.65,0,1.22,.41,1.44,1.02,.82,2.37,1.71,4.75,2.63,7.08,.31,.78-.07,1.66-.85,1.97-.18,.07-.37,.11-.56,.11Zm-5-14.41c-.67,0-1.27-.45-1.46-1.09-.72-2.43-1.41-4.92-2.03-7.4-.1-.39-.04-.8,.17-1.15,.21-.35,.54-.59,.94-.69l.11-.03,.26-.02c.7,0,1.31,.47,1.47,1.15,.61,2.42,1.28,4.86,1.99,7.27,.12,.39,.07,.8-.12,1.16-.19,.36-.51,.62-.9,.73-.14,.04-.29,.06-.43,.06Zm-3.7-14.75c-.72,0-1.34-.51-1.49-1.22-.51-2.48-.98-5.03-1.38-7.56-.06-.4,.03-.8,.27-1.13,.24-.33,.59-.55,.99-.61l.24-.02c.75,0,1.38,.54,1.5,1.28,.4,2.48,.86,4.98,1.36,7.43,.17,.82-.36,1.62-1.18,1.79l-.09,.02h-.22Zm-2.43-15.03c-.77,0-1.42-.58-1.51-1.34-.3-2.54-.55-5.12-.75-7.66-.06-.84,.56-1.57,1.4-1.63h.01c.9,0,1.56,.61,1.62,1.4,.19,2.51,.44,5.04,.73,7.53,.1,.83-.5,1.59-1.33,1.69h-.18Zm-1.17-15.21c-.82,0-1.49-.64-1.52-1.47-.09-2.35-.13-4.73-.13-7.08v-.62c0-.84,.69-1.52,1.52-1.52,.41,0,.79,.16,1.08,.45,.29,.29,.44,.67,.44,1.08v.61c0,2.32,.04,4.67,.12,6.97,.03,.84-.62,1.54-1.46,1.57h-.06Zm-.07-15.27c-.35-.01-.73-.19-1-.48-.28-.3-.42-.69-.4-1.09,.11-2.54,.26-5.13,.46-7.69,.06-.8,.71-1.4,1.52-1.4,.95,.07,1.58,.8,1.51,1.64-.2,2.55-.35,5.1-.46,7.58-.04,.82-.7,1.46-1.52,1.46h-.12Zm1.12-15.24c-.38-.04-.74-.24-.99-.56-.25-.32-.37-.72-.32-1.12,.29-2.5,.63-5.07,1.02-7.61,.11-.74,.75-1.29,1.5-1.29l.23,.02c.4,.06,.75,.27,.99,.6,.24,.33,.34,.73,.28,1.13-.38,2.5-.72,5.02-1,7.51-.09,.77-.74,1.34-1.51,1.34h-.2Zm2.39-15.08l-.2-.03c-.81-.15-1.36-.95-1.21-1.77,.47-2.49,.98-5.02,1.54-7.53,.16-.7,.76-1.19,1.48-1.19h.1l.23,.04c.82,.18,1.33,.99,1.15,1.81-.55,2.49-1.06,4.99-1.52,7.43-.13,.72-.76,1.24-1.49,1.24h-.09Zm3.27-14.9l-.27-.05c-.81-.21-1.3-1.04-1.09-1.85,.63-2.45,1.31-4.94,2.02-7.41,.19-.65,.79-1.1,1.46-1.1,.14,0,.28,.02,.42,.06,.39,.11,.71,.37,.91,.73s.24,.77,.13,1.16c-.7,2.42-1.37,4.88-1.99,7.32-.17,.67-.78,1.14-1.47,1.14h-.11Zm4.35-14.66c-.16,0-.31-.02-.46-.07-.39-.13-.71-.39-.89-.76-.18-.36-.22-.77-.09-1.16,.78-2.41,1.61-4.85,2.47-7.27,.22-.6,.79-1.01,1.43-1.01,.17,0,.35,.03,.51,.09,.38,.14,.69,.41,.86,.78,.17,.37,.19,.78,.06,1.16-.85,2.39-1.67,4.8-2.44,7.18-.2,.63-.78,1.05-1.45,1.05Zm5.12-14.38c-.19,0-.37-.03-.55-.1-.78-.31-1.17-1.19-.87-1.97,.92-2.37,1.89-4.76,2.89-7.11,.24-.57,.79-.93,1.4-.93,.2,0,.4,.04,.59,.12,.37,.16,.66,.45,.82,.83,.15,.38,.15,.79,0,1.16-.98,2.32-1.94,4.68-2.85,7.03-.23,.59-.78,.97-1.41,.97Zm5.93-14.06c-.22,0-.43-.05-.63-.14-.37-.17-.65-.47-.79-.85-.14-.38-.13-.79,.04-1.16,1.05-2.31,2.15-4.64,3.27-6.94,.25-.52,.79-.85,1.36-.85,.23,0,.46,.05,.67,.15,.75,.37,1.07,1.28,.7,2.03-1.11,2.27-2.2,4.58-3.24,6.87-.25,.54-.79,.89-1.38,.89Zm6.69-13.72c-.24,0-.49-.06-.7-.17-.36-.19-.62-.5-.75-.89-.12-.39-.09-.8,.1-1.16,1.17-2.25,2.4-4.52,3.63-6.76,.27-.48,.78-.78,1.33-.78,.26,0,.51,.07,.74,.19,.35,.2,.61,.52,.72,.91,.11,.39,.06,.8-.13,1.16-1.22,2.21-2.43,4.46-3.6,6.69-.27,.5-.78,.82-1.35,.82Zm7.4-13.35c-.27,0-.54-.07-.77-.21-.72-.42-.96-1.36-.54-2.08,1.28-2.18,2.62-4.39,3.97-6.56,.28-.45,.76-.72,1.29-.72,.28,0,.56,.08,.8,.23,.71,.44,.93,1.38,.49,2.09-1.34,2.15-2.66,4.34-3.93,6.5-.27,.46-.77,.75-1.31,.75Zm8.06-12.96c-.3,0-.58-.09-.83-.25-.7-.46-.9-1.41-.44-2.1,1.39-2.12,2.83-4.26,4.29-6.36,.28-.41,.75-.65,1.25-.65,.31,0,.61,.09,.86,.27,.69,.48,.86,1.43,.39,2.11-1.44,2.08-2.87,4.2-4.24,6.3-.28,.43-.75,.69-1.27,.69Zm8.68-12.55c-.32,0-.63-.1-.89-.29-.68-.49-.83-1.44-.33-2.12,1.49-2.05,3.03-4.12,4.58-6.15,.29-.38,.73-.6,1.21-.6,.34,0,.65,.11,.92,.31,.66,.51,.79,1.46,.29,2.13-1.54,2.01-3.07,4.06-4.54,6.09-.28,.39-.74,.63-1.23,.63Zm9.27-12.13c-.34,0-.68-.12-.95-.33-.32-.25-.52-.61-.56-1.02-.04-.4,.07-.8,.33-1.12,1.58-1.98,3.22-3.97,4.86-5.93,.29-.34,.71-.54,1.16-.54,.36,0,.7,.13,.98,.36,.31,.26,.5,.63,.53,1.03s-.09,.8-.35,1.11c-1.63,1.94-3.25,3.91-4.82,5.87-.29,.36-.72,.57-1.19,.57Zm9.82-11.69c-.37,0-.73-.13-1.01-.38-.3-.27-.48-.64-.51-1.04-.03-.41,.11-.8,.38-1.1,1.67-1.9,3.4-3.82,5.13-5.7,.28-.31,.69-.49,1.12-.49,.38,0,.75,.14,1.03,.4,.3,.28,.47,.65,.49,1.06s-.13,.79-.4,1.09c-1.71,1.86-3.42,3.76-5.08,5.65-.29,.33-.7,.52-1.14,.52Zm10.34-11.23c-.4,0-.77-.15-1.05-.43-.29-.28-.46-.66-.47-1.06,0-.41,.14-.79,.42-1.08,1.76-1.83,3.57-3.67,5.38-5.46,.28-.28,.67-.44,1.07-.44s.79,.16,1.08,.45c.59,.6,.59,1.56,0,2.15-1.8,1.78-3.59,3.6-5.33,5.41-.29,.3-.69,.47-1.09,.47Zm10.83-10.75c-.41,0-.81-.17-1.1-.47-.58-.61-.55-1.57,.05-2.15,1.84-1.75,3.74-3.51,5.62-5.22,.28-.26,.64-.39,1.02-.39,.43,0,.84,.18,1.12,.5,.57,.63,.52,1.59-.1,2.15-1.86,1.69-3.74,3.43-5.57,5.17-.28,.27-.65,.42-1.05,.42Zm11.32-10.28c-.44,0-.86-.19-1.15-.53-.55-.63-.48-1.59,.15-2.14,1.93-1.68,3.91-3.35,5.87-4.98,.27-.23,.62-.35,.97-.35,.45,0,.88,.2,1.17,.55,.53,.65,.45,1.6-.2,2.14-1.94,1.61-3.9,3.27-5.81,4.93-.28,.24-.63,.37-1,.37Zm11.79-9.78c-.47,0-.9-.21-1.19-.57-.52-.66-.41-1.62,.25-2.14,2-1.58,4.04-3.17,6.08-4.71,.26-.2,.58-.31,.92-.31,.47,0,.92,.22,1.21,.6,.5,.67,.37,1.62-.29,2.13-2.02,1.53-4.05,3.1-6.03,4.67-.27,.21-.6,.33-.94,.33Zm12.21-9.24c-.49,0-.95-.24-1.23-.63-.49-.68-.34-1.63,.34-2.12,2.08-1.5,4.19-2.99,6.28-4.43,.25-.18,.55-.27,.86-.27,.5,0,.97,.25,1.25,.66,.48,.69,.3,1.64-.39,2.12-2.08,1.43-4.17,2.9-6.23,4.39-.26,.19-.57,.29-.89,.29Zm12.6-8.67c-.52,0-.99-.26-1.27-.69-.46-.7-.26-1.64,.44-2.1,2.13-1.39,4.31-2.79,6.47-4.14,.24-.15,.52-.23,.8-.23,.53,0,1.01,.27,1.29,.71,.44,.71,.23,1.65-.49,2.09-2.15,1.34-4.31,2.72-6.41,4.1-.24,.16-.53,.25-.83,.25Zm12.98-8.09c-.53,0-1.04-.29-1.31-.75-.21-.35-.26-.76-.16-1.15,.1-.39,.35-.72,.7-.93,2.2-1.3,4.44-2.59,6.65-3.84,.23-.13,.48-.19,.74-.19,.55,0,1.06,.3,1.33,.78,.2,.35,.25,.76,.14,1.15s-.36,.72-.72,.91c-2.19,1.23-4.41,2.51-6.6,3.8-.23,.14-.5,.21-.77,.21Zm13.34-7.48c-.56,0-1.08-.31-1.34-.81-.39-.74-.11-1.66,.63-2.06,2.26-1.2,4.56-2.38,6.82-3.52,.21-.11,.45-.16,.68-.16,.58,0,1.1,.32,1.36,.84,.37,.75,.07,1.66-.68,2.04-2.25,1.13-4.53,2.3-6.77,3.49-.22,.12-.47,.18-.71,.18Zm13.67-6.85c-.58,0-1.12-.34-1.37-.87-.36-.76-.03-1.67,.73-2.02,2.31-1.09,4.66-2.16,6.99-3.19,.19-.09,.4-.13,.61-.13,.6,0,1.15,.35,1.39,.9,.16,.37,.18,.78,.03,1.16-.15,.38-.43,.68-.8,.84-2.3,1.02-4.63,2.08-6.92,3.16-.2,.1-.42,.15-.65,.15Zm13.98-6.19c-.62,0-1.17-.37-1.4-.94-.32-.78,.05-1.67,.82-1.99,2.35-.97,4.75-1.93,7.13-2.85,.18-.07,.36-.1,.55-.1,.62,0,1.19,.39,1.42,.97,.3,.78-.09,1.66-.87,1.96-2.36,.91-4.73,1.86-7.06,2.82-.19,.08-.38,.12-.58,.12Zm14.26-5.5c-.64,0-1.21-.4-1.43-1.01-.14-.38-.12-.79,.06-1.16,.17-.37,.48-.65,.86-.78,2.4-.86,4.85-1.7,7.26-2.5,.16-.05,.32-.08,.48-.08,.65,0,1.23,.42,1.44,1.04,.13,.39,.1,.8-.08,1.16s-.5,.63-.88,.76c-2.39,.79-4.81,1.62-7.19,2.47-.16,.06-.33,.09-.51,.09Zm14.52-4.79c-.67,0-1.26-.43-1.45-1.08-.12-.39-.08-.8,.12-1.16,.19-.36,.51-.62,.9-.74,2.44-.74,4.93-1.45,7.38-2.13l.11-.03,.29-.02c.68,0,1.28,.46,1.46,1.11,.22,.81-.26,1.65-1.06,1.87-2.43,.67-4.89,1.38-7.31,2.11-.15,.04-.3,.07-.44,.07Zm14.75-4.05c-.7,0-1.31-.48-1.47-1.16-.1-.39-.04-.8,.17-1.15,.21-.35,.54-.59,.94-.69,2.48-.61,5-1.2,7.49-1.75l.09-.02,.23-.02c.7,0,1.33,.5,1.48,1.19,.18,.82-.34,1.63-1.16,1.81-2.46,.54-4.95,1.12-7.41,1.73l-.1,.03-.26,.02Zm14.94-3.28c-.73,0-1.35-.52-1.49-1.23-.16-.82,.38-1.62,1.2-1.78,2.51-.48,5.06-.94,7.57-1.35h.07s.18-.02,.18-.02c.75,0,1.38,.54,1.5,1.27,.07,.4-.03,.8-.26,1.13-.24,.33-.59,.55-.99,.61-2.49,.41-5.01,.86-7.5,1.34l-.08,.02h-.21Zm15.1-2.48c-.75,0-1.4-.56-1.5-1.31-.06-.4,.05-.8,.29-1.13,.25-.32,.6-.53,1-.59,2.52-.35,5.08-.67,7.61-.95h.02c.93,0,1.57,.58,1.66,1.34,.09,.83-.51,1.59-1.34,1.68-2.5,.28-5.04,.59-7.53,.93h-.21Zm68.33-1c-2.51-.27-5.05-.52-7.55-.72-.83-.07-1.46-.8-1.39-1.64,.07-.79,.73-1.4,1.52-1.4,2.65,.21,5.22,.46,7.76,.73,.83,.09,1.44,.84,1.35,1.67-.08,.77-.73,1.35-1.51,1.35h-.17Zm-53.16-.67c-.78,0-1.45-.61-1.51-1.39-.03-.4,.09-.8,.35-1.11,.26-.31,.63-.5,1.03-.53,2.54-.21,5.12-.39,7.65-.53h0c.89,0,1.55,.63,1.6,1.43,.05,.83-.59,1.55-1.43,1.6-2.51,.14-5.06,.32-7.57,.53h-.13Zm38.02-.57c-2.5-.13-5.05-.24-7.57-.3-.4-.01-.78-.18-1.06-.47-.28-.29-.43-.68-.42-1.08,.02-.82,.7-1.48,1.51-1.48,2.6,.07,5.18,.17,7.72,.31,.84,.05,1.48,.76,1.44,1.6-.05,.81-.71,1.44-1.52,1.44h-.1Zm-22.79-.28c-.83,0-1.49-.65-1.52-1.47-.01-.41,.14-.79,.42-1.09,.28-.3,.66-.46,1.06-.48,2.54-.07,5.12-.11,7.67-.12,.84,0,1.52,.68,1.52,1.52,0,.41-.16,.79-.44,1.08-.29,.29-.67,.45-1.08,.45-2.52,0-5.07,.04-7.58,.11h-.04Z"/>
        <path class="cls-12" d="M637.89,664.03c-1.28-.12-2.55-.25-3.81-.37-.83-.08-1.44-.83-1.36-1.66,.08-.78,.73-1.37,1.51-1.37,1.41,.13,2.67,.26,3.94,.38,.4,.04,.77,.23,1.03,.54,.26,.31,.38,.71,.34,1.11-.07,.78-.72,1.37-1.51,1.37h-.13Z"/>
      </g>
      <g>
        <g>
          <path class="cls-8" d="M568.74,339.53c-.45-.91-120.1,32.08-120.92,32.54,.39-.78,25.9-50.44,72.47-62.47,10.5-2.72,22.08-3.52,34.68-1.4,13.91,2.33,25.71,7.44,35.2,14.39-10.11,1.76-16.08,7.95-21.44,16.95Z"/>
          <path class="cls-8" d="M447.82,372.07h0s0,0,0,0Z"/>
        </g>
        <g>
          <g>
            <path class="cls-12" d="M568.74,339.53c-.45-.91-120.1,32.08-120.92,32.54,.39-.78,25.9-50.44,72.47-62.47,10.5-2.72,22.08-3.52,34.68-1.4,13.91,2.33,25.71,7.44,35.2,14.39-10.11,1.76-16.08,7.95-21.44,16.95Z"/>
            <path class="cls-12" d="M447.82,372.7c-.16,0-.32-.06-.44-.18-.2-.19-.25-.5-.13-.75,.27-.53,6.7-13.05,19.01-27.15,11.19-12.81,29.62-29.39,53.87-35.65,11.31-2.93,23.07-3.41,34.95-1.42,13.47,2.25,25.4,7.13,35.48,14.5,.21,.15,.3,.41,.24,.66-.06,.25-.26,.44-.51,.48-8.78,1.53-14.87,6.35-21,16.65-.12,.2-.34,.32-.57,.31-.04,0-.08,0-.12-.02-4.82,.31-119.15,32.03-120.51,32.5-.08,.04-.17,.06-.26,.06Zm92.95-65.07c-6.89,0-13.68,.86-20.32,2.58-23.93,6.18-42.16,22.59-53.23,35.26-10.05,11.5-16.14,21.93-18.12,25.55,7.24-2.11,37.61-10.48,58.66-16.22,49.53-13.49,58.69-15.62,60.6-15.89,5.95-9.89,11.92-14.83,20.25-16.68-9.66-6.78-21-11.29-33.75-13.42-4.73-.79-9.44-1.19-14.1-1.19Zm27.41,32.2h0Zm0,0h0s0,0,0,0Zm0,0s0,0,0,0c0,0,0,0,0,0Zm0,0s0,0,0,0c0,0,0,0,0,0Zm0,0h0s0,0,0,0Zm0,0s0,0,0,0c0,0,0,0,0,0Z"/>
          </g>
          <path class="cls-12" d="M447.81,372.71c-.16,0-.33-.06-.45-.19-.25-.25-.25-.65,0-.9,.25-.25,.65-.25,.9,0,.25,.25,.25,.65,0,.9h0c-.12,.13-.29,.19-.45,.19Z"/>
        </g>
        <g>
          <path class="cls-12" d="M447.82,372.7c-.16,0-.32-.06-.44-.18-.2-.19-.25-.5-.13-.75,.27-.53,6.7-13.05,19.01-27.15,11.19-12.81,29.62-29.39,53.87-35.65,11.31-2.93,23.07-3.41,34.95-1.42,13.47,2.25,25.4,7.13,35.48,14.5,.21,.15,.3,.41,.24,.66-.06,.25-.26,.44-.51,.48-8.78,1.53-14.87,6.35-21,16.65-.12,.2-.34,.32-.57,.31-.04,0-.08,0-.12-.02-4.82,.31-119.15,32.03-120.51,32.5-.08,.04-.17,.06-.26,.06Zm92.95-65.07c-6.89,0-13.68,.86-20.32,2.58-23.93,6.18-42.16,22.59-53.23,35.26-10.05,11.5-16.14,21.93-18.12,25.55,7.24-2.11,37.61-10.48,58.66-16.22,49.53-13.49,58.69-15.62,60.6-15.89,5.95-9.89,11.92-14.83,20.25-16.68-9.66-6.78-21-11.29-33.75-13.42-4.73-.79-9.44-1.19-14.1-1.19Zm27.41,32.2h0Zm0,0h0s0,0,0,0Zm0,0s0,0,0,0c0,0,0,0,0,0Zm0,0s0,0,0,0c0,0,0,0,0,0Zm0,0h0s0,0,0,0Zm0,0s0,0,0,0c0,0,0,0,0,0Z"/>
          <path class="cls-12" d="M447.81,372.71c-.16,0-.33-.06-.45-.19-.25-.25-.25-.65,0-.9,.25-.25,.65-.25,.9,0,.25,.25,.25,.65,0,.9h0c-.12,.13-.29,.19-.45,.19Z"/>
        </g>
      </g>
      <g>
        <path class="cls-8" d="M997.91,781.53c-44.8,0-80.86-13.27-104.28-38.38-44.46-46.68-93.23-69.37-149.11-69.37-20.45,0-38.93,2.81-55.24,5.28-12.57,1.91-23.43,3.56-32.71,3.56-13.23,0-21.43-3.45-26.62-11.2-16.93-25.3,1.21-49.42,18.75-72.76,13.6-18.09,26.44-35.17,23.9-52.52-1.47-10.03-8.01-19.19-19.98-28.01-9.89-7.28-18.28-10.82-25.64-10.82-.27,0-.54,0-.8,.01l-.28-.97,59.69-33.51,89.69-46.31h.06c1.42-.29,2.89-.44,4.38-.44,7.56,0,16.11,3.6,26.15,10.99,10.46,7.7,16.16,16.26,17.41,26.16,2.78,21.85-17.4,46.63-36.9,70.59-23.73,29.15-48.26,59.29-31.62,84.16,4.28,6.4,10.86,9.38,20.69,9.38,13.41,0,32.11-5.56,55.78-12.6,21.22-6.31,47.62-14.16,78.26-20.32,18.85-3.79,35.01-5.63,49.4-5.63,46.79,0,67.1,19.61,92.82,44.45,15.68,15.14,33.45,32.3,60.46,47.71,13.44,9.32,23.55,13.48,32.75,13.48,10.39,0,19.3-5.2,31.64-12.4,2.61-1.52,5.55-3.24,8.66-4.99l1.21-.68-.61,1.25c-20.52,42.21-38.7,66.19-57.21,75.48-47.04,18.57-92.25,28.4-130.69,28.4Z"/>
        <path class="cls-12" d="M997.79,782.16c-2.37,0-4.7-.04-6.93-.11-20.54-.64-39.18-4.14-55.39-10.41-16.73-6.46-30.96-15.91-42.31-28.07-44.29-46.51-93.03-69.11-149.02-69.11-20.35,0-38.6,2.77-54.7,5.21-12.72,1.93-23.66,3.59-32.98,3.59-13.38,0-21.72-3.55-27.04-11.5-17.18-25.67,1.1-49.98,18.78-73.49,13.52-17.98,26.28-34.96,23.78-52.05-1.44-9.85-7.9-18.88-19.73-27.59-9.78-7.2-18.04-10.7-25.27-10.7-.38,0-.75,0-1.12,.03-.52,0-.94-.3-1.08-.77-.14-.48,.07-.99,.5-1.23l60-33.69,89.65-46.29c.09-.05,.19-.08,.29-.1,1.45-.29,2.95-.43,4.47-.43,7.72,0,16.4,3.63,26.55,11.11,10.61,7.81,16.39,16.51,17.67,26.59,2.81,22.12-17.45,47.01-37.04,71.08-23.58,28.97-47.96,58.92-31.58,83.4,4.17,6.23,10.57,9.13,20.16,9.13,13.23,0,31.93-5.56,55.6-12.6,21.23-6.31,47.65-14.17,78.31-20.33,18.83-3.78,35-5.62,49.42-5.62,15.73,0,29.23,2.2,41.27,6.71,21.01,7.88,35.41,21.79,52.09,37.89,15.65,15.11,33.39,32.24,60.34,47.62,13.33,9.24,23.35,13.36,32.44,13.36,10.27,0,19.1-5.15,31.32-12.28,2.98-1.74,5.68-3.31,8.67-4.99,.16-.09,.34-.14,.52-.14,.27,0,.53,.1,.73,.29,.34,.32,.44,.83,.23,1.25-20.58,42.34-38.86,66.42-57.5,75.77-47.15,18.62-92.49,28.47-131.09,28.47Zm-253.26-109.88c12.82,0,24.76,1.08,36.53,3.31,41.28,7.81,78.46,29.57,113.66,66.53,22.18,23.78,54.56,36.5,96.21,37.8,2.26,.07,4.58,.11,6.87,.11,38.32,0,83.35-9.78,130.21-28.28,17.55-8.81,34.78-31.15,54.27-70.32l.67-1.34-1.29,.75c-1.45,.84-2.86,1.66-4.25,2.47-12.67,7.39-21.78,12.7-32.49,12.7-9.48,0-19.83-4.25-33.57-13.77-27.11-15.46-44.94-32.69-60.68-47.89-25.5-24.62-45.64-44.07-91.57-44.07-14.3,0-30.43,1.84-49.31,5.64-30.55,6.13-56.91,13.97-78.08,20.27-23.89,7.1-42.74,12.71-56.33,12.71-10.31,0-17.26-3.2-21.87-10.08-17.26-25.79,7.63-56.37,31.7-85.94,19.31-23.72,39.27-48.24,36.58-69.46-1.2-9.47-6.7-17.69-16.81-25.14-9.77-7.2-18.04-10.69-25.28-10.69-1.31,0-2.6,.12-3.85,.35h-.06s-89.49,46.22-89.49,46.22l-56.56,31.76,1.29,.2c6.68,1.03,14.04,4.57,22.5,10.8,12.31,9.07,19.05,18.56,20.58,29,2.64,17.97-10.39,35.3-24.18,53.65-17.23,22.92-35.04,46.61-18.71,71.02,4.88,7.29,12.69,10.55,25.33,10.55,9.13,0,19.95-1.64,32.48-3.54,16.41-2.49,34.95-5.3,55.52-5.3Z"/>
      </g>
      <g>
        <path class="cls-10" d="M662.41,504.41l115.08-67.76s48.81,18.98,34.44,50.76c-52.11,32.18-124.17,64.35-124.17,64.35,0,0-5.27-40.55-25.36-47.35Z"/>
        <path class="cls-12" d="M687.77,552.39c-.11,0-.21-.03-.31-.08-.18-.1-.29-.27-.32-.47-.05-.4-5.45-40.24-24.93-46.83-.24-.08-.4-.29-.43-.54-.03-.25,.1-.49,.31-.61l115.08-67.76c.17-.1,.37-.12,.55-.04,1.13,.44,27.81,11,35.49,29.79,2.89,7.07,2.65,14.41-.7,21.82-.05,.12-.14,.21-.25,.28-51.55,31.83-123.52,64.07-124.24,64.39-.08,.04-.17,.06-.26,.06Zm-23.89-48.11c17.85,7.46,23.53,40.64,24.4,46.55,7.91-3.57,74.57-33.89,123.16-63.86,3.12-7.01,3.32-13.96,.6-20.64-7.05-17.27-31.57-27.78-34.49-28.97l-113.67,66.92Z"/>
      </g>
      <g>
        <path class="cls-8" d="M558.15,560.65c-3.24,0-6.71-.47-10.3-1.4-19.31-5.01-31.07-17.71-33.12-35.76-1.67-14.72,3.46-31.67,14.46-47.74,12.05-17.62,30.3-33.11,52.75-44.81,21.35-11.12,34.54-29.85,36.17-51.39,1.67-22.02-8.67-43.45-27.66-57.33-10.05-7.35-21.96-12.22-35.4-14.47-4.79-.8-9.6-1.21-14.31-1.21-5.81,0-11.61,.62-17.29,1.84l129.34-70.59c13-7.1,26.68-10.7,40.67-10.7,4.66,0,9.42,.4,14.15,1.2,32.89,5.51,57.13,27.88,61.74,56.98,4.17,26.34-9.28,51.06-35.11,64.51-40.11,20.89-66.79,54.55-67.96,85.74-.61,16.17,6,29.51,18.64,37.66l-59.25,33.26c-13.23,.75-21.25,12.66-29.74,25.27-6.39,9.49-12.99,19.3-22.18,24.7-4.83,2.85-9.93,4.23-15.59,4.23Z"/>
        <path class="cls-12" d="M558.16,562.17c-3.36,0-6.96-.49-10.69-1.46-19.96-5.18-32.12-18.34-34.25-37.06-1.72-15.08,3.51-32.4,14.71-48.77,12.19-17.82,30.63-33.48,53.31-45.3,20.88-10.88,33.76-29.16,35.35-50.16,1.63-21.49-8.48-42.42-27.04-55.99-9.86-7.21-21.55-11.99-34.75-14.19-4.68-.78-9.4-1.18-14.03-1.18-6.84,0-13.63,.86-20.21,2.57l-.11,.03h-.19c-.41,0-.8-.26-.96-.67-.2-.5,0-1.07,.48-1.33l132.28-72.19c13.23-7.23,27.17-10.89,41.43-10.89,4.74,0,9.58,.41,14.39,1.21,33.55,5.62,58.27,28.48,62.99,58.25,2.02,12.72,.04,25.42-5.71,36.73-6.05,11.89-16.22,21.91-29.42,28.96l-.78,.41c-39.63,20.64-65.99,53.79-67.15,84.45-.6,15.87,5.99,28.91,18.56,36.72,.32,.2,.51,.56,.5,.93,0,.37-.22,.72-.54,.91l-60,33.69c-.14,.08-.31,.13-.47,.13-12.53,.65-20.37,12.29-28.66,24.6-6.48,9.63-13.19,19.58-22.67,25.17-5.08,2.99-10.43,4.44-16.36,4.44Zm-17.39-256.24c4.75,0,9.59,.41,14.38,1.21,13.53,2.26,25.53,7.17,35.66,14.58,19.16,14.01,29.6,35.65,27.91,57.88-1.65,21.75-14.95,40.66-36.5,51.89-22.37,11.65-40.53,27.08-52.53,44.61-10.91,15.95-16.01,32.75-14.35,47.32,2.02,17.78,13.62,30.3,32.66,35.24,3.54,.92,6.95,1.38,10.14,1.38,5.55,0,10.55-1.36,15.29-4.14,9.06-5.33,15.63-15.08,21.98-24.5,8.53-12.67,16.59-24.64,29.98-25.54h.1s58.23-32.7,58.23-32.7l-.59-.41c-11.86-8.32-18.07-21.54-17.48-37.23,1.19-31.41,27.99-65.27,68.29-86.26,25.59-13.33,38.92-37.8,34.79-63.87-4.57-28.84-28.6-51.01-61.23-56.47-4.69-.79-9.41-1.18-14.03-1.18-13.9,0-27.49,3.57-40.39,10.62l-123.65,67.48,.28,.84c3.65-.49,7.37-.74,11.05-.74Z"/>
      </g>
      <g>
        <path class="cls-10" d="M631.79,391.79c55.29-28.89,130.6-82.93,130.6-82.93,0,0,4.83-48.04-35.05-58.61-47.43,22.96-120.54,65.82-120.54,65.82,0,0,40.7,29.99,24.99,75.72Z"/>
        <path class="cls-12" d="M631.79,392.42c-.15,0-.3-.05-.41-.15-.2-.17-.27-.44-.19-.69,8.03-23.37,.89-42.5-6.52-54.43-8.05-12.97-18.15-20.5-18.25-20.57-.17-.13-.27-.33-.26-.55,.01-.21,.13-.41,.31-.52,.73-.43,73.68-43.14,120.59-65.85,.14-.07,.29-.08,.44-.04,20.89,5.54,29.44,21.39,32.93,33.71,3.77,13.29,2.6,25.46,2.59,25.58-.02,.18-.11,.35-.26,.45-.75,.54-75.98,54.4-130.67,82.98-.09,.05-.19,.07-.29,.07Zm-23.86-76.28c2.52,2.03,10.9,9.2,17.8,20.3,7.41,11.92,14.55,30.87,7.16,54.05,52.94-27.9,124.2-78.64,128.89-81.98,.15-1.89,.81-12.91-2.58-24.86-4.93-17.36-15.62-28.37-31.79-32.73-44.2,21.42-111.35,60.48-119.48,65.22Z"/>
      </g>
      <g>
        <path class="cls-12" d="M652.88,517.77l-78.9,39.04c21.43-12.61,28.78-48.72,51.82-49.91,7.2-.38,15.92,2.66,27.08,10.88Z"/>
        <path class="cls-12" d="M573.98,557.44c-.23,0-.45-.12-.56-.33-.16-.3-.06-.68,.24-.85,9.15-5.38,15.74-15.18,22.12-24.65,8.54-12.68,16.61-24.66,29.99-25.36,7.89-.42,16.88,3.19,27.49,11,.18,.13,.28,.35,.26,.57s-.15,.42-.35,.51l-78.9,39.04c-.09,.04-.19,.07-.28,.07Zm53.01-49.95c-.39,0-.77,0-1.16,.03-12.75,.66-20.64,12.38-29,24.8-4.99,7.41-10.11,15.02-16.52,20.64l71.35-35.3c-9.48-6.83-17.57-10.17-24.67-10.17Z"/>
      </g>
      <g>
        <g>
          <path class="cls-12" d="M901.49,651.32c-.61,.68-11.62-3.91-19.51,5.76-7.89,9.68,11.2,73.72,22.14,72.93,10.94-.79,10.66-30.72,10.82-48.17,.16-17.46-13.45-30.52-13.45-30.52Z"/>
          <path class="cls-12" d="M903.92,731.54c-3.27,0-6.74-3.6-10.59-11.02-8.56-16.46-19.53-55.81-12.53-64.4,3.7-4.54,8.55-6.84,14.42-6.84,1.99,0,3.72,.27,4.86,.44,.35,.05,.73,.11,.97,.14,.12-.04,.24-.06,.37-.06h0c.46,0,.83,.15,1.11,.42,.14,.14,14.08,13.76,13.92,31.64l-.02,2.41c-.15,19.59-.36,46.4-12.21,47.26-.1,0-.2,.01-.31,.01Zm-8.64-79.21c-4.96,0-9.04,1.92-12.12,5.71-4.85,5.95,2.6,41.33,12.87,61.07,4.53,8.71,7.17,9.39,7.88,9.39,9.17-.66,9.39-29.02,9.5-44.25l.02-2.42c.14-14.82-10.41-26.71-12.52-28.94-.4-.03-.81-.09-1.28-.16-1.09-.17-2.59-.4-4.34-.4Z"/>
        </g>
        <g>
          <path class="cls-8" d="M919,644.37l-8.58,25.22s-14.45-4.41-14.48-17.33c7.22-18.26,7.58-19.78,7.58-19.78,0,0,14.47,4.84,15.49,11.89Z"/>
          <path class="cls-12" d="M910.42,671.11c-.15,0-.3-.02-.44-.07-.15-.05-15.52-4.83-15.56-18.78,0-.2,.04-.39,.11-.57,6.83-17.27,7.49-19.51,7.51-19.59,.09-.38,.36-.74,.73-.95,.23-.13,.48-.19,.74-.19,.16,0,.33,.03,.48,.08,1.57,.53,15.39,5.37,16.51,13.12,.03,.23,.01,.48-.06,.7l-8.58,25.22c-.21,.61-.79,1.03-1.44,1.03Zm-12.96-18.57c.2,9.19,8.79,13.7,12.03,15.07l7.95-23.36c-1.06-4.71-9.75-8.54-12.99-9.81-.76,2.12-2.59,6.99-6.99,18.1Z"/>
        </g>
        <g>
          <path class="cls-13" d="M872.92,390.61s139.38,45.82,134.86,94.86c-4.52,49.04-87.11,180.68-87.11,180.68-9.64-.82-17.98-10.47-25.17-27.75,0,0,49.05-129.7,40.66-156.8-8.39-27.1-105.18-64.53-105.18-64.53l41.94-26.46Z"/>
          <path class="cls-12" d="M920.53,667.66c-9.96-.85-18.86-10.49-26.43-28.67-.15-.36-.16-.75-.02-1.12,.12-.32,12.48-33.14,23.58-68.66,14.47-46.31,20.37-76.44,17.05-87.15-8.09-26.13-103.32-63.19-104.28-63.56-.54-.21-.91-.69-.96-1.27s.21-1.13,.7-1.43l41.94-26.46c.24-.15,.52-.23,.81-.23,.16,0,.32,.03,.47,.08,.35,.12,35.3,11.67,69.35,29.13,20.02,10.27,35.8,20.54,46.89,30.53,14.12,12.72,20.74,25.09,19.66,36.78-4.49,48.72-86.51,180.03-87.34,181.35-.28,.45-.76,.71-1.29,.71h-.14Zm-23.4-29.3c6.8,16.1,14.45,24.9,22.76,26.16,6.27-10.09,82.13-133,86.38-179.2,2.26-24.48-34.05-48.49-64.91-64.32-31.16-15.98-63.06-26.98-68.25-28.73l-38.8,24.47c19.28,7.67,95.55,39.4,103.28,64.39,3.5,11.31-1.9,40.25-16.06,86.02-10.59,34.22-22.55,66.25-24.41,71.2Z"/>
        </g>
        <g>
          <path class="cls-12" d="M1006.37,677.45c-.15,.9-11.89,3.01-13.28,15.42-1.39,12.41,49.35,55.9,58.12,49.31,8.77-6.59-7.68-31.59-17-46.35-9.32-14.76-27.84-18.37-27.84-18.37Z"/>
          <path class="cls-12" d="M1048.79,744.37c-2.84,0-6.7-1.42-11.8-4.33-16.11-9.2-46.65-36.33-45.42-47.34,1.19-10.66,9.29-14.28,12.74-15.82,.33-.14,.68-.3,.89-.41,.08-.1,.18-.19,.29-.26,.26-.18,.56-.27,.87-.27h.08l.21,.03c.19,.04,19.24,3.86,28.84,19.05l1.29,2.04c10.48,16.54,24.84,39.2,15.34,46.34-.86,.65-1.99,.98-3.33,.98Zm-42.05-65.28c-.3,.17-.67,.33-1.15,.55-3.01,1.34-9.98,4.46-10.99,13.4-.86,7.63,24.58,33.33,43.9,44.37,5.69,3.25,8.73,3.93,10.28,3.93h0c.67,0,1.18-.13,1.51-.38,7.26-5.45-7.92-29.41-16.08-42.28l-1.29-2.04c-7.9-12.5-23.19-16.8-26.19-17.54Z"/>
        </g>
        <g>
          <path class="cls-8" d="M1017.32,662.12l6.45,25.85s-14.53,4.12-21.56-6.72c-3.82-19.26-4.35-20.73-4.35-20.73,0,0,14.78-3.77,19.46,1.61Z"/>
          <path class="cls-12" d="M1017.48,689.35c-4.97,0-11.66-1.37-15.8-7.75-.04-.07-.07-.14-.09-.22-3.7-18.69-4.32-20.63-4.32-20.64-.06-.17-.05-.36,.04-.51,.08-.16,.23-.27,.4-.32,.62-.16,15.22-3.8,20.1,1.81,.07,.08,.11,.17,.14,.26l6.45,25.85c.08,.33-.11,.67-.44,.77-.06,.02-2.8,.77-6.47,.77Zm-14.67-8.34c5.92,8.99,17.44,7.1,20.19,6.5l-6.26-25.07c-3.94-4.27-15.31-2.07-18.1-1.44,.37,1.49,1.41,6.09,4.17,20.02Z"/>
        </g>
        <g>
          <path class="cls-13" d="M764.36,416.26s-1.78,47.92,87.27,64.05c89.05,16.13,129.06,188.42,129.06,188.42,0,0,40.01,9.68,44.52-9.03-15.49-65.17-44.52-221.98-151-252.31-77.43-21.94-109.86,8.87-109.86,8.87Z"/>
          <path class="cls-12" d="M1001.24,672.75c-10.58-.08-20.81-2.52-20.91-2.54-.57-.14-.99-.57-1.12-1.14-.1-.43-10.27-43.57-31.04-87.88-19.13-40.81-51.45-91.18-96.81-99.39-46.48-8.42-68.05-25.66-77.97-38.65-10.9-14.28-10.57-26.44-10.55-26.95,.01-.4,.18-.77,.47-1.05,.34-.32,8.54-8,26.53-13.02,9.78-2.73,20.69-4.11,32.44-4.11,16.22,0,33.84,2.66,52.35,7.9,23.44,6.68,44.77,19.99,63.42,39.57,15.84,16.64,30.16,38.26,42.55,64.26,22.53,47.27,34.75,100.4,42.83,135.56l.04,.19c1.14,4.93,2.21,9.59,3.21,13.83,.06,.23,.06,.47,0,.7-2.01,8.31-10.62,12.7-24.9,12.7h-.54Zm-19.3-5.3c2.58,.56,10.86,2.19,19.34,2.26h.52c8.73,0,19.56-1.75,21.84-10.03-.99-4.17-2.04-8.73-3.15-13.55-8.09-35.16-20.26-88.09-42.64-135.06-26.56-55.73-61.57-90.12-104.06-102.22-18.24-5.17-35.57-7.79-51.52-7.79-11.43,0-22.04,1.34-31.53,3.97-14.82,4.11-22.79,10.17-24.87,11.91,.11,2.77,1.12,12.89,9.99,24.46,9.6,12.53,30.58,29.18,76.03,37.42,20.66,3.74,40.37,16.1,58.6,36.74,14.49,16.41,28.1,38.07,40.43,64.38,19.26,41.09,29.4,80.93,31.01,87.53Z"/>
        </g>
        <g>
          <path class="cls-12" d="M839.13,237.48s3.4,19.03,0,21.07c-3.4,2.04-16.08-1.36-15.86-2.49,.22-1.13,2.93-16.54,2.93-16.54l12.92-2.04Z"/>
          <path class="cls-12" d="M835.73,259.82c-4.61,0-11.12-1.85-12.52-2.84-.45-.31-.64-.67-.56-1.05,.22-1.11,2.91-16.37,2.93-16.53,.05-.27,.26-.48,.53-.52l12.92-2.04c.34-.05,.66,.18,.73,.52,.58,3.25,3.29,19.57-.3,21.73-.86,.51-2.19,.72-3.73,.72Zm-11.79-3.87c1.39,1.06,11.93,3.82,14.86,2.05,2.03-1.22,1.13-12.1-.19-19.8l-11.86,1.87c-.43,2.46-2.44,13.88-2.81,15.88Z"/>
        </g>
        <g>
          <path class="cls-8" d="M914.42,340.72c-4.93,.91-10.38,2.71-21.68,7.23-32.03,8.52,5.34-74.16-48.87-90.83l-3.23,117.17c35.67,4.92,67.34-16.62,74.62-18.06,4.48-.89,6.9-15.64-.84-15.51Z"/>
          <path class="cls-12" d="M851.42,376.54c-3.71,0-7.41-.25-10.99-.74-.77-.11-1.33-.77-1.31-1.55l3.23-117.17c.01-.47,.25-.92,.63-1.19,.26-.19,.56-.28,.88-.28,.15,0,.3,.02,.44,.07,31.47,9.68,33.09,41.12,34.27,64.09,.63,12.18,1.17,22.69,5.81,26.07,1.12,.82,2.48,1.22,4.14,1.22,1.12,0,2.39-.19,3.78-.55,11.19-4.48,16.73-6.33,21.83-7.26h.08s.25-.03,.25-.03c3.58,0,5.96,2.51,6.41,6.72,.52,4.87-1.69,11.08-5.33,11.8-1.51,.3-4.7,1.81-8.39,3.55-12.11,5.72-32.34,15.27-55.73,15.27h-.02Zm-9.22-3.58c3.02,.36,6.12,.54,9.24,.54,22.71,0,42.55-9.37,54.4-14.97,4.21-1.99,7.25-3.42,9.13-3.8,1.4-.28,3.32-4.5,2.9-8.5-.19-1.83-.93-4-3.35-4-4.75,.89-10.13,2.69-21.22,7.12l-.19,.06c-1.65,.44-3.2,.66-4.59,.66-2.29,0-4.28-.61-5.92-1.8-5.81-4.24-6.36-14.88-7.06-28.36-1.17-22.77-2.63-51.03-30.22-60.72l-3.14,113.76Z"/>
        </g>
        <g>
          <path class="cls-8" d="M914.92,342.28s15.29,.91,18.47,6c3.17,5.1,2.61,16.31,2.61,16.31,0,0-5.01,4.59-11.33,.79-6.32-3.8-6.57-11.33-10.99-11.78-5.44-4.08-2.15-10.31,1.25-11.33Z"/>
          <path class="cls-12" d="M929.75,368.4c-2,0-3.98-.58-5.87-1.71-3.49-2.1-5.29-5.19-6.73-7.67-1.4-2.4-2.26-3.77-3.63-3.91-.28-.03-.54-.13-.76-.3-3.66-2.74-3.68-6.07-3.37-7.8,.51-2.85,2.65-5.46,5.1-6.19,.13-.04,.28-.06,.43-.06,1.74,.1,16.27,1.1,19.76,6.72,3.32,5.34,2.89,16,2.83,17.19-.02,.4-.19,.77-.49,1.04-.13,.11-3.01,2.69-7.27,2.69Zm-15.45-16.24c2.67,.51,4.04,2.85,5.48,5.33,1.34,2.3,2.85,4.9,5.67,6.59,1.43,.86,2.9,1.3,4.36,1.3h0c2.21,0,3.91-.99,4.69-1.54,.05-2.2,.06-10.8-2.4-14.76-2.08-3.34-11.55-4.87-16.97-5.27-1.27,.52-2.46,2.12-2.75,3.73-.31,1.73,.36,3.32,1.92,4.62Z"/>
        </g>
        <g>
          <path class="cls-8" d="M851.86,260.71c-12.17-7.93-29.24-10.19-53.79-4.96,0,0-27.52,1.45-32.91,36.78-6.45,42.28-3.98,127.45-3.98,127.45,0,0,120.13,.96,128.19-29.36-12.52-19.85-23.3-29-21.14-67.93l-16.37-61.97Z"/>
          <path class="cls-12" d="M761.15,421.5c-.8,0-1.47-.65-1.49-1.48-.1-3.5-2.35-86.12,3.99-127.72,2.87-18.82,12.01-28.17,19.17-32.7,7.53-4.76,14.35-5.32,15.1-5.37,8.73-1.87,16.91-2.82,24.16-2.82,12.31,0,22.32,2.63,30.61,8.03,.7,.46,.9,1.4,.44,2.1-.28,.43-.76,.69-1.27,.69-.3,0-.58-.09-.83-.25-7.78-5.07-17.25-7.53-28.95-7.53-7.05,0-15.02,.94-23.7,2.79l-.24,.03c-.26,.02-6.72,.47-13.75,4.94-6.6,4.19-15.04,12.9-17.73,30.55-5.89,38.63-4.3,113.6-4,125.7,43.54-.05,117.94-5.93,125.06-27.62-1.64-2.58-3.24-4.97-4.79-7.29-10.11-15.1-18.1-27.03-16.22-60.96,.04-.82,.69-1.44,1.51-1.44,.93,.05,1.57,.77,1.53,1.6-1.82,32.91,5.53,43.89,15.71,59.1,1.69,2.53,3.43,5.12,5.2,7.94,.23,.36,.29,.8,.18,1.2-3.52,13.24-26.54,22.38-68.42,27.17-27.64,3.16-54.98,3.32-60.18,3.32-.69,0-1.06,0-1.09,0Z"/>
        </g>
        <g>
          <polygon class="cls-12" points="893.94 411.06 943.51 378.64 940.94 378.64 897.47 403.85 893.94 411.06"/>
          <path class="cls-12" d="M893.94,411.7c-.15,0-.3-.05-.42-.16-.21-.19-.28-.5-.15-.76l3.53-7.21c.06-.11,.14-.21,.25-.27l43.47-25.21c.1-.06,.21-.09,.32-.09h2.57c.28,0,.53,.18,.61,.45,.08,.27-.03,.56-.26,.71l-49.57,32.42c-.11,.07-.23,.1-.35,.1Zm4.02-7.39l-2.43,4.96,45.84-29.98h-.26l-43.15,25.02Z"/>
        </g>
        <g>
          <polygon class="cls-12" points="835.26 385.46 897.8 404.35 893.94 411.06 832.31 390.61 835.26 385.46"/>
          <path class="cls-12" d="M893.94,411.7c-.07,0-.13-.01-.2-.03l-61.63-20.45c-.18-.06-.33-.2-.39-.38-.07-.18-.05-.38,.04-.54l2.95-5.16c.15-.26,.45-.38,.74-.29l62.54,18.89c.19,.06,.34,.19,.41,.37,.07,.18,.06,.38-.04,.55l-3.85,6.71c-.12,.2-.33,.32-.55,.32Zm-60.69-21.44l60.4,20.04,3.2-5.57-61.29-18.52-2.31,4.04Z"/>
        </g>
        <g>
          <path class="cls-8" d="M903.23,356.23c-2.04,.45-67.98,29.23-67.98,29.23l62.54,18.89,50.76-32.04-45.32-16.09Z"/>
          <path class="cls-12" d="M897.8,405.87c-.15,0-.29-.02-.44-.06l-62.54-18.9c-.61-.18-1.04-.73-1.08-1.36-.04-.63,.33-1.23,.91-1.48,19.88-8.67,66.33-28.89,68.26-29.32l.09-.02,.23-.02c.17,0,.34,.03,.51,.09l45.32,16.09c.55,.2,.94,.69,1,1.26,.06,.58-.2,1.14-.7,1.45l-50.75,32.04c-.25,.15-.53,.23-.81,.23Zm-.22-3.17l47.52-30-41.87-14.87c-4.68,1.76-42.15,18.03-63.57,27.36l57.92,17.5Z"/>
        </g>
        <g>
          <polygon class="cls-12" points="952.86 339.01 897.47 403.85 901.58 406.4 956.05 342.28 952.86 339.01"/>
          <path class="cls-12" d="M901.58,407.04c-.11,0-.23-.03-.33-.1l-4.11-2.55c-.16-.1-.26-.26-.29-.44s.02-.37,.14-.51l55.38-64.84c.12-.14,.28-.22,.46-.22,.18,0,.35,.06,.48,.19l3.19,3.27c.23,.23,.24,.61,.03,.86l-54.47,64.12c-.12,.15-.3,.22-.48,.22Zm-3.14-3.34l3.01,1.87,53.74-63.27-2.3-2.36-54.45,63.75Z"/>
        </g>
        <g>
          <polygon class="cls-12" points="1007.38 307.94 952.86 339.01 956.05 342.28 1009.4 311.12 1007.38 307.94"/>
          <path class="cls-12" d="M956.05,342.91c-.17,0-.33-.07-.46-.19l-3.19-3.27c-.14-.14-.2-.34-.17-.53,.03-.2,.14-.37,.31-.46l54.52-31.07c.3-.17,.67-.07,.85,.21l2.02,3.18c.09,.15,.12,.32,.08,.49s-.15,.31-.3,.4l-53.35,31.16c-.1,.06-.21,.09-.32,.09Zm-2.16-3.76l2.27,2.33,52.35-30.57-1.34-2.11-53.28,30.36Z"/>
        </g>
        <g>
          <polygon class="cls-8" points="901.58 406.4 958.29 372.6 1009.4 311.12 956.05 342.28 901.58 406.4"/>
          <path class="cls-12" d="M901.58,407.92c-.45,0-.87-.19-1.16-.53-.48-.58-.48-1.4,0-1.97l54.47-64.13c.11-.13,.24-.24,.39-.33l53.35-31.16c.23-.14,.5-.21,.76-.21,.45,0,.87,.2,1.16,.54,.48,.57,.48,1.39,0,1.96l-51.1,61.48c-.11,.13-.24,.24-.39,.33l-56.71,33.8c-.23,.14-.5,.21-.78,.21Zm7.08-7.51l48.63-28.98,45.42-54.65-45.68,26.68-48.38,56.96Z"/>
        </g>
        <g>
          <path class="cls-8" d="M790.17,257.64s-76.42,22.82-54.06,101.06c16.78,58.71,87.79,23.4,105.42,13.57,7.14-3.82,4.64-14.52-4.69-14.34-2.69,1-5.77,2.19-9.4,3.65-20.13,8.05-72.29,.57-61.39-45.62l24.13-58.31Z"/>
          <path class="cls-12" d="M779.09,393.28c-7.29,0-13.87-1.19-19.54-3.53-12.15-5.02-20.53-15.32-24.9-30.62-5.18-18.13-5.51-34.84-.98-49.66,3.63-11.88,10.38-22.56,20.04-31.73,16.33-15.5,35.83-21.48,36.02-21.54,.14-.04,.29-.06,.44-.06,.67,0,1.26,.43,1.45,1.08,.24,.81-.22,1.65-1.02,1.89-.19,.06-18.97,5.79-34.84,20.87-14.56,13.84-29.53,38.66-18.2,78.32,4.1,14.36,11.89,24,23.14,28.65,5.32,2.2,11.52,3.31,18.42,3.31,24.4,0,51.25-13.5,61.66-19.31,2.63-1.41,3.86-4.06,3.15-6.78-.57-2.17-2.69-4.7-6.82-4.72-2.58,.96-5.57,2.12-9.12,3.54-4.61,1.84-10.9,2.86-17.69,2.86-14.06,0-27.02-4.21-35.54-11.55-10.51-9.05-14.04-22.43-10.2-38.7,.16-.69,.77-1.17,1.48-1.17h.11l.25,.04c.81,.19,1.32,1.01,1.13,1.82-3.56,15.09-.37,27.43,9.22,35.7,8,6.89,20.21,10.83,33.51,10.83,6.32,0,12.38-.97,16.61-2.67,3.7-1.48,6.79-2.68,9.44-3.66,.16-.06,.33-.09,.51-.09h.22c4.87,0,8.73,2.74,9.84,6.99,1.06,4.06-.8,8.16-4.63,10.21-10.59,5.91-37.98,19.67-63.15,19.67h0Z"/>
        </g>
        <g>
          <path class="cls-8" d="M826.46,263.49l1.37-20.22s28.82,9.77,29.72-37.74c.55-28.83-24.97-35.93-39.81-20.76-14.84,15.16-6.33,40.98-9.94,51.95-2.39,7.27-10.73,17.75-13.77,24.22-1.55,3.29,22.74,17.08,32.42,2.56Z"/>
          <path class="cls-12" d="M813.54,271.5c-7.23,0-13.52-3.24-15.28-4.23-2.11-1.19-6.88-4.26-5.59-6.99,1.3-2.75,3.46-6.12,5.75-9.69,3.25-5.06,6.6-10.27,7.95-14.36,1.13-3.44,.98-8.62,.8-14.63-.36-12.2-.8-27.38,9.49-37.9,5.11-5.22,11.9-8.22,18.62-8.22,3,0,5.89,.58,8.61,1.72,9.77,4.09,15.44,14.7,15.18,28.36-.35,18.21-4.77,30.43-13.15,36.32-3.54,2.49-7.63,3.75-12.14,3.75-1.86,0-3.45-.23-4.56-.45l-1.25,18.41c-.02,.26-.1,.52-.25,.74-3.13,4.69-8.03,7.17-14.19,7.17Zm-18-10.19c.28,.46,1.38,1.72,4.21,3.31,3.29,1.86,8.63,3.84,13.75,3.84s8.89-1.85,11.47-5.5l1.34-19.81c.03-.47,.28-.9,.67-1.16,.25-.17,.54-.26,.84-.26,.17,0,.33,.03,.49,.08,.02,0,2.26,.74,5.44,.74,3.92,0,7.43-1.07,10.43-3.18,7.53-5.3,11.52-16.7,11.85-33.88,.24-12.56-4.62-21.85-13.32-25.5-2.34-.98-4.84-1.48-7.43-1.48-5.91,0-11.91,2.66-16.45,7.3-9.39,9.6-8.97,24.06-8.63,35.69,.19,6.29,.35,11.72-.95,15.67-1.47,4.46-4.93,9.85-8.28,15.05-2.16,3.36-4.21,6.55-5.44,9.08Z"/>
        </g>
      </g>
      <g>
        <path class="cls-12" d="M778.12,262.66s14.33-4.34,22.49-5.85c18.73-4.45,16.16-24.09,14.95-37.99-1.21-13.9,4.23-16.92,6.65-15.41s10.69-1.21,13.05-6.95c15.05,.3,13.83,14.41,25.97,16.83,0,0,13.44-19.24,3.83-32.54-9.61-13.29-23.51-8.46-23.51-8.46,0,0-17.22-15.11-35.65,.91-18.43,16.01-28.99,78.65-27.78,89.45Z"/>
        <path class="cls-12" d="M778.12,263.3c-.12,0-.24-.04-.35-.1-.16-.1-.26-.27-.28-.46-.64-5.7,1.84-24.34,6.54-43,3.42-13.56,10.75-37.71,21.45-47,17.35-15.08,33.88-2.99,36.21-1.13,2.26-.64,14.96-3.55,23.88,8.79,9.76,13.5-3.26,32.47-3.82,33.27-.14,.21-.39,.31-.65,.26-5.74-1.14-8.63-4.81-11.42-8.37-3.29-4.19-6.41-8.15-14.01-8.44-1.65,3.54-5.34,5.81-8.31,6.77-2.31,.74-4.37,.77-5.48,.07-.62-.39-1.47-.33-2.28,.16-1.04,.64-4.36,3.58-3.4,14.65l.15,1.72c1.23,13.73,2.91,32.54-15.59,36.94-8.07,1.49-22.31,5.79-22.46,5.84-.06,.02-.12,.03-.18,.03Zm45.9-96.86c-5.3,0-11.41,1.79-17.71,7.25-17.61,15.3-28.32,75.38-27.63,88.14,3.07-.91,14.77-4.34,21.81-5.64,17.4-4.14,15.84-21.58,14.59-35.58l-.15-1.72c-1-11.48,2.47-14.91,4-15.85,1.22-.75,2.57-.81,3.61-.16,.78,.49,2.52,.41,4.42-.2,2.81-.9,6.32-3.07,7.7-6.45,.1-.24,.33-.4,.6-.39,8.52,.17,12.02,4.63,15.41,8.93,2.7,3.43,5.25,6.68,10.26,7.82,1.72-2.64,12.14-19.64,3.6-31.45-9.21-12.74-22.24-8.42-22.79-8.23-.22,.07-.46,.03-.63-.12-.44-.39-7.42-6.35-17.11-6.35Z"/>
      </g>
      <g>
        <path class="cls-8" d="M837.66,359.84s17.45-6.23,26.51-2.15,11.67,26.28,11.67,26.28c0,0-.57,1.47-3.06,0-2.49-1.47-6.34-14.55-6.34-14.55,0,0-1.36,6.96-7.14,8.54-5.78,1.59-12.12-3.17-13.65-4.98-1.53-1.81-7.99-2.52-7.99-2.52,0,0-3.06-5.87,0-10.62Z"/>
        <path class="cls-12" d="M874.68,386.14c-.8,0-1.7-.29-2.68-.87-1.59-.94-3.51-4.74-5.72-11.3-1.19,2.12-3.24,4.53-6.59,5.45-.89,.25-1.83,.37-2.8,.37-5.59,0-10.86-4.01-12.41-5.84-.61-.72-3.87-1.65-7-1.99-.5-.05-.95-.36-1.18-.81-.14-.27-3.43-6.71,.07-12.15,.18-.28,.45-.5,.77-.61,.41-.15,10.26-3.63,19.13-3.63,3.4,0,6.26,.51,8.51,1.53,9.74,4.38,12.44,26.55,12.55,27.49,.03,.24,0,.5-.09,.72-.06,.17-.45,1.07-1.57,1.46-.31,.11-.65,.16-1,.16Zm-8.25-18.24c.67,0,1.27,.45,1.46,1.09,1.96,6.66,4.61,13.05,5.66,13.67,.25,.15,.45,.25,.62,.31-1.18-8.04-4.59-21.19-10.62-23.9-1.84-.83-4.26-1.25-7.2-1.25-7.27,0-15.43,2.53-17.67,3.27-1.6,2.97-.58,6.44,.02,7.97,2.26,.32,6.59,1.14,8.11,2.94,1.03,1.22,5.51,4.77,10.03,4.77h0c.72,0,1.41-.09,2.06-.27,4.75-1.3,6.04-7.32,6.05-7.38,.14-.69,.72-1.19,1.42-1.22h.07Z"/>
      </g>
      <path class="cls-12" d="M680.06,586.52c-.2,0-.38-.12-.46-.29-.11-.25,0-.55,.25-.67l96.37-44.11c.07-.03,.14-.05,.21-.05,.2,0,.38,.12,.46,.29,.06,.12,.06,.26,.01,.38s-.14,.23-.26,.28l-96.37,44.11c-.07,.03-.14,.05-.21,.05Z"/>
      <path class="cls-12" d="M659.82,621.26c-.19,0-.37-.11-.46-.29-.12-.25,0-.55,.24-.67l95.47-44.74c.07-.03,.14-.05,.21-.05,.2,0,.37,.11,.46,.29,.06,.12,.06,.26,.02,.38s-.14,.23-.26,.28l-95.47,44.74c-.07,.03-.14,.05-.21,.05Z"/>
      <path class="cls-12" d="M641.5,655.03c-.2,0-.37-.11-.46-.29-.06-.12-.06-.26-.02-.38,.05-.13,.14-.23,.26-.28l99.89-46.77c.07-.03,.14-.05,.21-.05,.2,0,.37,.11,.46,.29,.06,.12,.06,.26,.02,.38-.05,.13-.14,.23-.26,.28l-99.89,46.77c-.07,.03-.14,.05-.21,.05Z"/>
      <path class="cls-12" d="M604.66,424.46c-.19,0-.36-.1-.45-.27-.06-.12-.08-.25-.04-.38,.04-.13,.13-.23,.24-.3l82.2-43.67c.07-.04,.15-.06,.24-.06,.19,0,.36,.1,.45,.27,.13,.24,.04,.55-.21,.68l-82.21,43.67c-.07,.04-.15,.06-.24,.06Z"/>
      <path class="cls-12" d="M554.2,468.35c-.2,0-.37-.11-.45-.28-.06-.12-.07-.26-.02-.38,.04-.13,.14-.23,.26-.29l108.21-52.05c.07-.03,.14-.05,.22-.05,.2,0,.37,.11,.45,.29,.06,.12,.07,.26,.02,.38-.04,.13-.14,.23-.26,.29l-108.21,52.05c-.07,.03-.14,.05-.22,.05Z"/>
      <path class="cls-12" d="M536.7,529.74c-.19,0-.36-.11-.45-.27-.06-.12-.07-.25-.03-.38s.13-.23,.25-.29l125.98-64.8c.07-.04,.15-.05,.23-.05,.19,0,.36,.1,.45,.27,.13,.25,.03,.55-.22,.68l-125.98,64.8c-.07,.04-.15,.06-.23,.06Z"/>
      <path class="cls-12" d="M534.6,504.67c-.19,0-.37-.11-.45-.28-.06-.12-.07-.26-.02-.38,.04-.13,.13-.23,.26-.29l118.28-57.55c.07-.03,.14-.05,.22-.05,.19,0,.37,.11,.45,.28,.06,.12,.07,.26,.02,.38-.04,.13-.13,.23-.26,.29l-118.28,57.55c-.07,.03-.14,.05-.22,.05Z"/>
      <path class="cls-12" d="M585.96,295.46c-.18,0-.35-.1-.44-.26-.13-.24-.05-.55,.2-.68l100.91-56.19c.08-.04,.16-.06,.24-.06,.18,0,.35,.1,.44,.26,.13,.24,.05,.55-.2,.68l-100.91,56.19c-.07,.04-.16,.06-.24,.06Z"/>
      <g>
        <path class="cls-8" d="M808.81,274.73l1.49,.29s.6,.12,1.53,.12c1.88,0,4.64-.44,7.13-2.53l.74-.62,.55,.79c5,7.09,4.39,32.22,3.9,42.7l-1.72,.24-13.62-40.97Z"/>
        <path class="cls-12" d="M823.24,316.94c-.88-.04-1.53-.75-1.49-1.59,.35-7.39,1.14-31.44-2.7-39.84-2.63,1.66-5.32,2.03-7.19,2.03-1.14,0-1.89-.14-2.03-.17-.82-.16-1.36-.97-1.19-1.79,.14-.71,.77-1.22,1.49-1.22h.09l.21,.03s.54,.1,1.39,.1c1.79,0,4.41-.41,6.75-2.38,.27-.23,.62-.36,.98-.36h.19c.43,.07,.81,.3,1.05,.64,4.93,6.99,4.63,30,4.01,43.09-.04,.81-.71,1.45-1.52,1.45h-.03Z"/>
      </g>
      <g>
        <path class="cls-8" d="M862.5,286.13l1.68-.51c.28,.63,6.74,15.55,5.21,28.56l-1.75,.06-5.14-28.1Z"/>
        <path class="cls-12" d="M868.36,315.58c-.85-.1-1.44-.86-1.35-1.69,1.46-12.38-4.96-27.16-5.03-27.31-.34-.77,.01-1.67,.78-2,.19-.08,.4-.13,.61-.13,.6,0,1.15,.36,1.39,.91,.28,.64,6.81,15.7,5.26,28.89-.09,.76-.74,1.34-1.51,1.34h-.16Z"/>
      </g>
      <path class="cls-12" d="M691.45,668.02c-.19,0-.37-.11-.46-.29-.12-.25,0-.55,.24-.67l55.49-25.98c.07-.03,.14-.05,.21-.05,.19,0,.37,.11,.46,.29,.12,.25,0,.55-.24,.67l-55.49,25.98c-.07,.03-.14,.05-.21,.05Z"/>
      <g>
        <path class="cls-12" d="M820.78,169.28s-4.6-23.34-24.24-13.6c-19.64,9.74-7.7,55.51-7.7,55.51l31.95-41.92Z"/>
        <path class="cls-12" d="M788.83,211.83s-.08,0-.12-.01c-.24-.05-.43-.23-.49-.46-.49-1.89-11.84-46.38,8.04-56.24,5.71-2.83,10.75-3.21,14.99-1.12,7.85,3.87,10.07,14.7,10.16,15.16,.03,.18,0,.36-.12,.51l-31.95,41.92c-.12,.16-.31,.25-.51,.25Zm16.59-57.89c-2.62,0-5.5,.77-8.6,2.31-17.14,8.5-9.41,46.04-7.68,53.5l30.96-40.62c-.4-1.69-2.79-10.73-9.42-13.99-1.62-.79-3.37-1.19-5.26-1.19Z"/>
      </g>
      <g>
        <polygon class="cls-13" points="957.26 489.91 948.55 504.67 963.9 498.88 958.77 509.76 966.32 509.76 957.26 489.91"/>
        <path class="cls-12" d="M966.32,510.4h-7.55c-.22,0-.42-.11-.54-.3-.12-.18-.13-.41-.04-.61l4.46-9.46-13.88,5.23c-.25,.09-.54,.02-.71-.19-.17-.21-.2-.5-.06-.73l8.7-14.76c.18-.3,.57-.4,.87-.22,.3,.18,.4,.57,.22,.87l-7.79,13.21,13.66-5.15c.24-.09,.52-.03,.69,.16,.18,.19,.22,.47,.11,.7l-4.71,9.97h6.55c.35,0,.64,.28,.64,.64s-.28,.64-.64,.64Z"/>
      </g>
      <g>
        <polygon class="cls-13" points="1000.94 475.43 994.42 485.29 1004.08 485.29 995.93 492.54 1000.94 495.26 1000.94 475.43"/>
        <path class="cls-12" d="M1000.94,495.89c-.1,0-.21-.02-.3-.08l-5.01-2.72c-.18-.1-.3-.28-.33-.49s.05-.41,.21-.55l6.91-6.14h-8c-.23,0-.45-.13-.56-.33-.11-.21-.1-.46,.03-.65l6.52-9.86c.19-.29,.59-.37,.88-.18,.29,.19,.37,.59,.18,.88l-5.87,8.87h8.49c.26,0,.5,.16,.59,.41s.03,.53-.17,.7l-7.48,6.65,4.22,2.29c.31,.17,.42,.55,.26,.86-.11,.21-.33,.33-.56,.33Z"/>
      </g>
    </g>
    <path class="cls-12" d="M75.65,782.75c-.34,0-.64-.19-.75-.48-1.3-3.2-1.64-6.58-.97-9.77,.68-3.22,2.33-6.01,4.78-8.08,3.02-2.55,7.42-4.01,12.06-4.01,.14,0,.28,0,.42,0,2.77,.06,5.54,.61,8,1.58,2.34,.91,4.48,2.17,6.36,3.75,1.68-3.26,6.11-10.07,15.22-13.84,3.99-1.65,8.27-2.49,12.71-2.49,1.94,0,3.94,.16,5.94,.48,4.23,.67,7.47,1.9,8.9,2.52,3.58-3.52,8.6-5.53,13.82-5.53,1.11,0,2.23,.09,3.31,.28,7.31,1.23,13.14,6.5,14.59,13.15,3.03,1.23,5.5,3.08,7.18,5.36,1.85,2.51,2.76,5.56,2.63,8.81-.13,3.2-1.25,6.46-3.25,9.42-.14,.22-.4,.35-.69,.35h0l-110.27-1.5Zm109.81,.04c3.59-5.55,3.75-11.79,.42-16.31-1.58-2.15-3.95-3.87-6.87-4.99-.25-.1-.43-.3-.48-.55-1.19-6.24-6.57-11.21-13.37-12.35-.99-.17-2-.25-3-.25-4.97,0-9.71,1.99-13,5.45-.15,.16-.38,.25-.62,.25-.13,0-.26-.03-.38-.08-1.57-.73-7.25-3.1-14.6-3.1-4.23,0-8.3,.79-12.08,2.36-9.44,3.9-13.55,11.14-14.89,14.06-.13,.27-.42,.45-.75,.45-.03,0-.1,0-.13,0l-.08-.02c-.16-.04-.29-.11-.39-.2-3.73-3.49-8.86-5.55-14.07-5.65-.14,0-.28,0-.42,0-4.27,0-8.14,1.28-10.91,3.62-4.34,3.66-5.76,9.99-3.59,15.83l109.21,1.49Z"/>
    <g>
      <path class="cls-14" d="M1405.26,189.7c-.59,0-1.07-.26-1.31-.72-.19-.33-.2-.74-.03-1.11,.19-.39,.56-.67,1-.75,.38-.05,.73-.09,1.09-.14,.66-.08,1.33-.16,2.01-.28,.21-.03,.37-.06,.53-.06,.3,0,.56,.07,.79,.21,.33,.2,.55,.53,.6,.92,.05,.38-.07,.75-.34,1.03-.32,.35-.77,.43-1.05,.48-1.05,.17-2.04,.3-3.01,.4-.07,.01-.18,.02-.29,.02Z"/>
      <path class="cls-14" d="M1387.79,164.83c-.5-.01-.97-.33-1.17-.82-.19-.45-.1-.96,.24-1.32,.68-.73,3.4-.9,3.88-.9,.8,0,1.27,.14,1.56,.48,.22,.23,.35,.57,.33,.91-.02,.35-.19,.68-.46,.9-.38,.34-.89,.34-1.17,.34-.91,0-1.72,.11-2.49,.32-.15,.04-.37,.1-.61,.1-.02,0-.08,0-.1,0Z"/>
      <path class="cls-14" d="M1401.62,181.46c-.7,0-1.27-.54-1.31-1.25-.02-.29,.06-.53,.11-.71,.24-.8,.41-1.6,.5-2.39,.03-.3,.1-.85,.57-1.21,.2-.17,.5-.27,.81-.27,.36,0,.7,.15,.94,.4,1,.89-.36,4.54-.37,4.57-.2,.52-.7,.86-1.25,.86Z"/>
      <path class="cls-14" d="M1397.44,187.61c-.66,0-1.19-.47-1.28-1.13,0-.03,0-.07,0-.09-.03-.58,.34-.96,.54-1.17,.59-.61,1.11-1.21,1.56-1.82,.18-.24,.42-.55,.84-.69,.11-.04,.26-.06,.4-.06,.42,0,.81,.2,1.06,.54,.24,.33,.32,.73,.2,1.11-.06,.25-.22,.47-.31,.59-.58,.79-1.22,1.54-1.91,2.23-.24,.29-.67,.5-1.11,.5Z"/>
      <path class="cls-14" d="M1398.13,167.41c-.48-.05-.79-.33-.98-.49-.61-.54-1.23-.98-1.89-1.34-.29-.16-.74-.4-.89-.95-.1-.38-.03-.77,.21-1.08,.25-.33,.66-.53,1.08-.53,.18,0,.36,.04,.53,.11,1.01,.47,1.98,1.14,2.92,2.01,.41,.34,.58,.94,.39,1.45-.18,.51-.67,.83-1.23,.83-.03,0-.11,0-.14,0Z"/>
      <path class="cls-14" d="M1401.87,174.06c-.31,0-.62-.11-.85-.32-.34-.28-.44-.68-.5-.91,0,0-.02-.08-.02-.09-.2-.77-.46-1.52-.76-2.22-.43-.91-.05-1.47,.21-1.72,.21-.23,.56-.37,.93-.37,.2,0,.39,.04,.56,.13,.46,.21,.65,.63,.75,.86,.36,.84,.66,1.69,.89,2.58l.03,.11c.06,.22,.14,.52,.08,.86-.12,.65-.67,1.09-1.31,1.09Z"/>
      <path class="cls-14" d="M1433.24,176.58c-.37,0-.73-.16-.99-.44-.25-.27-.38-.63-.36-.98,.02-.43,.28-.75,.47-.98l.1-.12c.09-.1,.13-.16,.17-.23,.21-.29,.49-.69,1-.81,.09-.02,.2-.03,.3-.03,.4,0,.79,.18,1.06,.48,.25,.28,.36,.65,.31,1-.04,.35-.24,.62-.39,.82-.17,.22-.3,.39-.44,.57-.21,.26-.55,.69-1.14,.72-.02,0-.07,0-.09,0Z"/>
      <path class="cls-14" d="M1427.34,181.51s-.16,0-.21-.02c-.65-.11-1.1-.66-1.06-1.29,0-.65,.56-1.02,.79-1.18,.66-.45,1.34-.94,2.13-1.55,.22-.2,.56-.33,.9-.33,.53,0,1,.3,1.2,.76,.2,.46,.09,.99-.27,1.39-.02,.03-.05,.05-.07,.07-.71,.61-1.47,1.13-2.28,1.69l-.1,.07c-.24,.16-.58,.39-1.03,.39Z"/>
      <path class="cls-14" d="M1382.7,170.18c-.46,0-.88-.24-1.11-.62-.3-.44-.17-1.03-.02-1.49,.19-.59,1.21-2.9,2.16-3.25,.14-.05,.3-.08,.45-.08,.41,0,.81,.2,1.06,.54,.24,.33,.32,.76,.2,1.15-.06,.24-.21,.45-.31,.59-.44,.6-.79,1.26-1.03,1.97-.11,.31-.28,.82-.83,1.07-.15,.07-.35,.12-.55,.12Z"/>
      <path class="cls-14" d="M1386.35,184.08h0c-.45-.02-1.15-.23-2.74-3.05-.28-.47-.3-1-.06-1.43,.22-.39,.65-.64,1.11-.64,.57,0,1.09,.36,1.35,.94,.34,.6,.8,1.27,1.27,1.86,.19,.23,.5,.62,.43,1.17-.04,.63-.61,1.16-1.29,1.16-.02,0-.05,0-.07,0Z"/>
      <path class="cls-14" d="M1382.92,177.56c-.65,0-1.22-.49-1.36-1.15-.28-1-.48-2.07-.58-3.11-.06-.33,.05-.75,.32-1.07,.26-.31,.63-.48,1.01-.48,.25,0,.51,.08,.73,.22,.54,.38,.59,.91,.62,1.17,.09,.82,.23,1.61,.45,2.42,.08,.3,.19,.72,0,1.16-.24,.53-.69,.84-1.21,.84Z"/>
      <path class="cls-14" d="M1392.88,188.47c-1.06,0-3.64-1.5-3.82-1.62-.49-.33-.7-.9-.53-1.44,.17-.55,.69-.93,1.28-.93,.1,0,.2,.01,.31,.03,.25,.05,.46,.17,.61,.25,.73,.42,1.55,.8,2.44,1.14,.52,.15,.94,.64,.99,1.2,.04,.52-.24,.99-.74,1.24-.13,.08-.33,.13-.55,.13Z"/>
      <path class="cls-14" d="M1391.12,192.09c-.13,0-.26-.02-.38-.06-.34-.1-.62-.34-.78-.65-.16-.3-.18-.66-.07-.98,.15-.5,.59-.73,.83-.86,.79-.42,1.53-.85,2.22-1.3,.19-.13,.54-.32,.96-.32,.31,0,.59,.1,.83,.29,.3,.23,.48,.6,.48,1,0,.41-.21,.8-.54,1.04-.83,.58-1.74,1.09-2.61,1.56-.24,.13-.54,.29-.92,.29Z"/>
      <path class="cls-14" d="M1383.8,195.11c-.71,0-1.28-.48-1.36-1.13-.08-.67,.38-1.28,1.09-1.46,.72-.22,1.72-.53,2.67-.87,.18-.06,.44-.16,.75-.16,.2,0,.39,.04,.57,.12,.61,.25,.95,.98,.71,1.61-.21,.58-.75,.77-1.01,.87l-.4,.14c-.87,.3-1.76,.62-2.69,.85-.03,0-.06,.01-.1,.02-.08,.01-.16,.02-.23,.02Z"/>
      <path class="cls-14" d="M1363.29,197.91c-1.01-.02-1.99-.04-2.97-.09-.32-.02-.72-.04-1.09-.3-.42-.28-.62-.78-.52-1.28,.11-.51,.52-.91,1.05-1.01,.11-.03,.25-.04,.43-.04h.2c.97,.05,1.93,.08,2.88,.09,.33,0,.92,.02,1.33,.5,.2,.21,.33,.53,.32,.87,0,.33-.15,.64-.39,.87-.41,.39-.93,.39-1.15,.39,0,0-.09,0-.09,0Z"/>
      <path class="cls-14" d="M1355.53,197.47c-.11,0-.22,0-.33-.02-1.01-.1-1.98-.2-2.95-.32-.32-.04-.72-.09-1.06-.39-.43-.4-.56-.93-.37-1.41,.2-.51,.74-.85,1.33-.85,.09,0,.18,0,.28,.02l.57,.06c.81,.09,1.61,.19,2.41,.26,.34,.03,.93,.09,1.29,.62,.39,.51,.29,1.29-.25,1.72-.26,.2-.57,.3-.94,.3Z"/>
      <path class="cls-14" d="M1348,196.09c-.16,0-.33-.02-.48-.05-.99-.17-1.95-.35-2.91-.54-.32-.07-.72-.15-1.03-.47-.38-.42-.47-.94-.27-1.39,.22-.48,.72-.79,1.3-.79,.13,0,.26,.02,.39,.05l.52,.1c.81,.16,1.62,.31,2.42,.45,.33,.06,.92,.16,1.24,.72,.35,.54,.19,1.31-.39,1.69-.23,.16-.5,.23-.81,.23Z"/>
      <path class="cls-14" d="M1376.06,196.93c-.89,0-1.38-.62-1.41-1.22-.04-.71,.52-1.31,1.3-1.39,.93-.15,1.92-.31,2.87-.5,.17-.03,.36-.06,.54-.06,.33,0,.61,.09,.85,.27,.54,.36,.72,1.11,.36,1.69-.31,.51-.84,.62-1.13,.68l-.62,.12c-.86,.16-1.75,.33-2.65,.43-.03,0-.06,0-.1,0h0Z"/>
      <path class="cls-14" d="M1367.96,197.78c-.87-.09-1.3-.74-1.27-1.34,.03-.71,.65-1.25,1.43-1.26h.24c.92-.06,1.85-.11,2.75-.19,.11,0,.21-.02,.32-.02,.43,0,.78,.13,1.05,.37,.5,.42,.57,1.21,.13,1.73-.37,.45-.91,.49-1.19,.52l-.77,.06c-.84,.06-1.71,.13-2.58,.13h0s-.06,0-.09,0Z"/>
      <path class="cls-14" d="M1420.45,185.33c-.23,0-.44-.05-.64-.16-.54-.26-.83-.91-.64-1.5,.19-.58,.68-.8,.94-.91,.84-.37,1.62-.74,2.37-1.13,.24-.12,.53-.26,.9-.26,.04,0,.13,0,.16,.01,.51,.04,.95,.4,1.11,.91,.15,.49,0,1.02-.4,1.35-.03,.03-.07,.05-.1,.07-.68,.42-1.41,.75-2.12,1.07-.25,.11-.5,.23-.75,.34-.24,.11-.52,.21-.84,.21Z"/>
      <path class="cls-14" d="M1413.01,188.1c-.3,0-.57-.08-.8-.24-.53-.34-.73-1.04-.44-1.62,.27-.53,.79-.68,1.07-.76,.9-.25,1.77-.51,2.62-.79,.22-.07,.46-.15,.74-.15,.12,0,.24,.01,.35,.04,.5,.11,.9,.52,.99,1.04,.09,.5-.14,1.01-.58,1.29-.04,.02-.08,.05-.12,.06-.76,.33-1.57,.56-2.35,.78-.28,.08-.56,.16-.84,.24-.2,.06-.41,.11-.64,.11Z"/>
      <path class="cls-14" d="M1400.43,189.94c-.96-.02-2.05-.11-3.17-.25-.31-.04-.94-.12-1.27-.7-.35-.53-.2-1.28,.36-1.68,.24-.17,.53-.26,.85-.26,.13,0,.26,.01,.39,.03,.92,.12,1.83,.2,2.76,.23,.34,.01,.75,.03,1.12,.29,.49,.39,.66,.92,.49,1.43-.19,.55-.74,.91-1.38,.91-.03,0-.12,0-.15,0Z"/>
    </g>
    <g>
      <path class="cls-11" d="M1463.83,150.19c-3.67-6.1,.29-10.44,2.73-11.84l44.71-11.37-25.7,41.81c-.1,.19-.21,.37-.33,.54-2.66,3.7-11.02,3.35-14.57-3.21l8.87-8.55c-5.59-2.95-12.3-1.71-15.7-7.38Z"/>
      <path class="cls-15" d="M1463.83,150.19c-3.67-6.1,.29-10.44,2.73-11.84l44.71-11.37-25.7,41.81c-.1,.19-.21,.37-.33,.54-2.66,3.7-11.02,3.35-14.57-3.21l8.87-8.55c-5.59-2.95-12.3-1.71-15.7-7.38Z"/>
    </g>
  </g>
  <g>
    <path class="cls-6" d="M442.17,270.99l8.33,31.75-67.15,17.63-3.2-12.21c5.2-4.67,17.28-13.61,30.83-10.41,5.55-8.96,16.29-24.43,31.2-26.76Z"/>
    <path class="cls-5" d="M436.58,249.69l5.59,21.3c-14.91,2.33-25.65,17.8-31.2,26.76-13.55-3.2-25.63,5.73-30.83,10.41l-10.72-40.83,67.15-17.63Z"/>
    <rect class="cls-3" x="367.91" y="265.31" width="4.11" height="5.22" transform="translate(-55.9 102.7) rotate(-14.71)"/>
    <rect class="cls-3" x="400.94" y="256.64" width="4.11" height="5.22" transform="translate(-52.61 110.8) rotate(-14.71)"/>
    <rect class="cls-3" x="433.96" y="247.97" width="4.11" height="5.22" transform="translate(-49.33 118.9) rotate(-14.71)"/>
    <rect class="cls-3" x="381.76" y="318.08" width="4.11" height="5.22" transform="translate(-68.84 107.94) rotate(-14.71)"/>
    <rect class="cls-3" x="414.79" y="309.41" width="4.11" height="5.22" transform="translate(-65.55 116.04) rotate(-14.71)"/>
    <rect class="cls-3" x="447.81" y="300.74" width="4.11" height="5.22" transform="translate(-62.27 124.14) rotate(-14.71)"/>
    <rect class="cls-3" x="374.43" y="290.17" width="4.11" height="5.22" transform="translate(-61.99 105.17) rotate(-14.71)"/>
    <rect class="cls-3" x="440.49" y="272.84" width="4.11" height="5.22" transform="translate(-55.43 121.37) rotate(-14.71)"/>
    <circle class="cls-6" cx="388.35" cy="276.81" r="6.36"/>
  </g>
  <g>
    <rect class="cls-6" x="369.37" y="492.35" width="63.17" height="45.45" transform="translate(162.39 -92.51) rotate(16.46)"/>
    <path d="M408.8,513.28l-7.53-7.93c-2.41-2.54-6.67-1.51-7.66,1.84l-3.1,10.49c-.99,3.36,2.02,6.53,5.43,5.71l10.63-2.56c3.4-.82,4.65-5.02,2.23-7.56Z"/>
  </g>
  <g>
    <g>
      <g>
        <path class="cls-7" d="M932.84,120.58c3.79-7.38,.88-16.44-6.5-20.24-7.38-3.79-16.44-.88-20.24,6.5-1.86,3.61-2.1,7.63-1.01,11.23l-.02-.02s1.35,6.72-.34,10.28c-.99,2.07-1.31,2.69-1.42,2.84l5.68,2.92,5.68,2.92c.06-.17,.37-.8,1.48-2.81,1.91-3.45,8.16-6.26,8.16-6.26h0c3.56-1.21,6.68-3.75,8.53-7.36Z"/>
        <path class="cls-7" d="M903.32,131.17l-.03-.02s-.04,.13,.03,.02Z"/>
        <path class="cls-7" d="M914.71,137.02l-.03-.02c-.05,.12,.03,.02,.03,.02Z"/>
      </g>
      <path class="cls-2" d="M908.79,127.55l5.63-10.95s-1.7-2-2.51,.56c-.81,2.56,5.2,3.26,5.77,1.33,.56-1.93-3.75,.05-1.57,2.43,2.18,2.38,6.01,1.27,5.52-.8-.49-2.07-2.62,.47-4.06,3.21l-3.66,7.11"/>
      <rect class="cls-7" x="899.53" y="129.81" width="21.9" height="2.79" rx="1.26" ry="1.26" transform="translate(160.61 -401.61) rotate(27.2)"/>
      <rect class="cls-7" x="897.96" y="132.86" width="21.9" height="2.79" rx="1.26" ry="1.26" transform="translate(161.83 -400.55) rotate(27.2)"/>
      <rect class="cls-7" x="896.4" y="135.91" width="21.9" height="2.79" rx="1.26" ry="1.26" transform="translate(163.05 -399.5) rotate(27.2)"/>
      <path class="cls-7" d="M899.3,138.27h12.51v.48c0,2.54-2.06,4.59-4.59,4.59h-3.32c-2.54,0-4.59-2.06-4.59-4.59v-.48h0Z" transform="translate(164.46 -398.29) rotate(27.2)"/>
    </g>
    <line class="cls-2" x1="908.2" y1="93.35" x2="902.64" y2="84.13"/>
    <line class="cls-2" x1="899.98" y1="107.11" x2="889.22" y2="106.58"/>
    <line class="cls-2" x1="941.97" y1="110.7" x2="952.71" y2="109.85"/>
    <line class="cls-2" x1="935.57" y1="125.4" x2="942.26" y2="133.83"/>
    <line class="cls-2" x1="930.81" y1="91.65" x2="935.22" y2="83.06"/>
  </g>
  <g>
    <polygon class="cls-12" points="1129.85 384.63 1171.33 400.52 1184.45 365.06 1144.17 348.04 1129.85 384.63"/>
    <polygon class="cls-4" points="1133.97 382.81 1145.94 352.24 1180.42 366.8 1169.47 396.4 1133.97 382.81"/>
    <polygon class="cls-5" points="1135 356.84 1150.39 382.19 1190.3 354.32 1183.14 344.8 1152.73 367.18 1143.42 352.41 1135 356.84"/>
  </g>
</svg>