<?xml version="1.0" encoding="UTF-8"?>
<svg id="Layer_1" data-name="Layer 1" xmlns="http://www.w3.org/2000/svg" viewBox="0 0 1600 600">
  <defs>
    <style>
      .cls-1 {
        fill: #fff;
      }

      .cls-2 {
        fill: #8e9df4;
      }

      .cls-3 {
        fill: #1a1a1a;
      }

      .cls-4 {
        fill: #5067ef;
      }
    </style>
  </defs>
  <g>
    <path class="cls-1" d="M1509.59,509.66c0-17.19-314.76-31.12-703.03-31.12s-703.03,13.93-703.03,31.12c0,9.98,106.18,18.87,271.27,24.56-3.99,2.14-6.08,4.33-6.08,6.56,0,22.86,217.67,41.4,486.18,41.4s486.18-18.53,486.18-41.4c0-3.51-5.13-6.91-14.77-10.16,113.85-5.53,183.28-12.88,183.28-20.96Z"/>
    <path class="cls-3" d="M854.9,582.64c-129.91,0-252.06-4.31-343.94-12.13-92.32-7.86-143.17-18.42-143.17-29.73,0-2.07,1.7-4.14,5.07-6.16-81.78-2.84-149.44-6.51-195.77-10.61-49.43-4.38-74.49-9.21-74.49-14.34,0-11,112.43-18.29,206.76-22.47,132.81-5.88,309.39-9.12,497.2-9.12s364.39,3.24,497.2,9.12c94.32,4.18,206.76,11.46,206.76,22.47,0,10.21-98.16,17.2-181.62,21.29,8.71,3.18,13.12,6.48,13.12,9.82,0,11.31-50.85,21.87-143.17,29.73-91.88,7.82-214.02,12.13-343.94,12.13Zm-48.34-103.64c-187.76,0-364.28,3.24-497.04,9.11-64.53,2.86-115.18,6.18-150.56,9.88-45.05,4.72-54.51,8.94-54.51,11.66,0,3.18,12.66,8.09,72.96,13.43,46.62,4.13,114.89,7.82,197.44,10.67,.36,.01,.67,.13,.8,.29s.06,.36-.19,.49c-3.87,2.07-5.83,4.17-5.83,6.24,0,10.65,51.62,21.15,141.63,28.81,91.78,7.81,213.81,12.12,343.63,12.12s251.85-4.3,343.63-12.12c90.01-7.66,141.63-18.17,141.63-28.81,0-3.27-4.83-6.57-14.36-9.78-.32-.11-.48-.31-.38-.5,.1-.19,.42-.33,.81-.35,115.95-5.63,182.44-13.1,182.44-20.49,0-2.72-9.46-6.94-54.51-11.66-35.37-3.7-86.03-7.03-150.56-9.88-132.76-5.88-309.28-9.11-497.04-9.11Z"/>
  </g>
  <g>
    <g>
      <g>
        <g>
          <path class="cls-2" d="M992.69,463.84s-53.42-60.99-10.55-104.81c42.87-43.82,91.92-37.38,120.45-3.48,28.54,33.9,22.15,88.98-.45,110.01-22.6,21.02-100.9-9.81-109.45-1.71Z"/>
          <path class="cls-3" d="M1075.03,473.53c-15.19,0-33.19-3.47-49-6.52-16.05-3.1-29.91-5.77-33.01-2.84-.09,.09-.22,.14-.35,.13-.13,0-.25-.06-.33-.16-.13-.15-13.5-15.55-21.43-36.11-4.67-12.1-6.57-23.6-5.66-34.17,1.14-13.25,6.71-25.07,16.57-35.14,20.67-21.13,43.93-31.84,67.27-30.99,20.43,.74,39.56,10.52,53.88,27.53,13.24,15.73,20.01,37.09,19.06,60.14-.87,21.04-8.18,39.91-19.55,50.49-6.08,5.66-15.96,7.64-27.44,7.64Zm-76.34-11.52c6.24,0,16.07,1.89,27.52,4.1,26.1,5.03,61.84,11.93,75.62-.89,11.2-10.41,18.4-29.05,19.26-49.86,.95-22.83-5.75-43.97-18.84-59.52-14.15-16.81-33.04-26.47-53.2-27.2-23.07-.85-46.08,9.78-66.56,30.71-21.97,22.46-17.95,49.56-10.71,68.34,7.22,18.73,18.98,33.14,20.98,35.52,1.2-.84,3.23-1.19,5.94-1.19Z"/>
        </g>
        <path class="cls-3" d="M981.47,491.42c-.06,0-.12,0-.18-.02-.37-.1-.6-.47-.5-.83,10.16-38.02,35.06-69.67,54.16-89.52,20.68-21.5,39.22-34.2,39.41-34.33,.32-.22,.75-.14,.97,.17,.22,.31,.14,.73-.17,.95-.18,.12-18.62,12.76-39.21,34.17-18.98,19.74-43.72,51.18-53.81,88.91-.08,.31-.37,.51-.68,.51Z"/>
        <path class="cls-3" d="M1097.77,391.18c-.1,0-.19-.03-.28-.09-.18-.13-18.57-13.38-35-14.03-.14,0-.27-.07-.35-.18s-.11-.25-.08-.38c3.88-14.81-9.59-28.53-9.73-28.66-.18-.18-.18-.47,0-.64,.18-.17,.48-.17,.66,0,.14,.14,13.65,13.89,10.1,28.98,16.57,.94,34.77,14.05,34.95,14.18,.21,.15,.25,.44,.1,.64-.09,.12-.23,.18-.37,.18Z"/>
        <path class="cls-3" d="M1101.06,416.55c-.15,0-.3-.07-.39-.2-14.39-21.37-41.71-28.17-51.02-28.99-.24-.02-.42-.22-.42-.45-.09-11.62-22.29-31.94-22.52-32.15-.19-.17-.2-.46-.02-.64,.18-.18,.47-.19,.66-.02,.92,.83,22.23,20.35,22.8,32.4,9.81,.99,36.92,7.99,51.3,29.35,.14,.21,.08,.49-.13,.63-.08,.05-.17,.08-.26,.08Z"/>
        <path class="cls-3" d="M1097.15,445.59c-.18,0-.35-.1-.43-.28-7.62-17.56-21.4-28.96-31.62-35.44-12.15-7.7-23.8-11.15-28.59-10.49-.13,.02-.25-.02-.35-.09s-.16-.19-.17-.32c-1.66-18.65-34.78-48.7-35.12-49-.19-.17-.2-.46-.03-.64,.17-.18,.47-.2,.66-.03,1.36,1.23,33.2,30.12,35.37,49.13,5.31-.44,16.65,3.02,28.74,10.68,10.33,6.54,24.26,18.07,31.97,35.85,.1,.23-.01,.5-.25,.6-.06,.02-.12,.04-.18,.04Z"/>
        <path class="cls-3" d="M1078.64,449.51c-.19,0-.36-.11-.43-.29-8.19-20.64-40.23-37.91-51.87-37.28-.24,.01-.45-.16-.49-.39-2.93-21.07-26.57-37.33-26.81-37.49-.21-.14-.26-.43-.12-.63,.15-.21,.44-.26,.65-.11,.24,.16,23.92,16.44,27.15,37.71,6.38-.11,17.38,4.26,27.64,11.02,12.1,7.97,21.11,17.76,24.72,26.86,.09,.23-.03,.5-.27,.59-.06,.02-.11,.03-.17,.03Z"/>
        <path class="cls-3" d="M1058.81,452.97c-.15,0-.3-.07-.39-.21-11.48-17.67-30.56-29.77-43.43-27.52-.14,.02-.27-.01-.38-.1-.11-.08-.17-.21-.17-.34-.25-17.61-27.78-34.88-28.05-35.05-.22-.13-.28-.42-.14-.63,.14-.21,.42-.28,.64-.14,1.14,.71,27.71,17.38,28.47,35.28,13.21-1.89,32.34,10.29,43.85,28.02,.14,.21,.07,.49-.14,.63-.08,.05-.16,.07-.25,.07Z"/>
        <path class="cls-3" d="M1043.18,458.84c-.2,0-.38-.12-.44-.32-2.27-6.99-11.25-11.92-16.4-14.24-7.39-3.32-15.78-5.34-20.89-5.02-.22,0-.42-.13-.48-.34-6.57-24.68-26.84-38-27.05-38.13-.21-.14-.27-.42-.13-.63,.14-.21,.43-.27,.65-.13,.21,.13,20.58,13.51,27.34,38.3,10.7-.44,34.01,8.09,37.85,19.91,.08,.24-.06,.5-.3,.57-.05,.01-.09,.02-.14,.02Z"/>
      </g>
      <g>
        <g>
          <path class="cls-3" d="M985.1,462.01s24.93-40.21,7.52-56.18c-17.41-15.97-47.61-33.7-70.62-7.79-23.01,25.9-21.7,58.32,9.47,72.85s35.57-11.72,53.63-8.87Z"/>
          <path class="cls-3" d="M948.54,475.74c-4.75,0-10.37-1.23-17.27-4.45-13.52-6.3-22.05-16.16-24.68-28.5-3.07-14.4,2.42-30.83,15.06-45.06,7.38-8.3,16.05-12.76,25.79-13.25,18.66-.93,36.52,12.76,45.51,21.01,7.26,6.66,8.26,18.61,2.89,34.55-4.03,11.96-10.27,22.09-10.34,22.19-.1,.16-.29,.24-.47,.21-6.93-1.09-11.89,2.28-17.13,5.84-5.25,3.57-10.94,7.44-19.36,7.44Zm.72-90.39c-.59,0-1.18,.01-1.77,.04-9.47,.47-17.93,4.82-25.13,12.93-12.45,14.01-17.86,30.15-14.85,44.28,2.57,12.06,10.93,21.69,24.17,27.86,18.63,8.69,27.31,2.79,35.7-2.92,5.32-3.62,10.36-7.04,17.49-6.04,2.09-3.48,23.66-40.48,7.45-55.35-8.59-7.88-25.38-20.81-43.05-20.81Z"/>
        </g>
        <path class="cls-1" d="M990.27,490.37c-.32,0-.61-.21-.68-.53-.06-.25,.04-.51,.22-.67,.21-.49,1.02-4.17-5.38-26.98-5-17.81-20.83-30.67-33.24-38.33-13.5-8.33-25.97-12.48-26.1-12.52-.37-.12-.56-.51-.44-.86,.12-.36,.52-.55,.88-.43,.13,.04,12.74,4.23,26.37,12.64,12.63,7.79,28.75,20.91,33.87,39.14,4.54,16.18,6.39,26.16,5.21,28.08-.19,.31-.44,.41-.57,.44-.05,.01-.1,.02-.16,.02Zm-.17-1.35h0Zm0,0h0Zm0,0h0Zm0,0h0Zm0,0h0Z"/>
        <path class="cls-1" d="M956.87,465.93s-.09,0-.14-.02c-.25-.07-.38-.33-.31-.57,1.66-5.26,8.33-15.56,15.72-17.37,3-.73,5.81-.04,8.36,2.06-.25-10.72,10.25-26.29,10.71-26.97,.14-.21,.43-.27,.65-.13,.21,.14,.27,.42,.13,.63-.12,.17-11.54,17.12-10.49,27.51,.02,.19-.09,.37-.26,.46-.18,.08-.39,.05-.53-.09-2.54-2.46-5.34-3.33-8.34-2.59-6.95,1.7-13.5,11.82-15.06,16.76-.06,.2-.25,.32-.44,.32Z"/>
        <path class="cls-1" d="M945.26,468.68s-.03,0-.05,0c-.26-.03-.44-.25-.41-.5,1.24-11.4,7.17-21.16,15.87-26.1,4.61-2.62,9.3-3.37,13.01-2.12-2.18-19.23,9.71-32.86,9.83-33,.17-.19,.46-.21,.66-.04,.19,.16,.21,.45,.05,.64-.12,.14-12.05,13.83-9.52,33.05,.02,.16-.05,.32-.18,.42-.13,.1-.31,.12-.47,.05-3.54-1.51-8.25-.86-12.91,1.79-8.44,4.8-14.2,14.29-15.41,25.41-.03,.23-.23,.41-.46,.41Z"/>
        <path class="cls-1" d="M934.17,458.06c-.24,0-.45-.18-.46-.42-.39-5.73,2.01-11.35,6.94-16.27,6.92-6.89,16.7-10.59,21.49-10.77-6.3-14.88,4.59-31.52,4.7-31.69,.14-.21,.43-.27,.64-.13,.22,.14,.28,.42,.14,.63-.11,.17-11.04,16.88-4.35,31.46,.07,.14,.05,.31-.04,.44-.09,.13-.25,.21-.41,.2-4.37-.2-14.67,3.69-21.51,10.5-4.74,4.73-7.05,10.11-6.68,15.57,.02,.25-.18,.47-.43,.48-.01,0-.02,0-.03,0Z"/>
        <path class="cls-1" d="M918.36,455.71s-.02,0-.04,0c-.26-.02-.45-.24-.43-.49,1.9-23.51,19.37-29.19,29.81-32.58,.63-.2,1.23-.4,1.8-.59-3.95-8.1-.29-26.3-.13-27.09,.05-.25,.29-.41,.55-.36,.25,.05,.42,.29,.37,.54-.04,.19-3.9,19.4,.28,26.95,.07,.12,.07,.26,.02,.38-.05,.12-.15,.22-.28,.27-.72,.24-1.5,.5-2.32,.77-10.22,3.32-27.32,8.88-29.17,31.79-.02,.24-.22,.42-.46,.42Z"/>
        <path class="cls-1" d="M916.76,430.08s-.07,0-.1-.01c-.25-.05-.41-.3-.35-.54,1.44-6.32,11.76-12.8,21.88-13.84-1.91-4.75,.08-12.49,.17-12.83,.06-.24,.32-.39,.57-.33,.25,.06,.4,.31,.34,.55-.02,.08-2.17,8.43,.03,12.8,.07,.14,.06,.29-.01,.43-.08,.13-.21,.22-.37,.23-9.96,.79-20.3,7.08-21.69,13.19-.05,.21-.24,.36-.45,.36Z"/>
      </g>
      <g>
        <g>
          <path class="cls-1" d="M1041.81,478.44s-14.89-25.25-9.25-37.3c5.64-12.05,48.72-43.21,75.35-13.75,26.63,29.46,.7,72.63-24.05,67.61-24.75-5.03-33.31-17.12-42.06-16.56Z"/>
          <path class="cls-3" d="M1087.86,495.86c-1.37,0-2.73-.13-4.08-.41-13.99-2.84-22.92-7.98-29.44-11.72-5.11-2.94-8.8-5.06-12.49-4.83-.18,0-.35-.08-.43-.23-.61-1.04-14.94-25.59-9.27-37.71,3.37-7.19,21.25-22.83,42.02-25.84,13.47-1.95,25.26,2.19,34.1,11.97,15.9,17.59,12.62,38.86,4.98,51.73-6.36,10.7-15.98,17.04-25.39,17.04Zm-45.44-17.89c3.75,0,7.42,2.11,12.39,4.97,6.47,3.72,15.32,8.81,29.16,11.62,10.22,2.08,21.4-4.28,28.48-16.19,7.49-12.61,10.7-33.44-4.87-50.67-8.75-9.68-19.94-13.61-33.27-11.68-19.6,2.84-37.88,18.01-41.31,25.32-5.19,11.08,7.59,34.03,9.09,36.64,.11,0,.22,0,.33,0Z"/>
        </g>
        <path class="cls-3" d="M1033.02,491.03s-.07,0-.1,0c-.38-.06-.64-.39-.59-.76,.04-.26,1.13-6.64,20.15-23.18,9.43-8.2,20.72-15.44,31.79-20.39,11.42-5.11,21.53-7.24,28.47-6.02,.38,.07,.63,.42,.56,.79s-.43,.62-.81,.55c-13.55-2.39-39.51,9.07-59.08,26.09-18.43,16.02-19.68,22.29-19.69,22.35-.06,.33-.35,.57-.69,.57Z"/>
        <path class="cls-3" d="M1085.31,481.43c-.14,0-.28-.06-.37-.18-6.3-8.16-24.03-14.45-30.5-14.48-.15,0-.29-.07-.38-.2-.09-.12-.11-.28-.06-.42,3.71-9.93-7.01-23.55-7.12-23.68-.16-.2-.12-.48,.08-.64,.2-.15,.5-.12,.65,.08,.45,.56,10.75,13.65,7.46,23.96,7.09,.41,24.35,6.71,30.6,14.82,.15,.2,.11,.49-.09,.64-.08,.06-.18,.09-.28,.09Z"/>
        <path class="cls-3" d="M1103.32,484.5c-.2,0-.38-.12-.44-.31-2.67-7.95-11.48-14.28-18.41-18.19-8.23-4.65-16.42-7.3-19.17-7.43-.13,0-.24-.06-.33-.15-.08-.09-.12-.21-.11-.34,1.36-16.11-8.68-27.13-8.78-27.24-.17-.19-.16-.47,.03-.64,.19-.17,.48-.15,.66,.03,.1,.11,10.23,11.2,9.06,27.47,6.86,.77,32.96,11.36,37.95,26.2,.08,.24-.05,.5-.3,.57-.05,.02-.1,.02-.15,.02Z"/>
        <path class="cls-3" d="M1098.97,466.16c-.17,0-.34-.09-.42-.26-5.21-10.53-16.45-13.18-22.69-13.82-.12-.01-.24-.07-.31-.17-.08-.1-.11-.22-.1-.34,1.5-12.58-9.35-27.88-9.46-28.03-.15-.21-.1-.49,.11-.63,.21-.14,.5-.09,.65,.11,.45,.63,10.91,15.38,9.67,28.2,6.51,.75,17.69,3.61,22.97,14.28,.11,.23,.01,.5-.22,.61-.07,.03-.13,.05-.2,.05Z"/>
        <path class="cls-3" d="M1109.89,465.3c-.22,0-.42-.16-.46-.38-1.66-9.58-15.74-18.18-23.37-18.31-.17,0-.32-.09-.4-.24-.08-.14-.08-.32,.01-.46,5.7-8.96-4.22-23.61-4.32-23.76-.14-.21-.09-.49,.13-.63,.21-.14,.5-.08,.65,.12,.42,.61,9.9,14.62,4.72,24.09,8.22,.64,21.79,9.19,23.5,19.03,.04,.25-.13,.48-.38,.53-.03,0-.05,0-.08,0Z"/>
        <path class="cls-3" d="M1111.38,450.25c-.22,0-.41-.15-.46-.36-.94-4.32-7.01-6.92-11.03-7.38-.16-.02-.3-.12-.37-.27-.07-.15-.05-.32,.04-.45,4.51-6.33,.68-10.53,.52-10.71-.17-.18-.16-.47,.03-.64,.19-.17,.48-.16,.66,.02,.04,.05,4.25,4.62-.03,11.24,4.26,.71,10.12,3.5,11.09,7.99,.05,.25-.11,.49-.36,.54-.03,0-.07,0-.1,0Z"/>
      </g>
    </g>
    <g>
      <g>
        <path class="cls-3" d="M508.42,484.3l272.32-6.81-78.14-375.57c-3.69-18.02-19.92-31.02-38.68-31.02h-197.25c-24.14,0-42.23,21.72-37.61,45.11l79.37,368.29Z"/>
        <path class="cls-3" d="M508.42,484.76c-.22,0-.41-.16-.45-.37L428.6,116.1c-2.23-11.29,.72-22.84,8.11-31.71,7.39-8.87,18.3-13.96,29.95-13.96h197.25c18.94,0,35.42,13.19,39.15,31.39l78.15,375.58c.03,.13,0,.27-.09,.38-.08,.11-.21,.17-.35,.17l-272.32,6.81s-.01,0-.02,0Zm-41.76-413.42c-11.37,0-22.03,4.97-29.25,13.63-7.21,8.65-10.1,19.93-7.92,30.95l79.29,367.91,271.37-6.8-78.02-375.03c-3.64-17.77-19.73-30.65-38.22-30.65h-197.25Z"/>
      </g>
      <g>
        <path class="cls-3" d="M528.08,56.53h17.85s-3.22-15.81-3.22-15.81c-1.85-9.07,4.18-16.43,13.47-16.43h0c9.28,0,18.31,7.36,20.15,16.43l3.22,15.81h17.63c5.21,0,9.9,3.12,11.8,7.87l5.89,14.67h-96.69s-2.13-6.23-2.13-6.23c-2.74-8.02,3.37-16.31,12.02-16.31Z"/>
        <path class="cls-3" d="M614.87,79.53h-96.69c-.2,0-.38-.13-.44-.31l-2.12-6.23c-1.35-3.96-.69-8.18,1.81-11.57,2.5-3.39,6.39-5.33,10.66-5.33h17.29l-3.11-15.27c-.93-4.59,.04-8.89,2.75-12.11,2.63-3.14,6.6-4.87,11.17-4.87,9.48,0,18.72,7.54,20.61,16.8l3.14,15.45h17.25c5.44,0,10.25,3.2,12.23,8.16l5.89,14.67c.06,.14,.04,.3-.05,.42-.09,.12-.23,.2-.38,.2Zm-96.35-.91h95.67l-5.64-14.05c-1.85-4.6-6.31-7.58-11.37-7.58h-17.63c-.22,0-.41-.15-.46-.37l-3.22-15.81c-1.8-8.86-10.64-16.06-19.69-16.06-4.29,0-8,1.61-10.45,4.53-2.53,3.01-3.43,7.04-2.56,11.35l3.22,15.81c.03,.13,0,.27-.1,.38s-.22,.17-.36,.17h-17.85c-3.97,0-7.58,1.81-9.91,4.96-2.32,3.15-2.93,7.07-1.68,10.75l2.02,5.92Z"/>
      </g>
      <g>
        <path class="cls-1" d="M519.64,482.23l270.84-7.53-76.37-374.53c-3.63-18.07-19.79-31.1-38.54-31.1h-197.35c-24.19,0-42.32,21.83-37.69,45.31l79.11,367.85Z"/>
        <path class="cls-3" d="M519.64,482.69c-.22,0-.41-.16-.45-.37L440.08,114.47c-2.24-11.34,.73-22.94,8.13-31.84,7.41-8.91,18.34-14.02,30.02-14.02h197.35c18.92,0,35.34,13.23,39,31.47l76.37,374.54c.03,.13,0,.27-.09,.37-.08,.1-.21,.17-.35,.17l-270.84,7.53s-.01,0-.02,0Zm-41.42-413.17c-11.4,0-22.08,4.99-29.31,13.69-7.23,8.69-10.12,20.02-7.94,31.09l79.03,367.47,269.9-7.51-76.26-373.99c-3.58-17.81-19.6-30.73-38.08-30.73h-197.35Z"/>
      </g>
      <g>
        <ellipse class="cls-1" cx="673.94" cy="144.85" rx="20.52" ry="17.34"/>
        <path class="cls-3" d="M673.94,162.64c-11.57,0-20.99-7.98-20.99-17.79s9.41-17.79,20.99-17.79,20.99,7.98,20.99,17.79-9.41,17.79-20.99,17.79Zm0-34.68c-11.06,0-20.05,7.57-20.05,16.88s9,16.88,20.05,16.88,20.05-7.57,20.05-16.88-9-16.88-20.05-16.88Z"/>
      </g>
      <g>
        <ellipse class="cls-3" cx="682.63" cy="186.71" rx="20.52" ry="17.34"/>
        <path class="cls-3" d="M682.63,204.5c-11.57,0-20.99-7.98-20.99-17.79s9.41-17.79,20.99-17.79,20.99,7.98,20.99,17.79-9.41,17.79-20.99,17.79Zm0-34.68c-11.06,0-20.05,7.57-20.05,16.88s9,16.88,20.05,16.88,20.05-7.57,20.05-16.88-9-16.88-20.05-16.88Z"/>
      </g>
      <g>
        <ellipse class="cls-1" cx="691.33" cy="226.51" rx="20.52" ry="17.34"/>
        <path class="cls-3" d="M691.33,244.3c-11.57,0-20.99-7.98-20.99-17.79s9.41-17.79,20.99-17.79,20.99,7.98,20.99,17.79-9.41,17.79-20.99,17.79Zm0-34.68c-11.06,0-20.05,7.57-20.05,16.88s9,16.88,20.05,16.88,20.05-7.57,20.05-16.88-9-16.88-20.05-16.88Z"/>
      </g>
      <g>
        <ellipse class="cls-1" cx="698.63" cy="265.48" rx="20.52" ry="17.34"/>
        <path class="cls-3" d="M698.63,283.27c-11.57,0-20.99-7.98-20.99-17.79s9.41-17.79,20.99-17.79,20.99,7.98,20.99,17.79-9.41,17.79-20.99,17.79Zm0-34.68c-11.06,0-20.05,7.57-20.05,16.88s9,16.88,20.05,16.88,20.05-7.57,20.05-16.88-9-16.88-20.05-16.88Z"/>
      </g>
      <g>
        <ellipse class="cls-1" cx="708.72" cy="310.79" rx="20.52" ry="17.34"/>
        <path class="cls-3" d="M708.72,328.59c-11.57,0-20.99-7.98-20.99-17.79s9.41-17.79,20.99-17.79,20.99,7.98,20.99,17.79-9.41,17.79-20.99,17.79Zm0-34.68c-11.06,0-20.05,7.57-20.05,16.88s9,16.88,20.05,16.88,20.05-7.57,20.05-16.88-9-16.88-20.05-16.88Z"/>
      </g>
      <g>
        <ellipse class="cls-1" cx="716.37" cy="352.94" rx="20.52" ry="17.34"/>
        <path class="cls-3" d="M716.37,370.74c-11.57,0-20.99-7.98-20.99-17.79s9.41-17.79,20.99-17.79,20.99,7.98,20.99,17.79-9.41,17.79-20.99,17.79Zm0-34.68c-11.06,0-20.05,7.57-20.05,16.88s9,16.88,20.05,16.88,20.05-7.57,20.05-16.88-9-16.88-20.05-16.88Z"/>
      </g>
      <g>
        <ellipse class="cls-1" cx="727.73" cy="393.74" rx="20.52" ry="17.34"/>
        <path class="cls-3" d="M727.73,411.54c-11.57,0-20.99-7.98-20.99-17.79s9.41-17.79,20.99-17.79,20.99,7.98,20.99,17.79-9.41,17.79-20.99,17.79Zm0-34.68c-11.06,0-20.05,7.57-20.05,16.88s9,16.88,20.05,16.88,20.05-7.57,20.05-16.88-9-16.88-20.05-16.88Z"/>
      </g>
      <g>
        <g>
          <polygon class="cls-1" points="653.42 234.87 504.8 234.87 501.88 222.27 650.5 222.27 653.42 234.87"/>
          <polygon class="cls-1" points="662.11 276.73 513.49 276.73 510.58 264.12 659.2 264.12 662.11 276.73"/>
          <polygon class="cls-1" points="670.81 318.58 522.19 318.58 519.27 305.98 666.81 305.98 670.81 318.58"/>
          <polygon class="cls-1" points="679.5 360.44 530.88 360.44 527.97 347.84 676.59 347.84 679.5 360.44"/>
          <polygon class="cls-1" points="690.64 400.59 542.02 400.59 539.1 387.99 687.72 387.99 690.64 400.59"/>
        </g>
        <g>
          <g>
            <polygon class="cls-1" points="653.42 234.87 504.8 234.87 501.88 222.27 650.5 222.27 653.42 234.87"/>
            <path class="cls-3" d="M653.42,235.32h-148.62c-.22,0-.41-.15-.45-.35l-2.91-12.6c-.03-.14,0-.28,.09-.38,.09-.11,.22-.17,.36-.17h148.62c.22,0,.41,.15,.45,.35l2.92,12.6c.03,.13,0,.28-.09,.38-.09,.11-.22,.17-.36,.17Zm-148.24-.91h147.66l-2.7-11.69h-147.66l2.7,11.69Z"/>
          </g>
          <g>
            <polygon class="cls-2" points="662.11 276.73 513.49 276.73 510.58 264.12 659.2 264.12 662.11 276.73"/>
            <path class="cls-3" d="M662.11,277.18h-148.62c-.22,0-.41-.15-.45-.35l-2.91-12.6c-.03-.14,0-.28,.09-.38,.09-.11,.22-.17,.36-.17h148.62c.22,0,.41,.15,.45,.35l2.92,12.6c.03,.14,0,.28-.09,.38-.09,.11-.22,.17-.36,.17Zm-148.24-.91h147.66l-2.7-11.69h-147.66l2.7,11.69Z"/>
          </g>
          <g>
            <polygon class="cls-1" points="670.81 318.58 522.19 318.58 519.27 305.98 666.81 305.98 670.81 318.58"/>
            <path class="cls-3" d="M670.81,319.04h-148.62c-.22,0-.41-.15-.45-.35l-2.91-12.6c-.03-.14,0-.28,.09-.38,.09-.11,.22-.17,.36-.17h147.54c.2,0,.38,.13,.44,.32l4,12.6c.04,.14,.02,.29-.07,.4-.09,.12-.23,.19-.37,.19Zm-148.24-.91h147.61l-3.71-11.69h-146.61l2.7,11.69Z"/>
          </g>
          <g>
            <polygon class="cls-2" points="679.5 360.44 530.88 360.44 527.97 347.84 676.59 347.84 679.5 360.44"/>
            <path class="cls-3" d="M679.5,360.9h-148.62c-.22,0-.41-.15-.45-.35l-2.92-12.6c-.03-.14,0-.28,.09-.38s.22-.17,.36-.17h148.62c.22,0,.41,.15,.45,.35l2.92,12.6c.03,.14,0,.28-.09,.38s-.22,.17-.36,.17Zm-148.24-.91h147.66l-2.7-11.69h-147.66l2.7,11.69Z"/>
          </g>
          <g>
            <polygon class="cls-1" points="690.64 400.59 542.02 400.59 539.1 387.99 687.72 387.99 690.64 400.59"/>
            <path class="cls-3" d="M690.64,401.05h-148.62c-.22,0-.41-.15-.45-.35l-2.91-12.6c-.03-.14,0-.28,.09-.38s.22-.17,.36-.17h148.62c.22,0,.41,.15,.45,.35l2.91,12.6c.03,.14,0,.28-.09,.38-.09,.11-.22,.17-.36,.17Zm-148.24-.91h147.66l-2.7-11.69h-147.66l2.7,11.69Z"/>
          </g>
        </g>
        <g>
          <path class="cls-3" d="M653.42,235.32h-148.62c-.22,0-.41-.15-.45-.35l-2.91-12.6c-.03-.14,0-.28,.09-.38,.09-.11,.22-.17,.36-.17h148.62c.22,0,.41,.15,.45,.35l2.92,12.6c.03,.13,0,.28-.09,.38-.09,.11-.22,.17-.36,.17Zm-148.24-.91h147.66l-2.7-11.69h-147.66l2.7,11.69Z"/>
          <path class="cls-3" d="M662.11,277.18h-148.62c-.22,0-.41-.15-.45-.35l-2.91-12.6c-.03-.14,0-.28,.09-.38,.09-.11,.22-.17,.36-.17h148.62c.22,0,.41,.15,.45,.35l2.92,12.6c.03,.14,0,.28-.09,.38-.09,.11-.22,.17-.36,.17Zm-148.24-.91h147.66l-2.7-11.69h-147.66l2.7,11.69Z"/>
          <path class="cls-3" d="M670.81,319.04h-148.62c-.22,0-.41-.15-.45-.35l-2.91-12.6c-.03-.14,0-.28,.09-.38,.09-.11,.22-.17,.36-.17h147.54c.2,0,.38,.13,.44,.32l4,12.6c.04,.14,.02,.29-.07,.4-.09,.12-.23,.19-.37,.19Zm-148.24-.91h147.61l-3.71-11.69h-146.61l2.7,11.69Z"/>
          <path class="cls-3" d="M679.5,360.9h-148.62c-.22,0-.41-.15-.45-.35l-2.92-12.6c-.03-.14,0-.28,.09-.38s.22-.17,.36-.17h148.62c.22,0,.41,.15,.45,.35l2.92,12.6c.03,.14,0,.28-.09,.38s-.22,.17-.36,.17Zm-148.24-.91h147.66l-2.7-11.69h-147.66l2.7,11.69Z"/>
          <path class="cls-3" d="M690.64,401.05h-148.62c-.22,0-.41-.15-.45-.35l-2.91-12.6c-.03-.14,0-.28,.09-.38s.22-.17,.36-.17h148.62c.22,0,.41,.15,.45,.35l2.91,12.6c.03,.14,0,.28-.09,.38-.09,.11-.22,.17-.36,.17Zm-148.24-.91h147.66l-2.7-11.69h-147.66l2.7,11.69Z"/>
        </g>
      </g>
      <g>
        <path class="cls-1" d="M533.18,56.53h17.85s-3.22-15.81-3.22-15.81c-1.85-9.07,4.18-16.43,13.47-16.43h0c9.28,0,18.31,7.36,20.15,16.43l3.22,15.81h17.63c5.21,0,9.9,3.12,11.8,7.87l5.89,14.67h-96.69s-2.13-6.23-2.13-6.23c-2.74-8.02,3.37-16.31,12.02-16.31Z"/>
        <path class="cls-3" d="M619.97,79.53h-96.69c-.2,0-.38-.13-.44-.31l-2.13-6.23c-1.35-3.96-.69-8.18,1.81-11.57,2.5-3.39,6.39-5.33,10.66-5.33h17.29l-3.11-15.27c-.93-4.59,.04-8.89,2.75-12.11,2.63-3.14,6.6-4.87,11.17-4.87,9.48,0,18.72,7.54,20.61,16.8l3.14,15.45h17.25c5.44,0,10.25,3.2,12.23,8.16l5.89,14.67c.06,.14,.04,.3-.05,.42-.09,.12-.23,.2-.38,.2Zm-96.35-.91h95.67l-5.64-14.05c-1.85-4.6-6.31-7.58-11.37-7.58h-17.63c-.22,0-.41-.15-.46-.37l-3.22-15.81c-1.8-8.86-10.64-16.06-19.69-16.06-4.29,0-8,1.61-10.45,4.53-2.53,3.01-3.43,7.04-2.56,11.35l3.22,15.81c.03,.13,0,.27-.1,.38s-.22,.17-.36,.17h-17.85c-3.97,0-7.58,1.81-9.91,4.96-2.32,3.15-2.93,7.07-1.68,10.75l2.02,5.92Z"/>
      </g>
      <g>
        <ellipse class="cls-3" cx="563.86" cy="39.41" rx="6.38" ry="6.23"/>
        <path class="cls-3" d="M563.86,46.1c-3.77,0-6.84-3-6.84-6.69s3.07-6.69,6.84-6.69,6.84,3,6.84,6.69-3.07,6.69-6.84,6.69Zm0-12.47c-3.26,0-5.91,2.59-5.91,5.78s2.65,5.78,5.91,5.78,5.91-2.59,5.91-5.78-2.65-5.78-5.91-5.78Z"/>
      </g>
    </g>
    <g>
      <path class="cls-3" d="M1189.66,321.34c-.13,0-.27-.04-.38-.11-.21-.13-.33-.37-.31-.61l2.17-36.49c.01-.24,.16-.46,.38-.57,.22-.11,.49-.09,.7,.04l31.25,20.08c.21,.13,.33,.37,.31,.61-.01,.24-.16,.46-.38,.57l-33.41,16.41c-.1,.05-.21,.07-.31,.07Zm2.79-35.95l-2.03,34.13,31.25-15.35-29.22-18.78Z"/>
      <g>
        <polygon class="cls-1" points="294.64 314.63 279.13 320.73 263.62 326.84 265.97 310.65 268.31 294.47 281.48 304.55 294.64 314.63"/>
        <path class="cls-3" d="M263.62,327.29c-.1,0-.2-.03-.29-.1-.13-.1-.2-.26-.17-.42l4.69-32.37c.02-.16,.13-.3,.29-.36,.15-.06,.33-.04,.46,.06l26.33,20.16c.13,.1,.2,.26,.17,.42-.02,.16-.13,.3-.29,.36l-31.02,12.21c-.06,.02-.12,.03-.17,.03Zm5.04-31.98l-4.47,30.81,29.53-11.62-25.06-19.18Z"/>
      </g>
      <g>
        <polygon class="cls-4" points="1105.65 274.2 1082.41 278.12 1059.18 282.04 1067.32 260.41 1075.47 238.78 1090.56 256.49 1105.65 274.2"/>
        <path class="cls-3" d="M1059.18,282.49c-.14,0-.27-.06-.36-.16-.11-.13-.14-.3-.08-.45l16.29-43.26c.06-.15,.19-.26,.36-.29,.16-.03,.33,.03,.44,.16l30.18,35.42c.11,.12,.14,.3,.08,.45-.06,.15-.19,.26-.36,.29l-46.47,7.84s-.05,0-.08,0Zm16.45-42.82l-15.73,41.78,44.88-7.57-29.15-34.21Z"/>
      </g>
      <g>
        <polygon class="cls-3" points="357.92 403.57 341.81 417.5 325.71 431.43 321.42 410.84 317.13 390.24 337.52 396.91 357.92 403.57"/>
        <path class="cls-3" d="M325.71,431.89s-.1,0-.15-.02c-.16-.05-.28-.18-.31-.34l-8.58-41.19c-.03-.16,.02-.32,.15-.43,.12-.11,.3-.14,.46-.09l40.78,13.33c.16,.05,.28,.18,.31,.34,.03,.16-.02,.32-.15,.43l-32.21,27.86c-.09,.07-.2,.11-.31,.11Zm-7.96-40.97l8.26,39.65,31-26.81-39.25-12.83Z"/>
      </g>
    </g>
    <g>
      <g>
        <path class="cls-1" d="M706.5,480.19c.08-1.14,.15-2.07,.21-2.68,.49-5.25,3.6-11.19,3.6-11.19l-16.23-2.74s-5.67,5.54-13.05,10.46c7.33,5.53,16.74,7.83,25.47,6.16Z"/>
        <path class="cls-3" d="M700.87,481.17c-7.08,0-14.3-2.38-20.12-6.78-.12-.09-.19-.23-.18-.37,0-.15,.08-.28,.2-.36,7.26-4.84,12.92-10.35,12.98-10.4,.11-.1,.26-.15,.41-.13l16.23,2.74c.15,.02,.27,.12,.34,.24,.07,.13,.07,.28,0,.41-.03,.06-3.07,5.92-3.55,11.02-.06,.61-.13,1.54-.21,2.67-.01,.21-.17,.38-.37,.42-1.87,.36-3.79,.54-5.72,.54Zm-19.04-7.12c7.03,5.09,16.01,7.23,24.23,5.76,.07-.98,.13-1.8,.19-2.34,.41-4.4,2.59-9.19,3.37-10.8l-15.38-2.6c-.98,.94-6.04,5.67-12.41,9.99Zm24.67,6.14h0Z"/>
      </g>
      <g>
        <path class="cls-3" d="M681.03,474.03c-5.09,3.4-11,6.49-16.42,7.27-13.6,2.53-20.4,14.25-20.4,14.25,0,0-.97,4.12,0,5.06,37.89,.32,61.21-2.85,61.21-2.85,0,0,.66-11.6,1.08-17.58-8.72,1.67-18.14-.63-25.47-6.16Z"/>
        <path class="cls-3" d="M649.46,501.09c-1.72,0-3.47,0-5.25-.02-.12,0-.24-.05-.33-.13-1.1-1.07-.3-4.76-.12-5.49,.01-.04,.03-.08,.05-.12,.07-.12,7.07-11.92,20.72-14.47,4.61-.66,10.07-3.08,16.25-7.2,.17-.11,.39-.1,.55,.02,7.2,5.43,16.58,7.7,25.09,6.07,.14-.03,.29,.01,.4,.11,.11,.09,.17,.23,.16,.37-.42,5.9-1.08,17.45-1.08,17.57-.01,.22-.18,.4-.4,.43-.22,.03-21.6,2.88-56.02,2.88Zm-5.02-.93c34.7,.28,57.37-2.4,60.53-2.8,.11-1.97,.65-11.21,1.02-16.62-8.5,1.45-17.77-.83-24.98-6.15-6.18,4.08-11.68,6.49-16.34,7.16-12.74,2.37-19.5,13.09-20.03,13.96-.34,1.46-.6,3.72-.21,4.44Z"/>
      </g>
      <g>
        <path class="cls-1" d="M811.97,384.05s-52.3-52.71-74.97-40.84c-22.67,11.87-47.61,122.57-47.61,122.57,0,0,15.54,8.07,21.86,6.17,27.2-32.76,37.94-57.55,44.25-69.42,12.14,21.37,46.76,51.79,87.07,23.77,40.32-28.02,27.69-44.63,27.69-44.63l-58.29,2.37Z"/>
        <path class="cls-3" d="M708.98,472.71c-7.18,0-19.24-6.22-19.81-6.51-.18-.1-.28-.3-.24-.5,.06-.28,6.34-28.03,15.31-56.87,12.07-38.82,23.02-61.03,32.53-66.01,9.58-5.01,25.22,.37,46.49,16,15.76,11.58,28.91,24.78,29.04,24.92,.18,.18,.17,.47-.01,.64-.18,.18-.48,.17-.66,0-.52-.52-52.31-52.33-74.42-40.75-21.6,11.31-45.74,115.13-47.3,121.93,2.21,1.11,15.4,7.56,21.06,6.02,23.15-27.9,34.34-50.02,41.03-63.24,1.16-2.29,2.16-4.26,3.08-5.99,.08-.15,.24-.24,.41-.25,.18,.02,.33,.09,.41,.23,7.23,12.72,22.85,29.16,43.08,33.64,14.54,3.22,29.12-.15,43.32-10.02,21.92-15.23,27.93-27,29.12-34.19,1.04-6.3-1.51-9.77-1.53-9.81-.15-.2-.11-.49,.1-.64,.21-.15,.5-.11,.65,.09,.11,.15,2.79,3.77,1.71,10.44-1.19,7.37-7.28,19.4-29.51,34.84-14.43,10.03-29.25,13.44-44.07,10.16-20.14-4.46-35.76-20.58-43.26-33.35-.81,1.54-1.68,3.27-2.68,5.23-6.72,13.27-17.96,35.48-41.23,63.52-.06,.07-.14,.12-.22,.15-.71,.21-1.52,.31-2.4,.31Z"/>
      </g>
    </g>
    <g>
      <g>
        <path class="cls-1" d="M895.69,468.62c-.26-1.77-1.35-3.01-2.75-3.99-4.32,1.42-8.28,.68-8.28,.68,0,0-8.42,10.92-1.13,15.19,3.01-.59,7.47,.78,12.6,2.97,1.86-4.2,.24-10.22-.44-14.86Z"/>
        <path class="cls-3" d="M896.12,483.94c-.06,0-.13-.01-.19-.04-5.85-2.51-9.76-3.44-12.32-2.94-.11,.02-.23,0-.33-.06-1.68-.98-2.7-2.38-3.06-4.15-1.01-5.06,3.85-11.44,4.06-11.71,.11-.14,.28-.21,.46-.17,.04,0,3.9,.7,8.05-.67,.14-.05,.3-.02,.42,.06,1.73,1.22,2.69,2.62,2.94,4.29h0c.12,.84,.27,1.71,.43,2.63,.72,4.18,1.55,8.92-.03,12.48-.05,.11-.14,.2-.26,.24-.05,.02-.11,.03-.17,.03Zm-11.08-4.02c2.59,0,6.1,.96,10.83,2.96,1.23-3.28,.47-7.66-.2-11.54-.16-.93-.31-1.8-.44-2.65-.2-1.37-.96-2.51-2.37-3.55-3.67,1.15-7,.81-7.99,.67-.83,1.15-4.56,6.6-3.73,10.77,.29,1.45,1.12,2.61,2.47,3.45,.44-.07,.91-.11,1.42-.11Z"/>
      </g>
      <g>
        <path class="cls-3" d="M956.07,491.91c-.79-1.54-8.29-3.4-16.95-9.21-12.77-8.56-29.04-21.93-38.11-24.66-2.14,3.74-5.19,5.65-8.07,6.6,1.4,.98,2.49,2.21,2.75,3.99,.68,4.64,2.3,10.66,.44,14.86,10.07,4.32,22.7,11.87,31.93,14.28,13.93,3.64,29.96-2.06,28.01-5.86Z"/>
        <path class="cls-3" d="M937.52,499.38c-3.17,0-6.45-.35-9.59-1.17-5.93-1.55-13.26-5.21-20.35-8.75-4.12-2.06-8.01-4-11.65-5.56-.23-.1-.34-.37-.24-.6,1.47-3.32,.67-7.91-.03-11.97-.16-.93-.31-1.8-.44-2.65-.21-1.43-1.02-2.6-2.56-3.68-.14-.1-.21-.27-.19-.44s.15-.31,.31-.36c3.4-1.12,6.03-3.27,7.81-6.39,.11-.19,.33-.28,.54-.21,6.47,1.95,16.55,9.24,26.31,16.3,4.01,2.9,8.17,5.9,11.92,8.43,4.82,3.23,9.21,5.21,12.42,6.65,2.66,1.19,4.26,1.91,4.68,2.73h0c.28,.54,.42,1.41-.47,2.47-2.23,2.67-9.97,5.2-18.49,5.2Zm-40.8-16.13c3.54,1.54,7.3,3.42,11.28,5.4,7.05,3.52,14.33,7.15,20.17,8.68,12.04,3.15,24.58-.67,27.12-3.72,.7-.83,.44-1.33,.36-1.49-.27-.53-2.11-1.36-4.24-2.31-3.24-1.45-7.67-3.45-12.56-6.72-3.77-2.53-7.93-5.54-11.95-8.44-9.51-6.88-19.34-13.99-25.67-16.05-1.75,2.91-4.22,4.99-7.34,6.2,1.31,1.09,2.05,2.34,2.26,3.78,.12,.84,.27,1.71,.43,2.63,.7,4.02,1.48,8.55,.14,12.06Z"/>
      </g>
      <g>
        <path class="cls-1" d="M815.85,374.56s-108.81,49.86-105.9,96.39c2.91,46.53,181.67,11.62,181.67,11.62l-5.81-17.57s-63.64-22.54-124.85-6.87c44.21-14.25,99.23-.72,117.62-22.78,27.51-32.86-8.81-65.07-8.81-65.07l-53.92,4.27Z"/>
        <path class="cls-3" d="M775.14,495.6c-5.68,0-11.02-.15-15.99-.45-19.93-1.2-34.05-4.82-41.96-10.78-4.78-3.6-7.37-8.1-7.7-13.39-.67-10.74,4.52-22.52,15.43-35.02,8.69-9.95,21.01-20.39,36.63-31.03,26.56-18.09,53.84-30.66,54.11-30.78,.05-.02,.1-.04,.16-.04l53.92-4.27c.13,0,.26,.03,.35,.12,.09,.08,9.22,8.25,14.83,20.36,5.2,11.21,8.39,28.18-5.97,45.33-10.59,12.7-32.81,13.73-58.54,14.93-11.7,.54-24.36,1.13-36.82,2.95,23.83-2.78,46.44-.84,62.82,1.72,23.34,3.64,39.4,9.28,39.56,9.33,.14,.05,.24,.15,.28,.29l5.81,17.57c.04,.12,.03,.26-.04,.37-.07,.11-.18,.19-.31,.22-.35,.07-35.42,6.87-74.24,10.42-15.67,1.43-29.85,2.15-42.34,2.15Zm40.84-120.59c-1.61,.75-28.1,13.1-53.91,30.68-15.55,10.59-27.81,20.98-36.45,30.87-10.75,12.31-15.86,23.87-15.2,34.37,.31,5.01,2.78,9.3,7.34,12.73,13.95,10.5,48.4,13.58,99.63,8.89,36.21-3.31,69.15-9.46,73.63-10.31l-5.58-16.87c-1.98-.68-17.4-5.82-39.19-9.22-21.45-3.35-53.63-5.64-85.17,2.43-.24,.06-.49-.08-.56-.31-.07-.24,.06-.48,.3-.56,19.12-6.16,40.6-7.16,59.55-8.04,25.5-1.18,47.53-2.21,57.86-14.59,11.28-13.48,13.25-28.4,5.86-44.36-5.15-11.1-13.29-18.86-14.48-19.95l-53.63,4.25Z"/>
      </g>
      <g>
        <path class="cls-3" d="M805.93,379.37l-2.84,1.5s2.37,17.83,31.82,16.32c29.45-1.51,48.48-7.84,48.48-7.84l-2.83-6.02-74.63-3.97Z"/>
        <path class="cls-3" d="M831.51,397.74c-13.16,0-20.23-4.16-23.89-7.82-4.33-4.33-4.97-8.8-5-8.99-.02-.19,.07-.37,.24-.46l2.84-1.5c.08-.04,.16-.06,.25-.05l74.63,3.97c.17,0,.33,.11,.4,.26l2.83,6.02c.06,.12,.06,.25,0,.37-.05,.12-.15,.21-.28,.25-.19,.06-19.43,6.37-48.6,7.86-1.18,.06-2.32,.09-3.42,.09Zm-27.9-16.62c.22,1.06,1.21,4.72,4.72,8.21,3.84,3.81,11.56,8.19,26.55,7.42,26.46-1.35,44.69-6.68,47.86-7.66l-2.5-5.31-74.22-3.95-2.42,1.28Z"/>
      </g>
      <g>
        <path class="cls-1" d="M676.2,235.18c1.08-.07,2.18-.17,3.3-.28-2.68-8.3-4.58-15.31-5.98-18.15-4.21-8.55-20.2-23.74-20.2-23.74,0,0-1.82,4.12,1.1,6.96s7.12,12.35,7.12,12.35c0,0-17.81,2.85-14.9,13.61,2.91,10.76,11.98,5.7,12.95,.63,0,0,1.52,7.44,4.33,17.68,2.69-4.59,6.24-8.44,12.27-9.06Z"/>
        <path class="cls-3" d="M663.93,244.7s-.04,0-.06,0c-.19-.02-.34-.16-.39-.33-2.03-7.36-3.39-13.33-3.99-16.07-1.22,2.43-3.92,4.37-6.53,4.46-1.83,.06-5.15-.72-6.77-6.7-.68-2.49-.34-4.79,1.01-6.81,3.26-4.91,11.39-6.81,13.68-7.26-.93-2.02-4.36-9.31-6.79-11.68-3.1-3.03-1.27-7.29-1.19-7.47,.06-.14,.19-.24,.34-.27,.15-.03,.31,.02,.42,.12,.66,.62,16.1,15.35,20.3,23.87,.96,1.95,2.13,5.77,3.62,10.61,.71,2.3,1.51,4.9,2.38,7.61,.04,.13,.02,.27-.06,.39-.08,.11-.2,.19-.34,.2-1,.1-2.18,.21-3.31,.28-4.96,.51-8.63,3.24-11.91,8.83-.08,.14-.24,.23-.4,.23Zm-4.33-18.59c.22,0,.41,.15,.46,.37,.01,.07,1.44,7.03,4.04,16.6,2.32-3.72,5.81-7.7,12.06-8.35,0,0,.01,0,.02,0,.91-.06,1.86-.14,2.71-.22-.81-2.52-1.55-4.93-2.21-7.08-1.48-4.8-2.64-8.59-3.57-10.47-3.7-7.51-16.79-20.41-19.58-23.11-.35,1.21-.8,3.84,1.23,5.81,2.94,2.88,7.05,12.1,7.22,12.49,.06,.13,.05,.28-.02,.4s-.19,.21-.33,.23c-.1,.02-10.13,1.68-13.63,6.96-1.19,1.8-1.49,3.85-.89,6.08,1.08,3.98,3.15,6.11,5.83,6.02,2.73-.1,5.69-2.65,6.21-5.36,.04-.21,.23-.37,.46-.37h0Z"/>
      </g>
      <g>
        <path class="cls-1" d="M917.69,376.05c1.78,6.98,1.35,11.6,1.35,11.6,0,0-.65,4.15-3.89,5.06-3.24,.91-5.02,7.66-4.53,11.62,.29,2.37,.27,7.23,4.61,8.09,2.9,.57,10.15-1.85,11.9-3.56,2.34-2.29,3.43-18.42,3.26-35.17-1.39,.94-2.85,1.72-4.36,2.31-2.83,1.11-5.32,1.51-8.35,.05Z"/>
        <path class="cls-3" d="M916.22,412.95c-.4,0-.76-.03-1.07-.09-4.23-.83-4.65-5.11-4.9-7.67-.03-.29-.06-.57-.09-.81-.5-4.08,1.36-11.13,4.87-12.11,2.91-.82,3.55-4.66,3.55-4.7,0-.02,.39-4.6-1.34-11.42-.04-.17,.02-.35,.16-.46,.14-.11,.34-.13,.5-.05,2.9,1.4,5.28,.98,7.97-.07,1.47-.58,2.91-1.34,4.27-2.26,.14-.1,.33-.11,.48-.03,.15,.08,.25,.23,.25,.4,.14,14.7-.66,32.82-3.4,35.49-1.69,1.65-7.83,3.78-11.25,3.78Zm2.15-36.12c1.52,6.47,1.16,10.67,1.14,10.85-.03,.21-.74,4.48-4.22,5.46-2.97,.84-4.67,7.33-4.2,11.13,.03,.25,.06,.53,.09,.83,.24,2.45,.6,6.16,4.16,6.86,2.67,.52,9.81-1.8,11.48-3.44,1.96-1.91,3.26-16.15,3.13-34-1.2,.75-2.45,1.38-3.73,1.88-2.65,1.03-5.03,1.49-7.85,.42Z"/>
      </g>
      <g>
        <path class="cls-4" d="M921.7,330.27c-.26-.39-.85-1.2-1.68-2.33-.1-.14-.21-.29-.32-.43-7.5-10.14-32.11-42.38-32.11-42.38,0,0-28.82-35.14-48.25-32.92l-3.89,22.79s66.33,68.18,68.91,71.28c5.19,6.25,9.92,22.11,12.78,33.35,3.03,1.46,7.01,1.64,9.83,.53,1.51-.59,2.97-1.36,4.36-2.31-.14-14.57-1.23-29.6-3.26-36.38-.81-2.7-3.13-6.62-6.37-11.21Z"/>
        <path class="cls-3" d="M922.85,381.33c-2.03,0-4.14-.44-5.92-1.29-.12-.06-.21-.17-.25-.3-3-11.77-7.63-27.08-12.69-33.17-2.53-3.05-68.22-70.57-68.88-71.25-.1-.1-.15-.25-.12-.39l3.89-22.79c.03-.2,.2-.35,.41-.38,19.46-2.22,47.49,31.65,48.67,33.09,.26,.33,24.71,32.38,32.13,42.4l.32,.43c.87,1.17,1.43,1.96,1.69,2.34,3.5,4.95,5.66,8.76,6.43,11.33,2.23,7.43,3.16,23.73,3.28,36.5,0,.15-.07,.29-.2,.38-1.42,.96-2.91,1.75-4.45,2.36-1.28,.5-2.77,.75-4.3,.75Zm-5.31-2.02c2.87,1.31,6.56,1.48,9.26,.43,1.4-.55,2.77-1.26,4.07-2.12-.17-16.12-1.41-29.9-3.24-36.01-.74-2.48-2.87-6.2-6.31-11.08,0,0,0,0,0,0-.25-.37-.81-1.14-1.67-2.31l-.32-.43c-7.42-10.02-31.86-42.06-32.11-42.38-.28-.33-28.52-34.48-47.48-32.78l-3.79,22.23c4.42,4.55,66.25,68.11,68.77,71.14,5.14,6.18,9.8,21.48,12.82,33.32Z"/>
      </g>
      <g>
        <path class="cls-1" d="M789.25,195.09s-12.46,37.77,7.46,46.31c3.75,.24,6.43-1.36,8-2.21,7.02,5.34,4.5,18.68,4.62,19.05,2.46,7.56,30.57,1.64,28.5-4.75,0,0-1.65-8.12-4.32-17.93-1.6-5.88-.19-13.1-2.37-18.8-1.47-3.85-6.41-6.61-8.05-9.32-8.1-13.45-26.56-21.37-33.84-12.35Z"/>
        <path class="cls-3" d="M818.32,262.23c-4.62,0-8.53-1.07-9.43-3.86-.04-.14-.03-.25,.04-.9,.93-8.72-.5-14.69-4.26-17.74-1.61,.88-4.3,2.35-7.98,2.12-.05,0-.11-.02-.16-.04-8.34-3.58-12.31-12.85-11.48-26.81,.62-10.45,3.73-19.97,3.76-20.07,.02-.05,.04-.1,.08-.14,2.35-2.91,5.93-4.29,10.36-3.99,8.69,.58,18.89,7.47,24.25,16.39,.64,1.06,1.85,2.17,3.14,3.34,1.89,1.73,4.04,3.68,4.94,6.05,1.21,3.17,1.34,6.82,1.46,10.34,.1,2.89,.21,5.87,.92,8.5,2.57,9.45,4.22,17.44,4.32,17.94,.8,2.54-2.34,5.17-8.4,7.05-3.49,1.08-7.77,1.8-11.56,1.8Zm-8.53-4.08c1.4,4.02,11.53,3.97,19.81,1.41,5.36-1.66,8.42-3.99,7.79-5.93,0-.02,0-.03-.01-.05-.02-.08-1.68-8.22-4.31-17.9-.74-2.73-.85-5.77-.95-8.71-.12-3.45-.25-7.02-1.41-10.06-.83-2.17-2.89-4.05-4.71-5.7-1.34-1.22-2.6-2.37-3.31-3.55-5.22-8.67-15.11-15.38-23.51-15.94-4.07-.27-7.36,.97-9.51,3.58-.61,1.92-11.62,37.49,7.15,45.65,3.37,.19,5.79-1.13,7.4-2.01l.27-.15c.16-.09,.36-.07,.51,.04,4.2,3.2,5.84,9.5,4.85,18.74-.03,.24-.05,.48-.06,.59Z"/>
      </g>
      <g>
        <path class="cls-4" d="M871.6,300.07c5.73,32.68,12.16,79.45,11.79,83.26-.65,6.65-25.27,12.27-55.71,10.69-30.44-1.58-21.7-25.01-37.89-53.81-6.34-11.28-5.23-30.5-13.42-31.5s-25.12-1.43-25.12-1.43c0,0-32.71,1.27-55.05-4.75-15.06-4.05-26.44-37.15-32.26-58.3,2.69-4.59,6.24-8.44,12.27-9.06,1.08-.07,2.18-.17,3.3-.28,5.37,16.66,13.87,38.51,27.7,42.31,13.74,3.78,38.23-2.75,53.18-7.57l12.75-4.47,27.01-9.48s14.45-8.96,34.33-4.75l12.09,1.94,25.03,47.2Z"/>
        <path class="cls-3" d="M837.82,394.74c-3.33,0-6.73-.09-10.17-.26-20.43-1.06-23.57-12.06-27.93-27.28-2.28-7.98-4.87-17.02-10.35-26.77-2.62-4.66-4-10.74-5.22-16.11-1.78-7.84-3.32-14.6-7.84-15.16-8.23-1.01-24.91-1.42-25.07-1.42-.3,.01-33.01,1.2-55.17-4.77-15.46-4.16-27.05-38.51-32.59-58.62-.03-.12-.02-.24,.05-.34,2.32-3.96,5.85-8.59,12.63-9.29,1.14-.07,2.31-.18,3.3-.28,.22-.03,.43,.11,.49,.32,5.24,16.24,13.78,38.27,27.38,42.01,13.85,3.81,39.09-3.11,52.91-7.57l39.71-13.93c.93-.55,15.35-8.87,34.64-4.78l12.07,1.93c.25,.04,.43,.27,.38,.52-.04,.25-.28,.41-.54,.38l-12.09-1.94c-19.5-4.13-33.87,4.6-34.01,4.69-.03,.02-.06,.03-.09,.04l-39.76,13.95c-13.93,4.5-39.38,11.46-53.46,7.58-13.94-3.83-22.59-25.85-27.91-42.26-.92,.09-1.95,.18-2.94,.24-4.89,.5-8.54,3.18-11.8,8.67,5.5,19.94,16.92,53.77,31.89,57.8,22.02,5.93,54.59,4.75,54.91,4.73,.2,0,16.92,.42,25.2,1.43,5.17,.63,6.78,7.69,8.64,15.86,1.27,5.57,2.58,11.32,5.13,15.87,5.53,9.84,8.13,18.93,10.43,26.96,4.41,15.41,7.32,25.59,27.08,26.62,14.29,.74,28.11-.06,38.91-2.25,9.92-2.02,16.02-5.02,16.32-8.03,.38-3.9-6.14-50.97-11.78-83.14-.04-.25,.13-.48,.38-.53,.26-.04,.49,.12,.54,.37,5.65,32.22,12.18,79.44,11.79,83.38-.64,6.56-21.15,11.36-46.03,11.37Z"/>
      </g>
      <g>
        <path class="cls-3" d="M803.8,206.27s3.15,9.65,5.42,11.23c3.24-4.12,7.77-7.28,9.72-5.06s2.59,12.35,2.59,12.35c0,0,8.64,7.64,16.42,3.53,7.45-13.93,7.09-40.44-16.19-47.08-6.76-1.93-15.58-5.41-26.43-3.57-6.62,1.12-18.55,7.87-20.17,10.88-4.87,9.03,8.52,19.04,8.52,19.04,0,0,8.23,9.06,20.13-1.3Z"/>
        <path class="cls-3" d="M832.93,230c-6.12,0-11.44-4.63-11.72-4.88-.09-.08-.14-.19-.15-.31-.18-2.78-.97-10.36-2.48-12.08-.35-.4-.8-.58-1.39-.57-1.94,.05-5,2.31-7.6,5.62-.15,.19-.44,.24-.64,.09-2.05-1.43-4.58-8.48-5.37-10.81-3.95,3.28-7.92,4.84-11.82,4.61-4.99-.29-8.05-3.38-8.41-3.77-.92-.69-13.53-10.46-8.62-19.59,1.68-3.12,13.61-9.95,20.5-11.12,9.51-1.61,17.44,.8,23.82,2.74,.98,.3,1.92,.58,2.83,.84,8.49,2.42,14.74,7.76,18.09,15.44,4.85,11.14,2.68,24.25-1.62,32.29-.04,.08-.11,.15-.19,.19-1.74,.92-3.52,1.29-5.23,1.29Zm-10.95-5.43c1.12,.93,8.78,6.91,15.62,3.41,4.02-7.62,6.2-20.64,1.52-31.39-3.23-7.42-9.28-12.58-17.49-14.92-.91-.26-1.86-.55-2.84-.85-6.28-1.91-14.1-4.28-23.38-2.71-6.55,1.11-18.28,7.74-19.84,10.64-4.63,8.59,8.26,18.37,8.39,18.46,.02,.02,.05,.04,.07,.06,.32,.36,8.07,8.59,19.47-1.34,.12-.1,.28-.14,.43-.1,.15,.04,.27,.15,.32,.3,.81,2.48,3.17,8.92,4.91,10.71,2.15-2.62,5.41-5.52,8.01-5.59,.86-.02,1.59,.28,2.12,.89,1.89,2.16,2.59,10.96,2.69,12.42Z"/>
      </g>
    </g>
    <g>
      <path class="cls-1" d="M900.33,457.62s41.29,39.74,55.6,35.25c1.95-1.55-5.95-4.51-14.91-10.78-16.02-11.21-39.02-27.31-40.69-24.48Z"/>
      <path class="cls-3" d="M953.44,493.67c-16.11,0-51.83-34.19-53.43-35.73-.15-.15-.18-.37-.08-.55,.11-.18,.33-.42,.77-.52,3.61-.77,20.42,10.73,40.38,24.7l.22,.16c3.4,2.38,6.66,4.29,9.28,5.82,4.19,2.45,6.04,3.58,6.12,4.72,.02,.25-.05,.63-.47,.96-.05,.04-.1,.06-.15,.08-.8,.25-1.69,.37-2.64,.37Zm-52.31-35.94c4.59,4.34,41.41,38.64,54.57,34.73,.07-.07,.07-.12,.07-.14-.05-.72-2.78-2.32-5.67-4.01-2.63-1.54-5.9-3.45-9.34-5.86l-.22-.16c-14.06-9.83-35.13-24.57-39.36-24.57-.01,0-.03,0-.04,0Z"/>
    </g>
    <g>
      <polygon class="cls-4" points="636.03 151.15 487.41 151.15 484.49 138.55 633.11 138.55 636.03 151.15"/>
      <path class="cls-3" d="M636.03,151.61h-148.62c-.22,0-.41-.15-.45-.35l-2.92-12.6c-.03-.14,0-.28,.09-.38,.09-.11,.22-.17,.36-.17h148.62c.22,0,.41,.15,.45,.35l2.91,12.6c.03,.14,0,.28-.09,.38-.09,.11-.22,.17-.36,.17Zm-148.24-.91h147.66l-2.7-11.69h-147.66l2.7,11.69Z"/>
    </g>
    <g>
      <polygon class="cls-4" points="644.72 193.01 496.1 193.01 493.19 180.41 641.81 180.41 644.72 193.01"/>
      <path class="cls-3" d="M644.72,193.47h-148.62c-.22,0-.41-.15-.45-.35l-2.92-12.6c-.03-.14,0-.28,.09-.38,.09-.11,.22-.17,.36-.17h148.62c.22,0,.41,.15,.45,.35l2.91,12.6c.03,.14,0,.28-.09,.38-.09,.11-.22,.17-.36,.17Zm-148.24-.91h147.66l-2.7-11.69h-147.66l2.7,11.69Z"/>
    </g>
    <g>
      <polygon class="cls-4" points="652.38 133.63 675.85 149.27 694.46 115.95 686.63 113.74 673.42 139.57 656.62 126.73 652.38 133.63"/>
      <path class="cls-3" d="M675.85,149.73c-.09,0-.18-.03-.26-.08l-23.48-15.64c-.2-.14-.26-.4-.14-.61l4.25-6.9c.07-.11,.18-.19,.31-.21,.13-.02,.27,0,.37,.09l16.35,12.49,12.96-25.32c.1-.2,.33-.29,.55-.23l7.82,2.21c.14,.04,.25,.13,.3,.26s.05,.27-.02,.39l-18.6,33.32c-.06,.11-.17,.19-.3,.22-.04,0-.07,.01-.11,.01Zm-22.85-16.23l22.69,15.11,18.08-32.38-6.89-1.95-13.04,25.48c-.06,.12-.18,.21-.31,.24-.14,.03-.28,0-.39-.09l-16.38-12.52-3.75,6.09Z"/>
    </g>
    <g>
      <polygon class="cls-1" points="660.37 180.21 683.85 195.85 702.45 162.53 694.63 160.32 681.41 186.14 664.62 173.31 660.37 180.21"/>
      <path class="cls-3" d="M683.85,196.3c-.09,0-.18-.03-.26-.08l-23.48-15.64c-.2-.14-.26-.4-.14-.61l4.25-6.9c.07-.11,.18-.19,.31-.21,.13-.02,.27,0,.37,.09l16.35,12.49,12.96-25.32c.1-.2,.33-.3,.55-.23l7.82,2.21c.14,.04,.25,.13,.3,.26s.05,.27-.02,.39l-18.6,33.32c-.06,.11-.17,.19-.3,.22-.04,0-.07,.01-.11,.01Zm-22.85-16.23l22.69,15.11,18.08-32.38-6.89-1.95-13.04,25.48c-.06,.12-.18,.21-.31,.24-.14,.03-.28,0-.39-.09l-16.38-12.52-3.75,6.09Z"/>
    </g>
    <g>
      <polygon class="cls-3" points="808.16 234.6 804.71 239.19 807.43 241.46 808.16 234.6"/>
      <path class="cls-3" d="M807.43,241.91c-.11,0-.22-.04-.3-.11l-2.72-2.27c-.19-.15-.22-.42-.07-.62l3.45-4.59c.12-.17,.35-.23,.54-.15,.2,.07,.32,.27,.3,.47l-.73,6.86c-.02,.17-.13,.31-.29,.38-.06,.02-.11,.03-.17,.03Zm-2.09-2.79l1.72,1.43,.46-4.33-2.18,2.9Z"/>
    </g>
  </g>
</svg>