<?xml version="1.0" encoding="utf-8"?>
<!-- Generator: Adobe Illustrator 26.4.1, SVG Export Plug-In . SVG Version: 6.00 Build 0)  -->
<svg version="1.1" id="Layer_1" xmlns="http://www.w3.org/2000/svg" xmlns:xlink="http://www.w3.org/1999/xlink" x="0px" y="0px"
	 viewBox="0 0 800 300" style="enable-background:new 0 0 800 300;" xml:space="preserve">
<style type="text/css">
	.st0{fill:#1A1A1A;}
	.st1{fill:#FFFFFF;}
	.st2{fill:#8E9DF4;}
	.st3{fill:#5067EF;}
</style>
<g>
	<g>
		<g>
			<path class="st0" d="M342.5,30C342.5,30,342.5,30,342.5,30c-0.7-0.1-1.3-0.2-2-0.3c-0.2,0-0.3-0.2-0.3-0.4c0-0.2,0.2-0.3,0.4-0.3
				c0.6,0.1,1.3,0.2,1.9,0.3c0.2,0,0.3,0.2,0.3,0.4C342.8,29.8,342.7,30,342.5,30z"/>
		</g>
		<g>
			<path class="st0" d="M306.4,285.4C306.4,285.4,306.3,285.4,306.4,285.4c-1.3-0.1-2.6-0.3-3.9-0.5c-0.2,0-0.3-0.2-0.3-0.4
				c0-0.2,0.2-0.3,0.4-0.3c1.3,0.2,2.6,0.3,3.9,0.5c0.2,0,0.3,0.2,0.3,0.4C306.7,285.3,306.5,285.4,306.4,285.4z M298.6,284.5
				C298.6,284.5,298.6,284.5,298.6,284.5c-1.3-0.2-2.7-0.4-3.9-0.5c-0.2,0-0.3-0.2-0.3-0.4c0-0.2,0.2-0.3,0.4-0.3
				c1.3,0.2,2.6,0.4,3.9,0.5c0.2,0,0.3,0.2,0.3,0.4C298.9,284.4,298.7,284.5,298.6,284.5z M290.8,283.4
				C290.8,283.4,290.8,283.4,290.8,283.4c-1.3-0.2-2.6-0.4-3.9-0.6c-0.2,0-0.3-0.2-0.3-0.4c0-0.2,0.2-0.3,0.4-0.3
				c1.3,0.2,2.6,0.4,3.9,0.6c0.2,0,0.3,0.2,0.3,0.4C291.1,283.3,291,283.4,290.8,283.4z M283.1,282.1
				C283.1,282.1,283.1,282.1,283.1,282.1c-1.4-0.2-2.6-0.5-3.9-0.7c-0.2,0-0.3-0.2-0.3-0.4c0-0.2,0.2-0.3,0.4-0.3
				c1.3,0.2,2.6,0.5,3.8,0.7c0.2,0,0.3,0.2,0.3,0.4C283.4,282,283.3,282.1,283.1,282.1z M275.4,280.6
				C275.4,280.6,275.4,280.6,275.4,280.6c-1.3-0.3-2.6-0.6-3.9-0.8c-0.2,0-0.3-0.2-0.2-0.4c0-0.2,0.2-0.3,0.4-0.2
				c1.3,0.3,2.6,0.6,3.8,0.8c0.2,0,0.3,0.2,0.3,0.4C275.7,280.5,275.6,280.6,275.4,280.6z M267.8,278.8
				C267.7,278.8,267.7,278.8,267.8,278.8c-1.4-0.3-2.6-0.6-3.9-1c-0.2,0-0.3-0.2-0.2-0.4c0-0.2,0.2-0.3,0.4-0.2
				c1.2,0.3,2.5,0.6,3.8,0.9c0.2,0,0.3,0.2,0.2,0.4C268,278.7,267.9,278.8,267.8,278.8z M260.2,276.9
				C260.1,276.9,260.1,276.9,260.2,276.9c-1.4-0.4-2.6-0.7-3.9-1.1c-0.2-0.1-0.3-0.2-0.2-0.4c0.1-0.2,0.2-0.3,0.4-0.2
				c1.2,0.4,2.5,0.7,3.8,1.1c0.2,0,0.3,0.2,0.2,0.4C260.4,276.8,260.3,276.9,260.2,276.9z M252.6,274.7
				C252.6,274.7,252.6,274.7,252.6,274.7c-1.3-0.4-2.6-0.8-3.8-1.2c-0.2-0.1-0.3-0.2-0.2-0.4c0.1-0.2,0.2-0.3,0.4-0.2
				c1.2,0.4,2.5,0.8,3.7,1.2c0.2,0.1,0.3,0.2,0.2,0.4C252.9,274.6,252.8,274.7,252.6,274.7z M245.2,272.3c0,0-0.1,0-0.1,0
				c-1.2-0.4-2.5-0.9-3.7-1.3c-0.2-0.1-0.3-0.3-0.2-0.4c0.1-0.2,0.3-0.3,0.4-0.2c1.2,0.4,2.4,0.9,3.7,1.3c0.2,0.1,0.3,0.2,0.2,0.4
				C245.5,272.2,245.3,272.3,245.2,272.3z M237.9,269.5c0,0-0.1,0-0.1,0c-1.2-0.5-2.4-1-3.6-1.5c-0.2-0.1-0.2-0.3-0.2-0.4
				c0.1-0.2,0.3-0.2,0.4-0.2c1.2,0.5,2.4,1,3.6,1.5c0.2,0.1,0.2,0.3,0.2,0.4C238.1,269.4,238,269.5,237.9,269.5z M230.6,266.5
				c0,0-0.1,0-0.1,0c-1.2-0.5-2.4-1.1-3.6-1.6c-0.2-0.1-0.2-0.3-0.2-0.4c0.1-0.2,0.3-0.2,0.4-0.2c1.2,0.6,2.4,1.1,3.6,1.6
				c0.2,0.1,0.2,0.3,0.2,0.4C230.9,266.4,230.8,266.5,230.6,266.5z M223.6,263.1c0,0-0.1,0-0.1,0c-1.2-0.6-2.3-1.2-3.5-1.8
				c-0.2-0.1-0.2-0.3-0.1-0.4c0.1-0.2,0.3-0.2,0.4-0.1c1.1,0.6,2.3,1.2,3.5,1.8c0.2,0.1,0.2,0.3,0.1,0.4
				C223.8,263,223.7,263.1,223.6,263.1z M216.7,259.4c-0.1,0-0.1,0-0.2,0c-1.1-0.7-2.3-1.3-3.4-2c-0.2-0.1-0.2-0.3-0.1-0.4
				c0.1-0.2,0.3-0.2,0.4-0.1c1.1,0.7,2.2,1.3,3.4,2c0.2,0.1,0.2,0.3,0.1,0.4C216.9,259.3,216.8,259.4,216.7,259.4z M210,255.3
				c-0.1,0-0.1,0-0.2-0.1c-1.1-0.7-2.2-1.4-3.3-2.2c-0.1-0.1-0.2-0.3-0.1-0.5c0.1-0.1,0.3-0.2,0.5-0.1c1.1,0.7,2.2,1.5,3.2,2.2
				c0.2,0.1,0.2,0.3,0.1,0.5C210.2,255.3,210.1,255.3,210,255.3z M203.5,250.9c-0.1,0-0.1,0-0.2-0.1c-1.1-0.8-2.1-1.6-3.1-2.4
				c-0.1-0.1-0.2-0.3-0.1-0.5c0.1-0.1,0.3-0.2,0.5-0.1c1,0.8,2.1,1.6,3.1,2.4c0.1,0.1,0.2,0.3,0.1,0.5
				C203.7,250.8,203.6,250.9,203.5,250.9z M197.4,246c-0.1,0-0.1,0-0.2-0.1c-1-0.8-2-1.7-3-2.6c-0.1-0.1-0.1-0.3,0-0.5
				c0.1-0.1,0.3-0.1,0.5,0c1,0.9,1.9,1.7,2.9,2.6c0.1,0.1,0.2,0.3,0,0.5C197.6,246,197.5,246,197.4,246z M191.6,240.7
				c-0.1,0-0.2,0-0.2-0.1c-0.9-0.9-1.9-1.9-2.8-2.8c-0.1-0.1-0.1-0.3,0-0.5c0.1-0.1,0.3-0.1,0.5,0c0.9,0.9,1.8,1.9,2.7,2.8
				c0.1,0.1,0.1,0.3,0,0.5C191.7,240.7,191.7,240.7,191.6,240.7z M186.2,235.1c-0.1,0-0.2,0-0.2-0.1c-0.9-1-1.7-2-2.5-3
				c-0.1-0.1-0.1-0.3,0-0.5c0.1-0.1,0.3-0.1,0.5,0c0.8,1,1.7,2,2.5,3c0.1,0.1,0.1,0.3,0,0.5C186.3,235,186.3,235.1,186.2,235.1z
				 M181.3,229c-0.1,0-0.2,0-0.3-0.1c-0.8-1.1-1.5-2.1-2.3-3.2c-0.1-0.1-0.1-0.4,0.1-0.5c0.1-0.1,0.4-0.1,0.5,0.1
				c0.7,1.1,1.5,2.1,2.3,3.2c0.1,0.1,0.1,0.3-0.1,0.5C181.4,228.9,181.3,229,181.3,229z M176.9,222.5c-0.1,0-0.2-0.1-0.3-0.2
				c-0.7-1.1-1.4-2.3-2-3.4c-0.1-0.2,0-0.4,0.1-0.4c0.2-0.1,0.4,0,0.4,0.1c0.6,1.1,1.3,2.3,2,3.4c0.1,0.2,0,0.4-0.1,0.4
				C177,222.5,176.9,222.5,176.9,222.5z M173,215.7c-0.1,0-0.2-0.1-0.3-0.2c-0.6-1.2-1.2-2.4-1.7-3.5c-0.1-0.2,0-0.4,0.2-0.4
				c0.2-0.1,0.4,0,0.4,0.2c0.5,1.2,1.1,2.4,1.7,3.5c0.1,0.2,0,0.4-0.1,0.4C173.1,215.6,173.1,215.7,173,215.7z M169.8,208.5
				c-0.1,0-0.3-0.1-0.3-0.2c-0.5-1.2-0.9-2.5-1.4-3.7c-0.1-0.2,0-0.4,0.2-0.4c0.2-0.1,0.4,0,0.4,0.2c0.4,1.2,0.9,2.5,1.4,3.7
				c0.1,0.2,0,0.4-0.2,0.4C169.9,208.5,169.9,208.5,169.8,208.5z M167.2,201.1c-0.1,0-0.3-0.1-0.3-0.2c-0.4-1.2-0.7-2.5-1-3.8
				c0-0.2,0.1-0.4,0.2-0.4c0.2,0,0.4,0.1,0.4,0.2c0.3,1.3,0.7,2.5,1,3.8C167.6,200.9,167.5,201,167.2,201.1
				C167.3,201.1,167.3,201.1,167.2,201.1z M165.3,193.5c-0.2,0-0.3-0.1-0.3-0.3c-0.3-1.3-0.5-2.6-0.7-3.9c0-0.2,0.1-0.3,0.3-0.4
				c0.2,0,0.3,0.1,0.4,0.3c0.2,1.3,0.4,2.6,0.7,3.8C165.7,193.3,165.6,193.5,165.3,193.5C165.4,193.5,165.4,193.5,165.3,193.5z
				 M164.1,185.8c-0.2,0-0.3-0.1-0.3-0.3c-0.2-1.3-0.3-2.6-0.4-3.9c0-0.2,0.1-0.3,0.3-0.4c0.2,0,0.3,0.1,0.4,0.3
				c0.1,1.3,0.2,2.6,0.4,3.9C164.4,185.6,164.3,185.8,164.1,185.8C164.1,185.8,164.1,185.8,164.1,185.8z M163.5,178
				c-0.2,0-0.3-0.1-0.3-0.3c0-1.2-0.1-2.4-0.1-3.6l0-0.3c0-0.2,0.1-0.3,0.3-0.3c0,0,0,0,0,0c0.2,0,0.3,0.1,0.3,0.3l0,0.3
				c0,1.2,0,2.4,0.1,3.6C163.8,177.8,163.7,178,163.5,178C163.5,178,163.5,178,163.5,178z M163.5,170.1
				C163.5,170.1,163.5,170.1,163.5,170.1c-0.2,0-0.3-0.2-0.3-0.3c0.1-1.3,0.1-2.6,0.2-3.9c0-0.2,0.2-0.3,0.4-0.3
				c0.2,0,0.3,0.2,0.3,0.4c-0.1,1.3-0.2,2.6-0.2,3.9C163.8,170,163.7,170.1,163.5,170.1z M164.1,162.3
				C164.1,162.3,164.1,162.3,164.1,162.3c-0.2,0-0.3-0.2-0.3-0.4c0.1-1.3,0.3-2.6,0.5-3.9c0-0.2,0.2-0.3,0.4-0.3
				c0.2,0,0.3,0.2,0.3,0.4c-0.2,1.3-0.4,2.6-0.5,3.9C164.4,162.2,164.3,162.3,164.1,162.3z M165.3,154.6
				C165.3,154.6,165.3,154.6,165.3,154.6c-0.2,0-0.4-0.2-0.3-0.4c0.2-1.3,0.5-2.6,0.8-3.9c0-0.2,0.2-0.3,0.4-0.2
				c0.2,0,0.3,0.2,0.2,0.4c-0.3,1.3-0.5,2.6-0.8,3.8C165.6,154.5,165.5,154.6,165.3,154.6z M167,146.9
				C167,146.9,166.9,146.9,167,146.9c-0.3-0.1-0.4-0.2-0.3-0.4c0.3-1.3,0.7-2.5,1-3.8c0.1-0.2,0.2-0.3,0.4-0.2
				c0.2,0.1,0.3,0.2,0.2,0.4c-0.4,1.3-0.7,2.5-1,3.8C167.3,146.8,167.1,146.9,167,146.9z M169.2,139.4c0,0-0.1,0-0.1,0
				c-0.2-0.1-0.3-0.2-0.2-0.4c0.4-1.2,0.8-2.5,1.3-3.7c0.1-0.2,0.2-0.3,0.4-0.2c0.2,0.1,0.3,0.2,0.2,0.4c-0.4,1.2-0.9,2.5-1.3,3.7
				C169.4,139.3,169.3,139.4,169.2,139.4z M171.8,132c0,0-0.1,0-0.1,0c-0.2-0.1-0.3-0.3-0.2-0.4c0.5-1.2,1-2.4,1.5-3.6
				c0.1-0.2,0.3-0.2,0.4-0.2c0.2,0.1,0.2,0.3,0.2,0.4c-0.5,1.2-1,2.4-1.5,3.6C172.1,131.9,171.9,132,171.8,132z M174.9,124.8
				c0,0-0.1,0-0.1,0c-0.2-0.1-0.2-0.3-0.2-0.4c0.5-1.2,1.1-2.4,1.7-3.6c0.1-0.2,0.3-0.2,0.4-0.2c0.2,0.1,0.2,0.3,0.2,0.4
				c-0.6,1.2-1.1,2.4-1.7,3.5C175.1,124.7,175,124.8,174.9,124.8z M178.3,117.7c-0.1,0-0.1,0-0.2,0c-0.2-0.1-0.2-0.3-0.1-0.4
				c0.6-1.2,1.2-2.3,1.9-3.5c0.1-0.2,0.3-0.2,0.4-0.1c0.2,0.1,0.2,0.3,0.1,0.4c-0.6,1.1-1.3,2.3-1.9,3.4
				C178.5,117.7,178.4,117.7,178.3,117.7z M182.1,110.9c-0.1,0-0.1,0-0.2,0c-0.2-0.1-0.2-0.3-0.1-0.4c0.7-1.1,1.3-2.2,2-3.4
				c0.1-0.2,0.3-0.2,0.4-0.1c0.2,0.1,0.2,0.3,0.1,0.4c-0.7,1.1-1.4,2.2-2,3.3C182.3,110.8,182.2,110.9,182.1,110.9z M186.2,104.2
				c-0.1,0-0.1,0-0.2-0.1c-0.2-0.1-0.2-0.3-0.1-0.5c0.7-1.1,1.4-2.2,2.2-3.3c0.1-0.1,0.3-0.2,0.5-0.1c0.1,0.1,0.2,0.3,0.1,0.5
				c-0.7,1.1-1.5,2.2-2.2,3.2C186.5,104.2,186.3,104.2,186.2,104.2z M190.7,97.8c-0.1,0-0.1,0-0.2-0.1c-0.1-0.1-0.2-0.3-0.1-0.5
				c0.8-1.1,1.6-2.1,2.3-3.1c0.1-0.1,0.3-0.2,0.5-0.1c0.1,0.1,0.2,0.3,0.1,0.5c-0.8,1-1.6,2.1-2.3,3.1
				C190.9,97.7,190.8,97.8,190.7,97.8z M195.5,91.5c-0.1,0-0.1,0-0.2-0.1c-0.1-0.1-0.2-0.3-0.1-0.5c0.8-1,1.7-2,2.5-3
				c0.1-0.1,0.3-0.2,0.5,0c0.1,0.1,0.2,0.3,0,0.5c-0.8,1-1.7,2-2.5,3C195.7,91.5,195.6,91.5,195.5,91.5z M200.5,85.5
				c-0.1,0-0.2,0-0.2-0.1c-0.1-0.1-0.1-0.3,0-0.5c0.9-1,1.7-2,2.6-2.9c0.1-0.1,0.3-0.1,0.5,0c0.1,0.1,0.1,0.3,0,0.5
				c-0.9,1-1.8,1.9-2.6,2.9C200.7,85.5,200.6,85.5,200.5,85.5z M205.8,79.8c-0.1,0-0.2,0-0.2-0.1c-0.1-0.1-0.1-0.3,0-0.5
				c0.9-0.9,1.8-1.9,2.8-2.8c0.1-0.1,0.3-0.1,0.5,0c0.1,0.1,0.1,0.3,0,0.5c-0.9,0.9-1.8,1.9-2.7,2.8C206,79.7,205.9,79.8,205.8,79.8
				z M211.4,74.2c-0.1,0-0.2,0-0.2-0.1c-0.1-0.1-0.1-0.3,0-0.5c0.9-0.9,1.9-1.8,2.9-2.7c0.1-0.1,0.3-0.1,0.5,0
				c0.1,0.1,0.1,0.3,0,0.5c-1,0.9-1.9,1.8-2.9,2.7C211.5,74.2,211.5,74.2,211.4,74.2z M217.2,69c-0.1,0-0.2,0-0.2-0.1
				c-0.1-0.1-0.1-0.3,0-0.5c1-0.9,2-1.7,3-2.6c0.1-0.1,0.3-0.1,0.5,0c0.1,0.1,0.1,0.3,0,0.5c-1,0.8-2,1.7-3,2.5
				C217.3,68.9,217.3,69,217.2,69z M223.2,63.9c-0.1,0-0.2,0-0.3-0.1c-0.1-0.1-0.1-0.3,0.1-0.5c1-0.8,2.1-1.6,3.1-2.4
				c0.1-0.1,0.3-0.1,0.5,0.1c0.1,0.1,0.1,0.3-0.1,0.5c-1,0.8-2.1,1.6-3.1,2.4C223.4,63.9,223.3,63.9,223.2,63.9z M229.5,59.2
				c-0.1,0-0.2,0-0.3-0.1c-0.1-0.1-0.1-0.4,0.1-0.5c1.1-0.8,2.1-1.5,3.2-2.3c0.1-0.1,0.4-0.1,0.5,0.1c0.1,0.1,0.1,0.4-0.1,0.5
				c-1.1,0.7-2.1,1.5-3.2,2.3C229.7,59.2,229.6,59.2,229.5,59.2z M236,54.7c-0.1,0-0.2-0.1-0.3-0.1c-0.1-0.2-0.1-0.4,0.1-0.5
				c1.1-0.7,2.2-1.4,3.3-2.1c0.2-0.1,0.4,0,0.4,0.1c0.1,0.2,0,0.4-0.1,0.4c-1.1,0.7-2.2,1.4-3.3,2.1C236.1,54.7,236.1,54.7,236,54.7
				z M242.7,50.6c-0.1,0-0.2-0.1-0.3-0.2c-0.1-0.2,0-0.4,0.1-0.4c1.1-0.7,2.3-1.3,3.4-2c0.2-0.1,0.4,0,0.4,0.1
				c0.1,0.2,0,0.4-0.1,0.4c-1.1,0.6-2.3,1.3-3.4,2C242.8,50.6,242.7,50.6,242.7,50.6z M249.5,46.7c-0.1,0-0.2-0.1-0.3-0.2
				c-0.1-0.2,0-0.4,0.1-0.4c1.2-0.6,2.3-1.2,3.5-1.8c0.2-0.1,0.4,0,0.4,0.1c0.1,0.2,0,0.4-0.1,0.4c-1.2,0.6-2.3,1.2-3.5,1.8
				C249.6,46.7,249.6,46.7,249.5,46.7z M256.5,43.2c-0.1,0-0.2-0.1-0.3-0.2c-0.1-0.2,0-0.4,0.2-0.4c1.2-0.6,2.4-1.1,3.6-1.6
				c0.2-0.1,0.4,0,0.4,0.2c0.1,0.2,0,0.4-0.2,0.4c-1.2,0.5-2.4,1.1-3.6,1.6C256.6,43.2,256.6,43.2,256.5,43.2z M263.7,40
				c-0.1,0-0.2-0.1-0.3-0.2c-0.1-0.2,0-0.4,0.2-0.4c1.2-0.5,2.4-1,3.7-1.5c0.2-0.1,0.4,0,0.4,0.2c0.1,0.2,0,0.4-0.2,0.4
				c-1.2,0.5-2.4,1-3.6,1.5C263.8,40,263.8,40,263.7,40z M271,37.2c-0.1,0-0.3-0.1-0.3-0.2c-0.1-0.2,0-0.4,0.2-0.4
				c1.2-0.4,2.5-0.9,3.7-1.3c0.2-0.1,0.4,0,0.4,0.2c0.1,0.2,0,0.4-0.2,0.4c-1.2,0.4-2.5,0.8-3.7,1.3C271.1,37.2,271.1,37.2,271,37.2
				z M278.5,34.8c-0.1,0-0.3-0.1-0.3-0.2c-0.1-0.2,0-0.4,0.2-0.4c1.3-0.4,2.5-0.7,3.8-1.1c0.2,0,0.4,0.1,0.4,0.2
				c0,0.2-0.1,0.4-0.2,0.4C281.1,34,279.8,34.4,278.5,34.8C278.6,34.8,278.5,34.8,278.5,34.8z M286.1,32.7c-0.1,0-0.3-0.1-0.3-0.2
				c0-0.2,0.1-0.4,0.2-0.4c1.3-0.3,2.6-0.6,3.8-0.9c0.2,0,0.4,0.1,0.4,0.2c0,0.2-0.1,0.4-0.2,0.4C288.7,32.1,287.4,32.4,286.1,32.7
				C286.1,32.7,286.1,32.7,286.1,32.7z M293.8,31c-0.2,0-0.3-0.1-0.3-0.3c0-0.2,0.1-0.3,0.3-0.4c1.3-0.2,2.6-0.5,3.9-0.7
				c0.2,0,0.3,0.1,0.4,0.3c0,0.2-0.1,0.3-0.3,0.4C296.4,30.5,295.1,30.7,293.8,31C293.8,31,293.8,31,293.8,31z M301.5,29.7
				c-0.2,0-0.3-0.1-0.3-0.3c0-0.2,0.1-0.3,0.3-0.4c1.3-0.2,2.6-0.3,3.9-0.5c0.2,0,0.3,0.1,0.4,0.3c0,0.2-0.1,0.3-0.3,0.4
				C304.1,29.4,302.8,29.5,301.5,29.7C301.5,29.7,301.5,29.7,301.5,29.7z M336.7,29.2C336.7,29.2,336.7,29.2,336.7,29.2
				c-1.3-0.1-2.6-0.3-3.9-0.4c-0.2,0-0.3-0.2-0.3-0.4c0-0.2,0.2-0.3,0.4-0.3c1.3,0.1,2.6,0.2,3.9,0.4c0.2,0,0.3,0.2,0.3,0.4
				C337,29.1,336.9,29.2,336.7,29.2z M309.3,28.9c-0.2,0-0.3-0.1-0.3-0.3c0-0.2,0.1-0.3,0.3-0.4c1.3-0.1,2.6-0.2,3.9-0.3
				c0.2,0,0.3,0.1,0.3,0.3c0,0.2-0.1,0.3-0.3,0.3C311.9,28.7,310.6,28.7,309.3,28.9C309.3,28.9,309.3,28.9,309.3,28.9z M328.9,28.6
				C328.9,28.6,328.9,28.6,328.9,28.6c-1.3-0.1-2.6-0.1-3.9-0.2c-0.2,0-0.3-0.2-0.3-0.3c0-0.2,0.2-0.3,0.3-0.3
				c1.3,0,2.6,0.1,3.9,0.2c0.2,0,0.3,0.2,0.3,0.3C329.2,28.4,329.1,28.6,328.9,28.6z M317.1,28.4c-0.2,0-0.3-0.1-0.3-0.3
				c0-0.2,0.1-0.3,0.3-0.3c1.3,0,2.6-0.1,3.9-0.1h0c0.2,0,0.3,0.1,0.3,0.3c0,0.2-0.1,0.3-0.3,0.3C319.7,28.4,318.4,28.4,317.1,28.4
				C317.1,28.4,317.1,28.4,317.1,28.4z"/>
		</g>
		<g>
			<path class="st0" d="M312.1,286C312.1,286,312.1,286,312.1,286c-0.7-0.1-1.3-0.1-2-0.2c-0.2,0-0.3-0.2-0.3-0.4
				c0-0.2,0.2-0.3,0.4-0.3c0.6,0.1,1.3,0.1,1.9,0.2c0.2,0,0.3,0.2,0.3,0.4C312.4,285.9,312.3,286,312.1,286z"/>
		</g>
	</g>
	<g>
		<path class="st1" d="M762.1,241.4c0-5-18.6-9.6-50.9-13.6c-8.8-12.8-82.9-22.7-172.9-22.7c-56.4,0-106.6,3.9-138.3,10
			c-193.1,0.3-348.6,12-348.6,26.4c0,5.8,24.9,11.1,67,15.4c-1.1,1.2-1.7,2.3-1.7,3.5c0,14,77.8,25.3,173.8,25.3
			c78.9,0,145.5-7.7,166.7-18.1C629.6,265.7,762.1,254.7,762.1,241.4z"/>
		<path class="st0" d="M290.5,286c-46.5,0-90.1-2.6-123-7.4c-33.1-4.8-51.3-11.3-51.3-18.2c0-1.1,0.5-2.2,1.4-3.3
			c-21.1-2.2-37.4-4.6-48.7-7.1c-12.1-2.7-18-5.5-18-8.6c0-3.7,9.3-7.2,27.7-10.5c17.5-3.1,42.6-5.9,74.6-8.3
			c65.6-5,153.2-7.8,246.7-7.9c33.2-6.3,83.7-10,138.4-10c89.5,0,163.7,9.8,173.2,22.8c33.9,4.2,51,8.9,51,13.9
			c0,8.4-48,14.3-88.2,17.7c-56.1,4.8-133.1,7.9-216.9,8.8c-10.5,5.1-32.4,9.8-61.8,13C365.2,284.2,328.8,286,290.5,286z
			 M538.3,205.4c-54.7,0-105,3.6-138.2,10c0,0-0.1,0-0.1,0c-93.5,0.1-181.1,2.9-246.7,7.9c-64.5,4.9-101.4,11.5-101.4,18.2
			c0,5.3,23.7,10.7,66.6,15.1c0.2,0,0.3,0.1,0.4,0.2s0,0.2,0,0.3c-1.1,1.1-1.6,2.2-1.6,3.4c0,6.5,18.4,12.9,50.5,17.6
			c32.8,4.8,76.4,7.4,122.8,7.4c38.3,0,74.6-1.8,104.9-5.1c29.4-3.2,51.2-7.8,61.5-12.9c0.1,0,0.2-0.1,0.3-0.1
			c83.9-0.9,160.9-4,217-8.8c27.7-2.4,49.3-5,64.3-7.9c19.1-3.7,23.1-7,23.1-9.1c0-3.2-8.8-8.2-50.5-13.3c-0.1,0-0.3-0.1-0.3-0.2
			c-4.2-6.1-24-11.8-55.7-16C623.1,207.8,581.6,205.4,538.3,205.4z"/>
	</g>
	<g>
		<g>
			<path class="st1" d="M690.6,244.5l-5.4,33.2c-11.8,2.6-23.9,2.9-36.2,1l-1.9-36.3L690.6,244.5z"/>
			<path class="st0" d="M664.6,280.2c-5.2,0-10.4-0.4-15.7-1.2c-0.2,0-0.3-0.2-0.3-0.3l-1.9-36.3c0-0.1,0-0.2,0.1-0.2
				c0.1-0.1,0.2-0.1,0.2-0.1l43.5,2.1c0.1,0,0.2,0,0.2,0.1c0.1,0.1,0.1,0.2,0.1,0.3l-5.4,33.2c0,0.1-0.1,0.2-0.3,0.3
				C678.4,279.5,671.5,280.2,664.6,280.2z M649.2,278.4c12.1,1.9,24,1.5,35.6-1l5.4-32.6l-42.8-2L649.2,278.4z"/>
		</g>
		<g>
			<ellipse class="st0" cx="672.5" cy="243.1" rx="19.9" ry="2.1"/>
			<path class="st0" d="M672.5,245.5c-5.3,0-10.3-0.2-14.1-0.6c-6.1-0.6-6.1-1.4-6.1-1.8c0-0.4,0-1.2,6.1-1.8
				c3.8-0.4,8.8-0.6,14.1-0.6c5.3,0,10.3,0.2,14.1,0.6c6.1,0.6,6.1,1.4,6.1,1.8c0,0.4,0,1.2-6.1,1.8
				C682.8,245.3,677.8,245.5,672.5,245.5z M652.9,243.1c0.6,0.7,7.7,1.8,19.6,1.8s19-1,19.6-1.8c-0.6-0.7-7.7-1.8-19.6-1.8
				C660.6,241.3,653.5,242.3,652.9,243.1z M692,243.1L692,243.1L692,243.1z"/>
		</g>
		<g>
			<g>
				<g>
					<g>
						<path class="st2" d="M670.9,233c0,0,47.7,27.3,71.8-6.4c24.1-33.8,13.7-65.2-12.7-79.7c-26.4-14.4-62.6-3.2-74,14.3
							S675.3,226.4,670.9,233z"/>
						<path class="st0" d="M708.7,243.8c-3.5,0-7.2-0.3-11-1c-14.8-2.6-26.9-9.4-27-9.5c-0.1,0-0.1-0.1-0.2-0.2c0-0.1,0-0.2,0-0.3
							c1.6-2.4-1.9-11.2-6-21.3c-7.1-17.6-15.9-39.5-8.8-50.4c5.7-8.8,17.5-16,31.5-19.3c15.4-3.6,30.6-1.8,42.8,4.9
							c13.2,7.2,22.2,18.6,25.3,31.9c3.5,15.2-0.8,31.9-12.5,48.2c-5.5,7.8-12.8,12.9-21.6,15.4
							C717.5,243.3,713.2,243.8,708.7,243.8z M671.3,232.9c1.9,1,13,6.9,26.5,9.3c13.5,2.4,32.3,1.5,44.6-15.8
							c11.5-16.1,15.8-32.6,12.4-47.7c-3-13.2-11.9-24.3-24.9-31.5c-12.1-6.6-27.2-8.3-42.4-4.8c-13.9,3.2-25.5,10.3-31.1,19
							c-6.9,10.7,2.2,33.3,8.8,49.8C669.4,221.7,672.7,229.9,671.3,232.9z"/>
					</g>
					<g>
						<path class="st0" d="M654.2,244.3c-0.2,0-0.4-0.1-0.4-0.3c-0.1-0.2,0-0.5,0.2-0.7c24.1-11.4,42.2-31.7,53.1-46.7
							c11.8-16.3,18-30,18.1-30.1c0.1-0.2,0.4-0.4,0.6-0.2c0.2,0.1,0.4,0.4,0.2,0.6c-0.1,0.1-6.3,14-18.2,30.3
							c-11,15.1-29.2,35.5-53.5,47.1C654.3,244.3,654.3,244.3,654.2,244.3z"/>
					</g>
					<g>
						<path class="st0" d="M741.7,179.1c-0.1,0-0.1,0-0.2-0.1c-0.1-0.1-11-7.2-20.5-2.7c-0.1,0-0.2,0-0.3,0c-0.1,0-0.2-0.1-0.2-0.2
							c-2.5-10.7-13.7-21.1-13.8-21.2c-0.1-0.1-0.1-0.3,0-0.5c0.1-0.1,0.3-0.1,0.5,0c0.1,0.1,11.2,10.4,13.9,21.2
							c9.7-4.3,20.6,2.9,20.8,2.9c0.2,0.1,0.2,0.3,0.1,0.5C741.9,179,741.8,179.1,741.7,179.1z"/>
					</g>
					<g>
						<path class="st0" d="M740.2,196.8c-0.1,0-0.1,0-0.2-0.1c-0.2-0.1-16.6-12.1-24.4-10.7c-0.2,0-0.3-0.1-0.4-0.2
							c-1.7-6-9.7-23.1-25.9-29.8c-0.2-0.1-0.2-0.3-0.2-0.4c0.1-0.2,0.3-0.2,0.4-0.2c16.2,6.7,24.3,23.7,26.2,30
							c8.2-1.1,24,10.4,24.6,10.9c0.1,0.1,0.2,0.3,0.1,0.5C740.4,196.8,740.3,196.8,740.2,196.8z"/>
					</g>
					<g>
						<path class="st0" d="M746.7,213.2c-0.1,0-0.1,0-0.2-0.1c-0.2-0.2-24.6-18.1-37.3-16.8c-0.1,0-0.2,0-0.2-0.1
							c-0.1-0.1-0.1-0.1-0.1-0.2c-0.2-3.2-3.9-10.4-10.6-17.5c-5.6-5.9-15-13.5-27.8-16.3c-0.2,0-0.3-0.2-0.3-0.4
							c0-0.2,0.2-0.3,0.4-0.3c12.9,2.8,22.4,10.5,28.1,16.5c6.7,7,10.4,14,10.8,17.5c13.1-1,36.5,16.2,37.5,17
							c0.1,0.1,0.2,0.3,0.1,0.5C746.9,213.2,746.8,213.2,746.7,213.2z"/>
					</g>
					<g>
						<path class="st0" d="M730.7,217.5c-0.1,0-0.2,0-0.2-0.1c-0.1-0.1-14-13.6-28.6-12.8c-0.2,0-0.3-0.1-0.3-0.3
							c-1-7.7-16.6-26.6-31.5-29.3c-0.2,0-0.3-0.2-0.3-0.4c0-0.2,0.2-0.3,0.4-0.3c6.6,1.2,14.3,5.9,21.2,12.8
							c5.8,5.9,10.1,12.6,10.9,16.8c14.7-0.6,28.6,12.9,28.8,13c0.1,0.1,0.1,0.3,0,0.5C730.9,217.5,730.8,217.5,730.7,217.5z"/>
					</g>
					<g>
						<path class="st0" d="M721.8,227.8c-0.1,0-0.2,0-0.2-0.1c-0.2-0.2-15.2-16.1-27.1-14c-0.1,0-0.2,0-0.3-0.1
							c-0.1-0.1-0.1-0.2-0.1-0.2c-0.1-8.7-10.6-19.7-23.9-25c-0.2-0.1-0.2-0.3-0.2-0.4c0.1-0.2,0.3-0.2,0.4-0.2
							c13.4,5.3,23.9,16.3,24.3,25.3c12.1-1.8,26.7,13.6,27.3,14.2c0.1,0.1,0.1,0.3,0,0.5C721.9,227.8,721.8,227.8,721.8,227.8z"/>
					</g>
					<g>
						<path class="st0" d="M715.4,234.8c-0.1,0-0.2,0-0.2-0.1c-0.1-0.1-11.6-11.7-29-12.9c-0.2,0-0.3-0.1-0.3-0.3
							c-0.8-6.7-9.5-21.1-17.6-22c-0.2,0-0.3-0.2-0.3-0.4c0-0.2,0.2-0.3,0.4-0.3c8.4,1,17.1,15.2,18.1,22.3
							c17.5,1.3,29.1,13,29.2,13.1c0.1,0.1,0.1,0.3,0,0.5C715.5,234.8,715.5,234.8,715.4,234.8z"/>
					</g>
				</g>
				<g>
					<g>
						<path class="st0" d="M689,242.6c0,0,23.9-21.5,36.9-12.1c12.9,9.4,28.6,27,14.1,45.4c-14.6,18.4-36.5,21.7-50.2,3.1
							S693.1,254.1,689,242.6z"/>
						<path class="st0" d="M712.1,291.8c-0.2,0-0.3,0-0.5,0c-8.6-0.2-16.3-4.5-22.3-12.6c-8.4-11.4-5.3-18.4-2.6-24.5
							c1.7-3.9,3.4-7.6,1.8-12c0-0.1,0-0.3,0.1-0.4c0.1-0.1,6.1-5.5,13.6-9.6c10.1-5.6,18.2-6.4,23.6-2.5
							c6.7,4.9,18.1,14.9,19.8,27.3c0.9,6.5-1,12.7-5.7,18.7C732.3,286.1,722.1,291.8,712.1,291.8z M689.3,242.7
							c1.6,4.6-0.1,8.3-1.9,12.3c-2.8,6.2-5.7,12.7,2.5,23.8c5.8,7.9,13.3,12.2,21.8,12.3c9.9,0.2,20.1-5.4,27.9-15.4
							c4.6-5.8,6.4-11.9,5.6-18.2c-1.7-12.2-13-22-19.6-26.8C713.6,222,691.5,240.9,689.3,242.7z"/>
					</g>
					<g>
						<path class="st1" d="M731,275.9c-0.2,0-0.3-0.1-0.4-0.2c0-0.1-4.4-7.7-11.7-15.6c-6.7-7.2-17.3-15.9-29.9-17
							c-16.1-1.3-18.5-0.3-18.8-0.1c-0.1,0.1-0.3,0.2-0.4,0.2c-0.3,0-0.5-0.2-0.5-0.5c0-0.1,0-0.3,0.2-0.4c1.2-1,8.1-1.1,19.6-0.2
							c12.9,1,23.8,10,30.6,17.3c7.4,7.9,11.8,15.7,11.8,15.7c0.1,0.2,0,0.5-0.2,0.7C731.1,275.9,731,275.9,731,275.9z M670.2,242.8
							L670.2,242.8L670.2,242.8z M670.2,242.8C670.2,242.8,670.2,242.8,670.2,242.8C670.2,242.8,670.2,242.8,670.2,242.8z
							 M670.2,242.8C670.2,242.8,670.2,242.8,670.2,242.8C670.2,242.8,670.2,242.8,670.2,242.8z M670.2,242.8
							C670.2,242.8,670.2,242.8,670.2,242.8C670.2,242.8,670.2,242.8,670.2,242.8z M670.2,242.8
							C670.2,242.8,670.2,242.8,670.2,242.8C670.2,242.8,670.2,242.8,670.2,242.8z"/>
					</g>
					<g>
						<path class="st1" d="M690.2,262c-0.1,0-0.2-0.1-0.3-0.2c-0.1-0.2,0-0.4,0.1-0.4c3.1-1.7,9.1-7.2,9.4-12
							c0.1-2.1-0.8-3.8-2.8-5.1c-0.1-0.1-0.2-0.2-0.1-0.4c0-0.1,0.1-0.2,0.3-0.2c7.1-0.6,17.1-10.3,17.2-10.4c0.1-0.1,0.3-0.1,0.5,0
							c0.1,0.1,0.1,0.3,0,0.5c-0.4,0.4-9.5,9.3-16.8,10.5c1.7,1.4,2.5,3.2,2.4,5.2c-0.3,5.1-6.4,10.8-9.7,12.6
							C690.3,262,690.2,262,690.2,262z"/>
					</g>
					<g>
						<path class="st1" d="M689.8,270c-0.1,0-0.3-0.1-0.3-0.2c-0.1-0.2,0-0.4,0.2-0.4c7.3-2.2,13-7.2,15.2-13.4
							c1.2-3.4,1.1-6.6-0.4-8.7c-0.1-0.1-0.1-0.2,0-0.3c0.1-0.1,0.2-0.2,0.3-0.2c13.2-0.8,21-10.4,21-10.5c0.1-0.1,0.3-0.2,0.5-0.1
							c0.1,0.1,0.2,0.3,0.1,0.5c-0.1,0.1-7.8,9.7-21,10.7c1.3,2.3,1.4,5.5,0.2,8.8C703.2,262.5,697.4,267.7,689.8,270
							C689.8,270,689.8,270,689.8,270z"/>
					</g>
					<g>
						<path class="st1" d="M698.3,275.9c-0.2,0-0.3-0.1-0.3-0.3c0-0.2,0.1-0.3,0.3-0.4c3.7-0.4,7-2.7,9.6-6.4
							c3.7-5.4,5.1-12.6,4.4-15.5c0-0.1,0-0.2,0.1-0.3c0.1-0.1,0.2-0.1,0.3-0.1c10.6,2.5,20.5-6.8,20.6-6.9c0.1-0.1,0.3-0.1,0.5,0
							c0.1,0.1,0.1,0.3,0,0.5c-0.1,0.1-9.9,9.4-20.7,7.1c0.5,3.2-0.8,10.1-4.6,15.5C705.7,273.1,702.2,275.4,698.3,275.9
							C698.3,275.9,698.3,275.9,698.3,275.9z"/>
					</g>
					<g>
						<path class="st1" d="M701.8,286c-0.1,0-0.3-0.1-0.3-0.2c0-0.2,0.1-0.4,0.2-0.4c15.2-4.1,16.8-16.1,17.7-23.2
							c0.1-0.6,0.2-1.1,0.2-1.6c0-0.1,0.1-0.2,0.2-0.2c0.1-0.1,0.2-0.1,0.3,0c5.6,1.8,18-3.2,18.2-3.3c0.2-0.1,0.4,0,0.4,0.2
							c0.1,0.2,0,0.4-0.2,0.4c-0.5,0.2-12.3,4.9-18.2,3.4c-0.1,0.4-0.1,0.8-0.2,1.2C719.2,269.5,717.5,281.7,701.8,286
							C701.9,286,701.9,286,701.8,286z"/>
					</g>
					<g>
						<path class="st1" d="M719.3,283.8c-0.1,0-0.2-0.1-0.3-0.2c-0.1-0.2,0-0.4,0.2-0.4c3.9-1.7,6.9-9.3,6.2-15.9
							c0-0.1,0-0.2,0.1-0.3c0.1-0.1,0.2-0.1,0.3-0.1c3.2,0.9,8.5-1.6,8.6-1.6c0.2-0.1,0.4,0,0.4,0.2c0.1,0.2,0,0.4-0.2,0.4
							c-0.2,0.1-5.2,2.4-8.6,1.8c0.6,6.8-2.5,14.4-6.6,16.1C719.4,283.8,719.3,283.8,719.3,283.8z"/>
					</g>
				</g>
				<g>
					<g>
						<path class="st1" d="M668.5,235.5c0,0-2.3-33.5-18.8-35.9s-41-0.6-43.5,23.8c-2.5,24.4,11.6,42.8,35.4,38.8
							C665.2,258.2,657,241.1,668.5,235.5z"/>
						<path class="st0" d="M635,263.1c-7.6,0-14.2-2.5-19.3-7.3c-7.7-7.2-11.3-19-9.9-32.4c0.8-7.8,3.9-13.9,9.3-18.1
							c10.3-8,26.1-7.2,34.6-6c6.9,1,12.4,7.6,15.9,19c2.6,8.6,3.2,17,3.2,17.1c0,0.1-0.1,0.3-0.2,0.3c-4.4,2.1-5.9,6.1-7.4,10.3
							c-2.4,6.6-5.1,14-19.7,16.5C639.3,263,637.1,263.1,635,263.1z M639.2,199.2c-7.9,0-17,1.4-23.7,6.6c-5.2,4.1-8.3,10-9,17.7
							c-1.4,13.2,2.2,24.8,9.7,31.8c6.4,6,15.2,8.3,25.3,6.6c14.2-2.4,16.7-9.3,19.2-16c1.6-4.3,3-8.3,7.5-10.6
							c-0.2-2.9-3.1-33.2-18.5-35.3C646.8,199.6,643.1,199.2,639.2,199.2z"/>
					</g>
					<g>
						<path class="st0" d="M671.1,244.5c-0.2,0-0.4-0.1-0.4-0.3c-0.1-0.2,0-0.5,0.2-0.7c0,0,0.9-0.5,1.1-1.6c0.1-1.1-0.4-3-3.8-6
							c-9.9-8.7-24.2-9.9-34.5-9.3c-11.2,0.6-20.2,3.4-20.2,3.4c-0.3,0.1-0.5-0.1-0.6-0.3c-0.1-0.3,0.1-0.5,0.3-0.6
							c0.1,0,9.2-2.8,20.5-3.5c10.5-0.6,25.1,0.6,35.2,9.5c3,2.7,4.4,5,4.1,6.9c-0.2,1.6-1.6,2.3-1.6,2.4
							C671.2,244.4,671.1,244.5,671.1,244.5z"/>
					</g>
					<g>
						<path class="st0" d="M653.7,249.2c-0.1,0-0.3-0.1-0.3-0.2c-1.2-3.7-1.6-12.4,1.8-16.5c1.4-1.6,3.3-2.4,5.6-2.2
							c-4.5-6.2-5-19.5-5-20.1c0-0.2,0.1-0.3,0.3-0.3c0,0,0,0,0,0c0.2,0,0.3,0.1,0.3,0.3c0,0.1,0.4,14.6,5.3,20.3
							c0.1,0.1,0.1,0.3,0,0.4c-0.1,0.1-0.2,0.2-0.3,0.2c-2.5-0.4-4.4,0.2-5.8,1.8c-3.3,3.8-2.9,12.3-1.7,15.8c0.1,0.2,0,0.4-0.2,0.4
							C653.8,249.2,653.8,249.2,653.7,249.2z"/>
					</g>
					<g>
						<path class="st0" d="M648.2,255.5c-0.1,0-0.2-0.1-0.3-0.2c-4-7.2-4.6-15.2-1.7-21.6c1.6-3.4,3.9-5.7,6.6-6.5
							c-9.2-10.4-8-23.1-8-23.2c0-0.2,0.2-0.3,0.4-0.3c0.2,0,0.3,0.2,0.3,0.4c0,0.1-1.2,12.9,8.1,23.1c0.1,0.1,0.1,0.2,0.1,0.3
							c0,0.1-0.1,0.2-0.2,0.2c-2.6,0.5-5.1,2.8-6.6,6.2c-2.8,6.2-2.2,14.1,1.6,21c0.1,0.2,0,0.4-0.1,0.4
							C648.4,255.5,648.3,255.5,648.2,255.5z"/>
					</g>
					<g>
						<path class="st0" d="M637.5,253.7c-0.1,0-0.2,0-0.3-0.1c-2.6-3.2-3.5-7.4-2.7-12.3c1.1-6.8,5.2-12.9,7.8-14.9
							c-9.7-6.2-10.3-20.3-10.3-20.4c0-0.2,0.1-0.3,0.3-0.3c0.2,0,0.3,0.1,0.3,0.3c0,0.1,0.6,14.3,10.5,20.1
							c0.1,0.1,0.2,0.2,0.2,0.3c0,0.1-0.1,0.2-0.2,0.3c-2.6,1.6-6.9,8-8,14.8c-0.8,4.7,0.1,8.7,2.6,11.8c0.1,0.1,0.1,0.3,0,0.5
							C637.7,253.7,637.6,253.7,637.5,253.7z"/>
					</g>
					<g>
						<path class="st0" d="M627.6,258.7c-0.1,0-0.2-0.1-0.3-0.2c-8.6-14.5-0.9-24.8,3.6-31c0.3-0.4,0.5-0.7,0.8-1.1
							c-5.6-3.2-11-15.3-11.2-15.8c-0.1-0.2,0-0.4,0.2-0.4c0.2-0.1,0.4,0,0.4,0.2c0.1,0.1,5.7,12.9,11.2,15.6c0.1,0,0.1,0.1,0.2,0.2
							c0,0.1,0,0.2-0.1,0.3c-0.3,0.4-0.6,0.9-1,1.4c-4.5,6-12,16.2-3.6,30.3c0.1,0.2,0,0.4-0.1,0.4
							C627.7,258.7,627.6,258.7,627.6,258.7z"/>
					</g>
					<g>
						<path class="st0" d="M616.1,244.4c-0.1,0-0.2-0.1-0.3-0.2c-1.8-4.3,1.5-12.2,6.8-16.9c-3-2-5.1-7.3-5.2-7.6
							c-0.1-0.2,0-0.4,0.2-0.4c0.2-0.1,0.4,0,0.4,0.2c0,0.1,2.2,5.8,5.3,7.5c0.1,0.1,0.2,0.1,0.2,0.3c0,0.1,0,0.2-0.1,0.3
							c-5.4,4.5-8.7,12.3-7,16.4c0.1,0.2,0,0.4-0.2,0.4C616.2,244.4,616.1,244.4,616.1,244.4z"/>
					</g>
				</g>
			</g>
		</g>
	</g>
	<g>
		<g>
			<g>
				<g>
					<path class="st1" d="M271.6,90.5c-0.2-0.4-56.3,15-56.7,15.2c0.2-0.4,12.1-23.6,34-29.3c4.9-1.3,10.3-1.6,16.3-0.7
						c6.5,1.1,12,3.5,16.5,6.7C276.9,83.4,274.1,86.3,271.6,90.5z"/>
				</g>
				<g>
					<path class="st1" d="M214.9,105.7C214.9,105.7,214.9,105.7,214.9,105.7L214.9,105.7z"/>
				</g>
			</g>
			<g>
				<g>
					<path class="st0" d="M271.6,90.5c-0.2-0.4-56.3,15-56.7,15.2c0.2-0.4,12.1-23.6,34-29.3c4.9-1.3,10.3-1.6,16.3-0.7
						c6.5,1.1,12,3.5,16.5,6.7C276.9,83.4,274.1,86.3,271.6,90.5z"/>
					<path class="st0" d="M214.9,106c-0.1,0-0.1,0-0.2-0.1c-0.1-0.1-0.1-0.2-0.1-0.3c0.1-0.2,3.1-6.1,8.9-12.7
						c5.2-6,13.9-13.8,25.2-16.7c5.3-1.4,10.8-1.6,16.4-0.7c6.3,1.1,11.9,3.3,16.6,6.8c0.1,0.1,0.1,0.2,0.1,0.3
						c0,0.1-0.1,0.2-0.2,0.2c-4.1,0.7-7,3-9.8,7.8c-0.1,0.1-0.2,0.2-0.3,0.1c0,0,0,0-0.1,0c-2.3,0.1-55.8,15-56.5,15.2
						C215,106,215,106,214.9,106z M258.5,75.5c-3.2,0-6.4,0.4-9.5,1.2c-11.2,2.9-19.8,10.6-24.9,16.5c-4.7,5.4-7.6,10.3-8.5,12
						c3.4-1,17.6-4.9,27.5-7.6c23.2-6.3,27.5-7.3,28.4-7.4c2.8-4.6,5.6-6.9,9.5-7.8c-4.5-3.2-9.8-5.3-15.8-6.3
						C262.9,75.7,260.6,75.5,258.5,75.5z M271.3,90.6L271.3,90.6L271.3,90.6z M271.3,90.6C271.3,90.6,271.3,90.6,271.3,90.6
						C271.3,90.6,271.3,90.6,271.3,90.6z M271.3,90.6C271.3,90.6,271.3,90.6,271.3,90.6C271.3,90.6,271.3,90.6,271.3,90.6z
						 M271.3,90.6C271.3,90.6,271.3,90.6,271.3,90.6C271.3,90.6,271.3,90.6,271.3,90.6z M271.3,90.6
						C271.3,90.6,271.3,90.6,271.3,90.6C271.3,90.6,271.3,90.6,271.3,90.6z M271.3,90.6C271.3,90.6,271.3,90.6,271.3,90.6
						C271.3,90.6,271.3,90.6,271.3,90.6z"/>
				</g>
				<g>
					<path class="st0" d="M214.9,106c-0.1,0-0.2,0-0.2-0.1c-0.1-0.1-0.1-0.3,0-0.4c0.1-0.1,0.3-0.1,0.4,0c0.1,0.1,0.1,0.3,0,0.4l0,0
						C215.1,106,215,106,214.9,106z"/>
				</g>
			</g>
			<g>
				<g>
					<path class="st0" d="M214.9,106c-0.1,0-0.1,0-0.2-0.1c-0.1-0.1-0.1-0.2-0.1-0.3c0.1-0.2,3.1-6.1,8.9-12.7
						c5.2-6,13.9-13.8,25.2-16.7c5.3-1.4,10.8-1.6,16.4-0.7c6.3,1.1,11.9,3.3,16.6,6.8c0.1,0.1,0.1,0.2,0.1,0.3
						c0,0.1-0.1,0.2-0.2,0.2c-4.1,0.7-7,3-9.8,7.8c-0.1,0.1-0.2,0.2-0.3,0.1c0,0,0,0-0.1,0c-2.3,0.1-55.8,15-56.5,15.2
						C215,106,215,106,214.9,106z M258.5,75.5c-3.2,0-6.4,0.4-9.5,1.2c-11.2,2.9-19.8,10.6-24.9,16.5c-4.7,5.4-7.6,10.3-8.5,12
						c3.4-1,17.6-4.9,27.5-7.6c23.2-6.3,27.5-7.3,28.4-7.4c2.8-4.6,5.6-6.9,9.5-7.8c-4.5-3.2-9.8-5.3-15.8-6.3
						C262.9,75.7,260.6,75.5,258.5,75.5z M271.3,90.6L271.3,90.6L271.3,90.6z M271.3,90.6C271.3,90.6,271.3,90.6,271.3,90.6
						C271.3,90.6,271.3,90.6,271.3,90.6z M271.3,90.6C271.3,90.6,271.3,90.6,271.3,90.6C271.3,90.6,271.3,90.6,271.3,90.6z
						 M271.3,90.6C271.3,90.6,271.3,90.6,271.3,90.6C271.3,90.6,271.3,90.6,271.3,90.6z M271.3,90.6
						C271.3,90.6,271.3,90.6,271.3,90.6C271.3,90.6,271.3,90.6,271.3,90.6z M271.3,90.6C271.3,90.6,271.3,90.6,271.3,90.6
						C271.3,90.6,271.3,90.6,271.3,90.6z"/>
				</g>
				<g>
					<path class="st0" d="M214.9,106c-0.1,0-0.2,0-0.2-0.1c-0.1-0.1-0.1-0.3,0-0.4c0.1-0.1,0.3-0.1,0.4,0c0.1,0.1,0.1,0.3,0,0.4l0,0
						C215.1,106,215,106,214.9,106z"/>
				</g>
			</g>
		</g>
		<g>
			<path class="st1" d="M560.5,248.8c-7.8,16.1-16.7,30.2-26.7,35.3c-46.8,18.5-88.4,18.4-109.9-4.6
				c-57.8-60.7-110.5-14.1-123.5-33.6c-17-25.5,42.5-48.3,10.6-71.9c-5.2-3.9-9.3-5.3-12.7-5.1l28.1-15.8l36.6-18.9l5.3-2.8
				c3.6-0.7,8.1,0.5,14.1,4.9c32,23.5-41,59.2-24,84.7c7.9,11.9,31.3-2.6,72.7-10.9c58.3-11.7,55.6,18.1,94.8,40.5
				C542,261.7,546.9,256.5,560.5,248.8z"/>
			<path class="st0" d="M472.6,297.7c-1.1,0-2.2,0-3.2-0.1c-9.6-0.3-18.3-1.9-25.9-4.9c-7.8-3-14.5-7.4-19.7-13.1
				c-37-38.9-72.3-33.5-95.7-30c-13.4,2-23.1,3.5-27.9-3.6c-8-11.9,0.6-23.2,8.8-34.2c6.4-8.5,12.4-16.4,11.2-24.5
				c-0.7-4.7-3.7-8.9-9.3-13.1c-4.9-3.6-8.9-5.2-12.5-5c-0.1,0-0.3-0.1-0.3-0.2c0-0.1,0-0.3,0.1-0.3l28.1-15.8l42-21.7
				c0,0,0.1,0,0.1,0c4-0.8,8.7,0.8,14.4,5c4.9,3.6,7.6,7.7,8.2,12.3c1.3,10.3-8.2,21.9-17.3,33.1c-11.1,13.6-22.6,27.7-14.8,39.3
				c5.1,7.6,16.6,4.1,35.7-1.5c9.9-3,22.3-6.6,36.7-9.5c18.2-3.7,31.7-3.5,42.4,0.5c9.8,3.7,16.5,10.2,24.3,17.7
				c7.3,7.1,15.7,15.1,28.3,22.3c14.1,9.8,19.5,6.7,30.1,0.5c1.3-0.7,2.6-1.5,4.1-2.3c0.1-0.1,0.3,0,0.4,0c0.1,0.1,0.1,0.2,0.1,0.3
				c-9.6,19.8-18.2,31-26.9,35.4C511.8,293.1,490.7,297.7,472.6,297.7z M353.9,246.6c5.4,0,11.1,0.4,17.1,1.5
				c19.3,3.7,36.7,13.8,53.1,31.1c10.4,11.2,25.6,17.2,45.2,17.8c18.7,0.6,40.9-4,64.3-13.2c8.4-4.2,16.7-15.1,26.1-34.3
				c-1.1,0.6-2.2,1.3-3.2,1.9c-10.8,6.3-16.3,9.5-30.7-0.5c-12.7-7.2-21-15.3-28.4-22.4c-15.6-15.1-26.9-26-66.2-18.1
				c-14.3,2.9-26.7,6.6-36.6,9.5c-19.4,5.8-31.1,9.2-36.4,1.3c-8-12,3.6-26.2,14.8-40c9.1-11.1,18.5-22.7,17.2-32.7
				c-0.6-4.5-3.2-8.4-8-11.9c-5.5-4-10-5.6-13.9-4.9l-42,21.7l-27.1,15.2c3.4,0.2,7.3,1.9,11.7,5.2c5.7,4.2,8.9,8.6,9.6,13.5
				c1.2,8.3-4.9,16.4-11.3,25c-8.1,10.8-16.5,22-8.8,33.5c4.6,6.8,14.1,5.4,27.3,3.4C335.5,247.9,344.3,246.6,353.9,246.6z"/>
		</g>
		<g>
			<path class="st2" d="M315.5,167.7l53.9-31.7c0,0,22.9,8.9,16.1,23.8c-24.4,15.1-58.2,30.2-58.2,30.2S324.9,170.9,315.5,167.7z"/>
			<path class="st0" d="M327.3,190.2c-0.1,0-0.1,0-0.1,0c-0.1,0-0.1-0.1-0.1-0.2c0-0.2-2.6-18.9-11.7-21.9c-0.1,0-0.2-0.1-0.2-0.3
				c0-0.1,0-0.2,0.1-0.3l53.9-31.7c0.1,0,0.2-0.1,0.3,0c0.5,0.2,13,5.2,16.6,14c1.4,3.3,1.2,6.8-0.3,10.2c0,0.1-0.1,0.1-0.1,0.1
				c-24.2,14.9-57.9,30-58.2,30.2C327.4,190.2,327.4,190.2,327.3,190.2z M316.1,167.7c8.4,3.5,11,19,11.4,21.8
				c3.7-1.7,34.9-15.9,57.7-29.9c1.5-3.3,1.6-6.5,0.3-9.7c-3.3-8.1-14.8-13-16.2-13.6L316.1,167.7z"/>
		</g>
		<g>
			<path class="st1" d="M349.2,95.5c-32.1,16.7-40.2,46.8-22.8,57.6l-28.1,15.8c-10.8,0.6-14.2,17.5-24.3,23.4
				c-3.2,1.9-7.2,2.7-12.3,1.3c-25.8-6.7-19.7-41.9,15.9-60.5c22.2-11.6,21.5-37.7,4-50.6c-4.4-3.3-10-5.7-16.5-6.7
				c-5.9-1-11.3-0.6-16.3,0.7l61.9-33.8l0.1-0.1c7.1-3.9,15.8-6.2,25.8-4.5C369,43.6,377,81,349.2,95.5z"/>
			<path class="st0" d="M266.6,194.6c-1.6,0-3.2-0.2-5-0.7c-9.3-2.4-14.9-8.5-15.9-17.2c-0.8-7,1.6-15.1,6.9-22.7
				c5.7-8.3,14.3-15.6,24.9-21.2c9.8-5.1,15.9-13.8,16.7-23.7c0.8-10.1-4-20-12.8-26.4c-4.6-3.4-10.2-5.6-16.4-6.7
				c-5.5-0.9-10.9-0.7-16.1,0.7c-0.1,0-0.3,0-0.4-0.2c-0.1-0.1,0-0.3,0.1-0.4l61.9-33.8l0.1-0.1c8.2-4.5,17-6,26-4.5
				c15.6,2.6,27.1,13.3,29.3,27.1c0.9,5.9,0,11.8-2.7,17.1c-2.9,5.6-7.7,10.4-14.1,13.7l-0.1-0.3l0.1,0.3
				c-18.6,9.7-31,25.3-31.6,39.7c-0.3,7.5,2.8,13.7,8.8,17.4c0.1,0.1,0.1,0.2,0.1,0.3c0,0.1-0.1,0.2-0.2,0.3l-28.1,15.8
				c0,0-0.1,0-0.1,0c-6,0.3-9.7,5.8-13.6,11.6c-3,4.5-6.2,9.1-10.6,11.7C271.8,193.9,269.3,194.6,266.6,194.6z M258.5,75
				c2.2,0,4.5,0.2,6.7,0.6c6.3,1.1,11.9,3.3,16.6,6.8c8.9,6.5,13.8,16.6,13,26.9c-0.8,10.1-7,18.9-17,24.1
				c-10.5,5.5-19,12.7-24.7,21c-5.1,7.5-7.5,15.4-6.8,22.3c1,8.4,6.4,14.3,15.5,16.7c4.6,1.2,8.5,0.8,12.1-1.3
				c4.3-2.5,7.4-7.1,10.4-11.5c4-5.9,7.8-11.5,14-11.9l27.6-15.5c-5.9-3.8-8.9-10.1-8.7-17.6c0.6-14.6,13.1-30.4,31.9-40.2l0,0
				c12.1-6.3,18.4-17.8,16.4-30.1C363.3,51.5,352,41,336.6,38.5c-8.9-1.5-17.5,0-25.6,4.4l-0.1,0.1l-60,32.7
				C253.4,75.2,255.9,75,258.5,75z"/>
		</g>
		<g>
			<path class="st2" d="M301.1,115c25.9-13.5,61.2-38.9,61.2-38.9s2.3-22.5-16.4-27.5c-22.2,10.8-56.5,30.8-56.5,30.8
				S308.5,93.5,301.1,115z"/>
			<path class="st0" d="M301.1,115.3c-0.1,0-0.1,0-0.2-0.1c-0.1-0.1-0.1-0.2-0.1-0.3c3.8-11,0.4-19.9-3.1-25.5
				c-3.8-6.1-8.5-9.6-8.5-9.6c-0.1-0.1-0.1-0.2-0.1-0.3c0-0.1,0.1-0.2,0.1-0.2c0.3-0.2,34.5-20.2,56.5-30.9c0.1,0,0.1,0,0.2,0
				c9.8,2.6,13.8,10,15.4,15.8c1.8,6.2,1.2,11.9,1.2,12c0,0.1-0.1,0.2-0.1,0.2c-0.4,0.3-35.6,25.5-61.2,38.9
				C301.2,115.3,301.2,115.3,301.1,115.3z M289.9,79.5c1.2,0.9,5.1,4.3,8.3,9.5c3.5,5.6,6.8,14.5,3.4,25.3
				c24.8-13.1,58.2-36.8,60.4-38.4c0.1-0.9,0.4-6-1.2-11.6c-2.3-8.1-7.3-13.3-14.9-15.3C325.2,59,293.7,77.3,289.9,79.5z"/>
		</g>
		<g>
			<path class="st0" d="M311,174l-37,18.3c10-5.9,13.5-22.8,24.3-23.4C301.7,168.7,305.8,170.2,311,174z"/>
			<path class="st0" d="M274,192.6c-0.1,0-0.2-0.1-0.3-0.2c-0.1-0.1,0-0.3,0.1-0.4c4.3-2.5,7.4-7.1,10.4-11.5
				c4-5.9,7.8-11.6,14.1-11.9c3.7-0.2,7.9,1.5,12.9,5.2c0.1,0.1,0.1,0.2,0.1,0.3c0,0.1-0.1,0.2-0.2,0.2l-37,18.3
				C274.1,192.6,274.1,192.6,274,192.6z M298.9,169.2c-0.2,0-0.4,0-0.5,0c-6,0.3-9.7,5.8-13.6,11.6c-2.3,3.5-4.7,7-7.7,9.7
				l33.4-16.5C306,170.8,302.2,169.2,298.9,169.2z"/>
		</g>
		<g>
			<path class="st0" d="M324.1,199.4c-0.2,0-0.3-0.1-0.4-0.3c-0.1-0.2,0-0.5,0.2-0.6l45.2-20.7c0.2-0.1,0.5,0,0.6,0.2
				c0.1,0.2,0,0.5-0.2,0.6l-45.2,20.7C324.2,199.4,324.1,199.4,324.1,199.4z"/>
		</g>
		<g>
			<path class="st0" d="M314.6,215.7c-0.2,0-0.3-0.1-0.4-0.3c-0.1-0.2,0-0.5,0.2-0.6l44.7-21c0.2-0.1,0.5,0,0.6,0.2
				c0.1,0.2,0,0.5-0.2,0.6l-44.7,21C314.7,215.7,314.7,215.7,314.6,215.7z"/>
		</g>
		<g>
			<path class="st0" d="M306,231.5c-0.2,0-0.3-0.1-0.4-0.3c-0.1-0.2,0-0.5,0.2-0.6l46.8-21.9c0.2-0.1,0.5,0,0.6,0.2
				c0.1,0.2,0,0.5-0.2,0.6l-46.8,21.9C306.1,231.5,306.1,231.5,306,231.5z"/>
		</g>
		<g>
			<path class="st0" d="M288.4,130.5c-0.2,0-0.3-0.1-0.4-0.2c-0.1-0.2,0-0.5,0.2-0.6l38.5-20.5c0.2-0.1,0.5,0,0.6,0.2
				c0.1,0.2,0,0.5-0.2,0.6l-38.5,20.5C288.5,130.5,288.5,130.5,288.4,130.5z"/>
		</g>
		<g>
			<path class="st0" d="M264.8,151.1c-0.2,0-0.3-0.1-0.4-0.3c-0.1-0.2,0-0.5,0.2-0.6l50.7-24.4c0.2-0.1,0.5,0,0.6,0.2
				c0.1,0.2,0,0.5-0.2,0.6L264.9,151C264.9,151,264.8,151.1,264.8,151.1z"/>
		</g>
		<g>
			<path class="st0" d="M256.6,179.8c-0.2,0-0.3-0.1-0.4-0.2c-0.1-0.2,0-0.5,0.2-0.6l59-30.4c0.2-0.1,0.5,0,0.6,0.2
				c0.1,0.2,0,0.5-0.2,0.6l-59,30.4C256.7,179.8,256.6,179.8,256.6,179.8z"/>
		</g>
		<g>
			<path class="st0" d="M268.7,190.4c-0.1,0-0.3-0.1-0.4-0.2c-0.1-0.2-0.1-0.5,0.1-0.6l17.3-11.6c0.2-0.1,0.5-0.1,0.6,0.1
				c0.1,0.2,0.1,0.5-0.1,0.6L269,190.3C268.9,190.4,268.8,190.4,268.7,190.4z"/>
		</g>
		<g>
			<path class="st0" d="M255.6,168.1c-0.2,0-0.3-0.1-0.4-0.3c-0.1-0.2,0-0.5,0.2-0.6l55.4-27c0.2-0.1,0.5,0,0.6,0.2
				c0.1,0.2,0,0.5-0.2,0.6l-55.4,27C255.7,168.1,255.6,168.1,255.6,168.1z"/>
		</g>
		<g>
			<path class="st0" d="M279.6,70.1c-0.2,0-0.3-0.1-0.4-0.2c-0.1-0.2,0-0.5,0.2-0.6l47.3-26.3c0.2-0.1,0.5,0,0.6,0.2
				c0.1,0.2,0,0.5-0.2,0.6L279.8,70C279.8,70,279.7,70.1,279.6,70.1z"/>
		</g>
		<g>
			<path class="st0" d="M329.4,237.6c-0.2,0-0.3-0.1-0.4-0.3c-0.1-0.2,0-0.5,0.2-0.6l26-12.2c0.2-0.1,0.5,0,0.6,0.2
				c0.1,0.2,0,0.5-0.2,0.6l-26,12.2C329.5,237.6,329.5,237.6,329.4,237.6z"/>
		</g>
	</g>
	<g>
		<g>
			<path class="st0" d="M182.2,202.7c-0.1,0-0.1,0-0.2,0l-27.4-11.5c-0.2-0.1-0.3-0.2-0.3-0.4s0.1-0.3,0.2-0.5l23.7-18
				c0.1-0.1,0.3-0.1,0.5-0.1c0.2,0.1,0.3,0.2,0.3,0.4l3.7,29.5c0,0.2-0.1,0.3-0.2,0.5C182.4,202.6,182.3,202.7,182.2,202.7z
				 M155.7,190.5l25.8,10.9l-3.5-27.8L155.7,190.5z"/>
		</g>
		<g>
			<polygon class="st1" points="550.5,120.8 540.1,124.9 529.7,129.1 531.3,118 532.8,107 541.6,113.9 			"/>
			<path class="st0" d="M529.7,129.4c-0.1,0-0.1,0-0.2-0.1c-0.1-0.1-0.1-0.2-0.1-0.3l3.1-22.2c0-0.1,0.1-0.2,0.2-0.3
				c0.1,0,0.2,0,0.3,0l17.6,13.8c0.1,0.1,0.1,0.2,0.1,0.3c0,0.1-0.1,0.2-0.2,0.3l-20.8,8.4C529.8,129.4,529.7,129.4,529.7,129.4z
				 M533.1,107.6l-3,21l19.7-7.9L533.1,107.6z"/>
		</g>
		<g>
			<polygon class="st3" points="552.2,199 541.6,187.3 531,175.6 546.4,172.3 561.8,168.9 557,184 			"/>
			<path class="st0" d="M552.2,199.3c-0.1,0-0.2,0-0.2-0.1l-21.2-23.4c-0.1-0.1-0.1-0.2-0.1-0.3c0-0.1,0.1-0.2,0.2-0.2l30.9-6.6
				c0.1,0,0.2,0,0.3,0.1c0.1,0.1,0.1,0.2,0.1,0.3l-9.7,30C552.4,199.2,552.4,199.3,552.2,199.3C552.2,199.3,552.2,199.3,552.2,199.3
				z M531.6,175.8l20.4,22.6l9.3-29L531.6,175.8z"/>
		</g>
		<g>
			<polygon class="st0" points="58.2,228.7 47.5,227 36.9,225.2 43.7,216.9 50.5,208.5 54.4,218.6 			"/>
			<path class="st0" d="M58.2,229C58.2,229,58.1,229,58.2,229l-21.4-3.5c-0.1,0-0.2-0.1-0.3-0.2c0-0.1,0-0.2,0.1-0.3l13.7-16.7
				c0.1-0.1,0.2-0.1,0.3-0.1c0.1,0,0.2,0.1,0.3,0.2l7.7,20.2c0,0.1,0,0.2-0.1,0.3C58.4,229,58.3,229,58.2,229z M37.5,225l20.2,3.3
				l-7.3-19.1L37.5,225z"/>
		</g>
	</g>
	<g>
		<g>
			<g>
				<path class="st0" d="M422.9,243.6c-0.3,0.3-5.5-1.9-9.3,2.7c-3.7,4.6,5.3,35,10.5,34.6c5.2-0.4,5.1-14.6,5.1-22.8
					C429.3,249.8,422.9,243.6,422.9,243.6z"/>
				<path class="st0" d="M424,281.3c-1.4,0-2.9-1.7-4.7-5c-4.4-8.4-9-26.4-6-30.1c3.1-3.8,7.1-3.1,8.8-2.9c0.2,0,0.5,0.1,0.6,0.1
					c0,0,0.1,0,0.1,0c0.1,0,0.2,0,0.2,0.1c0.1,0.1,6.5,6.4,6.5,14.7l0,1.1c-0.1,8.6-0.2,21.6-5.4,22
					C424.1,281.3,424.1,281.3,424,281.3z M419.9,243.7c-1.8,0-4.1,0.5-6.1,2.9c-2.6,3.2,1.4,20.5,6.1,29.4c1.6,3.1,3.1,4.8,4.2,4.7
					c4.7-0.3,4.8-13.5,4.8-21.4l0-1.1c0.1-7.4-5.3-13.3-6.2-14.1c-0.2,0-0.4,0-0.7-0.1C421.5,243.8,420.8,243.7,419.9,243.7z"/>
			</g>
			<g>
				<path class="st1" d="M431.2,240.3l-4.1,12c0,0-6.9-2.1-6.9-8.2c3.4-8.7,3.6-9.4,3.6-9.4S430.7,237,431.2,240.3z"/>
				<path class="st0" d="M427.1,252.6C427.1,252.6,427.1,252.6,427.1,252.6c-0.2,0-7.2-2.2-7.2-8.5c0,0,0-0.1,0-0.1
					c3.3-8.4,3.6-9.3,3.6-9.3c0-0.1,0.1-0.2,0.1-0.2c0.1,0,0.2-0.1,0.2,0c0.3,0.1,7,2.4,7.5,5.9c0,0,0,0.1,0,0.1l-4.1,12
					C427.4,252.5,427.2,252.6,427.1,252.6z M420.6,244.1c0.1,5.1,5.1,7.3,6.4,7.8l3.9-11.6c-0.5-2.7-5.6-4.8-6.8-5.2
					C423.8,235.8,423,237.9,420.6,244.1z"/>
			</g>
			<g>
				<path class="st3" d="M409.3,120c0,0,66.1,21.7,64,45c-2.1,23.3-41.3,85.7-41.3,85.7c-4.6-0.4-8.5-5-11.9-13.2
					c0,0,23.3-61.5,19.3-74.4s-49.9-30.6-49.9-30.6L409.3,120z"/>
				<path class="st0" d="M432,251C432,251,432,251,432,251c-4.6-0.4-8.7-4.9-12.2-13.3c0-0.1,0-0.2,0-0.2
					c0.2-0.6,23.2-61.6,19.3-74.2c-3.9-12.6-49.2-30.2-49.7-30.4c-0.1,0-0.2-0.1-0.2-0.3c0-0.1,0-0.2,0.1-0.3l19.9-12.5
					c0.1,0,0.2-0.1,0.3,0c0.2,0.1,16.7,5.5,32.8,13.8c9.5,4.9,16.9,9.7,22.2,14.4c6.6,5.9,9.7,11.7,9.2,17.1
					c-2.1,23.1-41,85.2-41.4,85.8C432.2,250.9,432.1,251,432,251z M420.4,237.5c3.4,8.1,7.2,12.4,11.5,12.8
					c2.2-3.5,39.1-63,41.2-85.4c1.1-11.8-16.3-23.4-31-30.9c-15.3-7.8-31-13.2-32.6-13.7l-19.3,12.2c5.5,2.2,45.7,18.4,49.5,30.6
					C443.5,175.7,421.8,233.7,420.4,237.5z"/>
			</g>
			<g>
				<path class="st0" d="M472.6,256c-0.1,0.4-5.6,1.4-6.3,7.3c-0.7,5.9,23.4,26.5,27.6,23.4c4.2-3.1-3.6-15-8.1-22
					C481.4,257.7,472.6,256,472.6,256z"/>
				<path class="st0" d="M492.7,287.3c-1.3,0-3.1-0.7-5.4-2c-8.2-4.7-21.9-17.4-21.3-22c0.5-4.8,4.2-6.5,5.8-7.2
					c0.2-0.1,0.5-0.2,0.5-0.3c0,0,0.1-0.1,0.1-0.1c0.1,0,0.2-0.1,0.2,0c0.1,0,9,1.8,13.4,8.8l0.6,1c4.6,7.3,11.6,18.3,7.4,21.4
					C493.7,287.2,493.3,287.3,492.7,287.3z M472.7,256.3c-0.1,0.1-0.3,0.2-0.7,0.3c-1.5,0.7-4.9,2.2-5.4,6.7
					c-0.5,4.1,12.3,16.5,21,21.5c3,1.7,5.2,2.3,6.1,1.7c3.8-2.8-3.3-14-7.5-20.6l-0.6-1C481.6,258.6,473.9,256.6,472.7,256.3z"/>
			</g>
			<g>
				<path class="st1" d="M477.8,248.7l3.1,12.3c0,0-6.9,2-10.2-3.2c-1.8-9.1-2.1-9.8-2.1-9.8S475.6,246.2,477.8,248.7z"/>
				<path class="st0" d="M477.9,261.7c-2.4,0-5.5-0.6-7.5-3.7c0,0,0-0.1,0-0.1c-1.8-8.9-2-9.8-2.1-9.8c0-0.1,0-0.2,0-0.2
					c0-0.1,0.1-0.1,0.2-0.2c0.3-0.1,7.2-1.8,9.5,0.9c0,0,0.1,0.1,0.1,0.1l3.1,12.3c0,0.2-0.1,0.3-0.2,0.4
					C480.9,261.3,479.6,261.7,477.9,261.7z M470.9,257.7c2.8,4.3,8.3,3.4,9.6,3.1l-3-11.9c-1.9-2-7.3-1-8.6-0.7
					C469.1,248.9,469.6,251.1,470.9,257.7z"/>
			</g>
			<g>
				<path class="st3" d="M357.8,132.1c0,0-0.8,22.7,41.4,30.4c42.2,7.7,61.2,89.4,61.2,89.4s19,4.6,21.1-4.3
					c-7.3-30.9-21.1-105.3-71.6-119.7C373.2,117.5,357.8,132.1,357.8,132.1z"/>
				<path class="st0" d="M470.4,253.4c-0.1,0-0.2,0-0.3,0c-5,0-9.8-1.2-9.8-1.2c-0.1,0-0.2-0.1-0.2-0.2c0-0.2-4.9-20.7-14.8-41.8
					c-9.1-19.4-24.5-43.4-46.2-47.4c-21.9-4-32.1-12.1-36.7-18.2c-5.1-6.6-4.9-12.3-4.9-12.5c0-0.1,0-0.2,0.1-0.2
					c0.2-0.2,4-3.7,12.4-6.1c7.7-2.2,20.9-3.6,40,1.8c11,3.1,21.1,9.4,29.9,18.7c7.5,7.9,14.2,18.1,20.1,30.4
					c10.7,22.4,16.5,47.5,20.3,64.2c0.5,2.4,1.1,4.6,1.5,6.7c0,0,0,0.1,0,0.1C481,251.4,477,253.4,470.4,253.4z M460.7,251.6
					c0.9,0.2,5.1,1.1,9.5,1.1c4.4,0,9.9-0.8,11-5.2c-0.5-2-1-4.2-1.5-6.6c-3.8-16.6-9.6-41.8-20.2-64.1
					c-12.6-26.5-29.3-42.9-49.6-48.7c-18.9-5.3-32-3.9-39.6-1.8c-7.6,2.1-11.5,5.3-12.1,5.9c0,0.9,0.3,6.1,4.8,12
					c4.6,6,14.6,14,36.3,17.9c9.7,1.8,19,7.6,27.6,17.3c6.8,7.8,13.3,18,19.1,30.4C455.4,230,460.2,249.5,460.7,251.6z"/>
			</g>
			<g>
				<path class="st0" d="M393.3,47.3c0,0,1.6,9,0,10c-1.6,1-7.6-0.6-7.5-1.2c0.1-0.5,1.4-7.8,1.4-7.8L393.3,47.3z"/>
				<path class="st0" d="M391.7,57.9c-2.2,0-5.3-0.9-5.9-1.3c-0.2-0.1-0.3-0.3-0.3-0.5c0.1-0.5,1.4-7.8,1.4-7.8
					c0-0.1,0.1-0.2,0.2-0.2l6.1-1c0.2,0,0.3,0.1,0.3,0.2c0.3,1.5,1.6,9.3-0.1,10.3C393.1,57.8,392.4,57.9,391.7,57.9z M386.1,56.1
					c0.7,0.5,5.7,1.8,7,1c1-0.6,0.5-5.7-0.1-9.4l-5.6,0.9C387.2,49.7,386.3,55.2,386.1,56.1z"/>
			</g>
			<g>
				<path class="st1" d="M429,96.3c-2.3,0.4-4.9,1.3-10.3,3.4c-15.2,4,2.5-35.2-23.2-43.1l-1.5,55.6c16.9,2.3,31.9-7.9,35.4-8.6
					C431.5,103.2,432.7,96.3,429,96.3z"/>
				<path class="st0" d="M399.1,112.9c-1.7,0-3.4-0.1-5.2-0.3c-0.2,0-0.3-0.2-0.3-0.3l1.5-55.6c0-0.1,0-0.2,0.1-0.2
					c0.1-0.1,0.2-0.1,0.3,0c14.6,4.5,15.4,19.3,16,30c0.3,5.9,0.6,11,2.9,12.7c1,0.7,2.3,0.8,4.1,0.4c5.3-2.1,7.9-3,10.3-3.4
					c0,0,0.1,0,0.1,0c1.5,0,2.4,1,2.6,2.8c0.2,2.1-0.7,4.8-2.2,5.1c-0.8,0.2-2.2,0.8-4.1,1.7C419.8,108.3,410.1,112.9,399.1,112.9z
					 M394.3,112c12.8,1.7,24.5-3.9,30.8-6.8c2-0.9,3.4-1.6,4.2-1.8c1-0.2,1.9-2.6,1.7-4.5c-0.1-0.9-0.5-2.3-2-2.3c0,0,0,0,0,0
					c-2.3,0.4-4.9,1.3-10.2,3.4c0,0,0,0,0,0c-2,0.5-3.5,0.4-4.6-0.5c-2.6-1.9-2.9-6.9-3.2-13.1c-0.6-11.1-1.3-24.8-15.2-29.4
					L394.3,112z M418.7,99.7L418.7,99.7L418.7,99.7z"/>
			</g>
			<g>
				<path class="st1" d="M429.3,97.1c0,0,7.3,0.4,8.8,2.8c1.5,2.4,1.2,7.7,1.2,7.7s-2.4,2.2-5.4,0.4c-3-1.8-3.1-5.4-5.2-5.6
					C426.1,100.5,427.6,97.5,429.3,97.1z"/>
				<path class="st0" d="M436.3,109c-0.8,0-1.6-0.2-2.6-0.8c-1.6-0.9-2.4-2.4-3-3.5c-0.6-1.1-1.1-2-2-2.1c-0.1,0-0.1,0-0.2-0.1
					c-1.6-1.2-1.6-2.6-1.4-3.3c0.2-1.2,1.1-2.3,2.1-2.6c0,0,0.1,0,0.1,0c0.3,0,7.4,0.5,9,3c1.5,2.5,1.3,7.7,1.3,7.9
					c0,0.1,0,0.2-0.1,0.2C439.4,107.9,438.2,109,436.3,109z M428.8,102.1c1.1,0.2,1.7,1.2,2.4,2.3c0.7,1.1,1.4,2.4,2.8,3.3
					c2.5,1.5,4.5,0.1,4.9-0.3c0-0.8,0.1-5.3-1.2-7.4c-1.3-2.2-7.8-2.7-8.5-2.7c-0.8,0.3-1.5,1.2-1.7,2.1
					C427.5,100.5,427.9,101.4,428.8,102.1z"/>
			</g>
			<g>
				<path class="st1" d="M399.3,58.4c-5.8-3.8-13.9-4.8-25.5-2.4c0,0-13.1,0.7-15.6,17.4c-3.1,20.1-1.9,60.4-1.9,60.4
					s57,0.5,60.8-13.9c-5.9-9.4-11.1-13.8-10-32.2L399.3,58.4z"/>
				<path class="st0" d="M356.8,134.2c-0.3,0-0.5,0-0.5,0c-0.2,0-0.3-0.1-0.3-0.3c0-0.4-1.1-40.6,1.9-60.5
					c1.3-8.8,5.6-13.1,8.9-15.2c3.5-2.2,6.6-2.5,7-2.5c11.2-2.4,19.6-1.6,25.7,2.4c0.1,0.1,0.2,0.3,0.1,0.4
					c-0.1,0.1-0.3,0.2-0.4,0.1c-6-3.9-14.3-4.7-25.3-2.3c0,0,0,0,0,0c0,0-3.2,0.2-6.7,2.4c-3.2,2-7.3,6.3-8.6,14.8
					c-2.9,18.9-2,56.4-1.9,60.1c0,0,0.1,0,0.1,0c5.2,0,56.2-0.3,60.1-13.6c-0.8-1.3-1.6-2.5-2.4-3.6c-4.8-7.1-8.5-12.7-7.6-28.7
					c0-0.2,0.1-0.3,0.3-0.3c0.2,0,0.3,0.2,0.3,0.3c-0.9,15.7,2.6,21,7.5,28.3c0.8,1.2,1.6,2.4,2.5,3.8c0,0.1,0.1,0.2,0,0.2
					c-1.6,6.1-12.4,10.3-32.1,12.6C372.3,134.1,359.5,134.2,356.8,134.2z"/>
			</g>
			<g>
				<polygon class="st0" points="419.3,129.7 442.8,114.3 441.6,114.3 421,126.3 				"/>
				<path class="st0" d="M419.3,130c-0.1,0-0.1,0-0.2-0.1c-0.1-0.1-0.1-0.2-0.1-0.4l1.7-3.4c0-0.1,0.1-0.1,0.1-0.1l20.6-12
					c0,0,0.1,0,0.2,0h1.2c0.1,0,0.3,0.1,0.3,0.2c0,0.1,0,0.3-0.1,0.3l-23.5,15.4C419.4,130,419.4,130,419.3,130z M421.2,126.5
					l-1.2,2.4l21.7-14.2h-0.1L421.2,126.5z"/>
			</g>
			<g>
				<polygon class="st0" points="391.5,117.5 421.1,126.5 419.3,129.7 390.1,120 				"/>
				<path class="st0" d="M419.3,130C419.3,130,419.2,130,419.3,130l-29.3-9.7c-0.1,0-0.2-0.1-0.2-0.2c0-0.1,0-0.2,0-0.3l1.4-2.4
					c0.1-0.1,0.2-0.2,0.3-0.1l29.7,9c0.1,0,0.2,0.1,0.2,0.2c0,0.1,0,0.2,0,0.3l-1.8,3.2C419.5,129.9,419.4,130,419.3,130z
					 M390.5,119.8l28.6,9.5l1.5-2.6l-29.1-8.8L390.5,119.8z"/>
			</g>
			<g>
				<path class="st1" d="M423.7,103.7c-1,0.2-32.2,13.9-32.2,13.9l29.7,9l24.1-15.2L423.7,103.7z"/>
				<path class="st0" d="M421.1,126.8C421.1,126.8,421.1,126.8,421.1,126.8l-29.7-9c-0.1,0-0.2-0.1-0.2-0.3c0-0.1,0.1-0.2,0.2-0.3
					c3.2-1.4,31.3-13.7,32.3-13.9c0.1,0,0.1,0,0.2,0l21.5,7.6c0.1,0,0.2,0.1,0.2,0.3c0,0.1,0,0.2-0.1,0.3l-24.1,15.2
					C421.2,126.8,421.2,126.8,421.1,126.8z M392.3,117.5l28.7,8.7l23.4-14.8l-20.8-7.4C422.1,104.5,401.3,113.6,392.3,117.5z"/>
			</g>
			<g>
				<polygon class="st0" points="447.2,95.5 421,126.3 422.9,127.5 448.8,97.1 				"/>
				<path class="st0" d="M422.9,127.8c-0.1,0-0.1,0-0.2,0l-1.9-1.2c-0.1,0-0.1-0.1-0.1-0.2c0-0.1,0-0.2,0.1-0.2L447,95.3
					c0.1-0.1,0.1-0.1,0.2-0.1c0.1,0,0.2,0,0.2,0.1l1.5,1.6c0.1,0.1,0.1,0.3,0,0.4l-25.8,30.4C423.1,127.7,423,127.8,422.9,127.8z
					 M421.4,126.2l1.4,0.9l25.5-30l-1.1-1.1L421.4,126.2z"/>
			</g>
			<g>
				<polygon class="st0" points="473.1,80.8 447.2,95.5 448.8,97.1 474.1,82.3 				"/>
				<path class="st0" d="M448.8,97.4c-0.1,0-0.2,0-0.2-0.1l-1.5-1.6c-0.1-0.1-0.1-0.2-0.1-0.3c0-0.1,0.1-0.2,0.1-0.2L473,80.5
					c0.1-0.1,0.3,0,0.4,0.1l1,1.5c0,0.1,0.1,0.2,0,0.2c0,0.1-0.1,0.1-0.1,0.2l-25.3,14.8C448.9,97.3,448.8,97.4,448.8,97.4z
					 M447.7,95.6l1.1,1.1l24.8-14.5l-0.6-1L447.7,95.6z"/>
			</g>
			<g>
				<polygon class="st1" points="422.9,127.5 449.8,111.4 474.1,82.3 448.8,97.1 				"/>
				<path class="st0" d="M422.9,127.8c-0.1,0-0.2,0-0.2-0.1c-0.1-0.1-0.1-0.3,0-0.4l25.8-30.4c0,0,0,0,0.1-0.1L473.9,82
					c0.1-0.1,0.3,0,0.4,0.1c0.1,0.1,0.1,0.3,0,0.4l-24.2,29.2c0,0,0,0-0.1,0.1l-26.9,16C423,127.8,423,127.8,422.9,127.8z M449,97.3
					l-24.6,29l25.3-15.1l23.1-27.8L449,97.3z"/>
			</g>
			<g>
				<path class="st1" d="M370.1,56.9c0,0-36.2,10.8-25.6,47.9c8,27.8,41.6,11.1,50,6.4c3.4-1.8,2.2-6.9-2.2-6.8
					c-1.3,0.5-2.7,1-4.5,1.7c-9.5,3.8-34.3,0.3-29.1-21.6L370.1,56.9z"/>
				<path class="st0" d="M364.8,120.8c-3.2,0-6.3-0.5-9.1-1.6c-5.6-2.3-9.5-7.1-11.6-14.3c-2.4-8.5-2.6-16.4-0.5-23.3
					c1.7-5.6,4.9-10.6,9.4-14.9c7.7-7.3,16.8-10.1,16.9-10.1c0.2,0,0.3,0,0.4,0.2c0,0.2,0,0.3-0.2,0.4c-0.1,0-9.1,2.8-16.7,10
					c-7,6.6-14.2,18.6-8.7,37.6c2,6.9,5.8,11.6,11.2,13.9c2.7,1.1,5.8,1.6,8.9,1.6c11.8,0,25-6.7,29.4-9.2c1.4-0.8,2.1-2.2,1.7-3.7
					c-0.3-1.2-1.5-2.6-3.7-2.6c0,0,0,0-0.1,0c-1.2,0.5-2.7,1-4.4,1.7c-5.6,2.2-17.7,2.1-24.8-4c-4.9-4.2-6.5-10.4-4.7-17.9
					c0-0.2,0.2-0.3,0.4-0.2c0.2,0,0.3,0.2,0.2,0.4c-1.7,7.3-0.2,13.3,4.5,17.3c7,6,18.7,6.1,24.2,3.9c1.7-0.7,3.2-1.3,4.5-1.7
					c0,0,0.1,0,0.1,0c2.2,0,3.9,1.1,4.4,3c0.5,1.7-0.3,3.5-2,4.4C390.1,114.1,376.8,120.8,364.8,120.8z"/>
			</g>
			<g>
				<path class="st1" d="M387.3,59.7l0.7-9.6c0,0,13.7,4.6,14.1-17.9c0.3-13.7-11.8-17-18.9-9.8c-7,7.2-3,19.4-4.7,24.6
					c-1.1,3.4-5.1,8.4-6.5,11.5C371.2,60,382.7,66.6,387.3,59.7z"/>
				<path class="st0" d="M381.2,63.1c-2.7,0-5.4-1-7-2c-1.4-0.8-2.9-2-2.5-2.8c0.6-1.3,1.6-2.9,2.7-4.5c1.6-2.4,3.2-4.9,3.8-6.9
					c0.6-1.7,0.5-4.2,0.4-7.1c-0.2-5.7-0.4-12.8,4.4-17.7c3.5-3.5,8.3-4.7,12.5-3c4.5,1.9,7.1,6.8,6.9,13.1
					c-0.2,8.5-2.2,14.2-6.1,16.9c-3.3,2.3-6.9,1.7-8.1,1.4l-0.6,9.2c0,0.1,0,0.1-0.1,0.1C385.9,62.3,383.6,63.1,381.2,63.1z
					 M391.5,19c-2.9,0-5.8,1.3-8.1,3.6c-4.6,4.7-4.4,11.6-4.2,17.2c0.1,2.9,0.2,5.5-0.4,7.3c-0.7,2.1-2.3,4.6-3.9,7
					c-1.1,1.7-2.1,3.2-2.7,4.5c-0.1,0.2,0.4,1,2.2,2c3,1.7,9.4,3.6,12.6-1l0.6-9.5c0-0.1,0.1-0.2,0.1-0.2c0.1-0.1,0.2-0.1,0.3,0
					c0,0,4.2,1.4,7.9-1.2c3.7-2.6,5.6-8.1,5.8-16.4c0.1-6.1-2.3-10.7-6.6-12.5C394,19.2,392.7,19,391.5,19z M387.3,59.7L387.3,59.7
					L387.3,59.7z"/>
			</g>
		</g>
		<g>
			<path class="st0" d="M364.4,59.3c0,0,6.8-2.1,10.7-2.8c8.9-2.1,7.7-11.4,7.1-18c-0.6-6.6,2-8,3.2-7.3s5.1-0.6,6.2-3.3
				c7.1,0.1,6.6,6.8,12.3,8c0,0,6.4-9.1,1.8-15.4s-11.1-4-11.1-4s-8.2-7.2-16.9,0.4S363.8,54.2,364.4,59.3z"/>
			<path class="st0" d="M364.4,59.6c-0.1,0-0.1,0-0.2,0c-0.1,0-0.1-0.1-0.1-0.2c-0.3-2.7,0.9-11.5,3.1-20.4
				c1.6-6.4,5.1-17.9,10.2-22.3c8.2-7.2,16.1-1.4,17.2-0.5c1.1-0.3,7.1-1.7,11.3,4.2c4.6,6.4-1.5,15.4-1.8,15.8
				c-0.1,0.1-0.2,0.1-0.3,0.1c-2.7-0.5-4.1-2.3-5.4-4c-1.6-2-3-3.9-6.6-4c-0.8,1.7-2.5,2.8-3.9,3.2c-1.1,0.4-2.1,0.4-2.6,0
				c-0.3-0.2-0.7-0.2-1.1,0.1c-0.5,0.3-2.1,1.7-1.6,6.9l0.1,0.8c0.6,6.5,1.4,15.4-7.4,17.5C371.3,57.5,364.5,59.6,364.4,59.6
				C364.4,59.6,364.4,59.6,364.4,59.6z M386.1,13.7c-2.5,0-5.4,0.8-8.4,3.4c-8.4,7.3-13.4,35.7-13.1,41.8c1.5-0.4,7-2.1,10.3-2.7
				c8.3-2,7.5-10.2,6.9-16.9l-0.1-0.8c-0.5-5.4,1.2-7.1,1.9-7.5c0.6-0.4,1.2-0.4,1.7-0.1c0.4,0.2,1.2,0.2,2.1-0.1
				c1.3-0.4,3-1.5,3.7-3.1c0-0.1,0.2-0.2,0.3-0.2c4,0.1,5.7,2.2,7.3,4.2c1.3,1.6,2.5,3.2,4.9,3.7c0.8-1.3,5.8-9.3,1.7-14.9
				c-4.4-6-10.5-4-10.8-3.9c-0.1,0-0.2,0-0.3-0.1C394,16.5,390.7,13.7,386.1,13.7z"/>
		</g>
		<g>
			<path class="st1" d="M392.6,105.4c0,0,8.3-3,12.6-1c4.3,1.9,5.5,12.5,5.5,12.5s-0.3,0.7-1.5,0c-1.2-0.7-3-6.9-3-6.9
				s-0.6,3.3-3.4,4.1s-5.7-1.5-6.5-2.4c-0.7-0.9-3.8-1.2-3.8-1.2S391.2,107.6,392.6,105.4z"/>
			<path class="st0" d="M410.2,117.4c-0.3,0-0.7-0.1-1.1-0.4c-1-0.6-2.3-4.3-2.9-6.1c-0.4,1.1-1.4,2.8-3.3,3.3
				c-2.9,0.8-6-1.6-6.8-2.5c-0.5-0.6-2.5-1-3.6-1.1c-0.1,0-0.2-0.1-0.2-0.2c-0.1-0.1-1.5-3,0-5.3c0-0.1,0.1-0.1,0.2-0.1
				c0.3-0.1,8.4-3,12.8-1c4.4,2,5.7,12.3,5.7,12.7c0,0,0,0.1,0,0.1c0,0-0.1,0.3-0.5,0.4C410.4,117.4,410.3,117.4,410.2,117.4z
				 M406.3,109.6c0.1,0,0.3,0.1,0.3,0.2c0.7,2.4,2.1,6.3,2.9,6.7c0.5,0.3,0.8,0.3,0.9,0.2c0,0,0.1,0,0.1-0.1
				c-0.1-1.1-1.5-10.4-5.3-12.1c-3.9-1.8-11.3,0.7-12.3,1c-1.1,1.8-0.2,3.9,0,4.5c0.7,0.1,3.1,0.4,3.8,1.3c0.7,0.8,3.6,3,6.2,2.3
				c2.5-0.7,3.2-3.8,3.2-3.8C406,109.7,406.1,109.6,406.3,109.6C406.2,109.6,406.3,109.6,406.3,109.6z"/>
		</g>
		<g>
			<path class="st1" d="M379.5,65.6c0,0,2.4,0.5,4.5-1.2c2.3,3.3,2,15.4,1.8,20L379.5,65.6z"/>
			<path class="st0" d="M385.8,84.6C385.8,84.6,385.8,84.6,385.8,84.6c-0.2,0-0.3-0.1-0.3-0.3c0.2-3.7,0.6-15.9-1.5-19.5
				c-2.1,1.5-4.3,1.1-4.4,1.1c-0.2,0-0.3-0.2-0.2-0.4c0-0.2,0.2-0.3,0.4-0.2c0,0,2.3,0.4,4.2-1.2C383.9,64,384,64,384,64
				c0.1,0,0.2,0.1,0.2,0.1c2.3,3.3,2.1,15.2,1.8,20.2C386.1,84.5,385.9,84.6,385.8,84.6z"/>
		</g>
		<g>
			<path class="st1" d="M404.8,70.3c0,0,3.2,7.2,2.4,13.3L404.8,70.3z"/>
			<path class="st0" d="M407.2,84C407.2,84,407.2,84,407.2,84c-0.2,0-0.3-0.2-0.3-0.3c0.7-6-2.4-13.1-2.4-13.2
				c-0.1-0.2,0-0.3,0.2-0.4c0.2-0.1,0.3,0,0.4,0.2c0.1,0.3,3.2,7.3,2.5,13.5C407.5,83.9,407.4,84,407.2,84z"/>
		</g>
		<g>
			<path class="st0" d="M384.6,15c0,0-2.2-11.1-11.5-6.4c-9.3,4.6-3.7,26.3-3.7,26.3L384.6,15z"/>
			<path class="st0" d="M369.4,35.2C369.4,35.2,369.4,35.2,369.4,35.2c-0.2,0-0.3-0.1-0.3-0.2c-0.2-0.9-5.6-22,3.8-26.7
				c2.7-1.3,5.1-1.5,7.1-0.5c3.7,1.8,4.8,7,4.8,7.2c0,0.1,0,0.2-0.1,0.2l-15.2,19.9C369.6,35.1,369.5,35.2,369.4,35.2z M377.3,7.7
				c-1.2,0-2.6,0.4-4.1,1.1c-8.1,4-4.5,21.8-3.6,25.4l14.7-19.3c-0.2-0.8-1.3-5.1-4.5-6.6C379,7.9,378.2,7.7,377.3,7.7z"/>
		</g>
		<g>
			<polygon class="st3" points="449.3,167.1 445.2,174.1 452.5,171.3 450,176.5 453.6,176.5 			"/>
			<path class="st0" d="M453.6,176.8H450c-0.1,0-0.2-0.1-0.3-0.1c-0.1-0.1-0.1-0.2,0-0.3l2.1-4.5l-6.6,2.5c-0.1,0-0.3,0-0.3-0.1
				c-0.1-0.1-0.1-0.2,0-0.3l4.1-7c0.1-0.1,0.3-0.2,0.4-0.1c0.1,0.1,0.2,0.3,0.1,0.4l-3.7,6.3l6.5-2.4c0.1,0,0.2,0,0.3,0.1
				c0.1,0.1,0.1,0.2,0.1,0.3l-2.2,4.7h3.1c0.2,0,0.3,0.1,0.3,0.3C453.9,176.7,453.8,176.8,453.6,176.8z"/>
		</g>
		<g>
			<polygon class="st3" points="470,160.2 467,164.9 471.5,164.9 467.7,168.3 470,169.6 			"/>
			<path class="st0" d="M470,169.9c0,0-0.1,0-0.1,0l-2.4-1.3c-0.1,0-0.1-0.1-0.2-0.2c0-0.1,0-0.2,0.1-0.3l3.3-2.9H467
				c-0.1,0-0.2-0.1-0.3-0.2c-0.1-0.1,0-0.2,0-0.3l3.1-4.7c0.1-0.1,0.3-0.2,0.4-0.1c0.1,0.1,0.2,0.3,0.1,0.4l-2.8,4.2h4
				c0.1,0,0.2,0.1,0.3,0.2s0,0.2-0.1,0.3l-3.5,3.2l2,1.1c0.1,0.1,0.2,0.3,0.1,0.4C470.3,169.9,470.2,169.9,470,169.9z"/>
		</g>
	</g>
</g>
</svg>
