<?xml version="1.0" encoding="UTF-8"?>
<svg id="Layer_1" data-name="Layer 1" xmlns="http://www.w3.org/2000/svg" viewBox="0 0 1600 600">
  <defs>
    <style>
      .cls-1 {
        fill: #1c0311;
      }

      .cls-1, .cls-2, .cls-3, .cls-4, .cls-5, .cls-6, .cls-7, .cls-8 {
        stroke: #1a1a1a;
      }

      .cls-1, .cls-2, .cls-4, .cls-5, .cls-7, .cls-8 {
        stroke-linecap: round;
        stroke-linejoin: round;
      }

      .cls-2, .cls-8 {
        fill: none;
      }

      .cls-9, .cls-6 {
        fill: #c2c6f9;
      }

      .cls-10 {
        fill: #1a1a1a;
      }

      .cls-3 {
        fill: #7579f7;
      }

      .cls-3, .cls-4, .cls-5 {
        stroke-width: 2px;
      }

      .cls-3, .cls-6 {
        stroke-miterlimit: 10;
      }

      .cls-4 {
        fill: #91b5fc;
      }

      .cls-5, .cls-7 {
        fill: #fff;
      }

      .cls-6, .cls-7, .cls-8 {
        stroke-width: 1.3px;
      }
    </style>
  </defs>
  <path class="cls-5" d="M355.21,503.41H1469.86s60.52-3.36,44.26,7.55c-16.26,10.9-110.62,12.8-151.66,32.68-41.04,19.88,66.75,36.78-66.93,38.93-133.69,2.15-866.24,7.82-868.65-24.71-2.41-32.53-317.95,3.69-321.57-17.14-3.61-20.83,124.05-37.31,249.91-37.31Z"/>
  <g>
    <circle class="cls-9" cx="1127.19" cy="459.92" r="51.29"/>
    <path class="cls-5" d="M784.54,499.73v7.72h319.48c-1.19-3.28-16.61-43.64-59.03-54.06-32.09-7.88-66.58,4.58-87.6,31.74-7.41-27.44-33.44-42.03-53.95-36.18-14.35,4.09-25.37,17.99-28.56,34.91-10.51-14.92-29.34-19.76-43.16-12.69-2.92,1.49-5.53,3.47-7.78,5.83-.41-.88-.88-1.76-1.44-2.63-5.87-9.06-18.43-13.07-30.39-8.98-6.34-19.35-25.62-31.23-44.9-28.32-17.64,2.67-31.78,17.2-34.19,35.57-16.95-6.56-34.5-3.1-43.52,7.94-5.56,6.81-6.46,14.78-6.56,19.05h151.65s0,.06,0,.09h-30.03Z"/>
    <path class="cls-5" d="M611.2,498.23c-11.28,3.4-6.83,37.25,63.39,36.27,70.22-.99,417.62,1.52,424.44-3.76,6.82-5.28,59.16-33.94-8.56-33.94s-467.99-1.97-479.27,1.43Z"/>
  </g>
  <g>
    <circle class="cls-9" cx="592.35" cy="328.73" r="25.41"/>
    <path class="cls-5" d="M829.47,370.25c-34.7,17.14-73.05,12.21-95.9,2.54-5.37,42.17-71.7,134.35-78.12,144.32-.51,.16-1.04,.3-1.58,.4-6.93,1.63-15.19-3.36-17.52-10.13,.48,.1,.74,.14,.74,.14,0,0,44.99-149.72,63.16-174.08,20.95-28.09,97.6-47.6,97.6-47.6l35.44,13.75s11.21,53.32-3.81,70.67Z"/>
    <path class="cls-1" d="M1067.45,384.53s10.95-6.98,16.98-2.86,24.12,41.26,22.06,46.97-10.95,6.82-14.6,2.7c-3.65-4.13-21.26-23.94-22.53-26.5-1.27-2.57-8.57-14.92-1.9-20.31Z"/>
    <path class="cls-5" d="M793.88,338.19s8.25,15.39,27.25,35.74c14.87,13.21,49.08,35.19,112.4,45.67,63.32,10.47,133.77-18.25,133.77-18.25,0,0,12.38-7.3,1.59-19.04-46.34-7.62-95.85,0-95.85,0,0,0-9.2-10.47-28.25-21.58-3.49-33.96-25.07-59.03-25.07-59.03l-94.99-19.68"/>
    <path class="cls-10" d="M796.59,277.76l-.47,.4-14.5,12.36s11.61,6.77,19.84,4.43,5.31,2.51,10.79,6.09c5.47,3.58,20.4,13.85,31.14,13.85h10.75s-1.91,20.89,5.97,21.61c7.88,.72,53.97,0,70.2-29.37l-8.36-18.39-125.36-10.98Z"/>
    <path class="cls-5" d="M801.47,282.02s18.28,31.1,51.28,30.68c33.01-.42,5.32-161.2,4.92-161.76s-9.68-8.25-9.68-8.25l-35.73,9.05-23.19,38.24,12.4,92.04Z"/>
    <path class="cls-3" d="M848.94,144.28s14.6,10.16,0,24.44c-14.6,14.28-32.37,50.46-16.19,106.96,16.19,56.49,16.19,53,16.19,53,0,0,.95,4.76,8.41,4.92,7.46,.16,58.87-4.44,73.79-35.39,1.9-4.13,4.44-7.93-2.54-14.76-6.98-6.82-14.28-16.03-13.65-36.55,.63-20.52-25.81-88.34-67.81-106v2.96l1.8,.42Z"/>
    <path class="cls-5" d="M914.79,181.05s26.72,2.63,46.31,17.45c19.58,14.82,51.57,54,56.42,66.6s-1.21,27.35-5.81,27.45c-4.59,.09-5.27-25.68-7.72-23.16s-.68,11.28-5.41,11.57c-4.72,.29-2.34-15.02-4.63-20.67-2.29-5.64-16.21-21.66-25.68-25.35s-19.71-5.33-28.29-6.84c-1.58-.28-23.83-1.08-25.84-3.35-8.89-10.05,.66-43.7,.66-43.7Z"/>
    <path class="cls-3" d="M866.92,153.56s24.55,18.22,49.09,21.6c8.04,1.27,25.6,8.89,26.45,11.85s1.06,7.41-6.35,21.58c-7.41,14.18-6.66,23.17-4.13,26.24-.42,2.75-20.84-.74-32.69-8.67-12.7-6.77-14.49-9.52-14.49-9.52"/>
    <g>
      <path class="cls-5" d="M638.19,209.97c-2.14-1.16-4.03-1.93-4.03-1.93,0,0-3.15-.82-4.84,.55s-3.6,2.54-3.6,2.54l-10.67-13.16,3.66-5.29,13.48,6.54"/>
      <polygon class="cls-5" points="554.73 181.41 632.49 255.14 575.36 311.22 496.65 239.81 554.73 181.41"/>
      <polygon class="cls-10" points="553.71 182.44 545.15 207.45 604.02 265.58 632.49 255.14 553.71 182.44"/>
      <polygon class="cls-10" points="631.22 271.86 632.49 255.14 575.36 311.22 582.34 317.56 631.22 271.86"/>
      <polygon class="cls-5" points="554.73 181.41 548.07 205.21 605.2 261.92 632.49 255.14 554.73 181.41"/>
      <polygon class="cls-10" points="575.36 223.67 563.59 239.25 568.43 244.17 586.88 236.21 575.36 223.67"/>
      <path class="cls-10" d="M606.06,197.47s17.07,17.1,17.7,24.88c.63,7.78-9.52,14.44-9.52,14.44l3.94,4.78s8.76-5.57,10.98-14.77c2.22-9.2-3.44-15.66-3.44-15.66l-11.3-14.11"/>
      <path class="cls-10" d="M604.28,195.2c-3.68-4.23-23.63,10.78-23.63,10.78l-5.28-4.1s18.25-13.96,25.23-13.81c6.98,.16,8.75,3.88,8.75,3.88"/>
      <path class="cls-5" d="M606.06,201.88s1.02,14.25,7.84,13.78c6.82-.48,10.02-3.06,8.59-4.97s-5.72-11.03-8.97-11.03-8.07-1.9-7.47,2.22Z"/>
      <path class="cls-5" d="M635.77,208.6s52.77,31.19,100.77,29.4c4.12-8.12,6.4-12.37,.74-19.45-4.91-6.32-9.31-11.85-10.41-18.88-14.67,4.13-31.12,4.84-37.57,4.43-12.38-.79-46.55-5.85-49.19-5.48,0,0-6.9-.71-10.44-1.15"/>
      <path class="cls-5" d="M626.88,203.73s-2.22,1.06-4.87,0-2.22-8.89-5.71-7.41-11.95,2.01-12.27,0,5.61-4.12,8.89-6.56,8.67-.32,14.71,4.02c6.03,4.34,10.37,4.76,10.37,4.76"/>
    </g>
    <path class="cls-3" d="M810.98,149.94s-21.08,3.39-48.85,29.57c-10.18,9.6-26.54,15.53-40.05,19.33,1.2,4.17,7.24,7.2,11.94,19.94,3.14,8.5-3.72,20.3-1.5,23.82,2.22,3.52,6.79,.13,9.56-.35,29.2-5.08,41.26-18.62,41.26-18.62,0,0,.05-48.88,15.45-58.4,15.39-9.52,12.19-15.29,12.19-15.29Z"/>
    <path class="cls-3" d="M782.61,285.83s1.48,8.68,12.59,5.98c11.11-2.7,12.48-5.35,9.47-22.49-3.02-17.14-20.89-72.78-7.14-89.29,13.75-16.5,17.98-18.83,17.98-18.83l2.54-14.18s-22.68,6.67-33.22,28.14c-11.21,22.85-13.65,53.21-2.22,110.66Z"/>
    <path class="cls-1" d="M805.14,133.1s-12.38-9.99-8.15-23.1c4.23-13.12-3.07-16.93-1.38-23.49,1.69-6.56,10.37-20.52,25.18-8.36l-.85,12.06s-16.61,37.32-14.81,42.89Z"/>
    <path class="cls-5" d="M829.05,127.99c-32.16,18.2-28.35-14.81-26.24-22.85-2.12-8.67,1.9-24.12,17.77-24.97,34.28-.42,27.08,45.07,26.13,48.4-.95,3.33-.32,21.11,0,29.99-.16,3.81-8.09,10.47-15.87,10.79-.48,3.02-1.59,17.46-10.16,16.66-8.57-.79-5.24-7.78-1.27-18.09-4.92-.63-4.94-5.98-4.94-5.98,0,0,3.83-18.34,3.56-29.24"/>
    <path class="cls-10" d="M817.82,135.83s7.07-1.58,10.6-7.16c-8.69,3.94-10.36,4.26-10.36,4.26l-.23,2.9Z"/>
    <path class="cls-1" d="M816.57,78.05s-14.54,16.08,9.76,24.97c7.17,13.54,9.49,37.03,34.46,35.55,7.62-.63,12.27,4.97,17.56,11.37s26.45,17.72,47.24-9.04c7.62-7.25,13.49-5.98,19.68-6.93,6.19-.95,23.64-12.85,18.73-26.5-4.92-13.65-11.58-9.36-22.85-8.09-6.98,1.27-10.63-4.6-20.15-1.11-9.52,3.49-16.5,9.05-34.44-1.43-17.93-10.47-48.24-35.97-69.98-18.78Z"/>
    <path class="cls-1" d="M653.87,517.51c-6.93,1.63-15.19-3.36-17.52-10.14-1.57-.34-5.49-1.45-10.37-4.62-6.35-4.13-21.11-10.63-25.23-5.71-5.4,16.98,36.15,36.25,40.6,35.81,3.32-.33,8.91-7.67,14.1-15.74-.52,.16-1.04,.3-1.58,.4Z"/>
    <path class="cls-5" d="M1162.47,243.45c-6.01,1.06-12.64,2.4-19.33,2.91-16.48,1.26-33.32-2.48-42.25-27.84-4.14-11.77-6.59-28.21-6.5-50.98,0,0,18.77,24.07,57.49,14.76-5.71,22-5.08,54.38,10.58,61.14Z"/>
    <path class="cls-5" d="M1143.14,246.36c-16.48,1.26-33.32-2.48-42.25-27.84,6.57,2.9,21,8.02,33.44,3.77-2.83,9.67,4.18,19.34,8.81,24.07Z"/>
    <path class="cls-5" d="M513.44,367.52s-13.33,17.77,14.92,25.07c-10.47,22.53,6.98,56.68,6.98,56.68,0,0-29.52-6.22-47.92-28.14-3.49-32.35,12.38-50.59,26.02-53.61Z"/>
  </g>
  <g id="video">
    <rect class="cls-5" x="1324.4" y="350.65" width="34.83" height="25.06" transform="translate(157.92 -365.35) rotate(16.46)"/>
    <path d="M1346.14,362.19l-4.15-4.37c-1.33-1.4-3.68-.83-4.22,1.02l-1.71,5.78c-.55,1.85,1.12,3.6,2.99,3.15l5.86-1.41c1.88-.45,2.56-2.77,1.23-4.17Z"/>
  </g>
  <g id="picture">
    <path class="cls-5" d="M352.13,273.36l7.08,26.97-57.04,14.97-2.72-10.37c4.42-3.97,14.68-11.56,26.18-8.84,4.71-7.61,13.84-20.75,26.5-22.73Z"/>
    <path class="cls-4" d="M347.38,255.27l4.75,18.09c-12.66,1.98-21.79,15.12-26.5,22.73-11.51-2.72-21.77,4.87-26.18,8.84l-9.1-34.68,57.04-14.97Z"/>
    <rect class="cls-1" x="289.06" y="268.53" width="3.49" height="4.44" transform="translate(-59.21 82.7) rotate(-14.71)"/>
    <rect class="cls-1" x="317.11" y="261.17" width="3.49" height="4.44" transform="translate(-56.42 89.58) rotate(-14.71)"/>
    <rect class="cls-1" x="345.17" y="253.81" width="3.49" height="4.44" transform="translate(-53.63 96.46) rotate(-14.71)"/>
    <rect class="cls-1" x="300.82" y="313.35" width="3.49" height="4.44" transform="translate(-70.2 87.15) rotate(-14.71)"/>
    <rect class="cls-1" x="328.88" y="305.99" width="3.49" height="4.44" transform="translate(-67.41 94.03) rotate(-14.71)"/>
    <rect class="cls-1" x="356.93" y="298.63" width="3.49" height="4.44" transform="translate(-64.62 100.91) rotate(-14.71)"/>
    <rect class="cls-1" x="294.6" y="289.65" width="3.49" height="4.44" transform="translate(-64.39 84.79) rotate(-14.71)"/>
    <rect class="cls-1" x="350.71" y="274.93" width="3.49" height="4.44" transform="translate(-58.81 98.56) rotate(-14.71)"/>
    <circle class="cls-5" cx="306.42" cy="278.3" r="5.4"/>
  </g>
  <g>
    <g>
      <rect class="cls-8" x="190.9" y="103.32" width="37.05" height="4.92" transform="translate(28.93 -44.12) rotate(12.91)"/>
      <rect class="cls-7" x="186.95" y="96.73" width="9.22" height="9.87" transform="translate(27.56 -40.24) rotate(12.91)"/>
      <rect class="cls-8" x="194.57" y="87.33" width="37.05" height="4.92" transform="translate(25.45 -45.35) rotate(12.91)"/>
      <rect class="cls-7" x="190.61" y="80.75" width="9.22" height="9.87" transform="translate(24.08 -41.46) rotate(12.91)"/>
      <rect class="cls-8" x="187.24" y="119.3" width="37.05" height="4.92" transform="translate(32.41 -42.9) rotate(12.91)"/>
      <rect class="cls-7" x="183.28" y="112.72" width="9.22" height="9.87" transform="translate(31.04 -39.01) rotate(12.91)"/>
    </g>
    <path class="cls-7" d="M188.98,81.58c.14,.22,5.8,6.02,5.8,6.02l8.1-8.14-2.36-.54-5.55,5.82-4.36-4.57-1.62,1.41Z"/>
    <path class="cls-7" d="M185.42,97.12c.14,.22,5.8,6.02,5.8,6.02l8.1-8.14-2.36-.54-5.55,5.82-4.36-4.57-1.62,1.41Z"/>
    <path class="cls-6" d="M181.86,112.66c.14,.22,5.8,6.02,5.8,6.02l8.1-8.14-2.36-.54-5.55,5.82-4.36-4.57-1.62,1.41Z"/>
  </g>
  <g>
    <path class="cls-5" d="M1469.88,188.16c-2.08,4.21-3.12,5.58-3.12,5.58l-29.12-7.51c.27,.04,4.54,.69,6.11-1.71,1.63-2.48,4.34-7.01,4.34-7.01l21.79,10.64Z"/>
    <path class="cls-5" d="M1463.94,199.08c-5.3-2.84-26.31-12.85-26.31-12.85,0,0,0,0,.01,0,.27,.04,4.54,.69,6.11-1.71,1.63-2.48,4.34-7.01,4.34-7.01l25.69,12.55s-4.54,11.85-9.84,9.02Z"/>
    <path class="cls-5" d="M1485.57,131.33s0,0-.01,0c-.27-.04-4.53-.69-6.12,1.71-1.63,2.48-4.33,7-4.33,7l-25.69-12.55s4.53-11.85,9.84-9.02c5.3,2.83,26.31,12.85,26.31,12.85Z"/>
    <path class="cls-5" d="M1459.71,125.61c-5.2,11.81-23.44,53.24-23.44,53.24-1.33,2.89-.81,5.34,1.36,7.39,0,0,0,0,.01,0,.27,.04,4.54,.69,6.11-1.71,1.63-2.48,4.34-7.01,4.34-7.01l21.79,10.64c1.4-2.82,15.41-34.18,21.02-47.31,1.32-4.13,.61-7.63-5.34-9.51l-27.03-13.15c2.1,2.51,2.47,4.99,1.18,7.43Z"/>
    <rect class="cls-2" x="1460.71" y="135.81" width="25.65" height="2" transform="translate(209.57 -632.87) rotate(26.03)"/>
    <rect class="cls-2" x="1458.2" y="142.94" width="25.65" height="2" transform="translate(212.44 -631.04) rotate(26.03)"/>
    <rect class="cls-2" x="1454.47" y="150.59" width="25.65" height="2" transform="translate(215.42 -628.63) rotate(26.03)"/>
    <rect class="cls-2" x="1451.4" y="158.01" width="25.65" height="2" transform="translate(218.36 -626.53) rotate(26.03)"/>
    <rect class="cls-2" x="1448.67" y="165.59" width="25.65" height="2" transform="translate(221.41 -624.56) rotate(26.03)"/>
    <rect class="cls-2" x="1445.13" y="174.25" width="25.65" height="2" transform="translate(224.86 -622.13) rotate(26.03)"/>
  </g>
</svg>